OFF
# face-rotation BFS net; polygonal faces are preserved
# the cell decomposition is listed below as comments
68 104 0
-0.5 0.5 0.7071067811865476
0.5 0.5 0.7071067811865476
0.5 -0.5 0.7071067811865476
-0.5 -0.5 0.7071067811865476
-0.5 0.5 -0.7071067811865476
0.5 0.5 -0.7071067811865476
0.5 -0.5 -0.7071067811865476
-0.5 -0.5 -0.7071067811865476
0. 1. 0.
-1. 0. 0.
1. 0. 0.
0. -1. 0.
-0.5 0.5 1.707106781186548
0.5 0.5 1.707106781186548
0.5 -0.5 1.707106781186548
-0.5 -0.5 1.707106781186548
-0.5 0.5 3.1213203435596433
0.5 0.5 3.1213203435596433
0.5 -0.5 3.1213203435596433
-0.5 -0.5 3.1213203435596433
0. 1. 2.414213562373096
-1. 0. 2.414213562373096
1. 0. 2.414213562373096
0. -1. 2.414213562373096
-0.5 0.5 -1.7071067811865477
0.5 0.5 -1.7071067811865477
0.5 -0.5 -1.7071067811865477
-0.5 -0.5 -1.7071067811865477
-1.2071067811865475 1.2071067811865475 -0.7071067811865476
-0.7071067811865475 1.7071067811865475 0.
-1.2071067811865475 1.2071067811865475 0.7071067811865476
-1.7071067811865475 0.7071067811865475 0.
1.2071067811865475 1.2071067811865475 -0.7071067811865476
1.7071067811865475 0.7071067811865475 0.
1.2071067811865475 1.2071067811865475 0.7071067811865476
0.7071067811865475 1.7071067811865475 0.
1.2071067811865475 -1.2071067811865475 -0.7071067811865476
1.7071067811865475 -0.7071067811865475 0.
1.2071067811865475 -1.2071067811865475 0.7071067811865476
0.7071067811865475 -1.7071067811865475 0.
-1.2071067811865475 -1.2071067811865475 -0.7071067811865476
-0.7071067811865475 -1.7071067811865475 0.
-1.2071067811865475 -1.2071067811865475 0.7071067811865476
-1.7071067811865475 -0.7071067811865475 0.
-1.8164965809277263 -7.187523933826636e-17 -0.577350269189626
-1.3164965809277263 0.49999999999999983 -1.2844570503761736
-1.3164965809277263 -0.5 -1.2844570503761736
1.3164965809277263 -0.49999999999999983 -1.2844570503761736
1.8164965809277263 9.134237258306145e-17 -0.577350269189626
1.3164965809277263 0.5000000000000001 -1.2844570503761736
-0.49999999999999994 1.3164965809277263 -1.2844570503761732
0.5 1.3164965809277263 -1.2844570503761732
2.141125402616526e-17 1.8164965809277263 -0.5773502691896257
-0.49999999999999994 -1.3164965809277263 -1.2844570503761732
0.5 -1.3164965809277263 -1.2844570503761732
2.141125402616526e-17 -1.8164965809277263 -0.5773502691896257
-1.8164965809277263 -7.187523933826636e-17 0.577350269189626
-1.3164965809277263 0.49999999999999983 1.2844570503761736
-1.3164965809277263 -0.5 1.2844570503761736
1.3164965809277263 -0.49999999999999983 1.2844570503761736
1.8164965809277263 9.134237258306145e-17 0.577350269189626
1.3164965809277263 0.5000000000000001 1.2844570503761736
-0.49999999999999994 1.3164965809277263 1.2844570503761732
0.5 1.3164965809277263 1.2844570503761732
2.141125402616526e-17 1.8164965809277263 0.5773502691896257
-0.49999999999999994 -1.3164965809277263 1.2844570503761732
0.5 -1.3164965809277263 1.2844570503761732
2.141125402616526e-17 -1.8164965809277263 0.5773502691896257
4 0 1 2 3
4 4 5 6 7
4 4 8 0 9
4 5 10 1 8
4 6 10 2 11
4 7 11 3 9
3 9 4 7
3 6 10 5
3 4 5 8
3 7 6 11
3 9 0 3
3 2 10 1
3 0 1 8
3 3 2 11
4 12 13 14 15
4 16 17 18 19
4 16 20 12 21
4 17 22 13 20
4 18 22 14 23
4 19 23 15 21
3 21 16 19
3 18 22 17
3 16 17 20
3 19 18 23
3 21 12 15
3 14 22 13
3 12 13 20
3 15 14 23
4 0 1 2 3
4 12 13 14 15
4 12 0 3 15
4 13 1 2 14
4 13 1 0 12
4 14 2 3 15
4 4 5 6 7
4 24 25 26 27
4 24 4 7 27
4 25 5 6 26
4 25 5 4 24
4 26 6 7 27
4 4 8 0 9
4 28 29 30 31
4 28 4 9 31
4 29 8 4 28
4 30 0 9 31
4 29 8 0 30
4 5 10 1 8
4 32 33 34 35
4 33 10 5 32
4 32 5 8 35
4 33 10 1 34
4 34 1 8 35
4 6 10 2 11
4 36 37 38 39
4 37 10 6 36
4 36 6 11 39
4 37 10 2 38
4 38 2 11 39
4 7 11 3 9
4 40 41 42 43
4 40 7 9 43
4 41 11 7 40
4 42 3 9 43
4 41 11 3 42
3 9 4 7
3 44 45 46
4 45 4 7 46
4 45 4 9 44
4 46 7 9 44
3 6 10 5
3 47 48 49
4 49 5 6 47
4 48 10 5 49
4 48 10 6 47
3 4 5 8
3 50 51 52
4 51 5 4 50
4 52 8 4 50
4 51 5 8 52
3 7 6 11
3 53 54 55
4 54 6 7 53
4 54 6 11 55
4 55 11 7 53
3 9 0 3
3 56 57 58
4 57 0 3 58
4 57 0 9 56
4 58 3 9 56
3 2 10 1
3 59 60 61
4 61 1 2 59
4 60 10 1 61
4 60 10 2 59
3 0 1 8
3 62 63 64
4 63 1 0 62
4 64 8 0 62
4 63 1 8 64
3 3 2 11
3 65 66 67
4 66 2 3 65
4 66 2 11 67
4 67 11 3 65
# cell 1: 0 1 2 3 4 5 6 7 8 9 10 11 12 13
# cell 2: 14 15 16 17 18 19 20 21 22 23 24 25 26 27
# cell 3: 28 29 30 31 32 33
# cell 4: 34 35 36 37 38 39
# cell 5: 40 41 42 43 44 45
# cell 6: 46 47 48 49 50 51
# cell 7: 52 53 54 55 56 57
# cell 8: 58 59 60 61 62 63
# cell 9: 64 65 66 67 68
# cell 10: 69 70 71 72 73
# cell 11: 74 75 76 77 78
# cell 12: 79 80 81 82 83
# cell 13: 84 85 86 87 88
# cell 14: 89 90 91 92 93
# cell 15: 94 95 96 97 98
# cell 16: 99 100 101 102 103