OFF
# face-rotation BFS net; polygonal faces are preserved
# the cell decomposition is listed below as comments
95 108 0
0.6881909602355868 -0.5 1.1135163644116068
1.1135163644116068 -0.8090169943749475 0.2628655560595668
1.3763819204711736 0. -0.2628655560595668
1.1135163644116068 0.8090169943749475 0.2628655560595668
0.6881909602355868 0.5 1.1135163644116068
-0.6881909602355868 -0.5 -1.1135163644116068
-1.1135163644116068 -0.8090169943749475 -0.2628655560595668
-1.3763819204711736 0. 0.2628655560595668
-1.1135163644116068 0.8090169943749475 -0.2628655560595668
-0.6881909602355868 0.5 -1.1135163644116068
0.2628655560595668 0.8090169943749475 -1.1135163644116068
0.42532540417601994 1.3090169943749475 -0.2628655560595668
-0.42532540417601994 1.3090169943749475 0.2628655560595668
0.8506508083520399 0. -1.1135163644116068
0.2628655560595668 -0.8090169943749475 -1.1135163644116068
0.42532540417601994 -1.3090169943749475 -0.2628655560595668
-0.42532540417601994 -1.3090169943749475 0.2628655560595668
-0.2628655560595668 -0.8090169943749475 1.1135163644116068
-0.8506508083520399 0. 1.1135163644116068
-0.2628655560595668 0.8090169943749475 1.1135163644116068
1.5826181512355022 -0.4999999999999998 1.5607299599115647
2.007943555411522 -0.8090169943749472 0.7100791515595247
2.270809111471089 1.1398313823286742e-16 0.18434803944039113
2.007943555411522 0.8090169943749477 0.7100791515595247
1.5826181512355022 0.5000000000000001 1.5607299599115647
4.190073486576778 -0.4999999999999998 1.3256158589945763
3.7647480824007578 -0.8090169943749472 2.1762666673466162
3.501882526341191 1.8193621570185963e-16 2.70199777946575
3.7647480824007578 0.8090169943749477 2.1762666673466162
4.190073486576778 0.5000000000000001 1.3256158589945763
3.6194395767996856 0.8090169943749477 0.5647706459584532
2.8414430212481814 1.3090169943749477 0.9451932524765144
2.9312486165640985 1.3090169943749477 1.9411525664296265
3.266768425424202 1.3993890418586777e-16 0.09454244412447466
3.6194395767996856 -0.8090169943749472 0.5647706459584532
2.841443021248182 -1.3090169943749472 0.9451932524765144
2.9312486165640985 -1.3090169943749472 1.9411525664296265
2.1532520610125943 -0.8090169943749472 2.321575172947688
2.5059232123880784 1.559804497488593e-16 2.7918033747816664
2.1532520610125943 0.8090169943749477 2.321575172947688
-1.5826181512355026 -0.49999999999999994 -1.5607299599115647
-2.007943555411523 -0.8090169943749472 -0.7100791515595248
-2.2708091114710895 1.1398313823286747e-16 -0.18434803944039124
-2.0079435554115226 0.8090169943749477 -0.7100791515595247
-1.5826181512355024 0.5000000000000001 -1.5607299599115647
-0.9645841624856079 1.3506508083520399 -1.5607299599115647
-0.013527646190454323 1.6596678027269873 -1.5607299599115647
0.14893220192599887 2.1596678027269873 -0.7100791515595248
-0.701718606426041 2.1596678027269873 -0.18434803944039124
-1.389909566661628 1.6596678027269873 -0.7100791515595247
-0.6881909602355868 -0.5 -2.113516364411607
-0.6881909602355868 0.5 -2.113516364411607
0.2628655560595668 0.8090169943749475 -2.113516364411607
0.8506508083520399 -4.308092518588937e-33 -2.113516364411607
0.2628655560595668 -0.8090169943749475 -2.113516364411607
-0.9645841624856079 -1.3506508083520399 -1.5607299599115647
-0.013527646190454323 -1.6596678027269873 -1.5607299599115647
0.14893220192599887 -2.1596678027269873 -0.7100791515595248
-0.701718606426041 -2.1596678027269873 -0.18434803944039124
-1.389909566661628 -1.6596678027269873 -0.7100791515595247
-0.9864723538095457 -1.334748106494081 1.560729959911565
-1.5742576061020188 -0.5257311121191335 1.5607299599115647
-2.0999887182211525 -0.5257311121191335 0.7100791515595247
-1.8371231621615856 -1.334748106494081 0.18434803944039113
-1.1489322019259989 -1.8347481064940812 0.7100791515595248
-0.9864723538095457 1.334748106494081 1.560729959911565
-1.5742576061020188 0.5257311121191335 1.5607299599115647
-2.0999887182211525 0.5257311121191335 0.7100791515595247
-1.8371231621615856 1.334748106494081 0.18434803944039113
-1.1489322019259989 1.8347481064940812 0.7100791515595248
0.013527646190454323 -1.6596678027269876 1.5607299599115647
-0.14893220192599887 -2.1596678027269878 0.7100791515595246
0.701718606426041 -2.1596678027269878 0.18434803944039102
1.389909566661628 -1.6596678027269876 0.7100791515595246
0.9645841624856079 -1.3506508083520403 1.5607299599115647
-0.8506508083520399 0. 2.113516364411607
-0.2628655560595668 0.8090169943749475 2.113516364411607
0.6881909602355868 0.5 2.113516364411607
0.6881909602355868 -0.5 2.113516364411607
-0.2628655560595668 -0.8090169943749475 2.113516364411607
0.013527646190454323 1.6596678027269876 1.5607299599115647
-0.14893220192599887 2.1596678027269878 0.7100791515595246
0.701718606426041 2.1596678027269878 0.18434803944039102
1.389909566661628 1.6596678027269876 0.7100791515595246
0.9645841624856079 1.3506508083520403 1.5607299599115647
0.9864723538095457 1.3347481064940812 -1.5607299599115647
1.574257606102019 0.5257311121191337 -1.5607299599115647
2.0999887182211525 0.5257311121191336 -0.7100791515595247
1.8371231621615856 1.3347481064940812 -0.18434803944039102
1.1489322019259989 1.8347481064940812 -0.7100791515595246
0.9864723538095457 -1.3347481064940812 -1.5607299599115647
1.574257606102019 -0.5257311121191337 -1.5607299599115647
2.0999887182211525 -0.5257311121191336 -0.7100791515595247
1.8371231621615856 -1.3347481064940812 -0.18434803944039102
1.1489322019259989 -1.8347481064940812 -0.7100791515595246
5 0 1 2 3 4
5 5 6 7 8 9
5 9 10 11 12 8
5 5 9 10 13 14
5 5 14 15 16 6
5 17 18 7 6 16
5 19 18 7 8 12
5 17 16 15 1 0
5 18 19 4 0 17
5 19 12 11 3 4
5 10 13 2 3 11
5 14 13 2 1 15
5 20 21 22 23 24
5 25 26 27 28 29
5 29 30 31 32 28
5 25 29 30 33 34
5 25 34 35 36 26
5 37 38 27 26 36
5 39 38 27 28 32
5 37 36 35 21 20
5 38 39 24 20 37
5 39 32 31 23 24
5 30 33 22 23 31
5 34 33 22 21 35
5 0 1 2 3 4
5 20 21 22 23 24
4 20 0 1 21
4 24 4 0 20
4 24 4 3 23
4 22 2 3 23
4 22 2 1 21
5 5 6 7 8 9
5 40 41 42 43 44
4 43 8 9 44
4 44 9 5 40
4 41 6 5 40
4 42 7 6 41
4 42 7 8 43
5 9 10 11 12 8
5 45 46 47 48 49
4 49 8 9 45
4 46 10 9 45
4 49 8 12 48
4 47 11 12 48
4 47 11 10 46
5 5 9 10 13 14
5 50 51 52 53 54
4 51 9 5 50
4 52 10 9 51
4 54 14 5 50
4 52 10 13 53
4 54 14 13 53
5 5 14 15 16 6
5 55 56 57 58 59
4 59 6 5 55
4 56 14 5 55
4 59 6 16 58
4 57 15 16 58
4 57 15 14 56
5 17 18 7 6 16
5 60 61 62 63 64
4 62 7 6 63
4 63 6 16 64
4 62 7 18 61
4 60 17 16 64
4 61 18 17 60
5 19 18 7 8 12
5 65 66 67 68 69
4 67 7 8 68
4 68 8 12 69
4 67 7 18 66
4 66 18 19 65
4 65 19 12 69
5 17 16 15 1 0
5 70 71 72 73 74
4 74 0 1 73
4 72 15 16 71
4 70 17 16 71
4 74 0 17 70
4 72 15 1 73
5 18 19 4 0 17
5 75 76 77 78 79
4 77 4 0 78
4 75 18 17 79
4 75 18 19 76
4 78 0 17 79
4 77 4 19 76
5 19 12 11 3 4
5 80 81 82 83 84
4 84 4 3 83
4 82 11 12 81
4 80 19 12 81
4 84 4 19 80
4 82 11 3 83
5 10 13 2 3 11
5 85 86 87 88 89
4 87 2 3 88
4 89 11 10 85
4 85 10 13 86
4 89 11 3 88
4 87 2 13 86
5 14 13 2 1 15
5 90 91 92 93 94
4 92 2 1 93
4 90 14 13 91
4 94 15 14 90
4 94 15 1 93
4 92 2 13 91
# cell 1: 0 1 2 3 4 5 6 7 8 9 10 11
# cell 2: 12 13 14 15 16 17 18 19 20 21 22 23
# cell 3: 24 25 26 27 28 29 30
# cell 4: 31 32 33 34 35 36 37
# cell 5: 38 39 40 41 42 43 44
# cell 6: 45 46 47 48 49 50 51
# cell 7: 52 53 54 55 56 57 58
# cell 8: 59 60 61 62 63 64 65
# cell 9: 66 67 68 69 70 71 72
# cell 10: 73 74 75 76 77 78 79
# cell 11: 80 81 82 83 84 85 86
# cell 12: 87 88 89 90 91 92 93
# cell 13: 94 95 96 97 98 99 100
# cell 14: 101 102 103 104 105 106 107