OFF
# face-rotation BFS net; polygonal faces are preserved
# the cell decomposition is listed below as comments
423 1440 0
-0.3215536330748054 -0.14726819810916317 0.13473155940930526
0.23176274578121064 -0.27950849718747384 -0.1067627457812106
0.16704513588733158 0.20628519248411062 0.26977693777816847
-0.07725424859373692 0.22049150281252633 -0.2977457514062632
0.12875708098956143 -0.3674858380208773 0.4962429190104387
-0.24893035657981885 0.07386260142352062 0.7072636899131521
-0.14106767342335377 -0.7357935480291201 0.07969755064752036
0.6732636081802078 -0.1465378970403306 0.3047731812622924
-0.8936150358924896 0.6699663386563145 0.06492136442333685
-0.8068073158783017 1.204170211178913 -0.2335022498867628
-0.40501626693035253 1.0235197292495881 0.19996674279219998
-0.43080763918701054 0.7255702233138672 -0.34089082466884923
-0.9583326457863683 1.155760028327899 0.44146104798271574
-0.6493156514114211 0.6557600283278989 0.6324440536077683
-0.972818106613752 1.2062006294093433 0.3618147295546987
-1.3771440386593432 1.0300383902467922 -0.07114418006468486
-0.562812757055781 1.6192940412355816 0.15393145055008692
0.6160909231296577 -1.700459034075527 0.06829288222231242
0.7482327269297158 -1.1350314525158212 -0.14335825751030074
1.1615721457028536 -1.4411303740492516 0.19930774076565963
1.0387034683700846 -1.6280717804111753 -0.3768191636295677
0.6452270621380667 -1.2230087933492244 0.45964740728134856
0.8670273603840029 -1.7747006818001807 0.6281902776898478
0.17812832909543996 -1.2645358125777966 0.05708028056324721
1.1985434409940825 -1.3552490924275344 0.21815310209083227
1.0180574813426309 -0.7667237425075779 0.27318711085261765
-1.682562498967644 -0.8062536304739506 -1.6360547921566937
-1.6480521318579306 -0.2981649859585885 -1.986227571119594
-1.693253309758845 -0.8542392384127451 -2.2521303550915306
-1.1714767163985698 -0.6910304335401569 -1.9638976645730668
-2.1927338045610743 -0.8705537874266607 -1.978920276005764
-1.6394174257050582 -1.0027940865049716 -2.2204145811962794
-1.8837168101861268 -1.370553787426661 -1.7879372703807113
-2.0166195814784986 2.060574203044909 -0.25298387716583304
-1.5913874063026385 1.9721702207148228 0.1867073148695475
-1.4253766155671883 1.9701398024843924 -0.40860966457191394
-1.7594408902642946 1.5034336320224446 -0.17936651402223072
-1.596148178634589 2.498489185473638 -0.13722430388990237
-1.5045796862884504 2.506374093237421 -0.11171629944055203
-1.021050683521597 2.146302041646943 0.024349245047469464
-0.9042084159573378 0.03405645388122586 0.23271515913282365
-0.7894943423812937 -0.459031851073978 -0.12178535721390787
-1.3199454458820878 -0.42153436231790564 0.19314570886545349
-1.221163802223847 -0.050419204221488795 -0.2910874349375632
0.0995224467029 0.7457290036103474 -0.02417386139238789
0.5090642741608276 0.6935686497304786 0.4357400439156092
0.605628002977108 1.1004120239004824 -0.01936425887790133
0.1555108835675538 1.1986473702318192 0.3925949706530229
-1.6474704816819545 -1.3147806905593935 -1.127624799045076
-1.1207708463624335 -1.1190991426765642 -0.8702102749354821
-1.651221949863228 -1.081601653920492 -0.5552792088561207
-1.5524403062049867 -0.710486495824075 -1.0395123526591372
1.3335981831886579 1.722433505882792 1.2969734938414137
1.0953827969153922 1.1666457966484312 1.169225839237481
1.1919465257316726 1.573489170818435 0.7141215364439706
0.7418294063221187 1.6717245171497719 1.1260807659748953
0.10917617880731414 0.6998447495509182 -0.6404266114357213
0.17982886129846812 0.4875763266231608 -0.7922555923076348
-0.30956889050186487 0.11644224014619639 -0.8609239375461353
0.2389535913249749 -0.12128223423425799 -0.704156043954475
0.02152739506450413 0.591606660908943 -0.7819788952092803
-0.5089237084362901 0.6291041496650156 -0.46704782912991877
-0.39420963486024607 0.1360158447098116 -0.8215483454766501
-0.5104830502276176 0.6839929340433205 -1.0826376284709696
-0.29576226081814755 0.15068130782655814 0.6755891268703546
-0.8357460788124723 0.1764067815895069 0.9751249136372265
-0.8260923467080582 0.13052252753007768 0.3588721635938931
-0.3611236473199693 0.5247095509658983 1.1632332324830066
-0.3457723398889715 -0.08789493473992321 1.2435207950526235
-0.9350279908777609 0.7539029327623112 1.1716123396149798
-0.7398072565560164 -1.0996430803926462 -1.7945955868494115
-0.5902499260038587 -0.627357541286543 -2.164115526337764
-0.9422031271309107 -1.0879692565867893 -2.378432588641937
1.2807293100225334 -0.309387415111265 -1.3799204930279276
1.0175107212378702 0.24360249289023214 -1.2969497306063873
0.7519253852290251 -0.17235870696161187 -1.6689802680156007
0.7555315131692845 -0.26238162488713235 -1.057548439158484
-0.7254861388413858 -0.5240514468927745 -1.5699732631982242
-1.1379429526964668 -0.5477558694813396 -2.0296290999982833
-0.5565369307050112 -0.3726782662358275 -2.1448718077241224
-0.9335876871055412 -0.0013002753332054806 -1.8256898436017344
-1.4520473503435738 -1.77916643427915 -1.618635192657056
-1.982498453844368 -1.7416689455230778 -1.3037041265776943
-1.5667614239196177 -1.2860781293239465 -1.2641346763103245
0.31776512670804985 -1.7078694643014993 1.100478586721821
0.27887428176743806 -1.447576671547702 1.6596754889578218
-0.23555125214796657 -1.575629165223189 1.3419728919123368
0.1372791670565979 -1.1193441143815426 1.1555125954836063
0.8768747846909823 1.0968356016624632 2.1425607175140984
0.3368909666966576 1.1225610754254123 2.442096504280971
0.5233213940977085 1.601914322163804 2.0994156442515126
0.3465446988010713 1.0766768213659825 1.8258437542376376
-1.8554314370089675 0.5475275484591446 1.9850576815777023
-1.2640240464364378 0.48792885469742436 2.1543246462465158
-1.500094410948093 0.11679055871743355 1.7201666571382783
-1.4045434056057573 0.7148182162690941 1.5968826864387262
0.2932423434318789 -0.08199852416833864 -0.6891510019134903
0.1617265116888626 -0.509666089767778 -1.1154959920157512
0.36339726329777733 -0.6816912599199609 -0.5571929739066661
0.7489118452258403 -0.4052983829418935 -0.953364017682865
-0.061600035111818024 -0.5424329131162229 1.0576017173874257
0.39736835592774966 -0.6473029414334138 1.457996902719876
0.4943971523912519 -0.7167703561824633 0.851592992611248
-0.6023111831244015 0.6587670162693804 -1.0772649258801605
-0.806666448715327 0.11231142212124628 -1.2812041822767095
-1.1963517315280918 0.5895967786840732 -1.2331408904633512
-0.7600218245024352 0.5897763146829325 -1.6708419199936828
-1.0198122434370367 0.958250055308764 1.0238493041149956
-0.8882964116940206 1.3859176209082031 1.4501942942172568
-1.0899671633029349 1.557942791060386 0.8918912761081715
-1.475481745230998 1.2815499140823186 1.2880623198843701
-0.26615747848162385 -1.1537875990729791 -0.35802327957710234
0.26227585517764723 -0.8339158710708781 -0.37818018293065614
-0.16821204947680563 -0.7342150691037403 0.016639474071472343
-0.6443938856476782 -1.1236695632030393 0.0761547425065609
-0.472112711355943 -0.9296494731965099 -0.4847743197719274
-0.7438789073570975 -0.5373527837145848 -0.09207538498512488
-0.40115686229450553 -1.2078347209772489 -0.22278675658874952
0.05781152874506221 -1.31270474929444 0.17760842874370097
-0.4981856587580078 -1.1383673062281996 0.38361715351987863
-0.41995298811494725 -1.7034776363041388 0.14592833313569956
0.7560623638860728 -0.15187327745062734 0.19454303310118523
1.3432476974230503 -0.04750557062474252 0.35667500743407166
1.141576945814136 0.1245195995274401 -0.20162801067501346
0.9488594724021385 0.42526697052556234 0.30273000257501836
1.2117318656800347 -0.4751731362241822 -0.06966998266818927
1.7083086420587412 -0.11356612743036229 -0.1376250237072726
0.6988614788238373 -0.23798147795890146 0.2958043809368909
1.143147286400901 -0.3487296914637186 0.7109079410772404
0.61471395274163 -0.6686014194658201 0.7310648444307943
-1.530180796598794 0.44958079577851134 -0.482070440562616
-1.4654631867049148 -0.03621289389307325 -0.8586101241219949
-1.9716816589977912 0.3166101956313676 -0.8936063676061191
-1.4271751318071446 0.5375581366119144 -1.0850761053542652
-1.8343407726089263 -0.07537469825756787 -0.3642805873283179
-1.9988260350512432 0.2757480066400688 -0.8455533330710563
-1.9568258304838575 -0.12076673543789315 -1.008631372926788
-1.7602979937525147 -0.3057606644163131 -0.4526457014559026
-1.3512859949865048 -0.14618633887136412 -0.8876298744351199
-1.676882136894484 -0.6682193564512028 -0.9462361213822854
-0.31035549170850785 1.6047374855284773 0.38756010267105695
0.0969221860777666 1.6074324983067874 0.8524080792539928
0.2686815650958004 1.7975014171371224 0.28996827530683944
-0.5303909199054846 1.6859260361745938 0.037553671225901364
-0.24288754442485225 2.218412901123792 0.1631146484199409
-0.10712420967339059 1.9083870398703657 -0.3540103785719263
-0.6541486636326506 2.1903833976057174 -0.29736841316928275
0.23697994183858467 2.10865631762116 0.8682662921899998
0.18130225582421203 1.4965968761675403 0.9334525381140719
0.4682067066997788 1.7297853070947449 0.4382000742134837
0.7347224044200832 1.7648115189619042 0.9947147268516704
-0.6387538319166461 1.672906799871291 0.13257157900501532
-0.621963203995473 2.1728689461194084 0.49550675005226197
-1.1052277896815483 1.7884701225217396 0.5211757174740255
-0.27840855981221924 -0.34380865414018424 -0.44962822963028076
-0.12109310246845281 -0.5084794905202459 -1.024172722055992
0.20545943345638104 -0.7168910931871373 -0.5426189281710477
0.17831505740292905 -0.7577532821784362 -0.4945658936359846
-0.15542832406566928 -0.4529239349646902 -1.045393056014331
-0.4106331137052749 -0.9443428397607667 -0.5116070203486515
-0.04873807130601249 -0.838405407780374 -0.7404744591881203
-0.40853075257487653 -0.4395757887900597 -1.0461706691278374
-0.6528301370559455 -0.8073354897117491 -0.6136933583122691
0.535922721791342 0.2454469968486052 -0.2245525990155089
0.7038211488270117 0.5102128180432632 0.30805906944113626
0.7004079842336598 -0.10567570804903156 0.2567201467272291
0.18537966027541403 0.7276576252843019 -0.061584862647858535
0.6694859272297955 0.5657683735988189 0.28683873548279715
0.7601470703103694 0.8196301380037069 -0.26930942189854845
0.26951113197177884 0.5354684808493357 -0.7008701557756309
0.2623202864280146 0.5894455574795118 -0.6590324131579223
0.7330026942569172 0.8212086169290863 -0.3323674984745964
0.8746049120159239 0.45221158981561377 0.2492709845786096
1.1249908192789242 0.3595727136831187 -0.07643066097298151
-0.7400638827351846 -0.5906819209059558 0.03373922002259169
-0.45433889612027584 -0.5541898922519666 0.58054409849272
-0.6084580839503723 -0.3804566290363674 0.629984023309893
-0.6961068676931822 -0.48869471767834294 0.4884317395363341
-0.787935000589966 -0.5139206354522832 0.49380444212714264
-0.46152974166404026 -0.5002128156217904 0.6223818411104289
-0.06624837842805964 -0.38195583670360145 1.0825274072800413
-0.36541419492193106 -0.1462546570507925 1.213123918384415
-0.6557514728143642 -0.3506862836971372 0.7072800824598809
-1.2492976714051156 -0.17985262421159334 0.6852623129236459
-0.5687600017777374 -1.1065087093488652 0.32792235336591613
-1.0273747766115606 -0.9637143531106702 0.1440613700529686
0.7282145699510044 0.12105877716209087 0.5142996067766096
0.264764889679759 0.3258089488087894 0.8682173547311776
-0.11200625978057818 0.020110645313196895 1.2510463758677128
0.23775213144860563 0.48233153788678607 1.465491999472749
0.5001143315186847 -0.05143225310884833 1.297479194465328
-0.011959626321155506 -0.3426721266376822 1.097532449321026
0.35280153993952157 0.08904283536699911 0.8474574717252008
0.4142811375901899 0.07434946880274226 0.8206247711484769
0.5264580621518461 -0.07187643297988916 0.8655869598233021
0.5619963529851039 -0.48793935428456103 0.9202248701246248
-0.23977382395349361 0.6035996744480299 1.0923579589157653
0.6197576639682811 -0.07015131675138209 0.8853310001106661
0.834317353307062 0.5540057246501287 0.9423943991707625
0.6665559386277082 0.1451584668794647 1.3016863474101403
0.2905562619364172 0.6237584547445105 1.4090749221922267
0.7533636586418964 0.679362339402063 1.0032627331000408
-1.0200094910053645 0.513880952731222 -0.1392049567135456
-0.9768644177427782 0.3173404967002007 -0.7235647457531317
-1.0362748107895683 0.9207992162368976 -0.6040909399911104
-0.66136580030706 0.7309482890035206 -1.0572640532025614
-1.1302060013407778 0.904287367694778 -0.605472660415299
-1.404824652782869 0.6002581540511048 -1.0682002744404855
-1.274079644123314 0.6836211849620638 -1.1228986635012836
-1.316775627876791 0.3619023056439977 -1.2378026533980202
-0.8402002124174299 -0.030963141937570687 -1.2154727468514928
-0.11811181605478574 1.2567081601767924 -0.29528572110838813
0.14840388166551846 1.2917343720439518 0.26122893152979854
-0.34933858091597986 1.6355791707032075 0.13478049686812804
0.4915592751394411 1.17259462797114 -0.23878717677285158
-0.5543753334051581 1.1288897407491079 -0.7925880717841268
-0.20147244543795345 1.2988737705052642 -0.31453891893227826
-0.5113897129773943 1.6254722506419763 0.10884120731762181
-0.36115570508322714 1.0225061881912174 -0.8784256161829096
-0.070818427190794 1.2269378148375623 -0.3725817802583756
0.5227277713999575 1.0561041553520183 -0.3505640107221407
0.1923185900601877 1.765828072699713 -0.13281760459917424
0.24837844713054932 1.7349624365175755 -0.15772211617523954
-1.537371642142559 0.29135453282529566 0.11532285761064831
-1.2503296817540246 0.5365072411186023 0.5516547020553552
-1.4797971766652913 0.25313624617658714 0.18106601195100733
-1.5073841003275548 0.16710044263519883 0.2116343125877171
-1.2624926217965002 0.6308045342918205 0.559250901217014
-1.4269778842388177 0.9819272391894573 0.07797815547427597
-0.9939535559766399 0.7516630682849246 1.136421565917595
-1.2450071238031535 0.4911115838050975 0.6353716270222374
-1.288581381471035 -0.12373276637811081 0.6804684158944696
-1.8391346696381021 -0.053536869809676646 -0.2993517218794751
-1.794787149664988 -0.23729186981735637 -0.15692010145575205
-0.3072965131379252 1.1430434855742668 0.7984071597452089
-0.7538778575842311 0.9370745154681669 1.172717054613175
-0.21798314503901212 1.1333850886657437 1.4098773952416646
-0.6129978532206186 1.538735718690755 1.1616431141509334
-0.9655234913301325 0.9975337653746832 1.0388543461559805
-0.44816134019293824 1.2200601852806094 0.784326531831786
-0.5583578505283515 1.6104666002441657 0.31805882813003283
-0.9048849574080865 1.6340048133188614 0.8292641958374898
-0.9320293334615384 1.5931426243275622 0.8773172303725532
-0.5026640960799982 1.7048282760412017 0.9663219237938163
-0.3720141230318041 1.6288371752458513 1.1749468433045878
-0.06299712865685651 1.1288371752458513 1.3659298489296405
0.3830742572984758 -1.5103420727635386 -0.47163747043117593
0.03662961275266652 -1.848526493762087 -0.0874846142534436
0.5561147367097744 -0.9824386309180829 -1.061550987156698
1.2021578231304906 -0.7965089336741417 -1.1066232743662168
0.6303692970959898 -1.0093832502081346 -1.0080919691602892
0.9690514873205714 -0.802618657241126 -0.5342683855661705
0.9868036091431265 -1.632685893658794 -0.42154884437602325
0.350531745767431 -1.4306408575568086 -0.512702298323164
-0.5815149679372417 -1.0744632990923941 -1.8113963485831535
-0.1498973781334325 -0.7431312391881358 -1.5183241160164074
-0.6096850637933592 -1.0038759457427706 -1.1980531473518545
0.2572321439509959 -1.4323659737853158 -0.5324463386105278
-0.5934197440091559 -1.4107942092484467 -0.7331671640742903
-0.4616574141456704 -1.0464024700479375 -1.15059742812187
1.5822284577056507 -0.7776631632050471 -0.4610752331754163
1.273211463330703 -0.27766316320504714 -0.652058238800469
1.7423963704903542 -0.21771431784839135 -0.25426725086321234
1.5867860584153164 -0.8010283054376337 -0.5534381979188592
1.7784694637170824 -0.4026477966027391 -0.9853137049373457
1.261283904810461 -0.7292082121231175 -1.0738766990359463
1.853492328671104 -0.37352062661480806 -0.8419304992245423
1.630687691622949 0.26855798692631117 -1.223756578215633
1.7656900136139404 0.28518884692509394 -0.6208769892404822
1.2601910995973333 0.5710480139071765 -0.8323513277084058
1.2839223110574332 -0.04641899111049824 -0.8206321738462652
1.6325767150426067 0.1875790159994451 -1.2741198258285693
1.701866986058239 -0.13473511312070005 -0.23040432077719897
1.721312391270311 0.2850856838911521 -0.5364481147691806
1.1481966137575805 0.2674363575822012 -0.3058124321506326
0.26265794784724095 -1.8419562362150141 0.42234669592617663
-0.32526779692952956 -1.793927436440797 0.23794885355530365
-0.13254558735631722 -1.4876518243897856 0.7389672271206876
0.28656745234690373 -1.8783019248517776 0.5072286455036706
-0.136025728621096 -2.081601038870012 0.9097835919257135
-0.9841066410370853 -1.4674027813143353 -1.362118276033843
-1.3078841887615453 -1.7076589198738292 -0.8937048915921499
-0.3482076221445232 -2.0667326991394734 0.7499780627044437
-0.39524718470572023 -1.7292141075265042 0.2343866633194714
-0.741797149291759 -1.59078407613522 0.7270389338963242
0.45055038975351996 -1.300947770158696 0.6546660476384065
-0.1708336422540872 -2.0614228548947735 0.965433208352958
-0.414669425383485 -1.9802382271832866 0.9833660549613397
-0.7421242667532832 -1.4760182647672884 0.8401823700849024
-0.34938540574482546 -1.4642612856315447 1.3172399889796078
1.605608616788723 -0.9216106297233418 0.38614607089884
1.1596525960534712 -1.0949562996737374 0.7773500043268329
0.747629818695551 -1.1131786948820572 1.2524666098223942
0.7362753763684291 -1.2644557415047066 1.2014709261085346
0.9842245847811162 -1.6820857144594195 0.6969132316133915
1.1059542672525156 -1.0318011606219644 0.824525599154158
0.7525212919700985 -1.1732983627614517 1.1785794128580225
0.8240706542031703 0.9554086848047382 2.198977794794622
0.4743122629739862 0.4931877922311493 1.9845321711895854
0.8510834124343236 0.7988860957267415 1.6017031500530496
1.1517510014996042 -0.9513884243325095 0.8476355499702106
1.314533092705569 0.594135924080043 1.2477854020984815
0.875552349790922 0.6397105585419027 1.6077986470704275
-1.796739690686055 -0.6962801854956595 -1.6070350418435693
-1.3081409217239184 -0.34272679490238556 -1.4719896634747058
-1.8614573005799342 -0.21048649582407486 -1.2304953582841904
-0.9946824357281128 0.23736448346887615 -1.750357350644527
-1.3619768057777049 -0.1941719468101588 -1.503705437369957
-1.5276282355092317 -0.07047051291851261 -1.981565808184925
-1.758451635788285 -0.12250915499067155 -1.8335010230758397
-1.80967860808335 1.6553888923088058 -0.7763185906831152
-1.2929669324993922 1.387870309371996 -0.5679706524912409
-0.678133077132324 1.633347102180232 -1.1275101561793108
-1.2795467417836923 1.719081459361225 -1.2411641715922226
-1.101399787364418 1.4108860984844598 -0.7359461063814834
-1.007051551599855 2.0203993678495618 -0.7754175660211313
-1.8464920733432366 0.04532582191255376 -1.2039525632839052
-0.7777163578507976 2.5937029150409585 -0.7490656602845602
-0.40171668115950676 2.1151029271759128 -0.8564542350666469
-0.21533625016211466 2.579060125365498 -0.49317463965919545
-1.2648641910866814 -0.6613675669357917 -2.574114761323308
-1.056762642822526 -1.1841187384953604 -2.3183981809197975
0.767620778578777 1.9696740230854928 1.6669383334359442
1.0545252294543432 2.2028624540126973 1.1716858695353558
1.2721594922120296 1.6918832974462523 1.442797729251356
1.790855604407653 0.828506832282967 -1.0169485959034292
1.321670697248002 0.7685579869263113 -1.4147395838406855
-0.7943484535400724 2.2074236771499973 -1.3247310567134412
-0.7906113804006323 2.595270212603416 -0.8435584156881688
1.190480457143595 0.43609794978480965 -1.858192085374589
0.6489459966616935 0.6180499831786729 -1.6223957815347712
1.1773367945498427 0.8340126169553073 -1.3854795162225524
1.3863883071418808 0.28276429725472674 -1.7912792674000644
-0.15365783482212386 2.5160274798107527 -0.45683901626432816
1.6310635383913725 1.0305710487872268 -1.0147197071158425
1.0416110972499895 1.1478679656480066 -0.87065977452692
-2.165617276590066 -0.735441989860154 -1.112705505049892
-2.091574497733654 -0.9658279560188989 -1.201070619177477
-2.0081586408756236 -1.3282866480537887 -1.6946610391038592
-2.1133176454710125 -0.9521467508594093 -0.9447339654380741
-1.9878538048156187 1.605459743263543 1.4085750012374514
-1.9997813633358608 1.1539146943454728 0.9867565410019741
-1.6956213873257289 1.6788701883815516 0.8689666877676755
-2.313355958420474 1.6772798365780592 0.8881365001203642
-2.308798357710808 1.6539146943454726 0.7957735353769214
-1.9383017656851922 1.3514246673646075 0.4043682848696944
-1.909355455938774 0.4314953609330241 1.3804133705232888
-2.105377463658132 0.015724095803974047 1.7935424530541202
-2.095785883339825 -0.047857885805367706 1.7230942305527468
-1.751147978774606 -0.14376092576239327 1.2191167182429203
-1.8681468458192938 0.7517319316129858 0.5363263128765186
-2.4284368860633965 1.0109866442611262 0.5651026229787041
-2.3112159351994865 0.07449970569812578 1.0754080122066503
-1.8107566113459828 0.29323705856149346 0.7861668552449791
0.6832407088323313 2.0805096452247396 1.5858938745758646
0.2759630310460569 2.0778146324464295 1.121045897992929
0.2790220096166396 1.6161206324922188 1.5318929550670812
-0.37920496857556824 1.4706109122926356 1.7723401414778523
0.13815718256162612 1.6931373321985619 1.517812327153658
-1.4395232615790363 1.8900052028061363 1.3903127982576906
0.21430439972276094 2.101914322163804 1.90843263862646
-1.319301901841269 2.4464244345817323 0.4748365048895573
-1.2825710927903737 2.380394464799985 0.5330474111620462
-1.3569391971011466 1.8856347813485594 1.3427902713617947
0.3683353777155526 1.6064622355836962 2.1433631905635364
-0.16755933482966628 1.4101516623861192 1.906202849935047
0.02796067222621249 2.083543747162118 1.0515446234519048
-1.3161939777008147 -0.6547133989568072 -0.379199881323502
-1.2354849199384776 -0.6260108377213603 -0.5157097585887506
-1.062592041752284 -0.9731005373443052 0.08586108182292569
-0.9410034689216992 -0.8991070635019685 0.7422714919887219
-1.0784842355252315 -1.3461167119455213 0.3382326024464135
-1.568867700846816 -1.1050173449914906 -0.31230204330538525
-0.9766076847804057 -1.0475916282712427 -0.1452799738705755
-1.1204541521352587 -1.194926786062257 -0.7280033699671553
-1.7820411414898722 -0.29207945925682327 -0.19630904771649982
-1.7242899078246696 -0.8617989427995354 0.03617862148786434
-1.7638240387371462 -0.9204742335212199 -0.38876451318283956
0.4965480904916758 1.672041852334282 0.18873889628083307
0.747279660434093 1.2493563589648393 0.5634876985195418
0.7979019298599281 0.7514311146259699 -0.46395389046341196
1.3842794474743525 0.8383583042321584 -0.28910801034717865
1.1467183708634956 1.1731219309280019 -0.7511297201953651
1.077877797894006 1.6456717748890919 0.4946986185490204
0.6858409694574649 1.2188061505282994 0.7093119339294843
1.0858037414804649 0.8302439848320474 0.2606473517184769
1.46921109202605 0.795465694697518 -0.29577574257254746
1.1100783045034313 0.812821436939775 0.5165293954680223
1.1904576809077003 1.1137579681829466 1.050329331082756
0.15006329000812235 0.10133271887753989 -1.2738112977992335
-0.07985315157928291 0.31197281010970124 -1.3237287503080144
0.6714010471472914 -0.12351937535123331 -1.6538749869415397
0.40523682927163196 0.2216131321566363 -1.2156898974712633
0.6405675519352444 0.49017912468422253 -1.7201279708543094
0.12771281098384663 0.038632701438349765 -1.2906871287130133
0.16915399555486002 -0.34930881449332074 -1.2323943192747173
-0.01208698608081421 -0.5255488603679095 -1.5124398855914343
-0.6109266231497708 -0.4279019649842033 -1.630007670920363
-0.2589734220227186 0.03270975031604301 -1.4156906086161898
-0.2252604267238711 0.2873890253667583 -1.3964468900025488
-0.6952824041821538 0.5696291311284446 -1.6817289866296297
-0.7315360858184029 0.1554722177195724 -1.7946100151308597
-0.3407835245367366 0.4115522896232191 1.6710468681063073
-0.17903216047623238 -0.8226162897716566 1.5958144844493574
0.24054618286559387 0.38518221217802945 1.9770065903744958
0.22519487543459604 0.997786697883851 1.8967190278048789
-0.24942755605790723 0.6494839285074595 1.7086107089590992
-0.7326657831961277 0.25813295738376324 1.5789968339115499
-0.7719494932620472 0.3142528152172454 1.5742029368823736
0.07519391873937278 -1.311580353729724 1.7395987718931858
-0.30553864310709333 -0.8800838716553114 1.5141669339524495
-1.1793061494188242 0.4665110855788265 2.1160914676855898
-0.9343449234052628 0.3146650839610376 1.5693714289155363
-0.5004600379132326 0.639662700147027 1.651561112768528
-0.8283205757148471 0.9067661841560739 1.7112908993723919
-0.348709468123196 1.2269800796802637 1.9050981349368523
-0.9409615677744994 -1.6639432373453564 -1.946478065073429
-1.3405581291454889 -0.10691607374656326 0.7586555977217893
0.18665682692428798 0.7984330838974666 -1.2539983442897775
0.42933720528375124 1.1258786049144107 -0.7893999413917964
-0.671178714508784 -0.5307993534937256 1.1588168603516404
-1.482632263891231 1.028124808591053 0.14015526910031995
1.3396821813964612 1.1524394863200156 1.7367485284219126
3 0 1 2
3 3 1 0
3 3 1 2
3 3 2 0
3 0 4 2
3 5 4 0
3 5 4 2
3 5 2 0
3 0 4 1
3 0 1 6
3 0 4 6
3 6 4 1
3 0 1 2
3 0 4 2
3 0 4 1
3 2 4 1
3 2 4 1
3 2 1 7
3 2 4 7
3 7 4 1
3 8 9 10
3 11 9 8
3 11 9 10
3 11 10 8
3 8 12 10
3 13 12 8
3 13 12 10
3 13 10 8
3 8 14 9
3 8 9 15
3 8 14 15
3 15 14 9
3 8 9 10
3 8 14 10
3 8 14 9
3 10 14 9
3 10 14 9
3 10 9 16
3 10 14 16
3 16 14 9
3 17 18 19
3 20 18 17
3 20 18 19
3 20 19 17
3 17 21 19
3 22 21 17
3 22 21 19
3 22 19 17
3 17 21 18
3 17 18 23
3 17 21 23
3 23 21 18
3 17 18 19
3 17 21 19
3 17 21 18
3 19 21 18
3 24 21 18
3 24 18 25
3 24 21 25
3 25 21 18
3 26 27 28
3 29 27 26
3 29 27 28
3 29 28 26
3 26 30 31
3 32 30 26
3 32 30 31
3 32 31 26
3 33 34 35
3 33 35 36
3 33 34 36
3 36 34 35
3 33 35 37
3 33 34 37
3 33 34 35
3 37 34 35
3 38 34 35
3 38 35 39
3 38 34 39
3 39 34 35
3 40 41 42
3 40 43 42
3 42 43 41
3 40 43 41
3 44 45 46
3 44 47 46
3 46 47 45
3 44 47 45
3 48 49 50
3 48 51 50
3 50 51 49
3 48 51 49
3 52 53 54
3 52 55 54
3 54 55 53
3 52 55 53
3 3 56 11
3 3 56 44
3 11 56 44
3 3 44 11
3 3 57 58
3 3 58 59
3 3 57 59
3 59 57 58
3 3 60 61
3 3 60 62
3 61 60 62
3 3 62 61
3 61 60 62
3 61 62 63
3 61 60 63
3 63 60 62
3 64 65 13
3 64 65 66
3 13 65 66
3 64 66 13
3 64 67 65
3 64 65 68
3 64 67 68
3 68 67 65
3 64 65 13
3 64 67 65
3 13 67 65
3 64 67 13
3 13 67 65
3 13 65 69
3 13 67 69
3 69 67 65
3 70 71 29
3 70 71 72
3 29 71 72
3 70 72 29
3 73 74 75
3 73 75 76
3 73 74 76
3 76 74 75
3 70 71 29
3 70 71 77
3 29 71 77
3 70 77 29
3 78 79 77
3 78 77 80
3 78 79 80
3 80 79 77
3 81 82 32
3 81 82 83
3 32 82 83
3 81 83 32
3 84 85 86
3 84 86 87
3 84 85 87
3 87 85 86
3 88 89 90
3 88 91 89
3 90 91 89
3 88 91 90
3 92 93 94
3 92 94 95
3 92 93 95
3 95 93 94
3 96 97 98
3 99 97 98
3 96 97 99
3 96 98 99
3 100 101 102
3 87 101 102
3 100 101 87
3 100 102 87
3 103 104 105
3 106 104 105
3 103 104 106
3 103 105 106
3 107 108 109
3 110 108 109
3 107 108 110
3 107 109 110
3 6 111 23
3 6 111 112
3 23 111 112
3 6 112 23
3 113 114 115
3 113 115 116
3 113 114 116
3 116 114 115
3 6 117 118
3 6 119 117
3 118 119 117
3 6 119 118
3 118 119 117
3 118 117 120
3 118 119 120
3 120 119 117
3 121 122 123
3 121 123 124
3 121 122 124
3 124 122 123
3 121 122 123
3 125 122 123
3 121 122 125
3 121 123 125
3 125 122 123
3 125 123 126
3 125 122 126
3 126 122 123
3 127 128 25
3 127 128 129
3 25 128 129
3 127 129 25
3 130 131 132
3 130 131 133
3 132 131 133
3 130 133 132
3 130 134 131
3 130 131 43
3 130 134 43
3 43 134 131
3 130 131 135
3 130 134 131
3 135 134 131
3 130 134 135
3 136 137 138
3 136 138 139
3 136 137 139
3 139 137 138
3 140 141 142
3 140 142 47
3 140 141 47
3 47 141 142
3 143 144 145
3 146 144 145
3 143 144 146
3 143 145 146
3 147 148 149
3 147 149 150
3 147 148 150
3 150 148 149
3 151 152 39
3 151 152 153
3 39 152 153
3 151 153 39
3 0 154 113
3 113 154 116
3 0 116 113
3 0 154 116
3 59 155 156
3 59 154 156
3 59 154 155
3 156 154 155
3 3 154 1
3 59 154 1
3 3 154 59
3 3 1 59
3 3 1 0
3 3 154 1
3 0 154 1
3 3 154 0
3 0 1 113
3 0 154 113
3 0 154 1
3 113 154 1
3 113 154 1
3 1 154 157
3 113 154 157
3 113 157 1
3 59 154 156
3 59 154 1
3 1 154 156
3 59 156 1
3 3 58 59
3 3 154 59
3 59 154 58
3 3 154 58
3 59 154 158
3 59 154 58
3 59 158 58
3 58 154 158
3 113 159 157
3 113 154 157
3 113 154 159
3 157 154 159
3 113 115 116
3 113 154 116
3 113 154 115
3 116 154 115
3 160 154 161
3 160 154 162
3 160 162 161
3 161 154 162
3 2 163 164
3 2 163 165
3 165 163 164
3 2 164 165
3 2 163 166
3 3 163 2
3 3 163 166
3 3 166 2
3 2 163 167
3 2 163 166
3 166 163 167
3 2 167 166
3 166 167 168
3 166 163 167
3 166 163 168
3 168 163 167
3 3 1 96
3 3 163 1
3 3 163 96
3 96 163 1
3 3 1 2
3 3 163 2
3 3 163 1
3 2 163 1
3 2 1 165
3 2 163 165
3 2 163 1
3 165 163 1
3 3 169 96
3 3 163 96
3 3 163 169
3 96 163 169
3 3 170 166
3 3 163 166
3 3 163 170
3 166 163 170
3 166 163 171
3 166 163 170
3 166 170 171
3 171 163 170
3 121 123 172
3 121 163 172
3 172 163 123
3 121 163 123
3 168 163 167
3 167 163 173
3 168 173 167
3 168 163 173
3 0 174 6
3 0 175 174
3 0 175 6
3 6 175 174
3 0 176 66
3 64 176 0
3 64 176 66
3 64 66 0
3 0 177 41
3 0 177 40
3 40 177 41
3 0 41 40
3 40 41 42
3 40 178 41
3 40 178 42
3 42 178 41
3 5 179 4
3 5 179 180
3 5 4 180
3 180 179 4
3 5 4 0
3 5 179 0
3 5 179 4
3 0 179 4
3 0 4 6
3 0 175 6
3 0 175 4
3 6 175 4
3 64 65 181
3 64 182 181
3 64 182 65
3 181 182 65
3 64 65 66
3 64 182 66
3 64 182 65
3 66 182 65
3 66 182 183
3 66 182 65
3 66 65 183
3 183 182 65
3 6 184 174
3 6 175 174
3 174 175 184
3 6 175 184
3 42 178 41
3 41 178 185
3 42 185 41
3 42 178 185
3 2 45 186
3 2 187 186
3 186 187 45
3 2 187 45
3 188 189 190
3 188 187 190
3 188 187 189
3 190 187 189
3 5 4 191
3 5 192 4
3 191 192 4
3 5 192 191
3 5 4 2
3 5 192 4
3 2 192 4
3 5 192 2
3 2 4 7
3 2 193 7
3 2 193 4
3 7 193 4
3 127 194 4
3 4 194 129
3 127 194 129
3 127 129 4
3 191 192 195
3 191 192 4
3 4 192 195
3 191 195 4
3 64 196 188
3 64 187 188
3 188 187 196
3 64 187 196
3 188 187 189
3 188 187 196
3 188 189 196
3 196 187 189
3 127 128 129
3 127 197 129
3 127 197 128
3 129 197 128
3 186 198 45
3 186 187 45
3 186 187 198
3 45 187 198
3 199 187 200
3 199 187 201
3 199 201 200
3 200 187 201
3 202 203 130
3 130 203 43
3 202 43 130
3 202 203 43
3 103 104 105
3 103 203 105
3 103 203 104
3 105 203 104
3 61 203 204
3 205 203 204
3 61 203 205
3 61 204 205
3 61 204 202
3 61 203 204
3 202 203 204
3 61 203 202
3 202 206 130
3 202 203 130
3 202 203 206
3 130 203 206
3 130 203 206
3 206 203 207
3 130 203 207
3 130 207 206
3 205 203 208
3 205 203 204
3 204 203 208
3 205 208 204
3 61 62 103
3 61 203 103
3 103 203 62
3 61 203 62
3 103 203 104
3 103 203 62
3 103 104 62
3 62 203 104
3 130 131 133
3 130 203 133
3 130 203 131
3 133 203 131
3 130 131 43
3 130 203 43
3 130 203 131
3 43 203 131
3 209 203 210
3 209 203 138
3 209 138 210
3 210 203 138
3 10 211 212
3 10 211 213
3 213 211 212
3 10 212 213
3 10 211 44
3 11 211 10
3 11 211 44
3 11 44 10
3 10 211 212
3 10 211 44
3 44 211 212
3 10 212 44
3 44 212 214
3 44 211 212
3 44 211 214
3 214 211 212
3 11 9 215
3 11 216 9
3 11 216 215
3 215 216 9
3 11 9 10
3 11 216 10
3 11 216 9
3 10 216 9
3 10 9 217
3 10 216 217
3 10 216 9
3 217 216 9
3 11 56 218
3 11 219 218
3 11 219 56
3 218 219 56
3 11 56 44
3 11 219 44
3 11 219 56
3 44 219 56
3 44 56 220
3 44 219 220
3 44 219 56
3 220 219 56
3 213 221 212
3 213 211 212
3 212 211 221
3 213 211 221
3 214 211 212
3 212 211 222
3 214 222 212
3 214 211 222
3 202 43 130
3 202 223 43
3 202 223 130
3 130 223 43
3 8 224 66
3 13 224 8
3 13 224 66
3 13 66 8
3 202 225 43
3 202 225 40
3 40 225 43
3 202 43 40
3 40 43 42
3 40 226 43
3 40 226 42
3 42 226 43
3 13 227 12
3 13 227 107
3 13 12 107
3 107 227 12
3 13 12 8
3 13 227 8
3 13 227 12
3 8 227 12
3 8 12 228
3 8 227 228
3 8 227 12
3 228 227 12
3 13 65 229
3 13 230 229
3 13 230 65
3 229 230 65
3 13 65 66
3 13 230 66
3 13 230 65
3 66 230 65
3 66 65 231
3 66 230 231
3 66 230 65
3 231 230 65
3 130 232 43
3 130 223 43
3 43 223 232
3 130 223 232
3 42 226 43
3 43 226 233
3 42 233 43
3 42 226 233
3 10 47 140
3 10 234 140
3 140 234 47
3 10 234 47
3 235 236 237
3 235 234 237
3 235 234 236
3 237 234 236
3 13 12 238
3 13 239 12
3 238 239 12
3 13 239 238
3 13 12 10
3 13 239 12
3 10 239 12
3 13 239 10
3 10 12 240
3 10 239 240
3 10 239 12
3 240 239 12
3 240 239 12
3 12 239 241
3 240 239 241
3 240 241 12
3 238 239 242
3 238 239 12
3 12 239 242
3 238 242 12
3 13 196 235
3 13 234 235
3 235 234 196
3 13 234 196
3 235 234 236
3 235 234 196
3 235 236 196
3 196 234 236
3 140 141 243
3 140 234 243
3 140 234 141
3 243 234 141
3 140 141 47
3 140 234 47
3 140 234 141
3 47 234 141
3 244 234 245
3 244 234 148
3 244 148 245
3 245 234 148
3 17 246 23
3 23 246 247
3 17 247 23
3 17 246 247
3 99 97 98
3 99 248 98
3 99 248 97
3 98 248 97
3 249 250 251
3 99 250 251
3 249 250 99
3 249 251 99
3 252 18 17
3 252 246 18
3 17 246 18
3 252 246 17
3 17 18 23
3 17 246 23
3 17 246 18
3 23 246 18
3 23 253 18
3 18 253 112
3 23 253 112
3 23 112 18
3 99 250 98
3 99 250 251
3 251 250 98
3 99 98 251
3 254 77 255
3 254 256 255
3 255 256 77
3 254 256 77
3 255 256 161
3 255 256 77
3 255 161 77
3 77 256 161
3 23 111 112
3 23 257 112
3 23 257 111
3 112 257 111
3 258 162 49
3 258 256 49
3 258 256 162
3 49 256 162
3 160 162 161
3 160 259 161
3 160 259 162
3 161 259 162
3 260 261 262
3 260 261 125
3 125 261 262
3 260 262 125
3 263 261 264
3 265 261 263
3 265 261 264
3 265 264 263
3 260 261 262
3 260 261 266
3 266 261 262
3 260 262 266
3 267 268 269
3 267 270 268
3 267 270 269
3 269 270 268
3 265 251 99
3 265 261 251
3 265 261 99
3 99 261 251
3 265 251 263
3 265 261 263
3 265 261 251
3 263 261 251
3 260 251 125
3 260 261 125
3 260 261 251
3 125 261 251
3 73 74 76
3 73 270 76
3 73 270 74
3 76 270 74
3 73 74 271
3 73 270 271
3 73 270 74
3 271 270 74
3 267 270 269
3 267 270 74
3 267 74 269
3 269 270 74
3 125 123 272
3 125 261 272
3 272 261 123
3 125 261 123
3 269 270 273
3 273 270 274
3 269 274 273
3 269 270 274
3 275 276 118
3 275 277 276
3 275 277 118
3 118 277 276
3 278 277 279
3 84 277 278
3 84 277 279
3 84 279 278
3 280 281 49
3 280 281 83
3 83 281 49
3 280 49 83
3 282 283 284
3 282 277 283
3 282 277 284
3 284 277 283
3 84 277 285
3 84 277 87
3 84 285 87
3 87 277 285
3 84 285 278
3 84 277 278
3 84 277 285
3 278 277 285
3 275 285 118
3 275 277 118
3 275 277 285
3 118 277 285
3 84 86 87
3 84 277 87
3 84 277 86
3 87 277 86
3 84 86 286
3 84 277 286
3 84 277 86
3 286 277 86
3 287 277 288
3 287 277 289
3 287 289 288
3 288 277 289
3 118 119 283
3 118 277 283
3 283 277 119
3 118 277 119
3 284 277 283
3 283 277 119
3 284 119 283
3 284 277 119
3 24 290 25
3 24 291 25
3 25 291 290
3 24 291 290
3 87 101 102
3 87 292 102
3 87 292 101
3 102 292 101
3 84 285 87
3 84 293 285
3 87 293 285
3 84 293 87
3 294 21 24
3 294 291 21
3 24 291 21
3 294 291 24
3 24 21 25
3 24 291 25
3 24 291 21
3 25 291 21
3 25 295 21
3 21 295 129
3 25 295 129
3 25 129 21
3 87 296 102
3 87 296 285
3 285 296 102
3 87 102 285
3 297 91 298
3 297 299 298
3 298 299 91
3 297 299 91
3 298 299 200
3 298 299 91
3 298 200 91
3 91 299 200
3 25 128 129
3 25 300 129
3 25 300 128
3 129 300 128
3 301 201 53
3 301 299 53
3 301 299 201
3 53 299 201
3 199 201 200
3 199 302 200
3 199 302 201
3 200 302 201
3 303 304 305
3 305 304 51
3 303 51 305
3 303 304 51
3 306 210 209
3 306 307 209
3 306 307 210
3 209 307 210
3 78 304 308
3 80 304 308
3 78 304 80
3 78 308 80
3 29 27 26
3 29 304 27
3 26 304 27
3 29 304 26
3 303 309 305
3 303 304 305
3 303 304 309
3 305 304 309
3 36 310 35
3 35 310 311
3 36 310 311
3 36 311 35
3 312 313 314
3 312 313 315
3 315 313 314
3 312 314 315
3 78 77 80
3 78 304 80
3 80 304 77
3 78 304 77
3 80 304 210
3 80 304 77
3 80 210 77
3 77 304 210
3 316 138 209
3 316 307 209
3 316 307 138
3 209 307 138
3 305 138 51
3 305 304 51
3 305 304 138
3 51 304 138
3 209 138 210
3 209 307 210
3 209 307 138
3 210 307 138
3 317 318 319
3 317 318 146
3 146 318 319
3 317 319 146
3 31 320 321
3 29 320 31
3 29 320 321
3 29 321 31
3 322 323 55
3 322 323 324
3 324 323 55
3 322 55 324
3 267 325 269
3 267 326 325
3 267 326 269
3 269 326 325
3 327 315 312
3 327 318 315
3 327 318 312
3 312 318 315
3 327 315 328
3 327 318 328
3 327 318 315
3 328 318 315
3 317 315 146
3 317 318 146
3 317 318 315
3 146 318 315
3 329 74 330
3 329 331 330
3 329 331 74
3 330 331 74
3 332 74 267
3 332 326 267
3 332 326 74
3 267 326 74
3 267 74 269
3 267 326 269
3 267 326 74
3 269 326 74
3 146 145 333
3 146 318 333
3 333 318 145
3 146 318 145
3 269 331 334
3 334 331 335
3 269 335 334
3 269 331 335
3 303 51 305
3 303 336 51
3 303 336 305
3 305 336 51
3 26 337 83
3 338 337 26
3 338 337 83
3 338 83 26
3 26 337 51
3 26 337 83
3 83 337 51
3 26 51 83
3 48 51 50
3 48 339 51
3 48 339 50
3 50 339 51
3 340 341 342
3 340 341 110
3 340 342 110
3 110 341 342
3 340 342 343
3 340 341 343
3 340 341 342
3 343 341 342
3 344 342 345
3 344 341 345
3 344 341 342
3 345 341 342
3 92 94 95
3 92 346 95
3 92 346 94
3 95 346 94
3 92 94 347
3 92 346 347
3 92 346 94
3 347 346 94
3 348 94 349
3 348 346 349
3 348 346 94
3 349 346 94
3 345 350 351
3 345 341 351
3 351 341 350
3 345 341 350
3 349 346 352
3 352 346 353
3 349 353 352
3 349 346 353
3 354 55 355
3 354 356 355
3 355 356 55
3 354 356 55
3 357 245 244
3 357 358 244
3 357 358 245
3 244 358 245
3 340 342 110
3 340 359 342
3 110 359 342
3 340 359 110
3 90 360 322
3 90 356 360
3 322 356 360
3 90 356 322
3 38 34 39
3 38 361 39
3 38 361 34
3 39 361 34
3 39 362 34
3 34 362 153
3 39 362 153
3 39 153 34
3 110 363 109
3 110 363 342
3 342 363 109
3 110 109 342
3 364 91 365
3 364 356 365
3 365 356 91
3 364 356 91
3 365 356 245
3 365 356 91
3 365 245 91
3 91 356 245
3 366 148 244
3 366 358 244
3 366 358 148
3 244 358 148
3 355 148 55
3 355 356 55
3 355 356 148
3 55 356 148
3 244 148 245
3 244 358 245
3 244 358 148
3 245 358 148
3 42 43 41
3 42 367 41
3 42 367 43
3 41 367 43
3 50 51 49
3 50 368 49
3 50 368 51
3 49 368 51
3 42 369 41
3 42 367 41
3 42 367 369
3 41 367 369
3 370 371 119
3 288 371 119
3 370 371 288
3 370 119 288
3 372 373 374
3 372 368 374
3 372 368 373
3 374 368 373
3 41 373 162
3 41 368 373
3 162 368 373
3 41 368 162
3 374 373 162
3 374 368 373
3 162 368 373
3 374 368 162
3 42 375 43
3 42 367 43
3 42 367 375
3 43 367 375
3 42 367 376
3 42 367 375
3 376 367 375
3 42 375 376
3 377 137 139
3 377 368 139
3 377 368 137
3 139 368 137
3 43 137 138
3 43 368 137
3 138 368 137
3 43 368 138
3 139 137 138
3 139 368 137
3 138 368 137
3 139 368 138
3 46 378 47
3 46 379 378
3 46 379 47
3 47 379 378
3 380 381 382
3 269 381 382
3 380 381 269
3 380 382 269
3 383 149 150
3 383 384 149
3 383 384 150
3 150 384 149
3 46 47 45
3 46 379 47
3 46 379 45
3 45 379 47
3 54 55 53
3 54 384 55
3 54 384 53
3 53 384 55
3 46 385 45
3 46 379 45
3 46 379 385
3 45 379 385
3 380 381 269
3 380 381 274
3 269 381 274
3 380 274 269
3 269 274 273
3 269 386 273
3 269 386 274
3 273 386 274
3 45 201 387
3 45 384 387
3 387 384 201
3 45 384 201
3 388 201 387
3 388 384 387
3 387 384 201
3 388 384 201
3 47 148 149
3 47 384 149
3 149 384 148
3 47 384 148
3 150 148 149
3 150 384 149
3 149 384 148
3 150 384 148
3 59 57 58
3 58 389 57
3 59 389 58
3 59 389 57
3 63 60 62
3 62 390 60
3 63 390 62
3 63 390 60
3 76 74 391
3 391 392 74
3 76 392 391
3 76 392 74
3 393 74 391
3 391 392 74
3 393 392 391
3 393 392 74
3 59 158 58
3 59 394 58
3 59 394 158
3 58 394 158
3 96 395 76
3 96 392 395
3 76 392 395
3 96 392 76
3 396 161 397
3 396 398 397
3 396 398 161
3 397 398 161
3 103 104 62
3 103 399 62
3 103 399 104
3 62 399 104
3 103 104 400
3 103 399 104
3 400 399 104
3 103 399 400
3 401 210 397
3 401 398 397
3 401 398 210
3 397 398 210
3 62 398 161
3 62 398 210
3 161 398 210
3 62 210 161
3 397 398 161
3 397 398 210
3 161 398 210
3 397 210 161
3 188 189 196
3 188 402 189
3 188 402 196
3 196 402 189
3 100 101 87
3 100 403 101
3 87 403 101
3 100 403 87
3 404 200 405
3 404 406 200
3 404 406 405
3 405 406 200
3 68 67 65
3 68 407 67
3 65 407 67
3 68 407 65
3 69 67 65
3 65 408 67
3 69 408 67
3 69 408 65
3 87 409 289
3 87 410 409
3 289 410 409
3 87 410 289
3 95 411 94
3 94 412 411
3 95 412 411
3 95 412 94
3 235 236 196
3 235 413 196
3 235 413 236
3 196 413 236
3 229 414 95
3 229 412 414
3 95 412 414
3 229 412 95
3 415 245 405
3 415 406 405
3 415 406 245
3 405 406 245
3 196 406 200
3 196 406 245
3 200 406 245
3 196 245 200
3 405 406 200
3 405 406 245
3 200 406 245
3 405 245 200
3 70 416 280
3 81 416 280
3 29 31 26
3 32 31 26
3 70 321 29
3 81 83 32
3 70 321 416
3 81 83 280
3 29 321 31
3 32 83 26
5 81 416 321 31 32
5 70 280 83 26 29
3 3 2 0
3 64 2 0
3 11 10 8
3 13 10 8
3 3 44 11
3 64 66 13
3 3 44 2
3 64 66 0
3 11 44 10
3 13 66 8
5 64 2 44 10 13
5 3 0 66 8 11
3 15 14 9
3 151 14 9
3 36 34 35
3 39 34 35
3 15 311 36
3 151 153 39
3 15 311 9
3 151 153 14
3 36 311 35
3 39 153 34
5 15 14 153 34 36
5 151 9 311 35 39
3 6 4 1
3 127 4 1
3 23 21 18
3 25 21 18
3 6 112 23
3 127 129 25
3 6 112 1
3 127 129 4
3 23 112 18
3 25 129 21
5 6 4 129 21 23
5 127 1 112 18 25
3 229 230 65
3 417 230 65
3 417 230 353
3 95 346 94
3 349 346 94
3 349 346 353
3 417 353 349
3 229 412 65
3 95 412 94
3 229 412 95
5 417 65 412 94 349
5 229 95 346 353 230
3 418 419 169
3 380 419 169
3 380 419 335
3 330 331 74
3 269 331 74
3 269 331 335
3 380 335 269
3 418 392 169
3 330 392 74
3 418 392 330
5 380 169 392 74 269
5 418 330 331 335 419
3 100 175 420
3 370 175 420
3 370 175 119
3 87 277 289
3 288 277 289
3 288 277 119
3 370 119 288
3 100 410 87
3 100 410 420
3 87 410 289
5 370 420 410 289 288
5 100 87 277 119 175
3 96 163 169
3 380 163 169
3 380 163 274
3 76 270 74
3 269 270 74
3 269 270 274
3 380 274 269
3 96 392 169
3 76 392 74
3 96 392 76
5 380 169 392 74 269
5 96 76 270 274 163
3 107 109 110
3 421 350 345
3 107 227 12
3 421 227 12
3 421 227 350
3 107 109 12
3 110 341 342
3 345 341 342
3 345 341 350
3 110 109 342
5 421 12 109 342 345
5 107 110 341 350 227
3 215 314 312
3 143 145 146
3 215 314 9
3 215 216 9
3 143 216 9
3 143 216 145
3 312 314 315
3 312 318 315
3 146 318 315
3 146 318 145
5 143 9 314 315 146
5 215 312 318 145 216
3 100 102 87
3 6 119 118
3 100 175 4
3 6 175 4
3 6 175 119
3 100 102 4
3 87 277 285
3 118 277 285
3 118 277 119
3 87 102 285
5 6 4 102 285 118
5 100 87 277 119 175
3 96 98 99
3 121 123 125
3 96 98 1
3 96 163 1
3 121 163 1
3 121 163 123
3 99 98 251
3 99 261 251
3 125 261 251
3 125 261 123
5 121 1 98 251 125
5 96 99 261 123 163
3 91 299 200
3 53 299 201
3 200 299 201
3 91 356 245
3 55 356 148
3 245 356 148
3 53 384 55
3 53 384 201
3 55 384 148
3 91 245 200
5 200 201 384 148 245
5 53 55 356 91 299
3 77 256 161
3 49 256 162
3 161 256 162
3 77 304 210
3 51 304 138
3 210 304 138
3 49 368 51
3 49 368 162
3 51 368 138
3 77 210 161
5 161 162 368 138 210
5 49 51 304 77 256
3 196 187 200
3 45 187 201
3 200 187 201
3 196 234 245
3 47 234 148
3 245 234 148
3 45 384 47
3 45 384 201
3 47 384 148
3 196 245 200
5 200 201 384 148 245
5 45 47 234 196 187
3 62 154 161
3 41 154 162
3 161 154 162
3 62 203 210
3 43 203 138
3 210 203 138
3 41 368 43
3 41 368 162
3 43 368 138
3 62 210 161
5 161 162 368 138 210
5 41 43 203 62 154
3 324 55 53
3 88 91 90
3 422 53 324
3 422 299 53
3 88 299 422
3 88 299 91
3 322 55 324
3 322 356 55
3 90 356 322
3 90 356 91
5 88 422 324 322 90
5 53 55 356 91 299
3 83 51 49
3 70 77 29
3 280 256 49
3 70 256 280
3 70 256 77
3 280 49 83
3 26 304 51
3 29 304 26
3 29 304 77
3 26 51 83
5 70 280 83 26 29
5 49 51 304 77 256
3 44 47 45
3 64 196 13
3 2 45 44
3 2 187 45
3 64 187 2
3 64 187 196
3 10 47 44
3 10 234 47
3 13 234 10
3 13 234 196
5 64 2 44 10 13
5 45 47 234 196 187
3 40 43 41
3 3 62 61
3 0 154 41
3 3 154 0
3 3 154 62
3 0 41 40
3 202 203 43
3 61 203 202
3 61 203 62
3 202 43 40
5 3 0 40 202 61
5 41 43 203 62 154
# cell 1: 0 1 2 3
# cell 2: 4 5 6 7
# cell 3: 8 9 10 11
# cell 4: 12 13 14 15
# cell 5: 16 17 18 19
# cell 6: 20 21 22 23
# cell 7: 24 25 26 27
# cell 8: 28 29 30 31
# cell 9: 32 33 34 35
# cell 10: 36 37 38 39
# cell 11: 40 41 42 43
# cell 12: 44 45 46 47
# cell 13: 48 49 50 51
# cell 14: 52 53 54 55
# cell 15: 56 57 58 59
# cell 16: 60 61 62 63
# cell 17: 64 65 66 67
# cell 18: 68 69 70 71
# cell 19: 72 73 74 75
# cell 20: 76 77 78 79
# cell 21: 80 81 82 83
# cell 22: 84 85 86 87
# cell 23: 88 89 90 91
# cell 24: 92 93 94 95
# cell 25: 96 97 98 99
# cell 26: 100 101 102 103
# cell 27: 104 105 106 107
# cell 28: 108 109 110 111
# cell 29: 112 113 114 115
# cell 30: 116 117 118 119
# cell 31: 120 121 122 123
# cell 32: 124 125 126 127
# cell 33: 128 129 130 131
# cell 34: 132 133 134 135
# cell 35: 136 137 138 139
# cell 36: 140 141 142 143
# cell 37: 144 145 146 147
# cell 38: 148 149 150 151
# cell 39: 152 153 154 155
# cell 40: 156 157 158 159
# cell 41: 160 161 162 163
# cell 42: 164 165 166 167
# cell 43: 168 169 170 171
# cell 44: 172 173 174 175
# cell 45: 176 177 178 179
# cell 46: 180 181 182 183
# cell 47: 184 185 186 187
# cell 48: 188 189 190 191
# cell 49: 192 193 194 195
# cell 50: 196 197 198 199
# cell 51: 200 201 202 203
# cell 52: 204 205 206 207
# cell 53: 208 209 210 211
# cell 54: 212 213 214 215
# cell 55: 216 217 218 219
# cell 56: 220 221 222 223
# cell 57: 224 225 226 227
# cell 58: 228 229 230 231
# cell 59: 232 233 234 235
# cell 60: 236 237 238 239
# cell 61: 240 241 242 243
# cell 62: 244 245 246 247
# cell 63: 248 249 250 251
# cell 64: 252 253 254 255
# cell 65: 256 257 258 259
# cell 66: 260 261 262 263
# cell 67: 264 265 266 267
# cell 68: 268 269 270 271
# cell 69: 272 273 274 275
# cell 70: 276 277 278 279
# cell 71: 280 281 282 283
# cell 72: 284 285 286 287
# cell 73: 288 289 290 291
# cell 74: 292 293 294 295
# cell 75: 296 297 298 299
# cell 76: 300 301 302 303
# cell 77: 304 305 306 307
# cell 78: 308 309 310 311
# cell 79: 312 313 314 315
# cell 80: 316 317 318 319
# cell 81: 320 321 322 323
# cell 82: 324 325 326 327
# cell 83: 328 329 330 331
# cell 84: 332 333 334 335
# cell 85: 336 337 338 339
# cell 86: 340 341 342 343
# cell 87: 344 345 346 347
# cell 88: 348 349 350 351
# cell 89: 352 353 354 355
# cell 90: 356 357 358 359
# cell 91: 360 361 362 363
# cell 92: 364 365 366 367
# cell 93: 368 369 370 371
# cell 94: 372 373 374 375
# cell 95: 376 377 378 379
# cell 96: 380 381 382 383
# cell 97: 384 385 386 387
# cell 98: 388 389 390 391
# cell 99: 392 393 394 395
# cell 100: 396 397 398 399
# cell 101: 400 401 402 403
# cell 102: 404 405 406 407
# cell 103: 408 409 410 411
# cell 104: 412 413 414 415
# cell 105: 416 417 418 419
# cell 106: 420 421 422 423
# cell 107: 424 425 426 427
# cell 108: 428 429 430 431
# cell 109: 432 433 434 435
# cell 110: 436 437 438 439
# cell 111: 440 441 442 443
# cell 112: 444 445 446 447
# cell 113: 448 449 450 451
# cell 114: 452 453 454 455
# cell 115: 456 457 458 459
# cell 116: 460 461 462 463
# cell 117: 464 465 466 467
# cell 118: 468 469 470 471
# cell 119: 472 473 474 475
# cell 120: 476 477 478 479
# cell 121: 480 481 482 483
# cell 122: 484 485 486 487
# cell 123: 488 489 490 491
# cell 124: 492 493 494 495
# cell 125: 496 497 498 499
# cell 126: 500 501 502 503
# cell 127: 504 505 506 507
# cell 128: 508 509 510 511
# cell 129: 512 513 514 515
# cell 130: 516 517 518 519
# cell 131: 520 521 522 523
# cell 132: 524 525 526 527
# cell 133: 528 529 530 531
# cell 134: 532 533 534 535
# cell 135: 536 537 538 539
# cell 136: 540 541 542 543
# cell 137: 544 545 546 547
# cell 138: 548 549 550 551
# cell 139: 552 553 554 555
# cell 140: 556 557 558 559
# cell 141: 560 561 562 563
# cell 142: 564 565 566 567
# cell 143: 568 569 570 571
# cell 144: 572 573 574 575
# cell 145: 576 577 578 579
# cell 146: 580 581 582 583
# cell 147: 584 585 586 587
# cell 148: 588 589 590 591
# cell 149: 592 593 594 595
# cell 150: 596 597 598 599
# cell 151: 600 601 602 603
# cell 152: 604 605 606 607
# cell 153: 608 609 610 611
# cell 154: 612 613 614 615
# cell 155: 616 617 618 619
# cell 156: 620 621 622 623
# cell 157: 624 625 626 627
# cell 158: 628 629 630 631
# cell 159: 632 633 634 635
# cell 160: 636 637 638 639
# cell 161: 640 641 642 643
# cell 162: 644 645 646 647
# cell 163: 648 649 650 651
# cell 164: 652 653 654 655
# cell 165: 656 657 658 659
# cell 166: 660 661 662 663
# cell 167: 664 665 666 667
# cell 168: 668 669 670 671
# cell 169: 672 673 674 675
# cell 170: 676 677 678 679
# cell 171: 680 681 682 683
# cell 172: 684 685 686 687
# cell 173: 688 689 690 691
# cell 174: 692 693 694 695
# cell 175: 696 697 698 699
# cell 176: 700 701 702 703
# cell 177: 704 705 706 707
# cell 178: 708 709 710 711
# cell 179: 712 713 714 715
# cell 180: 716 717 718 719
# cell 181: 720 721 722 723
# cell 182: 724 725 726 727
# cell 183: 728 729 730 731
# cell 184: 732 733 734 735
# cell 185: 736 737 738 739
# cell 186: 740 741 742 743
# cell 187: 744 745 746 747
# cell 188: 748 749 750 751
# cell 189: 752 753 754 755
# cell 190: 756 757 758 759
# cell 191: 760 761 762 763
# cell 192: 764 765 766 767
# cell 193: 768 769 770 771
# cell 194: 772 773 774 775
# cell 195: 776 777 778 779
# cell 196: 780 781 782 783
# cell 197: 784 785 786 787
# cell 198: 788 789 790 791
# cell 199: 792 793 794 795
# cell 200: 796 797 798 799
# cell 201: 800 801 802 803
# cell 202: 804 805 806 807
# cell 203: 808 809 810 811
# cell 204: 812 813 814 815
# cell 205: 816 817 818 819
# cell 206: 820 821 822 823
# cell 207: 824 825 826 827
# cell 208: 828 829 830 831
# cell 209: 832 833 834 835
# cell 210: 836 837 838 839
# cell 211: 840 841 842 843
# cell 212: 844 845 846 847
# cell 213: 848 849 850 851
# cell 214: 852 853 854 855
# cell 215: 856 857 858 859
# cell 216: 860 861 862 863
# cell 217: 864 865 866 867
# cell 218: 868 869 870 871
# cell 219: 872 873 874 875
# cell 220: 876 877 878 879
# cell 221: 880 881 882 883
# cell 222: 884 885 886 887
# cell 223: 888 889 890 891
# cell 224: 892 893 894 895
# cell 225: 896 897 898 899
# cell 226: 900 901 902 903
# cell 227: 904 905 906 907
# cell 228: 908 909 910 911
# cell 229: 912 913 914 915
# cell 230: 916 917 918 919
# cell 231: 920 921 922 923
# cell 232: 924 925 926 927
# cell 233: 928 929 930 931
# cell 234: 932 933 934 935
# cell 235: 936 937 938 939
# cell 236: 940 941 942 943
# cell 237: 944 945 946 947
# cell 238: 948 949 950 951
# cell 239: 952 953 954 955
# cell 240: 956 957 958 959
# cell 241: 960 961 962 963
# cell 242: 964 965 966 967
# cell 243: 968 969 970 971
# cell 244: 972 973 974 975
# cell 245: 976 977 978 979
# cell 246: 980 981 982 983
# cell 247: 984 985 986 987
# cell 248: 988 989 990 991
# cell 249: 992 993 994 995
# cell 250: 996 997 998 999
# cell 251: 1000 1001 1002 1003
# cell 252: 1004 1005 1006 1007
# cell 253: 1008 1009 1010 1011
# cell 254: 1012 1013 1014 1015
# cell 255: 1016 1017 1018 1019
# cell 256: 1020 1021 1022 1023
# cell 257: 1024 1025 1026 1027
# cell 258: 1028 1029 1030 1031
# cell 259: 1032 1033 1034 1035
# cell 260: 1036 1037 1038 1039
# cell 261: 1040 1041 1042 1043
# cell 262: 1044 1045 1046 1047
# cell 263: 1048 1049 1050 1051
# cell 264: 1052 1053 1054 1055
# cell 265: 1056 1057 1058 1059
# cell 266: 1060 1061 1062 1063
# cell 267: 1064 1065 1066 1067
# cell 268: 1068 1069 1070 1071
# cell 269: 1072 1073 1074 1075
# cell 270: 1076 1077 1078 1079
# cell 271: 1080 1081 1082 1083
# cell 272: 1084 1085 1086 1087
# cell 273: 1088 1089 1090 1091
# cell 274: 1092 1093 1094 1095
# cell 275: 1096 1097 1098 1099
# cell 276: 1100 1101 1102 1103
# cell 277: 1104 1105 1106 1107
# cell 278: 1108 1109 1110 1111
# cell 279: 1112 1113 1114 1115
# cell 280: 1116 1117 1118 1119
# cell 281: 1120 1121 1122 1123
# cell 282: 1124 1125 1126 1127
# cell 283: 1128 1129 1130 1131
# cell 284: 1132 1133 1134 1135
# cell 285: 1136 1137 1138 1139
# cell 286: 1140 1141 1142 1143
# cell 287: 1144 1145 1146 1147
# cell 288: 1148 1149 1150 1151
# cell 289: 1152 1153 1154 1155
# cell 290: 1156 1157 1158 1159
# cell 291: 1160 1161 1162 1163
# cell 292: 1164 1165 1166 1167
# cell 293: 1168 1169 1170 1171
# cell 294: 1172 1173 1174 1175
# cell 295: 1176 1177 1178 1179
# cell 296: 1180 1181 1182 1183
# cell 297: 1184 1185 1186 1187
# cell 298: 1188 1189 1190 1191
# cell 299: 1192 1193 1194 1195
# cell 300: 1196 1197 1198 1199
# cell 301: 1200 1201 1202 1203 1204 1205 1206 1207 1208 1209 1210 1211
# cell 302: 1212 1213 1214 1215 1216 1217 1218 1219 1220 1221 1222 1223
# cell 303: 1224 1225 1226 1227 1228 1229 1230 1231 1232 1233 1234 1235
# cell 304: 1236 1237 1238 1239 1240 1241 1242 1243 1244 1245 1246 1247
# cell 305: 1248 1249 1250 1251 1252 1253 1254 1255 1256 1257 1258 1259
# cell 306: 1260 1261 1262 1263 1264 1265 1266 1267 1268 1269 1270 1271
# cell 307: 1272 1273 1274 1275 1276 1277 1278 1279 1280 1281 1282 1283
# cell 308: 1284 1285 1286 1287 1288 1289 1290 1291 1292 1293 1294 1295
# cell 309: 1296 1297 1298 1299 1300 1301 1302 1303 1304 1305 1306 1307
# cell 310: 1308 1309 1310 1311 1312 1313 1314 1315 1316 1317 1318 1319
# cell 311: 1320 1321 1322 1323 1324 1325 1326 1327 1328 1329 1330 1331
# cell 312: 1332 1333 1334 1335 1336 1337 1338 1339 1340 1341 1342 1343
# cell 313: 1344 1345 1346 1347 1348 1349 1350 1351 1352 1353 1354 1355
# cell 314: 1356 1357 1358 1359 1360 1361 1362 1363 1364 1365 1366 1367
# cell 315: 1368 1369 1370 1371 1372 1373 1374 1375 1376 1377 1378 1379
# cell 316: 1380 1381 1382 1383 1384 1385 1386 1387 1388 1389 1390 1391
# cell 317: 1392 1393 1394 1395 1396 1397 1398 1399 1400 1401 1402 1403
# cell 318: 1404 1405 1406 1407 1408 1409 1410 1411 1412 1413 1414 1415
# cell 319: 1416 1417 1418 1419 1420 1421 1422 1423 1424 1425 1426 1427
# cell 320: 1428 1429 1430 1431 1432 1433 1434 1435 1436 1437 1438 1439