OFF
# face-rotation BFS net; polygonal faces are preserved
# the cell decomposition is listed below as comments
175 248 0
0.8506508083520399 0. -1.3763819204711736
0.2628655560595668 0.8090169943749475 -1.3763819204711736
-0.6881909602355868 0.5 -1.3763819204711736
-0.6881909602355868 -0.5 -1.3763819204711736
0.2628655560595668 -0.8090169943749475 -1.3763819204711736
1.1135163644116068 -0.8090169943749475 -0.8506508083520399
1.1135163644116068 0.8090169943749475 -0.8506508083520399
-0.42532540417601994 1.3090169943749475 -0.8506508083520399
-1.3763819204711736 0. -0.8506508083520399
-0.42532540417601994 -1.3090169943749475 -0.8506508083520399
-0.9510565162951535 -1.3090169943749475 -7.401486830834377e-18
5.551115123125783e-18 -1.618033988749895 -7.401486830834377e-18
0.9510565162951535 -1.3090169943749475 -7.401486830834377e-18
1.5388417685876268 -0.5 -7.401486830834377e-18
0.9510565162951535 1.3090169943749475 -7.401486830834377e-18
1.5388417685876268 0.5 -7.401486830834377e-18
-0.9510565162951535 1.3090169943749475 -7.401486830834377e-18
5.551115123125783e-18 1.618033988749895 -7.401486830834377e-18
-1.5388417685876268 -0.5 -7.401486830834377e-18
-1.5388417685876268 0.5 -7.401486830834377e-18
0.6881909602355868 -0.5 1.3763819204711736
0.6881909602355868 0.5 1.3763819204711736
-0.2628655560595668 0.8090169943749475 1.3763819204711736
-0.8506508083520399 0. 1.3763819204711736
-0.2628655560595668 -0.8090169943749475 1.3763819204711736
-1.1135163644116068 0.8090169943749475 0.8506508083520399
-1.1135163644116068 -0.8090169943749475 0.8506508083520399
0.42532540417601994 -1.3090169943749475 0.8506508083520399
1.3763819204711736 0. 0.8506508083520399
0.42532540417601994 1.3090169943749475 0.8506508083520399
0.8506508083520399 0. -2.3763819204711734
0.2628655560595668 0.8090169943749475 -2.3763819204711734
-0.6881909602355868 0.5 -2.3763819204711734
-0.6881909602355868 -0.5 -2.3763819204711734
0.2628655560595668 -0.8090169943749475 -2.3763819204711734
1.1135163644116068 -0.8090169943749475 -2.902113032590307
1.1135163644116068 0.8090169943749475 -2.902113032590307
-0.42532540417601994 1.3090169943749475 -2.902113032590307
-1.3763819204711736 0. -2.902113032590307
-0.42532540417601994 -1.3090169943749475 -2.902113032590307
-0.9510565162951535 -1.3090169943749475 -3.7527638409423467
5.551115123125783e-18 -1.618033988749895 -3.7527638409423467
0.9510565162951535 -1.3090169943749475 -3.7527638409423467
1.5388417685876268 -0.5 -3.7527638409423467
0.9510565162951535 1.3090169943749475 -3.7527638409423467
1.5388417685876268 0.5 -3.7527638409423467
-0.9510565162951535 1.3090169943749475 -3.7527638409423467
5.551115123125783e-18 1.618033988749895 -3.7527638409423467
-1.5388417685876268 -0.5 -3.7527638409423467
-1.5388417685876268 0.5 -3.7527638409423467
0.6881909602355868 -0.5 -5.12914576141352
0.6881909602355868 0.5 -5.12914576141352
-0.2628655560595668 0.8090169943749475 -5.12914576141352
-0.8506508083520399 0. -5.12914576141352
-0.2628655560595668 -0.8090169943749475 -5.12914576141352
-1.1135163644116068 0.8090169943749475 -4.603414649294387
-1.1135163644116068 -0.8090169943749475 -4.603414649294387
0.42532540417601994 -1.3090169943749475 -4.603414649294387
1.3763819204711736 0. -4.603414649294387
0.42532540417601994 1.3090169943749475 -4.603414649294387
0.7539890292479897 -1.1658390841480373 -2.17103639276294
1.3417742815404627 -0.3568220897730898 -2.17103639276294
1.60463983760003 -1.1658390841480375 -1.6453052806438064
0.7539890292479897 1.1658390841480373 -2.17103639276294
1.3417742815404627 0.3568220897730898 -2.17103639276294
1.60463983760003 1.1658390841480375 -1.6453052806438064
0.07527308197448696 1.3863672635645732 -2.17103639276294
-0.6129178782610998 1.8863672635645734 -1.645305280643806
-0.8757834343206667 1.0773502691896257 -2.17103639276294
-1.9834439186778599 2.3285236190418254e-17 -1.645305280643806
-1.295252958442273 0.5 -2.1710363927629395
-1.295252958442273 -0.49999999999999994 -2.1710363927629395
0.07527308197448696 -1.3863672635645732 -2.17103639276294
-0.6129178782610998 -1.8863672635645734 -1.645305280643806
-0.8757834343206667 -1.0773502691896257 -2.17103639276294
-1.2545875153984967 -2.2431893533376632 -0.18759247408508029
-0.30353099910334325 -2.5522063477126107 -0.18759247408508029
-0.7288564032793631 -2.243189353337663 -1.0382432824371202
1.908170836703373 -1.3863672635645732 -1.0382432824371197
1.7457109885869198 -1.8863672635645732 -0.18759247408507984
2.333496240879393 -1.0773502691896257 -0.18759247408507984
1.908170836703373 1.3863672635645732 -1.0382432824371197
1.7457109885869198 1.8863672635645732 -0.18759247408507984
2.333496240879393 1.0773502691896257 -0.18759247408507984
-1.2545875153984967 2.2431893533376632 -0.18759247408508029
-0.30353099910334325 2.5522063477126107 -0.18759247408508029
-0.7288564032793631 2.243189353337663 -1.0382432824371202
-2.5210887149644727 -0.5000000000000004 -0.18759247408508012
-2.3586288668480195 -4.3955961358712927e-16 -1.03824328243712
-2.521088714964473 0.49999999999999956 -0.18759247408508023
1.3899095666616281 -1.6596678027269873 -1.2978644038519977
1.2274497185451745 -2.1596678027269873 -0.44721359549995787
0.27639320225002106 -2.468684797101935 -0.44721359549995787
-0.14893220192599876 -2.1596678027269873 -1.2978644038519977
0.5392587583095879 -1.6596678027269873 -1.8235955159711315
1.7450779993519556 1.6877195334331797e-16 -1.823595515971132
2.0079435554115226 0.8090169943749476 -1.2978644038519982
2.4332689595875427 0.5000000000000002 -0.44721359549995865
2.4332689595875427 -0.4999999999999998 -0.44721359549995865
2.007943555411523 -0.8090169943749473 -1.2978644038519982
1.3899095666616281 1.6596678027269873 -1.2978644038519977
1.2274497185451745 2.1596678027269873 -0.44721359549995787
0.27639320225002106 2.468684797101935 -0.44721359549995787
-0.14893220192599876 2.1596678027269873 -1.2978644038519977
0.5392587583095879 1.6596678027269873 -1.8235955159711315
-2.2624485663376057 1.0257311121191337 -0.4472135954999579
-1.6746633140451324 1.8347481064940812 -0.4472135954999579
-1.1489322019259989 1.8347481064940812 -1.2978644038519977
-1.4117977579855656 1.0257311121191337 -1.8235955159711315
-2.0999887182211525 0.5257311121191337 -1.2978644038519977
-2.2624485663376057 -1.0257311121191337 -0.4472135954999579
-1.6746633140451324 -1.8347481064940812 -0.4472135954999579
-1.1489322019259989 -1.8347481064940812 -1.2978644038519977
-1.4117977579855656 -1.0257311121191337 -1.8235955159711315
-2.0999887182211525 -0.5257311121191337 -1.2978644038519977
0.6881909602355868 -0.5 2.3763819204711734
0.6881909602355868 0.5 2.3763819204711734
-0.2628655560595668 0.8090169943749475 2.3763819204711734
-0.8506508083520399 -1.5407439555097887e-33 2.3763819204711734
-0.2628655560595668 -0.8090169943749475 2.3763819204711734
-1.3417742815404627 0.3568220897730898 2.17103639276294
-0.7539890292479897 1.1658390841480373 2.17103639276294
-1.60463983760003 1.1658390841480375 1.6453052806438064
-1.3417742815404627 -0.3568220897730898 2.17103639276294
-0.7539890292479897 -1.1658390841480373 2.17103639276294
-1.60463983760003 -1.1658390841480375 1.6453052806438064
0.6129178782610998 -1.8863672635645734 1.645305280643806
-0.07527308197448696 -1.3863672635645732 2.17103639276294
0.8757834343206667 -1.0773502691896257 2.17103639276294
1.295252958442273 -0.49999999999999994 2.1710363927629395
1.9834439186778599 3.9569219487682796e-17 1.645305280643806
1.295252958442273 0.5 2.1710363927629395
0.6129178782610998 1.8863672635645734 1.645305280643806
-0.07527308197448696 1.3863672635645732 2.17103639276294
0.8757834343206667 1.0773502691896257 2.17103639276294
0.7288564032793634 2.2431893533376632 1.0382432824371197
0.30353099910334347 2.5522063477126107 0.18759247408507984
1.2545875153984967 2.243189353337663 0.18759247408507979
-2.333496240879393 1.0773502691896257 0.18759247408507987
-1.908170836703373 1.3863672635645732 1.0382432824371197
-1.7457109885869198 1.8863672635645732 0.18759247408507987
-2.333496240879393 -1.0773502691896257 0.18759247408507987
-1.908170836703373 -1.3863672635645732 1.0382432824371197
-1.7457109885869198 -1.8863672635645732 0.18759247408507987
0.7288564032793634 -2.2431893533376632 1.0382432824371197
0.30353099910334347 -2.5522063477126107 0.18759247408507984
1.2545875153984967 -2.243189353337663 0.18759247408507979
2.5210887149644727 -0.5000000000000004 0.18759247408508017
2.3586288668480195 -4.3955961358712927e-16 1.0382432824371202
2.521088714964473 0.49999999999999956 0.18759247408508029
-1.3899095666616281 1.6596678027269873 1.2978644038519977
-1.2274497185451745 2.1596678027269873 0.44721359549995787
-0.27639320225002106 2.468684797101935 0.44721359549995787
0.14893220192599876 2.1596678027269873 1.2978644038519977
-0.5392587583095879 1.6596678027269873 1.8235955159711315
-2.4332689595875427 -0.5000000000000001 0.44721359549995754
-2.4332689595875427 0.5 0.44721359549995754
-2.007943555411523 0.8090169943749475 1.2978644038519977
-1.7450779993519565 -5.768682873823839e-17 1.8235955159711317
-2.007943555411523 -0.8090169943749475 1.2978644038519977
-1.3899095666616281 -1.6596678027269873 1.2978644038519977
-1.2274497185451745 -2.1596678027269873 0.44721359549995787
-0.27639320225002106 -2.468684797101935 0.44721359549995787
0.14893220192599876 -2.1596678027269873 1.2978644038519977
-0.5392587583095879 -1.6596678027269873 1.8235955159711315
1.6746633140451324 -1.8347481064940812 0.44721359549995787
2.2624485663376057 -1.0257311121191337 0.44721359549995787
2.0999887182211525 -0.5257311121191338 1.2978644038519977
1.4117977579855656 -1.0257311121191337 1.8235955159711317
1.1489322019259989 -1.8347481064940814 1.2978644038519977
1.6746633140451324 1.8347481064940812 0.44721359549995787
2.2624485663376057 1.0257311121191337 0.44721359549995787
2.0999887182211525 0.5257311121191338 1.2978644038519977
1.4117977579855656 1.0257311121191337 1.8235955159711317
1.1489322019259989 1.8347481064940814 1.2978644038519977
5 0 1 2 3 4
3 4 0 5
3 1 0 6
3 1 7 2
3 8 2 3
3 4 9 3
3 10 11 9
3 5 12 13
3 6 14 15
3 16 17 7
3 18 8 19
5 5 12 11 9 4
5 0 6 15 13 5
5 6 14 17 7 1
5 19 16 7 2 8
5 18 10 9 3 8
5 20 21 22 23 24
3 23 22 25
3 23 24 26
3 27 24 20
3 20 28 21
3 29 22 21
3 29 17 14
3 19 25 16
3 18 26 10
3 27 11 12
3 13 28 15
5 25 16 17 29 22
5 18 19 25 23 26
5 26 10 11 27 24
5 12 13 28 20 27
5 14 15 28 21 29
5 30 31 32 33 34
3 34 30 35
3 31 30 36
3 31 37 32
3 38 32 33
3 34 39 33
3 40 41 39
3 35 42 43
3 36 44 45
3 46 47 37
3 48 38 49
5 35 42 41 39 34
5 30 36 45 43 35
5 36 44 47 37 31
5 49 46 37 32 38
5 48 40 39 33 38
5 50 51 52 53 54
3 53 52 55
3 53 54 56
3 57 54 50
3 50 58 51
3 59 52 51
3 59 47 44
3 49 55 46
3 48 56 40
3 57 41 42
3 43 58 45
5 55 46 47 59 52
5 48 49 55 53 56
5 56 40 41 57 54
5 42 43 58 50 57
5 44 45 58 51 59
5 0 1 2 3 4
5 30 31 32 33 34
4 30 0 4 34
4 30 0 1 31
4 32 2 1 31
4 32 2 3 33
4 33 3 4 34
3 4 0 5
3 60 61 62
4 61 0 4 60
4 62 5 4 60
4 61 0 5 62
3 1 0 6
3 63 64 65
4 64 0 1 63
4 64 0 6 65
4 65 6 1 63
3 1 7 2
3 66 67 68
4 68 2 1 66
4 67 7 1 66
4 67 7 2 68
3 8 2 3
3 69 70 71
4 70 2 3 71
4 70 2 8 69
4 71 3 8 69
3 4 9 3
3 72 73 74
4 74 3 4 72
4 73 9 4 72
4 73 9 3 74
3 10 11 9
3 75 76 77
4 76 11 9 77
4 77 9 10 75
4 76 11 10 75
3 5 12 13
3 78 79 80
4 79 12 5 78
4 80 13 5 78
4 79 12 13 80
3 6 14 15
3 81 82 83
4 83 15 6 81
4 82 14 6 81
4 82 14 15 83
3 16 17 7
3 84 85 86
4 85 17 7 86
4 86 7 16 84
4 85 17 16 84
3 18 8 19
3 87 88 89
4 88 8 19 89
4 88 8 18 87
4 89 19 18 87
5 5 12 11 9 4
5 90 91 92 93 94
4 90 5 4 94
4 93 9 4 94
4 92 11 9 93
4 91 12 5 90
4 92 11 12 91
5 0 6 15 13 5
5 95 96 97 98 99
4 95 0 5 99
4 95 0 6 96
4 98 13 5 99
4 97 15 6 96
4 97 15 13 98
5 6 14 17 7 1
5 100 101 102 103 104
4 100 6 1 104
4 103 7 1 104
4 101 14 6 100
4 102 17 7 103
4 102 17 14 101
5 19 16 7 2 8
5 105 106 107 108 109
4 107 7 2 108
4 108 2 8 109
4 107 7 16 106
4 109 8 19 105
4 106 16 19 105
5 18 10 9 3 8
5 110 111 112 113 114
4 113 3 8 114
4 112 9 3 113
4 112 9 10 111
4 114 8 18 110
4 111 10 18 110
5 20 21 22 23 24
5 115 116 117 118 119
4 117 22 23 118
4 119 24 23 118
4 119 24 20 115
4 116 21 20 115
4 117 22 21 116
3 23 22 25
3 120 121 122
4 121 22 23 120
4 121 22 25 122
4 122 25 23 120
3 23 24 26
3 123 124 125
4 124 24 23 123
4 125 26 23 123
4 124 24 26 125
3 27 24 20
3 126 127 128
4 127 24 20 128
4 127 24 27 126
4 128 20 27 126
3 20 28 21
3 129 130 131
4 131 21 20 129
4 130 28 20 129
4 130 28 21 131
3 29 22 21
3 132 133 134
4 133 22 21 134
4 133 22 29 132
4 134 21 29 132
3 29 17 14
3 135 136 137
4 136 17 14 137
4 136 17 29 135
4 137 14 29 135
3 19 25 16
3 138 139 140
4 140 16 19 138
4 139 25 16 140
4 139 25 19 138
3 18 26 10
3 141 142 143
4 143 10 18 141
4 142 26 18 141
4 142 26 10 143
3 27 11 12
3 144 145 146
4 145 11 12 146
4 145 11 27 144
4 146 12 27 144
3 13 28 15
3 147 148 149
4 149 15 13 147
4 148 28 13 147
4 148 28 15 149
5 25 16 17 29 22
5 150 151 152 153 154
4 152 17 16 151
4 154 22 25 150
4 154 22 29 153
4 152 17 29 153
4 150 25 16 151
5 18 19 25 23 26
5 155 156 157 158 159
4 156 19 18 155
4 157 25 23 158
4 159 26 23 158
4 157 25 19 156
4 159 26 18 155
5 26 10 11 27 24
5 160 161 162 163 164
4 162 11 10 161
4 164 24 26 160
4 164 24 27 163
4 160 26 10 161
4 162 11 27 163
5 12 13 28 20 27
5 165 166 167 168 169
4 165 12 13 166
4 168 20 27 169
4 167 28 20 168
4 165 12 27 169
4 167 28 13 166
5 14 15 28 21 29
5 170 171 172 173 174
4 170 14 15 171
4 172 28 21 173
4 173 21 29 174
4 170 14 29 174
4 172 28 15 171
# cell 1: 0 1 2 3 4 5 6 7 8 9 10 11 12 13 14 15 16 17 18 19 20 21 22 23 24 25 26 27 28 29 30 31
# cell 2: 32 33 34 35 36 37 38 39 40 41 42 43 44 45 46 47 48 49 50 51 52 53 54 55 56 57 58 59 60 61 62 63
# cell 3: 64 65 66 67 68 69 70
# cell 4: 71 72 73 74 75
# cell 5: 76 77 78 79 80
# cell 6: 81 82 83 84 85
# cell 7: 86 87 88 89 90
# cell 8: 91 92 93 94 95
# cell 9: 96 97 98 99 100
# cell 10: 101 102 103 104 105
# cell 11: 106 107 108 109 110
# cell 12: 111 112 113 114 115
# cell 13: 116 117 118 119 120
# cell 14: 121 122 123 124 125 126 127
# cell 15: 128 129 130 131 132 133 134
# cell 16: 135 136 137 138 139 140 141
# cell 17: 142 143 144 145 146 147 148
# cell 18: 149 150 151 152 153 154 155
# cell 19: 156 157 158 159 160 161 162
# cell 20: 163 164 165 166 167
# cell 21: 168 169 170 171 172
# cell 22: 173 174 175 176 177
# cell 23: 178 179 180 181 182
# cell 24: 183 184 185 186 187
# cell 25: 188 189 190 191 192
# cell 26: 193 194 195 196 197
# cell 27: 198 199 200 201 202
# cell 28: 203 204 205 206 207
# cell 29: 208 209 210 211 212
# cell 30: 213 214 215 216 217 218 219
# cell 31: 220 221 222 223 224 225 226
# cell 32: 227 228 229 230 231 232 233
# cell 33: 234 235 236 237 238 239 240
# cell 34: 241 242 243 244 245 246 247