OFF
# face-rotation BFS net; polygonal faces are preserved
# the cell decomposition is listed below as comments
81 140 0
-0.2628655560595668 -0.8090169943749475 -0.42532540417601994
0. 0. -0.9510565162951535
0.6881909602355868 -0.5 -0.42532540417601994
0.6881909602355868 0.5 -0.42532540417601994
-0.2628655560595668 0.8090169943749475 -0.42532540417601994
-0.8506508083520399 0. -0.42532540417601994
0.2628655560595668 0.8090169943749475 0.42532540417601994
0. 0. 0.9510565162951535
-0.6881909602355868 0.5 0.42532540417601994
-0.6881909602355868 -0.5 0.42532540417601994
0.2628655560595668 -0.8090169943749475 0.42532540417601994
0.8506508083520399 0. 0.42532540417601994
-0.07527308197448673 -1.3863672635645734 -1.2199798764677863
0.18759247408508012 -0.5773502691896261 -1.7457109885869198
0.8757834343206667 -1.0773502691896255 -1.2199798764677858
1.0923965651426046 -0.7440169358562924 -2.1375678234485678
0.2752143261049364 -0.847022600647942 -2.7046683623499286
-0.44644520344502175 -1.244016935856293 -2.1375678234485687
1.0175585690460078 -1.5136892673146083 -2.77160550097867
0.7546930129864409 -2.3227062616895555 -2.2458743888595363
0.06650205275085425 -1.8227062616895562 -2.7716055009786706
-0.15011107807108365 -2.1560395950228894 -1.8540175539978883
0.6670711609665847 -2.0530339302312397 -1.286917015096528
1.3887306905165429 -1.6560395950228888 -1.8540175539978876
1.2952529584422732 -0.49999999999999983 -1.219979876467786
0.6070619982066863 1.3717076385371216e-16 -1.7457109885869195
1.295252958442273 0.5000000000000001 -1.2199798764677858
-0.07527308197448673 1.3863672635645732 -1.219979876467786
0.1875924740850801 0.577350269189626 -1.7457109885869198
0.8757834343206667 1.0773502691896257 -1.2199798764677858
-0.75398902924799 1.1658390841480373 -1.219979876467786
-0.4911234731884233 0.3568220897730898 -1.7457109885869195
-1.341774281540463 0.3568220897730897 -1.2199798764677858
-0.75398902924799 -1.1658390841480373 -1.219979876467786
-0.4911234731884233 -0.3568220897730898 -1.7457109885869195
-1.341774281540463 -0.3568220897730897 -1.2199798764677858
0.07527308197448673 1.3863672635645732 1.219979876467786
-0.1875924740850801 0.577350269189626 1.7457109885869198
-0.8757834343206667 1.0773502691896257 1.2199798764677858
-1.2952529584422732 -0.49999999999999983 1.219979876467786
-0.6070619982066863 1.3717076385371216e-16 1.7457109885869195
-1.295252958442273 0.5000000000000001 1.2199798764677858
0.07527308197448673 -1.3863672635645732 1.219979876467786
-0.1875924740850801 -0.577350269189626 1.7457109885869198
-0.8757834343206667 -1.0773502691896257 1.2199798764677858
0.75398902924799 -1.1658390841480373 1.219979876467786
0.49112347318842337 -0.3568220897730898 1.7457109885869198
1.341774281540463 -0.3568220897730897 1.2199798764677858
0.75398902924799 1.1658390841480373 1.219979876467786
0.49112347318842337 0.3568220897730898 1.7457109885869198
1.341774281540463 0.3568220897730897 1.2199798764677858
0.040665443043776395 -1.7431893533376634 -0.6129178782610998
0.9917219593389299 -1.434172358962716 -0.6129178782610998
0.5663965551629099 -1.7431893533376632 0.23773293009094015
1.6704379066124329 -0.4999999999999997 -0.6129178782611
1.832897754728886 3.177421957675237e-16 0.23773293009093985
1.6704379066124326 0.5000000000000003 -0.6129178782611
0.040665443043776395 1.7431893533376634 -0.6129178782610998
0.9917219593389299 1.434172358962716 -0.6129178782610998
0.5663965551629099 1.7431893533376632 0.23773293009094015
-1.0575200283513326 1.3863672635645732 -0.6129178782611
-1.645305280643806 0.5773502691896257 -0.6129178782611
-1.4828454325273528 1.0773502691896257 0.23773293009094004
-1.0575200283513326 -1.3863672635645732 -0.6129178782611
-1.645305280643806 -0.5773502691896257 -0.6129178782611
-1.4828454325273528 -1.0773502691896257 0.23773293009094004
-0.5663965551629099 1.7431893533376634 -0.23773293009094001
-0.9917219593389298 1.434172358962716 0.6129178782610999
-0.040665443043776284 1.7431893533376632 0.6129178782610999
-1.6704379066124329 -0.4999999999999997 0.6129178782611
-1.832897754728886 3.177421957675237e-16 -0.23773293009093985
-1.6704379066124326 0.5000000000000003 0.6129178782611
-0.5663965551629099 -1.7431893533376634 -0.23773293009094001
-0.9917219593389298 -1.434172358962716 0.6129178782610999
-0.040665443043776284 -1.7431893533376632 0.6129178782610999
1.0575200283513326 -1.3863672635645732 0.6129178782611
1.645305280643806 -0.5773502691896257 0.6129178782611
1.4828454325273528 -1.0773502691896257 -0.23773293009093982
1.0575200283513326 1.3863672635645732 0.6129178782611
1.645305280643806 0.5773502691896257 0.6129178782611
1.4828454325273528 1.0773502691896257 -0.23773293009093982
3 0 1 2
3 2 1 3
3 4 1 3
3 4 1 5
3 0 1 5
3 6 7 8
3 9 7 8
3 10 7 9
3 10 7 11
3 6 7 11
3 0 2 10
3 2 11 3
3 4 3 6
3 4 5 8
3 0 5 9
3 4 8 6
3 9 5 8
3 0 9 10
3 10 11 2
3 6 11 3
3 12 13 14
3 14 13 15
3 16 13 15
3 16 13 17
3 12 13 17
3 18 19 20
3 21 19 20
3 22 19 21
3 22 19 23
3 18 19 23
3 12 14 22
3 14 23 15
3 16 15 18
3 16 17 20
3 12 17 21
3 16 20 18
3 21 17 20
3 12 21 22
3 22 23 14
3 18 23 15
3 0 1 2
3 12 13 14
4 13 1 2 14
4 13 1 0 12
4 14 2 0 12
3 2 1 3
3 24 25 26
4 25 1 2 24
4 25 1 3 26
4 26 3 2 24
3 4 1 3
3 27 28 29
4 28 1 3 29
4 28 1 4 27
4 29 3 4 27
3 4 1 5
3 30 31 32
4 31 1 4 30
4 31 1 5 32
4 32 5 4 30
3 0 1 5
3 33 34 35
4 34 1 0 33
4 34 1 5 35
4 35 5 0 33
3 6 7 8
3 36 37 38
4 37 7 8 38
4 37 7 6 36
4 38 8 6 36
3 9 7 8
3 39 40 41
4 40 7 8 41
4 40 7 9 39
4 41 8 9 39
3 10 7 9
3 42 43 44
4 43 7 9 44
4 43 7 10 42
4 44 9 10 42
3 10 7 11
3 45 46 47
4 46 7 10 45
4 46 7 11 47
4 47 11 10 45
3 6 7 11
3 48 49 50
4 49 7 6 48
4 49 7 11 50
4 50 11 6 48
3 0 2 10
3 51 52 53
4 52 2 0 51
4 53 10 0 51
4 52 2 10 53
3 2 11 3
3 54 55 56
4 56 3 2 54
4 55 11 2 54
4 55 11 3 56
3 4 3 6
3 57 58 59
4 58 3 4 57
4 59 6 4 57
4 58 3 6 59
3 4 5 8
3 60 61 62
4 61 5 4 60
4 62 8 4 60
4 61 5 8 62
3 0 5 9
3 63 64 65
4 64 5 0 63
4 64 5 9 65
4 65 9 0 63
3 4 8 6
3 66 67 68
4 67 8 6 68
4 68 6 4 66
4 67 8 4 66
3 9 5 8
3 69 70 71
4 71 8 9 69
4 70 5 8 71
4 70 5 9 69
3 0 9 10
3 72 73 74
4 73 9 10 74
4 74 10 0 72
4 73 9 0 72
3 10 11 2
3 75 76 77
4 76 11 10 75
4 77 2 10 75
4 76 11 2 77
3 6 11 3
3 78 79 80
4 79 11 6 78
4 79 11 3 80
4 80 3 6 78
# cell 1: 0 1 2 3 4 5 6 7 8 9 10 11 12 13 14 15 16 17 18 19
# cell 2: 20 21 22 23 24 25 26 27 28 29 30 31 32 33 34 35 36 37 38 39
# cell 3: 40 41 42 43 44
# cell 4: 45 46 47 48 49
# cell 5: 50 51 52 53 54
# cell 6: 55 56 57 58 59
# cell 7: 60 61 62 63 64
# cell 8: 65 66 67 68 69
# cell 9: 70 71 72 73 74
# cell 10: 75 76 77 78 79
# cell 11: 80 81 82 83 84
# cell 12: 85 86 87 88 89
# cell 13: 90 91 92 93 94
# cell 14: 95 96 97 98 99
# cell 15: 100 101 102 103 104
# cell 16: 105 106 107 108 109
# cell 17: 110 111 112 113 114
# cell 18: 115 116 117 118 119
# cell 19: 120 121 122 123 124
# cell 20: 125 126 127 128 129
# cell 21: 130 131 132 133 134
# cell 22: 135 136 137 138 139