OFF
# face-rotation BFS net; polygonal faces are preserved
# the cell decomposition is listed below as comments
8 20 0
-1.9416458417954153e-17 1.1547005383792517 -0.408248290463863
-1.0000000000000004 -0.577350269189626 -0.4082482904638631
2.5813929773833496e-16 1.098900863587239e-16 1.2247448713915892
1.0000000000000002 -0.577350269189626 -0.408248290463863
-1.6666666666666676 0.9622504486493767 0.6804138174397718
-1.2624958367965045e-16 -1.9245008972987532 0.680413817439772
-9.441688200997555e-17 4.525386210524043e-16 -2.0412414523193156
1.666666666666667 0.9622504486493766 0.6804138174397716
3 0 1 2
3 3 1 2
3 3 1 0
3 3 2 0
3 0 1 2
3 4 1 2
3 4 1 0
3 4 2 0
3 3 1 2
3 5 1 2
3 5 1 3
3 5 2 3
3 3 1 0
3 6 1 0
3 6 1 3
3 6 0 3
3 3 2 0
3 7 2 0
3 7 2 3
3 7 0 3
# cell 1: 0 1 2 3
# cell 2: 4 5 6 7
# cell 3: 8 9 10 11
# cell 4: 12 13 14 15
# cell 5: 16 17 18 19