OFF
# face-rotation BFS net; polygonal faces are preserved
# the cell decomposition is listed below as comments
41 60 0
-1.0000000000000004 -1.7320508075688774 -1.2247448713915894
-2.0000000000000004 -1.1547005383792515 0.408248290463863
-2.0000000000000004 1.465357472656084e-18 -1.2247448713915894
1.0000000000000002 -0.5773502691896261 2.0412414523193156
-1.0000000000000002 -0.5773502691896257 2.041241452319315
8.887508851444418e-18 1.1547005383792517 2.0412414523193156
1.0000000000000002 1.7320508075688776 -1.2247448713915892
-1.0000000000000002 1.7320508075688774 -1.2247448713915894
8.887508851444418e-18 2.3094010767585034 0.4082482904638631
2.0000000000000004 -1.8957006170196798e-16 -1.2247448713915892
1. -1.7320508075688776 -1.2247448713915894
2.0000000000000004 -1.1547005383792517 0.4082482904638631
-3.6666666666666674 -0.1924500897298751 -0.13608276348795434
-1.6666666666666674 0.9622504486493765 3.129903560222951
-1.6666666666666676 3.2716515254078797 -0.13608276348795412
-3.333333333333335 3.079201435678005 0.9525793444156807
-4.333333333333335 1.3471506281091274 0.9525793444156807
-3.333333333333335 1.9245008972987532 2.585572506271133
-2.000000000000001 -3.079201435678005 -0.13608276348795412
-1.8873709102559234e-16 -1.9245008972987532 3.129903560222951
2. -3.0792014356780055 -0.136082763487954
0.9999999999999998 -4.4263520637871325 0.9525793444156813
-1.0000000000000009 -4.4263520637871325 0.9525793444156812
-3.8636169090262916e-16 -3.8490017945975064 2.5855725062711334
-2. -1.1547005383792512 -2.8577380332470423
1.4773999805544666e-16 2.3094010767585034 -2.857738033247042
2.000000000000001 -1.1547005383792515 -2.857738033247042
1.0000000000000007 -0.5773502691896255 -4.490731195102494
-1. -0.5773502691896253 -4.490731195102494
5.086370921844802e-16 1.1547005383792521 -4.490731195102494
1.6666666666666665 0.9622504486493763 3.1299035602229504
1.6666666666666667 3.27165152540788 -0.1360827634879539
3.6666666666666674 -0.19245008972987532 -0.13608276348795423
4.333333333333334 1.347150628109127 0.9525793444156808
3.333333333333334 1.9245008972987527 2.585572506271133
3.333333333333334 3.079201435678004 0.9525793444156809
-3.000000000000001 -1.7320508075688772 -1.2247448713915892
-4.1535068993139623e-16 -2.8652964576986642e-16 3.674234614174768
-1.4897717195258565e-16 3.464101615137755 -1.224744871391589
3.000000000000001 -1.7320508075688776 -1.2247448713915894
-5.000000000000002 2.88675134594813 2.041241452319316
3 0 1 2
3 3 4 5
3 6 7 8
3 9 10 11
6 5 4 1 2 7 8
6 10 0 1 4 3 11
6 6 7 2 0 10 9
6 6 8 5 3 11 9
3 12 1 2
3 13 4 5
3 14 7 8
3 15 16 17
6 5 4 1 2 7 8
6 16 12 1 4 13 17
6 16 12 2 7 14 15
6 17 13 5 8 14 15
3 18 1 0
3 19 4 3
3 20 10 11
3 21 22 23
6 10 0 1 4 3 11
6 22 18 1 4 19 23
6 20 10 0 18 22 21
6 20 11 3 19 23 21
3 24 2 0
3 25 7 6
3 26 10 9
3 27 28 29
6 6 7 2 0 10 9
6 28 24 2 7 25 29
6 26 10 0 24 28 27
6 26 9 6 25 29 27
3 30 5 3
3 31 8 6
3 32 11 9
3 33 34 35
6 6 8 5 3 11 9
6 34 30 5 8 31 35
6 32 11 3 30 34 33
6 32 9 6 31 35 33
3 0 1 2
3 36 1 2
3 36 1 0
3 36 2 0
3 3 4 5
3 37 4 5
3 37 4 3
3 37 5 3
3 6 7 8
3 38 7 8
3 38 7 6
3 38 8 6
3 9 10 11
3 39 10 11
3 39 10 9
3 39 11 9
3 15 16 17
3 40 16 17
3 40 16 15
3 40 17 15
# cell 1: 0 1 2 3 4 5 6 7
# cell 2: 8 9 10 11 12 13 14 15
# cell 3: 16 17 18 19 20 21 22 23
# cell 4: 24 25 26 27 28 29 30 31
# cell 5: 32 33 34 35 36 37 38 39
# cell 6: 40 41 42 43
# cell 7: 44 45 46 47
# cell 8: 48 49 50 51
# cell 9: 52 53 54 55
# cell 10: 56 57 58 59