OFF
# face-rotation BFS net; polygonal faces are preserved
# the cell decomposition is listed below as comments
23 60 0
1.0259706573831088e-16 -1.1547005383792515 -0.8164965809277259
-0.9999999999999998 -0.5773502691896256 0.8164965809277263
-0.9999999999999998 0.577350269189626 -0.8164965809277259
0.9999999999999999 -0.5773502691896258 0.8164965809277259
3.6618778813600717e-17 1.1547005383792515 0.816496580927726
0.9999999999999999 0.5773502691896256 -0.8164965809277263
-2.666666666666666 0.38490017945975064 0.27216552697590846
-1.6666666666666667 0.9622504486493761 1.9051586888313603
-1.6666666666666665 2.1169509870286274 0.27216552697590823
-1. -2.501851166488378 0.272165526975909
-2.952340286263092e-16 -1.924500897298752 1.9051586888313605
0.9999999999999996 -2.5018511664883785 0.2721655269759087
-1.0000000000000002 -0.5773502691896258 -2.4494897427831774
-3.7307060730832327e-16 1.154700538379251 -2.449489742783178
0.9999999999999994 -0.5773502691896261 -2.449489742783178
1.666666666666666 0.9622504486493761 1.9051586888313605
1.6666666666666663 2.1169509870286274 0.2721655269759082
2.666666666666666 0.38490017945975047 0.272165526975908
-2. -1.154700538379251 -0.8164965809277256
-4.7162985329509435e-18 3.8783603243808155e-16 2.449489742783178
9.872744580160662e-17 2.309401076758502 -0.8164965809277258
2. -1.1547005383792512 -0.8164965809277258
-3.333333333333334 1.9245008972987527 1.3608276348795423
3 0 1 2
3 3 1 4
3 5 2 4
3 5 0 3
3 4 1 2
3 3 1 0
3 5 2 0
3 5 4 3
3 6 1 2
3 7 1 4
3 8 2 4
3 8 6 7
3 4 1 2
3 7 1 6
3 8 2 6
3 8 4 7
3 9 1 0
3 10 1 3
3 11 0 3
3 11 9 10
3 3 1 0
3 10 1 9
3 11 0 9
3 11 3 10
3 12 2 0
3 13 2 5
3 14 0 5
3 14 12 13
3 5 2 0
3 13 2 12
3 14 0 12
3 14 5 13
3 15 4 3
3 16 4 5
3 17 3 5
3 17 15 16
3 5 4 3
3 16 4 15
3 17 3 15
3 17 5 16
3 0 1 2
3 18 1 2
3 18 1 0
3 18 2 0
3 3 1 4
3 19 1 4
3 19 1 3
3 19 4 3
3 5 2 4
3 20 2 4
3 20 2 5
3 20 4 5
3 5 0 3
3 21 0 3
3 21 0 5
3 21 3 5
3 8 6 7
3 22 6 7
3 22 6 8
3 22 7 8
# cell 1: 0 1 2 3 4 5 6 7
# cell 2: 8 9 10 11 12 13 14 15
# cell 3: 16 17 18 19 20 21 22 23
# cell 4: 24 25 26 27 28 29 30 31
# cell 5: 32 33 34 35 36 37 38 39
# cell 6: 40 41 42 43
# cell 7: 44 45 46 47
# cell 8: 48 49 50 51
# cell 9: 52 53 54 55
# cell 10: 56 57 58 59