OFF
# face-rotation BFS net; polygonal faces are preserved
# the cell decomposition is listed below as comments
78 80 0
-1.0000000000000002 0.577350269189626 -2.041241452319315
-2.0000000000000004 1.1547005383792517 -0.40824829046386335
-2.0000000000000004 -1.216902603105291e-16 1.2247448713915887
-1.0000000000000002 -1.7320508075688776 1.2247448713915887
-1.0432836022614992e-16 -2.3094010767585034 -0.4082482904638633
-1.0432836022614992e-16 -1.1547005383792517 -2.041241452319315
1.0000000000000004 1.7320508075688774 1.2247448713915892
-1.0000000000000002 1.7320508075688774 1.224744871391589
1. -1.7320508075688776 1.224744871391589
2.0000000000000004 -1.003543446145022e-16 1.2247448713915892
1.0000000000000002 0.5773502691896258 -2.041241452319315
2.0000000000000004 1.1547005383792517 -0.40824829046386274
-5.333333333333334 0.7698003589195022 1.7690759253434083
-3.666666666666667 -0.19245008972987465 2.3134069792952245
-3.6666666666666683 2.116950987028629 -0.9525793444156792
-5.333333333333336 1.9245008972987543 0.13608276348795645
-1.666666666666667 3.27165152540788 2.313406979295225
-4.333333333333334 1.347150628109128 3.40206908719886
-3.333333333333334 3.079201435678005 3.4020690871988606
-4.333333333333335 3.6565517048676317 0.13608276348795667
-3.3333333333333344 4.233901974057257 1.7690759253434085
-1.913461312480523e-16 -4.233901974057256 -0.9525793444156818
-2.0000000000000004 -3.079201435678006 2.313406979295223
-2.0000000000000004 -5.00370233297676 1.769075925343405
-1.0000000000000007 -5.581052602166384 0.13608276348795267
2.0000000000000004 -3.079201435678006 2.3134069792952237
-1.0000000000000004 -4.426352063787134 3.402069087198858
1. -4.426352063787134 3.402069087198858
1. -5.581052602166384 0.1360827634879529
2.0000000000000004 -5.003702332976759 1.7690759253434056
-1.0432836022614994e-16 -2.3094010767585034 -3.6742346141747677
-2.0000000000000004 1.1547005383792517 -3.674234614174768
-2.0000000000000004 1.0035434461450223e-16 -5.307227776030221
-1.0000000000000004 -1.7320508075688774 -5.307227776030221
2.0000000000000004 1.1547005383792517 -3.674234614174768
-1. 1.7320508075688776 -5.307227776030221
1.0000000000000002 1.7320508075688776 -5.307227776030221
1.0000000000000002 -1.7320508075688774 -5.307227776030221
2.0000000000000004 1.216902603105291e-16 -5.307227776030221
3.666666666666667 -0.19245008972987487 2.3134069792952245
1.6666666666666674 3.2716515254078797 2.3134069792952245
3.333333333333335 3.079201435678005 3.4020690871988597
4.333333333333335 1.3471506281091274 3.4020690871988597
3.666666666666668 2.1169509870286287 -0.9525793444156794
3.333333333333335 4.2339019740572565 1.769075925343408
4.333333333333335 3.6565517048676313 0.13608276348795578
5.333333333333334 0.7698003589195015 1.7690759253434079
5.333333333333335 1.9245008972987536 0.13608276348795578
-3.000000000000001 -1.7320508075688776 1.2247448713915885
-3.000000000000001 0.577350269189626 -2.0412414523193156
-1.0000000000000007 -2.886751345948129 -2.0412414523193156
-3.0000000000000018 -2.886751345948129 -2.041241452319316
-4.000000000000002 -2.309401076758503 -0.40824829046386407
-4.000000000000002 -1.1547005383792515 -2.041241452319316
-2.000000000000001 -1.1547005383792517 2.857738033247041
-3.164563532490171e-17 2.3094010767585034 2.857738033247042
2. -1.1547005383792517 2.8577380332470415
1. -0.577350269189626 4.490731195102494
-1.0000000000000004 -0.5773502691896258 4.490731195102494
-1.6761963087595339e-16 1.1547005383792515 4.490731195102494
-2.0000000000000004 2.3094010767585043 -2.0412414523193156
1.1288741508150577e-16 3.4641016151377557 1.224744871391589
2.0000000000000004 2.3094010767585043 -2.0412414523193148
1.0000000000000002 4.041451884327382 -2.041241452319315
-1. 4.041451884327382 -2.041241452319315
1.2144646993686162e-16 4.618802153517008 -0.4082482904638629
1. -2.886751345948129 -2.0412414523193156
3.000000000000001 -1.7320508075688774 1.2247448713915892
3.0000000000000004 0.5773502691896262 -2.0412414523193148
4.000000000000001 -1.1547005383792512 -2.041241452319315
3.000000000000001 -2.8867513459481287 -2.0412414523193156
4.000000000000001 -2.309401076758503 -0.4082482904638631
-7.000000000000002 1.7320508075688794 1.2247448713915923
-5. 2.88675134594813 4.490731195102496
-5.000000000000002 5.196152422706634 1.2247448713915925
-6.666666666666668 5.003702332976759 2.313406979295228
-7.666666666666668 3.2716515254078815 2.313406979295228
-6.666666666666667 3.849001794597507 3.94640014115068
6 0 1 2 3 4 5
6 6 7 2 3 8 9
6 6 7 1 0 10 11
6 9 8 4 5 10 11
3 7 2 1
3 8 3 4
3 10 0 5
3 11 6 9
6 12 13 2 1 14 15
6 16 7 2 13 17 18
6 19 14 1 7 16 20
6 18 17 12 15 19 20
3 7 2 1
3 17 13 12
3 19 14 15
3 20 16 18
6 21 4 3 22 23 24
6 25 8 3 22 26 27
6 28 21 4 8 25 29
6 28 24 23 26 27 29
3 8 3 4
3 26 22 23
3 28 21 24
3 29 25 27
6 30 5 0 31 32 33
6 34 10 0 31 35 36
6 34 10 5 30 37 38
6 36 35 32 33 37 38
3 10 0 5
3 35 31 32
3 37 30 33
3 38 34 36
6 39 9 6 40 41 42
6 43 11 6 40 44 45
6 43 11 9 39 46 47
6 45 44 41 42 46 47
3 11 6 9
3 44 40 41
3 46 39 42
3 47 43 45
3 48 2 3
3 49 1 0
3 50 4 5
3 51 52 53
6 0 1 2 3 4 5
6 52 48 2 1 49 53
6 50 4 3 48 52 51
6 50 5 0 49 53 51
3 54 2 3
3 55 7 6
3 56 8 9
3 57 58 59
6 6 7 2 3 8 9
6 55 7 2 54 58 59
6 56 8 3 54 58 57
6 56 9 6 55 59 57
3 60 1 0
3 61 7 6
3 62 10 11
3 63 64 65
6 6 7 1 0 10 11
6 64 60 1 7 61 65
6 62 10 0 60 64 63
6 62 11 6 61 65 63
3 66 4 5
3 67 8 9
3 68 10 11
3 69 70 71
6 9 8 4 5 10 11
6 70 66 4 8 67 71
6 68 10 5 66 70 69
6 68 11 9 67 71 69
3 72 12 15
3 73 17 18
3 74 19 20
3 75 76 77
6 18 17 12 15 19 20
6 76 72 12 17 73 77
6 74 19 15 72 76 75
6 74 20 18 73 77 75
# cell 1: 0 1 2 3 4 5 6 7
# cell 2: 8 9 10 11 12 13 14 15
# cell 3: 16 17 18 19 20 21 22 23
# cell 4: 24 25 26 27 28 29 30 31
# cell 5: 32 33 34 35 36 37 38 39
# cell 6: 40 41 42 43 44 45 46 47
# cell 7: 48 49 50 51 52 53 54 55
# cell 8: 56 57 58 59 60 61 62 63
# cell 9: 64 65 66 67 68 69 70 71
# cell 10: 72 73 74 75 76 77 78 79