OFF
# face-rotation BFS net; polygonal faces are preserved
# the cell decomposition is listed below as comments
83 160 0
-1.0000000000000002 -0.5773502691896258 -1.632993161855452
-2. -1.6060082044904737e-16 1.3012189803493505e-16
-1.0000000000000004 -1.7320508075688772 1.9099595572419404e-17
1.0000000000000002 0.5773502691896261 1.632993161855452
-1. 0.5773502691896257 1.6329931618554523
-2.2041344991358052e-16 -1.1547005383792515 1.6329931618554523
1.0000000000000004 1.7320508075688774 3.9743888791757756e-17
-0.9999999999999998 1.7320508075688772 4.910059937210259e-17
1.6311550114507874e-18 1.1547005383792515 -1.632993161855452
2.0000000000000004 2.6799464365522625e-16 -1.576726243950007e-17
1. -1.7320508075688772 -6.192170309041306e-17
1. -0.5773502691896257 -1.632993161855452
-3.666666666666667 0.9622504486493763 -0.5443310539518178
-3.666666666666667 -0.19245008972987465 1.0886621079036345
-1.6666666666666679 2.1169509870286287 2.721655269759087
-2.666666666666668 0.3849001794597513 2.721655269759087
-1.6666666666666672 3.27165152540788 1.0886621079036347
-2.6666666666666665 2.6943012562182536 -0.5443310539518176
-3.333333333333335 3.079201435678005 2.177324215807269
-4.333333333333335 1.347150628109128 2.1773242158072685
-4.333333333333334 2.501851166488379 0.5443310539518165
-1.0000000000000002 -3.6565517048676304 -0.5443310539518167
-2.0000000000000004 -3.079201435678004 1.0886621079036354
1.0000000000000004 -2.5018511664883776 2.7216552697590872
-1. -2.5018511664883776 2.7216552697590872
2. -3.0792014356780038 1.0886621079036354
0.9999999999999999 -3.65655170486763 -0.5443310539518169
1.0000000000000007 -4.426352063787131 2.1773242158072703
-0.9999999999999999 -4.426352063787131 2.1773242158072703
1.318581087051791e-16 -5.003702332976757 0.5443310539518184
-1.0000000000000004 -1.7320508075688759 -3.2659863237109055
-2.0000000000000004 1.3145420956410263e-15 -3.265986323710904
1.0000000000000004 1.732050807568879 -3.265986323710903
-1. 1.7320508075688787 -3.2659863237109024
2. 1.8541598622078155e-15 -3.265986323710904
0.9999999999999997 -1.7320508075688756 -3.2659863237109055
1.0000000000000002 0.5773502691896291 -4.898979485566356
-1.0000000000000004 0.5773502691896287 -4.898979485566356
-3.6893046413723133e-16 -1.1547005383792486 -4.8989794855663575
2.666666666666667 0.3849001794597502 2.7216552697590872
1.666666666666668 2.116950987028628 2.7216552697590877
2.6666666666666687 2.694301256218254 -0.5443310539518165
1.666666666666669 3.2716515254078793 1.0886621079036356
3.666666666666668 0.9622504486493764 -0.5443310539518171
3.666666666666667 -0.19245008972987554 1.088662107903635
4.333333333333336 2.501851166488378 0.5443310539518186
3.3333333333333353 3.0792014356780033 2.1773242158072708
4.333333333333334 1.3471506281091261 2.1773242158072703
-2.7247448713915894 -1.5731321849709863 1.0000000000000004
-1.724744871391589 -0.9957819157813603 2.6329931618554525
-2.72474487139159 0.41843164659173493 -1.8164965809277263
-1.7247448713915894 2.1504824541606125 -1.816496580927726
-1.0000000000000004 -2.568914100752347 -1.8164965809277263
0.9999999999999998 -2.5689141007523464 -1.816496580927726
1.2538062127422302e-16 1.9915638315627215 2.632993161855453
2.364029237367387e-16 3.1462643699419734 1.000000000000001
-5.2996598285221195 -0.08650434133128115 -0.061167806357426135
-5.966326495188786 1.4530963765077214 1.0274943015462081
1.72474487139159 -0.9957819157813605 2.6329931618554525
2.7247448713915903 -1.5731321849709863 1.0000000000000004
-2.574914957130531 1.4866278436397062 4.388321936425754
-4.241581623797197 2.448878292289083 3.8439908824739355
1.7247448713915896 2.1504824541606125 -1.8164965809277258
2.7247448713915894 0.4184316465917353 -1.816496580927726
-2.57491495713053 4.632892213581678 -0.06116780635742547
-4.241581623797197 4.440442123851803 1.0274943015462088
2.7247448713915903 -4.546387872250396 -0.06116780635742447
1.7247448713915903 -5.893538500359522 1.027494301546211
-3. -1.7320508075688774 3.3306690738754696e-16
-3. -0.5773502691896262 -1.632993161855452
-2. -2.3094010767585034 -1.6329931618554518
-1.0000000000000002 -0.5773502691896253 3.265986323710905
3.619640329862297e-16 1.154700538379252 3.265986323710905
1.0000000000000002 -0.5773502691896252 3.2659863237109055
-1. 2.886751345948129 -1.6329931618554516
3.759850377703471e-16 3.4641016151377553 1.1102230246251565e-16
1.0000000000000004 2.8867513459481295 -1.632993161855452
2.0000000000000004 -2.3094010767585034 -1.6329931618554523
3.000000000000001 -1.7320508075688774 -3.3306690738754696e-16
3.0000000000000004 -0.5773502691896257 -1.6329931618554525
-6.000000000000001 2.3094010767585043 1.632993161855451
-5.000000000000002 2.886751345948131 3.2659863237109032
-5.000000000000001 4.041451884327382 1.6329931618554512
3 0 1 2
3 3 4 5
3 6 7 8
3 9 10 11
4 4 1 2 5
4 7 1 0 8
4 10 2 0 11
4 3 4 7 6
4 10 5 3 9
4 11 8 6 9
3 7 1 4
3 10 2 5
3 11 0 8
3 9 3 6
3 12 1 13
3 14 4 15
3 16 7 17
3 18 19 20
4 13 1 4 15
4 12 1 7 17
4 14 4 7 16
4 19 13 12 20
4 19 15 14 18
4 20 17 16 18
3 7 1 4
3 19 13 15
3 20 12 17
3 18 14 16
3 21 2 22
3 23 5 24
3 25 10 26
3 27 28 29
4 5 2 22 24
4 21 2 10 26
4 28 22 21 29
4 23 5 10 25
4 23 24 28 27
4 29 26 25 27
3 10 2 5
3 28 22 24
3 29 21 26
3 27 23 25
3 30 0 31
3 32 8 33
3 34 11 35
3 36 37 38
4 8 0 31 33
4 11 0 30 35
4 37 31 30 38
4 32 8 11 34
4 32 33 37 36
4 34 35 38 36
3 11 0 8
3 37 31 33
3 38 30 35
3 36 32 34
3 39 3 40
3 41 6 42
3 43 9 44
3 45 46 47
4 6 3 40 42
4 9 3 39 44
4 46 40 39 47
4 41 6 9 43
4 46 42 41 45
4 47 44 43 45
3 9 3 6
3 46 40 42
3 47 39 44
3 45 41 43
3 48 1 2
3 49 4 5
4 4 1 2 5
4 48 1 4 49
4 5 2 48 49
3 50 1 0
3 51 7 8
4 7 1 0 8
4 50 1 7 51
4 8 0 50 51
3 52 2 0
3 53 10 11
4 10 2 0 11
4 52 2 10 53
4 11 0 52 53
3 54 4 3
3 55 7 6
4 3 4 7 6
4 54 4 7 55
4 6 3 54 55
3 56 13 12
3 57 19 20
4 19 13 12 20
4 19 13 56 57
4 20 12 56 57
3 58 5 3
3 59 10 9
4 10 5 3 9
4 58 5 10 59
4 9 3 58 59
3 60 15 14
3 61 19 18
4 19 15 14 18
4 60 15 19 61
4 18 14 60 61
3 62 8 6
3 63 11 9
4 11 8 6 9
4 62 8 11 63
4 62 6 9 63
3 64 17 16
3 65 20 18
4 20 17 16 18
4 64 17 20 65
4 18 16 64 65
3 66 26 25
3 67 29 27
4 29 26 25 27
4 66 26 29 67
4 27 25 66 67
3 68 1 2
3 69 1 0
3 70 2 0
3 70 68 69
3 0 1 2
3 69 1 68
3 70 2 68
3 70 0 69
3 71 4 5
3 72 4 3
3 73 5 3
3 73 71 72
3 3 4 5
3 72 4 71
3 73 5 71
3 73 3 72
3 74 7 8
3 75 7 6
3 76 8 6
3 76 74 75
3 6 7 8
3 75 7 74
3 76 8 74
3 76 6 75
3 77 10 11
3 78 10 9
3 79 11 9
3 79 77 78
3 9 10 11
3 78 10 77
3 79 11 77
3 79 9 78
3 80 19 20
3 81 19 18
3 82 20 18
3 82 80 81
3 18 19 20
3 81 19 80
3 82 20 80
3 82 18 81
# cell 1: 0 1 2 3 4 5 6 7 8 9 10 11 12 13
# cell 2: 14 15 16 17 18 19 20 21 22 23 24 25 26 27
# cell 3: 28 29 30 31 32 33 34 35 36 37 38 39 40 41
# cell 4: 42 43 44 45 46 47 48 49 50 51 52 53 54 55
# cell 5: 56 57 58 59 60 61 62 63 64 65 66 67 68 69
# cell 6: 70 71 72 73 74
# cell 7: 75 76 77 78 79
# cell 8: 80 81 82 83 84
# cell 9: 85 86 87 88 89
# cell 10: 90 91 92 93 94
# cell 11: 95 96 97 98 99
# cell 12: 100 101 102 103 104
# cell 13: 105 106 107 108 109
# cell 14: 110 111 112 113 114
# cell 15: 115 116 117 118 119
# cell 16: 120 121 122 123 124 125 126 127
# cell 17: 128 129 130 131 132 133 134 135
# cell 18: 136 137 138 139 140 141 142 143
# cell 19: 144 145 146 147 148 149 150 151
# cell 20: 152 153 154 155 156 157 158 159