OFF
# face-rotation BFS net; polygonal faces are preserved
# the cell decomposition is listed below as comments
146 160 0
-2. 5.590369150515235e-16 -2.4494897427831783
-3. 0.5773502691896263 -0.816496580927726
-3. -0.5773502691896253 0.8164965809277263
-2. -2.309401076758503 0.8164965809277263
-0.9999999999999998 -2.8867513459481287 -0.816496580927726
-0.9999999999999998 -1.732050807568877 -2.4494897427831783
1.0000000000000007 1.732050807568878 2.4494897427831783
-0.9999999999999996 1.7320508075688779 2.4494897427831783
-2. 5.793781429539174e-16 2.4494897427831783
-0.9999999999999998 -1.7320508075688772 2.4494897427831783
1.0000000000000007 -1.7320508075688772 2.4494897427831783
2.000000000000001 3.883427237792933e-16 2.4494897427831783
1.0000000000000007 2.8867513459481295 0.8164965809277264
-0.9999999999999996 2.8867513459481295 0.8164965809277263
-2. 2.309401076758504 -0.8164965809277259
-0.9999999999999998 1.7320508075688776 -2.4494897427831783
1.0000000000000009 1.7320508075688779 -2.4494897427831783
2.000000000000001 2.3094010767585034 -0.8164965809277258
3.000000000000001 -0.5773502691896256 0.8164965809277264
2.000000000000001 -2.3094010767585034 0.8164965809277263
1.0000000000000004 -2.886751345948129 -0.8164965809277259
1.0000000000000004 -1.7320508075688772 -2.4494897427831783
2.000000000000001 4.814421158530102e-16 -2.4494897427831783
3.000000000000001 0.5773502691896262 -0.8164965809277258
-6.333333333333335 0.19245008972987776 1.3608276348795452
-4.666666666666668 -0.7698003589194995 1.9051586888313619
-4.666666666666668 1.5396007178390039 -1.3608276348795427
-6.333333333333335 1.3471506281091297 -0.2721655269759069
-4.333333333333333 1.3471506281091288 4.626813958590449
-3.666666666666667 -0.1924500897298742 3.5381518506868135
-1.6666666666666652 3.2716515254078806 3.538151850686813
-3.333333333333332 3.079201435678006 4.626813958590448
-4.333333333333333 4.811252243246884 -0.2721655269759069
-3.6666666666666674 3.2716515254078806 -1.3608276348795423
-1.6666666666666652 4.426352063787132 1.9051586888313614
-3.333333333333332 5.38860251243651 1.3608276348795447
-4.999999999999999 4.041451884327383 4.082482904638632
-6. 2.309401076758506 4.082482904638632
-7.000000000000001 1.7320508075688803 2.44948974278318
-7.000000000000001 2.886751345948132 0.8164965809277283
-6. 4.618802153517009 0.8164965809277279
-4.999999999999999 5.196152422706636 2.44948974278318
-1.0000000000000004 -4.811252243246882 -1.3608276348795436
-3.0000000000000013 -3.656551704867629 1.9051586888313607
-3.0000000000000018 -5.581052602166382 1.3608276348795436
-2.0000000000000013 -6.158402871356008 -0.2721655269759087
2. -3.0792014356780046 3.5381518506868135
-2.000000000000001 -3.0792014356780033 3.5381518506868126
-1.0000000000000009 -4.426352063787131 4.626813958590448
0.9999999999999994 -4.426352063787132 4.626813958590448
2. -6.158402871356009 -0.27216552697590846
1.0000000000000002 -4.811252243246882 -1.3608276348795432
2.9999999999999996 -3.656551704867631 1.9051586888313616
2.9999999999999996 -5.581052602166383 1.360827634879544
0.9999999999999988 -7.505553499465135 0.8164965809277264
-1.0000000000000016 -7.505553499465135 0.8164965809277264
-2.000000000000002 -6.928203230275509 2.4494897427831783
-1.0000000000000016 -6.350852961085883 4.082482904638631
0.9999999999999988 -6.3508529610858835 4.082482904638631
1.999999999999999 -6.92820323027551 2.4494897427831788
-0.9999999999999999 -2.886751345948129 -4.0824829046386295
-3. 0.5773502691896263 -4.08248290463863
-3. -0.5773502691896255 -5.715476066494083
-1.9999999999999996 -2.3094010767585034 -5.715476066494083
2.000000000000001 2.309401076758504 -4.08248290463863
-2. 2.3094010767585034 -4.082482904638631
-0.9999999999999993 2.8867513459481295 -5.715476066494084
1.0000000000000009 2.8867513459481295 -5.715476066494083
3.000000000000001 0.5773502691896261 -4.08248290463863
1.0000000000000009 -2.8867513459481295 -4.0824829046386295
2.0000000000000013 -2.3094010767585034 -5.715476066494083
3.000000000000001 -0.5773502691896258 -5.715476066494082
1.000000000000001 1.7320508075688776 -7.348469228349535
-0.9999999999999994 1.7320508075688776 -7.348469228349536
-1.9999999999999996 2.4266630641339073e-17 -7.348469228349536
-0.9999999999999997 -1.7320508075688776 -7.348469228349535
1.000000000000001 -1.7320508075688776 -7.3484692283495345
2.0000000000000013 -5.574648607076933e-17 -7.348469228349535
3.666666666666666 -0.19245008972987598 3.538151850686813
1.6666666666666665 3.2716515254078797 3.5381518506868126
3.333333333333333 3.079201435678004 4.626813958590448
4.333333333333333 1.3471506281091261 4.626813958590448
3.6666666666666674 3.27165152540788 -1.3608276348795427
1.666666666666667 4.426352063787132 1.9051586888313612
3.333333333333334 5.388602512436508 1.360827634879544
4.333333333333334 4.811252243246882 -0.27216552697590823
4.666666666666668 1.539600717839002 -1.3608276348795427
4.666666666666667 -0.7698003589195022 1.905158688831361
6.333333333333334 0.1924500897298742 1.3608276348795436
6.333333333333334 1.3471506281091266 -0.27216552697590823
6. 4.618802153517006 0.816496580927727
5. 5.196152422706632 2.4494897427831788
5. 4.041451884327381 4.082482904638631
6. 2.3094010767585025 4.082482904638631
7. 1.7320508075688763 2.4494897427831788
7. 2.886751345948128 0.816496580927727
-3.72474487139159 -2.150482454160612 1.8164965809277265
-2.7247448713915894 -1.5731321849709858 3.4494897427831783
-3.7247448713915894 0.9957819157813611 -2.632993161855452
-2.72474487139159 2.727832723350238 -2.6329931618554525
-1.0000000000000002 -3.723614639131598 -2.632993161855452
1.0000000000000004 -3.7236146391315983 -2.632993161855452
6.485341556133602e-16 3.1462643699419726 3.4494897427831783
4.264895506883287e-16 4.300964908321225 1.8164965809277267
-7.966326495188788 0.2983958381284726 0.21099772061848654
-8.632993161855454 1.8379965559674758 1.299659828522122
2.7247448713915894 -1.5731321849709856 3.4494897427831783
3.7247448713915894 -2.1504824541606116 1.8164965809277263
-4.241581623797195 2.448878292289084 6.293480625257116
-5.908248290463862 3.411128740938461 5.749149571305299
2.7247448713915894 2.7278327233502386 -2.6329931618554516
3.7247448713915894 0.995781915781361 -2.6329931618554516
-4.241581623797194 6.749843200610308 0.21099772061848576
-5.908248290463861 6.557393110880433 1.2996598285221215
3.7247448713915894 -7.048239038738776 0.21099772061848487
2.7247448713915876 -8.395389666847901 1.29965982852212
-4. -2.3094010767585025 0.8164965809277265
-4.000000000000001 2.220446049250313e-16 -2.449489742783178
-2.0000000000000004 -3.4641016151377553 -2.449489742783178
-4.000000000000001 -3.464101615137755 -2.449489742783178
-5.000000000000002 -2.886751345948129 -0.8164965809277254
-5.000000000000002 -1.7320508075688774 -2.449489742783178
-2. -1.154700538379251 4.08248290463863
6.022975662960197e-16 2.309401076758504 4.08248290463863
2.000000000000001 -1.1547005383792512 4.08248290463863
1.0000000000000007 -0.5773502691896256 5.715476066494083
-0.9999999999999999 -0.5773502691896255 5.715476066494083
5.557946347998234e-16 1.1547005383792521 5.715476066494083
-1.9999999999999996 3.464101615137756 -2.4494897427831783
8.19458119180218e-16 4.618802153517008 0.8164965809277265
2.000000000000001 3.4641016151377553 -2.4494897427831774
1.0000000000000016 5.196152422706633 -2.449489742783178
-0.9999999999999988 5.196152422706634 -2.449489742783178
1.4342049504182829e-15 5.773502691896259 -0.8164965809277256
2. -3.4641016151377544 -2.4494897427831788
4.000000000000001 -2.309401076758503 0.8164965809277256
4. 1.7763568394002505e-15 -2.449489742783178
5. -1.7320508075688756 -2.449489742783179
4.000000000000001 -3.4641016151377535 -2.4494897427831797
5.000000000000001 -2.8867513459481273 -0.8164965809277273
-8.666666666666668 2.6943012562182576 1.905158688831364
-6.666666666666665 3.849001794597509 5.171145012542268
-6.666666666666665 6.158402871356012 1.9051586888313636
-8.333333333333332 5.965952781626138 2.9938207967349997
-9.333333333333334 4.233901974057261 2.9938207967349992
-8.333333333333332 4.811252243246885 4.626813958590452
6 0 1 2 3 4 5
6 6 7 8 9 10 11
6 12 13 14 15 16 17
6 18 19 20 21 22 23
4 8 2 3 9
4 14 1 0 15
4 20 4 5 21
4 13 7 6 12
4 19 10 11 18
4 22 16 17 23
6 7 8 2 1 14 13
6 20 4 3 9 10 19
6 16 15 0 5 21 22
6 17 12 6 11 18 23
6 24 25 2 1 26 27
6 28 29 8 7 30 31
6 32 33 14 13 34 35
6 36 37 38 39 40 41
4 25 2 8 29
4 26 1 14 33
4 30 7 13 34
4 38 24 27 39
4 37 28 31 36
4 40 32 35 41
6 7 8 2 1 14 13
6 38 24 25 29 28 37
6 39 27 26 33 32 40
6 36 31 30 34 35 41
6 42 4 3 43 44 45
6 46 10 9 47 48 49
6 50 51 20 19 52 53
6 54 55 56 57 58 59
4 9 3 43 47
4 42 4 20 51
4 45 44 56 55
4 46 10 19 52
4 49 48 57 58
4 54 50 53 59
6 20 4 3 9 10 19
6 56 44 43 47 48 57
6 50 51 42 45 55 54
6 53 52 46 49 58 59
6 60 5 0 61 62 63
6 64 16 15 65 66 67
6 68 22 21 69 70 71
6 72 73 74 75 76 77
4 15 0 61 65
4 21 5 60 69
4 74 62 63 75
4 64 16 22 68
4 67 66 73 72
4 71 70 76 77
6 16 15 0 5 21 22
6 74 62 61 65 66 73
6 70 69 60 63 75 76
6 71 68 64 67 72 77
6 78 11 6 79 80 81
6 82 17 12 83 84 85
6 86 23 18 87 88 89
6 90 91 92 93 94 95
4 12 6 79 83
4 18 11 78 87
4 92 80 81 93
4 23 17 82 86
4 91 84 85 90
4 94 88 89 95
6 17 12 6 11 18 23
6 92 80 79 83 84 91
6 88 87 78 81 93 94
6 89 86 82 85 90 95
3 96 2 3
3 97 8 9
4 8 2 3 9
4 96 2 8 97
4 9 3 96 97
3 98 1 0
3 99 14 15
4 14 1 0 15
4 98 1 14 99
4 15 0 98 99
3 100 4 5
3 101 20 21
4 20 4 5 21
4 100 4 20 101
4 21 5 100 101
3 102 7 6
3 103 13 12
4 13 7 6 12
4 102 7 13 103
4 12 6 102 103
3 104 24 27
3 105 38 39
4 38 24 27 39
4 104 24 38 105
4 39 27 104 105
3 106 10 11
3 107 19 18
4 19 10 11 18
4 106 10 19 107
4 18 11 106 107
3 108 28 31
3 109 37 36
4 37 28 31 36
4 108 28 37 109
4 36 31 108 109
3 110 16 17
3 111 22 23
4 22 16 17 23
4 110 16 22 111
4 23 17 110 111
3 112 32 35
3 113 40 41
4 40 32 35 41
4 112 32 40 113
4 41 35 112 113
3 114 50 53
3 115 54 59
4 54 50 53 59
4 114 50 54 115
4 59 53 114 115
3 116 2 3
3 117 1 0
3 118 4 5
3 119 120 121
6 0 1 2 3 4 5
6 120 116 2 1 117 121
6 118 4 3 116 120 119
6 118 5 0 117 121 119
3 122 8 9
3 123 7 6
3 124 10 11
3 125 126 127
6 6 7 8 9 10 11
6 126 122 8 7 123 127
6 124 10 9 122 126 125
6 124 11 6 123 127 125
3 128 14 15
3 129 13 12
3 130 16 17
3 131 132 133
6 12 13 14 15 16 17
6 132 128 14 13 129 133
6 130 16 15 128 132 131
6 130 17 12 129 133 131
3 134 20 21
3 135 19 18
3 136 22 23
3 137 138 139
6 18 19 20 21 22 23
6 138 134 20 19 135 139
6 136 22 21 134 138 137
6 136 23 18 135 139 137
3 140 38 39
3 141 37 36
3 142 40 41
3 143 144 145
6 36 37 38 39 40 41
6 144 140 38 37 141 145
6 142 40 39 140 144 143
6 142 41 36 141 145 143
# cell 1: 0 1 2 3 4 5 6 7 8 9 10 11 12 13
# cell 2: 14 15 16 17 18 19 20 21 22 23 24 25 26 27
# cell 3: 28 29 30 31 32 33 34 35 36 37 38 39 40 41
# cell 4: 42 43 44 45 46 47 48 49 50 51 52 53 54 55
# cell 5: 56 57 58 59 60 61 62 63 64 65 66 67 68 69
# cell 6: 70 71 72 73 74
# cell 7: 75 76 77 78 79
# cell 8: 80 81 82 83 84
# cell 9: 85 86 87 88 89
# cell 10: 90 91 92 93 94
# cell 11: 95 96 97 98 99
# cell 12: 100 101 102 103 104
# cell 13: 105 106 107 108 109
# cell 14: 110 111 112 113 114
# cell 15: 115 116 117 118 119
# cell 16: 120 121 122 123 124 125 126 127
# cell 17: 128 129 130 131 132 133 134 135
# cell 18: 136 137 138 139 140 141 142 143
# cell 19: 144 145 146 147 148 149 150 151
# cell 20: 152 153 154 155 156 157 158 159