OFF
# face-rotation BFS net; polygonal faces are preserved
# the cell decomposition is listed below as comments
891 672 0
-1.0000000000000009 0.5773502691896255 -3.3650439694243297
-2.414213562373096 1.3938468501173513 -2.210343431045078
-3.414213562373096 0.8164965809277251 -0.5773502691896254
-3.414213562373096 -0.8164965809277265 0.5773502691896265
-2.4142135623730963 -2.5485473884966034 0.5773502691896265
-1.000000000000001 -3.3650439694243293 -0.5773502691896254
-6.470853991243019e-16 -2.7876937002347035 -2.210343431045078
-6.470853991243019e-16 -1.1547005383792515 -3.3650439694243297
-1.1562099680310185e-15 1.154700538379251 3.3650439694243306
-1.7071067811865483 1.8020951405812142 2.5485473884966043
-3.1213203435596433 0.9855985596534881 1.3938468501173527
-0.7071067811865487 -3.1959419906985667 1.3938468501173527
0.7071067811865467 -2.379445409770841 2.5485473884966043
0.9999999999999993 -0.5773502691896261 3.3650439694243306
-9.341653631059872e-16 2.7876937002347035 2.2103434310450782
-0.7071067811865482 2.3794454097708404 -2.548547388496604
0.7071067811865476 3.1959419906985658 -1.3938468501173522
0.9999999999999998 3.365043969424329 0.5773502691896258
2.4142135623730936 -1.393846850117352 2.2103434310450782
1.7071067811865466 -1.802095140581215 -2.5485473884966034
3.121320343559642 -0.9855985596534889 -1.3938468501173522
3.414213562373094 -0.8164965809277261 0.5773502691896258
2.414213562373094 2.5485473884966034 -0.5773502691896261
3.414213562373094 0.8164965809277258 -0.5773502691896261
-7.771236166328255 -2.017893341315201 -1.1216813231414466
-6.4950937914128595 -2.820712915472511 0.1924500897298732
-4.690355937288494 -2.323078083528919 0.8962120181737594
-4.69035593728849 1.619316155085035 -1.8914816820609457
-6.495093791412854 1.1216813231414442 -2.595243610504832
-7.7712361663282525 -0.38490017945974897 -2.276381861520699
-5.49509379141286 1.6990315923310706 4.13484432834383
-3.9832491561019467 2.0275644455488986 2.8674091374807373
-6.202200572599409 -2.651610936746748 2.1636472090368515
-7.064129385141712 -1.6096450508513378 3.637209496400236
-6.77123616632826 0.19245008972987704 4.453706077327962
-7.064129385141705 3.965742349618069 -0.3051847422137215
-6.202200572599401 2.923776463722659 -1.7787470295771057
-5.495093791412859 3.3320247541865227 2.980143789964577
-6.771236166328254 4.134844328343831 1.666012377093257
-8.575974020452623 -0.3051847422137144 3.7499441488840755
-9.283080801639166 -0.7134330326775774 -1.0089466706576071
-10.145009614181468 0.32853285321783277 0.46461561670577717
-9.852116395368018 0.4976348319435956 2.435812736012756
-8.57597402045262 3.637209496400241 0.9622504486493706
-9.852116395368016 2.1306279937990475 1.2811121976335034
-2.2761423749153944 -6.185756884896838 -2.595243610504832
-0.942809041582062 -4.871625472025521 -1.8914816820609461
-4.3570226039551585 -2.900428352718547 0.8962120181737593
-5.690355937288491 -4.214559765589867 0.1924500897298731
-5.6331649788705525 -5.721141268191058 -1.121681323141447
-4.2189514164974575 -6.537637849118782 -2.2763818615206994
-1.2761423749153973 -5.608406615707218 4.13484432834383
-0.23570226039551656 -4.463377181561661 2.8674091374807373
-5.39746271847504 -4.045457786864105 2.1636472090368515
-4.926058197684007 -5.312892977727199 3.637209496400236
-3.21895141649746 -5.960287579929162 4.453706077327962
-0.09763107293781426 -8.100586677961896 -0.3051847422137217
-0.5690355937288469 -6.833151487098802 -1.7787470295771062
0.13807118745769875 -6.4249031966349435 2.980143789964577
0.19526214587563695 -7.931484699236135 1.666012377093257
-4.787987010226306 -8.950102474127434 0.46461561670577717
-5.259391531017338 -7.682667283264339 -1.0089466706576071
-4.552284749830792 -7.274418992800481 3.7499441488840755
-4.495093791412854 -8.781000495401672 2.4358127360127555
-1.1380711874576952 -9.245616112107454 0.9622504486493706
-3.0808802290397583 -9.597497076329397 1.2811121976335034
-2.276142374915393 -0.38490017945975685 -6.697068723610848
-0.9428090415820611 -0.15943087449207116 -5.223506436247462
-4.3570226039551585 1.811766244814909 -2.435812736012763
-5.690355937288491 1.5862969398472233 -3.909375023376149
-5.633164978870552 0.849515796165528 -5.767837490199284
-4.218951416497456 0.033019215237800825 -6.922538028578534
-1.2761423749153966 5.76783749019928 -3.9093750233761515
-0.23570226039551612 4.19121165458575 -3.25230931694049
-5.397462718475039 3.3883920804284395 -3.0928784424484252
-4.926058197684007 5.200158325243349 -3.7966403708923115
-3.2189514164974597 6.185756884896838 -4.134844328343838
-0.09763107293781381 2.4124646250086417 -7.739034609506261
-0.5690355937288456 0.6006983801937316 -7.035272681062374
0.13807118745769964 4.951340909271552 -5.064075561755402
0.1952621458756374 4.214559765589859 -6.922538028578536
-4.7879870102263045 3.421411295666241 -8.283365663458081
-5.259391531017336 1.6096450508513307 -7.579603735014196
-4.5522847498307915 5.960287579929151 -5.608406615707223
-4.495093791412853 5.223506436247456 -7.4668690825303585
-1.1380711874576945 3.9890904606221715 -8.396100315941922
-3.0808802290397574 4.407009855319729 -8.621569620909607
-1.471404520791035 -1.7787470295770968 -6.69706872361085
-0.6094757082487325 -0.7367811436816889 -5.2235064362474635
-0.6094757082487319 -4.6791753822956474 -2.435812736012764
-1.4714045207910345 -5.721141268191056 -3.9093750233761506
-2.080880229039765 -5.303221873493493 -5.767837490199286
-2.080880229039766 -3.67022871163804 -6.922538028578535
4.357022603955155 -3.989090460622178 -3.9093750233761524
3.5118446353109105 -2.2997299725248066 -3.2523093169404906
0.23570226039551345 -6.3685358703930195 -3.0928784424484266
2.040440114519878 -6.866170702336612 -3.7966403708923124
3.7475468957064253 -5.880572142683123 -4.1348443283438385
4.357022603955155 -2.3560972987667252 -5.064075561755402
0.23570226039551267 -0.7931484699236075 -7.035272681062375
2.040440114519877 -1.290783301867199 -7.739034609506261
3.747546895706424 -1.938177904069164 -6.922538028578537
0.569035593728844 -5.857224031679005 -8.283365663458083
-1.2357022603955201 -5.359589199735413 -7.579603735014198
2.8856180831641227 -6.92253802857853 -5.608406615707224
2.276142374915392 -6.50461863388097 -7.46686908253036
2.8856180831641223 -2.9801437899645715 -8.396100315941924
2.2761423749153913 -4.871625472025515 -8.621569620909609
-0.23570226039551412 0.7931484699236084 7.035272681062375
0.6094757082487303 0.7367811436816893 5.223506436247464
-3.5118446353109127 2.2997299725248066 3.2523093169404906
-4.357022603955157 2.356097298766726 5.064075561755402
-3.7475468957064257 1.9381779040691647 6.922538028578538
-2.0404401145198783 1.2907833018672004 7.739034609506261
-0.2357022603955149 6.3685358703930195 3.092878442448425
0.6094757082487299 4.6791753822956474 2.435812736012764
-4.357022603955157 3.98909046062218 3.9093750233761515
-3.747546895706426 5.880572142683123 4.134844328343837
-2.0404401145198787 6.866170702336612 3.7966403708923107
2.080880229039764 3.6702287116380408 6.9225380285785345
1.4714045207910331 1.7787470295770968 6.69706872361085
1.4714045207910327 5.721141268191056 3.9093750233761493
2.0808802290397637 5.303221873493495 5.767837490199284
-2.276142374915392 4.871625472025517 8.621569620909607
-2.885618083164123 2.980143789964573 8.396100315941924
-2.8856180831641236 6.922538028578531 5.6084066157072225
-2.276142374915392 6.5046186338809715 7.466869082530357
1.2357022603955192 5.359589199735414 7.579603735014196
-0.5690355937288449 5.857224031679006 8.283365663458083
-7.410942756648328 -1.1903903553082047 -5.865006735347055
-7.62199774960518 -0.042137219751417376 -4.241131578005214
-7.621997749605186 -3.984531458365373 -1.4534378777705093
-7.410942756648334 -5.13278459392216 -3.07731303511235
-7.261704339925263 -4.790021634213828 -5.042062751596864
-7.26170433992526 -3.157028472358377 -6.196763289976117
-12.572703214727857 -2.312071678449645 -1.5377123172733533
-11.271913572373796 -0.8352856896750283 -1.1812723507946044
-8.922787391959249 -5.461317447139988 -1.8098778442492582
-10.911620162693877 -5.58317010413744 -1.982203524386255
-12.423464798004789 -4.278709795499817 -1.8694688719024144
-12.572703214727854 -0.6790785165941924 -2.6924128556526052
-8.92278739195924 0.11406995332941872 -5.752272082863215
-10.91162016269387 -0.007782703668032909 -5.924597763000212
-12.423464798004783 -0.3363155568858618 -4.6571625721371195
-12.212409805047937 -5.426962931056604 -3.493344029244256
-8.562493982279321 -4.633814461132992 -6.553203256454865
-10.551326753013951 -4.755667118130445 -6.725528936591861
-12.063171388324864 -5.084199971348275 -5.458093745728769
-12.21240980504793 -1.4845686924426489 -6.28103772947896
-12.063171388324863 -3.451206809492821 -6.612794284108022
0.5690355937288456 -0.6006983801937338 7.0352726810623745
0.94280904158206 0.15943087449206894 5.2235064362474635
0.23570226039551478 -4.191211654585752 3.2523093169404906
-0.13807118745769964 -4.951340909271553 5.064075561755402
-0.1952621458756374 -4.2145597655898595 6.922538028578537
0.09763107293781426 -2.4124646250086443 7.739034609506261
5.397462718475038 -3.38839208042844 3.092878442448424
4.357022603955158 -1.81176624481491 2.435812736012763
1.276142374915396 -5.767837490199281 3.909375023376152
3.2189514164974597 -6.185756884896839 4.134844328343837
4.926058197684006 -5.20015832524335 3.79664037089231
5.690355937288489 -1.586296939847224 3.909375023376148
2.2761423749153926 0.3849001794597551 6.697068723610848
4.218951416497457 -0.0330192152378026 6.922538028578533
5.633164978870552 -0.8495157961655293 5.767837490199283
3.0808802290397588 -4.407009855319732 8.621569620909607
1.1380711874576954 -3.9890904606221733 8.396100315941922
4.552284749830792 -5.960287579929152 5.608406615707222
4.495093791412854 -5.223506436247458 7.466869082530357
5.259391531017338 -1.6096450508513322 7.579603735014194
4.787987010226306 -3.4214112956662426 8.283365663458081
-5.370502642128462 -0.012341705924840518 7.867334669326176
-6.0697129997743975 0.8540747984223422 6.20588129448972
-6.776819780960946 -3.4965677306554763 4.234684175182744
-6.0776094233150095 -4.362984235002658 5.8961375500192
-5.376086256761148 -3.7013595263101937 7.648312767180958
-5.083193037947696 -1.899264385728979 8.464809348108684
-11.532263100207985 -1.7113732982559062 5.464541148551216
-10.426735603729556 -0.3473219619651322 4.506849702158647
-7.882347277439375 -4.860619066946251 5.192375621575314
-9.733108860716307 -4.902756286697668 5.949281174849885
-11.244953496027218 -3.5982959780600456 6.062015827333724
-11.23936988139453 0.09072184232530844 6.281037729478943
-6.882347277439374 1.2921186027127831 7.980069321810016
-8.733108860716307 1.2499813829613644 8.736974875084588
-10.53784671484067 0.7523465510177734 8.0332129466407
-10.545743138381283 -4.4647124824072275 7.723469202170181
-6.188720534426124 -3.263315722019753 9.422500794501254
-8.039482117703056 -3.305452941771171 10.179406347775824
-9.844219971827421 -3.803087773714763 9.475644419331939
-9.838636357194734 -0.11406995332940939 9.694666321477158
-9.551326753013969 -2.0009926331335475 10.292141000259663
0.5690355937288447 6.833151487098799 1.7787470295771088
0.94280904158206 4.871625472025517 1.8914816820609475
0.23570226039551612 4.463377181561662 -2.867409137480736
-0.1380711874576992 6.424903196634943 -2.9801437899645746
-0.19526214587563695 7.931484699236134 -1.6660123770932536
0.09763107293781337 8.100586677961894 0.30518474221372516
5.3974627184750394 4.045457786864104 -2.1636472090368493
4.3570226039551585 2.900428352718546 -0.8962120181737582
1.2761423749153973 5.60840661570722 -4.134844328343827
3.2189514164974606 5.960287579929163 -4.453706077327959
4.926058197684008 5.3128929777272 -3.637209496400233
5.690355937288489 4.214559765589864 -0.19245008972987054
2.2761423749153917 6.1857568848968345 2.595243610504835
4.218951416497456 6.537637849118778 2.276381861520703
5.633164978870552 5.721141268191055 1.1216813231414502
3.080880229039758 9.597497076329397 -1.2811121976334978
1.1380711874576948 9.245616112107452 -0.9622504486493658
4.552284749830792 7.274418992800481 -3.7499441488840715
4.495093791412854 8.781000495401672 -2.43581273601275
5.259391531017337 7.682667283264336 1.008946670657612
4.787987010226305 8.950102474127432 -0.46461561670577173
-5.37050264212845 7.421508161367701 2.6108090178408982
-6.069712999774391 5.566269395955798 2.8738565403031964
-6.776819780960933 5.158021105491931 -1.8850342792384858
-6.077609423314993 7.013259870903835 -2.148081801700784
-5.3760862567611305 8.4446849385158 -0.940237638490844
-5.08319303794768 8.613786917241566 1.030959480816134
-11.532263100207972 5.722476569036635 0.2080154970659388
-10.426735603729547 4.3648726355683225 1.1748249479721231
-7.882347277439357 6.515625038960243 -2.85184373014467
-9.733108860716289 7.243288178128326 -2.6392692308219172
-11.244953496027202 6.914755324910499 -1.3718340399588254
-11.239369881394522 5.891578547762399 2.179212616372917
-6.882347277439365 7.092975308149874 3.87824420870399
-8.733108860716296 7.820638447317957 4.0908187080267435
-10.53784671484066 7.323003615374365 3.387056779582857
-10.545743138381262 8.7699940903224 -1.6348815624211235
-6.188720534426104 9.971390850709877 0.06415002990994945
-8.039482117703034 10.69905398987796 0.27672452923270213
-9.8442199718274 10.201419157934367 -0.4270373992111838
-9.83863635719472 9.178242380786267 3.124009257120558
-9.55132675301395 10.370521136660132 1.5441597200957942
6.202200572599398 -2.9237764637226586 1.7787470295771066
4.690355937288487 -1.6193161550850357 1.8914816820609466
3.983249156101945 -2.027564445548899 -2.867409137480736
5.495093791412857 -3.332024754186522 -2.9801437899645764
6.771236166328252 -4.134844328343833 -1.6660123770932556
7.064129385141701 -3.9657423496180693 0.3051847422137226
6.2022005725994065 2.651610936746748 -2.16364720903685
4.690355937288492 2.323078083528919 -0.8962120181737587
5.4950937914128595 -1.6990315923310704 -4.134844328343828
6.771236166328257 -0.19245008972987748 -4.45370607732796
7.06412938514171 1.609645050851337 -3.6372094964002346
6.495093791412856 2.820712915472511 -0.19245008972987232
6.495093791412851 -1.1216813231414442 2.595243610504833
7.771236166328249 0.38490017945974886 2.2763818615207003
7.771236166328251 2.017893341315201 1.121681323141448
9.852116395368014 -2.130627993799047 -1.2811121976335018
8.575974020452616 -3.6372094964002404 -0.962250448649369
8.575974020452621 0.30518474221371417 -3.749944148884074
9.852116395368016 -0.49763483194359537 -2.435812736012754
9.283080801639162 0.7134330326775777 1.0089466706576085
10.145009614181467 -0.32853285321783254 -0.46461561670577556
3.741963281073745 -8.361745799858536 2.610809017840899
1.7856742013183893 -8.039660349463173 2.873856540303197
1.0785674201318418 -8.44790863992703 -1.8850342792384853
3.0348564998871983 -8.769994090322395 -2.1480818017007834
4.62526855532995 -8.878169740549431 -0.9402376384908427
4.918161774143401 -8.709067761823672 1.0309594808161353
-0.8103214687570448 -12.848471092424308 0.20801549706593958
-1.4332772151790696 -11.212254229157626 1.1748249479721236
1.7015231665538666 -10.084125503193713 -2.8518437301446693
1.4063171388324918 -12.050763620243885 -2.6392692308219163
0.36587702431261127 -13.195793054389442 -1.3718340399588245
-0.5174282499435927 -12.679369113698549 2.1792126163729177
2.7015231665538653 -9.506775234004095 3.8782442087039914
2.4063171388324904 -11.473413351054267 4.090818708026744
1.0729838054991578 -12.787544763925585 3.387056779582858
2.322166104067968 -13.517878504784807 -1.6348815624211221
5.541117520565427 -10.345284625090354 0.06415002990995144
5.245911492844051 -12.311922742140526 0.2767245292327045
3.9125781595107196 -13.626054155011843 -0.4270373992111821
3.0292728852545148 -13.10963021432095 3.1240092571205604
4.205471378324171 -13.456952176286084 1.5441597200957964
-12.559223176554566 -1.0653139968995196 4.407009855319734
-10.852116395368018 -0.07971543724603047 4.068805897868208
-11.559223176554566 -0.48796372770989316 -0.6900849216734743
-13.266329957741114 -1.4735622873633827 -0.3518809642219487
-14.266329957741114 -2.050912556553009 1.281112197633504
-13.97343673892766 -1.8818105778272458 3.2523093169404818
-12.559223176554568 4.510073403569888 0.46461561670577733
-10.852116395368018 3.8626788013679247 1.2811121976335031
-13.266329957741114 0.15943087449207005 -1.506581502601201
-14.266329957741116 1.8914816820609475 -1.506581502601201
-13.973436738927663 3.693576822642162 -0.6900849216734743
-12.266329957741114 4.679175382295651 2.435812736012755
-12.266329957741112 0.7367811436816953 5.223506436247459
-13.266329957741114 2.4688319512505723 5.22350643624746
-13.266329957741114 4.101825113106024 4.068805897868208
-16.68054352011421 0.49763483194359504 2.4358127360127555
-15.68054352011421 -1.2344159756252826 2.4358127360127555
-15.68054352011421 2.7079782629886733 -0.35188096422194914
-16.68054352011421 2.130627993799047 1.2811121976335036
-14.973436738927662 3.1162265534525364 4.407009855319733
-16.387650301300756 2.29972997252481 3.2523093169404818
-7.202200572599402 -10.34394932424479 4.407009855319731
-5.495093791412856 -9.3583507645913 4.068805897868208
-6.202200572599402 -9.76659905505516 -0.6900849216734757
-7.909307353785948 -10.752197614708649 -0.35188096422195136
-8.909307353785948 -11.329547883898277 1.2811121976335
-8.616414134972496 -11.160445905172516 3.252309316940478
-2.3737734478532104 -13.131643024479489 0.464615616705774
-2.0808802290397588 -11.329547883898273 1.2811121976335018
-6.495093791412853 -11.568694195636374 -1.5065815026012042
-5.4950937914128515 -13.300745003205252 -1.5065815026012055
-3.7879870102263045 -13.948139605407215 -0.6900849216734792
-2.0808802290397588 -12.962541045753728 2.4358127360127524
-5.495093791412856 -10.991343926446755 5.223506436247457
-4.495093791412854 -12.723394734015631 5.223506436247456
-3.0808802290397588 -13.539891314943356 4.068805897868204
-5.4950937914128515 -14.933738165060705 -0.3518809642219549
-8.909307353785948 -12.96254104575373 2.43581273601275
-7.909307353785946 -14.694591853322608 2.435812736012749
-6.495093791412852 -15.511088434250333 1.2811121976334965
-4.787987010226305 -14.525489874596845 4.407009855319728
-6.2022005725994 -15.341986455524571 3.252309316940475
3.7419632810737444 5.248742947817232 -7.013259870903836
1.7856742013183877 5.38938471356199 -6.621912288621623
1.0785674201318436 1.0387421844841702 -8.593109407928596
3.0348564998871996 0.8981004187394115 -8.98445699021081
4.625268555329951 2.072925366711545 -8.683831250253897
4.918161774143402 3.8750205072927604 -7.867334669326173
-0.8103214687570426 4.4789425888977235 -12.044316217421429
-1.4332772151790687 4.845053659610167 -10.179406347775831
1.701523166553869 0.6726311137717258 -10.458019277574195
1.406317138832495 1.5285943127597212 -12.241325309408104
0.36587702431261504 3.1052201483732516 -12.898391015843766
-0.5174282499435918 6.281037729478939 -11.227819636493704
2.701523166553864 6.825368783430761 -7.670325577339497
2.40631713883249 7.681331982418758 -9.453631609173407
1.0729838054991585 7.455862677451072 -10.927193896536792
2.3221661040679717 2.964578382628492 -13.289738598125979
5.541117520565427 3.508909436580315 -9.732244538971772
5.245911492844053 4.364872635568311 -11.515550570805681
3.9125781595107227 4.139403330600625 -12.989112858169067
3.0292728852545157 7.315220911706312 -11.318541478819006
4.205471378324173 5.941498471181841 -12.172616277241342
-7.202200572599404 7.6029518460182945 -8.283365663458095
-5.495093791412857 6.955557243816333 -7.466869082530366
-6.2022005725993985 2.6049147147385097 -9.438066201837332
-7.9093073537859455 3.2523093169404698 -10.254562782765062
-8.909307353785948 4.9843601245093465 -10.254562782765067
-8.616414134972496 6.786455265090564 -9.438066201837348
-2.373773447853206 4.815258145783583 -12.225759902072037
-2.080880229039756 4.98436012450935 -10.254562782765058
-6.495093791412849 2.4358127360127404 -11.409263321144309
-5.495093791412846 3.013163005202362 -13.042256482999761
-3.787987010226299 3.998761564855852 -13.380460440451287
-2.0808802290397552 6.6173532863648 -11.409263321144316
-5.495093791412857 8.588550405671782 -8.621569620909622
-4.495093791412854 9.165900674861405 -10.254562782765074
-3.080880229039757 8.349404093933675 -11.409263321144321
-5.495093791412846 4.6461561670578115 -14.196957021379017
-8.909307353785946 6.617353286364795 -11.409263321144325
-7.909307353785945 7.194703555554417 -13.042256482999777
-6.495093791412848 6.378206974626688 -14.196957021379024
-4.787987010226304 8.996798696135636 -12.225759902072053
-6.202200572599398 8.180302115207907 -13.380460440451301
5.476030138606879 6.249906914806799 4.657162572137111
3.4871973678722497 6.371759571804251 4.829488252274106
3.4871973678722514 2.429365333190293 7.6171819525088065
5.47603013860688 2.3075126761928413 7.444856272371811
6.882347277439367 3.376050374503597 6.506507034446632
6.882347277439367 5.00904353635905 5.351806496067382
2.590412055442755 6.442357004536667 10.842919457033954
1.44675725335237 6.5078423352921995 9.203478892356038
4.630852169962635 2.3638800024347595 9.256622517186722
4.841907162919488 3.512133137991546 10.880497674528565
3.996729194275242 5.201493626088919 11.537563380964226
2.5904120554427545 8.07535016639212 9.688218918654703
4.630852169962633 7.9392674029041705 5.31422827857277
4.841907162919486 9.087520538460957 6.938103435914613
3.9967291942752405 9.143887864702876 8.749869680729525
5.985561965009872 5.079640969091467 11.36523770082723
8.02600207952975 4.943558205603517 6.991247060745297
8.237057072486602 6.091811341160303 8.615122218087139
7.391879103842358 6.148178667402222 10.42688846290205
5.985561965009869 9.022035207705425 8.577544000592528
7.391879103842356 7.781171829257676 9.2721879245228
2.9832491561019383 -10.038764582031062 -8.283365663458092
3.276142374915392 -8.236669441449848 -7.466869082530362
-0.845177968644252 -6.673720612606729 -9.438066201837335
-1.1380711874577054 -8.475815753187943 -10.254562782765063
-0.13807118745770586 -10.20786656075682 -10.254562782765067
1.5690355937288425 -10.855261162958787 -9.438066201837344
2.983249156101937 -4.463377181561647 -12.225759902072038
3.2761423749153904 -4.2942752028358875 -10.254562782765062
-1.1380711874577063 -6.842822591332489 -11.409263321144314
-0.13807118745770675 -6.265472322142861 -13.042256482999765
1.5690355937288407 -5.2798737624893715 -13.38046044045129
4.690355937288485 -5.110771783763612 -11.409263321144316
4.690355937288487 -9.053166022377573 -8.621569620909618
5.690355937288485 -8.475815753187945 -10.254562782765069
5.690355937288484 -6.8428225913324905 -11.40926332114432
1.2761423749153877 -7.081968903070585 -14.196957021379019
1.2761423749153886 -11.024363141684546 -11.409263321144321
2.2761423749153873 -10.447012872494918 -13.042256482999774
2.2761423749153873 -8.814019710639464 -14.196957021379022
5.397462718475031 -8.644917731913704 -12.225759902072047
3.983249156101935 -9.461414312841429 -13.3804604404513
-4.690355937288486 9.053166022377573 8.621569620909613
-3.276142374915392 8.236669441449846 7.466869082530359
-3.2761423749153917 4.294275202835889 10.25456278276506
-4.690355937288485 5.110771783763614 11.409263321144314
-5.690355937288485 6.842822591332491 11.409263321144316
-5.690355937288486 8.475815753187945 10.254562782765065
1.1380711874577045 6.842822591332491 11.409263321144312
0.8451779686442507 6.673720612606729 9.438066201837334
-2.9832491561019383 4.4633771815616505 12.225759902072038
-1.569035593728843 5.279873762489375 13.38046044045129
0.13807118745770497 6.265472322142864 13.042256482999765
1.1380711874577036 8.475815753187945 10.254562782765062
-2.9832491561019387 10.038764582031062 8.283365663458088
-1.5690355937288434 10.855261162958787 9.438066201837339
0.13807118745770453 10.207866560756823 10.254562782765063
-1.2761423749153895 7.08196890307059 14.196957021379017
-5.397462718475032 8.644917731913706 12.225759902072044
-3.9832491561019365 9.461414312841432 13.380460440451296
-2.2761423749153895 8.814019710639467 14.19695702137902
-1.27614237491539 11.024363141684548 11.409263321144318
-2.27614237491539 10.44701287249492 13.04225648299977
5.495093791412858 -8.588550405671786 8.621569620909618
5.495093791412858 -6.955557243816335 7.466869082530364
2.080880229039758 -4.984360124509353 10.254562782765058
2.0808802290397583 -6.617353286364803 11.409263321144312
3.080880229039759 -8.349404093933678 11.40926332114432
4.495093791412856 -9.165900674861408 10.25456278276507
6.49509379141285 -2.435812736012745 11.409263321144309
6.202200572599399 -2.6049147147385123 9.438066201837332
2.373773447853208 -4.815258145783586 12.225759902072035
3.7879870102263014 -3.9987615648558563 13.380460440451287
5.495093791412849 -3.0131630052023675 13.042256482999761
7.909307353785947 -3.2523093169404733 10.25456278276506
7.202200572599406 -7.602951846018296 8.283365663458094
8.616414134972498 -6.7864552650905665 9.438066201837344
8.909307353785948 -4.98436012450935 10.254562782765067
5.49509379141285 -4.646156167057817 14.196957021379017
4.787987010226306 -8.99679869613564 12.225759902072049
6.2022005725994 -8.18030211520791 13.3804604404513
6.495093791412851 -6.378206974626694 14.19695702137902
8.909307353785948 -6.617353286364799 11.409263321144323
7.909307353785948 -7.194703555554422 13.042256482999774
5.495093791412857 10.99134392644676 -5.223506436247448
5.495093791412856 9.358350764591304 -4.0688058978682
2.080880229039757 11.329547883898273 -1.2811121976334943
2.0808802290397574 12.962541045753728 -2.4358127360127417
3.080880229039759 13.539891314943358 -4.068805897868192
4.495093791412856 12.723394734015637 -5.223506436247445
6.495093791412849 11.56869419563637 1.5065815026012144
6.2022005725993985 9.766599055055156 0.6900849216734832
2.3737734478532073 13.131643024479486 -0.4646156167057631
3.787987010226302 13.94813960540721 0.6900849216734921
5.495093791412849 13.300745003205247 1.5065815026012184
7.909307353785946 10.752197614708647 0.351880964221962
7.202200572599404 10.343949324244795 -4.407009855319722
8.616414134972496 11.16044590517252 -3.252309316940466
8.909307353785946 11.329547883898277 -1.2811121976334872
5.495093791412849 14.933738165060701 0.35188096422197135
4.787987010226306 14.525489874596849 -4.407009855319713
6.2022005725994 15.341986455524573 -3.2523093169404578
6.495093791412851 15.511088434250333 -1.2811121976334792
8.909307353785946 12.962541045753733 -2.435812736012735
7.909307353785946 14.69459185332261 -2.4358127360127315
12.26632995774111 -0.7367811436816948 -5.223506436247457
10.852116395368014 0.07971543724603047 -4.068805897868206
10.852116395368016 -3.8626788013679247 -1.2811121976335011
12.26632995774111 -4.67917538229565 -2.4358127360127524
13.266329957741112 -4.101825113106025 -4.068805897868204
13.266329957741112 -2.4688319512505728 -5.223506436247456
13.266329957741108 -0.15943087449206916 1.506581502601204
11.55922317655456 0.4879637277098938 0.6900849216734768
12.559223176554562 -4.510073403569887 -0.46461561670577445
13.973436738927658 -3.6935768226421617 0.6900849216734777
14.266329957741108 -1.8914816820609466 1.506581502601204
13.266329957741108 1.4735622873633833 0.35188096422195203
12.559223176554562 1.0653139968995202 -4.40700985531973
13.973436738927656 1.8818105778272465 -3.252309316940478
14.266329957741108 2.0509125565530093 -1.2811121976335
15.680543520114206 -2.707978262988672 0.3518809642219529
14.973436738927658 -3.116226553452535 -4.40700985531973
16.387650301300752 -2.299729972524809 -3.252309316940477
16.680543520114206 -2.1306279937990458 -1.281112197633499
15.680543520114206 1.2344159756252833 -2.4358127360127515
16.680543520114206 -0.4976348319435939 -2.4358127360127506
-19.76142374915398 2.435812736012763 -0.7367811436816938
-17.956685895029615 2.9334475679563567 -0.03301921523781193
-17.956685895029604 -1.0089466706576002 2.754674484996891
-19.76142374915397 -1.5065815026011935 2.0509125565530097
-21.03756612406937 -0.7037619284438847 0.7367811436816942
-21.037566124069375 0.9292312334115689 -0.4179193946975577
-18.761423749153966 3.0131630052023874 5.993306795166966
-17.24957911384306 3.3416958584202185 4.725871604303869
-19.468530530340516 -1.337479523875431 4.022109675859987
-20.330459342882815 -0.2955136379800225 5.4956719632233755
-20.03756612406936 1.5065815026011928 6.312168544151101
-18.76142374915397 4.64615616705784 4.838606256787713
-19.468530530340526 4.237907876593978 0.07971543724603247
-20.330459342882826 5.279873762489387 1.55327772460942
-20.03756612406937 5.448975741215149 3.5244748439163978
-21.842303978193726 1.0089466706575996 5.608406615707221
-22.549410759380287 0.6006983801937376 0.8495157961655389
-23.411339571922582 1.6426642660891462 2.323078083528926
-23.118446353109128 1.811766244814909 4.2942752028359035
-21.842303978193737 4.951340909271556 2.820712915472517
-23.11844635310913 3.4447594066703613 3.1395746644566525
-4.414213562373098 -2.548547388496604 0.5773502691896253
-4.414213562373096 1.393846850117351 -2.2103434310450782
-1.0000000000000018 -4.519744507803582 -2.2103434310450787
-5.828427124746192 -4.51974450780358 -2.2103434310450796
-5.828427124746192 -3.3650439694243293 -0.5773502691896271
-6.828427124746192 -2.787693700234704 -2.210343431045079
-1.0000000000000004 -0.5773502691896253 -4.998037131279783
-5.82842712474619 -0.5773502691896253 -4.998037131279783
-5.828427124746191 0.5773502691896262 -3.36504396942433
-6.828427124746192 -1.1547005383792515 -3.365043969424331
-3.4142135623730967 -4.75889081954168 -4.9980371312797836
-2.4142135623730967 -5.336241088731306 -3.365043969424331
-4.414213562373097 -5.336241088731306 -3.365043969424331
-3.414213562373096 -3.125897657686228 -6.152737669659036
-2.4142135623730954 -1.393846850117351 -6.152737669659035
-4.414213562373095 -1.3938468501173509 -6.152737669659036
-4.328427124746192 -2.499018565639891 1.1547005383792537
-3.6213203435596433 1.851623963437927 3.125897657686231
-0.20710678118654968 -4.0619673944830055 3.125897657686232
-4.828427124746192 -3.9423942386139545 4.519744507803584
-5.328427124746192 -3.076368834829517 2.7876937002347066
-5.828427124746192 -2.210343431045078 4.519744507803585
0.49999999999999867 0.28867513459481264 5.097094776993209
-4.121320343559644 0.4082482904638636 6.490941627110561
-4.621320343559644 1.2742736942483026 4.7588908195416835
-5.535533905932739 -0.4082482904638627 5.3362410887313105
-1.7071067811865492 -3.7732922598881924 6.490941627110562
-1.2071067811865495 -4.639317663672631 4.758890819541684
-3.1213203435596437 -4.589788840815918 5.3362410887313105
-1.4142135623730965 -1.9711971193069773 7.307438208038287
-0.5000000000000011 -0.28867513459481264 6.730087938848661
-2.4142135623730963 -0.23914631173809964 7.3074382080382865
-4.328427124746191 1.9216682964502647 -1.9711971193069773
-3.6213203435596433 2.329916586914127 2.7876937002347053
-0.2071067811865488 4.3011137062211064 -2.787693700234704
-4.828427124746192 5.575387400469408 -2.210343431045077
-5.328427124746191 3.653719104019143 -1.9711971193069766
-5.828427124746192 4.998037131279781 -0.5773502691896245
0.49999999999999867 4.709361996684968 1.971197119306978
-4.121320343559643 5.98363569093327 2.5485473884966052
-4.621320343559643 4.061967394483005 2.7876937002347053
-5.535533905932738 5.167139110005544 1.3938468501173538
-1.707106781186549 7.377482541050622 -1.3938468501173513
-1.2071067811865488 6.033164513789983 -2.7876937002347035
-3.1213203435596437 6.560985960122897 -2.5485473884966026
-1.4142135623730963 7.546584519776385 0.5773502691896266
-0.5000000000000011 6.441412804253846 1.9711971193069786
-2.414213562373096 6.9692342505867595 2.2103434310450796
-0.5000000000000004 -4.70936199668497 -1.9711971193069773
0.20710678118654657 -4.301113706221106 2.7876937002347053
3.6213203435596424 -2.3299165869141287 -2.7876937002347035
2.4142135623730954 -6.96923425058676 -2.2103434310450765
0.5000000000000002 -6.441412804253847 -1.9711971193069766
1.4142135623730958 -7.546584519776386 -0.5773502691896241
4.32842712474619 -1.9216682964502647 1.971197119306978
3.121320343559642 -6.5609859601228955 2.5485473884966052
1.2071067811865468 -6.033164513789983 2.7876937002347058
1.7071067811865475 -7.3774825410506235 1.3938468501173538
5.535533905932738 -5.167139110005545 -1.393846850117351
4.621320343559643 -4.0619673944830055 -2.7876937002347035
4.121320343559643 -5.983635690933271 -2.5485473884966026
5.82842712474619 -4.998037131279782 0.577350269189627
5.32842712474619 -3.653719104019142 1.9711971193069786
4.828427124746188 -5.575387400469406 2.2103434310450796
-7.604569499661588 -4.005600068241083 -0.9759274554197956
-6.897462718475046 -3.59735177777722 3.782963364121887
-11.254485322430199 -0.8563542995507398 -0.7037619284438916
-10.85211639536802 -5.655102837715438 -0.35188096422194803
-8.880711874576987 -5.512181570842277 -0.6570657064356631
-9.575974020452625 -6.457922411872747 0.9622504486493721
-10.547378541243654 -0.4481060090868767 4.055128891097791
-10.145009614181477 -5.246854547251573 4.407009855319734
-8.173605093390444 -5.103933280378413 4.101825113106019
-9.283080801639173 -6.288820433146984 2.93344756795635
-13.225889843221234 -3.3086766431824044 1.234415975625276
-12.530627697345597 -2.3629358021519327 -0.3849001794597591
-12.363961030678931 -4.350642529077814 -0.23914631173810807
-12.932996624407783 -3.139574664456641 3.205613094932254
-11.823520916159053 -1.9546875116880689 4.373990640081923
-11.656854249492389 -3.9423942386139506 4.5197445078035745
-0.49999999999999867 -0.2886751345948124 -5.097094776993209
0.20710678118654835 4.0619673944830055 -3.1258976576862305
3.621320343559642 -1.8516239634379275 -3.1258976576862296
2.4142135623730976 0.23914631173810097 -7.3074382080382865
0.5000000000000022 0.28867513459481353 -6.73008793884866
1.4142135623730978 1.9711971193069786 -7.3074382080382865
4.328427124746189 2.499018565639891 -1.1547005383792515
3.1213203435596446 4.589788840815918 -5.336241088731307
1.2071067811865492 4.639317663672631 -4.758890819541683
1.7071067811865497 3.7732922598881933 -6.49094162711056
5.5355339059327395 0.40824829046386346 -5.336241088731307
4.621320343559644 -1.2742736942483013 -4.758890819541682
4.121320343559644 -0.40824829046386246 -6.490941627110559
5.828427124746192 2.210343431045078 -4.519744507803581
5.32842712474619 3.076368834829516 -2.787693700234703
4.828427124746192 3.9423942386139554 -4.519744507803581
-7.604569499661583 0.4150867938490723 -4.1018251131060275
-6.897462718475035 4.76572932292689 -2.1306279937990493
-11.254485322430199 -0.37806167607453744 -1.0419658858954186
-10.852116395368009 1.553277724609422 -5.4489757412151585
-8.880711874576978 1.217906368006383 -5.4159565259773474
-9.57597402045261 3.059859227210615 -5.767837490199291
-10.547378541243651 3.97258085300328 0.9292312334115596
-10.145009614181461 5.9039202536872395 -3.4777786219081808
-8.17360509339043 5.5685488970842005 -3.4447594066703697
-9.283080801639159 4.86195436779183 -4.951340909271565
-13.225889843221227 2.2667107572870044 -2.7079782629886826
-12.530627697345594 0.4247578980827722 -2.3560972987667386
-12.363961030678924 1.224744871391594 -4.181540550352066
-12.932996624407775 4.068805897868219 -1.8914816820609566
-11.823520916159046 4.77540042716059 -0.38490017945976085
-11.656854249492376 5.5753874004694115 -2.210343431045089
0.9999999999999996 0.577350269189626 4.9980371312797836
0.9999999999999996 4.519744507803581 2.210343431045078
4.414213562373095 -1.393846850117351 2.2103434310450787
4.414213562373094 2.5485473884966034 -0.5773502691896266
4.414213562373095 1.3938468501173527 6.152737669659034
2.4142135623730945 1.3938468501173524 6.152737669659035
3.4142135623730945 3.12589765768623 6.152737669659034
4.414213562373095 5.336241088731307 3.3650439694243284
2.414213562373094 5.336241088731308 3.3650439694243293
3.4142135623730945 4.758890819541683 4.998037131279782
6.82842712474619 1.1547005383792524 3.3650439694243293
5.82842712474619 -0.5773502691896253 3.36504396942433
5.82842712474619 0.5773502691896268 4.998037131279782
6.82842712474619 2.787693700234704 2.210343431045077
5.828427124746188 3.36504396942433 0.5773502691896244
5.82842712474619 4.519744507803582 2.210343431045077
-3.44280904158206 -6.793293768475783 -4.101825113106027
0.6785113019775824 -8.356242597318897 -2.1306279937990493
-5.954653676892972 -9.557639357706378 -1.041965885895418
-4.080880229039756 -10.174847345519014 -5.448975741215158
-3.385618083164122 -8.299875271076974 -5.415956525977347
-2.1380711874576925 -9.822966381297071 -5.76783749019929
-1.8333333333333295 -11.120588186549492 0.9292312334115591
0.04044011451988716 -11.737796174362128 -3.4777786219081803
0.7357022603955206 -9.862824099920088 -3.44475940667037
-0.4309644062711442 -10.470360983499035 -4.951340909271564
-4.6499158227686035 -12.587311970527667 -2.707978262988682
-5.897462718475034 -11.06422086030757 -2.3560972987667386
-5.121320343559636 -11.319876779664572 -4.181540550352065
-2.9428090415820565 -13.23470657272963 -1.8914816820609555
-1.776142374915391 -12.627169689150683 -0.3849001794597606
-0.9999999999999929 -12.882825608507687 -2.210343431045088
-6.104569499661594 1.2811121976335125 5.993306795166965
-6.104569499661588 5.223506436247467 3.205613094932259
-10.46159210361675 0.07971543724603825 4.294275202835891
-10.461592103616745 4.022109675859992 1.5065815026011857
-8.852116395368023 2.707978262988675 8.011200136482163
-6.966498312203896 2.323078083528923 7.466869082530349
-7.575974020452625 4.214559765589868 7.692338387498031
-8.852116395368018 6.65037250160263 5.223506436247458
-6.966498312203891 6.2654723221428785 4.679175382295643
-7.575974020452623 5.847552927445321 6.537637849118779
-11.932996624407783 3.0131630052023937 5.993306795166958
-11.323520916159053 1.1216813231414489 5.767837490199275
-10.656854249492387 2.210343431045084 7.307438208038278
-11.932996624407782 4.646156167057845 4.838606256787705
-11.323520916159048 5.064075561755404 2.9801437899645693
-10.656854249492383 6.152737669659039 4.519744507803573
-3.442809041582059 -1.6028065474661397 -7.772053824744068
0.6785113019775841 0.7766388623047015 -8.588550405671793
-5.9546536768929705 2.203504927659858 -9.358350764591302
-4.080880229039754 -1.7457278143393076 -11.409263321144307
-3.38561808316412 -2.339587691147835 -9.630516291567202
-2.1380711874576903 -2.163647209036865 -11.18379401617662
-1.833333333333328 4.582950337430699 -10.174847345519028
0.04044011451988938 0.6337175954315345 -12.225759902072031
0.7357022603955228 0.03985771862300691 -10.447012872494929
-0.43096440627114285 -1.178048649383376 -11.521997973628146
-4.649915822768602 1.6426642660891329 -12.770090956023855
-5.897462718475033 1.466723783978163 -11.216813231414438
-5.121320343559634 -0.16910197872577726 -12.066329027579968
-2.9428090415820547 2.628262825742622 -13.10829491347538
-1.776142374915389 3.8461691937490046 -12.033309812342162
-0.9999999999999916 2.2103434310450645 -12.882825608507694
-1.9428090415820645 -5.927268364691356 5.993306795166964
1.4714045207910327 -7.8984654839983275 3.2056130949322594
-5.161760458079522 -9.09986224438581 4.29427520283589
-1.7475468957064246 -11.071059363692783 1.5065815026011853
-2.080880229039762 -9.020146807139778 8.011200136482163
-1.4714045207910327 -7.19470355555445 7.466869082530348
-0.13807118745769897 -8.668265842917835 7.69233838749803
1.3333333333333357 -10.991343926446751 5.223506436247458
1.942809041582065 -9.165900674861422 4.679175382295643
1.2761423749153975 -9.48476242384556 6.537637849118778
-3.357022603955156 -11.840859722612288 5.993306795166957
-4.690355937288491 -10.367297435248904 5.767837490199274
-3.414213562373094 -10.334278220011097 7.307438208038276
-1.9428090415820602 -12.657356303540013 4.838606256787704
-1.276142374915393 -12.338494554555876 2.9801437899645693
2.4424906541753444e-15 -12.30547533931807 4.519744507803572
-1.011844635310909 -0.19928859311509006 8.588550405671798
3.109475708248734 2.1801568166557512 7.77205382474407
-3.052284749830788 3.879188408986819 10.174847345519028
-0.5690355937288428 0.2818366312095977 12.225759902072037
-0.40236892706217786 -0.6172079878126491 10.447012872494934
1.2357022603955212 -0.2157982007339947 11.521997973628151
1.069035593728854 6.25863381875766 9.3583507645913
3.5522847498307986 2.6612820409804385 11.409263321144309
3.7189514164974637 1.7622374219581918 9.630516291567204
2.942809041582069 0.7698003589194942 11.183794016176625
-0.8047378541243575 3.862678801367914 13.108294913475381
-2.4428090415820565 3.46126901428926 12.033309812342164
-1.4142135623730878 1.9711971193069702 12.882825608507698
0.9023689270621897 4.8482773610214025 12.770090956023854
1.678511301977586 5.840714424060101 11.216813231414436
2.707106781186554 4.3506425290778115 12.066329027579968
-1.9428090415820645 7.6262999570224155 -3.590513274392022
1.471404520791034 5.655102837715435 -6.37820697462672
-5.161760458079521 7.0819689030705915 -7.148007333546229
-1.7475468957064235 5.110771783763612 -9.935701033780926
-2.0808802290397623 10.559747524978768 -5.833875920674911
-1.4714045207910333 9.438066201837326 -4.294275202835908
-0.13807118745769964 10.141828130281208 -5.608406615707226
1.3333333333333348 8.588550405671787 -8.62156962090961
1.9428090415820645 7.466869082530346 -7.081968903070607
1.2761423749153962 9.325331549353482 -6.763107154086476
-3.357022603955156 9.597497076329386 -9.165900674861433
-4.69035593728849 8.893735147885502 -7.851769261990114
-3.414213562373094 10.33427822001108 -7.307438208038298
-1.9428090415820598 8.781000495401658 -10.320601213240682
-1.276142374915392 6.922538028578522 -10.639462962224812
3.1086244689504383e-15 8.3630811007041 -10.095131908272997
-1.0118446353109114 8.163792507589028 2.674959047750868
3.1094757082487323 6.600843678745909 4.646156167057842
-3.052284749830789 8.299875271076976 7.048949687832802
-0.569035593728846 11.432611432148418 4.340971424844133
-0.40236892706218064 10.055274189649971 2.900428352718554
1.2357022603955183 10.934976600204825 3.637209496400246
1.0690355937288536 6.736926442233858 9.020146807139774
3.5522847498307977 9.869662603305299 6.312168544151106
3.718951416497463 8.492325360806854 4.871625472025527
2.9428090415820662 10.28758199800286 4.45370607732797
-0.8047378541243593 11.071059363692775 8.01120013648218
-2.4428090415820582 10.191356953137921 7.274418992800487
-1.414213562373091 11.488978758390337 6.152737669659044
0.9023689270621881 10.42366476149081 8.827696717409903
1.6785113019775841 8.628408124294802 9.245616112107461
2.7071067811865523 9.926029929547218 8.123934788966018
5.633164978870553 -5.495671963223375 -3.590513274392021
5.633164978870552 -1.5532777246094152 -6.378206974626719
3.5522847498307906 -8.011200136482167 -7.148007333546229
3.5522847498307883 -4.068805897868206 -9.935701033780928
8.104569499661585 -7.081968903070599 -5.833875920674911
7.437902832994919 -5.993306795166966 -4.294275202835907
8.714045207910315 -5.190487221009654 -5.608406615707224
8.104569499661583 -3.1395746644566387 -8.621569620909609
7.437902832994916 -2.050912556553006 -7.081968903070606
8.714045207910313 -3.5574940591542 -6.763107154086474
6.633164978870552 -7.706015394268445 -9.165900674861433
5.357022603955156 -8.508834968425756 -7.851769261990114
7.242640687119282 -8.123934788966006 -7.307438208038298
6.633164978870551 -6.073022232412991 -10.320601213240682
5.357022603955153 -4.566440729811797 -10.639462962224814
7.242640687119281 -4.181540550352047 -10.095131908272997
6.564129385141706 -4.958179412656762 2.6749590477508676
7.271236166328251 -0.6075368835789416 4.646156167057841
5.661760458079523 -6.793293768475781 7.048949687832801
6.368867239266067 -2.4426512393979602 9.020146807139774
9.6164141349725 -6.209104995900947 4.340971424844131
8.50693842672377 -5.376098807354319 2.900428352718553
10.087818655763531 -4.397338751086037 3.6372094964002444
10.323520916159044 -1.858462466823127 6.3121685441511035
9.214045207910313 -1.0254562782764993 4.871625472025525
10.380711874576981 -2.595243610504822 4.453706077327968
9.185449728701347 -6.232453106905057 8.011200136482177
7.6045694996615865 -7.211213163173339 7.274418992800485
9.242640687119286 -6.969234250586751 6.152737669659042
9.478342947514799 -4.43035796632384 8.827696717409902
8.31167628084813 -2.8605706340955184 9.245616112107458
9.94974746830583 -2.6185917215089303 8.123934788966015
-13.979020353560344 -3.552935056897393 -0.8430683933430818
-13.979020353560339 0.3894591817165627 -3.6307620935777862
-13.469488527157353 -6.325063349796022 -4.763449821798498
-13.469488527157347 -2.3826691111820657 -7.551143522033204
-17.22493184640439 -4.572888132634261 -2.2854998660343195
-15.967853124294974 -3.674787713894844 -1.0153940734800782
-17.37417026312746 -2.606250015584089 -1.9537433114052587
-17.224931846404385 -0.6304938940203053 -5.073193566269024
-15.967853124294967 0.2676065247191115 -3.8030877737147817
-17.374170263127457 -0.9732568537286364 -3.10844384978451
-16.86463843672447 -5.378378308482717 -5.874124739860674
-15.458321297891983 -6.446916006793472 -4.9357755019354945
-17.013876853447538 -5.721141268191047 -3.9093750233761604
-16.864638436724466 -3.7453851466272647 -7.028825278239927
-15.458321297891978 -2.504521768179517 -7.723469202170199
-17.013876853447535 -1.7787470295770926 -6.697068723610865
-13.048055947289201 -3.0154425063307837 5.422403928799795
-12.340949166102654 1.335200022747035 7.393601048106773
-11.36001281890864 -5.10715698178964 9.433507199580518
-10.65290603772209 -0.756514452711821 11.404704318887495
-15.713087211093491 -3.7000242254646136 7.889347479484705
-14.898817530566134 -3.057579726082201 6.179309482074368
-16.000396815274257 -1.8131015456604747 7.291872800702198
-15.005980429906943 0.6506183036132047 9.86054459879168
-14.191710749379586 1.2930628029956173 8.150506601381345
-15.707503596460803 -0.01100640507925954 8.108369381629924
-14.312353686893694 -3.9048160211193306 11.30297607148292
-13.210774402185573 -5.149294201541058 10.190412752855089
-15.013876853447556 -4.566440729811795 9.55080085432116
-14.019460468080242 -2.102720880538116 12.119472652410645
-12.503667620999023 -0.7986516724632389 12.161609872162066
-14.306770072261006 -0.21579820073397737 11.521997973628137
6.564129385141706 4.174702046966853 -3.7829633641218834
7.27123616632825 4.5829503374307095 0.9759274554197994
5.661760458079521 8.910244755504422 -4.055128891097784
6.3688672392660655 9.318493045968278 0.7037619284438981
9.616414134972498 6.162408773892739 -4.407009855319728
8.506938426723769 4.526583011188798 -4.101825113106015
10.08781865576353 4.8949735830296435 -2.933447567956345
10.323520916159042 6.5706570643565945 0.3518809642219545
9.214045207910313 4.934831301652653 0.6570657064356678
10.380711874576981 5.064075561755403 -0.9622504486493667
9.185449728701345 9.630516291567211 -3.2056130949322457
7.604569499661585 9.262125719726367 -4.373990640081916
9.242640687119284 8.12393478896602 -4.519744507803567
9.478342947514797 9.79961827029297 -1.2344159756252677
8.311676280848129 9.670374010190223 0.3849001794597664
9.949747468305826 8.532183079429876 0.23914631173811562
-13.048055947289185 6.117438953292827 -1.0355184830729591
-12.340949166102643 6.525687243756693 3.7233723364687235
-11.360012818908613 10.59638154219056 -1.6705713793500818
-10.65290603772207 11.004629832654425 3.0883194401916008
-15.713087211093471 8.671489544329066 -0.8586338006791636
-14.898817530566117 6.845102092460909 -0.8229439837502057
-16.00039681527424 7.479210788455202 0.7212157363456004
-15.005980429906927 9.079737834792931 3.900257018862518
-14.191710749379574 7.253350382924775 3.935946835791476
-15.70750359646079 7.648312767180966 2.692412855652578
-14.312353686893669 11.958153377352936 0.08616284006847774
-13.210774402185544 11.324044681358643 -1.4579968800273284
-15.013876853447531 10.52672830974097 -1.1216813231414626
-14.019460468080219 12.127255356078699 2.057359959375456
-12.503667620999002 11.732292971822508 3.3008939395143537
-14.306770072260987 10.934976600204834 3.63720949640022
-1.2261704339925195 -14.358667396999476 -1.0355184830729591
-0.5190636528059729 -13.950419106535618 3.723372336468724
3.496729194275244 -15.136250459587009 -1.67057137935008
4.203835975461791 -14.728002169123153 3.0883194401916025
-0.34681337150661773 -17.943677468851853 -0.8586338006791641
-1.5213764617138938 -16.325305514049646 -0.8229439837502062
-1.523011864576275 -17.59635550688672 0.7212157363455998
0.3602934096799284 -17.535429178387997 3.900257018862519
-0.8142696805273473 -15.91705722358579 3.935946835791477
-1.2301186457628228 -17.42725352816096 2.692412855652578
3.199887763691489 -18.373938569474255 0.08616284006847841
3.2015231665538697 -17.102888576637184 -1.457996880027328
1.609475708248739 -18.265762919247216 -1.1216813231414617
3.4927809825049416 -18.204836590748492 2.057359959375457
3.9086299477404163 -16.694640286173325 3.3008939395143555
2.316582489435285 -17.85751462878336 3.637209496400221
-1.2261704339925152 3.8099262770999656 -13.882654274651689
-0.5190636528059713 8.160568806177785 -11.911457155344713
3.4967291942752494 3.4703870188028665 -14.827450915399323
-0.34681337150660996 5.171698112262336 -17.20367262375894
-1.5213764617138874 4.665889476087962 -15.665960306485598
-1.523011864576268 6.5454205527868075 -16.349597825336602
4.203835975461794 7.821029547880687 -12.856253796092348
0.36029340967993395 9.522340641340156 -15.232475504451966
-0.8142696805273435 9.016532005165782 -13.694763187178623
-1.2301186457628168 8.347515693368024 -15.53310124440888
3.1998877636914975 6.205881294489709 -17.29439446608424
3.2015231665538777 4.326350217790864 -16.610756947233234
1.6094757082487474 5.031056346517576 -17.595020206041152
3.492780982504949 8.007976435070924 -16.477897885156516
3.9086299477404207 8.676992746868684 -14.63955982792626
2.3165824894352913 9.381698875595395 -15.623823086734177
2.7396504721658266 6.099594044828335 12.807669173518468
2.739650472165825 10.041988283442292 10.019975473283766
7.541117520565429 5.805415707693889 12.391638179386563
4.506261020678236 7.973621918987544 15.457944809419644
2.9507054651226796 7.247847180385121 14.431544330860309
3.0999438818457485 9.214485297435292 14.763300885489372
7.541117520565427 9.747809946307846 9.603944479151863
4.5062610206782345 11.916016157601502 12.670251109184942
2.9507054651226774 11.19024141899908 11.643850630625607
3.0999438818457477 10.847478459290746 13.608600347110121
7.901410930245351 8.920306960300849 14.347269891357469
7.752172513522282 6.953668843250676 14.015513336728405
6.495093791412865 7.851769261990092 15.285619129282647
7.901410930245351 10.553300122156301 13.192569352978218
7.7521725135222805 10.896063081864634 11.227819636493704
6.495093791412863 11.79416350060405 12.497925429047946
8 0 1 2 3 4 5 6 7
8 8 9 10 3 4 11 12 13
8 14 9 10 2 1 15 16 17
8 18 12 11 5 6 19 20 21
8 22 16 15 0 7 19 20 23
8 22 17 14 8 13 18 21 23
3 10 3 2
3 11 4 5
3 15 1 0
3 19 6 7
3 14 9 8
3 18 12 13
3 22 16 17
3 23 20 21
8 24 25 26 3 2 27 28 29
8 30 31 10 3 26 32 33 34
8 35 36 27 2 10 31 37 38
8 39 33 32 25 24 40 41 42
8 43 35 36 28 29 40 41 44
8 43 38 37 30 34 39 42 44
3 10 3 2
3 32 26 25
3 36 27 28
3 37 31 30
3 40 24 29
3 39 33 34
3 43 35 38
3 44 41 42
8 45 46 5 4 47 48 49 50
8 51 52 11 4 47 53 54 55
8 56 57 46 5 11 52 58 59
8 60 61 49 48 53 54 62 63
8 64 56 57 45 50 61 60 65
8 64 59 58 51 55 62 63 65
3 11 4 5
3 53 47 48
3 57 46 45
3 61 49 50
3 58 52 51
3 62 54 55
3 64 56 59
3 65 60 63
8 66 67 0 1 68 69 70 71
8 72 73 15 1 68 74 75 76
8 77 78 67 0 15 73 79 80
8 81 82 70 69 74 75 83 84
8 85 77 78 66 71 82 81 86
8 85 80 79 72 76 83 84 86
3 15 1 0
3 74 68 69
3 78 67 66
3 82 70 71
3 79 73 72
3 83 75 76
3 85 77 80
3 86 81 84
8 87 88 7 6 89 90 91 92
8 93 94 19 6 89 95 96 97
8 98 94 19 7 88 99 100 101
8 102 103 91 90 95 96 104 105
8 102 103 92 87 99 100 106 107
8 106 101 98 93 97 104 105 107
3 19 6 7
3 95 89 90
3 99 88 87
3 103 91 92
3 98 94 93
3 104 96 97
3 106 100 101
3 107 102 105
8 108 109 8 9 110 111 112 113
8 114 115 14 9 110 116 117 118
8 119 120 109 8 14 115 121 122
8 123 124 112 111 116 117 125 126
8 127 119 120 108 113 124 123 128
8 127 122 121 114 118 125 126 128
3 14 9 8
3 116 110 111
3 120 109 108
3 124 112 113
3 121 115 114
3 125 117 118
3 127 119 122
3 128 123 126
8 129 130 29 24 131 132 133 134
8 135 136 40 24 131 137 138 139
8 140 136 40 29 130 141 142 143
8 144 138 137 132 133 145 146 147
8 148 142 141 129 134 145 146 149
8 148 143 140 135 139 144 147 149
3 40 24 29
3 137 131 132
3 141 130 129
3 145 133 134
3 140 136 135
3 144 138 139
3 148 142 143
3 149 146 147
8 150 151 13 12 152 153 154 155
8 156 157 18 12 152 158 159 160
8 161 157 18 13 151 162 163 164
8 165 166 154 153 158 159 167 168
8 165 166 155 150 162 163 169 170
8 169 164 161 156 160 167 168 170
3 18 12 13
3 158 152 153
3 162 151 150
3 166 154 155
3 161 157 156
3 167 159 160
3 169 163 164
3 170 165 168
8 171 172 34 33 173 174 175 176
8 177 178 39 33 173 179 180 181
8 182 178 39 34 172 183 184 185
8 186 180 179 174 175 187 188 189
8 190 184 183 171 176 187 188 191
8 190 185 182 177 181 186 189 191
3 39 33 34
3 179 173 174
3 183 172 171
3 187 175 176
3 182 178 177
3 186 180 181
3 190 184 185
3 191 188 189
8 192 193 17 16 194 195 196 197
8 198 199 22 16 194 200 201 202
8 203 199 22 17 193 204 205 206
8 207 208 196 195 200 201 209 210
8 207 208 197 192 204 205 211 212
8 211 206 203 198 202 209 210 212
3 22 16 17
3 200 194 195
3 204 193 192
3 208 196 197
3 203 199 198
3 209 201 202
3 211 205 206
3 212 207 210
8 213 214 38 35 215 216 217 218
8 219 220 43 35 215 221 222 223
8 224 220 43 38 214 225 226 227
8 228 222 221 216 217 229 230 231
8 232 226 225 213 218 229 230 233
8 232 227 224 219 223 228 231 233
3 43 35 38
3 221 215 216
3 225 214 213
3 229 217 218
3 224 220 219
3 228 222 223
3 232 226 227
3 233 230 231
8 234 235 21 20 236 237 238 239
8 240 241 23 20 236 242 243 244
8 245 241 23 21 235 246 247 248
8 249 250 238 237 242 243 251 252
8 249 250 239 234 246 247 253 254
8 252 251 244 240 245 248 253 254
3 23 20 21
3 242 236 237
3 246 235 234
3 245 241 240
3 250 238 239
3 251 243 244
3 253 247 248
3 254 249 252
8 255 256 59 56 257 258 259 260
8 261 262 64 56 257 263 264 265
8 266 262 64 59 256 267 268 269
8 270 264 263 258 259 271 272 273
8 274 268 267 255 260 271 272 275
8 274 269 266 261 265 270 273 275
3 64 56 59
3 263 257 258
3 267 256 255
3 271 259 260
3 266 262 261
3 270 264 265
3 274 268 269
3 275 272 273
8 276 277 42 41 278 279 280 281
8 282 283 44 41 278 284 285 286
8 287 283 44 42 277 288 289 290
8 291 292 280 279 284 285 293 294
8 291 292 281 276 288 289 295 296
8 294 293 286 282 287 290 295 296
3 44 41 42
3 284 278 279
3 288 277 276
3 287 283 282
3 292 280 281
3 293 285 286
3 295 289 290
3 296 291 294
8 297 298 63 60 299 300 301 302
8 303 304 65 60 299 305 306 307
8 308 304 65 63 298 309 310 311
8 312 306 305 300 301 313 314 315
8 316 310 309 297 302 313 314 317
8 315 312 307 303 308 311 316 317
3 65 60 63
3 305 299 300
3 309 298 297
3 313 301 302
3 308 304 303
3 312 306 307
3 316 310 311
3 317 314 315
8 318 319 80 77 320 321 322 323
8 324 325 85 77 320 326 327 328
8 329 325 85 80 319 330 331 332
8 333 327 326 321 322 334 335 336
8 337 331 330 318 323 334 335 338
8 337 332 329 324 328 333 336 338
3 85 77 80
3 326 320 321
3 330 319 318
3 334 322 323
3 329 325 324
3 333 327 328
3 337 331 332
3 338 335 336
8 339 340 84 81 341 342 343 344
8 345 346 86 81 341 347 348 349
8 350 346 86 84 340 351 352 353
8 354 348 347 342 343 355 356 357
8 358 352 351 339 344 355 356 359
8 357 354 349 345 350 353 358 359
3 86 81 84
3 347 341 342
3 351 340 339
3 355 343 344
3 350 346 345
3 354 348 349
3 358 352 353
3 359 356 357
8 360 361 122 119 362 363 364 365
8 366 367 127 119 362 368 369 370
8 371 367 127 122 361 372 373 374
8 375 369 368 363 364 376 377 378
8 379 373 372 360 365 376 377 380
8 379 374 371 366 370 375 378 380
3 127 119 122
3 368 362 363
3 372 361 360
3 376 364 365
3 371 367 366
3 375 369 370
3 379 373 374
3 380 377 378
8 381 382 105 102 383 384 385 386
8 387 388 107 102 383 389 390 391
8 392 388 107 105 382 393 394 395
8 396 390 389 384 385 397 398 399
8 400 394 393 381 386 397 398 401
8 400 395 392 387 391 396 399 401
3 107 102 105
3 389 383 384
3 393 382 381
3 397 385 386
3 392 388 387
3 396 390 391
3 400 394 395
3 401 398 399
8 402 403 126 123 404 405 406 407
8 408 409 128 123 404 410 411 412
8 413 409 128 126 403 414 415 416
8 417 411 410 405 406 418 419 420
8 421 415 414 402 407 418 419 422
8 420 417 412 408 413 416 421 422
3 128 123 126
3 410 404 405
3 414 403 402
3 418 406 407
3 413 409 408
3 417 411 412
3 421 415 416
3 422 419 420
8 423 424 168 165 425 426 427 428
8 429 430 170 165 425 431 432 433
8 434 430 170 168 424 435 436 437
8 438 432 431 426 427 439 440 441
8 442 436 435 423 428 439 440 443
8 442 437 434 429 433 438 441 443
3 170 165 168
3 431 425 426
3 435 424 423
3 439 427 428
3 434 430 429
3 438 432 433
3 442 436 437
3 443 440 441
8 444 445 210 207 446 447 448 449
8 450 451 212 207 446 452 453 454
8 455 451 212 210 445 456 457 458
8 459 453 452 447 448 460 461 462
8 463 457 456 444 449 460 461 464
8 463 458 455 450 454 459 462 464
3 212 207 210
3 452 446 447
3 456 445 444
3 460 448 449
3 455 451 450
3 459 453 454
3 463 457 458
3 464 461 462
8 465 466 252 249 467 468 469 470
8 471 472 254 249 467 473 474 475
8 476 472 254 252 466 477 478 479
8 480 474 473 468 469 481 482 483
8 484 478 477 465 470 481 482 485
8 484 479 476 471 475 480 483 485
3 254 249 252
3 473 467 468
3 477 466 465
3 481 469 470
3 476 472 471
3 480 474 475
3 484 478 479
3 485 482 483
8 486 487 294 291 488 489 490 491
8 492 493 296 291 488 494 495 496
8 497 493 296 294 487 498 499 500
8 501 495 494 489 490 502 503 504
8 505 499 498 486 491 502 503 506
8 505 500 497 492 496 501 504 506
3 296 291 294
3 494 488 489
3 498 487 486
3 502 490 491
3 497 493 492
3 501 495 496
3 505 499 500
3 506 503 504
3 507 3 4
3 508 2 1
3 509 5 6
3 510 511 512
3 513 0 7
3 514 515 516
3 517 518 519
3 520 521 522
8 0 1 2 3 4 5 6 7
8 512 511 507 3 2 508 515 516
8 518 509 5 4 507 511 510 519
8 521 513 0 1 508 515 514 522
8 521 513 7 6 509 518 517 520
8 522 514 516 512 510 519 517 520
3 523 3 4
3 524 10 9
3 525 11 12
3 526 527 528
3 529 8 13
3 530 531 532
3 533 534 535
3 536 537 538
8 8 9 10 3 4 11 12 13
8 531 524 10 3 523 527 528 532
8 534 525 11 4 523 527 526 535
8 537 529 8 9 524 531 530 538
8 537 529 13 12 525 534 533 536
8 538 530 532 528 526 535 533 536
3 539 2 1
3 540 10 9
3 541 15 16
3 542 543 544
3 545 14 17
3 546 547 548
3 549 550 551
3 552 553 554
8 14 9 10 2 1 15 16 17
8 544 543 539 2 10 540 547 548
8 550 541 15 1 539 543 542 551
8 553 545 14 9 540 547 546 554
8 553 545 17 16 541 550 549 552
8 554 546 548 544 542 551 549 552
3 555 5 6
3 556 11 12
3 557 19 20
3 558 559 560
3 561 18 21
3 562 563 564
3 565 566 567
3 568 569 570
8 18 12 11 5 6 19 20 21
8 560 559 555 5 11 556 563 564
8 566 557 19 6 555 559 558 567
8 569 561 18 12 556 563 562 570
8 569 561 21 20 557 566 565 568
8 570 562 564 560 558 567 565 568
3 571 25 24
3 572 32 33
3 573 40 41
3 574 575 576
3 577 39 42
3 578 579 580
3 581 582 583
3 584 585 586
8 39 33 32 25 24 40 41 42
8 576 575 571 25 32 572 579 580
8 582 573 40 24 571 575 574 583
8 585 577 39 33 572 579 578 586
8 585 577 42 41 573 582 581 584
8 586 578 580 576 574 583 581 584
3 587 0 7
3 588 15 16
3 589 19 20
3 590 591 592
3 593 22 23
3 594 595 596
3 597 598 599
3 600 601 602
8 22 16 15 0 7 19 20 23
8 592 591 587 0 15 588 595 596
8 598 589 19 7 587 591 590 599
8 601 593 22 16 588 595 594 602
8 601 593 23 20 589 598 597 600
8 602 594 596 592 590 599 597 600
3 603 28 29
3 604 36 35
3 605 40 41
3 606 607 608
3 609 43 44
3 610 611 612
3 613 614 615
3 616 617 618
8 43 35 36 28 29 40 41 44
8 608 607 603 28 36 604 611 612
8 614 605 40 29 603 607 606 615
8 617 609 43 35 604 611 610 618
8 617 609 44 41 605 614 613 616
8 618 610 612 608 606 615 613 616
3 619 8 13
3 620 14 17
3 621 18 21
3 622 22 23
3 623 624 625
3 626 627 628
3 629 630 631
3 632 633 634
8 22 17 14 8 13 18 21 23
8 625 624 619 8 14 620 627 628
8 630 621 18 13 619 624 623 631
8 633 622 22 17 620 627 626 634
8 633 622 23 21 621 630 629 632
8 634 626 628 625 623 631 629 632
3 635 45 50
3 636 57 56
3 637 61 60
3 638 639 640
3 641 64 65
3 642 643 644
3 645 646 647
3 648 649 650
8 64 56 57 45 50 61 60 65
8 640 639 635 45 57 636 643 644
8 646 637 61 50 635 639 638 647
8 649 641 64 56 636 643 642 650
8 649 641 65 60 637 646 645 648
8 650 642 644 640 638 647 645 648
3 651 30 34
3 652 37 38
3 653 39 42
3 654 43 44
3 655 656 657
3 658 659 660
3 661 662 663
3 664 665 666
8 43 38 37 30 34 39 42 44
8 657 656 651 30 37 652 659 660
8 662 653 39 34 651 656 655 663
8 665 654 43 38 652 659 658 666
8 665 654 44 42 653 662 661 664
8 666 658 660 657 655 663 661 664
3 667 66 71
3 668 78 77
3 669 82 81
3 670 671 672
3 673 85 86
3 674 675 676
3 677 678 679
3 680 681 682
8 85 77 78 66 71 82 81 86
8 672 671 667 66 78 668 675 676
8 678 669 82 71 667 671 670 679
8 681 673 85 77 668 675 674 682
8 681 673 86 81 669 678 677 680
8 682 674 676 672 670 679 677 680
3 683 51 55
3 684 58 59
3 685 62 63
3 686 64 65
3 687 688 689
3 690 691 692
3 693 694 695
3 696 697 698
8 64 59 58 51 55 62 63 65
8 689 688 683 51 58 684 691 692
8 694 685 62 55 683 688 687 695
8 697 686 64 59 684 691 690 698
8 697 686 65 63 685 694 693 696
8 698 690 692 689 687 695 693 696
3 699 108 113
3 700 120 119
3 701 124 123
3 702 703 704
3 705 127 128
3 706 707 708
3 709 710 711
3 712 713 714
8 127 119 120 108 113 124 123 128
8 704 703 699 108 120 700 707 708
8 710 701 124 113 699 703 702 711
8 713 705 127 119 700 707 706 714
8 713 705 128 123 701 710 709 712
8 714 706 708 704 702 711 709 712
3 715 72 76
3 716 79 80
3 717 83 84
3 718 85 86
3 719 720 721
3 722 723 724
3 725 726 727
3 728 729 730
8 85 80 79 72 76 83 84 86
8 721 720 715 72 79 716 723 724
8 726 717 83 76 715 720 719 727
8 729 718 85 80 716 723 722 730
8 729 718 86 84 717 726 725 728
8 730 722 724 721 719 727 725 728
3 731 114 118
3 732 121 122
3 733 125 126
3 734 735 736
3 737 127 128
3 738 739 740
3 741 742 743
3 744 745 746
8 127 122 121 114 118 125 126 128
8 736 735 731 114 121 732 739 740
8 742 733 125 118 731 735 734 743
8 745 737 127 122 732 739 738 746
8 745 737 128 126 733 742 741 744
8 746 738 740 736 734 743 741 744
3 747 93 97
3 748 98 101
3 749 104 105
3 750 106 107
3 751 752 753
3 754 755 756
3 757 758 759
3 760 761 762
8 106 101 98 93 97 104 105 107
8 753 752 747 93 98 748 755 756
8 758 749 104 97 747 752 751 759
8 761 750 106 101 748 755 754 762
8 761 750 107 105 749 758 757 760
8 762 754 756 753 751 759 757 760
3 763 156 160
3 764 161 164
3 765 167 168
3 766 169 170
3 767 768 769
3 770 771 772
3 773 774 775
3 776 777 778
8 169 164 161 156 160 167 168 170
8 769 768 763 156 161 764 771 772
8 774 765 167 160 763 768 767 775
8 777 766 169 164 764 771 770 778
8 777 766 170 168 765 774 773 776
8 778 770 772 769 767 775 773 776
3 779 135 139
3 780 140 143
3 781 144 147
3 782 148 149
3 783 784 785
3 786 787 788
3 789 790 791
3 792 793 794
8 148 143 140 135 139 144 147 149
8 785 784 779 135 140 780 787 788
8 790 781 144 139 779 784 783 791
8 793 782 148 143 780 787 786 794
8 793 782 149 147 781 790 789 792
8 794 786 788 785 783 791 789 792
3 795 177 181
3 796 182 185
3 797 186 189
3 798 190 191
3 799 800 801
3 802 803 804
3 805 806 807
3 808 809 810
8 190 185 182 177 181 186 189 191
8 801 800 795 177 182 796 803 804
8 806 797 186 181 795 800 799 807
8 809 798 190 185 796 803 802 810
8 809 798 191 189 797 806 805 808
8 810 802 804 801 799 807 805 808
3 811 198 202
3 812 203 206
3 813 209 210
3 814 211 212
3 815 816 817
3 818 819 820
3 821 822 823
3 824 825 826
8 211 206 203 198 202 209 210 212
8 817 816 811 198 203 812 819 820
8 822 813 209 202 811 816 815 823
8 825 814 211 206 812 819 818 826
8 825 814 212 210 813 822 821 824
8 826 818 820 817 815 823 821 824
3 827 219 223
3 828 224 227
3 829 228 231
3 830 232 233
3 831 832 833
3 834 835 836
3 837 838 839
3 840 841 842
8 232 227 224 219 223 228 231 233
8 833 832 827 219 224 828 835 836
8 838 829 228 223 827 832 831 839
8 841 830 232 227 828 835 834 842
8 841 830 233 231 829 838 837 840
8 842 834 836 833 831 839 837 840
3 843 261 265
3 844 266 269
3 845 270 273
3 846 274 275
3 847 848 849
3 850 851 852
3 853 854 855
3 856 857 858
8 274 269 266 261 265 270 273 275
8 849 848 843 261 266 844 851 852
8 854 845 270 265 843 848 847 855
8 857 846 274 269 844 851 850 858
8 857 846 275 273 845 854 853 856
8 858 850 852 849 847 855 853 856
3 859 324 328
3 860 329 332
3 861 333 336
3 862 863 864
3 865 337 338
3 866 867 868
3 869 870 871
3 872 873 874
8 337 332 329 324 328 333 336 338
8 864 863 859 324 329 860 867 868
8 870 861 333 328 859 863 862 871
8 873 865 337 332 860 867 866 874
8 873 865 338 336 861 870 869 872
8 874 866 868 864 862 871 869 872
3 875 366 370
3 876 371 374
3 877 375 378
3 878 879 880
3 881 379 380
3 882 883 884
3 885 886 887
3 888 889 890
8 379 374 371 366 370 375 378 380
8 880 879 875 366 371 876 883 884
8 886 877 375 370 875 879 878 887
8 889 881 379 374 876 883 882 890
8 889 881 380 378 877 886 885 888
8 890 882 884 880 878 887 885 888
# cell 1: 0 1 2 3 4 5 6 7 8 9 10 11 12 13
# cell 2: 14 15 16 17 18 19 20 21 22 23 24 25 26 27
# cell 3: 28 29 30 31 32 33 34 35 36 37 38 39 40 41
# cell 4: 42 43 44 45 46 47 48 49 50 51 52 53 54 55
# cell 5: 56 57 58 59 60 61 62 63 64 65 66 67 68 69
# cell 6: 70 71 72 73 74 75 76 77 78 79 80 81 82 83
# cell 7: 84 85 86 87 88 89 90 91 92 93 94 95 96 97
# cell 8: 98 99 100 101 102 103 104 105 106 107 108 109 110 111
# cell 9: 112 113 114 115 116 117 118 119 120 121 122 123 124 125
# cell 10: 126 127 128 129 130 131 132 133 134 135 136 137 138 139
# cell 11: 140 141 142 143 144 145 146 147 148 149 150 151 152 153
# cell 12: 154 155 156 157 158 159 160 161 162 163 164 165 166 167
# cell 13: 168 169 170 171 172 173 174 175 176 177 178 179 180 181
# cell 14: 182 183 184 185 186 187 188 189 190 191 192 193 194 195
# cell 15: 196 197 198 199 200 201 202 203 204 205 206 207 208 209
# cell 16: 210 211 212 213 214 215 216 217 218 219 220 221 222 223
# cell 17: 224 225 226 227 228 229 230 231 232 233 234 235 236 237
# cell 18: 238 239 240 241 242 243 244 245 246 247 248 249 250 251
# cell 19: 252 253 254 255 256 257 258 259 260 261 262 263 264 265
# cell 20: 266 267 268 269 270 271 272 273 274 275 276 277 278 279
# cell 21: 280 281 282 283 284 285 286 287 288 289 290 291 292 293
# cell 22: 294 295 296 297 298 299 300 301 302 303 304 305 306 307
# cell 23: 308 309 310 311 312 313 314 315 316 317 318 319 320 321
# cell 24: 322 323 324 325 326 327 328 329 330 331 332 333 334 335
# cell 25: 336 337 338 339 340 341 342 343 344 345 346 347 348 349
# cell 26: 350 351 352 353 354 355 356 357 358 359 360 361 362 363
# cell 27: 364 365 366 367 368 369 370 371 372 373 374 375 376 377
# cell 28: 378 379 380 381 382 383 384 385 386 387 388 389 390 391
# cell 29: 392 393 394 395 396 397 398 399 400 401 402 403 404 405
# cell 30: 406 407 408 409 410 411 412 413 414 415 416 417 418 419
# cell 31: 420 421 422 423 424 425 426 427 428 429 430 431 432 433
# cell 32: 434 435 436 437 438 439 440 441 442 443 444 445 446 447
# cell 33: 448 449 450 451 452 453 454 455 456 457 458 459 460 461
# cell 34: 462 463 464 465 466 467 468 469 470 471 472 473 474 475
# cell 35: 476 477 478 479 480 481 482 483 484 485 486 487 488 489
# cell 36: 490 491 492 493 494 495 496 497 498 499 500 501 502 503
# cell 37: 504 505 506 507 508 509 510 511 512 513 514 515 516 517
# cell 38: 518 519 520 521 522 523 524 525 526 527 528 529 530 531
# cell 39: 532 533 534 535 536 537 538 539 540 541 542 543 544 545
# cell 40: 546 547 548 549 550 551 552 553 554 555 556 557 558 559
# cell 41: 560 561 562 563 564 565 566 567 568 569 570 571 572 573
# cell 42: 574 575 576 577 578 579 580 581 582 583 584 585 586 587
# cell 43: 588 589 590 591 592 593 594 595 596 597 598 599 600 601
# cell 44: 602 603 604 605 606 607 608 609 610 611 612 613 614 615
# cell 45: 616 617 618 619 620 621 622 623 624 625 626 627 628 629
# cell 46: 630 631 632 633 634 635 636 637 638 639 640 641 642 643
# cell 47: 644 645 646 647 648 649 650 651 652 653 654 655 656 657
# cell 48: 658 659 660 661 662 663 664 665 666 667 668 669 670 671