OFF
# face-rotation BFS net; polygonal faces are preserved
# the cell decomposition is listed below as comments
891 1440 0
-1.7071067811865464 0.16910197872576294 -2.2103434310450774
-2.7071067811865466 -0.4082482904638629 -0.5773502691896254
-1.7071067811865464 -2.1402990980327403 -0.5773502691896254
-0.7071067811865464 -1.5629488288431144 -2.2103434310450774
-0.9999999999999997 0.5773502691896257 2.548547388496604
-2.4142135623730945 -0.23914631173810041 1.3938468501173518
-1.4142135623730945 -1.9711971193069777 1.3938468501173518
3.14018491736755e-16 -1.1547005383792517 2.548547388496604
-0.9999999999999997 2.210343431045078 1.3938468501173522
-2.4142135623730945 1.393846850117352 0.23914631173810047
-1.4142135623730945 1.9711971193069777 -1.3938468501173518
3.14018491736755e-16 2.787693700234704 -0.23914631173810016
1.4142135623730954 -1.9711971193069777 1.3938468501173522
1.8394777362344745e-16 -2.787693700234704 0.23914631173810047
1.0000000000000007 -2.2103434310450782 -1.3938468501173515
2.4142135623730954 -1.3938468501173518 -0.23914631173810005
1.4142135623730954 1.9711971193069777 -1.3938468501173515
4.0599237854847876e-16 1.154700538379252 -2.548547388496603
1.0000000000000007 -0.5773502691896258 -2.548547388496603
2.4142135623730954 0.23914631173810036 -1.3938468501173515
1.7071067811865472 2.1402990980327403 0.5773502691896257
0.7071067811865472 1.5629488288431146 2.2103434310450782
1.7071067811865477 -0.16910197872576294 2.2103434310450782
2.707106781186547 0.4082482904638629 0.5773502691896257
-3.983249156101942 0.3945712836934463 -1.891481682060945
-3.983249156101942 -1.9148297930650564 -0.25848852020549284
-5.259391531017338 -1.1120102189077476 -1.5726199330768125
-3.2761423749153984 0.8028195741573094 2.8674091374807364
-3.6903559372884915 -1.7457278143392942 1.7127085991014848
-4.552284749830794 -0.7037619284438844 3.186270886464869
-3.2761423749153975 2.4358127360127613 1.712708599101485
-3.6903559372884898 2.1966664242746607 -1.074985101133219
-4.552284749830793 3.238632310170072 0.39857718623016525
-6.3570226039551585 -1.201396760387477 2.4825089580209836
-5.495093791412855 -2.2433626462828875 1.008946670657599
-6.77123616632825 -1.4405430721255779 -0.3051847422137206
-7.633164978870553 -0.3985771862301679 1.1683775451496636
-6.357022603955157 2.740997478226479 -0.3051847422137206
-5.495093791412854 1.6990315923310684 -1.778747029577105
-6.77123616632825 0.19245008972987465 -1.459885280592972
-7.633164978870553 1.2344159756252844 0.013677006770412059
-6.064129385141706 2.9100994569522416 1.666012377093257
-4.787987010226311 2.107279882794932 2.9801437899645773
-6.064129385141707 0.6006983801937379 3.29900553894871
-7.340271760057103 1.403517954351047 1.9848741260773899
-1.6499158227686077 -3.6468806006339314 -1.8914816820609457
-3.6499158227686093 -2.4921800622546826 -0.2584885202054933
-3.592724864350671 -3.998761564855874 -1.5726199330768136
-0.9428090415820636 -3.238632310170074 2.867409137480736
-3.3570226039551585 -2.3230780835289218 1.7127085991014843
-2.8856180831641267 -3.590513274392017 3.186270886464868
0.47140452079103223 -4.055128891097799 1.712708599101484
0.057190958417939086 -4.2942752028358955 -1.0749851011332199
0.5285954792089704 -5.5617103936989905 0.39857718623016386
-4.218951416497459 -4.904644687263335 2.482508958020982
-4.690355937288489 -3.63720949640024 1.0089466706575976
-4.633164978870552 -5.143790999001432 -0.3051847422137226
-4.16176045807952 -6.411226189864527 1.168377545149661
-0.8047378541243615 -6.875841806570309 -0.30518474221372305
-1.276142374915393 -5.608406615707213 -1.7787470295771066
-3.2189514164974558 -5.9602875799291555 -1.4598852805929745
-2.7475468957064244 -7.2277227707922505 0.013677006770409172
-0.5118446353109103 -6.706739827844547 1.6660123770932547
-0.5690355937288487 -5.200158325243356 2.9801437899645755
-2.511844635310912 -5.552039289465299 3.2990055389487076
-2.4546536768929736 -7.05862079206649 1.984874126077387
-1.6499158227686097 -0.5676791649559303 -4.068805897868213
-3.6499158227686097 0.5870213734233214 -2.4358127360127604
-3.5927248643506733 -0.14975977025837128 -4.2942752028358955
-0.9428090415820629 3.7829633641218887 -2.0976087785612356
-3.3570226039551576 2.389116514004536 -1.6193161550850346
-2.885618083164126 4.200882758819448 -2.3230780835289186
0.4714045207910318 2.966466783194163 -3.2523093169404875
0.057190958417936866 0.4179193946975588 -4.407009855319739
0.5285954792089682 2.2296856395124705 -5.1107717837636235
-4.218951416497459 3.9754134538517634 -3.7966403708923036
-4.690355937288491 2.1636472090368524 -3.092878442448419
-4.633164978870553 1.4268660653551595 -4.951340909271554
-4.161760458079523 3.238632310170071 -5.6551028377154395
-0.804737854124365 2.004216334544786 -6.584334071127008
-1.2761423749153962 0.1924500897298751 -5.880572142683123
-3.2189514164974593 0.6103694844274334 -6.1060414476508065
-2.7475468957064284 2.4221357292423447 -6.809803376094691
-0.511844635310913 3.8063114751260008 -5.767837490199282
-0.5690355937288494 4.543092618807694 -3.9093750233761466
-2.5118446353109123 4.961012013505252 -4.134844328343829
-2.4546536768929763 4.224230869823559 -5.993306795166966
-1.316582489435277 -1.1450294341455551 -4.068805897868213
-1.3165824894352764 -3.454430510904058 -2.435812736012761
-1.926058197684007 -3.0365111162064995 -4.294275202835896
2.8047378541243653 -2.7079782629886706 -2.097608778561236
0.39052429175127046 -4.101825113106022 -1.619316155085035
2.1952621458756356 -4.599459945049615 -2.3230780835289195
2.8047378541243653 -1.0749851011332183 -3.2523093169404875
0.39052429175127007 -0.15943087449206672 -4.407009855319739
2.195262145875635 -0.6570657064356591 -5.110771783763624
1.3333333333333335 -5.641425830945025 -3.796640370892305
-0.47140452079103135 -5.143790999001432 -3.09287844244842
-1.0808802290397617 -4.725871604303872 -4.951340909271556
0.7238576250846038 -5.2235064362474635 -5.655102837715441
1.3333333333333335 -1.6990315923310688 -6.584334071127008
-0.4714045207910311 -1.201396760387476 -5.880572142683124
-1.0808802290397612 -3.09287844244842 -6.106041447650808
0.7238576250846038 -3.5905132743920127 -6.809803376094693
3.040440114519881 -2.3464261945330325 -5.767837490199284
3.6499158227686106 -2.7643455892305915 -3.9093750233761475
3.040440114519882 -4.655827271291535 -4.1348443283438305
2.4309644062711504 -4.237907876593976 -5.993306795166967
-0.39052429175127007 0.15943087449206805 4.407009855319739
-2.804737854124365 1.0749851011332192 3.2523093169404875
-2.1952621458756347 0.6570657064356609 5.1107717837636235
-0.3905242917512695 4.101825113106022 1.6193161550850337
-2.8047378541243644 2.70797826298867 2.097608778561235
-2.1952621458756347 4.599459945049615 2.3230780835289178
1.3165824894352776 3.4544305109040594 2.4358127360127604
1.3165824894352771 1.1450294341455567 4.068805897868214
1.9260581976840077 3.036511116206501 4.294275202835896
-3.040440114519881 4.655827271291537 4.134844328343828
-3.64991582276861 2.7643455892305924 3.9093750233761453
-3.040440114519881 2.3464261945330342 5.767837490199281
-2.4309644062711504 4.2379078765939795 5.993306795166964
1.0808802290397614 3.0928784424484226 6.1060414476508065
0.47140452079103123 1.2013967603874784 5.880572142683124
-1.3333333333333335 1.6990315923310715 6.5843340711270075
-0.7238576250846038 3.590513274392016 6.80980337609469
1.0808802290397614 4.725871604303874 4.951340909271554
0.4714045207910319 5.143790999001433 3.092878442448418
-1.333333333333333 5.6414258309450265 3.7966403708923018
-0.7238576250846036 5.223506436247467 5.655102837715438
-5.110153114294267 -0.7692472591994168 -3.537369649561325
-5.110153114294268 -3.0786483359579204 -1.9043764877058738
-4.960914697571198 -2.735885376249589 -3.869126204190387
-8.76006893706288 -1.562395729123031 -0.4775104223507163
-6.621997749605181 -3.4071811891757506 -0.6369412968427817
-8.61083052033981 -3.5290338461732027 -0.809266976979778
-8.76006893706288 0.07059743273242125 -1.632210960729968
-6.621997749605179 0.5352130494382061 -3.424634997077485
-8.610830520339809 0.4133603924407532 -3.5969606772144815
-8.399775527382957 -4.677286981729991 -2.4331421343216184
-6.4109427566483275 -4.555434324732538 -2.2608164541846225
-6.261704339925258 -4.212671365024207 -4.225566170669136
-8.250537110659886 -4.334524022021659 -4.397891850806133
-8.399775527382955 -0.7348927431160346 -5.220835834556322
-6.410942756648326 -0.6130400861185816 -5.048510154419326
-6.261704339925257 -2.579678203168754 -5.380266709048387
-8.250537110659886 -2.7015308601662067 -5.552592389185383
-9.911620162693868 -1.0634255963338641 -3.9534006436932296
-10.060858579416939 -1.4061885560421956 -1.9886509272087167
-9.91162016269387 -3.3728266730923684 -2.320407481837778
-9.7623817459708 -3.030063713384037 -4.285157198322292
-0.057190958417936866 -0.4179193946975588 4.407009855319739
-0.47140452079103135 -2.9664667831941616 3.2523093169404875
-0.5285954792089682 -2.2296856395124696 5.110771783763623
3.3570226039551585 -2.3891165140045363 1.619316155085036
0.9428090415820638 -3.7829633641218887 2.097608778561236
2.8856180831641276 -4.200882758819446 2.32307808352892
3.6499158227686106 -0.5870213734233218 2.435812736012762
1.6499158227686106 0.5676791649559298 4.068805897868213
3.592724864350674 0.14975977025837084 4.294275202835897
2.5118446353109127 -4.961012013505252 4.1348443283438305
0.5690355937288494 -4.543092618807694 3.9093750233761466
0.5118446353109127 -3.8063114751260003 5.767837490199282
2.454653676892976 -4.224230869823559 5.993306795166966
3.2189514164974593 -0.6103694844274341 6.106041447650808
1.2761423749153962 -0.1924500897298751 5.880572142683124
0.8047378541243648 -2.0042163345447856 6.584334071127008
2.747546895706428 -2.4221357292423447 6.809803376094692
4.633164978870555 -1.4268660653551604 4.951340909271556
4.690355937288492 -2.163647209036853 3.092878442448421
4.21895141649746 -3.9754134538517634 3.796640370892305
4.161760458079523 -3.2386323101700714 5.65510283771544
-3.8507615832769337 -0.042137219751418487 4.938446103626626
-4.264975145650028 -2.5906846082480226 3.7837455652473766
-3.563451979096167 -1.9290598995555568 5.535920782409134
-8.20778418723209 -1.2435339801388967 3.2394145112955557
-6.069712999774392 -3.088319440191616 3.0799836368034916
-7.920474583051323 -3.130456659943035 3.8368891900780637
-7.914890968418638 0.5585611604423184 4.0559110922232815
-5.362606218587847 1.2623230888862036 5.051180756110466
-7.213367801864778 1.2201858691347849 5.808086309385039
-7.221264225405385 -3.9968731642902173 5.498342564914519
-5.370502642128454 -3.954735944538798 4.741437011639947
-4.668979475574593 -3.2931112358463315 6.493612228801704
-6.519741058851524 -3.3352484555977515 7.250517782076276
-6.5141574442188395 0.35376936478760235 7.469539684221494
-4.663395860941908 0.39590658453902194 6.712634130946922
-4.376086256761141 -1.4910160952651164 7.31010880972943
-6.226847840038073 -1.5331533150165362 8.067014363004
-8.318895298343204 -0.1438654671559907 6.765777755777609
-9.020418464897066 -0.8054901758484564 5.013602538615852
-8.733108860716298 -2.692412855652594 5.611077217398359
-8.031585694162438 -2.0307881469601297 7.363252434560117
-0.057190958417936866 4.294275202835897 1.0749851011332185
-0.4714045207910309 4.055128891097798 -1.712708599101485
-0.5285954792089682 5.561710393698991 -0.39857718623016664
3.357022603955158 2.32307808352892 -1.712708599101485
0.9428090415820636 3.238632310170072 -2.8674091374807364
2.885618083164127 3.5905132743920136 -3.1862708864648708
3.64991582276861 2.4921800622546826 0.2584885202054922
1.6499158227686102 3.646880600633934 1.8914816820609441
3.5927248643506737 3.998761564855876 1.5726199330768107
2.5118446353109127 5.552039289465296 -3.2990055389487125
0.5690355937288496 5.200158325243353 -2.980143789964578
0.5118446353109127 6.7067398278445465 -1.6660123770932598
2.454653676892976 7.058620792066489 -1.9848741260773932
3.2189514164974593 5.960287579929158 1.4598852805929685
1.2761423749153962 5.608406615707215 1.7787470295771028
0.8047378541243646 6.8758418065703095 0.3051847422137177
2.747546895706428 7.227722770792251 -0.013677006770416056
4.633164978870554 5.143790999001432 0.3051847422137175
4.690355937288491 3.6372094964002386 -1.008946670657601
4.218951416497459 4.904644687263332 -2.482508958020986
4.161760458079523 6.411226189864526 -1.1683775451496674
-3.8507615832769346 4.670057377782039 1.606421349440105
-4.264975145650026 4.430911066043937 -1.1812723507945986
-3.5634519790961665 5.862336133655903 0.026571812415341067
-8.20778418723209 3.468660617394556 -0.09261024289096742
-6.0697129997743895 3.9332762341003407 -1.8850342792384844
-7.9204745830513215 4.660939373268421 -1.6724597799157315
-7.914890968418638 3.6377625961203206 1.8785868764160099
-5.362606218587847 4.341524524564209 2.873856540303197
-7.213367801864779 5.069187663732288 3.0864310396259493
-7.221264225405384 6.516178138680324 -1.93550730237803
-5.370502642128452 5.788514999512245 -2.1480818017007826
-4.668979475574592 7.219940067124212 -0.9402376384908432
-6.519741058851524 7.947603206292291 -0.7276631391680902
-6.514157444218841 6.924426429144193 2.8233835171636503
-4.66339586094191 6.196763289976113 2.610809017840898
-4.376086256761142 7.389042045849977 1.0309594808161342
-6.226847840038074 8.116705185018056 1.2435339801388872
-8.318895298343206 6.426791597200597 2.1196215887197654
-9.020418464897064 4.99536652958863 0.9117774255098257
-8.733108860716296 6.187645285462494 -0.6680721115149381
-8.031585694162438 7.619070353074461 0.5397720516950015
3.6903559372884924 -2.1966664242746607 1.074985101133218
3.2761423749153975 -2.435812736012761 -1.7127085991014857
4.552284749830795 -3.2386323101700696 -0.39857718623016747
3.6903559372884893 1.7457278143392951 -1.7127085991014852
3.2761423749153957 -0.8028195741573085 -2.8674091374807364
4.552284749830792 0.703761928443886 -3.1862708864648708
3.983249156101942 1.9148297930650577 0.2584885202054922
3.9832491561019436 -0.3945712836934458 1.8914816820609441
5.25939153101734 1.112010218907749 1.5726199330768103
6.064129385141705 -0.6006983801937353 -3.2990055389487125
4.787987010226309 -2.10727988279493 -2.98014378996458
6.064129385141707 -2.9100994569522394 -1.666012377093261
7.340271760057101 -1.4035179543510443 -1.984874126077395
6.7712361663282525 -0.19245008972987265 1.459885280592968
5.495093791412858 -1.6990315923310675 1.7787470295771015
6.35702260395516 -2.7409974782264768 0.3051847422137164
7.633164978870555 -1.2344159756252817 -0.013677006770417721
6.771236166328252 1.4405430721255796 0.3051847422137164
5.495093791412854 2.243362646282889 -1.0089466706576014
6.357022603955157 1.2013967603874796 -2.482508958020987
7.633164978870553 0.3985771862301706 -1.168377545149669
2.119007534651722 -5.66988604392603 1.606421349440105
1.704793972278628 -5.909032355664126 -1.1812723507945995
3.295206027721379 -6.017208005891165 0.026571812415341733
-1.0999438818457383 -8.84247992362048 -0.09261024289096997
0.3714606389452948 -7.223163768535443 -1.8850342792384858
0.07625461122391908 -9.189801885585615 -1.6724597799157332
-0.8070506630322867 -8.673377944894721 1.8785868764160076
1.0785674201318398 -6.814915478071587 2.873856540303196
0.7833613924104641 -8.781553595121759 3.0864310396259484
2.0325436909792765 -9.511887335980981 -1.935507302378031
2.3277497187006517 -7.54524921893081 -2.1480818017007834
3.918161774143403 -7.653424869157847 -0.9402376384908421
3.6229557464220274 -9.62006298620802 -0.7276631391680893
2.7396504721658212 -9.103639045517124 2.8233835171636517
3.0348564998871974 -7.137000928466953 2.6108090178408987
4.2110549929568535 -7.484322890432088 1.0309594808161358
3.9158489652354773 -9.45096100748226 1.2435339801388885
1.4063171388324878 -10.417770458388441 2.119621588719765
-0.18409491661026234 -10.309594808161403 0.9117774255098241
0.9921035764593947 -10.656916770126537 -0.6680721115149394
2.5825156319021447 -10.765092420353575 0.5397720516950019
-8.633164978870552 -0.9759274554197941 2.801370707005114
-9.047378541243644 -1.215073767157895 0.013677006770410394
-10.047378541243646 -1.7924240363475212 1.6466701686258611
-8.633164978870552 2.9664667831941607 0.013677006770410838
-9.047378541243644 0.41791939469755734 -1.1410235316088408
-10.047378541243646 2.1499702022664335 -1.1410235316088422
-8.340271760057101 3.1355687619199237 1.9848741260773881
-8.340271760057103 0.8261676851614206 3.6178672879328406
-9.340271760057103 2.558218492730297 3.6178672879328397
-11.754485322430192 1.1643716426129436 -0.8028195741573187
-10.75448532243019 -0.567679164955933 -0.8028195741573179
-11.754485322430192 -1.1450294341455598 0.8301735876981331
-12.754485322430192 0.5870213734233172 0.8301735876981317
-11.047378541243651 1.572619933076807 3.9560712453843623
-10.04737854124365 -0.15943087449206939 3.956071245384364
-11.461592103616743 -0.9759274554197965 2.801370707005111
-12.461592103616741 0.7561233521490797 2.801370707005109
-11.047378541243651 3.205613094932259 2.801370707005111
-10.04737854124365 3.782963364121885 1.1683775451496603
-11.461592103616741 2.966466783194159 0.013677006770407285
-12.461592103616743 2.389116514004532 1.6466701686258576
-5.161760458079522 -6.988576459054157 2.8013707070051117
-5.575974020452615 -7.227722770792253 0.01367700677040773
-6.575974020452616 -7.805073039981881 1.6466701686258582
-1.7475468957064235 -8.959773578361128 0.013677006770407063
-4.161760458079518 -8.044219351719976 -1.1410235316088444
-3.161760458079518 -9.776270159288854 -1.1410235316088462
-1.4546536768929723 -8.790671599635369 1.984874126077385
-3.454653676892974 -7.635971061256119 3.617867287932838
-2.454653676892974 -9.368021868824997 3.617867287932836
-4.8688672392660655 -10.761868718942344 -0.8028195741573227
-5.868867239266066 -9.029817911373467 -0.802819574157321
-6.868867239266067 -9.607168180563095 0.8301735876981297
-5.868867239266066 -11.339218988131972 0.8301735876981279
-4.161760458079521 -10.353620428478486 3.9560712453843587
-5.161760458079522 -8.621569620909609 3.9560712453843614
-6.575974020452616 -9.438066201837335 2.8013707070051073
-5.575974020452616 -11.170117009406212 2.8013707070051055
-2.7475468957064253 -11.17011700940621 2.801370707005107
-1.7475468957064244 -10.592766740216582 1.1683775451496565
-3.1617604580795184 -11.409263321144309 0.013677006770403066
-4.161760458079519 -11.986613590333935 1.6466701686258538
2.11900753465172 3.4045105874846024 -4.810146043806714
1.704793972278625 0.855963198987999 -5.964846582185965
3.2952060277213757 2.030788146960131 -5.664220842229055
-1.099943881845741 2.8601795335327846 -8.367640102960918
0.37146063894529124 0.6304938940203155 -7.43840886954935
0.07625461122391486 1.4864570930083132 -9.221714901383258
-0.807050663032288 4.662274674113999 -7.5511435220331915
1.078567420131839 4.981136423098134 -5.467211750242373
0.7833613924104627 5.837099622086132 -7.2505177820762805
2.0325436909792716 1.3458153272635531 -9.613062483665473
2.3277497187006477 0.4898521282755546 -7.829756451831565
3.9181617741433987 1.6646770762476872 -7.529130711874654
3.6229557464220226 2.5206402752356847 -9.312436743708561
2.7396504721658195 5.696457856341372 -7.6418653643584955
3.034856499887196 4.840494657353373 -5.858559332524588
4.211054992956852 3.4667722168289017 -6.712634130946928
3.915848965235474 4.3227354158169 -8.495940162780835
1.4063171388324858 5.470988551373687 -9.11542765172188
-0.18409491661026522 4.296163603401555 -9.41605339167879
0.9921035764593907 2.9224411628770843 -10.270128190101131
2.582515631902141 4.097266110849215 -9.96950245014422
-5.161760458079524 4.9706831177389486 -5.6551028377154395
-5.575974020452619 2.4221357292423447 -6.80980337609469
-6.57597402045262 4.154186536811221 -6.809803376094689
-1.7475468957064293 2.999485998431971 -8.442796537950144
-4.161760458079524 1.6056391483146184 -7.964503914473943
-3.161760458079524 2.182989417504244 -9.597497076329395
-1.4546536768929772 4.8015811390131855 -7.626299957022419
-3.4546536768929768 5.956281677392438 -5.993306795166966
-2.4546536768929776 6.533631946582063 -7.626299957022417
-4.868867239266073 2.830384019706207 -10.41399365725712
-5.868867239266072 2.2530337505165807 -8.781000495401667
-6.868867239266072 3.9850845580854575 -8.781000495401667
-5.8688672392660735 4.562434827275084 -10.41399365725712
-4.1617604580795255 7.1810265487840255 -8.442796537950143
-5.161760458079525 6.603676279594399 -6.80980337609469
-6.57597402045262 5.787179698666673 -7.964503914473941
-5.575974020452621 6.364529967856298 -9.597497076329393
-2.7475468957064315 6.364529967856299 -9.597497076329395
-1.7475468957064306 4.632479160287423 -9.597497076329397
-3.161760458079526 3.815982579359696 -10.752197614708647
-4.161760458079526 5.548033386928573 -10.752197614708646
3.3323753365164928 4.1050488145172555 3.355925964910715
3.3323753365164968 1.7956477377587543 4.98891912676617
4.738692475348982 2.864185436069509 4.050569888840989
1.2919352219966167 4.241131578005214 7.729916604992646
2.4871973678722523 1.852015064000677 6.800685371581081
2.698252360829105 3.000268199557467 8.424560528922921
1.291935221996614 5.874124739860665 6.575216066613393
2.4871973678722465 5.794409302614628 4.012991671346372
2.698252360829099 6.9426624381714195 5.636866828688212
4.687085131563734 2.878415542560016 8.252234848785925
4.476030138606881 1.7301624070032249 6.628359691444085
5.882347277439366 2.79870010531398 5.690010453518903
6.0934022703962185 3.9469532408707697 7.313885610860742
4.6870851315637285 6.820809781173967 5.464541148551215
4.476030138606876 5.672556645617178 3.8406659912093764
5.882347277439363 4.431693267169431 4.53530991513965
6.093402270396217 5.579946402726221 6.159185072481489
3.8419071629194845 6.87717710741589 7.276307393366126
2.4355900240869994 5.808639409105136 8.214656631291307
3.841907162919488 4.567776030657389 8.90930055522158
5.248224301751973 5.636313728968143 7.9709513172964
1.7238576250846025 -6.955557243816342 -5.655102837715441
-0.6903559372884922 -6.04000301717519 -6.809803376094693
0.3096440627115069 -7.772053824744068 -6.809803376094694
1.7238576250846027 -3.0131630052023866 -8.442796537950146
-0.6903559372884922 -4.407009855319737 -7.964503914473944
0.30964406271150735 -3.829659586130112 -9.597497076329397
3.43096440627115 -3.6605576074043507 -7.626299957022421
3.4309644062711495 -5.969958684162854 -5.993306795166968
4.4309644062711495 -5.392608414973228 -7.626299957022422
0.016750843898053924 -5.631754726711327 -10.413993657257123
-0.9832491561019456 -6.209104995900953 -8.78100049540167
0.016750843898053702 -7.9411558034698295 -8.78100049540167
1.0167508438980528 -7.363805534280205 -10.413993657257123
4.138071187457696 -7.194703555554443 -8.442796537950148
3.1380711874576965 -7.772053824744068 -6.8098033760946945
1.723857625084601 -8.588550405671795 -7.964503914473946
2.7238576250846 -8.011200136482168 -9.597497076329399
4.138071187457696 -5.561710393698991 -9.5974970763294
3.1380711874576965 -3.8296595861301137 -9.597497076329399
1.7238576250846012 -4.646156167057839 -10.752197614708649
2.7238576250846003 -6.378206974626717 -10.75219761470865
-3.4309644062711513 5.969958684162857 5.993306795166962
-3.4309644062711504 3.6605576074043547 7.626299957022416
-4.4309644062711495 5.392608414973233 7.6262999570224155
0.6903559372884915 4.4070098553197425 7.96450391447394
-1.7238576250846034 3.0131630052023914 8.442796537950143
-0.30964406271150824 3.8296595861301177 9.597497076329393
0.6903559372884915 6.040003017175194 6.809803376094687
-1.7238576250846032 6.9555572438163455 5.655102837715436
-0.3096440627115076 7.772053824744072 6.8098033760946866
-1.723857625084602 4.646156167057845 10.752197614708644
-3.138071187457698 3.829659586130118 9.597497076329393
-4.138071187457697 5.561710393698997 9.597497076329393
-2.723857625084602 6.378206974626723 10.752197614708644
-1.7238576250846023 8.588550405671798 7.964503914473938
-3.138071187457698 7.772053824744073 6.809803376094687
-4.138071187457697 7.194703555554447 8.44279653795014
-2.723857625084602 8.011200136482174 9.59749707632939
-0.016750843898054812 7.941155803469835 8.781000495401663
0.9832491561019441 6.209104995900957 8.781000495401665
-0.016750843898055257 5.631754726711333 10.413993657257118
-1.0167508438980546 7.3638055342802105 10.413993657257116
3.454653676892977 -5.956281677392437 5.9933067951669665
1.4546536768929772 -4.8015811390131855 7.626299957022419
2.4546536768929776 -6.533631946582062 7.626299957022419
4.161760458079525 -1.6056391483146188 7.964503914473944
1.7475468957064297 -2.999485998431971 8.442796537950144
3.161760458079525 -2.182989417504245 9.597497076329397
5.57597402045262 -2.4221357292423447 6.809803376094693
5.161760458079525 -4.970683117738948 5.65510283771544
6.5759740204526205 -4.154186536811222 6.809803376094692
3.1617604580795264 -3.8159825793596966 10.752197614708649
1.7475468957064302 -4.632479160287423 9.597497076329397
2.7475468957064306 -6.3645299678563 9.597497076329397
4.161760458079526 -5.548033386928575 10.752197614708649
6.575974020452621 -5.787179698666674 7.964503914473944
5.1617604580795255 -6.603676279594401 6.809803376094692
4.1617604580795255 -7.1810265487840255 8.442796537950144
5.575974020452621 -6.364529967856299 9.597497076329397
6.8688672392660735 -3.9850845580854592 8.78100049540167
5.868867239266073 -2.253033750516582 8.78100049540167
4.8688672392660735 -2.8303840197062082 10.413993657257123
5.8688672392660735 -4.562434827275085 10.413993657257123
3.4546536768929763 7.635971061256117 -3.6178672879328446
1.454653676892975 8.790671599635367 -1.984874126077392
2.454653676892976 9.368021868824993 -3.617867287932844
4.161760458079522 8.044219351719978 1.1410235316088366
1.7475468957064266 8.959773578361126 -0.013677006770414835
3.161760458079521 9.776270159288853 1.1410235316088375
5.575974020452618 7.227722770792253 -0.013677006770415057
5.161760458079524 6.988576459054154 -2.8013707070051193
6.575974020452618 7.805073039981881 -1.6466701686258665
3.1617604580795207 11.409263321144305 -0.013677006770412392
1.7475468957064262 10.592766740216579 -1.168377545149665
2.7475468957064266 11.170117009406207 -2.801370707005116
4.161760458079521 11.986613590333933 -1.6466701686258636
6.575974020452618 9.438066201837334 -2.801370707005117
5.161760458079524 8.621569620909607 -3.9560712453843694
4.161760458079523 10.353620428478484 -3.9560712453843685
5.575974020452617 11.17011700940621 -2.8013707070051153
6.86886723926607 9.607168180563093 -0.8301735876981391
5.868867239266069 9.029817911373467 0.8028195741573123
4.868867239266068 10.761868718942344 0.8028195741573132
5.868867239266068 11.33921898813197 -0.8301735876981381
8.340271760057098 -0.8261676851614168 -3.6178672879328486
8.340271760057101 -3.13556876191992 -1.9848741260773966
9.3402717600571 -2.558218492730293 -3.6178672879328504
9.047378541243651 -0.4179193946975547 1.1410235316088324
8.633164978870557 -2.966466783194158 -0.013677006770419498
10.047378541243653 -2.149970202266431 1.1410235316088306
9.047378541243647 1.2150737671578977 -0.013677006770419053
8.63316497887055 0.9759274554197979 -2.8013707070051224
10.047378541243646 1.7924240363475252 -1.6466701686258722
11.461592103616747 -2.9664667831941545 -0.01367700677042305
10.047378541243651 -3.7829633641218825 -1.168377545149673
11.04737854124365 -3.2056130949322545 -2.8013707070051264
12.461592103616745 -2.3891165140045274 -1.6466701686258765
11.46159210361674 0.9759274554198007 -2.801370707005126
10.047378541243644 0.15943087449207405 -3.9560712453843756
11.047378541243646 -1.572619933076802 -3.9560712453843774
12.461592103616741 -0.756123352149075 -2.8013707070051272
11.754485322430195 1.1450294341455634 -0.8301735876981486
10.754485322430197 0.5676791649559361 0.8028195741573045
11.754485322430199 -1.16437164261294 0.8028195741573028
12.754485322430195 -0.5870213734233125 -0.8301735876981503
-14.030627697345588 1.3898409475806248 -0.4839578251731891
-14.030627697345588 -0.9195601291778783 1.1490353366822634
-15.306770072260983 -0.11674055502057024 -0.16509607618905697
-13.323520916159048 1.7980892380444884 4.274932994368493
-13.737734478532138 -0.7504581504521153 3.1202324559892407
-14.599663291074442 0.2915077354432931 4.593794743352625
-13.323520916159048 3.4310823998999407 3.1202324559892416
-13.73773447853214 3.1919360881618397 0.3325387557545376
-14.599663291074444 4.2339019740572486 1.8061010431179216
-16.404401145198808 -0.20612709650030125 3.8900328149087384
-15.542472332656502 -1.2480929823957103 2.4164705275453544
-16.818614707571896 -0.44527340823840156 1.102339114674034
-17.680543520114202 0.5966924776570065 2.575901402037418
-16.404401145198808 3.7362671421136535 1.1023391146740351
-15.542472332656502 2.694301256218245 -0.37122317268934957
-16.818614707571896 1.18771975361705 -0.0523614237052179
-17.680543520114202 2.229685639512459 1.4212008636581666
-16.111507926385357 3.9053691208394166 3.073536233981012
-14.835365551469962 3.1025495466821083 4.387667646852332
-16.111507926385357 1.5959680440809134 4.706529395836464
-17.387650301300752 2.3987876182382215 3.392397982965144
-3.685504620666779 -2.1278270848415755 -0.28445705037617364
-3.392611401853327 -1.9587251061158129 1.686740068930804
-3.685504620666779 0.4410870159107708 -2.1009536313038994
-3.392611401853327 2.2431821564919856 -1.2844570503761736
-1.4607597492751903 -3.412284135217748 -2.100953631303899
0.24634703191135654 -4.059678737419713 -1.2844570503761732
-2.9318516525781364 0.876208759912311 2.971197119306977
-2.9318516525781355 2.5092019217677626 1.8164965809277245
-4.874973311648284 -3.074080177766223 -1.6226610078277006
-6.386817946959197 -3.402613030984053 -0.35522581696460853
-1.4607597492751903 -0.843370034465402 -3.917450212231625
0.2463470319113561 0.1422285251880867 -4.255654169683151
-0.7071067811865466 -2.9771623912162095 2.9711971193069777
0.7071067811865483 -3.7936589721439358 1.8164965809277258
-4.874973311648283 -0.505166077013878 -3.4391575887554264
-6.386817946959196 0.7992942316237444 -3.3264229362715865
-4.121320343559643 -2.638958433764684 3.449489742783177
-5.926058197684007 -3.136593265708277 2.745727814339291
-0.24634703191135532 -0.14222852518808704 4.255654169683151
1.4607597492751916 0.8433700344654018 3.917450212231625
-0.707106781186547 3.7936589721439358 -1.8164965809277256
0.7071067811865478 2.97716239121621 -2.9711971193069773
-2.874973311648284 -3.969267692151626 -3.439157588755427
-2.5011998637950685 -5.9307937072249075 -3.3264229362715882
-3.660560594284453 0.19597543226343783 4.733946793159349
-5.172405229595366 1.50043574090106 4.84668144564319
-4.121320343559641 4.131862929595461 -1.3382039574515276
-5.926058197684005 3.6342280976518673 -2.0419658858954133
-0.24634703191135576 4.059678737419713 1.2844570503761732
1.4607597492751911 3.412284135217749 2.1009536313038994
2.9318516525781364 -2.5092019217677626 -1.816496580927726
2.9318516525781364 -0.8762087599123101 -2.9711971193069773
-2.8749733116482847 -1.919379639386972 -4.888647331538602
-2.5011998637950708 -1.1592503847011668 -6.700413576353512
-1.660560594284452 -3.2681261828743207 4.73394679315935
-1.2867871464312368 -5.229652197947602 4.846681445643189
-3.6605605942844517 4.397882694871238 1.7627496738523725
-5.172405229595364 4.069349841653408 3.0301848647154648
1.517638090205045 -5.635099579453989 -1.3382039574515285
0.18430475687171258 -6.949230992325306 -2.0419658858954146
3.3926114018533284 -2.2431821564919856 1.2844570503761732
3.68550462066678 -0.44108701591077104 2.100953631303899
-8.765149401442516 -1.3505245354490238 -0.17787930678075886
-8.765149401442516 0.28246862640642834 -1.3325798451600104
-1.2928932188134523 -1.0059652719092296 5.758890819541683
-0.4309644062711509 0.03600061398618021 7.2324531069050675
-1.66056059428445 5.5525832332504885 -1.5032366498585295
-1.2867871464312362 6.3127124879362935 -3.31500289467344
1.9783978394802335 -5.369079814178215 1.7627496738523716
0.9379577249603523 -6.514109248323773 3.030184864715462
-5.552163256854288 -6.915579781890676 -0.17787930678076305
-4.137949694481192 -7.7320763628184 -1.3325798451600148
1.517638090205042 0.6166957359184668 -5.758890819541682
0.18430475687170841 0.39122643095078313 -7.232453106905066
-8.304389652167327 -1.0845047701732464 2.9230743245231396
-8.011496433353877 0.7175903704079685 3.739570905450866
3.392611401853328 1.958725106115812 -1.686740068930804
3.68550462066678 2.1278270848415746 0.2844570503761734
-1.2928932188134519 5.764856091450913 0.971197119306975
-0.43096440627115046 6.806821977346323 2.4447594066703595
3.9783978394802335 -4.214379275798963 -1.5032366498585308
4.823575808124479 -4.270746602040885 -3.315002894673442
-5.0914035075790975 -6.649560016614905 2.923074324523137
-3.38429672639255 -7.2969546188168675 3.739570905450863
1.9783978394802324 3.4516296019465895 -4.474433769165509
0.9379577249603508 5.02825543756012 -5.131499475601168
-5.55216325685429 2.1374870418869802 -6.5793642484088934
-4.137949694481194 1.320990460959254 -7.734064786788145
3.099718183039877 1.5301101033962075 4.8886473315386025
2.2545402143956306 1.586477429638129 6.700413576353513
-8.304389652167325 3.117402492434551 -0.04812279478383852
-8.011496433353875 3.286504471160314 1.923074324523139
4.346065214951233 -4.002106417598539 0.9711971193069784
5.679398548284566 -3.7766371126308558 2.4447594066703635
-9.994745589455816 -2.8302325845125416 0.45424237327256956
-11.295535231809875 -2.674025411431707 -1.0568981315854307
3.9783978394802344 -0.012472013191165088 -4.4744337691655085
4.823575808124479 -1.7018325012885378 -5.131499475601167
-5.091403507579098 4.972420907915104 -5.294907198032721
-3.3842967263925514 5.958019467568592 -5.633111155484247
3.099718183039875 4.099024204148554 3.0721507506108754
2.2545402143956297 5.788384692245927 3.729216457046533
-0.9249635498929675 -5.87705794733785 -6.579364248408895
-0.9249635498929677 -4.244064785482399 -7.734064786788148
-3.46764785196036 3.340982572032416 7.449607736411972
-1.7605410707738125 2.693587969830453 8.266104317339696
-1.4524450738144108 -8.7505136479188 -0.04812279478384174
-1.1595518550009598 -8.581411669193038 1.923074324523136
-9.627078213984822 -2.6179597263121175 2.9286761424380785
-10.439712491649797 -2.1799159220216775 4.702864169758374
4.346065214951231 2.249688897773919 -3.4494897427831788
5.679398548284564 3.5638203106452373 -2.745727814339294
-9.994745589455814 1.371674678095258 -2.5169547460344077
-11.295535231809875 -0.10511131067935917 -2.8733947125131563
5.099718183039876 0.6349225890107983 3.072150750610877
6.140158297559757 -0.9417032466027326 3.729216457046536
1.7605410707738134 -6.895495232438249 -5.294907198032722
3.4676478519603604 -5.909896672784759 -5.633111155484248
-3.4676478519603604 5.909896672784763 5.633111155484244
-1.7605410707738125 6.895495232438251 5.294907198032718
1.159551855000963 -4.67356241719242 7.4496077364119735
1.4524450738144148 -2.871467276611205 8.2661043173397
-1.4524450738144155 2.871467276611204 -8.266104317339698
-1.159551855000963 4.673562417192419 -7.449607736411973
-9.627078213984818 3.633835589060334 -1.4920107196520807
-10.439712491649793 5.160541501254409 -0.4876230512512871
5.099718183039875 2.684810641775457 1.6226610078276993
6.140158297559756 3.8298400759210125 0.3552258169646063
-9.451673194279712 -5.784839684107565 -3.7242030584585453
-10.963517829590623 -4.4803793754699415 -3.611468405974705
-8.873425245896177 2.019069280297222 5.029629773741975
-9.978952742374604 0.6550179440064475 5.987321220134546
1.760541070773813 -2.693587969830449 -8.2661043173397
3.4676478519603604 -3.3409825720324124 -7.449607736411975
3.3842967263925523 -5.958019467568592 5.633111155484246
5.091403507579099 -4.972420907915103 5.294907198032721
1.1595518550009627 8.581411669193036 -1.9230743245231436
1.4524450738144146 8.7505136479188 0.048122794783833744
0.9249635498929674 4.2440647854824025 7.734064786788144
0.9249635498929675 5.877057947337854 6.579364248408892
-1.6665451736901615 -10.154212092060744 -1.4920107196520838
-0.7506962084546855 -11.621326976601667 -0.4876230512512896
-8.87342524589618 4.068957333061879 3.580140030958796
-9.978952742374606 5.426561266530188 2.613330580052611
-9.45167319427971 -1.5829324214997649 -6.695400177765523
-10.963517829590623 -1.9114652747175946 -5.427964986902431
-7.827917538660984 -4.847363919237906 7.203815295058425
-9.339762173971897 -3.5429036106002836 7.316549947542265
4.137949694481195 -1.3209904609592544 7.734064786788147
5.55216325685429 -2.1374870418869802 6.579364248408895
3.3842967263925523 7.296954618816864 -3.7395709054508703
5.091403507579098 6.6495600166149 -2.9230743245231436
8.011496433353877 -3.2865044711603106 -1.9230743245231465
8.304389652167329 -3.1174024924345485 0.04812279478383086
-1.6665451736901646 1.9780561673949137 -10.070819877087484
-0.7506962084546889 3.4140402372636847 -11.119233165805358
-0.9128922056015188 -9.719090348059213 3.580140030958794
-0.28993645917949534 -11.355307211325895 2.6133305800526103
-7.074264570572342 -0.21033491262856696 9.304768926362323
-8.879002424696706 -0.7079697445721601 8.601006997918438
-7.827917538660984 8.407610167147542 -2.1688667658767002
-9.339762173971895 8.07907731392971 -0.9014315750136082
4.137949694481195 7.732076362818403 1.3325798451600073
5.55216325685429 6.915579781890678 0.17787930678075575
8.011496433353875 -0.717590370407964 -3.7395709054508717
8.304389652167325 1.084504770173251 -2.9230743245231454
-13.732883161910424 -1.1325574209543952 1.1230668065115825
-13.439989943096974 -0.9634554422286326 3.09426392581856
1.2631481998480172 3.66951542525025 9.646274160686632
2.4068030019384 5.237023256350172 10.131014186985293
-0.9128922056015194 6.615085174004251 -7.969866245783584
-0.2899364591794964 6.248974103291808 -9.834776115429184
-7.074264570572345 8.842731911149087 2.9032839847341774
-8.879002424696708 8.345097079205491 2.1995220562902915
3.3672452205356214 -10.982980530783935 -2.1688667658766994
2.32680510601574 -12.128009964929493 -0.9014315750136084
8.76514940144252 -0.28246862640642545 1.3325798451600046
8.765149401442518 1.3505245354490267 0.17787930678075337
-13.732883161910426 1.43635667979795 -0.6934297744161434
-13.439989943096975 3.238451820379165 0.12306680651158239
1.2631481998480119 7.871422687858045 6.675077041379651
2.406803001938397 7.805937357102516 8.314517606057565
3.3672452205356165 1.6161663134059212 -11.077808936568433
2.326805106015735 3.192792149019452 -11.734874643004092
4.120898188624263 -10.547858786782406 2.9032839847341787
2.78756485529093 -11.861990199653722 2.199522056290292
-5.622520207354709 -12.611204025316978 -0.6934297744161464
-3.915413426168162 -13.258598627518941 0.12306680651157947
-12.979230193821785 1.8714784237994893 4.378720976194733
-12.979230193821785 3.504471585654942 3.224020437815483
6.380677812750316 3.3559724317058803 9.202857406829114
5.53549984410607 5.045332919803253 9.85992311326477
-5.622520207354718 3.5499628140839183 -12.121100438443666
-3.915413426168171 4.535561373737408 -12.459304395895193
-4.868867239266068 -12.176082281315447 4.37872097619473
-3.4546536768929723 -12.992578862243171 3.2240204378154784
4.12089818862426 6.253195320015261 -8.976855305264534
2.7875648552909267 6.027726015047577 -10.450417592627918
-1.9702046569959575 5.6586281802490115 12.459304395895193
-0.26309787580941046 6.6442267399025 12.121100438443666
6.380677812750308 7.557879694313674 6.231660287522129
5.535499844106065 7.614247020555595 8.04342653233704
-4.868867239266074 8.186991820693256 -10.020146807139767
-3.4546536768929803 7.37049523976553 -11.17484734551902
-1.9702046569959573 9.860535442856808 9.488107276588211
-0.26309787580941046 9.213140840654845 10.304603857515938
4.655709277662736 -8.310058627204855 -10.020146807139776
4.655709277662736 -6.677065465349403 -11.174847345519026
7.554371859932855 -6.636515005041309 9.488107276588218
7.847265078746307 -4.834419864460093 10.304603857515943
7.55437185993285 11.157644996215046 -3.0942639258185674
7.847265078746301 11.326746974940807 -1.1230668065115899
-3.7071067811865457 -2.14029909803274 -0.5773502691896251
-3.707106781186546 0.16910197872576305 -2.2103434310450774
-1.7071067811865461 -3.294999636411992 -2.2103434310450774
-3.7071067811865452 -3.2949996364119913 -2.210343431045077
-4.707106781186545 -1.5629488288431141 -2.210343431045077
-1.7071067811865464 -0.9855985596534884 -3.8433365929005294
-3.707106781186546 -0.9855985596534884 -3.8433365929005285
-2.707106781186546 -2.717649367222366 -3.843336592900529
-3.328427124746188 -1.9216682964502656 1.9711971193069766
-2.9142135623730945 0.6268790920463374 3.1258976576862296
-0.9142135623730931 -2.8372225230914165 3.125897657686228
-2.828427124746188 -2.787693700234705 3.7032479268758536
-3.8284271247461885 -1.055642892665828 3.7032479268758545
-0.49999999999999933 -0.28867513459481375 4.280598196065481
-2.414213562373094 -0.23914631173810208 4.857948465255106
-1.4142135623730936 -1.971197119306979 4.857948465255106
-3.328427124746189 2.4990185656398913 -1.1547005383792515
-2.914213562373094 2.7381648773779914 1.6329931618554523
-0.9142135623730936 3.8928654157572433 -1.6329931618554518
-2.828427124746188 4.420686862090157 -1.3938468501173518
-3.828427124746188 3.843336592900531 0.23914631173810008
-0.4999999999999989 4.1320117274953425 1.1547005383792517
-2.4142135623730936 4.659833173828257 1.393846850117352
-1.4142135623730931 5.237183443017882 -0.23914631173810047
0.5000000000000002 -4.1320117274953425 -1.1547005383792512
0.9142135623730949 -3.892865415757243 1.6329931618554525
2.914213562373095 -2.738164877377992 -1.6329931618554516
2.414213562373095 -4.659833173828256 -1.393846850117351
1.414213562373095 -5.237183443017882 0.23914631173810078
3.32842712474619 -2.4990185656398913 1.154700538379252
2.82842712474619 -4.420686862090156 1.3938468501173524
3.8284271247461903 -3.8433365929005303 -0.23914631173809983
-6.604569499661584 -3.428249799051458 -0.15943087449207116
-6.190355937288492 -3.189103487313359 2.6282628257426333
-8.742640687119282 -1.5834643389987388 -6.661338147750939e-15
-8.575974020452616 -3.57117106592462 0.145753867721643
-7.299831645537221 -4.373990640081931 1.459885280592963
-8.328427124746192 -1.3443180272606394 2.7876937002346978
-8.161760458079526 -3.332024754186521 2.933447567956347
-9.43790283299492 -2.5292051800292112 1.6193161550850277
0.5 0.28867513459481287 -4.280598196065481
0.9142135623730951 2.8372225230914165 -3.125897657686229
2.914213562373095 -0.6268790920463383 -3.1258976576862287
2.4142135623730954 0.23914631173810041 -4.857948465255107
1.4142135623730954 1.9711971193069782 -4.857948465255107
3.32842712474619 1.9216682964502652 -1.9711971193069775
2.8284271247461903 2.787693700234704 -3.703247926875855
3.82842712474619 1.0556428926658263 -3.7032479268758554
-6.604569499661585 0.9924370630386978 -3.2853285321783003
-6.190355937288491 3.540984451535301 -2.130627993799047
-8.742640687119284 0.5278214463329132 -1.4929044958307822
-8.575974020452616 1.3278084196417357 -3.3183477474161087
-7.299831645537219 2.8343899222429303 -3.6372094964002413
-8.32842712474619 3.076368834829516 -0.338203957451529
-8.161760458079522 3.8763558081383387 -2.1636472090368564
-9.437902832994919 2.3697743055371445 -1.8447854600527238
1.7071067811865472 0.9855985596534882 3.8433365929005303
1.7071067811865475 3.294999636411992 2.210343431045078
3.707106781186547 -0.16910197872576305 2.2103434310450782
3.7071067811865475 0.9855985596534882 3.8433365929005303
2.7071067811865475 2.717649367222366 3.8433365929005303
3.707106781186547 2.1402990980327403 0.5773502691896257
3.707106781186547 3.294999636411992 2.210343431045078
4.707106781186547 1.5629488288431141 2.2103434310450782
-2.4428090415820587 -6.2159434992861575 -3.2853285321783012
-0.028595479208963548 -7.13149772592731 -2.1306279937990498
-3.91421356237309 -7.835259654371195 -1.4929044958307858
-3.1380711874576925 -8.090915573728198 -3.318347747416113
-1.195262145875629 -7.7390346095062545 -3.6372094964002453
-1.4999999999999951 -8.750813881012348 -0.3382039574515341
-0.7238576250845974 -9.006469800369349 -2.1636472090368617
-2.6666666666666607 -9.358350764591293 -1.8447854600527296
-5.397462718475042 1.6893604880973723 4.8386062567877115
-5.397462718475042 3.998761564855876 3.20561309493226
-7.949747468305834 0.9855985596534873 3.843336592900524
-7.283080801639169 2.0742606675571222 5.382937310739527
-6.0069384267237735 3.580842170158317 5.064075561755395
-7.949747468305834 3.294999636411991 2.2103434310450716
-7.283080801639169 4.383661744315626 3.7499441488840746
-8.559223176554564 2.8770802417144314 4.068805897868208
-2.4428090415820622 -1.025456278276506 -6.955557243816341
-0.02859547920896799 0.36839057184084656 -7.433849867292542
-3.914213562373094 1.2042293612359631 -7.88478847722791
-3.1380711874576974 -0.43159640146797673 -8.734304273393445
-1.1952621458756336 -0.8495157961655353 -8.50883496842576
-1.4999999999999998 2.5980762113533156 -8.363081100704111
-0.7238576250846025 0.9622504486493757 -9.212596896869645
-2.6666666666666656 1.380169843346934 -9.438066201837328
-1.235702260395516 -5.519020074227491 4.838606256787711
0.7642977396044854 -6.67372061260674 3.2056130949322577
-3.121320343559641 -7.377482541050626 3.8433365929005223
-1.8451779686442453 -7.344463325812819 5.382937310739525
0.09763107293781759 -6.992582361590876 5.064075561755393
-1.1213203435596395 -8.532183079429876 2.2103434310450703
0.154822031355756 -8.499163864192068 3.749944148884072
-1.7879870102263071 -8.851044828414011 4.068805897868205
-0.3047378541243655 0.20895969734878284 7.433849867292543
2.1094757082487288 1.6028065474661342 6.955557243816342
-1.4999999999999998 2.59807621135332 8.36308110070411
-0.4714045207910319 1.108004316371031 9.212596896869645
1.3333333333333326 0.6103694844274383 8.508834968425761
0.9142135623730945 3.9919230614706716 7.884788477227908
1.9428090415820625 2.5018511664883825 8.734304273393445
0.138071187457698 2.9994859984319753 9.438066201837326
-1.2357022603955163 6.401555085630829 -3.590513274392012
0.764297739604483 5.246854547251578 -5.223506436247465
-3.121320343559643 6.082693336646695 -5.67444504618283
-1.8451779686442469 7.523236408772272 -5.1301139922310135
0.09763107293781625 7.105317014074713 -4.90464468726333
-1.121320343559643 4.927992798267444 -7.307438208038284
0.1548220313557529 6.368535870393021 -6.763107154086466
-1.7879870102263102 6.78645526509058 -6.9885764590541495
-0.3047378541243648 6.939047636197441 2.674959047750858
2.1094757082487297 6.0234934095562895 3.8296595861301097
-1.5 7.018763073443475 5.2371834430178765
-0.4714045207910319 8.316384878695889 4.115502119876433
1.333333333333333 7.818750046752297 3.4117401914325503
0.9142135623730945 6.103208846802324 6.39188398139713
1.9428090415820627 7.400830652054738 5.270202658255687
0.13807118745769786 7.89846548399833 5.973964586699569
4.926058197684008 -4.270927091831786 -3.590513274392013
4.926058197684007 -1.9615260150732827 -5.223506436247466
3.707106781186547 -5.744489379195171 -5.674445046182833
5.592724864350673 -5.359589199735421 -5.130113992231015
6.202200572599403 -3.4681075176744764 -4.904644687263333
3.707106781186547 -3.435088302436667 -7.307438208038286
5.592724864350673 -3.0501881229769174 -6.763107154086469
4.983249156101943 -4.941669805037861 -6.988576459054152
5.857022603955158 -3.733434541265175 2.6749590477508622
6.271236166328252 -1.1848871527685716 3.8296595861301133
5.32842712474619 -4.808419642398393 5.237183443017882
6.966498312203887 -4.566440729811805 4.115502119876439
7.437902832994919 -2.7546744849968947 3.4117401914325542
5.742640687119284 -2.25987225390179 6.391883981397133
7.380711874576982 -2.017893341315202 5.27020265825569
6.909307353785951 -3.829659586130113 5.973964586699575
-11.467175718249427 -2.6470519344899444 -1.294007003278444
-11.467175718249425 -0.337650857731441 -2.927000165133896
-11.168698884803288 -4.270927091831785 -3.590513274392019
-12.724254440358845 -3.545152353229362 -2.5641127958326853
-12.873492857081912 -1.5785142361791895 -2.2323562412036235
-11.168698884803286 -1.9615260150732818 -5.223506436247471
-12.724254440358841 -1.235751276470858 -4.197105957688137
-12.575016023635774 -3.2023893935210306 -4.528862512317199
-10.536211311978285 -2.109559383923335 4.971465318864433
-10.12199774960519 0.43898800457326903 6.1261658572436835
-9.547378541243654 -3.334857355035007 7.321115214808698
-11.350480992505638 -2.752003883305747 6.681503316274771
-11.637790596686406 -0.865081203501609 6.0840286374922625
-9.13316497887056 -0.7863099665384032 8.475815753187948
-10.936267430132544 -0.20345649480914307 7.836203854654021
-10.648957825951777 -2.0903791746132816 8.433678533436527
5.8570226039551585 3.766453756502985 -2.6282628257426364
6.2712361663282525 4.005600068241085 0.1594308744920674
5.328427124746189 6.5404704499672714 -2.787693700234703
6.966498312203887 5.402279519206925 -2.933447567956353
7.437902832994919 4.134844328343831 -1.4598852805929678
5.742640687119284 6.7796167617053715 1.1102230246251565e-15
7.380711874576982 5.641425830945025 -0.14575386772164922
6.90930735378595 6.908861021808118 -1.6193161550850341
-10.53621131197828 5.390328913844817 -0.3317565546290724
-10.121997749605187 5.62947522558292 2.455937145605631
-9.547378541243653 8.014032737330648 -0.7037619284438965
-11.350480992505636 7.216716365712971 -0.36744637155803095
-11.637790596686404 6.024437609839107 1.2124031654667329
-9.133164978870562 8.253179049068752 2.083931771790807
-10.936267430132544 7.455862677451075 2.420247328676673
-10.648957825951777 8.64814143332494 0.840397791651909
-0.5999438818457379 -11.81979111273657 -0.3317565546290743
-0.1857303194726445 -11.580644800998474 2.45593714560563
2.1666666666666687 -12.275288724928746 -0.7037619284438964
0.5746192083615363 -13.438163067538778 -0.3674463715580315
-0.6015792847081205 -13.090841105573642 1.212403165466732
2.5808802290397628 -12.036142413190648 2.083931771790808
0.9888327707346299 -13.199016755800681 2.420247328676673
2.165031263804287 -13.546338717765817 0.8403977916519099
-0.5999438818457412 3.627147291603796 -11.254391448909045
-0.18573031947264607 6.1756946801004 -10.099690910529795
2.166666666666665 3.4282497990514567 -11.807840507374475
0.5746192083615334 4.13295592777817 -12.79210376618239
-0.6015792847081223 5.506678368302641 -11.938028967760049
2.580880229039761 5.97679718754806 -10.653139968995225
0.9888327707346287 6.681503316274774 -11.637403227803139
2.165031263804284 5.307780875750303 -12.49147802622548
2.58482844081007 5.465876449396806 10.17940634777582
2.5848284408100666 7.775277526155308 8.546413185920365
5.397462718475044 5.293550769259814 9.935701033780912
4.1403839963656255 6.191651187999232 11.205806826335152
2.7340668575331373 7.432514566446979 10.511162902404878
5.39746271847504 7.602951846018316 8.302707871925458
4.140383996365622 8.501052264757734 9.572813664479698
5.546701135198111 7.260188886309987 10.267457588409972
4 0 1 2 3
4 4 5 6 7
4 8 9 10 11
4 12 13 14 15
4 16 17 18 19
4 20 21 22 23
4 5 1 2 6
4 9 1 0 10
4 13 2 3 14
4 4 5 9 8
4 17 0 3 18
4 7 6 13 12
4 21 4 7 22
4 11 10 17 16
4 21 8 11 20
4 15 14 18 19
4 22 12 15 23
4 20 16 19 23
3 9 1 5
3 13 2 6
3 17 0 10
3 18 3 14
3 21 4 8
3 22 7 12
3 20 11 16
3 23 15 19
4 24 1 25 26
4 27 5 28 29
4 30 9 31 32
4 33 34 35 36
4 37 38 39 40
4 41 42 43 44
4 25 1 5 28
4 24 1 9 31
4 27 5 9 30
4 34 25 26 35
4 38 24 26 39
4 29 28 34 33
4 42 27 29 43
4 32 31 38 37
4 42 30 32 41
4 36 35 39 40
4 43 33 36 44
4 41 37 40 44
3 9 1 5
3 34 25 28
3 38 24 31
3 42 27 30
3 39 26 35
3 43 29 33
3 41 32 37
3 44 36 40
4 45 2 46 47
4 48 6 49 50
4 51 13 52 53
4 54 55 56 57
4 58 59 60 61
4 62 63 64 65
4 6 2 46 49
4 45 2 13 52
4 47 46 55 56
4 48 6 13 51
4 50 49 55 54
4 59 45 47 60
4 63 48 50 64
4 53 52 59 58
4 63 51 53 62
4 57 56 60 61
4 64 54 57 65
4 62 58 61 65
3 13 2 6
3 55 46 49
3 59 45 52
3 60 47 56
3 63 48 51
3 64 50 54
3 62 53 58
3 65 57 61
4 66 0 67 68
4 69 10 70 71
4 72 17 73 74
4 75 76 77 78
4 79 80 81 82
4 83 84 85 86
4 10 0 67 70
4 66 0 17 73
4 68 67 76 77
4 69 10 17 72
4 71 70 76 75
4 80 66 68 81
4 84 69 71 85
4 74 73 80 79
4 84 72 74 83
4 78 77 81 82
4 85 75 78 86
4 83 79 82 86
3 17 0 10
3 76 67 70
3 80 66 73
3 81 68 77
3 84 69 72
3 85 71 75
3 83 74 79
3 86 78 82
4 87 3 88 89
4 90 14 91 92
4 93 18 94 95
4 96 97 98 99
4 100 101 102 103
4 104 105 106 107
4 14 3 88 91
4 18 3 87 94
4 89 88 97 98
4 90 14 18 93
4 101 87 89 102
4 92 91 97 96
4 95 94 101 100
4 105 90 92 106
4 105 93 95 104
4 99 98 102 103
4 106 96 99 107
4 104 100 103 107
3 18 3 14
3 97 88 91
3 101 87 94
3 102 89 98
3 105 90 93
3 106 92 96
3 104 95 100
3 107 99 103
4 108 4 109 110
4 111 8 112 113
4 114 21 115 116
4 117 118 119 120
4 121 122 123 124
4 125 126 127 128
4 8 4 109 112
4 108 4 21 115
4 110 109 118 119
4 111 8 21 114
4 113 112 118 117
4 122 108 110 123
4 126 111 113 127
4 116 115 122 121
4 126 114 116 125
4 120 119 123 124
4 127 117 120 128
4 125 121 124 128
3 21 4 8
3 118 109 112
3 122 108 115
3 123 110 119
3 126 111 114
3 127 113 117
3 125 116 121
3 128 120 124
4 129 26 130 131
4 132 35 133 134
4 135 39 136 137
4 138 139 140 141
4 142 143 144 145
4 146 147 148 149
4 35 26 130 133
4 39 26 129 136
4 139 130 131 140
4 132 35 39 135
4 143 129 131 144
4 134 133 139 138
4 137 136 143 142
4 147 132 134 148
4 141 140 144 145
4 147 135 137 146
4 148 138 141 149
4 146 142 145 149
3 39 26 35
3 139 130 133
3 143 129 136
3 144 131 140
3 147 132 135
3 148 134 138
3 146 137 142
3 149 141 145
4 150 7 151 152
4 153 12 154 155
4 156 22 157 158
4 159 160 161 162
4 163 164 165 166
4 167 168 169 170
4 12 7 151 154
4 22 7 150 157
4 152 151 160 161
4 153 12 22 156
4 164 150 152 165
4 155 154 160 159
4 158 157 164 163
4 168 153 155 169
4 168 156 158 167
4 162 161 165 166
4 169 159 162 170
4 167 163 166 170
3 22 7 12
3 160 151 154
3 164 150 157
3 165 152 161
3 168 153 156
3 169 155 159
3 167 158 163
3 170 162 166
4 171 29 172 173
4 174 33 175 176
4 177 43 178 179
4 180 181 182 183
4 184 185 186 187
4 188 189 190 191
4 33 29 172 175
4 43 29 171 178
4 181 172 173 182
4 174 33 43 177
4 185 171 173 186
4 176 175 181 180
4 179 178 185 184
4 189 174 176 190
4 183 182 186 187
4 189 177 179 188
4 190 180 183 191
4 188 184 187 191
3 43 29 33
3 181 172 175
3 185 171 178
3 186 173 182
3 189 174 177
3 190 176 180
3 188 179 184
3 191 183 187
4 192 11 193 194
4 195 16 196 197
4 198 20 199 200
4 201 202 203 204
4 205 206 207 208
4 209 210 211 212
4 16 11 193 196
4 20 11 192 199
4 194 193 202 203
4 195 16 20 198
4 206 192 194 207
4 197 196 202 201
4 200 199 206 205
4 210 195 197 211
4 210 198 200 209
4 204 203 207 208
4 211 201 204 212
4 209 205 208 212
3 20 11 16
3 202 193 196
3 206 192 199
3 207 194 203
3 210 195 198
3 211 197 201
3 209 200 205
3 212 204 208
4 213 32 214 215
4 216 37 217 218
4 219 41 220 221
4 222 223 224 225
4 226 227 228 229
4 230 231 232 233
4 37 32 214 217
4 41 32 213 220
4 223 214 215 224
4 216 37 41 219
4 227 213 215 228
4 218 217 223 222
4 221 220 227 226
4 231 216 218 232
4 225 224 228 229
4 231 219 221 230
4 232 222 225 233
4 230 226 229 233
3 41 32 37
3 223 214 217
3 227 213 220
3 228 215 224
3 231 216 219
3 232 218 222
3 230 221 226
3 233 225 229
4 234 15 235 236
4 237 19 238 239
4 240 23 241 242
4 243 244 245 246
4 247 248 249 250
4 251 252 253 254
4 19 15 235 238
4 23 15 234 241
4 237 19 23 240
4 236 235 244 245
4 248 234 236 249
4 239 238 244 243
4 252 237 239 253
4 242 241 248 247
4 242 240 252 251
4 246 245 249 250
4 246 243 253 254
4 250 247 251 254
3 23 15 19
3 244 235 238
3 248 234 241
3 252 237 240
3 249 236 245
3 253 239 243
3 251 242 247
3 254 246 250
4 255 53 256 257
4 258 58 259 260
4 261 62 262 263
4 264 265 266 267
4 268 269 270 271
4 272 273 274 275
4 58 53 256 259
4 62 53 255 262
4 265 256 257 266
4 258 58 62 261
4 269 255 257 270
4 260 259 265 264
4 263 262 269 268
4 273 258 260 274
4 267 266 270 271
4 273 261 263 272
4 274 264 267 275
4 272 268 271 275
3 62 53 58
3 265 256 259
3 269 255 262
3 270 257 266
3 273 258 261
3 274 260 264
3 272 263 268
3 275 267 271
4 276 36 277 278
4 279 40 280 281
4 282 44 283 284
4 285 286 287 288
4 289 290 291 292
4 293 294 295 296
4 40 36 277 280
4 44 36 276 283
4 279 40 44 282
4 278 277 286 287
4 290 276 278 291
4 281 280 286 285
4 294 279 281 295
4 284 283 290 289
4 284 282 294 293
4 288 287 291 292
4 288 285 295 296
4 292 289 293 296
3 44 36 40
3 286 277 280
3 290 276 283
3 294 279 282
3 291 278 287
3 295 281 285
3 293 284 289
3 296 288 292
4 297 57 298 299
4 300 61 301 302
4 303 65 304 305
4 306 307 308 309
4 310 311 312 313
4 314 315 316 317
4 61 57 298 301
4 65 57 297 304
4 307 298 299 308
4 300 61 65 303
4 311 297 299 312
4 302 301 307 306
4 315 300 302 316
4 305 304 311 310
4 305 303 315 314
4 309 308 312 313
4 316 306 309 317
4 314 310 313 317
3 65 57 61
3 307 298 301
3 311 297 304
3 312 299 308
3 315 300 303
3 316 302 306
3 314 305 310
3 317 309 313
4 318 74 319 320
4 321 79 322 323
4 324 83 325 326
4 327 328 329 330
4 331 332 333 334
4 335 336 337 338
4 79 74 319 322
4 83 74 318 325
4 328 319 320 329
4 321 79 83 324
4 332 318 320 333
4 323 322 328 327
4 326 325 332 331
4 336 321 323 337
4 330 329 333 334
4 336 324 326 335
4 337 327 330 338
4 335 331 334 338
3 83 74 79
3 328 319 322
3 332 318 325
3 333 320 329
3 336 321 324
3 337 323 327
3 335 326 331
3 338 330 334
4 339 78 340 341
4 342 82 343 344
4 345 86 346 347
4 348 349 350 351
4 352 353 354 355
4 356 357 358 359
4 82 78 340 343
4 86 78 339 346
4 349 340 341 350
4 342 82 86 345
4 353 339 341 354
4 344 343 349 348
4 357 342 344 358
4 347 346 353 352
4 347 345 357 356
4 351 350 354 355
4 358 348 351 359
4 356 352 355 359
3 86 78 82
3 349 340 343
3 353 339 346
3 354 341 350
3 357 342 345
3 358 344 348
3 356 347 352
3 359 351 355
4 360 116 361 362
4 363 121 364 365
4 366 125 367 368
4 369 370 371 372
4 373 374 375 376
4 377 378 379 380
4 121 116 361 364
4 125 116 360 367
4 370 361 362 371
4 363 121 125 366
4 374 360 362 375
4 365 364 370 369
4 368 367 374 373
4 378 363 365 379
4 372 371 375 376
4 378 366 368 377
4 379 369 372 380
4 377 373 376 380
3 125 116 121
3 370 361 364
3 374 360 367
3 375 362 371
3 378 363 366
3 379 365 369
3 377 368 373
3 380 372 376
4 381 99 382 383
4 384 103 385 386
4 387 107 388 389
4 390 391 392 393
4 394 395 396 397
4 398 399 400 401
4 103 99 382 385
4 107 99 381 388
4 391 382 383 392
4 384 103 107 387
4 395 381 383 396
4 386 385 391 390
4 399 384 386 400
4 389 388 395 394
4 389 387 399 398
4 393 392 396 397
4 393 390 400 401
4 398 394 397 401
3 107 99 103
3 391 382 385
3 395 381 388
3 396 383 392
3 399 384 387
3 400 386 390
3 398 389 394
3 401 393 397
4 402 120 403 404
4 405 124 406 407
4 408 128 409 410
4 411 412 413 414
4 415 416 417 418
4 419 420 421 422
4 124 120 403 406
4 128 120 402 409
4 412 403 404 413
4 405 124 128 408
4 416 402 404 417
4 407 406 412 411
4 420 405 407 421
4 410 409 416 415
4 410 408 420 419
4 414 413 417 418
4 421 411 414 422
4 419 415 418 422
3 128 120 124
3 412 403 406
3 416 402 409
3 417 404 413
3 420 405 408
3 421 407 411
3 419 410 415
3 422 414 418
4 423 162 424 425
4 426 166 427 428
4 429 170 430 431
4 432 433 434 435
4 436 437 438 439
4 440 441 442 443
4 166 162 424 427
4 170 162 423 430
4 433 424 425 434
4 426 166 170 429
4 437 423 425 438
4 428 427 433 432
4 441 426 428 442
4 431 430 437 436
4 431 429 441 440
4 435 434 438 439
4 435 432 442 443
4 440 436 439 443
3 170 162 166
3 433 424 427
3 437 423 430
3 438 425 434
3 441 426 429
3 442 428 432
3 440 431 436
3 443 435 439
4 444 204 445 446
4 447 208 448 449
4 450 212 451 452
4 453 454 455 456
4 457 458 459 460
4 461 462 463 464
4 208 204 445 448
4 212 204 444 451
4 454 445 446 455
4 447 208 212 450
4 458 444 446 459
4 449 448 454 453
4 462 447 449 463
4 452 451 458 457
4 452 450 462 461
4 456 455 459 460
4 456 453 463 464
4 461 457 460 464
3 212 204 208
3 454 445 448
3 458 444 451
3 459 446 455
3 462 447 450
3 463 449 453
3 461 452 457
3 464 456 460
4 465 246 466 467
4 468 250 469 470
4 471 254 472 473
4 474 475 476 477
4 478 479 480 481
4 482 483 484 485
4 250 246 466 469
4 254 246 465 472
4 475 466 467 476
4 468 250 254 471
4 479 465 467 480
4 470 469 475 474
4 483 468 470 484
4 473 472 479 478
4 483 471 473 482
4 477 476 480 481
4 477 474 484 485
4 481 478 482 485
3 254 246 250
3 475 466 469
3 479 465 472
3 480 467 476
3 483 468 471
3 484 470 474
3 482 473 478
3 485 477 481
4 486 288 487 488
4 489 292 490 491
4 492 296 493 494
4 495 496 497 498
4 499 500 501 502
4 503 504 505 506
4 292 288 487 490
4 296 288 486 493
4 496 487 488 497
4 489 292 296 492
4 500 486 488 501
4 491 490 496 495
4 504 489 491 505
4 494 493 500 499
4 504 492 494 503
4 498 497 501 502
4 505 495 498 506
4 503 499 502 506
3 296 288 292
3 496 487 490
3 500 486 493
3 501 488 497
3 504 489 492
3 505 491 495
3 503 494 499
3 506 498 502
3 507 1 2
3 508 5 6
4 5 1 2 6
4 507 1 5 508
4 6 2 507 508
3 509 1 0
3 510 9 10
4 9 1 0 10
4 509 1 9 510
4 10 0 509 510
3 511 2 3
3 512 13 14
4 13 2 3 14
4 511 2 13 512
4 14 3 511 512
3 513 5 4
3 514 9 8
4 4 5 9 8
4 513 5 9 514
4 8 4 513 514
3 515 25 26
3 516 34 35
4 34 25 26 35
4 515 25 34 516
4 35 26 515 516
3 517 0 3
3 518 17 18
4 17 0 3 18
4 517 0 17 518
4 18 3 517 518
3 519 6 7
3 520 13 12
4 7 6 13 12
4 519 6 13 520
4 12 7 519 520
3 521 24 26
3 522 38 39
4 38 24 26 39
4 521 24 38 522
4 39 26 521 522
3 523 28 29
3 524 34 33
4 29 28 34 33
4 523 28 34 524
4 33 29 523 524
3 525 4 7
3 526 21 22
4 21 4 7 22
4 525 4 21 526
4 22 7 525 526
3 527 10 11
3 528 17 16
4 11 10 17 16
4 527 10 17 528
4 16 11 527 528
3 529 45 47
3 530 59 60
4 59 45 47 60
4 529 45 59 530
4 60 47 529 530
3 531 27 29
3 532 42 43
4 42 27 29 43
4 531 27 42 532
4 43 29 531 532
3 533 31 32
3 534 38 37
4 32 31 38 37
4 533 31 38 534
4 37 32 533 534
3 535 8 11
3 536 21 20
4 21 8 11 20
4 535 8 21 536
4 20 11 535 536
3 537 14 15
3 538 18 19
4 15 14 18 19
4 537 14 18 538
4 19 15 537 538
3 539 66 68
3 540 80 81
4 80 66 68 81
4 80 66 539 540
4 81 68 539 540
3 541 48 50
3 542 63 64
4 63 48 50 64
4 541 48 63 542
4 64 50 541 542
3 543 30 32
3 544 42 41
4 42 30 32 41
4 543 30 42 544
4 41 32 543 544
3 545 52 53
3 546 59 58
4 53 52 59 58
4 545 52 59 546
4 58 53 545 546
3 547 12 15
3 548 22 23
4 22 12 15 23
4 547 12 22 548
4 23 15 547 548
3 549 35 36
3 550 39 40
4 36 35 39 40
4 549 35 39 550
4 40 36 549 550
3 551 108 110
3 552 122 123
4 122 108 110 123
4 122 108 551 552
4 123 110 551 552
3 553 69 71
3 554 84 85
4 84 69 71 85
4 553 69 84 554
4 85 71 553 554
3 555 51 53
3 556 63 62
4 63 51 53 62
4 555 51 63 556
4 62 53 555 556
3 557 56 57
3 558 60 61
4 57 56 60 61
4 557 56 60 558
4 61 57 557 558
3 559 73 74
3 560 80 79
4 74 73 80 79
4 559 73 80 560
4 79 74 559 560
3 561 33 36
3 562 43 44
4 43 33 36 44
4 561 33 43 562
4 44 36 561 562
3 563 16 19
3 564 20 23
4 20 16 19 23
4 563 16 20 564
4 563 19 23 564
3 565 111 113
3 566 126 127
4 126 111 113 127
4 126 111 565 566
4 127 113 565 566
3 567 90 92
3 568 105 106
4 105 90 92 106
4 567 90 105 568
4 106 92 567 568
3 569 54 57
3 570 64 65
4 64 54 57 65
4 569 54 64 570
4 65 57 569 570
3 571 72 74
3 572 84 83
4 84 72 74 83
4 571 72 84 572
4 83 74 571 572
3 573 77 78
3 574 81 82
4 78 77 81 82
4 573 77 81 574
4 82 78 573 574
3 575 115 116
3 576 122 121
4 116 115 122 121
4 575 115 122 576
4 121 116 575 576
3 577 37 40
3 578 41 44
4 41 37 40 44
4 577 37 41 578
4 577 40 44 578
3 579 153 155
3 580 168 169
4 168 153 155 169
4 168 153 579 580
4 169 155 579 580
3 581 132 134
3 582 147 148
4 147 132 134 148
4 581 132 147 582
4 148 134 581 582
3 583 93 95
3 584 105 104
4 105 93 95 104
4 583 93 105 584
4 104 95 583 584
3 585 75 78
3 586 85 86
4 85 75 78 86
4 585 75 85 586
4 86 78 585 586
3 587 114 116
3 588 126 125
4 126 114 116 125
4 587 114 126 588
4 125 116 587 588
3 589 98 99
3 590 102 103
4 99 98 102 103
4 589 98 102 590
4 103 99 589 590
3 591 119 120
3 592 123 124
4 120 119 123 124
4 591 119 123 592
4 124 120 591 592
3 593 58 61
3 594 62 65
4 62 58 61 65
4 593 58 62 594
4 593 61 65 594
3 595 174 176
3 596 189 190
4 189 174 176 190
4 189 174 595 596
4 190 176 595 596
3 597 195 197
3 598 210 211
4 210 195 197 211
4 210 195 597 598
4 211 197 597 598
3 599 135 137
3 600 147 146
4 147 135 137 146
4 599 135 147 600
4 146 137 599 600
3 601 156 158
3 602 168 167
4 168 156 158 167
4 601 156 168 602
4 167 158 601 602
3 603 96 99
3 604 106 107
4 106 96 99 107
4 603 96 106 604
4 107 99 603 604
3 605 117 120
3 606 127 128
4 127 117 120 128
4 605 117 127 606
4 128 120 605 606
3 607 161 162
3 608 165 166
4 162 161 165 166
4 607 161 165 608
4 166 162 607 608
3 609 79 82
3 610 83 86
4 83 79 82 86
4 609 79 83 610
4 609 82 86 610
3 611 216 218
3 612 231 232
4 231 216 218 232
4 231 216 611 612
4 232 218 611 612
3 613 198 200
3 614 210 209
4 210 198 200 209
4 613 198 210 614
4 209 200 613 614
3 615 138 141
3 616 148 149
4 148 138 141 149
4 615 138 148 616
4 149 141 615 616
3 617 177 179
3 618 189 188
4 189 177 179 188
4 617 177 189 618
4 188 179 617 618
3 619 100 103
3 620 104 107
4 104 100 103 107
4 619 100 104 620
4 619 103 107 620
3 621 159 162
3 622 169 170
4 169 159 162 170
4 621 159 169 622
4 170 162 621 622
3 623 203 204
3 624 207 208
4 204 203 207 208
4 623 203 207 624
4 208 204 623 624
3 625 121 124
3 626 125 128
4 125 121 124 128
4 625 121 125 626
4 625 124 128 626
3 627 258 260
3 628 273 274
4 273 258 260 274
4 273 258 627 628
4 274 260 627 628
3 629 219 221
3 630 231 230
4 231 219 221 230
4 629 219 231 630
4 230 221 629 630
3 631 142 145
3 632 146 149
4 146 142 145 149
4 631 142 146 632
4 631 145 149 632
3 633 180 183
3 634 190 191
4 190 180 183 191
4 633 180 190 634
4 191 183 633 634
3 635 163 166
3 636 167 170
4 167 163 166 170
4 635 163 167 636
4 635 166 170 636
3 637 201 204
3 638 211 212
4 211 201 204 212
4 637 201 211 638
4 212 204 637 638
3 639 245 246
3 640 249 250
4 246 245 249 250
4 639 245 249 640
4 250 246 639 640
3 641 321 323
3 642 336 337
4 336 321 323 337
4 336 321 641 642
4 337 323 641 642
3 643 261 263
3 644 273 272
4 273 261 263 272
4 643 261 273 644
4 272 263 643 644
3 645 184 187
3 646 188 191
4 188 184 187 191
4 645 184 188 646
4 645 187 191 646
3 647 222 225
3 648 232 233
4 232 222 225 233
4 647 222 232 648
4 233 225 647 648
3 649 205 208
3 650 209 212
4 209 205 208 212
4 649 205 209 650
4 649 208 212 650
3 651 243 246
3 652 253 254
4 246 243 253 254
4 651 243 253 652
4 254 246 651 652
3 653 287 288
3 654 291 292
4 288 287 291 292
4 653 287 291 654
4 292 288 653 654
3 655 363 365
3 656 378 379
4 378 363 365 379
4 378 363 655 656
4 379 365 655 656
3 657 324 326
3 658 336 335
4 336 324 326 335
4 657 324 336 658
4 335 326 657 658
3 659 226 229
3 660 230 233
4 230 226 229 233
4 659 226 230 660
4 659 229 233 660
3 661 264 267
3 662 274 275
4 274 264 267 275
4 661 264 274 662
4 275 267 661 662
3 663 247 250
3 664 251 254
4 250 247 251 254
4 663 247 251 664
4 663 250 254 664
3 665 285 288
3 666 295 296
4 288 285 295 296
4 665 285 295 666
4 296 288 665 666
3 667 366 368
3 668 378 377
4 378 366 368 377
4 667 366 378 668
4 377 368 667 668
3 669 327 330
3 670 337 338
4 337 327 330 338
4 669 327 337 670
4 338 330 669 670
3 671 268 271
3 672 272 275
4 272 268 271 275
4 671 268 272 672
4 671 271 275 672
3 673 306 309
3 674 316 317
4 316 306 309 317
4 673 306 316 674
4 317 309 673 674
3 675 289 292
3 676 293 296
4 292 289 293 296
4 675 289 293 676
4 675 292 296 676
3 677 369 372
3 678 379 380
4 379 369 372 380
4 677 369 379 678
4 380 372 677 678
3 679 348 351
3 680 358 359
4 358 348 351 359
4 679 348 358 680
4 359 351 679 680
3 681 310 313
3 682 314 317
4 314 310 313 317
4 681 310 314 682
4 681 313 317 682
3 683 331 334
3 684 335 338
4 335 331 334 338
4 683 331 335 684
4 683 334 338 684
3 685 411 414
3 686 421 422
4 421 411 414 422
4 685 411 421 686
4 422 414 685 686
3 687 373 376
3 688 377 380
4 377 373 376 380
4 687 373 377 688
4 380 376 687 688
3 689 352 355
3 690 356 359
4 356 352 355 359
4 689 352 356 690
4 689 355 359 690
3 691 415 418
3 692 419 422
4 419 415 418 422
4 691 415 419 692
4 422 418 691 692
3 693 394 397
3 694 398 401
4 398 394 397 401
4 693 394 398 694
4 693 397 401 694
3 695 436 439
3 696 440 443
4 440 436 439 443
4 695 436 440 696
4 443 439 695 696
3 697 457 460
3 698 461 464
4 461 457 460 464
4 697 457 461 698
4 464 460 697 698
3 699 1 2
3 700 1 0
3 701 2 3
3 702 699 703
3 704 0 3
3 705 700 703
3 706 701 702
3 706 704 705
4 0 1 2 3
4 700 1 699 703
4 701 2 699 702
4 704 0 700 705
4 704 3 701 706
4 705 703 702 706
3 707 5 6
3 708 5 4
3 709 6 7
3 710 707 711
3 712 4 7
3 713 708 711
3 714 709 710
3 714 712 713
4 4 5 6 7
4 708 5 707 711
4 709 6 707 710
4 712 4 708 713
4 712 7 709 714
4 713 711 710 714
3 715 9 10
3 716 9 8
3 717 10 11
3 718 715 719
3 720 8 11
3 721 716 719
3 722 717 718
3 722 720 721
4 8 9 10 11
4 716 9 715 719
4 717 10 715 718
4 720 8 716 721
4 720 11 717 722
4 721 719 718 722
3 723 13 14
3 724 13 12
3 725 14 15
3 726 723 727
3 728 12 15
3 729 724 727
3 730 725 726
3 730 728 729
4 12 13 14 15
4 724 13 723 727
4 725 14 723 726
4 728 12 724 729
4 728 15 725 730
4 729 727 726 730
3 731 34 35
3 732 34 33
3 733 35 36
3 734 731 735
3 736 33 36
3 737 732 735
3 738 733 734
3 738 736 737
4 33 34 35 36
4 732 34 731 735
4 733 35 731 734
4 736 33 732 737
4 736 36 733 738
4 737 735 734 738
3 739 17 18
3 740 17 16
3 741 18 19
3 742 739 743
3 744 16 19
3 745 740 743
3 746 741 742
3 746 744 745
4 16 17 18 19
4 740 17 739 743
4 741 18 739 742
4 744 16 740 745
4 744 19 741 746
4 745 743 742 746
3 747 38 39
3 748 38 37
3 749 39 40
3 750 747 751
3 752 37 40
3 753 748 751
3 754 749 750
3 754 752 753
4 37 38 39 40
4 748 38 747 751
4 749 39 747 750
4 752 37 748 753
4 752 40 749 754
4 753 751 750 754
3 755 21 22
3 756 21 20
3 757 22 23
3 758 755 759
3 760 20 23
3 761 756 759
3 762 757 758
3 762 760 761
4 20 21 22 23
4 756 21 755 759
4 757 22 755 758
4 760 20 756 761
4 760 23 757 762
4 761 759 758 762
3 763 59 60
3 764 59 58
3 765 60 61
3 766 763 767
3 768 58 61
3 769 764 767
3 770 765 766
3 770 768 769
4 58 59 60 61
4 764 59 763 767
4 765 60 763 766
4 768 58 764 769
4 768 61 765 770
4 769 767 766 770
3 771 42 43
3 772 42 41
3 773 43 44
3 774 771 775
3 776 41 44
3 777 772 775
3 778 773 774
3 778 776 777
4 41 42 43 44
4 772 42 771 775
4 773 43 771 774
4 776 41 772 777
4 776 44 773 778
4 777 775 774 778
3 779 80 81
3 780 80 79
3 781 81 82
3 782 779 783
3 784 79 82
3 785 780 783
3 786 781 782
3 786 784 785
4 79 80 81 82
4 780 80 779 783
4 781 81 779 782
4 784 79 780 785
4 784 82 781 786
4 785 783 782 786
3 787 63 64
3 788 63 62
3 789 64 65
3 790 787 791
3 792 62 65
3 793 788 791
3 794 789 790
3 794 792 793
4 62 63 64 65
4 788 63 787 791
4 789 64 787 790
4 792 62 788 793
4 792 65 789 794
4 793 791 790 794
3 795 122 123
3 796 122 121
3 797 123 124
3 798 795 799
3 800 121 124
3 801 796 799
3 802 797 798
3 802 800 801
4 121 122 123 124
4 796 122 795 799
4 797 123 795 798
4 800 121 796 801
4 800 124 797 802
4 801 799 798 802
3 803 84 85
3 804 84 83
3 805 85 86
3 806 803 807
3 808 83 86
3 809 804 807
3 810 805 806
3 810 808 809
4 83 84 85 86
4 804 84 803 807
4 805 85 803 806
4 808 83 804 809
4 808 86 805 810
4 809 807 806 810
3 811 126 127
3 812 126 125
3 813 127 128
3 814 811 815
3 816 125 128
3 817 812 815
3 818 813 814
3 818 816 817
4 125 126 127 128
4 812 126 811 815
4 813 127 811 814
4 816 125 812 817
4 816 128 813 818
4 817 815 814 818
3 819 105 106
3 820 105 104
3 821 106 107
3 822 819 823
3 824 104 107
3 825 820 823
3 826 821 822
3 826 824 825
4 104 105 106 107
4 820 105 819 823
4 821 106 819 822
4 824 104 820 825
4 824 107 821 826
4 825 823 822 826
3 827 168 169
3 828 168 167
3 829 169 170
3 830 827 831
3 832 167 170
3 833 828 831
3 834 829 830
3 834 832 833
4 167 168 169 170
4 828 168 827 831
4 829 169 827 830
4 832 167 828 833
4 832 170 829 834
4 833 831 830 834
3 835 147 148
3 836 147 146
3 837 148 149
3 838 835 839
3 840 146 149
3 841 836 839
3 842 837 838
3 842 840 841
4 146 147 148 149
4 836 147 835 839
4 837 148 835 838
4 840 146 836 841
4 840 149 837 842
4 841 839 838 842
3 843 189 190
3 844 189 188
3 845 190 191
3 846 843 847
3 848 188 191
3 849 844 847
3 850 845 846
3 850 848 849
4 188 189 190 191
4 844 189 843 847
4 845 190 843 846
4 848 188 844 849
4 848 191 845 850
4 849 847 846 850
3 851 210 211
3 852 210 209
3 853 211 212
3 854 851 855
3 856 209 212
3 857 852 855
3 858 853 854
3 858 856 857
4 209 210 211 212
4 852 210 851 855
4 853 211 851 854
4 856 209 852 857
4 856 212 853 858
4 857 855 854 858
3 859 231 232
3 860 231 230
3 861 232 233
3 862 859 863
3 864 230 233
3 865 860 863
3 866 861 862
3 866 864 865
4 230 231 232 233
4 860 231 859 863
4 861 232 859 862
4 864 230 860 865
4 864 233 861 866
4 865 863 862 866
3 867 273 274
3 868 273 272
3 869 274 275
3 870 867 871
3 872 272 275
3 873 868 871
3 874 869 870
3 874 872 873
4 272 273 274 275
4 868 273 867 871
4 869 274 867 870
4 872 272 868 873
4 872 275 869 874
4 873 871 870 874
3 875 336 337
3 876 336 335
3 877 337 338
3 878 875 879
3 880 335 338
3 881 876 879
3 882 877 878
3 882 880 881
4 335 336 337 338
4 876 336 875 879
4 877 337 875 878
4 880 335 876 881
4 880 338 877 882
4 881 879 878 882
3 883 378 379
3 884 378 377
3 885 379 380
3 886 883 887
3 888 377 380
3 889 884 887
3 890 885 886
3 890 888 889
4 377 378 379 380
4 884 378 883 887
4 885 379 883 886
4 888 377 884 889
4 888 380 885 890
4 889 887 886 890
# cell 1: 0 1 2 3 4 5 6 7 8 9 10 11 12 13 14 15 16 17 18 19 20 21 22 23 24 25
# cell 2: 26 27 28 29 30 31 32 33 34 35 36 37 38 39 40 41 42 43 44 45 46 47 48 49 50 51
# cell 3: 52 53 54 55 56 57 58 59 60 61 62 63 64 65 66 67 68 69 70 71 72 73 74 75 76 77
# cell 4: 78 79 80 81 82 83 84 85 86 87 88 89 90 91 92 93 94 95 96 97 98 99 100 101 102 103
# cell 5: 104 105 106 107 108 109 110 111 112 113 114 115 116 117 118 119 120 121 122 123 124 125 126 127 128 129
# cell 6: 130 131 132 133 134 135 136 137 138 139 140 141 142 143 144 145 146 147 148 149 150 151 152 153 154 155
# cell 7: 156 157 158 159 160 161 162 163 164 165 166 167 168 169 170 171 172 173 174 175 176 177 178 179 180 181
# cell 8: 182 183 184 185 186 187 188 189 190 191 192 193 194 195 196 197 198 199 200 201 202 203 204 205 206 207
# cell 9: 208 209 210 211 212 213 214 215 216 217 218 219 220 221 222 223 224 225 226 227 228 229 230 231 232 233
# cell 10: 234 235 236 237 238 239 240 241 242 243 244 245 246 247 248 249 250 251 252 253 254 255 256 257 258 259
# cell 11: 260 261 262 263 264 265 266 267 268 269 270 271 272 273 274 275 276 277 278 279 280 281 282 283 284 285
# cell 12: 286 287 288 289 290 291 292 293 294 295 296 297 298 299 300 301 302 303 304 305 306 307 308 309 310 311
# cell 13: 312 313 314 315 316 317 318 319 320 321 322 323 324 325 326 327 328 329 330 331 332 333 334 335 336 337
# cell 14: 338 339 340 341 342 343 344 345 346 347 348 349 350 351 352 353 354 355 356 357 358 359 360 361 362 363
# cell 15: 364 365 366 367 368 369 370 371 372 373 374 375 376 377 378 379 380 381 382 383 384 385 386 387 388 389
# cell 16: 390 391 392 393 394 395 396 397 398 399 400 401 402 403 404 405 406 407 408 409 410 411 412 413 414 415
# cell 17: 416 417 418 419 420 421 422 423 424 425 426 427 428 429 430 431 432 433 434 435 436 437 438 439 440 441
# cell 18: 442 443 444 445 446 447 448 449 450 451 452 453 454 455 456 457 458 459 460 461 462 463 464 465 466 467
# cell 19: 468 469 470 471 472 473 474 475 476 477 478 479 480 481 482 483 484 485 486 487 488 489 490 491 492 493
# cell 20: 494 495 496 497 498 499 500 501 502 503 504 505 506 507 508 509 510 511 512 513 514 515 516 517 518 519
# cell 21: 520 521 522 523 524 525 526 527 528 529 530 531 532 533 534 535 536 537 538 539 540 541 542 543 544 545
# cell 22: 546 547 548 549 550 551 552 553 554 555 556 557 558 559 560 561 562 563 564 565 566 567 568 569 570 571
# cell 23: 572 573 574 575 576 577 578 579 580 581 582 583 584 585 586 587 588 589 590 591 592 593 594 595 596 597
# cell 24: 598 599 600 601 602 603 604 605 606 607 608 609 610 611 612 613 614 615 616 617 618 619 620 621 622 623
# cell 25: 624 625 626 627 628
# cell 26: 629 630 631 632 633
# cell 27: 634 635 636 637 638
# cell 28: 639 640 641 642 643
# cell 29: 644 645 646 647 648
# cell 30: 649 650 651 652 653
# cell 31: 654 655 656 657 658
# cell 32: 659 660 661 662 663
# cell 33: 664 665 666 667 668
# cell 34: 669 670 671 672 673
# cell 35: 674 675 676 677 678
# cell 36: 679 680 681 682 683
# cell 37: 684 685 686 687 688
# cell 38: 689 690 691 692 693
# cell 39: 694 695 696 697 698
# cell 40: 699 700 701 702 703
# cell 41: 704 705 706 707 708
# cell 42: 709 710 711 712 713
# cell 43: 714 715 716 717 718
# cell 44: 719 720 721 722 723
# cell 45: 724 725 726 727 728
# cell 46: 729 730 731 732 733
# cell 47: 734 735 736 737 738
# cell 48: 739 740 741 742 743
# cell 49: 744 745 746 747 748
# cell 50: 749 750 751 752 753
# cell 51: 754 755 756 757 758
# cell 52: 759 760 761 762 763
# cell 53: 764 765 766 767 768
# cell 54: 769 770 771 772 773
# cell 55: 774 775 776 777 778
# cell 56: 779 780 781 782 783
# cell 57: 784 785 786 787 788
# cell 58: 789 790 791 792 793
# cell 59: 794 795 796 797 798
# cell 60: 799 800 801 802 803
# cell 61: 804 805 806 807 808
# cell 62: 809 810 811 812 813
# cell 63: 814 815 816 817 818
# cell 64: 819 820 821 822 823
# cell 65: 824 825 826 827 828
# cell 66: 829 830 831 832 833
# cell 67: 834 835 836 837 838
# cell 68: 839 840 841 842 843
# cell 69: 844 845 846 847 848
# cell 70: 849 850 851 852 853
# cell 71: 854 855 856 857 858
# cell 72: 859 860 861 862 863
# cell 73: 864 865 866 867 868
# cell 74: 869 870 871 872 873
# cell 75: 874 875 876 877 878
# cell 76: 879 880 881 882 883
# cell 77: 884 885 886 887 888
# cell 78: 889 890 891 892 893
# cell 79: 894 895 896 897 898
# cell 80: 899 900 901 902 903
# cell 81: 904 905 906 907 908
# cell 82: 909 910 911 912 913
# cell 83: 914 915 916 917 918
# cell 84: 919 920 921 922 923
# cell 85: 924 925 926 927 928
# cell 86: 929 930 931 932 933
# cell 87: 934 935 936 937 938
# cell 88: 939 940 941 942 943
# cell 89: 944 945 946 947 948
# cell 90: 949 950 951 952 953
# cell 91: 954 955 956 957 958
# cell 92: 959 960 961 962 963
# cell 93: 964 965 966 967 968
# cell 94: 969 970 971 972 973
# cell 95: 974 975 976 977 978
# cell 96: 979 980 981 982 983
# cell 97: 984 985 986 987 988
# cell 98: 989 990 991 992 993
# cell 99: 994 995 996 997 998
# cell 100: 999 1000 1001 1002 1003
# cell 101: 1004 1005 1006 1007 1008
# cell 102: 1009 1010 1011 1012 1013
# cell 103: 1014 1015 1016 1017 1018
# cell 104: 1019 1020 1021 1022 1023
# cell 105: 1024 1025 1026 1027 1028
# cell 106: 1029 1030 1031 1032 1033
# cell 107: 1034 1035 1036 1037 1038
# cell 108: 1039 1040 1041 1042 1043
# cell 109: 1044 1045 1046 1047 1048
# cell 110: 1049 1050 1051 1052 1053
# cell 111: 1054 1055 1056 1057 1058
# cell 112: 1059 1060 1061 1062 1063
# cell 113: 1064 1065 1066 1067 1068
# cell 114: 1069 1070 1071 1072 1073
# cell 115: 1074 1075 1076 1077 1078
# cell 116: 1079 1080 1081 1082 1083
# cell 117: 1084 1085 1086 1087 1088
# cell 118: 1089 1090 1091 1092 1093
# cell 119: 1094 1095 1096 1097 1098
# cell 120: 1099 1100 1101 1102 1103
# cell 121: 1104 1105 1106 1107 1108 1109 1110 1111 1112 1113 1114 1115 1116 1117
# cell 122: 1118 1119 1120 1121 1122 1123 1124 1125 1126 1127 1128 1129 1130 1131
# cell 123: 1132 1133 1134 1135 1136 1137 1138 1139 1140 1141 1142 1143 1144 1145
# cell 124: 1146 1147 1148 1149 1150 1151 1152 1153 1154 1155 1156 1157 1158 1159
# cell 125: 1160 1161 1162 1163 1164 1165 1166 1167 1168 1169 1170 1171 1172 1173
# cell 126: 1174 1175 1176 1177 1178 1179 1180 1181 1182 1183 1184 1185 1186 1187
# cell 127: 1188 1189 1190 1191 1192 1193 1194 1195 1196 1197 1198 1199 1200 1201
# cell 128: 1202 1203 1204 1205 1206 1207 1208 1209 1210 1211 1212 1213 1214 1215
# cell 129: 1216 1217 1218 1219 1220 1221 1222 1223 1224 1225 1226 1227 1228 1229
# cell 130: 1230 1231 1232 1233 1234 1235 1236 1237 1238 1239 1240 1241 1242 1243
# cell 131: 1244 1245 1246 1247 1248 1249 1250 1251 1252 1253 1254 1255 1256 1257
# cell 132: 1258 1259 1260 1261 1262 1263 1264 1265 1266 1267 1268 1269 1270 1271
# cell 133: 1272 1273 1274 1275 1276 1277 1278 1279 1280 1281 1282 1283 1284 1285
# cell 134: 1286 1287 1288 1289 1290 1291 1292 1293 1294 1295 1296 1297 1298 1299
# cell 135: 1300 1301 1302 1303 1304 1305 1306 1307 1308 1309 1310 1311 1312 1313
# cell 136: 1314 1315 1316 1317 1318 1319 1320 1321 1322 1323 1324 1325 1326 1327
# cell 137: 1328 1329 1330 1331 1332 1333 1334 1335 1336 1337 1338 1339 1340 1341
# cell 138: 1342 1343 1344 1345 1346 1347 1348 1349 1350 1351 1352 1353 1354 1355
# cell 139: 1356 1357 1358 1359 1360 1361 1362 1363 1364 1365 1366 1367 1368 1369
# cell 140: 1370 1371 1372 1373 1374 1375 1376 1377 1378 1379 1380 1381 1382 1383
# cell 141: 1384 1385 1386 1387 1388 1389 1390 1391 1392 1393 1394 1395 1396 1397
# cell 142: 1398 1399 1400 1401 1402 1403 1404 1405 1406 1407 1408 1409 1410 1411
# cell 143: 1412 1413 1414 1415 1416 1417 1418 1419 1420 1421 1422 1423 1424 1425
# cell 144: 1426 1427 1428 1429 1430 1431 1432 1433 1434 1435 1436 1437 1438 1439