OFF
# face-rotation BFS net; polygonal faces are preserved
# the cell decomposition is listed below as comments
141 192 0
-0.23570226039551542 -1.6499158227686106 -1.6499158227686108
-1.6499158227686106 -1.6499158227686108 -0.23570226039551537
-1.6499158227686104 -0.2357022603955156 -1.6499158227686106
0.7071067811865474 -0.7071067811865474 2.121320343559643
-1.1785113019775793 -1.1785113019775793 1.6499158227686115
-0.7071067811865476 0.7071067811865476 2.1213203435596433
0.707106781186548 2.1213203435596433 -0.7071067811865477
-1.1785113019775786 1.649915822768611 -1.1785113019775793
-0.7071067811865472 2.121320343559643 0.7071067811865478
2.121320343559643 0.7071067811865481 -0.7071067811865478
1.6499158227686113 -1.1785113019775788 -1.1785113019775795
2.1213203435596424 -0.7071067811865471 0.7071067811865476
-3.3783990656690595 -1.0213764617139018 -1.021376461713902
-2.4355900240869977 -0.0785674201318387 2.7498597046143516
-2.4355900240869963 2.7498597046143516 -0.07856742013183904
-4.1640732669874465 1.964185503295965 0.5499719409228695
-4.635477787778478 0.07856742013183837 0.07856742013183798
-4.164073266987447 0.5499719409228699 1.964185503295965
-1.021376461713902 -3.37839906566906 -1.021376461713902
-0.0785674201318391 -2.4355900240869968 2.7498597046143516
2.7498597046143516 -2.4355900240869963 -0.07856742013183893
1.964185503295965 -4.1640732669874465 0.5499719409228699
0.07856742013183837 -4.635477787778478 0.07856742013183837
0.5499719409228698 -4.164073266987446 1.9641855032959654
-3.1165076652295975 -2.959372824965921 -0.6023502210107636
-2.1736986236475357 -2.0165637833838583 3.1688859453174905
-5.630665109448435 -0.7594850612744407 1.597537542680717
-5.368773709008972 -2.69748142452646 2.0165637833838557
-4.111694986899554 -3.7974253063722 0.9166199015381153
-3.6402904661085227 -3.326020785581168 2.8022379847022423
-1.0213764617139014 -1.0213764617139027 -3.3783990656690603
-0.07856742013183793 2.7498597046143507 -2.435590024086998
2.7498597046143516 -0.07856742013183882 -2.4355900240869977
1.9641855032959654 0.5499719409228695 -4.164073266987447
0.07856742013183904 0.07856742013183765 -4.635477787778479
0.5499719409228708 1.9641855032959645 -4.164073266987447
-3.116507665229596 -0.6023502210107632 -2.9593728249659215
-2.1736986236475326 3.1688859453174905 -2.016563783383859
-5.630665109448433 1.5975375426807181 -0.7594850612744422
-5.36877370900897 2.016563783383857 -2.697481424526462
-4.111694986899551 0.9166199015381166 -3.797425306372202
-3.64029046610852 2.8022379847022436 -3.3260207855811705
0.7071067811865468 0.7071067811865466 3.5355339059327378
0.7071067811865479 3.5355339059327378 0.7071067811865475
3.5355339059327378 0.707106781186547 0.7071067811865469
3.535533905932737 2.1213203435596415 2.121320343559642
2.121320343559642 2.121320343559641 3.5355339059327373
2.121320343559643 3.535533905932737 2.121320343559643
-0.6023502210107625 -3.1165076652295975 -2.9593728249659215
3.1688859453174913 -2.173698623647534 -2.0165637833838588
1.5975375426807183 -5.630665109448434 -0.7594850612744405
2.016563783383858 -5.3687737090089716 -2.69748142452646
0.9166199015381177 -4.111694986899553 -3.7974253063722005
2.8022379847022445 -3.6402904661085214 -3.3260207855811688
-1.3880244223291498 1.1261330218896881 3.9545601466358775
-1.3880244223291485 3.9545601466358784 1.1261330218896868
-4.844990908130048 2.383211743999105 2.383211743999104
-3.7974253063722 3.587912186020631 3.5879121860206293
-2.0689420634717512 2.959372824965923 4.3735863873390155
-2.068942063471751 4.373586387339017 2.9593728249659206
-1.64991582276861 -1.649915822768611 -3.0641293851417055
-3.064129385141705 -1.649915822768611 -1.6499158227686102
-1.6499158227686106 -3.0641293851417064 -1.6499158227686106
-5.421151989096863 -2.592724864350673 -4.006938426723768
-4.949747468305832 -2.121320343559642 -2.121320343559641
-5.421151989096865 -4.006938426723768 -2.592724864350673
-2.5927248643506746 -5.421151989096863 -4.006938426723769
-2.121320343559643 -4.949747468305833 -2.121320343559642
-4.00693842672377 -5.421151989096863 -2.5927248643506733
-2.5927248643506737 -4.006938426723767 -5.421151989096864
-2.1213203435596415 -2.121320343559642 -4.949747468305832
-4.006938426723768 -2.592724864350673 -5.421151989096863
1.1261330218896863 -1.3880244223291494 3.954560146635877
3.954560146635878 -1.388024422329149 1.126133021889687
2.3832117439991043 -4.844990908130049 2.383211743999104
3.5879121860206293 -3.7974253063722 3.5879121860206293
2.959372824965921 -2.068942063471751 4.3735863873390155
4.373586387339016 -2.068942063471751 2.959372824965921
0.07856742013183848 0.07856742013183782 3.8498035864600935
-1.8070506630322882 -0.39283710065919397 3.378399065669062
-0.3928371006591934 -1.807050663032289 3.3783990656690617
-2.7498597046143507 0.07856742013183626 6.678230711206285
-3.221264225405383 -0.39283710065919464 4.792612628042158
-3.221264225405383 -1.8070506630322902 6.206826190415254
0.0785674201318387 -2.749859704614353 6.678230711206284
-0.3928371006591931 -3.221264225405384 4.792612628042157
-1.8070506630322876 -3.2212642254053856 6.206826190415253
0.5499719409228703 -0.8642416214502265 7.1496352319973155
0.5499719409228703 0.5499719409228687 5.735421669624221
-0.8642416214502244 0.549971940922868 7.149635231997316
1.126133021889687 3.9545601466358775 -1.3880244223291498
3.9545601466358766 1.1261330218896866 -1.3880244223291494
2.3832117439991043 2.3832117439991034 -4.844990908130049
3.5879121860206302 3.5879121860206293 -3.797425306372201
2.9593728249659215 4.373586387339016 -2.0689420634717512
4.3735863873390155 2.959372824965921 -2.0689420634717512
0.0785674201318387 3.8498035864600926 0.07856742013183848
-1.807050663032288 3.3783990656690603 -0.39283710065919286
-0.39283710065919286 3.3783990656690612 -1.8070506630322885
-2.7498597046143534 6.6782307112062815 0.07856742013183937
-3.221264225405384 4.792612628042155 -0.3928371006591923
-3.2212642254053847 6.20682619041525 -1.8070506630322873
0.07856742013183693 6.678230711206283 -2.7498597046143516
-0.39283710065919364 4.792612628042157 -3.221264225405383
-1.8070506630322898 6.206826190415251 -3.221264225405383
0.5499719409228685 7.149635231997315 -0.8642416214502245
0.5499719409228692 5.735421669624219 0.5499719409228705
-0.8642416214502268 7.149635231997314 0.5499719409228709
3.849803586460092 0.0785674201318387 0.0785674201318387
3.3783990656690603 -1.807050663032288 -0.39283710065919286
3.3783990656690612 -0.39283710065919275 -1.8070506630322885
6.678230711206282 -2.7498597046143525 0.07856742013184004
4.792612628042155 -3.221264225405383 -0.3928371006591922
6.206826190415251 -3.221264225405384 -1.807050663032287
6.678230711206283 0.07856742013183782 -2.7498597046143507
4.792612628042157 -0.3928371006591932 -3.221264225405383
6.206826190415252 -1.807050663032289 -3.221264225405383
7.149635231997314 0.5499719409228698 -0.8642416214502235
5.735421669624219 0.54997194092287 0.5499719409228709
7.149635231997314 -0.8642416214502255 0.5499719409228716
-5.578286829360543 1.9641855032959645 1.9641855032959639
-6.049691350151574 0.07856742013183804 1.4927809825049323
-6.049691350151574 1.492780982504933 0.07856742013183693
-9.035253315161443 0.39283710065919286 3.2212642254053785
-7.778174593052024 -0.7071067811865483 2.1213203435596397
-9.506657835952474 -0.07856742013183915 1.3356461422412516
-9.035253315161441 3.2212642254053825 0.392837100659188
-7.7781745930520225 2.121320343559642 -0.7071067811865512
-9.506657835952472 1.335646142241256 -0.07856742013184381
-8.563848794370411 3.6926687461964147 2.278455183823315
-6.835365551469962 3.0641293851417055 3.064129385141703
-8.563848794370411 2.2784551838233194 3.6926687461964107
0.07856742013183804 -6.049691350151572 1.4927809825049345
1.4927809825049336 -6.049691350151573 0.07856742013183948
1.964185503295965 -5.57828682936054 1.9641855032959659
0.07856742013183848 1.4927809825049323 -6.0496913501515746
1.492780982504933 0.07856742013183726 -6.0496913501515746
1.9641855032959648 1.964185503295964 -5.578286829360543
2.5927248643506737 4.006938426723767 4.006938426723769
4.006938426723768 2.592724864350673 4.006938426723769
4.006938426723768 4.006938426723767 2.5927248643506733
3 0 1 2
3 3 4 5
3 6 7 8
3 9 10 11
6 5 4 1 2 7 8
6 10 0 1 4 3 11
6 6 7 2 0 10 9
6 6 8 5 3 11 9
3 12 1 2
3 13 4 5
3 14 7 8
3 15 16 17
6 5 4 1 2 7 8
6 16 12 1 4 13 17
6 16 12 2 7 14 15
6 17 13 5 8 14 15
3 18 1 0
3 19 4 3
3 20 10 11
3 21 22 23
6 10 0 1 4 3 11
6 22 18 1 4 19 23
6 22 18 0 10 20 21
6 23 19 3 11 20 21
3 24 1 12
3 25 4 13
3 26 16 17
3 27 28 29
6 16 12 1 4 13 17
6 28 24 1 4 25 29
6 26 16 12 24 28 27
6 26 17 13 25 29 27
3 30 2 0
3 31 7 6
3 32 10 9
3 33 34 35
6 6 7 2 0 10 9
6 34 30 2 7 31 35
6 34 30 0 10 32 33
6 35 31 6 9 32 33
3 36 2 12
3 37 7 14
3 38 16 15
3 39 40 41
6 16 12 2 7 14 15
6 40 36 2 7 37 41
6 40 36 12 16 38 39
6 38 15 14 37 41 39
3 42 5 3
3 43 8 6
3 44 11 9
3 45 46 47
6 6 8 5 3 11 9
6 46 42 5 8 43 47
6 46 42 3 11 44 45
6 47 43 6 9 44 45
3 48 0 18
3 49 10 20
3 50 22 21
3 51 52 53
6 22 18 0 10 20 21
6 52 48 0 10 49 53
6 50 22 18 48 52 51
6 50 21 20 49 53 51
3 54 5 13
3 55 8 14
3 56 17 15
3 57 58 59
6 17 13 5 8 14 15
6 58 54 5 8 55 59
6 58 54 13 17 56 57
6 59 55 14 15 56 57
3 60 61 62
3 63 64 65
3 66 67 68
3 69 70 71
6 65 64 61 62 67 68
6 70 60 61 64 63 71
6 66 67 62 60 70 69
6 66 68 65 63 71 69
3 72 3 19
3 73 11 20
3 74 23 21
3 75 76 77
6 23 19 3 11 20 21
6 76 72 3 11 73 77
6 74 23 19 72 76 75
6 77 73 20 21 74 75
3 78 79 80
3 81 82 83
3 84 85 86
3 87 88 89
6 83 82 79 80 85 86
6 88 78 79 82 81 89
6 84 85 80 78 88 87
6 89 81 83 86 84 87
3 90 6 31
3 91 9 32
3 92 35 33
3 93 94 95
6 35 31 6 9 32 33
6 94 90 6 9 91 95
6 92 35 31 90 94 93
6 92 33 32 91 95 93
3 96 97 98
3 99 100 101
3 102 103 104
3 105 106 107
6 101 100 97 98 103 104
6 106 96 97 100 99 107
6 102 103 98 96 106 105
6 102 104 101 99 107 105
3 108 109 110
3 111 112 113
3 114 115 116
3 117 118 119
6 113 112 109 110 115 116
6 118 108 109 112 111 119
6 114 115 110 108 118 117
6 114 116 113 111 119 117
3 120 121 122
3 123 124 125
3 126 127 128
3 129 130 131
6 125 124 121 122 127 128
6 130 120 121 124 123 131
6 126 127 122 120 130 129
6 126 128 125 123 131 129
3 0 1 2
3 61 1 2
3 62 1 0
3 62 1 61
3 60 2 0
3 60 2 61
3 60 0 62
3 60 61 62
3 3 4 5
3 79 4 5
3 80 4 3
3 80 4 79
3 78 5 3
3 78 5 79
3 78 3 80
3 78 79 80
3 6 7 8
3 97 7 8
3 98 7 6
3 98 7 97
3 96 8 6
3 96 8 97
3 96 6 98
3 96 97 98
3 9 10 11
3 109 10 11
3 110 10 9
3 110 10 109
3 108 11 9
3 108 11 109
3 108 9 110
3 108 109 110
3 15 16 17
3 121 16 17
3 122 16 15
3 122 16 121
3 120 17 15
3 120 17 121
3 120 15 122
3 120 121 122
3 21 22 23
3 132 22 23
3 133 22 21
3 133 22 132
3 134 23 21
3 134 23 132
3 134 21 133
3 134 132 133
3 33 34 35
3 135 34 35
3 136 34 33
3 136 34 135
3 137 35 33
3 137 35 135
3 137 33 136
3 137 135 136
3 45 46 47
3 138 46 47
3 139 46 45
3 139 46 138
3 140 47 45
3 140 47 138
3 140 45 139
3 140 138 139
# cell 1: 0 1 2 3 4 5 6 7
# cell 2: 8 9 10 11 12 13 14 15
# cell 3: 16 17 18 19 20 21 22 23
# cell 4: 24 25 26 27 28 29 30 31
# cell 5: 32 33 34 35 36 37 38 39
# cell 6: 40 41 42 43 44 45 46 47
# cell 7: 48 49 50 51 52 53 54 55
# cell 8: 56 57 58 59 60 61 62 63
# cell 9: 64 65 66 67 68 69 70 71
# cell 10: 72 73 74 75 76 77 78 79
# cell 11: 80 81 82 83 84 85 86 87
# cell 12: 88 89 90 91 92 93 94 95
# cell 13: 96 97 98 99 100 101 102 103
# cell 14: 104 105 106 107 108 109 110 111
# cell 15: 112 113 114 115 116 117 118 119
# cell 16: 120 121 122 123 124 125 126 127
# cell 17: 128 129 130 131 132 133 134 135
# cell 18: 136 137 138 139 140 141 142 143
# cell 19: 144 145 146 147 148 149 150 151
# cell 20: 152 153 154 155 156 157 158 159
# cell 21: 160 161 162 163 164 165 166 167
# cell 22: 168 169 170 171 172 173 174 175
# cell 23: 176 177 178 179 180 181 182 183
# cell 24: 184 185 186 187 188 189 190 191