OFF
# face-rotation BFS net; polygonal faces are preserved
# the cell decomposition is listed below as comments
19 64 0
-0.23570226039551576 1.1785113019775793 -0.2357022603955157
-0.7071067811865475 -0.7071067811865475 -0.7071067811865475
-0.23570226039551564 -0.2357022603955157 1.178511301977579
1.1785113019775793 -0.23570226039551576 -0.23570226039551564
-1.9641855032959654 0.39283710065919303 0.3928371006591933
0.3928371006591931 -1.9641855032959652 0.39283710065919303
-1.7022941028565035 -1.545159262592826 0.8118633413623328
0.392837100659193 0.3928371006591931 -1.9641855032959652
-1.7022941028565042 0.8118633413623326 -1.5451592625928252
1.1785113019775793 1.1785113019775793 1.1785113019775793
0.8118633413623322 -1.702294102856503 -1.5451592625928257
-0.9166199015381176 1.5975375426807183 1.5975375426807183
-2.680021997830495 -1.0039170350179374 -0.84678219475426
1.5975375426807181 -0.9166199015381172 1.5975375426807181
-1.8943477965121083 -0.21824283369955094 2.2959146105192842
1.5975375426807181 1.5975375426807183 -0.9166199015381175
-1.8943477965121094 2.295914610519284 -0.2182428336995508
2.295914610519284 -1.8943477965121085 -0.2182428336995519
-3.5238942881354283 -0.730386016781166 0.9457189460313913
3 0 1 2
3 3 1 2
3 3 1 0
3 3 2 0
3 0 1 2
3 4 1 2
3 4 1 0
3 4 2 0
3 3 1 2
3 5 1 2
3 5 1 3
3 5 2 3
3 4 1 2
3 6 1 2
3 6 1 4
3 6 2 4
3 3 1 0
3 7 1 0
3 7 1 3
3 7 0 3
3 4 1 0
3 8 1 0
3 8 1 4
3 8 0 4
3 3 2 0
3 9 2 0
3 9 2 3
3 9 0 3
3 5 1 3
3 10 1 3
3 10 1 5
3 10 3 5
3 4 2 0
3 11 2 0
3 11 2 4
3 11 0 4
3 6 1 4
3 12 1 4
3 12 1 6
3 12 4 6
3 5 2 3
3 13 2 3
3 13 2 5
3 13 3 5
3 6 2 4
3 14 2 4
3 14 2 6
3 14 4 6
3 7 0 3
3 15 0 3
3 15 0 7
3 15 3 7
3 8 0 4
3 16 0 4
3 16 0 8
3 16 4 8
3 10 3 5
3 17 3 5
3 17 3 10
3 17 5 10
3 12 4 6
3 18 4 6
3 18 4 12
3 18 6 12
# cell 1: 0 1 2 3
# cell 2: 4 5 6 7
# cell 3: 8 9 10 11
# cell 4: 12 13 14 15
# cell 5: 16 17 18 19
# cell 6: 20 21 22 23
# cell 7: 24 25 26 27
# cell 8: 28 29 30 31
# cell 9: 32 33 34 35
# cell 10: 36 37 38 39
# cell 11: 40 41 42 43
# cell 12: 44 45 46 47
# cell 13: 48 49 50 51
# cell 14: 52 53 54 55
# cell 15: 56 57 58 59
# cell 16: 60 61 62 63