OFF
# face-rotation BFS net; polygonal faces are preserved
# the cell decomposition is listed below as comments
75 192 0
0.47140452079103184 -0.9428090415820632 -0.9428090415820631
-0.942809041582063 -0.9428090415820631 0.4714045207910316
-0.9428090415820631 0.47140452079103184 -0.9428090415820631
0.9428090415820636 -0.47140452079103146 0.9428090415820634
-0.4714045207910314 0.9428090415820636 0.9428090415820634
0.9428090415820635 0.9428090415820635 -0.47140452079103135
-2.6712922844825124 -0.31426968052735427 -0.3142696805273549
-2.199887763691481 0.15713484026367755 1.5713484026367717
-2.1998877636914806 1.5713484026367723 0.15713484026367688
-0.31426968052735427 -2.6712922844825124 -0.3142696805273548
0.15713484026367772 -2.1998877636914815 1.5713484026367717
1.5713484026367723 -2.199887763691481 0.157134840263677
-2.40940088404305 -2.2522660437793736 0.10475656017578416
-1.937996363252019 -1.7808615229883418 1.9903746433399108
-3.6664796061524685 -1.1523221619336328 1.2047004420215244
-0.3142696805273543 -0.3142696805273547 -2.6712922844825124
0.15713484026367738 1.571348402636772 -2.199887763691481
1.5713484026367723 0.15713484026367688 -2.1998877636914806
-2.4094008840430496 0.1047565601757845 -2.252266043779374
-1.937996363252018 1.990374643339911 -1.7808615229883424
-3.666479606152468 1.2047004420215253 -1.1523221619336341
0.9428090415820636 0.9428090415820635 2.357022603955158
0.9428090415820634 2.3570226039551585 0.9428090415820635
2.3570226039551585 0.9428090415820634 0.9428090415820636
0.10475656017578427 -2.40940088404305 -2.2522660437793736
1.9903746433399112 -1.9379963632520187 -1.780861522988342
1.204700442021525 -3.6664796061524685 -1.1523221619336332
-1.152322161933633 1.361835282285203 2.7760488446582974
-1.1523221619336326 2.7760488446582974 1.3618352822852027
-2.8808054048340823 1.9903746433399117 1.9903746433399108
-0.9428090415820636 -0.9428090415820628 -2.3570226039551585
-2.3570226039551585 -0.9428090415820628 -0.9428090415820635
-0.9428090415820638 -2.357022603955158 -0.9428090415820637
-2.8284271247461903 -1.4142135623730943 -2.8284271247461907
-2.8284271247461907 -2.8284271247461894 -1.4142135623730958
-1.4142135623730958 -2.8284271247461894 -2.8284271247461907
1.3618352822852027 -1.152322161933634 2.7760488446582974
2.776048844658298 -1.1523221619336335 1.3618352822852027
1.9903746433399117 -2.8808054048340836 1.9903746433399112
0.3142696805273544 0.3142696805273546 2.6712922844825124
-1.5713484026367721 -0.15713484026367702 2.1998877636914806
-0.1571348402636772 -1.571348402636772 2.19988776369148
-1.0999438818457408 0.3142696805273538 4.085505846855607
-1.5713484026367723 -1.5713484026367723 3.6141013260645756
0.31426968052735416 -1.0999438818457408 4.085505846855607
1.3618352822852022 2.7760488446582974 -1.1523221619336335
2.7760488446582974 1.3618352822852022 -1.1523221619336332
1.9903746433399117 1.9903746433399108 -2.880805404834083
0.3142696805273546 2.671292284482513 0.3142696805273547
-1.571348402636772 2.199887763691481 -0.15713484026367713
-0.15713484026367724 2.199887763691482 -1.571348402636772
-1.0999438818457405 4.085505846855607 0.3142696805273547
-1.5713484026367723 3.6141013260645765 -1.571348402636772
0.31426968052735416 4.085505846855608 -1.0999438818457399
2.671292284482513 0.3142696805273545 0.3142696805273547
2.199887763691481 -1.571348402636772 -0.15713484026367697
2.1998877636914815 -0.1571348402636772 -1.571348402636772
4.085505846855608 -1.0999438818457405 0.3142696805273546
3.614101326064576 -1.5713484026367723 -1.5713484026367721
4.085505846855608 0.31426968052735416 -1.0999438818457403
-3.614101326064576 1.5713484026367723 1.571348402636772
-4.085505846855607 -0.31426968052735427 1.0999438818457403
-4.085505846855607 1.0999438818457405 -0.3142696805273546
-5.342584568965025 0.7856742013183861 2.199887763691481
-5.813989089756057 0.31426968052735427 0.31426968052735504
-5.342584568965026 2.199887763691481 0.7856742013183866
-0.3142696805273546 -4.085505846855607 1.0999438818457397
1.0999438818457403 -4.085505846855607 -0.31426968052735516
1.5713484026367721 -3.6141013260645765 1.5713484026367714
-0.31426968052735427 1.0999438818457399 -4.085505846855607
1.0999438818457405 -0.31426968052735504 -4.085505846855607
1.5713484026367723 1.5713484026367714 -3.614101326064576
1.4142135623730951 2.8284271247461903 2.8284271247461907
2.8284271247461903 1.4142135623730954 2.8284271247461907
2.8284271247461903 2.8284271247461903 1.4142135623730958
3 0 1 2
3 3 1 4
3 5 2 4
3 5 0 3
3 4 1 2
3 3 1 0
3 5 2 0
3 5 4 3
3 6 1 2
3 7 1 4
3 8 2 4
3 8 6 7
3 4 1 2
3 7 1 6
3 8 2 6
3 8 4 7
3 9 1 0
3 10 1 3
3 11 0 3
3 11 9 10
3 3 1 0
3 10 1 9
3 11 0 9
3 11 3 10
3 12 1 6
3 13 1 7
3 14 6 7
3 14 12 13
3 7 1 6
3 13 1 12
3 14 6 12
3 14 7 13
3 15 2 0
3 16 2 5
3 17 0 5
3 17 15 16
3 5 2 0
3 16 2 15
3 17 0 15
3 17 5 16
3 18 2 6
3 19 2 8
3 20 6 8
3 20 18 19
3 8 2 6
3 19 2 18
3 20 6 18
3 20 8 19
3 21 4 3
3 22 4 5
3 23 3 5
3 23 21 22
3 5 4 3
3 22 4 21
3 23 3 21
3 23 5 22
3 24 0 9
3 25 0 11
3 26 9 11
3 26 24 25
3 11 0 9
3 25 0 24
3 26 9 24
3 26 11 25
3 27 4 7
3 28 4 8
3 29 7 8
3 29 27 28
3 8 4 7
3 28 4 27
3 29 7 27
3 29 8 28
3 30 31 32
3 33 31 34
3 35 32 34
3 35 30 33
3 34 31 32
3 33 31 30
3 35 32 30
3 35 34 33
3 36 3 10
3 37 3 11
3 38 10 11
3 38 36 37
3 11 3 10
3 37 3 36
3 38 10 36
3 38 11 37
3 39 40 41
3 42 40 43
3 44 41 43
3 44 39 42
3 43 40 41
3 42 40 39
3 44 41 39
3 44 43 42
3 45 5 16
3 46 5 17
3 47 16 17
3 47 45 46
3 17 5 16
3 46 5 45
3 47 16 45
3 47 17 46
3 48 49 50
3 51 49 52
3 53 50 52
3 53 48 51
3 52 49 50
3 51 49 48
3 53 50 48
3 53 52 51
3 54 55 56
3 57 55 58
3 59 56 58
3 59 54 57
3 58 55 56
3 57 55 54
3 59 56 54
3 59 58 57
3 60 61 62
3 63 61 64
3 65 62 64
3 65 60 63
3 64 61 62
3 63 61 60
3 65 62 60
3 65 64 63
3 0 1 2
3 31 1 2
3 32 1 0
3 32 1 31
3 30 2 0
3 30 2 31
3 30 0 32
3 30 31 32
3 3 1 4
3 40 1 4
3 41 1 3
3 41 1 40
3 39 4 3
3 39 4 40
3 39 3 41
3 39 40 41
3 5 2 4
3 49 2 4
3 50 2 5
3 50 2 49
3 48 4 5
3 48 4 49
3 48 5 50
3 48 49 50
3 5 0 3
3 55 0 3
3 56 0 5
3 56 0 55
3 54 3 5
3 54 3 55
3 54 5 56
3 54 55 56
3 8 6 7
3 61 6 7
3 62 6 8
3 62 6 61
3 60 7 8
3 60 7 61
3 60 8 62
3 60 61 62
3 11 9 10
3 66 9 10
3 67 9 11
3 67 9 66
3 68 10 11
3 68 10 66
3 68 11 67
3 68 66 67
3 17 15 16
3 69 15 16
3 70 15 17
3 70 15 69
3 71 16 17
3 71 16 69
3 71 17 70
3 71 69 70
3 23 21 22
3 72 21 22
3 73 21 23
3 73 21 72
3 74 22 23
3 74 22 72
3 74 23 73
3 74 72 73
# cell 1: 0 1 2 3 4 5 6 7
# cell 2: 8 9 10 11 12 13 14 15
# cell 3: 16 17 18 19 20 21 22 23
# cell 4: 24 25 26 27 28 29 30 31
# cell 5: 32 33 34 35 36 37 38 39
# cell 6: 40 41 42 43 44 45 46 47
# cell 7: 48 49 50 51 52 53 54 55
# cell 8: 56 57 58 59 60 61 62 63
# cell 9: 64 65 66 67 68 69 70 71
# cell 10: 72 73 74 75 76 77 78 79
# cell 11: 80 81 82 83 84 85 86 87
# cell 12: 88 89 90 91 92 93 94 95
# cell 13: 96 97 98 99 100 101 102 103
# cell 14: 104 105 106 107 108 109 110 111
# cell 15: 112 113 114 115 116 117 118 119
# cell 16: 120 121 122 123 124 125 126 127
# cell 17: 128 129 130 131 132 133 134 135
# cell 18: 136 137 138 139 140 141 142 143
# cell 19: 144 145 146 147 148 149 150 151
# cell 20: 152 153 154 155 156 157 158 159
# cell 21: 160 161 162 163 164 165 166 167
# cell 22: 168 169 170 171 172 173 174 175
# cell 23: 176 177 178 179 180 181 182 183
# cell 24: 184 185 186 187 188 189 190 191