OFF
# face-rotation BFS net; polygonal faces are preserved
# the cell decomposition is listed below as comments
315 480 0
-0.47140452079103135 -0.47140452079103135 -1.885618083164126
-1.8856180831641263 -0.47140452079103123 -0.47140452079103146
-0.47140452079103123 -1.8856180831641263 -0.47140452079103146
0.4714045207910322 0.47140452079103207 1.8856180831641267
-1.4142135623730945 4.900761532559245e-16 1.414213562373095
4.900761532559245e-16 -1.4142135623730945 1.414213562373095
0.471404520791032 1.8856180831641272 0.471404520791032
-1.4142135623730947 1.4142135623730954 1.5700924586837752e-16
2.6803154833089315e-16 1.4142135623730954 -1.4142135623730945
1.8856180831641272 0.471404520791032 0.471404520791032
1.4142135623730954 -1.4142135623730947 2.6803154833089315e-16
1.4142135623730954 2.6803154833089315e-16 -1.4142135623730945
-3.614101326064577 0.15713484026367708 -1.2570787221094164
-3.6141013260645756 -1.257078722109418 0.1571348402636782
-2.6712922844825115 1.09994388184574 2.5141574442188364
-3.1426968052735424 -0.7856742013183864 2.0427529234278046
-2.671292284482513 2.514157444218835 1.0999438818457417
-3.1426968052735456 2.0427529234278037 -0.7856742013183844
-4.399775527382962 1.7284832429004484 1.7284832429004515
-4.8711800481739935 -0.1571348402636782 1.2570787221094197
-4.871180048173994 1.2570787221094168 -0.15713484026367475
0.15713484026367708 -3.614101326064577 -1.2570787221094162
-1.257078722109418 -3.614101326064576 0.1571348402636783
1.09994388184574 -2.671292284482511 2.5141574442188364
-0.7856742013183864 -3.1426968052735424 2.0427529234278046
2.514157444218835 -2.6712922844825124 1.0999438818457419
2.0427529234278037 -3.1426968052735456 -0.7856742013183843
1.7284832429004484 -4.399775527382961 1.7284832429004515
-0.15713484026367808 -4.871180048173993 1.2570787221094197
1.257078722109417 -4.871180048173994 -0.1571348402636744
-5.080693168525563 -2.5665357243067293 -0.20951312035156744
-3.3522099256251128 -3.1950750853614367 0.5761610809668172
-4.137884126943497 -1.623726682724665 3.561723045976685
-2.8808054048340797 -2.723670564570405 2.4617791641309434
-5.866367369843948 -0.9951873216699572 2.7760488446583
-6.337771890634981 -1.4665918424609892 0.8904307614941742
-5.604475969404485 -2.9331836849219766 3.19507508536144
-4.347397247295067 -4.033127566767717 2.095131203515698
-6.075880490195518 -3.4045882057130084 1.3094570021973135
0.15713484026367708 -1.2570787221094166 -3.6141013260645765
-1.2570787221094182 0.15713484026367824 -3.614101326064575
1.0999438818457399 2.514157444218837 -2.6712922844825107
-0.7856742013183868 2.0427529234278046 -3.1426968052735424
2.514157444218835 1.0999438818457414 -2.671292284482512
2.0427529234278037 -0.7856742013183848 -3.1426968052735447
1.7284832429004482 1.7284832429004513 -4.399775527382961
-0.1571348402636783 1.2570787221094195 -4.871180048173993
1.257078722109417 -0.1571348402636752 -4.8711800481739935
-5.080693168525566 -0.20951312035156944 -2.566535724306725
-3.352209925625117 0.5761610809668174 -3.1950750853614345
-4.1378841269435025 3.5617230459766835 -1.6237266827246606
-2.880805404834085 2.461779164130944 -2.7236705645704022
-5.866367369843952 2.7760488446582974 -0.9951873216699514
-6.3377718906349845 0.8904307614941703 -1.4665918424609834
-5.604475969404492 3.195075085361437 -2.9331836849219695
-4.347397247295074 2.095131203515697 -4.033127566767711
-6.075880490195523 1.3094570021973106 -3.404588205713002
1.8856180831641267 0.47140452079103157 3.2998316455372216
0.4714045207910318 1.885618083164127 3.2998316455372216
1.8856180831641267 3.299831645537222 0.47140452079103246
0.4714045207910318 3.299831645537222 1.885618083164127
3.299831645537222 1.8856180831641267 0.47140452079103223
3.2998316455372216 0.47140452079103157 1.885618083164127
3.299831645537222 3.299831645537222 1.8856180831641274
1.8856180831641267 3.299831645537222 3.299831645537222
3.299831645537222 1.8856180831641265 3.299831645537222
-0.209513120351571 -5.080693168525566 -2.566535724306725
0.5761610809668163 -3.352209925625117 -3.1950750853614354
3.5617230459766827 -4.137884126943504 -1.6237266827246628
2.4617791641309434 -2.880805404834086 -2.7236705645704045
2.776048844658296 -5.866367369843952 -0.9951873216699518
0.8904307614941689 -6.337771890634984 -1.4665918424609825
3.1950750853614354 -5.604475969404493 -2.9331836849219712
2.0951312035156953 -4.347397247295076 -4.033127566767713
1.3094570021973082 -6.075880490195525 -3.404588205713002
-3.3522099256251114 1.5189701225488792 4.347397247295071
-1.6237266827246621 2.304644323867265 3.7188578862403605
-3.352209925625114 4.347397247295068 1.518970122548881
-1.6237266827246635 3.7188578862403596 2.3046443238672656
-5.080693168525563 3.5617230459766818 2.1475094836035913
-5.080693168525562 2.1475094836035877 3.561723045976686
-4.033127566767714 4.766423487998207 3.3522099256251154
-2.3046443238672643 4.137884126943499 4.1378841269435
-4.033127566767713 3.352209925625113 4.76642348799821
-1.8856180831641254 -3.299831645537223 -3.2998316455372203
-3.2998316455372203 -3.299831645537223 -1.8856180831641254
-3.2998316455372207 -1.8856180831641283 -3.2998316455372207
-5.656854249492378 -4.242640687119287 -4.242640687119284
-5.185449728701347 -3.771236166328255 -2.357022603955157
-5.1854497287013475 -2.3570226039551603 -3.7712361663282525
-4.242640687119282 -5.656854249492382 -4.242640687119283
-3.7712361663282508 -5.18544972870135 -2.3570226039551567
-2.357022603955156 -5.18544972870135 -3.771236166328251
-4.242640687119283 -4.242640687119287 -5.656854249492378
-3.771236166328252 -2.3570226039551603 -5.1854497287013475
-2.3570226039551567 -3.771236166328255 -5.185449728701347
1.51897012254888 -3.352209925625111 4.347397247295071
2.3046443238672656 -1.6237266827246615 3.7188578862403596
4.347397247295068 -3.352209925625113 1.5189701225488805
3.718857886240359 -1.6237266827246628 2.3046443238672643
3.5617230459766827 -5.0806931685255625 2.1475094836035913
2.1475094836035886 -5.080693168525562 3.561723045976686
4.766423487998209 -4.033127566767713 3.352209925625115
4.1378841269435 -2.304644323867263 4.137884126943499
3.3522099256251146 -4.033127566767712 4.76642348799821
0.15713484026367808 -1.2570787221094182 4.871180048173994
-1.7284832429004489 -1.7284832429004497 4.399775527382962
-1.257078722109417 0.15713484026367652 4.871180048173994
-2.6712922844825124 -1.2570787221094195 7.699607172920184
-3.1426968052735447 -1.7284832429004504 5.813989089756057
-2.6712922844825124 0.15713484026367586 6.285393610547089
-1.2570787221094175 -2.671292284482514 7.699607172920183
-1.7284832429004489 -3.1426968052735456 5.813989089756057
0.15713484026367763 -2.6712922844825133 6.2853936105470884
-0.785674201318386 -0.7856742013183879 8.171011693711215
-0.7856742013183857 0.6285393610547076 6.756798131338121
0.6285393610547092 -0.7856742013183873 6.756798131338121
1.5189701225488783 4.347397247295071 -3.352209925625112
2.304644323867265 3.7188578862403614 -1.6237266827246628
4.347397247295069 1.5189701225488816 -3.352209925625114
3.7188578862403605 2.3046443238672665 -1.623726682724664
3.561723045976682 2.1475094836035913 -5.080693168525563
2.147509483603587 3.561723045976686 -5.080693168525562
4.766423487998207 3.352209925625116 -4.033127566767715
4.137884126943499 4.137884126943502 -2.304644323867265
3.352209925625112 4.76642348799821 -4.033127566767714
0.15713484026367763 4.8711800481739935 -1.2570787221094184
-1.7284832429004493 4.399775527382961 -1.7284832429004502
-1.2570787221094175 4.871180048173994 0.15713484026367608
-2.6712922844825124 7.699607172920185 -1.2570787221094215
-3.142696805273544 5.813989089756057 -1.728483242900452
-2.6712922844825124 6.28539361054709 0.15713484026367452
-1.2570787221094173 7.699607172920183 -2.671292284482516
-1.7284832429004489 5.813989089756056 -3.1426968052735464
0.15713484026367786 6.285393610547088 -2.671292284482514
-0.7856742013183856 8.171011693711216 -0.7856742013183897
-0.7856742013183857 6.756798131338122 0.6285393610547065
0.6285393610547094 6.756798131338121 -0.7856742013183882
4.8711800481739935 0.15713484026367786 -1.2570787221094186
4.399775527382962 -1.7284832429004489 -1.7284832429004504
4.871180048173995 -1.2570787221094173 0.15713484026367608
7.699607172920186 -2.6712922844825115 -1.2570787221094222
5.813989089756058 -3.142696805273544 -1.7284832429004522
6.285393610547091 -2.671292284482512 0.1571348402636743
7.699607172920184 -1.2570787221094164 -2.671292284482517
5.813989089756056 -1.7284832429004484 -3.142696805273547
6.285393610547088 0.15713484026367852 -2.671292284482515
8.171011693711216 -0.7856742013183848 -0.7856742013183905
6.7567981313381225 -0.7856742013183853 0.6285393610547061
6.756798131338121 0.6285393610547101 -0.7856742013183886
-7.699607172920183 2.6712922844825107 1.2570787221094226
-8.171011693711215 0.785674201318384 0.7856742013183906
-7.699607172920183 1.2570787221094157 2.6712922844825173
-11.156573658721083 1.0999438818457365 2.5141574442188395
-9.899494936611664 -3.3306690738754696e-15 1.4142135623730991
-9.428090415820634 0.4714045207910289 3.2998316455372256
-11.156573658721083 2.5141574442188315 1.0999438818457445
-9.899494936611664 1.4142135623730918 4.218847493575595e-15
-9.428090415820634 3.2998316455372185 0.47140452079103623
-10.685169137930053 2.9855619650098637 2.9855619650098717
-8.956685895029603 2.357022603955156 3.771236166328258
-8.956685895029603 3.7712361663282508 2.357022603955163
-3.21895141649746 -1.8047378541243648 0.19526214587563484
-1.8047378541243648 -3.2189514164974597 0.19526214587563495
-2.747546895706428 -1.333333333333333 2.0808802290397614
-1.3333333333333333 -2.747546895706428 2.0808802290397614
-3.21895141649746 0.19526214587563484 -1.804737854124365
-1.8047378541243655 0.19526214587563495 -3.2189514164974593
-2.7475468957064284 2.0808802290397614 -1.3333333333333335
-1.333333333333334 2.080880229039762 -2.747546895706428
0.19526214587563528 -3.21895141649746 -1.8047378541243648
0.19526214587563528 -1.8047378541243655 -3.2189514164974593
2.080880229039762 -2.7475468957064284 -1.333333333333333
2.080880229039762 -1.3333333333333335 -2.747546895706428
-2.080880229039761 1.3333333333333341 2.747546895706428
-0.1952621458756345 1.8047378541243657 3.2189514164974597
-2.080880229039761 2.747546895706429 1.3333333333333328
-0.1952621458756345 3.21895141649746 1.8047378541243644
-5.169656881620131 -2.1459676109983072 -0.7317540486252094
-5.169656881620133 -0.731754048625212 -2.1459676109983037
-6.42673560372955 -1.0460237291525674 0.3681898332205321
-6.426735603729551 0.3681898332205279 -1.0460237291525625
1.333333333333334 -2.080880229039761 2.747546895706428
1.8047378541243653 -0.19526214587563429 3.2189514164974593
2.747546895706429 -2.080880229039761 1.3333333333333337
3.21895141649746 -0.19526214587563429 1.804737854124365
-2.1459676109983077 -5.169656881620133 -0.7317540486252092
-0.7317540486252121 -5.169656881620134 -2.1459676109983032
-1.0460237291525671 -6.426735603729551 0.36818983322053234
0.3681898332205278 -6.426735603729552 -1.0460237291525618
-4.03158569416243 -1.0078964235406094 3.8205307012055822
-3.560181173371399 0.8777216596235171 4.2919352219966145
-5.760068937062881 -0.37935706248590095 3.034856499887198
-5.28866441627185 1.5062610206782256 3.50626102067823
1.3333333333333337 2.747546895706429 -2.0808802290397606
1.804737854124365 3.21895141649746 -0.19526214587563395
2.747546895706429 1.333333333333334 -2.0808802290397606
3.21895141649746 1.8047378541243653 -0.19526214587563395
-2.145967610998307 -0.7317540486252101 -5.169656881620131
-0.7317540486252117 -2.145967610998304 -5.169656881620132
-1.0460237291525671 0.3681898332205312 -6.426735603729549
0.36818983322052834 -1.0460237291525631 -6.42673560372955
-1.0078964235406094 -4.031585694162432 3.8205307012055827
0.8777216596235172 -3.5601811733714004 4.2919352219966145
-0.3793570624859012 -5.760068937062883 3.034856499887198
1.5062610206782256 -5.288664416271851 3.5062610206782296
-4.031585694162437 3.8205307012055805 -1.0078964235406052
-3.560181173371404 4.291935221996612 0.8777216596235209
-5.7600689370628855 3.0348564998871934 -0.37935706248589557
-5.288664416271853 3.506261020678225 1.5062610206782305
0.47140452079103246 1.885618083164127 5.299831645537222
1.8856180831641274 0.471404520791032 5.299831645537222
1.8856180831641274 3.2998316455372216 5.299831645537222
3.299831645537222 1.8856180831641267 5.299831645537222
-1.0078964235406092 3.820530701205583 -4.0315856941624295
0.8777216596235173 4.2919352219966145 -3.560181173371398
-0.37935706248590056 3.034856499887198 -5.76006893706288
1.5062610206782259 3.5062610206782296 -5.288664416271848
3.8205307012055814 -4.031585694162436 -1.0078964235406054
4.291935221996614 -3.5601811733714026 0.8777216596235204
3.0348564998871943 -5.760068937062885 -0.37935706248589574
3.506261020678226 -5.2886644162718515 1.50626102067823
0.47140452079103246 5.299831645537221 1.885618083164128
1.8856180831641274 5.299831645537221 0.4714045207910331
1.8856180831641272 5.299831645537221 3.299831645537223
3.299831645537222 5.299831645537221 1.885618083164128
3.8205307012055805 -1.007896423540606 -4.031585694162435
4.291935221996612 0.8777216596235202 -3.5601811733714017
3.034856499887194 -0.37935706248589657 -5.760068937062884
3.5062610206782256 1.5062610206782299 -5.288664416271851
-8.263697816560907 -1.6147399906091382 1.4089492800126946
-7.792293295769874 -1.1433354698181064 3.294567363176821
-8.001806416121443 -3.552736353861158 1.8279755207158341
-7.530401895330411 -3.081331833070126 3.7135936038799606
5.299831645537222 0.47140452079103223 1.885618083164128
5.299831645537222 1.8856180831641272 0.47140452079103334
5.299831645537221 1.885618083164127 3.299831645537223
5.299831645537222 3.299831645537222 1.8856180831641283
-8.263697816560908 1.408949280012689 -1.61473999060913
-7.792293295769877 3.2945673631768155 -1.143335469818098
-8.001806416121449 1.827975520715829 -3.5527363538611487
-7.530401895330416 3.7135936038799557 -3.0813318330701165
-6.784396872229266 2.8882502243443278 4.3024637867174285
-6.784396872229268 4.302463786717422 2.8882502243443327
-5.736831270471417 4.092950666365853 5.507164228738953
-5.736831270471418 5.507164228738947 4.092950666365857
1.408949280012686 -8.26369781656091 -1.6147399906091269
3.294567363176813 -7.7922932957698805 -1.143335469818096
1.8279755207158255 -8.001806416121452 -3.5527363538611465
3.7135936038799526 -7.530401895330422 -3.0813318330701156
2.88825022434433 -6.784396872229266 4.302463786717429
4.302463786717424 -6.784396872229268 2.8882502243443344
4.092950666365855 -5.736831270471416 5.5071642287389535
5.507164228738949 -5.736831270471418 4.092950666365858
2.8882502243443255 4.302463786717429 -6.784396872229267
4.302463786717421 2.8882502243443344 -6.7843968722292685
4.092950666365851 5.507164228738954 -5.736831270471418
5.507164228738946 4.0929506663658595 -5.73683127047142
-3.299831645537221 -1.8856180831641272 -0.4714045207910311
-1.8856180831641252 -3.299831645537222 -0.4714045207910307
-3.299831645537221 -0.4714045207910327 -1.8856180831641265
-1.8856180831641267 -0.4714045207910327 -3.299831645537221
-0.47140452079103023 -3.299831645537222 -1.8856180831641252
-0.4714045207910309 -1.8856180831641274 -3.2998316455372203
-2.5141574442188355 -1.0999438818457405 2.671292284482513
-1.0999438818457397 -2.514157444218836 2.6712922844825124
-2.0427529234278032 0.785674201318386 3.142696805273545
-0.15713484026367663 1.2570787221094177 3.6141013260645765
0.7856742013183868 -2.0427529234278037 3.142696805273544
1.2570787221094186 -0.15713484026367724 3.614101326064576
-2.514157444218835 2.6712922844825124 -1.099943881845741
-1.09994388184574 2.671292284482512 -2.514157444218835
-2.0427529234278037 3.142696805273545 0.7856742013183853
-0.15713484026367674 3.6141013260645765 1.257078722109417
0.7856742013183868 3.1426968052735433 -2.0427529234278037
1.2570787221094184 3.614101326064576 -0.1571348402636773
2.6712922844825133 -2.514157444218835 -1.0999438818457408
2.6712922844825124 -1.09994388184574 -2.5141574442188355
3.1426968052735456 -2.0427529234278032 0.7856742013183855
3.614101326064577 -0.1571348402636768 1.2570787221094173
3.142696805273544 0.7856742013183867 -2.0427529234278037
3.614101326064576 1.2570787221094184 -0.1571348402636773
-6.75679813133812 -0.6285393610547108 0.7856742013183893
-6.756798131338121 0.7856742013183848 -0.628539361054705
-6.285393610547088 -0.15713484026367897 2.6712922844825155
-5.813989089756056 1.728483242900448 3.1426968052735473
-6.28539361054709 2.6712922844825115 -0.15713484026367341
-5.813989089756058 3.142696805273543 1.7284832429004529
-0.6285393610547108 -6.75679813133812 0.7856742013183895
0.7856742013183846 -6.756798131338122 -0.6285393610547048
-0.15713484026367897 -6.285393610547087 2.671292284482516
1.7284832429004477 -5.813989089756055 3.1426968052735473
2.6712922844825115 -6.28539361054709 -0.15713484026367275
3.142696805273543 -5.813989089756057 1.7284832429004533
0.7856742013183837 -8.171011693711215 0.7856742013183909
1.2570787221094153 -7.6996071729201825 2.671292284482517
2.6712922844825107 -7.699607172920184 1.2570787221094228
-0.6285393610547105 0.7856742013183884 -6.75679813133812
0.7856742013183846 -0.6285393610547065 -6.756798131338121
-0.15713484026367897 2.6712922844825147 -6.285393610547088
1.7284832429004477 3.1426968052735464 -5.813989089756056
2.671292284482511 -0.15713484026367475 -6.285393610547089
3.142696805273543 1.728483242900452 -5.813989089756057
0.785674201318384 0.7856742013183889 -8.171011693711215
1.2570787221094157 2.6712922844825155 -7.699607172920183
2.6712922844825107 1.2570787221094206 -7.699607172920184
2.3570226039551585 3.7712361663282534 5.185449728701349
3.7712361663282534 2.3570226039551585 5.185449728701349
2.357022603955158 5.185449728701348 3.7712361663282543
3.7712361663282534 5.185449728701348 2.3570226039551603
5.185449728701348 2.3570226039551585 3.7712361663282548
5.185449728701348 3.771236166328254 2.3570226039551603
4.242640687119285 4.242640687119285 5.6568542494923815
4.242640687119285 5.656854249492381 4.242640687119287
5.656854249492381 4.242640687119286 4.242640687119287
3 0 1 2
3 3 4 5
3 6 7 8
3 9 10 11
4 4 1 2 5
4 7 1 0 8
4 10 2 0 11
4 3 4 7 6
4 10 5 3 9
4 11 8 6 9
3 7 1 4
3 10 2 5
3 11 0 8
3 9 3 6
3 12 1 13
3 14 4 15
3 16 7 17
3 18 19 20
4 13 1 4 15
4 12 1 7 17
4 14 4 7 16
4 19 13 12 20
4 19 15 14 18
4 20 17 16 18
3 7 1 4
3 19 13 15
3 20 12 17
3 18 14 16
3 21 2 22
3 23 5 24
3 25 10 26
3 27 28 29
4 22 2 5 24
4 21 2 10 26
4 23 5 10 25
4 28 22 21 29
4 28 24 23 27
4 29 26 25 27
3 10 2 5
3 28 22 24
3 29 21 26
3 27 23 25
3 30 13 31
3 32 15 33
3 34 19 35
3 36 37 38
4 15 13 31 33
4 30 13 19 35
4 37 31 30 38
4 32 15 19 34
4 32 33 37 36
4 38 35 34 36
3 19 13 15
3 37 31 33
3 38 30 35
3 36 32 34
3 39 0 40
3 41 8 42
3 43 11 44
3 45 46 47
4 40 0 8 42
4 39 0 11 44
4 41 8 11 43
4 46 40 39 47
4 46 42 41 45
4 47 44 43 45
3 11 0 8
3 46 40 42
3 47 39 44
3 45 41 43
3 48 12 49
3 50 17 51
3 52 20 53
3 54 55 56
4 17 12 49 51
4 48 12 20 53
4 55 49 48 56
4 50 17 20 52
4 50 51 55 54
4 56 53 52 54
3 20 12 17
3 55 49 51
3 56 48 53
3 54 50 52
3 57 3 58
3 59 6 60
3 61 9 62
3 63 64 65
4 58 3 6 60
4 57 3 9 62
4 59 6 9 61
4 64 58 57 65
4 64 60 59 63
4 65 62 61 63
3 9 3 6
3 64 58 60
3 65 57 62
3 63 59 61
3 66 21 67
3 68 26 69
3 70 29 71
3 72 73 74
4 26 21 67 69
4 66 21 29 71
4 73 67 66 74
4 68 26 29 70
4 68 69 73 72
4 70 71 74 72
3 29 21 26
3 73 67 69
3 74 66 71
3 72 68 70
3 75 14 76
3 77 16 78
3 79 18 80
3 81 82 83
4 16 14 76 78
4 75 14 18 80
4 77 16 18 79
4 82 76 75 83
4 77 78 82 81
4 83 80 79 81
3 18 14 16
3 82 76 78
3 83 75 80
3 81 77 79
3 84 85 86
3 87 88 89
3 90 91 92
3 93 94 95
4 88 85 86 89
4 91 85 84 92
4 94 86 84 95
4 87 88 91 90
4 87 89 94 93
4 90 92 95 93
3 91 85 88
3 94 86 89
3 95 84 92
3 93 87 90
3 96 23 97
3 98 25 99
3 100 27 101
3 102 103 104
4 25 23 97 99
4 96 23 27 101
4 103 97 96 104
4 98 25 27 100
4 98 99 103 102
4 104 101 100 102
3 27 23 25
3 103 97 99
3 104 96 101
3 102 98 100
3 105 106 107
3 108 109 110
3 111 112 113
3 114 115 116
4 109 106 107 110
4 112 106 105 113
4 115 107 105 116
4 108 109 112 111
4 108 110 115 114
4 111 113 116 114
3 112 106 109
3 115 107 110
3 116 105 113
3 114 108 111
3 117 41 118
3 119 43 120
3 121 45 122
3 123 124 125
4 43 41 118 120
4 117 41 45 122
4 124 118 117 125
4 119 43 45 121
4 119 120 124 123
4 125 122 121 123
3 45 41 43
3 124 118 120
3 125 117 122
3 123 119 121
3 126 127 128
3 129 130 131
3 132 133 134
3 135 136 137
4 130 127 128 131
4 133 127 126 134
4 136 128 126 137
4 129 130 133 132
4 129 131 136 135
4 132 134 137 135
3 133 127 130
3 136 128 131
3 137 126 134
3 135 129 132
3 138 139 140
3 141 142 143
3 144 145 146
3 147 148 149
4 142 139 140 143
4 145 139 138 146
4 148 140 138 149
4 141 142 145 144
4 141 143 148 147
4 144 146 149 147
3 145 139 142
3 148 140 143
3 149 138 146
3 147 141 144
3 150 151 152
3 153 154 155
3 156 157 158
3 159 160 161
4 154 151 152 155
4 157 151 150 158
4 160 152 150 161
4 153 154 157 156
4 160 155 153 159
4 161 158 156 159
3 157 151 154
3 160 152 155
3 161 150 158
3 159 153 156
4 162 1 2 163
4 164 4 5 165
4 4 1 2 5
4 162 1 4 164
4 163 2 5 165
4 164 162 163 165
4 166 1 0 167
4 168 7 8 169
4 7 1 0 8
4 166 1 7 168
4 167 0 8 169
4 168 166 167 169
4 170 2 0 171
4 172 10 11 173
4 10 2 0 11
4 170 2 10 172
4 171 0 11 173
4 172 170 171 173
4 174 4 3 175
4 176 7 6 177
4 3 4 7 6
4 174 4 7 176
4 175 3 6 177
4 176 174 175 177
4 178 13 12 179
4 180 19 20 181
4 19 13 12 20
4 178 13 19 180
4 179 12 20 181
4 180 178 179 181
4 182 5 3 183
4 184 10 9 185
4 10 5 3 9
4 182 5 10 184
4 183 3 9 185
4 184 182 183 185
4 186 22 21 187
4 188 28 29 189
4 28 22 21 29
4 28 22 186 188
4 187 21 29 189
4 188 186 187 189
4 190 15 14 191
4 192 19 18 193
4 19 15 14 18
4 190 15 19 192
4 191 14 18 193
4 192 190 191 193
4 194 8 6 195
4 196 11 9 197
4 11 8 6 9
4 194 8 11 196
4 195 6 9 197
4 196 194 195 197
4 198 40 39 199
4 200 46 47 201
4 46 40 39 47
4 46 40 198 200
4 47 39 199 201
4 200 198 199 201
4 202 24 23 203
4 204 28 27 205
4 28 24 23 27
4 202 24 28 204
4 203 23 27 205
4 204 202 203 205
4 206 17 16 207
4 208 20 18 209
4 20 17 16 18
4 206 17 20 208
4 207 16 18 209
4 208 206 207 209
4 210 58 57 211
4 212 64 65 213
4 64 58 57 65
4 64 58 210 212
4 65 57 211 213
4 212 210 211 213
4 214 42 41 215
4 216 46 45 217
4 46 42 41 45
4 214 42 46 216
4 215 41 45 217
4 216 214 215 217
4 218 26 25 219
4 220 29 27 221
4 29 26 25 27
4 218 26 29 220
4 219 25 27 221
4 220 218 219 221
4 222 60 59 223
4 224 64 63 225
4 64 60 59 63
4 222 60 64 224
4 63 59 223 225
4 224 222 223 225
4 226 44 43 227
4 228 47 45 229
4 47 44 43 45
4 226 44 47 228
4 227 43 45 229
4 228 226 227 229
4 230 35 34 231
4 232 38 36 233
4 38 35 34 36
4 230 35 38 232
4 231 34 36 233
4 232 230 231 233
4 234 62 61 235
4 236 65 63 237
4 65 62 61 63
4 234 62 65 236
4 235 61 63 237
4 236 234 235 237
4 238 53 52 239
4 240 56 54 241
4 56 53 52 54
4 238 53 56 240
4 239 52 54 241
4 240 238 239 241
4 242 80 79 243
4 244 83 81 245
4 83 80 79 81
4 242 80 83 244
4 243 79 81 245
4 244 242 243 245
4 246 71 70 247
4 248 74 72 249
4 70 71 74 72
4 246 71 74 248
4 247 70 72 249
4 247 246 248 249
4 250 101 100 251
4 252 104 102 253
4 104 101 100 102
4 250 101 104 252
4 251 100 102 253
4 252 250 251 253
4 254 122 121 255
4 256 125 123 257
4 125 122 121 123
4 254 122 125 256
4 255 121 123 257
4 256 254 255 257
4 258 1 2 259
4 260 1 0 261
4 262 2 0 263
4 85 258 260 86
4 85 259 262 84
4 86 261 263 84
3 0 1 2
3 260 1 258
3 262 2 259
3 85 258 259
3 263 0 261
3 86 260 261
3 84 262 263
3 84 85 86
4 264 4 5 265
4 266 4 3 267
4 268 5 3 269
4 106 264 266 107
4 106 265 268 105
4 107 267 269 105
3 3 4 5
3 266 4 264
3 268 5 265
3 106 264 265
3 269 3 267
3 107 266 267
3 105 268 269
3 105 106 107
4 270 7 8 271
4 272 7 6 273
4 274 8 6 275
4 127 270 272 128
4 127 271 274 126
4 128 273 275 126
3 6 7 8
3 272 7 270
3 274 8 271
3 127 270 271
3 275 6 273
3 128 272 273
3 126 274 275
3 126 127 128
4 276 10 11 277
4 278 10 9 279
4 280 11 9 281
4 139 276 278 140
4 139 277 280 138
4 140 279 281 138
3 9 10 11
3 278 10 276
3 280 11 277
3 139 276 277
3 281 9 279
3 140 278 279
3 138 280 281
3 138 139 140
4 282 19 20 283
4 284 19 18 285
4 286 20 18 287
4 151 282 284 152
4 151 283 286 150
4 152 285 287 150
3 18 19 20
3 284 19 282
3 286 20 283
3 151 282 283
3 287 18 285
3 152 284 285
3 150 286 287
3 150 151 152
4 288 28 29 289
4 290 28 27 291
4 292 29 27 293
4 294 288 290 295
4 294 289 292 296
4 295 291 293 296
3 27 28 29
3 290 28 288
3 292 29 289
3 294 288 289
3 293 27 291
3 295 290 291
3 296 292 293
3 296 294 295
4 297 46 47 298
4 299 46 45 300
4 301 47 45 302
4 303 297 299 304
4 303 298 301 305
4 304 300 302 305
3 45 46 47
3 299 46 297
3 301 47 298
3 303 297 298
3 302 45 300
3 304 299 300
3 305 301 302
3 305 303 304
4 306 64 65 307
4 308 64 63 309
4 310 65 63 311
4 312 306 308 313
4 312 307 310 314
4 313 309 311 314
3 63 64 65
3 308 64 306
3 310 65 307
3 312 306 307
3 311 63 309
3 313 308 309
3 314 310 311
3 314 312 313
# cell 1: 0 1 2 3 4 5 6 7 8 9 10 11 12 13
# cell 2: 14 15 16 17 18 19 20 21 22 23 24 25 26 27
# cell 3: 28 29 30 31 32 33 34 35 36 37 38 39 40 41
# cell 4: 42 43 44 45 46 47 48 49 50 51 52 53 54 55
# cell 5: 56 57 58 59 60 61 62 63 64 65 66 67 68 69
# cell 6: 70 71 72 73 74 75 76 77 78 79 80 81 82 83
# cell 7: 84 85 86 87 88 89 90 91 92 93 94 95 96 97
# cell 8: 98 99 100 101 102 103 104 105 106 107 108 109 110 111
# cell 9: 112 113 114 115 116 117 118 119 120 121 122 123 124 125
# cell 10: 126 127 128 129 130 131 132 133 134 135 136 137 138 139
# cell 11: 140 141 142 143 144 145 146 147 148 149 150 151 152 153
# cell 12: 154 155 156 157 158 159 160 161 162 163 164 165 166 167
# cell 13: 168 169 170 171 172 173 174 175 176 177 178 179 180 181
# cell 14: 182 183 184 185 186 187 188 189 190 191 192 193 194 195
# cell 15: 196 197 198 199 200 201 202 203 204 205 206 207 208 209
# cell 16: 210 211 212 213 214 215 216 217 218 219 220 221 222 223
# cell 17: 224 225 226 227 228 229
# cell 18: 230 231 232 233 234 235
# cell 19: 236 237 238 239 240 241
# cell 20: 242 243 244 245 246 247
# cell 21: 248 249 250 251 252 253
# cell 22: 254 255 256 257 258 259
# cell 23: 260 261 262 263 264 265
# cell 24: 266 267 268 269 270 271
# cell 25: 272 273 274 275 276 277
# cell 26: 278 279 280 281 282 283
# cell 27: 284 285 286 287 288 289
# cell 28: 290 291 292 293 294 295
# cell 29: 296 297 298 299 300 301
# cell 30: 302 303 304 305 306 307
# cell 31: 308 309 310 311 312 313
# cell 32: 314 315 316 317 318 319
# cell 33: 320 321 322 323 324 325
# cell 34: 326 327 328 329 330 331
# cell 35: 332 333 334 335 336 337
# cell 36: 338 339 340 341 342 343
# cell 37: 344 345 346 347 348 349
# cell 38: 350 351 352 353 354 355
# cell 39: 356 357 358 359 360 361
# cell 40: 362 363 364 365 366 367
# cell 41: 368 369 370 371 372 373 374 375 376 377 378 379 380 381
# cell 42: 382 383 384 385 386 387 388 389 390 391 392 393 394 395
# cell 43: 396 397 398 399 400 401 402 403 404 405 406 407 408 409
# cell 44: 410 411 412 413 414 415 416 417 418 419 420 421 422 423
# cell 45: 424 425 426 427 428 429 430 431 432 433 434 435 436 437
# cell 46: 438 439 440 441 442 443 444 445 446 447 448 449 450 451
# cell 47: 452 453 454 455 456 457 458 459 460 461 462 463 464 465
# cell 48: 466 467 468 469 470 471 472 473 474 475 476 477 478 479