OFF
# face-rotation BFS net; polygonal faces are preserved
# the cell decomposition is listed below as comments
276 240 0
-0.7071067811865471 0.707106781186548 -2.121320343559642
-2.121320343559642 0.707106781186548 -0.7071067811865472
-2.121320343559642 -0.7071067811865469 0.7071067811865476
-0.7071067811865469 -2.121320343559642 0.7071067811865476
0.707106781186548 -2.121320343559642 -0.7071067811865471
0.707106781186548 -0.7071067811865471 -2.121320343559642
0.23570226039551637 1.6499158227686115 1.649915822768611
-1.6499158227686102 1.1785113019775797 1.1785113019775793
1.1785113019775797 -1.6499158227686104 1.1785113019775793
1.6499158227686115 0.23570226039551628 1.649915822768611
1.1785113019775795 1.1785113019775795 -1.64991582276861
1.6499158227686113 1.6499158227686113 0.2357022603955163
-5.578286829360541 -0.8642416214502248 0.5499719409228702
-3.849803586460092 -1.4927809825049327 1.335646142241256
-3.849803586460092 1.3356461422412567 -1.492780982504933
-5.578286829360541 0.5499719409228703 -0.8642416214502247
-2.906994544878029 2.2784551838233202 2.2784551838233194
-5.10688230856951 -0.39283710065919275 2.4355900240869968
-4.635477787778479 1.4927809825049339 2.906994544878028
-5.10688230856951 2.4355900240869968 -0.39283710065919286
-4.635477787778479 2.906994544878029 1.4927809825049336
-0.8642416214502249 -5.578286829360541 0.54997194092287
-1.4927809825049332 -3.849803586460092 1.335646142241256
1.3356461422412567 -3.8498035864600917 -1.492780982504933
0.5499719409228704 -5.578286829360541 -0.8642416214502247
2.2784551838233202 -2.906994544878028 2.27845518382332
-0.39283710065919264 -5.10688230856951 2.4355900240869968
1.492780982504934 -4.635477787778478 2.906994544878028
2.4355900240869968 -5.10688230856951 -0.39283710065919286
2.906994544878029 -4.635477787778479 1.4927809825049336
-7.04487867182153 -2.1736986236475357 0.1833239803076241
-3.5879121860206302 -3.4307773457569524 1.7546723829443955
-5.054504028481618 -4.740234347954264 1.3880244223291494
-6.782987271382067 -4.111694986899555 0.6023502210107641
-6.102069630239466 -1.2308895820654717 3.9545601466358757
-4.583099507690585 -4.2688298271632314 3.2736425054932754
-5.840178229800004 -3.168885945317491 4.3735863873390155
-8.040065993491485 -3.0117511050538144 1.7022941028565044
-7.5686614727004535 -2.540346584262783 3.58791218602063
-0.8642416214502242 0.5499719409228703 -5.578286829360541
-1.4927809825049327 1.3356461422412567 -3.849803586460092
1.3356461422412567 -1.4927809825049336 -3.8498035864600917
0.5499719409228707 -0.8642416214502249 -5.578286829360541
2.2784551838233194 2.2784551838233202 -2.906994544878028
-0.39283710065919264 2.4355900240869968 -5.10688230856951
1.4927809825049336 2.906994544878029 -4.635477787778478
2.4355900240869977 -0.3928371006591933 -5.10688230856951
2.9069945448780286 1.4927809825049336 -4.635477787778478
-7.044878671821529 0.18332398030762342 -2.1736986236475353
-3.58791218602063 1.7546723829443958 -3.4307773457569524
-5.054504028481618 1.3880244223291487 -4.740234347954263
-6.782987271382067 0.6023502210107623 -4.111694986899554
-6.102069630239466 3.9545601466358766 -1.2308895820654724
-4.583099507690586 3.2736425054932754 -4.2688298271632314
-5.840178229800005 4.3735863873390155 -3.1688859453174913
-8.040065993491485 1.7022941028565028 -3.0117511050538144
-7.568661472700454 3.58791218602063 -2.5403465842627826
1.6499158227686115 3.0641293851417064 4.4783429475148
0.23570226039551656 3.0641293851417064 3.0641293851417064
3.0641293851417064 0.23570226039551612 3.0641293851417064
3.0641293851417064 1.6499158227686115 4.4783429475148
3.064129385141706 3.0641293851417064 0.23570226039551656
1.6499158227686115 4.478342947514801 3.0641293851417064
3.064129385141706 4.478342947514801 1.6499158227686115
4.478342947514801 1.6499158227686115 3.0641293851417064
4.478342947514801 3.0641293851417064 1.6499158227686115
0.18332398030762298 -7.04487867182153 -2.1736986236475344
1.7546723829443953 -3.5879121860206302 -3.4307773457569515
1.3880244223291478 -5.054504028481617 -4.740234347954262
0.6023502210107616 -6.782987271382067 -4.111694986899554
3.9545601466358766 -6.102069630239467 -1.2308895820654717
3.2736425054932745 -4.583099507690585 -4.268829827163231
4.3735863873390155 -5.840178229800004 -3.168885945317491
1.7022941028565022 -8.040065993491485 -3.0117511050538135
3.587912186020629 -7.5686614727004535 -2.5403465842627826
-5.31639542892108 1.9118072232080736 4.740234347954262
-1.859428943120181 3.4831556258448457 3.4831556258448444
-2.5403465842627826 3.9021818665479855 5.316395428921078
-4.268829827163232 3.1165076652295993 5.944934789975788
-5.31639542892108 4.740234347954263 1.9118072232080727
-2.5403465842627826 5.31639542892108 3.9021818665479837
-4.268829827163232 5.944934789975788 3.116507665229598
-5.997313070063682 3.745047026284308 5.159260588657402
-5.997313070063682 5.159260588657403 3.7450470262843067
-2.1213203435596433 -4.949747468305833 -3.535533905932739
-3.5355339059327378 -4.949747468305833 -2.121320343559644
-4.949747468305833 -3.535533905932737 -2.1213203435596437
-4.949747468305833 -2.1213203435596415 -3.5355339059327386
-3.5355339059327378 -2.121320343559642 -4.949747468305834
-2.1213203435596433 -3.5355339059327378 -4.949747468305834
-5.892556509887897 -5.892556509887895 -4.478342947514802
-5.421151989096865 -5.421151989096863 -2.592724864350676
-5.421151989096865 -2.5927248643506733 -5.421151989096865
-5.892556509887897 -4.4783429475148 -5.892556509887897
-2.592724864350675 -5.421151989096864 -5.421151989096866
-4.478342947514802 -5.892556509887895 -5.892556509887898
1.9118072232080752 -5.31639542892108 4.740234347954263
3.483155625844846 -1.8594289431201805 3.4831556258448444
3.902181866547987 -2.5403465842627817 5.316395428921078
3.116507665229601 -4.2688298271632314 5.944934789975787
4.740234347954263 -5.31639542892108 1.9118072232080716
5.316395428921081 -2.5403465842627817 3.9021818665479824
5.94493478997579 -4.2688298271632314 3.116507665229596
3.7450470262843094 -5.997313070063681 5.159260588657402
5.1592605886574034 -5.997313070063681 3.745047026284306
0.23570226039551678 -2.592724864350675 5.892556509887895
-1.6499158227686102 -3.064129385141707 5.421151989096864
-3.064129385141706 -1.6499158227686117 5.421151989096865
-2.592724864350674 0.235702260395515 5.892556509887897
-0.7071067811865474 0.7071067811865466 6.3639610306789285
0.7071067811865477 -0.7071067811865482 6.363961030678928
-2.5927248643506724 -2.5927248643506773 8.720983634634086
-3.064129385141705 -3.064129385141708 6.835365551469959
-2.1213203435596415 0.7071067811865452 7.778174593052024
-2.121320343559641 -0.7071067811865505 9.192388155425117
0.707106781186549 -2.121320343559644 7.778174593052022
-0.7071067811865459 -2.1213203435596455 9.192388155425117
1.9118072232080732 4.740234347954264 -5.31639542892108
3.4831556258448453 3.4831556258448457 -1.859428943120181
3.902181866547984 5.31639542892108 -2.5403465842627826
3.116507665229598 5.944934789975789 -4.268829827163232
4.740234347954263 1.9118072232080732 -5.31639542892108
5.31639542892108 3.9021818665479846 -2.540346584262782
5.944934789975788 3.1165076652295984 -4.2688298271632314
3.745047026284307 5.159260588657403 -5.997313070063681
5.159260588657402 3.745047026284307 -5.997313070063681
0.23570226039551678 5.892556509887895 -2.5927248643506737
-1.6499158227686097 5.421151989096863 -3.0641293851417055
-3.0641293851417046 5.421151989096864 -1.6499158227686108
-2.592724864350673 5.892556509887896 0.23570226039551567
-0.7071067811865466 6.363961030678928 0.7071067811865479
0.7071067811865483 6.363961030678927 -0.7071067811865472
-2.5927248643506724 8.720983634634084 -2.592724864350675
-3.0641293851417046 6.835365551469958 -3.0641293851417064
-2.121320343559641 7.778174593052022 0.707106781186547
-2.121320343559641 9.192388155425117 -0.7071067811865485
0.7071067811865483 7.778174593052022 -2.1213203435596424
-0.7071067811865462 9.192388155425116 -2.1213203435596433
5.8925565098878945 0.23570226039551678 -2.592724864350674
5.421151989096863 -1.6499158227686097 -3.064129385141706
5.421151989096863 -3.0641293851417046 -1.649915822768611
5.892556509887896 -2.592724864350673 0.23570226039551567
6.363961030678928 -0.7071067811865466 0.7071067811865475
6.363961030678927 0.7071067811865483 -0.7071067811865476
8.720983634634084 -2.5927248643506733 -2.5927248643506755
6.835365551469958 -3.0641293851417046 -3.0641293851417064
7.778174593052022 -2.1213203435596415 0.7071067811865466
9.192388155425116 -2.121320343559642 -0.707106781186549
7.778174593052022 0.7071067811865479 -2.121320343559643
9.192388155425116 -0.7071067811865467 -2.1213203435596437
-9.820927516479827 3.37839906566906 0.5499719409228707
-10.292332037270857 1.492780982504933 0.0785674201318387
-10.292332037270857 0.07856742013183782 1.4927809825049334
-9.820927516479825 0.54997194092287 3.37839906566906
-9.349522995688794 2.4355900240869963 3.8498035864600917
-9.349522995688794 3.8498035864600917 2.4355900240869968
-13.277894002280723 1.8070506630322865 1.8070506630322887
-12.020815280171306 0.7071067811865466 0.7071067811865479
-11.078006238589243 1.6499158227686097 4.4783429475148
-12.806489481489692 2.278455183823318 3.692668746196415
-11.078006238589243 4.4783429475147996 1.6499158227686115
-12.806489481489692 3.6926687461964134 2.2784551838233202
-3.535533905932737 -2.121320343559642 0.707106781186547
-2.121320343559642 -3.535533905932737 0.707106781186547
-3.535533905932737 0.7071067811865479 -2.1213203435596424
-2.1213203435596424 0.7071067811865479 -3.5355339059327373
0.7071067811865475 -3.5355339059327378 -2.1213203435596424
0.7071067811865479 -2.1213203435596424 -3.5355339059327373
-4.949747468305833 -2.1213203435596424 -0.7071067811865481
-4.949747468305833 -0.7071067811865475 -2.121320343559643
-2.1213203435596424 -4.949747468305832 -0.7071067811865481
-0.7071067811865472 -4.949747468305833 -2.121320343559643
-2.1213203435596424 -0.7071067811865475 -4.949747468305832
-0.7071067811865475 -2.1213203435596424 -4.949747468305832
-3.221264225405383 -1.807050663032288 1.9641855032959654
-1.8070506630322876 -3.2212642254053834 1.964185503295965
-2.2784551838233194 1.9641855032959654 2.906994544878029
-0.3928371006591924 2.435590024086997 3.378399065669061
1.964185503295966 -2.2784551838233194 2.906994544878028
2.4355900240869977 -0.3928371006591928 3.37839906566906
-3.8498035864600917 -1.0213764617139023 3.6926687461964147
-3.3783990656690595 0.8642416214502244 4.1640732669874465
-1.0213764617139012 -3.8498035864600926 3.6926687461964143
0.8642416214502255 -3.378399065669061 4.164073266987446
0.39283710065919397 1.807050663032288 5.10688230856951
1.8070506630322891 0.3928371006591931 5.106882308569509
-3.221264225405383 1.9641855032959656 -1.8070506630322878
-1.8070506630322876 1.9641855032959652 -3.2212642254053825
-2.278455183823319 2.906994544878029 1.9641855032959654
-0.39283710065919225 3.378399065669061 2.4355900240869968
1.964185503295966 2.906994544878028 -2.2784551838233185
2.4355900240869977 3.3783990656690595 -0.39283710065919236
-3.849803586460091 3.6926687461964147 -1.021376461713902
-3.3783990656690595 4.1640732669874465 0.8642416214502242
-1.0213764617139014 3.692668746196414 -3.8498035864600917
0.8642416214502255 4.164073266987446 -3.3783990656690595
0.39283710065919397 5.106882308569509 1.807050663032288
1.8070506630322891 5.106882308569508 0.3928371006591935
1.9641855032959654 -3.221264225405382 -1.8070506630322876
1.9641855032959652 -1.8070506630322873 -3.221264225405382
2.906994544878029 -2.2784551838233185 1.9641855032959654
3.378399065669061 -0.3928371006591924 2.435590024086997
2.9069945448780277 1.9641855032959665 -2.2784551838233185
3.3783990656690595 2.4355900240869977 -0.3928371006591925
3.6926687461964143 -3.849803586460091 -1.0213764617139018
4.1640732669874465 -3.3783990656690595 0.8642416214502243
3.692668746196414 -1.0213764617139012 -3.8498035864600917
4.164073266987445 0.8642416214502255 -3.37839906566906
5.106882308569509 0.39283710065919375 1.807050663032288
5.106882308569509 1.8070506630322887 0.3928371006591934
-7.463904912524668 -1.3356461422412564 0.0785674201318387
-7.463904912524669 0.07856742013183848 -1.335646142241256
-6.521095870942605 -0.39283710065919264 3.8498035864600917
-6.049691350151574 1.4927809825049339 4.321208107251123
-6.521095870942605 3.8498035864600917 -0.3928371006591922
-6.049691350151574 4.321208107251124 1.492780982504934
-8.878118474897763 -1.335646142241256 1.4927809825049336
-8.406713954106731 -0.8642416214502247 3.3783990656690595
-8.878118474897763 1.4927809825049332 -1.335646142241256
-8.406713954106731 3.3783990656690595 -0.8642416214502242
-7.463904912524669 2.9069945448780286 4.321208107251123
-7.463904912524669 4.321208107251123 2.906994544878029
-1.3356461422412553 -7.46390491252467 0.07856742013183893
0.07856742013183915 -7.46390491252467 -1.335646142241256
-0.3928371006591924 -6.521095870942606 3.8498035864600926
1.4927809825049343 -6.049691350151574 4.321208107251124
3.8498035864600926 -6.521095870942606 -0.39283710065919264
4.321208107251124 -6.049691350151574 1.492780982504934
0.07856742013184026 -10.29233203727086 1.4927809825049347
-1.3356461422412549 -8.878118474897764 1.4927809825049345
-0.8642416214502231 -8.406713954106733 3.3783990656690603
0.5499719409228717 -9.820927516479829 3.3783990656690612
1.4927809825049347 -10.29233203727086 0.0785674201318396
1.4927809825049343 -8.878118474897766 -1.335646142241255
3.3783990656690603 -8.406713954106733 -0.8642416214502233
3.3783990656690612 -9.820927516479829 0.5499719409228717
2.435590024086998 -9.349522995688796 3.8498035864600926
2.9069945448780294 -7.463904912524669 4.321208107251124
4.321208107251124 -7.463904912524669 2.9069945448780294
3.8498035864600926 -9.349522995688796 2.435590024086998
-1.3356461422412562 0.07856742013183893 -7.4639049125246695
0.07856742013183893 -1.3356461422412562 -7.4639049125246695
-0.39283710065919264 3.849803586460092 -6.521095870942606
1.492780982504934 4.321208107251124 -6.049691350151574
3.8498035864600917 -0.39283710065919286 -6.521095870942605
4.321208107251124 1.4927809825049336 -6.049691350151573
0.0785674201318396 1.4927809825049339 -10.29233203727086
-1.3356461422412549 1.492780982504934 -8.878118474897764
-0.864241621450224 3.3783990656690603 -8.406713954106733
0.5499719409228717 3.3783990656690603 -9.820927516479829
1.4927809825049347 0.07856742013183893 -10.29233203727086
1.4927809825049343 -1.3356461422412562 -8.878118474897764
3.3783990656690612 -0.8642416214502244 -8.406713954106733
3.3783990656690612 0.5499719409228706 -9.820927516479827
2.435590024086998 3.849803586460092 -9.349522995688796
2.906994544878029 4.321208107251124 -7.463904912524669
4.321208107251124 2.9069945448780286 -7.463904912524669
3.849803586460093 2.435590024086997 -9.349522995688796
2.121320343559644 3.5355339059327386 6.363961030678928
3.535533905932739 2.1213203435596433 6.363961030678928
2.121320343559644 6.363961030678928 3.5355339059327386
3.535533905932739 6.363961030678928 2.1213203435596437
6.3639610306789285 2.1213203435596424 3.5355339059327378
6.3639610306789285 3.5355339059327373 2.121320343559643
4.478342947514803 5.892556509887896 7.306770072260991
2.5927248643506764 5.421151989096865 6.83536555146996
2.5927248643506764 6.835365551469959 5.421151989096865
4.478342947514803 7.30677007226099 5.892556509887896
5.892556509887898 4.4783429475148 7.306770072260991
5.421151989096866 2.592724864350674 6.835365551469959
6.835365551469961 2.5927248643506737 5.421151989096864
7.306770072260993 4.4783429475148 5.892556509887896
5.892556509887898 7.30677007226099 4.478342947514802
5.421151989096866 6.835365551469959 2.592724864350675
6.835365551469961 5.421151989096863 2.5927248643506746
7.306770072260994 5.892556509887895 4.478342947514801
6 0 1 2 3 4 5
6 6 7 2 3 8 9
6 6 7 1 0 10 11
6 9 8 4 5 10 11
3 7 2 1
3 8 3 4
3 10 0 5
3 11 6 9
6 12 13 2 1 14 15
6 16 7 2 13 17 18
6 19 14 1 7 16 20
6 18 17 12 15 19 20
3 7 2 1
3 17 13 12
3 19 14 15
3 20 16 18
6 21 22 3 4 23 24
6 25 8 3 22 26 27
6 28 23 4 8 25 29
6 27 26 21 24 28 29
3 8 3 4
3 26 22 21
3 28 23 24
3 29 25 27
6 30 12 13 31 32 33
6 34 17 13 31 35 36
6 37 30 12 17 34 38
6 37 33 32 35 36 38
3 17 13 12
3 35 31 32
3 37 30 33
3 38 34 36
6 39 40 0 5 41 42
6 43 10 0 40 44 45
6 46 41 5 10 43 47
6 45 44 39 42 46 47
3 10 0 5
3 44 40 39
3 46 41 42
3 47 43 45
6 48 15 14 49 50 51
6 52 19 14 49 53 54
6 55 48 15 19 52 56
6 55 51 50 53 54 56
3 19 14 15
3 53 49 50
3 55 48 51
3 56 52 54
6 57 58 6 9 59 60
6 61 11 6 58 62 63
6 64 59 9 11 61 65
6 63 62 57 60 64 65
3 11 6 9
3 62 58 57
3 64 59 60
3 65 61 63
6 66 24 23 67 68 69
6 70 28 23 67 71 72
6 73 66 24 28 70 74
6 73 69 68 71 72 74
3 28 23 24
3 71 67 68
3 73 66 69
3 74 70 72
6 75 18 16 76 77 78
6 79 20 16 76 80 81
6 82 75 18 20 79 83
6 82 78 77 80 81 83
3 20 16 18
3 80 76 77
3 82 75 78
3 83 79 81
6 84 85 86 87 88 89
6 90 91 86 87 92 93
6 90 91 85 84 94 95
6 93 92 88 89 94 95
3 91 86 85
3 92 87 88
3 94 84 89
3 95 90 93
6 96 27 25 97 98 99
6 100 29 25 97 101 102
6 103 96 27 29 100 104
6 103 99 98 101 102 104
3 29 25 27
3 101 97 98
3 103 96 99
3 104 100 102
6 105 106 107 108 109 110
6 111 112 107 108 113 114
6 111 112 106 105 115 116
6 114 113 109 110 115 116
3 112 107 106
3 113 108 109
3 115 105 110
3 116 111 114
6 117 45 43 118 119 120
6 121 47 43 118 122 123
6 124 117 45 47 121 125
6 124 120 119 122 123 125
3 47 43 45
3 122 118 119
3 124 117 120
3 125 121 123
6 126 127 128 129 130 131
6 132 133 128 129 134 135
6 132 133 127 126 136 137
6 135 134 130 131 136 137
3 133 128 127
3 134 129 130
3 136 126 131
3 137 132 135
6 138 139 140 141 142 143
6 144 145 140 141 146 147
6 144 145 139 138 148 149
6 147 146 142 143 148 149
3 145 140 139
3 146 141 142
3 148 138 143
3 149 144 147
6 150 151 152 153 154 155
6 156 157 152 153 158 159
6 156 157 151 150 160 161
6 159 158 154 155 160 161
3 157 152 151
3 158 153 154
3 160 150 155
3 161 156 159
4 162 2 3 163
4 164 1 0 165
4 166 4 5 167
4 86 168 169 87
4 85 170 171 84
4 88 172 173 89
6 0 1 2 3 4 5
6 168 162 2 1 164 169
6 170 163 3 4 166 171
6 86 168 162 163 170 85
6 172 165 0 5 167 173
6 87 169 164 165 172 88
6 84 171 166 167 173 89
6 84 85 86 87 88 89
4 174 2 3 175
4 176 7 6 177
4 178 8 9 179
4 107 180 181 108
4 106 182 183 105
4 109 184 185 110
6 6 7 2 3 8 9
6 176 7 2 174 180 181
6 178 8 3 175 182 183
6 107 180 174 175 182 106
6 184 177 6 9 179 185
6 108 181 176 177 184 109
6 105 183 178 179 185 110
6 105 106 107 108 109 110
4 186 1 0 187
4 188 7 6 189
4 190 10 11 191
4 128 192 193 129
4 127 194 195 126
4 130 196 197 131
6 6 7 1 0 10 11
6 192 186 1 7 188 193
6 190 10 0 187 194 195
6 128 192 186 187 194 127
6 191 11 6 189 196 197
6 129 193 188 189 196 130
6 126 195 190 191 197 131
6 126 127 128 129 130 131
4 198 4 5 199
4 200 8 9 201
4 202 10 11 203
4 140 204 205 141
4 139 206 207 138
4 142 208 209 143
6 9 8 4 5 10 11
6 204 198 4 8 200 205
6 206 199 5 10 202 207
6 140 204 198 199 206 139
6 208 201 9 11 203 209
6 141 205 200 201 208 142
6 138 207 202 203 209 143
6 138 139 140 141 142 143
4 210 12 15 211
4 212 17 18 213
4 214 19 20 215
4 152 216 217 153
4 151 218 219 150
4 154 220 221 155
6 18 17 12 15 19 20
6 216 210 12 17 212 217
6 218 211 15 19 214 219
6 152 216 210 211 218 151
6 220 213 18 20 215 221
6 153 217 212 213 220 154
6 150 219 214 215 221 155
6 150 151 152 153 154 155
4 222 21 24 223
4 224 26 27 225
4 226 28 29 227
4 228 229 230 231
4 232 233 234 235
4 236 237 238 239
6 27 26 21 24 28 29
6 229 222 21 26 224 230
6 233 223 24 28 226 234
6 228 229 222 223 233 232
6 237 225 27 29 227 238
6 231 230 224 225 237 236
6 235 234 226 227 238 239
6 235 232 228 231 236 239
4 240 39 42 241
4 242 44 45 243
4 244 46 47 245
4 246 247 248 249
4 250 251 252 253
4 254 255 256 257
6 45 44 39 42 46 47
6 247 240 39 44 242 248
6 251 241 42 46 244 252
6 246 247 240 241 251 250
6 255 243 45 47 245 256
6 249 248 242 243 255 254
6 253 252 244 245 256 257
6 253 250 246 249 254 257
4 258 57 60 259
4 260 62 63 261
4 262 64 65 263
4 264 265 266 267
4 268 269 270 271
4 272 273 274 275
6 63 62 57 60 64 65
6 265 258 57 62 260 266
6 269 259 60 64 262 270
6 264 265 258 259 269 268
6 273 261 63 65 263 274
6 267 266 260 261 273 272
6 271 270 262 263 274 275
6 271 268 264 267 272 275
# cell 1: 0 1 2 3 4 5 6 7
# cell 2: 8 9 10 11 12 13 14 15
# cell 3: 16 17 18 19 20 21 22 23
# cell 4: 24 25 26 27 28 29 30 31
# cell 5: 32 33 34 35 36 37 38 39
# cell 6: 40 41 42 43 44 45 46 47
# cell 7: 48 49 50 51 52 53 54 55
# cell 8: 56 57 58 59 60 61 62 63
# cell 9: 64 65 66 67 68 69 70 71
# cell 10: 72 73 74 75 76 77 78 79
# cell 11: 80 81 82 83 84 85 86 87
# cell 12: 88 89 90 91 92 93 94 95
# cell 13: 96 97 98 99 100 101 102 103
# cell 14: 104 105 106 107 108 109 110 111
# cell 15: 112 113 114 115 116 117 118 119
# cell 16: 120 121 122 123 124 125 126 127
# cell 17: 128 129 130 131 132 133 134 135 136 137 138 139 140 141
# cell 18: 142 143 144 145 146 147 148 149 150 151 152 153 154 155
# cell 19: 156 157 158 159 160 161 162 163 164 165 166 167 168 169
# cell 20: 170 171 172 173 174 175 176 177 178 179 180 181 182 183
# cell 21: 184 185 186 187 188 189 190 191 192 193 194 195 196 197
# cell 22: 198 199 200 201 202 203 204 205 206 207 208 209 210 211
# cell 23: 212 213 214 215 216 217 218 219 220 221 222 223 224 225
# cell 24: 226 227 228 229 230 231 232 233 234 235 236 237 238 239