OFF
# face-rotation BFS net; polygonal faces are preserved
# the cell decomposition is listed below as comments
534 480 0
-1.4142135623730943 9.15116947455195e-16 -2.828427124746189
-2.828427124746189 9.15116947455195e-16 -1.4142135623730943
-2.828427124746189 -1.414213562373094 4.710277376051325e-16
-1.414213562373094 -2.828427124746189 4.710277376051325e-16
9.15116947455195e-16 -2.828427124746189 -1.4142135623730943
9.15116947455195e-16 -1.4142135623730943 -2.828427124746189
8.685853054756273e-16 1.4142135623730958 2.8284271247461894
-1.8856180831641258 0.942809041582064 2.3570226039551576
-2.3570226039551576 -0.9428090415820626 1.8856180831641258
-0.9428090415820625 -2.3570226039551576 1.8856180831641258
0.9428090415820642 -1.885618083164126 2.3570226039551576
1.414213562373096 7.508283710743442e-16 2.8284271247461894
7.887656638573923e-16 2.82842712474619 1.4142135623730954
-1.885618083164126 2.357022603955158 0.9428090415820636
-2.3570226039551576 1.8856180831641263 -0.9428090415820627
-0.9428090415820628 1.8856180831641263 -2.357022603955157
0.9428090415820638 2.357022603955158 -1.8856180831641256
1.4142135623730956 2.82842712474619 9.040520994091185e-16
2.82842712474619 5.992387384606878e-16 1.4142135623730956
2.357022603955158 -1.885618083164126 0.9428090415820638
1.8856180831641263 -2.3570226039551576 -0.9428090415820626
1.8856180831641263 -0.9428090415820629 -2.357022603955157
2.357022603955158 0.9428090415820636 -1.8856180831641256
2.82842712474619 1.4142135623730954 9.040520994091185e-16
-6.285393610547088 -1.5713484026367717 -0.15713484026367874
-4.556910367646638 -2.19988776369148 0.6285393610547083
-4.556910367646637 0.6285393610547092 -2.1998877636914815
-6.285393610547087 -0.15713484026367697 -1.5713484026367737
-5.342584568965026 -0.6285393610547079 3.614101326064574
-4.085505846855607 -1.7284832429004486 2.5141574442188332
-3.1426968052735447 2.0427529234278046 3.4569664858008973
-4.871180048173994 1.2570787221094188 4.085505846855606
-5.342584568965023 3.614101326064575 -0.6285393610547103
-4.085505846855606 2.514157444218835 -1.7284832429004497
-3.142696805273544 3.4569664858008986 2.0427529234278032
-4.871180048173993 4.085505846855607 1.2570787221094162
-6.599663291074442 1.8856180831641276 3.2998316455372185
-7.071067811865474 6.661338147750939e-16 2.8284271247461867
-7.542472332656505 -0.4714045207910311 0.9428090415820602
-7.542472332656504 0.9428090415820636 -0.47140452079103445
-7.071067811865472 2.82842712474619 -2.886579864025407e-15
-6.5996632910744415 3.299831645537222 1.8856180831641238
-1.5713484026367721 -6.285393610547088 -0.15713484026367563
-2.199887763691481 -4.556910367646638 0.6285393610547096
0.6285393610547094 -4.55691036764664 -2.1998877636914798
-0.1571348402636772 -6.2853936105470884 -1.5713484026367697
-0.628539361054709 -5.342584568965023 3.6141013260645765
-1.728483242900449 -4.085505846855606 2.514157444218835
2.042752923427804 -3.142696805273542 3.4569664858008986
1.2570787221094175 -4.871180048173991 4.085505846855607
3.6141013260645742 -5.342584568965026 -0.6285393610547065
2.5141574442188346 -4.085505846855608 -1.728483242900448
3.4569664858008977 -3.1426968052735433 2.0427529234278046
4.0855058468556065 -4.8711800481739935 1.2570787221094197
1.8856180831641258 -6.599663291074441 3.2998316455372234
-8.881784197001252e-16 -7.071067811865472 2.8284271247461916
-0.47140452079103246 -7.542472332656505 0.942809041582065
0.9428090415820626 -7.542472332656505 -0.47140452079102935
2.828427124746189 -7.071067811865474 2.4424906541753444e-15
3.2998316455372203 -6.5996632910744415 1.885618083164129
-7.751985453008077 -2.8808054048340797 -0.523782800878926
-4.295018967207179 -4.1378841269435 1.047565601757849
-5.761610809668167 -5.447341129140808 0.6809176411426017
-7.490094052568616 -4.818801768086098 -0.10475656017578583
-6.337771890634984 -1.4665918424609843 5.133071448613453
-3.8236144464161486 -3.666479606152468 2.933183684921975
-4.8188017680861055 -4.504532087558745 4.452153807470855
-6.075880490195523 -3.404588205713003 5.552097689316594
-10.00425149678745 -2.6189140043946155 2.095131203515692
-9.009064175117494 -1.780861522988339 0.5761610809668127
-8.066255133535432 -0.8380524814062755 4.347397247295066
-9.53284697599642 -2.1475094836035837 3.980749286679819
-9.74236009634799 -4.556910367646633 2.514157444218832
-8.485281374238573 -5.656854249492374 1.414213562373093
-6.756798131338124 -6.285393610547084 2.19988776369148
-6.285393610547093 -5.813989089756052 4.085505846855607
-7.54247233265651 -4.714045207910311 5.185449728701347
-9.27095557555696 -4.085505846855601 4.399775527382959
-1.571348402636772 -0.1571348402636784 -6.285393610547087
-2.199887763691481 0.6285393610547088 -4.556910367646638
0.6285393610547092 -2.1998877636914815 -4.556910367646636
-0.15713484026367697 -1.5713484026367737 -6.285393610547086
-0.6285393610547085 3.6141013260645742 -5.342584568965026
-1.7284832429004489 2.514157444218834 -4.085505846855607
2.0427529234278046 3.4569664858008977 -3.142696805273544
1.2570787221094182 4.0855058468556065 -4.8711800481739935
3.614101326064575 -0.6285393610547104 -5.342584568965023
2.514157444218834 -1.7284832429004502 -4.085505846855605
3.4569664858008986 2.0427529234278032 -3.142696805273543
4.085505846855607 1.2570787221094164 -4.871180048173993
1.8856180831641263 3.2998316455372194 -6.599663291074442
-2.220446049250313e-16 2.828427124746188 -7.071067811865474
-0.4714045207910318 0.942809041582061 -7.542472332656504
0.9428090415820629 -0.4714045207910341 -7.542472332656503
2.82842712474619 -2.6645352591003757e-15 -7.071067811865472
3.299831645537221 1.8856180831641243 -6.5996632910744415
-7.751985453008073 -0.5237828008789234 -2.880805404834084
-4.295018967207174 1.0475656017578485 -4.1378841269435
-5.761610809668161 0.6809176411426019 -5.447341129140811
-7.490094052568611 -0.10475656017578405 -4.818801768086103
-6.337771890634978 5.133071448613455 -1.4665918424609887
-3.823614446416142 2.933183684921974 -3.666479606152468
-4.8188017680860975 4.452153807470854 -4.504532087558747
-6.075880490195516 5.552097689316595 -3.404588205713007
-10.004251496787447 2.0951312035156966 -2.6189140043946235
-9.00906417511749 0.576161080966817 -1.7808615229883453
-8.066255133535428 4.34739724729507 -0.8380524814062813
-9.532846975996415 3.9807492866798233 -2.1475094836035913
-9.742360096347984 2.5141574442188355 -4.556910367646641
-8.485281374238566 1.4142135623730954 -5.6568542494923815
-6.756798131338116 2.199887763691481 -6.285393610547089
-6.285393610547084 4.085505846855607 -5.813989089756057
-7.542472332656503 5.185449728701348 -4.714045207910317
-9.270955575556952 4.399775527382962 -4.085505846855609
1.414213562373095 2.8284271247461903 5.65685424949238
0. 2.82842712474619 4.242640687119285
2.8284271247461903 4.440892098500626e-16 4.242640687119285
2.82842712474619 1.4142135623730951 5.65685424949238
1.4142135623730954 5.65685424949238 2.828427124746192
4.440892098500626e-16 4.242640687119285 2.8284271247461907
2.8284271247461907 4.242640687119286 2.220446049250313e-15
2.8284271247461907 5.65685424949238 1.4142135623730978
5.65685424949238 1.4142135623730958 2.8284271247461925
4.242640687119284 4.440892098500626e-16 2.828427124746191
4.242640687119286 2.8284271247461907 2.220446049250313e-15
5.65685424949238 2.8284271247461907 1.414213562373098
4.242640687119284 5.65685424949238 2.8284271247461925
2.8284271247461894 5.65685424949238 4.2426406871192865
2.828427124746189 4.242640687119285 5.6568542494923815
4.242640687119284 2.82842712474619 5.6568542494923815
5.65685424949238 2.8284271247461903 4.2426406871192865
5.65685424949238 4.242640687119285 2.8284271247461925
-0.5237828008789238 -7.751985453008077 -2.880805404834079
1.0475656017578496 -4.295018967207179 -4.137884126943499
0.6809176411426026 -5.761610809668167 -5.447341129140808
-0.10475656017578361 -7.490094052568616 -4.818801768086098
5.133071448613454 -6.337771890634982 -1.4665918424609834
2.933183684921975 -3.8236144464161472 -3.6664796061524667
4.452153807470855 -4.818801768086104 -4.504532087558744
5.552097689316594 -6.075880490195521 -3.4045882057130017
2.095131203515695 -10.00425149678745 -2.618914004394615
0.5761610809668152 -9.009064175117494 -1.780861522988338
4.347397247295069 -8.06625513353543 -0.8380524814062738
3.9807492866798215 -9.532846975996417 -2.1475094836035833
2.5141574442188346 -9.74236009634799 -4.556910367646633
1.414213562373095 -8.485281374238571 -5.656854249492374
2.199887763691482 -6.756798131338123 -6.285393610547084
4.085505846855608 -6.285393610547092 -5.813989089756053
5.185449728701348 -7.542472332656509 -4.714045207910311
4.399775527382961 -9.270955575556957 -4.085505846855601
-5.5520976893166 1.6761049628125577 5.918745649931839
-2.0951312035157 3.2474533654493314 4.661666927822425
-2.776048844658304 3.6664796061524707 6.494906730898658
-4.504532087558754 2.8808054048340836 7.123446091953365
-5.552097689316597 5.918745649931841 1.6761049628125555
-2.0951312035156997 4.661666927822425 3.247453365449331
-2.7760488446583023 6.494906730898659 3.66647960615247
-4.504532087558752 7.123446091953367 2.880805404834082
-7.96149857335965 4.1378841269435 5.552097689316591
-7.280580932217048 2.304644323867266 5.133071448613451
-7.280580932217047 5.133071448613456 2.3046443238672625
-7.96149857335965 5.552097689316595 4.137884126943495
-6.913932971601805 5.342584568965024 6.756798131338116
-5.185449728701356 4.714045207910316 7.542472332656503
-3.4569664858009066 5.499719409228703 6.913932971601797
-3.4569664858009057 6.913932971601797 5.499719409228702
-5.185449728701355 7.542472332656506 4.714045207910314
-6.913932971601804 6.756798131338119 5.342584568965021
-2.828427124746188 -5.656854249492379 -4.242640687119283
-4.242640687119283 -5.656854249492379 -2.8284271247461885
-5.656854249492378 -4.242640687119284 -2.828427124746189
-5.656854249492379 -2.8284271247461894 -4.242640687119284
-4.242640687119284 -2.82842712474619 -5.656854249492378
-2.8284271247461885 -4.242640687119285 -5.656854249492378
-8.485281374238568 -7.071067811865475 -5.656854249492379
-8.013876853447535 -6.599663291074442 -3.771236166328252
-7.542472332656503 -4.714045207910315 -3.2998316455372203
-7.542472332656504 -3.299831645537221 -4.714045207910315
-8.013876853447536 -3.771236166328253 -6.5996632910744415
-8.485281374238568 -5.65685424949238 -7.071067811865474
-7.071067811865473 -8.485281374238568 -5.656854249492379
-6.599663291074441 -8.013876853447536 -3.7712361663282516
-4.714045207910314 -7.542472332656505 -3.2998316455372194
-3.2998316455372194 -7.542472332656505 -4.714045207910315
-3.771236166328251 -8.013876853447536 -6.5996632910744415
-5.656854249492378 -8.485281374238568 -7.071067811865473
-7.071067811865474 -5.656854249492381 -8.485281374238568
-6.5996632910744415 -3.7712361663282534 -8.013876853447536
-4.714045207910315 -3.2998316455372216 -7.542472332656504
-3.2998316455372203 -4.714045207910316 -7.542472332656503
-3.771236166328251 -6.599663291074443 -8.013876853447535
-5.656854249492379 -7.0710678118654755 -8.485281374238568
1.6761049628125555 -5.552097689316591 5.918745649931843
3.2474533654493287 -2.095131203515693 4.6616669278224245
3.666479606152467 -2.7760488446582934 6.494906730898659
2.8808054048340805 -4.504532087558743 7.123446091953367
5.918745649931841 -5.552097689316595 1.6761049628125622
4.661666927822424 -2.095131203515694 3.2474533654493314
6.494906730898657 -2.776048844658295 3.666479606152472
7.123446091953366 -4.504532087558745 2.8808054048340868
4.137884126943498 -7.961498573359641 5.552097689316599
2.3046443238672647 -7.280580932217041 5.1330714486134585
5.133071448613456 -7.280580932217043 2.3046443238672714
5.552097689316594 -7.961498573359643 4.137884126943506
5.342584568965022 -6.913932971601794 6.756798131338124
4.7140452079103135 -5.185449728701344 7.542472332656509
5.4997194092287 -3.456966485800894 6.913932971601799
6.913932971601795 -3.456966485800895 5.499719409228705
7.542472332656505 -5.185449728701346 4.714045207910321
6.756798131338119 -6.9139329716017945 5.34258456896503
1.1102230246251565e-15 -2.828427124746192 7.071067811865474
-1.8856180831641256 -3.299831645537224 6.599663291074442
-3.299831645537221 -1.8856180831641292 6.599663291074444
-2.82842712474619 -2.886579864025407e-15 7.071067811865477
-0.942809041582063 0.4714045207910291 7.542472332656509
0.4714045207910327 -0.9428090415820659 7.542472332656507
-4.242640687119282 -2.828427124746197 11.313708498984761
-4.714045207910315 -3.2998316455372274 9.428090415820634
-4.714045207910315 -1.8856180831641307 8.013876853447538
-4.242640687119284 -4.884981308350689e-15 8.485281374238573
-3.7712361663282516 0.47140452079102557 10.3708994574027
-3.7712361663282508 -0.9428090415820708 11.785113019775794
-2.828427124746188 -4.242640687119291 11.31370849898476
-3.2998316455372203 -4.7140452079103214 9.428090415820632
-1.8856180831641252 -4.714045207910319 8.013876853447536
1.3322676295501878e-15 -4.242640687119287 8.485281374238568
0.4714045207910331 -3.7712361663282574 10.370899457402695
-0.9428090415820612 -3.771236166328259 11.78511301977579
-1.8856180831641256 -0.47140452079103956 12.256517540566826
-1.885618083164126 0.9428090415820565 10.84230397819373
-0.47140452079103135 0.9428090415820587 9.428090415820636
0.942809041582064 -0.471404520791036 9.428090415820634
0.942809041582064 -1.8856180831641323 10.842303978193728
-0.47140452079103023 -1.8856180831641343 12.256517540566824
1.6761049628125573 5.9187456499318385 -5.552097689316596
3.247453365449329 4.661666927822423 -2.095131203515696
3.666479606152469 6.4949067308986566 -2.7760488446582987
2.8808054048340828 7.123446091953364 -4.504532087558749
5.918745649931842 1.676104962812555 -5.552097689316594
4.661666927822424 3.2474533654493283 -2.0951312035156957
6.494906730898658 3.6664796061524676 -2.7760488446582974
7.123446091953367 2.880805404834081 -4.504532087558746
4.137884126943501 5.552097689316592 -7.961498573359646
2.304644323867266 5.133071448613452 -7.280580932217044
5.133071448613456 2.304644323867263 -7.280580932217043
5.552097689316596 4.137884126943497 -7.961498573359645
5.342584568965026 6.756798131338117 -6.913932971601799
4.714045207910316 7.542472332656503 -5.18544972870135
5.499719409228702 6.913932971601795 -3.4569664858009004
6.913932971601797 5.4997194092287005 -3.4569664858008995
7.542472332656507 4.7140452079103135 -5.185449728701349
6.756798131338121 5.342584568965022 -6.913932971601799
1.5543122344752192e-15 7.071067811865474 -2.82842712474619
-1.8856180831641254 6.599663291074442 -3.299831645537222
-3.2998316455372203 6.599663291074444 -1.8856180831641274
-2.8284271247461885 7.071067811865477 -1.1102230246251565e-15
-0.9428090415820619 7.542472332656508 0.4714045207910309
0.47140452079103357 7.542472332656506 -0.9428090415820636
-4.24264068711928 11.313708498984763 -2.8284271247461947
-4.7140452079103135 9.428090415820634 -3.2998316455372247
-4.7140452079103135 8.01387685344754 -1.885618083164129
-4.242640687119282 8.485281374238573 -2.886579864025407e-15
-3.771236166328249 10.3708994574027 0.4714045207910278
-3.771236166328249 11.785113019775794 -0.9428090415820687
-2.8284271247461863 11.313708498984761 -4.242640687119288
-3.2998316455372185 9.428090415820632 -4.714045207910319
-1.8856180831641243 8.013876853447536 -4.714045207910317
2.886579864025407e-15 8.485281374238568 -4.242640687119286
0.4714045207910349 10.370899457402695 -3.7712361663282543
-0.9428090415820592 11.785113019775793 -3.7712361663282565
-1.8856180831641232 12.256517540566826 -0.4714045207910367
-1.885618083164124 10.84230397819373 0.9428090415820596
-0.47140452079102957 9.428090415820634 0.9428090415820609
0.9428090415820658 9.428090415820632 -0.47140452079103334
0.9428090415820662 10.842303978193726 -1.8856180831641294
-0.4714045207910278 12.256517540566824 -1.8856180831641312
7.071067811865477 1.3322676295501878e-15 -2.82842712474619
6.599663291074446 -1.8856180831641252 -3.299831645537221
6.599663291074446 -3.29983164553722 -1.8856180831641272
7.071067811865479 -2.828427124746188 -6.661338147750939e-16
7.542472332656509 -0.9428090415820618 0.47140452079103157
7.542472332656509 0.47140452079103334 -0.9428090415820632
11.313708498984765 -4.242640687119281 -2.8284271247461916
9.428090415820638 -4.7140452079103135 -3.299831645537223
8.013876853447542 -4.7140452079103135 -1.8856180831641276
8.485281374238573 -4.242640687119281 -1.3322676295501878e-15
10.3708994574027 -3.77123616632825 0.47140452079103023
11.785113019775796 -3.771236166328249 -0.9428090415820656
11.313708498984763 -2.8284271247461867 -4.242640687119286
9.428090415820636 -3.299831645537219 -4.714045207910317
8.01387685344754 -1.8856180831641245 -4.714045207910316
8.485281374238571 2.220446049250313e-15 -4.242640687119285
10.370899457402698 0.47140452079103423 -3.7712361663282534
11.785113019775794 -0.9428090415820602 -3.771236166328254
12.256517540566826 -1.8856180831641238 -0.47140452079103357
10.842303978193732 -1.885618083164124 0.9428090415820616
9.428090415820636 -0.47140452079102957 0.9428090415820625
9.428090415820634 0.9428090415820651 -0.47140452079103223
10.84230397819373 0.9428090415820656 -1.8856180831641276
12.256517540566826 -0.4714045207910287 -1.8856180831641283
-11.785113019775789 3.7712361663282525 0.942809041582058
-12.25651754056682 1.8856180831641258 0.471404520791026
-12.25651754056682 0.4714045207910309 1.885618083164121
-11.785113019775789 0.9428090415820631 3.7712361663282477
-11.31370849898476 2.82842712474619 4.24264068711928
-11.31370849898476 4.242640687119284 2.8284271247461845
-16.970562748477136 1.4142135623730943 2.8284271247461823
-15.713484026367718 0.3142696805273535 1.7284832429004424
-13.98500078346727 -0.3142696805273548 2.514157444218829
-13.513596262676238 0.15713484026367697 4.399775527382955
-14.770674984785657 1.2570787221094177 5.499719409228696
-16.499158227686106 1.8856180831641263 4.714045207910309
-16.970562748477136 2.828427124746188 1.4142135623730883
-15.713484026367718 1.7284832429004473 0.31426968052734816
-13.985000783467267 2.5141574442188337 -0.31426968052736015
-13.513596262676238 4.39977552738296 0.15713484026367208
-14.770674984785655 5.499719409228701 1.257078722109412
-16.499158227686106 4.714045207910314 1.88561808316412
-16.027753706895073 3.7712361663282516 5.18544972870134
-14.299270463994626 3.142696805273543 5.971123930019727
-12.570787221094175 3.928371006591929 5.342584568965019
-12.570787221094175 5.342584568965024 3.928371006591924
-14.299270463994624 5.971123930019733 3.1426968052735376
-16.027753706895073 5.185449728701347 3.7712361663282454
-4.161760458079523 -2.747546895706428 0.6666666666666671
-2.7475468957064275 -4.161760458079523 0.6666666666666671
-3.6903559372884907 -2.2761423749153966 2.5522847498307923
-2.2761423749153957 -3.6903559372884915 2.5522847498307923
-4.161760458079522 0.6666666666666674 -2.747546895706427
-2.747546895706428 0.6666666666666675 -4.161760458079522
-3.6903559372884907 2.5522847498307932 -2.2761423749153957
-2.2761423749153966 2.5522847498307932 -3.6903559372884907
0.6666666666666672 -4.161760458079522 -2.747546895706427
0.6666666666666672 -2.7475468957064275 -4.161760458079522
2.5522847498307923 -3.690355937288491 -2.2761423749153957
2.5522847498307923 -2.276142374915396 -3.6903559372884907
-2.5522847498307932 2.276142374915398 3.690355937288491
-0.6666666666666662 2.7475468957064293 4.161760458079523
-2.552284749830793 3.6903559372884915 2.276142374915397
-0.6666666666666663 4.161760458079524 2.747546895706429
-7.840949166102643 -2.4602372915256603 -1.0460237291525663
-7.840949166102643 -1.0460237291525663 -2.4602372915256616
-9.09802788821206 -1.3602934096799197 0.05392015269317307
-9.09802788821206 0.053920152693174406 -1.3602934096799226
2.276142374915398 -2.5522847498307923 3.690355937288491
2.7475468957064293 -0.6666666666666662 4.161760458079523
3.6903559372884915 -2.552284749830793 2.276142374915397
4.161760458079524 -0.6666666666666662 2.747546895706429
-2.4602372915256607 -7.840949166102645 -1.0460237291525638
-1.0460237291525658 -7.840949166102646 -2.460237291525658
-1.3602934096799213 -9.09802788821206 0.05392015269317685
0.05392015269317385 -9.098027888212062 -1.360293409679918
-6.231473457853917 -0.8507615832769297 5.39187910384235
-5.7600689370628855 1.034856499887197 5.8632836246333815
-7.959956700754365 -0.222222222222221 4.606204902523962
-7.488552179963333 1.6633958609419055 5.077609423314994
2.276142374915397 3.6903559372884915 -2.5522847498307923
2.747546895706429 4.161760458079524 -0.6666666666666659
3.6903559372884915 2.276142374915397 -2.5522847498307923
4.161760458079524 2.747546895706429 -0.666666666666666
-2.4602372915256607 -1.046023729152567 -7.840949166102642
-1.0460237291525665 -2.4602372915256625 -7.840949166102642
-1.3602934096799209 0.053920152693172185 -9.098027888212059
0.05392015269317352 -1.360293409679923 -9.098027888212059
-0.8507615832769317 -6.2314734578539115 5.391879103842354
1.0348564998871947 -5.76006893706288 5.863283624633386
-0.22222222222222354 -7.95995670075436 4.6062049025239675
1.663395860941903 -7.488552179963329 5.077609423315
-6.231473457853912 5.391879103842353 -0.8507615832769329
-5.760068937062882 5.863283624633384 1.0348564998871939
-7.959956700754361 4.606204902523967 -0.2222222222222251
-7.488552179963331 5.077609423314999 1.6633958609419015
1.4142135623730943 2.82842712474619 7.656854249492381
2.8284271247461894 1.414213562373095 7.6568542494923815
2.8284271247461885 4.242640687119285 7.6568542494923815
4.242640687119284 2.82842712474619 7.656854249492382
-0.8507615832769306 5.391879103842351 -6.231473457853916
1.034856499887196 5.863283624633382 -5.760068937062885
-0.2222222222222222 4.606204902523964 -7.959956700754364
1.6633958609419046 5.077609423314996 -7.4885521799633326
5.391879103842351 -6.231473457853913 -0.8507615832769286
5.863283624633383 -5.760068937062881 1.0348564998871979
4.606204902523965 -7.959956700754362 -0.22222222222221932
5.077609423314997 -7.48855217996333 1.6633958609419068
1.4142135623730958 7.65685424949238 2.828427124746193
2.828427124746191 7.65685424949238 1.4142135623730987
2.82842712474619 7.65685424949238 4.242640687119287
4.242640687119286 7.65685424949238 2.8284271247461934
5.391879103842353 -0.850761583276933 -6.231473457853912
5.863283624633385 1.034856499887194 -5.760068937062882
4.606204902523967 -0.22222222222222499 -7.959956700754361
5.077609423314998 1.6633958609419017 -7.488552179963331
-11.93017742271338 -2.767062152542762 2.61364972203421
-11.458772901922348 -2.2956576317517303 4.499267805198336
-11.668286022273918 -4.7050585157947795 3.0326759627373496
-11.196881501482887 -4.233653995003747 4.918294045901476
7.65685424949238 1.414213562373096 2.8284271247461934
7.65685424949238 2.828427124746191 1.414213562373099
7.65685424949238 2.8284271247461903 4.242640687119287
7.65685424949238 4.242640687119286 2.828427124746194
-11.930177422713372 2.6136497220342143 -2.7670621525427723
-11.458772901922345 4.4992678051983415 -2.295657631751741
-11.66828602227391 3.0326759627373536 -4.70505851579479
-11.196881501482881 4.91829404590148 -4.233653995003758
-9.665202277063358 4.8786248676842385 6.29283843005733
-9.665202277063356 6.2928384300573335 4.878624867684235
-8.617636675305512 6.083325309705764 7.497538872078856
-8.61763667530551 7.4975388720788585 6.083325309705761
2.6136497220342125 -11.930177422713374 -2.7670621525427617
4.49926780519834 -11.458772901922345 -2.2956576317517294
3.032675962737353 -11.668286022273916 -4.7050585157947795
4.9182940459014794 -11.196881501482883 -4.233653995003747
4.878624867684239 -9.665202277063345 6.2928384300573414
6.292838430057335 -9.665202277063345 4.878624867684247
6.083325309705763 -8.617636675305496 7.497538872078866
7.4975388720788585 -8.617636675305498 6.083325309705772
4.878624867684241 6.29283843005733 -9.66520227706335
6.292838430057336 4.878624867684234 -9.665202277063349
6.083325309705766 7.497538872078854 -8.617636675305503
7.497538872078861 6.083325309705759 -8.617636675305503
-4.242640687119284 -2.8284271247461885 8.881784197001252e-16
-2.828427124746188 -4.242640687119283 1.3322676295501878e-15
-4.242640687119284 0. -2.8284271247461894
-2.82842712474619 0. -4.242640687119284
1.7763568394002505e-15 -4.242640687119283 -2.828427124746188
1.3322676295501878e-15 -2.828427124746189 -4.242640687119283
-5.656854249492379 -2.82842712474619 -1.414213562373094
-5.656854249492379 -1.4142135623730954 -2.828427124746189
-2.8284271247461876 -5.656854249492379 -1.4142135623730931
-1.4142135623730927 -5.656854249492379 -2.8284271247461876
-2.8284271247461894 -1.4142135623730954 -5.656854249492378
-1.414213562373094 -2.82842712474619 -5.656854249492378
-3.4569664858008977 -2.0427529234278037 3.142696805273543
-2.042752923427803 -3.4569664858008995 3.142696805273542
-2.514157444218835 1.7284832429004489 4.085505846855608
-0.6285393610547081 2.1998877636914806 4.55691036764664
1.7284832429004504 -2.5141574442188355 4.085505846855606
2.199887763691482 -0.6285393610547091 4.556910367646638
-4.085505846855607 -1.2570787221094188 4.871180048173993
-3.614101326064576 0.6285393610547074 5.342584568965026
-1.2570787221094164 -4.085505846855609 4.871180048173992
0.6285393610547103 -3.614101326064577 5.342584568965023
0.15713484026367786 1.571348402636771 6.285393610547089
1.571348402636773 0.15713484026367586 6.2853936105470884
-3.4569664858008986 3.142696805273544 -2.0427529234278037
-2.042752923427803 3.1426968052735433 -3.456966485800898
-2.514157444218835 4.085505846855608 1.7284832429004493
-0.6285393610547079 4.556910367646639 2.199887763691481
1.7284832429004504 4.085505846855606 -2.514157444218834
2.199887763691482 4.556910367646638 -0.6285393610547079
-4.0855058468556065 4.871180048173994 -1.2570787221094182
-3.614101326064575 5.342584568965026 0.6285393610547083
-1.2570787221094166 4.871180048173993 -4.085505846855607
0.6285393610547105 5.342584568965024 -3.6141013260645756
0.15713484026367874 6.285393610547088 1.5713484026367723
1.5713484026367734 6.285393610547088 0.1571348402636774
3.142696805273545 -3.456966485800898 -2.0427529234278037
3.1426968052735442 -2.0427529234278032 -3.4569664858008986
4.085505846855609 -2.514157444218835 1.7284832429004493
4.5569103676466405 -0.6285393610547079 2.199887763691481
4.0855058468556065 1.7284832429004506 -2.5141574442188346
4.556910367646639 2.199887763691482 -0.6285393610547081
4.871180048173995 -4.0855058468556065 -1.2570787221094182
5.342584568965027 -3.6141013260645747 0.6285393610547082
4.8711800481739935 -1.2570787221094164 -4.085505846855607
5.342584568965025 0.6285393610547103 -3.614101326064575
6.285393610547089 0.15713484026367852 1.571348402636772
6.2853936105470884 1.5713484026367732 0.15713484026367752
-9.42809041582063 -0.9428090415820634 0.4714045207910278
-9.42809041582063 0.4714045207910311 -0.9428090415820678
-8.48528137423857 2.220446049250313e-16 4.24264068711928
-8.013876853447538 1.8856180831641272 4.714045207910313
-8.485281374238568 4.242640687119285 -3.9968028886505635e-15
-8.013876853447536 4.714045207910317 1.885618083164123
-10.842303978193726 -0.9428090415820634 1.8856180831641214
-10.370899457402697 -0.47140452079103157 3.771236166328248
-10.842303978193726 1.885618083164126 -0.9428090415820682
-10.370899457402693 3.771236166328253 -0.47140452079103645
-9.428090415820634 3.299831645537222 4.714045207910312
-9.428090415820632 4.714045207910317 3.299831645537217
-0.9428090415820654 -9.428090415820629 0.4714045207910329
0.47140452079102957 -9.42809041582063 -0.942809041582062
-1.7763568394002505e-15 -8.485281374238568 4.242640687119286
1.885618083164125 -8.013876853447536 4.714045207910318
4.242640687119282 -8.48528137423857 2.220446049250313e-15
4.714045207910314 -8.013876853447536 1.8856180831641287
0.47140452079102735 -12.25651754056682 1.8856180831641274
-0.9428090415820667 -10.842303978193724 1.8856180831641272
-0.47140452079103445 -10.370899457402693 3.7712361663282534
0.9428090415820596 -11.785113019775789 3.771236166328254
1.8856180831641223 -12.256517540566819 0.4714045207910329
1.8856180831641232 -10.842303978193726 -0.942809041582062
3.77123616632825 -10.370899457402695 -0.4714045207910298
3.771236166328249 -11.785113019775789 0.942809041582065
2.8284271247461863 -11.313708498984758 4.242640687119286
3.2998316455372185 -9.428090415820632 4.714045207910317
4.7140452079103135 -9.428090415820632 3.299831645537223
4.24264068711928 -11.313708498984758 2.828427124746191
-0.9428090415820638 0.47140452079102735 -9.428090415820629
0.4714045207910309 -0.942809041582068 -9.428090415820627
2.220446049250313e-16 4.242640687119281 -8.48528137423857
1.8856180831641267 4.7140452079103135 -8.013876853447538
4.242640687119284 -4.218847493575595e-15 -8.485281374238564
4.714045207910316 1.8856180831641225 -8.013876853447535
0.4714045207910311 1.885618083164119 -12.25651754056682
-0.9428090415820638 1.8856180831641205 -10.842303978193724
-0.47140452079103157 3.771236166328248 -10.370899457402695
0.9428090415820634 3.7712361663282463 -11.78511301977579
1.885618083164126 0.4714045207910236 -12.256517540566819
1.8856180831641258 -0.9428090415820698 -10.842303978193723
3.7712361663282525 -0.471404520791038 -10.37089945740269
3.771236166328253 0.9428090415820555 -11.785113019775787
2.8284271247461903 4.242640687119278 -11.31370849898476
3.299831645537222 4.714045207910312 -9.428090415820632
4.714045207910316 3.2998316455372163 -9.42809041582063
4.242640687119285 2.8284271247461827 -11.313708498984758
3.2998316455372207 4.714045207910315 7.542472332656509
4.714045207910316 3.2998316455372203 7.542472332656508
3.2998316455372216 7.542472332656507 4.714045207910321
4.714045207910317 7.542472332656507 3.299831645537226
7.542472332656507 3.299831645537221 4.714045207910321
7.542472332656507 4.714045207910317 3.299831645537226
5.656854249492379 7.071067811865474 8.485281374238575
3.771236166328252 6.5996632910744415 8.013876853447542
3.7712361663282525 8.013876853447538 6.599663291074448
5.65685424949238 8.485281374238568 7.071067811865481
7.071067811865474 5.656854249492378 8.485281374238575
6.599663291074442 3.7712361663282516 8.013876853447542
8.013876853447538 3.7712361663282516 6.599663291074448
8.48528137423857 5.656854249492379 7.071067811865481
7.071067811865475 8.48528137423857 5.656854249492387
6.599663291074444 8.013876853447538 3.7712361663282596
8.013876853447538 6.599663291074443 3.7712361663282596
8.48528137423857 7.071067811865474 5.656854249492387
6 0 1 2 3 4 5
6 6 7 8 9 10 11
6 12 13 14 15 16 17
6 18 19 20 21 22 23
4 8 2 3 9
4 14 1 0 15
4 20 4 5 21
4 13 7 6 12
4 19 10 11 18
4 22 16 17 23
6 7 8 2 1 14 13
6 20 4 3 9 10 19
6 16 15 0 5 21 22
6 17 12 6 11 18 23
6 24 25 2 1 26 27
6 28 29 8 7 30 31
6 32 33 14 13 34 35
6 36 37 38 39 40 41
4 25 2 8 29
4 26 1 14 33
4 30 7 13 34
4 38 24 27 39
4 37 28 31 36
4 40 32 35 41
6 7 8 2 1 14 13
6 38 24 25 29 28 37
6 39 27 26 33 32 40
6 36 31 30 34 35 41
6 42 43 3 4 44 45
6 46 47 9 10 48 49
6 50 51 20 19 52 53
6 54 55 56 57 58 59
4 43 3 9 47
4 44 4 20 51
4 48 10 19 52
4 56 42 45 57
4 55 46 49 54
4 58 50 53 59
6 20 4 3 9 10 19
6 56 42 43 47 46 55
6 57 45 44 51 50 58
6 54 49 48 52 53 59
6 60 24 25 61 62 63
6 64 28 29 65 66 67
6 68 69 38 37 70 71
6 72 73 74 75 76 77
4 29 25 61 65
4 60 24 38 69
4 63 62 74 73
4 64 28 37 70
4 67 66 75 76
4 72 68 71 77
6 38 24 25 29 28 37
6 74 62 61 65 66 75
6 68 69 60 63 73 72
6 71 70 64 67 76 77
6 78 79 0 5 80 81
6 82 83 15 16 84 85
6 86 87 21 22 88 89
6 90 91 92 93 94 95
4 79 0 15 83
4 80 5 21 87
4 84 16 22 88
4 92 78 81 93
4 91 82 85 90
4 94 86 89 95
6 16 15 0 5 21 22
6 92 78 79 83 82 91
6 93 81 80 87 86 94
6 90 85 84 88 89 95
6 96 27 26 97 98 99
6 100 32 33 101 102 103
6 104 105 39 40 106 107
6 108 109 110 111 112 113
4 33 26 97 101
4 96 27 39 105
4 99 98 110 109
4 100 32 40 106
4 103 102 111 112
4 108 104 107 113
6 39 27 26 33 32 40
6 110 98 97 101 102 111
6 109 99 96 105 104 108
6 107 106 100 103 112 113
6 114 115 6 11 116 117
6 118 119 12 17 120 121
6 122 123 18 23 124 125
6 126 127 128 129 130 131
4 115 6 12 119
4 116 11 18 123
4 120 17 23 124
4 128 114 117 129
4 127 118 121 126
4 130 122 125 131
6 17 12 6 11 18 23
6 128 114 115 119 118 127
6 129 117 116 123 122 130
6 126 121 120 124 125 131
6 132 45 44 133 134 135
6 136 50 51 137 138 139
6 140 141 57 58 142 143
6 144 145 146 147 148 149
4 51 44 133 137
4 132 45 57 141
4 135 134 146 145
4 136 50 58 142
4 139 138 147 148
4 144 140 143 149
6 57 45 44 51 50 58
6 146 134 133 137 138 147
6 140 141 132 135 145 144
6 143 142 136 139 148 149
6 150 31 30 151 152 153
6 154 35 34 155 156 157
6 158 159 36 41 160 161
6 162 163 164 165 166 167
4 34 30 151 155
4 150 31 36 159
4 154 35 41 160
4 153 152 164 163
4 157 156 165 166
4 162 158 161 167
6 36 31 30 34 35 41
6 164 152 151 155 156 165
6 163 153 150 159 158 162
6 166 157 154 160 161 167
6 168 169 170 171 172 173
6 174 175 176 177 178 179
6 180 181 182 183 184 185
6 186 187 188 189 190 191
4 176 170 171 177
4 182 169 168 183
4 188 172 173 189
4 174 175 181 180
4 179 178 187 186
4 185 184 190 191
6 175 176 170 169 182 181
6 188 172 171 177 178 187
6 184 183 168 173 189 190
6 185 180 174 179 186 191
6 192 49 48 193 194 195
6 196 53 52 197 198 199
6 200 201 54 59 202 203
6 204 205 206 207 208 209
4 52 48 193 197
4 192 49 54 201
4 195 194 206 205
4 196 53 59 202
4 199 198 207 208
4 204 200 203 209
6 54 49 48 52 53 59
6 206 194 193 197 198 207
6 200 201 192 195 205 204
6 208 199 196 202 203 209
6 210 211 212 213 214 215
6 216 217 218 219 220 221
6 222 223 224 225 226 227
6 228 229 230 231 232 233
4 218 212 213 219
4 224 211 210 225
4 230 214 215 231
4 216 217 223 222
4 221 220 229 228
4 227 226 232 233
6 217 218 212 211 224 223
6 230 214 213 219 220 229
6 226 225 210 215 231 232
6 228 221 216 222 227 233
6 234 85 84 235 236 237
6 238 89 88 239 240 241
6 242 243 90 95 244 245
6 246 247 248 249 250 251
4 88 84 235 239
4 234 85 90 243
4 237 236 248 247
4 238 89 95 244
4 241 240 249 250
4 246 242 245 251
6 90 85 84 88 89 95
6 248 236 235 239 240 249
6 242 243 234 237 247 246
6 245 244 238 241 250 251
6 252 253 254 255 256 257
6 258 259 260 261 262 263
6 264 265 266 267 268 269
6 270 271 272 273 274 275
4 260 254 255 261
4 266 253 252 267
4 272 256 257 273
4 258 259 265 264
4 263 262 271 270
4 269 268 274 275
6 259 260 254 253 266 265
6 272 256 255 261 262 271
6 268 267 252 257 273 274
6 269 264 258 263 270 275
6 276 277 278 279 280 281
6 282 283 284 285 286 287
6 288 289 290 291 292 293
6 294 295 296 297 298 299
4 284 278 279 285
4 290 277 276 291
4 296 280 281 297
4 282 283 289 288
4 287 286 295 294
4 293 292 298 299
6 283 284 278 277 290 289
6 296 280 279 285 286 295
6 292 291 276 281 297 298
6 293 288 282 287 294 299
6 300 301 302 303 304 305
6 306 307 308 309 310 311
6 312 313 314 315 316 317
6 318 319 320 321 322 323
4 308 302 303 309
4 314 301 300 315
4 320 304 305 321
4 313 307 306 312
4 319 310 311 318
4 322 316 317 323
6 307 308 302 301 314 313
6 320 304 303 309 310 319
6 316 315 300 305 321 322
6 317 312 306 311 318 323
4 324 2 3 325
4 326 8 9 327
4 8 2 3 9
4 324 2 8 326
4 325 3 9 327
4 326 324 325 327
4 328 1 0 329
4 330 14 15 331
4 14 1 0 15
4 328 1 14 330
4 329 0 15 331
4 330 328 329 331
4 332 4 5 333
4 334 20 21 335
4 20 4 5 21
4 332 4 20 334
4 333 5 21 335
4 334 332 333 335
4 336 7 6 337
4 338 13 12 339
4 13 7 6 12
4 336 7 13 338
4 337 6 12 339
4 338 336 337 339
4 340 24 27 341
4 342 38 39 343
4 38 24 27 39
4 340 24 38 342
4 341 27 39 343
4 342 340 341 343
4 344 10 11 345
4 346 19 18 347
4 19 10 11 18
4 344 10 19 346
4 345 11 18 347
4 346 344 345 347
4 348 42 45 349
4 350 56 57 351
4 56 42 45 57
4 348 42 56 350
4 349 45 57 351
4 350 348 349 351
4 352 28 31 353
4 354 37 36 355
4 37 28 31 36
4 352 28 37 354
4 353 31 36 355
4 354 352 353 355
4 356 16 17 357
4 358 22 23 359
4 22 16 17 23
4 356 16 22 358
4 357 17 23 359
4 358 356 357 359
4 360 78 81 361
4 362 92 93 363
4 92 78 81 93
4 360 78 92 362
4 361 81 93 363
4 362 360 361 363
4 364 46 49 365
4 366 55 54 367
4 55 46 49 54
4 364 46 55 366
4 365 49 54 367
4 366 364 365 367
4 368 32 35 369
4 370 40 41 371
4 40 32 35 41
4 368 32 40 370
4 369 35 41 371
4 370 368 369 371
4 372 114 117 373
4 374 128 129 375
4 128 114 117 129
4 372 114 128 374
4 373 117 129 375
4 374 372 373 375
4 376 82 85 377
4 378 91 90 379
4 91 82 85 90
4 376 82 91 378
4 377 85 90 379
4 378 376 377 379
4 380 50 53 381
4 382 58 59 383
4 58 50 53 59
4 380 50 58 382
4 381 53 59 383
4 382 380 381 383
4 384 118 121 385
4 386 127 126 387
4 127 118 121 126
4 384 118 127 386
4 385 121 126 387
4 386 384 385 387
4 388 86 89 389
4 390 94 95 391
4 94 86 89 95
4 388 86 94 390
4 389 89 95 391
4 390 388 389 391
4 392 68 71 393
4 394 72 77 395
4 72 68 71 77
4 392 68 72 394
4 393 71 77 395
4 394 392 393 395
4 396 122 125 397
4 398 130 131 399
4 130 122 125 131
4 396 122 130 398
4 397 125 131 399
4 398 396 397 399
4 400 104 107 401
4 402 108 113 403
4 108 104 107 113
4 400 104 108 402
4 401 107 113 403
4 402 400 401 403
4 404 158 161 405
4 406 162 167 407
4 162 158 161 167
4 404 158 162 406
4 405 161 167 407
4 406 404 405 407
4 408 140 143 409
4 410 144 149 411
4 144 140 143 149
4 408 140 144 410
4 409 143 149 411
4 410 408 409 411
4 412 200 203 413
4 414 204 209 415
4 204 200 203 209
4 412 200 204 414
4 413 203 209 415
4 414 412 413 415
4 416 242 245 417
4 418 246 251 419
4 246 242 245 251
4 416 242 246 418
4 417 245 251 419
4 418 416 417 419
4 420 2 3 421
4 422 1 0 423
4 424 4 5 425
4 170 426 427 171
4 169 428 429 168
4 172 430 431 173
6 0 1 2 3 4 5
6 426 420 2 1 422 427
6 428 421 3 4 424 429
6 170 426 420 421 428 169
6 430 423 0 5 425 431
6 171 427 422 423 430 172
6 168 429 424 425 431 173
6 168 169 170 171 172 173
4 432 8 9 433
4 434 7 6 435
4 436 10 11 437
4 212 438 439 213
4 211 440 441 210
4 214 442 443 215
6 6 7 8 9 10 11
6 438 432 8 7 434 439
6 440 433 9 10 436 441
6 212 438 432 433 440 211
6 442 435 6 11 437 443
6 213 439 434 435 442 214
6 210 441 436 437 443 215
6 210 211 212 213 214 215
4 444 14 15 445
4 446 13 12 447
4 448 16 17 449
4 254 450 451 255
4 253 452 453 252
4 256 454 455 257
6 12 13 14 15 16 17
6 450 444 14 13 446 451
6 452 445 15 16 448 453
6 254 450 444 445 452 253
6 454 447 12 17 449 455
6 255 451 446 447 454 256
6 252 453 448 449 455 257
6 252 253 254 255 256 257
4 456 20 21 457
4 458 19 18 459
4 460 22 23 461
4 278 462 463 279
4 277 464 465 276
4 280 466 467 281
6 18 19 20 21 22 23
6 462 456 20 19 458 463
6 464 457 21 22 460 465
6 278 462 456 457 464 277
6 466 459 18 23 461 467
6 279 463 458 459 466 280
6 276 465 460 461 467 281
6 276 277 278 279 280 281
4 468 38 39 469
4 470 37 36 471
4 472 40 41 473
4 302 474 475 303
4 301 476 477 300
4 304 478 479 305
6 36 37 38 39 40 41
6 474 468 38 37 470 475
6 476 469 39 40 472 477
6 302 474 468 469 476 301
6 478 471 36 41 473 479
6 303 475 470 471 478 304
6 300 477 472 473 479 305
6 300 301 302 303 304 305
4 480 56 57 481
4 482 55 54 483
4 484 58 59 485
4 486 487 488 489
4 490 491 492 493
4 494 495 496 497
6 54 55 56 57 58 59
6 487 480 56 55 482 488
6 491 481 57 58 484 492
6 486 487 480 481 491 490
6 495 483 54 59 485 496
6 489 488 482 483 495 494
6 493 492 484 485 496 497
6 493 490 486 489 494 497
4 498 92 93 499
4 500 91 90 501
4 502 94 95 503
4 504 505 506 507
4 508 509 510 511
4 512 513 514 515
6 90 91 92 93 94 95
6 505 498 92 91 500 506
6 509 499 93 94 502 510
6 504 505 498 499 509 508
6 513 501 90 95 503 514
6 507 506 500 501 513 512
6 511 510 502 503 514 515
6 511 508 504 507 512 515
4 516 128 129 517
4 518 127 126 519
4 520 130 131 521
4 522 523 524 525
4 526 527 528 529
4 530 531 532 533
6 126 127 128 129 130 131
6 523 516 128 127 518 524
6 527 517 129 130 520 528
6 522 523 516 517 527 526
6 531 519 126 131 521 532
6 525 524 518 519 531 530
6 529 528 520 521 532 533
6 529 526 522 525 530 533
# cell 1: 0 1 2 3 4 5 6 7 8 9 10 11 12 13
# cell 2: 14 15 16 17 18 19 20 21 22 23 24 25 26 27
# cell 3: 28 29 30 31 32 33 34 35 36 37 38 39 40 41
# cell 4: 42 43 44 45 46 47 48 49 50 51 52 53 54 55
# cell 5: 56 57 58 59 60 61 62 63 64 65 66 67 68 69
# cell 6: 70 71 72 73 74 75 76 77 78 79 80 81 82 83
# cell 7: 84 85 86 87 88 89 90 91 92 93 94 95 96 97
# cell 8: 98 99 100 101 102 103 104 105 106 107 108 109 110 111
# cell 9: 112 113 114 115 116 117 118 119 120 121 122 123 124 125
# cell 10: 126 127 128 129 130 131 132 133 134 135 136 137 138 139
# cell 11: 140 141 142 143 144 145 146 147 148 149 150 151 152 153
# cell 12: 154 155 156 157 158 159 160 161 162 163 164 165 166 167
# cell 13: 168 169 170 171 172 173 174 175 176 177 178 179 180 181
# cell 14: 182 183 184 185 186 187 188 189 190 191 192 193 194 195
# cell 15: 196 197 198 199 200 201 202 203 204 205 206 207 208 209
# cell 16: 210 211 212 213 214 215 216 217 218 219 220 221 222 223
# cell 17: 224 225 226 227 228 229
# cell 18: 230 231 232 233 234 235
# cell 19: 236 237 238 239 240 241
# cell 20: 242 243 244 245 246 247
# cell 21: 248 249 250 251 252 253
# cell 22: 254 255 256 257 258 259
# cell 23: 260 261 262 263 264 265
# cell 24: 266 267 268 269 270 271
# cell 25: 272 273 274 275 276 277
# cell 26: 278 279 280 281 282 283
# cell 27: 284 285 286 287 288 289
# cell 28: 290 291 292 293 294 295
# cell 29: 296 297 298 299 300 301
# cell 30: 302 303 304 305 306 307
# cell 31: 308 309 310 311 312 313
# cell 32: 314 315 316 317 318 319
# cell 33: 320 321 322 323 324 325
# cell 34: 326 327 328 329 330 331
# cell 35: 332 333 334 335 336 337
# cell 36: 338 339 340 341 342 343
# cell 37: 344 345 346 347 348 349
# cell 38: 350 351 352 353 354 355
# cell 39: 356 357 358 359 360 361
# cell 40: 362 363 364 365 366 367
# cell 41: 368 369 370 371 372 373 374 375 376 377 378 379 380 381
# cell 42: 382 383 384 385 386 387 388 389 390 391 392 393 394 395
# cell 43: 396 397 398 399 400 401 402 403 404 405 406 407 408 409
# cell 44: 410 411 412 413 414 415 416 417 418 419 420 421 422 423
# cell 45: 424 425 426 427 428 429 430 431 432 433 434 435 436 437
# cell 46: 438 439 440 441 442 443 444 445 446 447 448 449 450 451
# cell 47: 452 453 454 455 456 457 458 459 460 461 462 463 464 465
# cell 48: 466 467 468 469 470 471 472 473 474 475 476 477 478 479