OFF
# face-rotation BFS net; polygonal faces are preserved
# the cell decomposition is listed below as comments
87 176 0
0.23570226039551606 0.23570226039551606 -1.1785113019775788
-1.1785113019775788 0.23570226039551617 0.23570226039551595
0.23570226039551617 -1.1785113019775788 0.23570226039551595
0.7071067811865478 0.7071067811865478 0.7071067811865477
-2.5927248643506733 0.23570226039551595 -1.1785113019775788
-2.5927248643506733 -1.1785113019775788 0.2357022603955157
-3.0641293851417046 0.7071067811865474 0.7071067811865471
0.2357022603955158 -2.592724864350674 -1.178511301977579
-1.1785113019775788 -2.592724864350674 0.23570226039551576
0.7071067811865474 -3.0641293851417055 0.7071067811865474
-2.5927248643506737 -2.5927248643506737 -1.1785113019775793
-3.064129385141705 -3.0641293851417055 0.707106781186547
0.23570226039551556 -1.1785113019775788 -2.5927248643506733
-1.1785113019775793 0.23570226039551614 -2.5927248643506737
0.7071067811865469 0.7071067811865474 -3.0641293851417055
-2.5927248643506737 -1.178511301977579 -2.5927248643506737
-3.0641293851417055 0.7071067811865474 -3.0641293851417055
1.4927809825049336 0.07856742013183848 2.435590024086997
0.07856742013183826 1.4927809825049332 2.435590024086997
1.911807223208073 1.911807223208073 1.7546723829443964
-1.1785113019775786 -2.592724864350674 -2.5927248643506737
0.7071067811865477 -3.064129385141705 -3.0641293851417055
-1.0213764617139023 0.39283710065919275 3.6926687461964156
-1.807050663032288 1.0213764617139018 1.9641855032959656
-1.4404027024170414 2.330833463911212 3.4307773457569537
-3.064129385141706 -3.0641293851417055 -3.064129385141705
0.3928371006591931 -1.021376461713902 3.6926687461964156
1.021376461713902 -1.807050663032288 1.9641855032959659
2.3308334639112114 -1.4404027024170418 3.4307773457569546
-1.4927809825049336 -1.4927809825049336 3.2212642254053834
-1.0213764617139025 -1.0213764617139023 5.10688230856951
0.3928371006591923 3.692668746196415 -1.0213764617139018
1.0213764617139014 1.9641855032959659 -1.8070506630322878
1.4927809825049336 2.4355900240869977 0.07856742013183848
2.3308334639112114 3.430777345756954 -1.4404027024170416
-1.4927809825049336 3.221264225405384 -1.4927809825049336
-1.0213764617139018 3.6926687461964156 0.39283710065919286
-1.0213764617139023 5.10688230856951 -1.0213764617139023
3.692668746196415 0.392837100659193 -1.0213764617139018
3.2212642254053834 -1.492780982504934 -1.492780982504934
3.6926687461964156 -1.0213764617139023 0.3928371006591931
5.10688230856951 -1.0213764617139025 -1.0213764617139025
-5.421151989096865 -1.1785113019775804 -2.592724864350673
-4.006938426723769 -2.5927248643506746 -2.592724864350673
-5.421151989096863 -2.592724864350675 -1.1785113019775777
-5.892556509887895 -3.0641293851417073 -3.0641293851417033
-2.2784551838233202 -0.8642416214502247 1.4927809825049336
-0.8642416214502247 -2.27845518382332 1.4927809825049336
-2.2784551838233202 1.492780982504934 -0.8642416214502248
-0.8642416214502249 1.492780982504934 -2.2784551838233194
-1.807050663032288 1.9641855032959659 1.0213764617139018
0.07856742013183876 2.4355900240869977 1.4927809825049334
1.492780982504934 -2.27845518382332 -0.8642416214502248
1.492780982504934 -0.8642416214502249 -2.2784551838233194
1.9641855032959656 -1.807050663032288 1.0213764617139018
2.4355900240869977 0.07856742013183865 1.4927809825049334
1.9641855032959659 1.0213764617139018 -1.8070506630322878
2.435590024086997 1.4927809825049332 0.07856742013183865
-4.006938426723768 -2.592724864350674 0.2357022603955159
-4.006938426723769 0.23570226039551545 0.23570226039551612
-5.421151989096863 -1.17851130197758 0.23570226039551634
-4.00693842672377 0.23570226039551545 -2.5927248643506733
-5.421151989096865 0.23570226039551478 -1.1785113019775784
-2.592724864350674 -4.006938426723768 0.2357022603955159
0.23570226039551545 -4.006938426723769 0.23570226039551612
-1.17851130197758 -5.421151989096863 0.23570226039551634
0.23570226039551523 -4.00693842672377 -2.5927248643506733
0.23570226039551478 -5.421151989096865 -1.1785113019775781
-2.592724864350674 -4.00693842672377 -2.5927248643506733
-2.592724864350675 -5.421151989096864 -1.1785113019775781
-1.1785113019775801 -5.421151989096865 -2.592724864350673
-2.5927248643506733 0.23570226039551567 -4.006938426723769
0.23570226039551612 0.2357022603955159 -4.006938426723768
-1.1785113019775784 0.23570226039551567 -5.421151989096863
0.23570226039551634 -2.592724864350674 -4.006938426723768
0.23570226039551656 -1.1785113019775793 -5.421151989096863
-2.5927248643506733 -2.592724864350674 -4.006938426723769
-2.5927248643506733 -1.1785113019775793 -5.421151989096864
-1.1785113019775784 -2.592724864350674 -5.421151989096863
-0.5499719409228707 2.2784551838233194 4.164073266987447
1.964185503295965 1.9641855032959648 2.9069945448780294
1.3356461422412562 2.7498597046143507 4.635477787778479
2.2784551838233194 -0.5499719409228707 4.164073266987447
2.749859704614351 1.3356461422412558 4.635477787778479
-0.23570226039551634 -0.23570226039551634 5.421151989096865
0.23570226039551545 1.6499158227686104 5.892556509887897
1.6499158227686104 0.23570226039551523 5.892556509887897
3 0 1 2
3 3 1 2
3 3 1 0
3 3 2 0
3 4 1 5
3 6 1 5
3 6 1 4
3 6 5 4
3 7 2 8
3 9 2 8
3 9 2 7
3 9 8 7
3 10 5 8
3 11 5 8
3 11 5 10
3 11 8 10
3 12 0 13
3 14 0 13
3 14 0 12
3 14 13 12
3 15 4 13
3 16 4 13
3 16 4 15
3 16 13 15
3 17 3 18
3 19 3 18
3 19 3 17
3 19 18 17
3 20 7 12
3 21 7 12
3 21 7 20
3 21 12 20
3 22 23 18
3 24 23 18
3 24 23 22
3 24 18 22
3 20 10 15
3 25 10 15
3 25 10 20
3 25 15 20
3 26 27 17
3 28 27 17
3 28 27 26
3 28 17 26
3 26 29 22
3 30 29 22
3 30 29 26
3 30 22 26
3 31 32 33
3 34 32 33
3 34 32 31
3 34 33 31
3 31 35 36
3 37 35 36
3 37 35 31
3 37 36 31
3 38 39 40
3 41 39 40
3 41 39 38
3 41 40 38
3 42 43 44
3 45 43 44
3 45 43 42
3 45 44 42
4 5 1 2 8
4 4 1 0 13
4 7 2 0 12
4 10 5 4 15
4 10 8 7 20
4 15 13 12 20
3 0 1 2
3 4 1 5
3 7 2 8
3 10 5 8
3 12 0 13
3 15 4 13
3 20 7 12
3 20 10 15
4 46 1 2 47
4 23 1 3 18
4 27 2 3 17
4 29 46 23 22
4 29 47 27 26
4 22 18 17 26
3 3 1 2
3 23 1 46
3 27 2 47
3 29 46 47
3 17 3 18
3 22 23 18
3 26 27 17
3 26 29 22
4 48 1 0 49
4 50 1 3 51
4 32 0 3 33
4 35 48 50 36
4 35 49 32 31
4 36 51 33 31
3 3 1 0
3 50 1 48
3 32 0 49
3 35 48 49
3 33 3 51
3 36 50 51
3 31 32 33
3 31 35 36
4 52 2 0 53
4 54 2 3 55
4 56 0 3 57
4 39 52 54 40
4 39 53 56 38
4 40 55 57 38
3 3 2 0
3 54 2 52
3 56 0 53
3 39 52 53
3 57 3 55
3 40 54 55
3 38 56 57
3 38 39 40
4 10 5 4 15
4 58 5 59 60
4 61 4 59 62
4 43 10 58 44
4 43 15 61 42
4 44 60 62 42
3 59 5 4
3 58 5 10
3 61 4 15
3 43 10 15
3 62 59 60
3 44 58 60
3 42 61 62
3 42 43 44
4 10 8 7 20
4 63 8 64 65
4 66 7 64 67
4 68 10 63 69
4 68 20 66 70
4 69 65 67 70
3 64 8 7
3 63 8 10
3 66 7 20
3 68 10 20
3 67 64 65
3 69 63 65
3 70 66 67
3 70 68 69
4 15 13 12 20
4 71 13 72 73
4 74 12 72 75
4 76 15 71 77
4 76 20 74 78
4 77 73 75 78
3 72 13 12
3 71 13 15
3 74 12 20
3 76 15 20
3 75 72 73
3 77 71 73
3 78 74 75
3 78 76 77
4 22 18 17 26
4 79 18 80 81
4 82 17 80 83
4 84 22 79 85
4 84 26 82 86
4 85 81 83 86
3 80 18 17
3 79 18 22
3 82 17 26
3 84 22 26
3 83 80 81
3 85 79 81
3 86 82 83
3 86 84 85
# cell 1: 0 1 2 3
# cell 2: 4 5 6 7
# cell 3: 8 9 10 11
# cell 4: 12 13 14 15
# cell 5: 16 17 18 19
# cell 6: 20 21 22 23
# cell 7: 24 25 26 27
# cell 8: 28 29 30 31
# cell 9: 32 33 34 35
# cell 10: 36 37 38 39
# cell 11: 40 41 42 43
# cell 12: 44 45 46 47
# cell 13: 48 49 50 51
# cell 14: 52 53 54 55
# cell 15: 56 57 58 59
# cell 16: 60 61 62 63
# cell 17: 64 65 66 67 68 69 70 71 72 73 74 75 76 77
# cell 18: 78 79 80 81 82 83 84 85 86 87 88 89 90 91
# cell 19: 92 93 94 95 96 97 98 99 100 101 102 103 104 105
# cell 20: 106 107 108 109 110 111 112 113 114 115 116 117 118 119
# cell 21: 120 121 122 123 124 125 126 127 128 129 130 131 132 133
# cell 22: 134 135 136 137 138 139 140 141 142 143 144 145 146 147
# cell 23: 148 149 150 151 152 153 154 155 156 157 158 159 160 161
# cell 24: 162 163 164 165 166 167 168 169 170 171 172 173 174 175