OFF
# face-rotation BFS net; polygonal faces are preserved
# the cell decomposition is listed below as comments
603 2400 0
-0.39367265476702457 1.1594576920988575 -0.026071078256845726
-0.43701602444882104 -0.6015009550075455 -0.97324898946773
-0.3936726547670247 -0.5418439246052228 1.025391145981422
1.2243613339828703 -0.016112812486088902 -0.026071078256845615
-2.0406022233047842 0.026854687476815173 0.04345179709474298
0.6561210912783741 -1.932429486831429 0.04345179709474309
-1.5205212802467285 -1.9037844868561598 0.08980038066246902
0.6561210912783747 0.9030732076753716 -1.7089852433023693
-1.3407397259411846 -2.034403431810042 0.08980038066246901
-1.5205212802467283 0.931718207650641 -1.6626366597346438
0.7283600407480352 1.0025015916792426 1.6220816491128842
-1.3407397259411842 0.990132775663878 -1.779465795761118
1.355983588641974 -1.1581849116114862 -1.6626366597346436
-1.4482823307770676 1.0311465916545122 1.6684302326806097
1.3559835886419738 -0.9691513986443663 -1.7794657957611175
-1.2636848465068793 1.0961897186013407 1.773672222815153
-2.2717536972331978 -1.1104432449860373 -1.5853890204551009
1.428222538111635 -1.058756527607615 1.66843023268061
-2.2717536972331978 -0.9214097320189175 -1.7022181564815744
1.4330384680762784 -0.8630944557069034 1.773672222815153
-0.3540837846407292 -2.5037119911607886 -1.5853890204551004
-2.199514747763537 -1.0110148609821659 1.745677871960153
1.4282225381116342 1.9657796798663059 -0.20083594374297692
-0.17430223033518533 -2.445297423147552 -1.7022181564815746
-2.194698817798893 -0.8153527890814543 1.8509198620946954
1.4330384680762789 1.972408238799897 0.021235182418039622
-0.35408378464072937 -0.2983210065443886 -2.9483956074306326
-0.2818448351710686 -2.4042836071569167 1.7456778719601527
-2.199514747763536 2.0135213464917547 -0.12358830446343416
-0.7789251113143811 -2.437340478709977 -1.689343549934984
-0.17430223033518522 -0.42893995149827135 -2.948395607430632
-0.09724735090088055 -2.3392404802100892 1.8509198620946954
-2.1946988177988924 2.0201499054253462 0.09848282169758227
-0.22565898558355443 -0.12155943498195027 2.9735010901964847
-0.2818448351710681 2.6366100719662837 -1.3697657554124922
2.5946600337176333 -1.4696505189451234 -0.1235883044634341
-0.7789251113143806 -0.42098300706069647 -2.9355210008840418
-0.7018702318800764 -2.3312835357725135 1.8637944686412855
-0.045877431278011305 -0.25217837993583314 2.9735010901964856
-0.09724735090088049 2.7016531989131125 -1.2645237652779493
2.599475963682277 -1.463021960011532 0.09848282169758216
-0.22565898558355407 2.713943259524851 1.2210640497993719
2.5946600337176333 0.5467069527041561 -1.3697657554124913
-3.4515687760743186 -1.390081074569376 0.005157761002470673
-0.15967753537306287 -0.8708927063462932 -2.9355210008840418
-0.6505003122572065 -0.2442214354982586 2.9863756967430746
-0.7018702318800749 2.7096101433506865 -1.2516491587313587
-0.04587743127801053 2.7723578275380882 1.1042349137728975
2.599475963682277 0.7423690246048679 -1.2645237652779484
-3.446752846109675 -1.3834525156357838 0.22722888716348788
2.650845883305147 0.6240401402627227 1.2210640497993714
-3.4515687760743194 0.6262763970799043 -1.241019689946587
-0.255452255086872 -3.7121956515272947 0.005157761002471339
-0.8046086084175378 -0.8624052989462136 -2.9217880872343454
-0.031252736315887764 -0.6941311347838557 2.986375696743075
-0.6505003122572061 2.780314771975663 1.1171095203194874
2.7938822129499443 0.1697973248029635 -1.2516491587313585
2.650845883305147 0.8130736532298427 1.1042349137728975
-3.446752846109674 0.8219384689806165 -1.1357776998120444
-0.25063632512222805 -3.7055670925937028 0.22722888716348766
-3.3953829264868043 0.7036095846384713 1.3498101152652764
1.6622176575055965 -3.089106926052766 -1.241019689946587
-0.2554522550868712 1.6647576062041192 -3.317982108195017
-0.6761838093603632 -0.6856437273837758 3.0001086103927705
-0.03125273631588821 2.9815205062434793 0.7146980517838553
2.845252132572814 0.24050195342793812 1.1171095203194878
-3.6554285174948045 0.2546713988037601 -1.114320022234394
-3.395382926486805 0.8926430976055919 1.2329809792388022
1.8468151417757843 -3.024063799105937 -1.135777699812044
-0.2506363251222268 1.8604196781048308 -3.2127401180604744
1.7184035070931103 -3.011773738494199 1.3498101152652762
-2.61045070141405 -3.0328778520272373 -1.1500391370173473
1.6622176575055962 0.2714888600293679 -3.3179821081950163
-0.1136498727945741 1.8599318414709787 3.220778828768259
-0.6761838093603624 2.9900079136435584 0.7284309654335519
2.8452521325728135 0.8916173869813514 0.7146980517838554
-3.6040585978719353 0.3253760274287363 1.2544386568164532
1.3717964269750331 -3.397821321202965 -1.1143200222343934
1.8981850613986542 -2.9533591704809616 1.2329809792388025
-2.788626945731379 -2.963060558417864 -1.0370723829548505
1.846815141775784 0.33653198697619635 -3.212740118060473
-0.11364987279457398 2.0489653544380984 3.103949692741785
-2.5542648518265363 -2.9555446644686696 1.4407906681945157
1.71840350709311 2.554213032204335 -2.0901588899586843
-2.61045070141405 0.3277179340548967 -3.227001555265776
1.8040200397978934 0.46666309529622696 3.2207788287682586
3.052618798458324 0.2808742405259868 0.7284309654335519
-3.6040585978719353 0.9764914609821501 0.8520271882808202
1.423166346597903 -3.32711669257799 1.2544386568164532
-1.956304935057565 -3.567777896167321 -1.0370723829548503
1.3717964269750331 0.522873762559523 -3.537442843524228
-2.737257026108509 -2.8923559297928874 1.3316862960959968
1.8981850613986548 2.4235940872504522 -2.0901588899586843
-2.7886269457313793 0.39753522766427013 -3.1140348012032804
1.9838015941034373 0.5250776633094633 3.103949692741784
-2.5542648518265354 2.6104421062298644 -1.9991783370294456
1.8040200397978936 2.672054079912627 1.8577722417927263
1.118351906404638 -2.3814157390626747 -3.2270015552657774
-2.468648319121754 0.5228921693217555 3.3117593816974984
-3.8266459806827413 0.371406586126837 0.8749153776969804
2.0424139225392213 -3.1259109583101727 0.8520271882808208
-1.9049350154346945 -3.497073267542346 1.331686296095997
1.423166346597904 2.6099358628337788 -2.4148616154224394
-1.9563049350575645 0.6679730425403677 -3.6549104309554754
1.5230523014201516 0.7310596135108401 3.437235489236599
-2.7372570261085087 2.4845973279385256 -1.9914535731014913
1.9838015941034375 2.541435134958744 1.857772241792726
1.239811585929882 -2.5292966870431064 -3.11403480120328
-2.6516404934037268 0.5860809039975379 3.202655009598978
3.2719892228901637 -1.622579258016342 -1.9991783370294454
-2.468648319121754 2.728283153938157 1.9487527947219654
-2.1331755868612556 -2.338625060087273 -3.157764782281891
1.2601542886969348 -2.1862415037958174 3.3117593816974966
1.53572729341842 -3.524585648547003 0.8749153776969814
-2.9020576374684195 -3.0608408349095617 0.9573128595951603
2.042413922539221 2.1600261635481828 -2.414861615422439
-1.9049350154346942 2.755035142814623 -2.5323292028536875
1.5230523014201511 2.7474170851601207 2.191058038287541
1.239811585929882 -1.6541415344175519 -3.654910430955475
-1.7970225106713742 0.8872064917143371 3.6898864454070472
3.2088514181452203 -1.8355033329436026 -1.991453573101491
-2.6516404934037268 2.6024383756468183 1.9564775586499197
-2.2535650597276904 -2.483323230292675 -3.0396481856007576
1.376798038257535 -2.340751010709841 3.2026550095989776
-4.211898437230096 -1.5240899679779172 -1.8398193182194253
3.357605755594947 -1.50473821030805 1.9487527947219654
-1.9913732045689596 -2.1434508248204143 3.380996154681384
1.2601542886969346 3.9398445645830735 -0.47437002656786814
-2.0142474927496856 -3.7058726618423163 0.9573128595951608
1.5357272934184207 2.358790724170398 -2.761211189250444
-2.90205763746842 2.2250962869487942 -2.309575944108099
2.1422998773614688 2.2975073858745225 2.1910580382875406
3.208851418145219 -0.9603481803180478 -2.5323292028536857
-1.797022510671374 2.9035639633636174 2.4437089944579897
-2.25356505972769 -1.608168077667119 -3.5805238153529513
1.3990940103160723 -1.4349080852435825 3.689886445407047
-4.154111665779202 -1.7386054317926916 -1.8346694756007889
3.294467950850003 -1.71766228523531 1.9564775586499192
-2.1165786074000374 -2.294777553959407 3.2770416252015
1.3767980382575344 3.91135739964713 -0.6613604893507037
-0.14794749978008653 -4.4767231557626035 -1.8398193182194253
-4.126281904525313 -1.4062489202696238 2.108111813531985
3.357605755594947 2.4159568734544385 -0.47437002656786786
-1.991373204568958 3.9826352435584758 -0.40513325358398145
-2.014247492749684 2.513563289483299 -2.886509949177108
1.6508339651659627 2.5172214660893246 2.5465628878820095
3.0129774517201535 -2.0724282599906876 -2.3095759441080994
-2.8021716826461733 2.3625775092751358 2.29634370960188
-4.154111665779203 -0.8634502791671363 -2.3755451053529844
3.3167639229085406 -0.811819359769054 2.443708994457988
-0.8330688281777137 -2.6402190007595263 -3.5805238153529517
-2.094282635341501 -1.3889346284931505 3.764273061009569
1.3990940103160727 3.9420451724878314 0.3667465762095586
-0.3698209239155933 -4.48805359409356 -1.8346694756007893
-4.068495133074419 -1.6207643840843986 2.1132616561506223
3.2944679508500023 2.518088653472379 -0.6613604893507038
-2.1165786074000366 3.9573308563975633 -0.5869738737481816
-0.14794749978008648 0.3564670338041309 -4.826895129464216
-0.06233096707530339 -4.358882108054311 2.1081118135319854
-4.126281904525313 2.514446163492866 -0.3150110077578485
4.403079362767731 -0.663206489924693 -0.4051332535839816
3.012977451720153 -1.1389294305234285 -2.886509949177106
-1.8905791677316641 2.683778136173055 2.816057241130487
-3.9782545276022443 -1.9804224061606563 -2.1607073454471535
3.1128634065424006 -1.934947037664348 2.29634370960188
0.4625010867582209 -4.2176157792174624 -2.375545105352984
-4.046199161015881 -0.7149214586181427 2.6004930919586897
3.3167639229085397 2.54877642631308 0.3667465762095583
-0.6737864037915232 -2.4209855515855594 3.764273061009568
-2.0942826353415005 3.988018629238265 0.44113319181208055
-0.3698209239155922 0.36614031913618716 -4.834726301959632
-0.2842043912108095 -4.370212546385268 2.113261656150622
-4.068495133074418 2.6149865546232904 -0.5045763918500028
4.417704057729853 -0.7901033898275157 -0.5869738737481814
0.060802254613312845 0.6437864216540032 4.798928623021345
-0.062330967075302 3.8349038675945577 -2.955926415961234
3.666471640743384 -3.1473206974093926 -0.3150110077578485
-5.2484932928631265 -0.5361900805693341 -0.1996163861180386
-3.9782545276022443 -1.046923576693397 -2.7376413505161596
3.136645776738173 -0.9687145838336725 2.8160572411304874
-1.4902068844042176 -4.191917795700555 -2.3339648945802915
-3.8783685727799972 -1.842941183834315 2.445212308262826
3.1128634065423997 2.9192468755654013 -0.703713116756961
0.46250108675822216 -0.23857701861327052 -4.834726301959631
0.5704135915215414 -4.06908695866847 2.6004930919586893
-4.046199161015881 2.6456743274639916 0.5235306737102593
-0.6737864037915237 4.44956583329347 -0.4819612162983311
4.440000029788392 -0.7594156169868147 0.441133191812081
-0.16053606619278904 0.6541962135342362 4.8157720200993746
-0.2842043912108086 3.8445771529266137 -2.9637575884566507
3.744234140450451 -3.061293522384956 -0.5045763918500022
-5.274176789966283 -0.662556517509651 -0.38059869917913147
0.06080225461331318 4.004382207736137 2.7219662047729143
3.666471640743384 1.1257701944769847 -2.9559264159612333
-4.574314292602683 -3.038870491741708 -0.13953488890061502
1.1119265522593462 -5.15730559402008 -0.19961638611803711
0.23366476730088842 -4.107062068966876 -2.7376413505161614
-3.854586202584225 -0.876708730003641 2.9649258397914333
3.136645776738174 2.951980499928816 0.39293441984065225
-1.4902068844042164 -0.2128790350963617 -4.793146091186939
-1.3822943796408969 -4.0433889751515615 2.642073302731381
-3.878368572779996 3.011252729395434 -0.5548445180960153
0.6717859444810248 0.04947887578477861 4.8157720200993746
0.5704135915215423 4.145702740643413 -2.4765261526485807
3.7665301125089883 -3.0306057495442538 0.5235306737102592
4.440000029788391 0.7341825101607988 -0.48196121629833044
-5.251880817907744 -0.6318687446689486 0.6475083663811311
-0.16053606619278832 4.01479199961637 2.7388096018509445
3.7442341404504496 0.9177452382192366 -2.9637575884566494
-4.657784561156737 -2.9507214648672493 -0.32566704458034457
0.9996815660461127 -5.220781427834453 -0.380598699179131
3.789604862432001 1.2952485346185632 2.7219662047729134
-4.574314292602684 1.2342204001446713 -2.7804502971040006
-1.4765967293215645 -5.289494041214579 -0.13953488890061444
1.1119265522593473 2.1278748542806554 -4.702105517344089
0.25803925890442636 -1.4830542076314432 -4.793146091186939
0.35733309231890864 -3.9368472222771214 2.9649258397914307
-3.854586202584225 3.0439863537588496 0.5418030185015985
-1.2809220266814143 0.07517685930168533 4.857352230872065
-1.3822943796408955 4.171400724160321 -2.4349459418758896
4.062353329941822 -2.7580194359956183 -0.5548445180960154
0.6717859444810257 4.2852298144924665 2.197933972098749
3.7665301125089883 1.8235881636854936 -2.4765261526485807
-4.635488589098198 -2.920033692026548 0.7024400209799181
-5.251880817907746 0.8617293824786665 -0.27558604172928136
1.0219775381046499 -5.190093654993751 0.6475083663811311
3.8679024654684717 1.0879600849089914 2.738809601850944
-4.6577845611567374 1.028317295736943 -2.784848241186993
-1.3669682913992904 -5.341639436697994 -0.3256670445803445
0.9996815660461132 1.9943866082562374 -4.839817780025008
-4.451181070914069 1.4036987402862513 2.8974423236301474
2.5873542081284477 -3.9690363371128865 -2.780450297104
-1.4765967293215616 2.2407298498213115 -4.7934691964572815
1.3117975551129908 2.4029736890348525 4.514303154811694
0.4673241166272303 -1.1949983132334 4.857352230872065
0.3573330923189088 4.412521891616293 -2.1952680572132865
4.086135700137596 -2.725285811632203 0.5418030185015985
-1.2809220266814139 4.310927798009377 2.23951418287144
4.394390295329008 -0.025606363082138595 -2.434945941875889
-4.96966748468566 -2.639156438841723 -0.3625201486963305
3.86790246546847 1.9631152375345473 2.1979339720987485
-4.635488589098197 1.9341602212032003 -2.297616805378925
-1.344672319340753 -5.310951663857294 0.7024400209799185
2.4424737696546264 -4.728546450938545 -0.2755860417292803
1.0219775381046514 2.9002295337224937 -4.352586344216939
-4.534116236138717 1.1985321424266986 2.9177189491206006
2.4173224504643183 -4.112048838394672 -2.7848482411869924
-1.366968291399289 2.0975683184648384 -4.923350286642783
1.2057954410761476 2.278078019405832 4.66446087048765
2.7104874298170634 -3.79955799697131 2.8974423236301465
-3.623093161929459 -3.887305747334341 -2.648207424921737
2.5873542081284477 -0.711903337963375 -4.793469196457281
-1.2704828542915287 2.5244212609709065 4.710809454055376
0.46732411662722884 4.87896740383357 1.103434971223053
4.0861357001375955 1.703388218498719 -2.195268057213286
-4.945885114489887 -2.606422814478308 0.7341273879012832
4.4957626482884905 0.11392071076691479 2.2395141828714404
-5.309433720386472 0.10209768344683745 -2.2283164540911047
-0.9742752195222634 -5.541978835546602 -0.36252014869633026
-4.534116236138716 2.073687295052255 2.376843319368405
3.2719404331966695 -3.810923250677873 -2.2976168053789237
-1.3446723193407513 3.003411243931095 -4.436118850834716
-3.391763807794003 -4.651766848810047 -0.15135403584267426
2.442473769654627 1.8681786106300855 -4.35258634421694
1.2057954410761476 3.153233172031386 4.123585240735454
2.5409907754823386 -3.941833991704918 2.9177189491206
-3.457223319049591 -4.034738773303667 -2.65975792819728
2.4173224504643187 -0.6518798438360315 -4.9233502866427825
-1.1551466475222696 2.3891157994616514 4.844123772653301
-3.499959940240843 -3.717827407192762 3.029685195812409
2.710487429817062 4.2907651917449385 -2.1026523869679217
-3.6230931619294586 -0.6301727481848285 -4.661226324275017
2.793468083158481 -0.4282119268137812 4.710809454055376
4.49576264828849 1.9521354891261917 1.1034349712230536
-4.945885114489887 1.8222512156526163 -2.0029436878136027
-0.9504928493264904 -5.509245211183186 0.7341273879012833
-5.208061367426986 0.2416247572958936 2.4461436706562254
1.7378059172475782 -5.018021618339387 -2.228316454091104
-0.9742752195222634 2.1542004029501354 -5.1190205015986
3.3733127861561534 -3.671396176828818 2.376843319368405
-4.282113339037227 -3.7115105621491598 -2.13676369642646
3.2719404331966677 -0.35075425611923294 -4.436118850834713
-1.1551466475222694 3.2642709520872057 4.303248142901107
-3.391763807794002 1.944958212758586 -4.228354338330333
2.6262916726261234 2.121182248938977 4.123585240735454
-3.3335549940315716 -3.864523926613911 3.042809262110312
2.540990775482338 4.372528916083474 -2.22083992269403
-3.4572233190495902 -0.5745697787450261 -4.798259973653069
2.6291440943413384 -0.36033236283921777 4.844123772653302
-3.4999599402408426 4.372495781523486 -1.9704095147856604
2.793468083158481 4.404978262752953 1.7237336428105854
0.5202674606870605 -3.6405004493784987 -4.6612263242750185
-3.4169792868994264 -0.34648133703523587 4.843052326237638
-5.208061367426989 2.079839535655171 1.3100644590078379
3.2614264455766424 -4.140709673325743 -2.0029436878136027
-0.950492849326489 3.1204328567808086 -4.599306970069993
1.8391782702070611 -4.878494544490333 2.446143670656226
-2.2066105118280936 -5.219451633111956 -2.1367636964264607
1.7378059172475786 0.25106066354247514 -5.4847883938139494
-0.7544204194902262 2.4568045748430367 5.018876725614904
-4.180740986077743 -3.5719834883001065 2.53769642832087
3.373312786156154 3.767811578334015 -2.2208399226940303
-4.2821133390372275 -0.2513415675905195 -4.275265741882252
3.4614661050151527 -0.08989454796312135 4.303248142901106
2.89787783968006 -2.6247339300450205 -4.228354338330333
-3.2079459048225076 2.1979618510674785 4.247817246622061
-3.3335549940315694 4.449838981174477 -2.095749609704319
2.6291440943413393 4.493861550390529 1.8440669462944583
0.5218924267939627 -3.4655665919561365 -4.798259973653071
-3.245401675172573 -0.28302229774821464 4.969214085643013
5.240037706656927 -1.9774842036145266 -1.9704095147856604
-3.4169792868994264 4.4867088525315015 1.855976514992847
0.7263813357170943 -3.3568090382289095 4.843052326237636
3.5874244135157047 -4.310454938666137 1.310064459007839
-4.2677457266169565 -4.041624431070184 -1.8426203980605864
3.2614264455766424 0.06029436450732806 -4.599306970069992
-0.7544204194902261 3.390303404310294 4.441942720545894
-2.1052381588686107 -5.079924559262901 2.5376964283208707
1.8391782702070625 4.369626497995721 -3.2695094656732673
-2.206610511828093 0.42303018055680885 -5.62400923817691
1.9734165375343147 0.575350861576138 5.37963782639547
-4.180740986077741 3.867224266862728 -2.0599868137415687
3.4614661050151514 3.889144212641071 1.8440669462944579
1.0842057579293511 -4.1502006103840605 -4.275265741882251
-4.092587667218745 0.009518140565590638 4.4641012518535685
-3.959491131425546 -2.534489737164544 -4.082336166962417
3.0816957426515565 -2.371730291736133 4.24781724662206
5.2621735043494064 -1.7953233320869606 -2.095749609704319
-3.2454016751725723 4.571171615481536 1.9691572592841697
0.7337140706709828 -3.174019110959329 4.969214085643012
-6.1855930318470405 -1.827120874983485 -1.7271165383990623
5.323018359998346 -1.863271132606513 1.855976514992848
0.7263813357170938 5.832968327415445 -0.8365424347750413
-4.456796879512025 -4.204591558556347 1.481355006189431
3.587424413515704 3.099451325460639 -3.269509465673268
-4.2677457266169565 0.1593796067628901 -4.438983680316976
3.4574988754129055 0.3301649120368131 4.441942720545894
-2.1052381588686093 4.541596015010057 -3.4087303100362285
1.9734165375343151 4.55438962218033 2.920456629788821
1.0842057579293523 -1.9678877912739372 -5.624009238176909
-1.961486943463048 0.7604138283358388 5.679075996671556
4.969868852752443 -2.781082938231684 -2.059986813741568
-4.092587667218743 3.988556901169785 2.00492005524692
-2.1902128073736162 -4.107108680837361 -4.205541535234873
1.273731429747834 -3.8893409022279535 4.464101251853569
-3.7756732284540497 -2.2814860988556527 4.393835417989974
3.0816957426515543 4.860033279100645 -0.22165843875837365
-6.208244114227097 -1.6443706001642475 -1.8515029587587142
5.350326823208405 -1.6739906977799048 1.9691572592841706
0.7337140706709814 5.864064694896596 -0.6166288995459531
0.17375815291604715 -6.447459961235145 -1.7271165383990619
-6.102612378505624 -1.71290780397547 2.0992694913794456
5.323018359998344 2.4933160434711037 -0.8365424347750414
-4.456796879512025 3.20531470557043 -3.098218918491675
3.7216626808429583 3.284214449645245 2.920456629788821
1.470384970772106 -4.009616376143322 -4.438983680316976
-4.0716732967806974 0.4292501542923759 4.602266010298909
4.969868852752441 -0.5987701191215586 -3.4087303100362254
-1.961486943463047 4.739452588940029 3.219894800064908
-2.1902128073736145 -1.9247958617272345 -5.554285031529531
1.3293293262943973 -1.6305041434949084 5.679075996671557
-5.940712764917397 -2.6374977474548706 -1.8276610947835454
5.058022171611443 -2.659750303924627 2.00492005524692
-2.0006871355551348 -3.8462489726812503 4.533825458500947
1.2737314297478335 5.73217967204501 -1.4823254865035251
-3.7756732284540493 4.950277471981124 -0.0756402673904586
0.35456356203403644 -6.412529480087997 -1.8515029587587128
-6.120090795368094 -1.5230379658571895 2.2134039102297747
5.3503268232084045 2.5098991948462688 -0.616628899545952
0.1737581529160469 1.3386117571362166 -6.539173499196865
0.25673880625746576 -6.333246890227131 2.0992694913794456
-6.102612378505625 2.6436793721021488 -0.5932494583884445
4.425661413755892 -3.248168997722624 -3.0982189184916744
-4.322558612184773 3.3900778297550396 3.0917471769704137
-2.5791783744528862 -3.956323403700383 -4.352753839542789
1.6664574006083703 -3.7397458286138416 4.6022660102989095
-5.940712764917398 -0.45518492834474555 -3.176404591078206
5.113620068158006 -0.4009135451915861 3.2198948000649072
-1.9450892390085728 -1.587412213948209 5.748800203318933
1.3293293262943988 5.808703611667925 1.0813927546091175
-0.6726282163710866 -6.464985213101688 -1.8276610947835459
-5.8525594460583985 -2.516165113147814 2.2372457742049434
5.058022171611443 2.982731509744139 -1.4823254865035256
-2.0006871355551334 5.775271601591711 -1.4126012798561483
5.874740839995571 -2.0611587616087648 -0.07564026739046004
0.35456356203403666 1.211735774509039 -6.5635580253445545
0.44271688089303524 -6.29119684578094 2.213403910229775
-6.120090795368098 2.660851926768985 -0.37238224860034796
0.45510139026073015 1.7258475024642692 6.4340653173143405
0.25673880625746714 4.709957827293742 -4.725806368771636
4.400099428873985 -4.986987415343185 -0.5932494583884437
-5.453660820910476 -3.1181553634803523 -2.8878524392867817
4.559899681083145 -3.0634058735380196 3.091747176970413
-2.3831059446166236 -3.6864528561708996 4.688495851073095
1.6664574006083672 5.788857038096408 -1.286734426627705
1.4028746108380452 -5.790613464954358 -3.1764045910782053
-5.796961549511836 -0.2573283544147734 3.4522205190229283
5.113620068158005 3.0592554493670545 1.0813927546091173
-1.9450892390085712 5.851795541214627 1.1511169612564947
-0.6726282163710862 1.2565195028981881 -6.599813453564076
-0.5844748975120877 -6.34365257879463 2.237245774204944
-5.852559446058397 3.1263167005209542 -1.2499997675455061
6.110856015382014 -0.11810946531473399 -1.4126012798561478
-6.741059767102558 -1.8951325862453223 0.19299572736974235
0.6369571873956992 1.6004172549131424 6.458116057366376
0.4427168808930377 4.793237403374737 -4.637153201811855
4.42183262673659 -4.998303766365877 -0.37238224860034774
0.4551013902607306 4.982980501613779 4.4210464179610565
4.400099428873985 1.699630126100069 -4.725806368771637
-5.36725560561105 -4.858447289330096 -0.38526716558106744
-2.5048636141572587 -5.739186936268382 -3.0931947197408722
-5.319422553583223 -2.9333922392957463 3.302113656175307
4.559899681083143 4.135339497960194 -1.3573221389714667
-2.3831059446166223 5.842150010539348 -1.2005045858535188
1.4028746108380465 -0.25142156806460747 -6.599813453564074
1.5466258262436074 -5.592756891024387 3.4522205190229283
-5.796961549511835 3.202840640143869 1.3137184735671366
6.166453911928578 -0.041585525691819614 1.1511169612564964
-0.38775726078069706 1.6486107358401472 6.536094747542441
-0.5844748975120856 4.838021131763887 -4.673408630031376
4.781844199454488 -4.600029807919406 -1.2499997675455043
-6.982671312489805 0.05420367849320984 -1.1337927564665415
0.28072383274001705 -6.9967569939815295 0.19299572736974313
0.6369571873957 5.060586249471782 4.319614011910586
4.421832626736589 1.9022405901636232 -4.637153201811856
-5.379859015804056 -4.869311764495839 -0.16366880529773276
4.598462012877249 1.9726528004201054 4.4210464179610565
-5.367255605611049 1.8281702521131618 -4.51782407596426
-2.504863614157257 -0.1999950393786296 -6.516603582226741
-2.3611123987516978 -5.5413303623384085 3.5354303903602613
-5.319422553583223 4.265353132202466 -1.1469556597665753
6.292635072979744 -0.4611448007049207 -1.2005045858535197
1.6877455664284349 0.1406696648773509 6.536094747542441
1.5466258262436083 5.588916819534135 -3.458433885213387
4.837442096001052 -4.523505868296489 1.3137184735671372
-6.927073415943237 0.13072761811612743 1.4299254846461018
-0.3877572607806964 5.108779730398786 4.3975927020866505
4.781844199454487 0.9391620889703436 -4.673408630031374
-5.766295444295038 -4.461214417854828 -1.0253917482594452
2.2093148633319046 -6.624165195078621 -1.1337927564665407
0.28072383274001805 3.301665478424261 -6.171779391082767
4.616072933239254 2.1695894362606674 4.319614011910585
-5.379859015804054 2.0312325920336636 -4.428439758509239
-5.168893021607791 2.101192926433199 4.629028710768433
3.3972664264571932 -4.53962774182438 -4.51782407596426
-2.219992658566873 0.19209619356332486 6.619304618879774
-2.361112398751697 5.640343348220111 -3.3752240138760565
5.700383859999693 -3.741004877651757 -1.1469556597665762
-7.164218907924927 -0.28405021365058336 -0.9139595247759706
1.6877455664284358 5.783151478546117 3.048849205791991
4.8374420960010545 3.197998847703386 -3.4584338852133873
-5.710697547748475 -4.384690478231914 1.538326492853199
2.2649127598784675 -6.547641255455704 1.4299254846461027
4.978561836185881 1.2099206876052429 4.39759270208665
-5.7662954442950385 1.0779774790349215 -4.448800610745315
-2.4609837558167214 -6.8626639278475325 -1.0253917482594455
2.2093148633319055 1.9483216637343703 -6.431881003324793
0.5435153532844553 3.6633669761547547 5.946006652589917
-5.1856187093013935 2.2985814381307095 4.5283274552132005
3.594284855989445 -4.488864583263002 -4.42843975850924
3.595629010460458 -4.266605067504349 4.629028710768432
-4.520943385477571 -4.4354226951735045 -4.349216768683872
-2.2199926585668712 5.8345780072320945 3.1320590771293233
6.093909152310433 -0.5025893838283727 -3.375224013876056
-6.65670339912389 -3.578383415870702 -0.8838286073046359
1.943717587323715 -6.901353419820817 -0.9139595247759698
4.978561836185878 3.39223350671537 3.0488492057919907
-5.710697547748473 3.336814237767964 -3.233825865927331
-2.4053858592701585 -6.786139988224616 1.5383264928532003
2.2649127598784697 4.207158422467412 -5.216906258506806
-5.5695778075636495 1.34873607766982 4.622200721372709
2.8071007927295892 -5.150959496604599 -4.448800610745315
-2.460983755816721 2.15193834881037 -6.596722350296215
2.4833105227241283 2.3254443356094048 6.202547879811653
3.78852516249211 -4.22151573716596 4.5283274552132
-4.712575548574743 -4.379544825825501 -4.251556675333472
-4.322580801474308 -4.16240002085347 4.797636018048819
3.5956290104604554 6.048412939647531 -1.7460030122186292
6.235028892495258 -0.3083547248163921 3.1320590771293237
-7.059389308102633 -0.3294896413064822 -3.095142747031776
-1.3462103886235792 -7.436682432674397 -0.8838286073046351
1.9437175873237158 2.268908826261008 -6.581493278604494
-5.5695778075636495 3.5310488967799474 3.2734572250780483
4.938201516485282 -4.4000638088343536 -3.2338258659273293
-2.405385859270156 4.410775107543412 -5.381747605478229
2.4833105227241283 4.507757154719528 4.8538043835169935
3.0038184294609778 -4.8802008979697025 4.6222007213727085
-3.944659609316094 -5.0621051312390515 -4.305031227535058
2.8071007927295897 -1.675549116836447 -6.596722350296212
-2.1757245016512208 2.5445640288908553 6.5570909911454915
-4.518335242072079 -4.11219597972846 4.705210538388967
3.7885251624921086 5.938178436971784 -1.750708859708214
-4.322580801474307 6.1526179862984085 -1.5773957049382439
-6.918269567917804 -0.13525498229449734 3.4121403439736038
1.8681079956962334 -6.815696101169551 -3.0951427470317743
-1.3462103886235797 2.535265150750839 -7.046831147893812
2.2240285425711157 2.654723757173534 6.3441451679797005
5.07932125667011 -4.205829149822369 3.2734572250780483
-6.001629804343036 -4.256093686771989 -3.0008773150659565
4.9382015164852815 -0.9246534290662023 -5.3817476054782265
-2.1757245016512203 4.72687684800098 5.208347494850833
-3.747941972584705 -4.791346532604152 4.7659701045829665
3.0038184294609778 6.316714197798332 -2.2978733769587136
-3.9446596093160915 -1.5866947514708987 -6.452952967085956
3.092360046895088 -1.2829234367559619 6.5570909911454915
-4.518335242072081 6.047498194409284 -1.5738257765324477
7.187238355358309 -2.2097551207912915 -1.5773957049382452
2.009227735881059 -6.621461442157567 3.412140343973604
-2.193180031277977 -7.023094412676121 -3.0008773150659573
1.8681079956962339 0.27969212626768547 -7.480333834963857
-1.0429978917061753 2.9526013495688748 6.934838259858457
-5.860510064158213 -4.061859027760009 3.506405775939424
5.079321256670111 4.808773126835533 -2.297873376958715
-6.001629804343039 -0.7806833070038384 -5.148799054616855
5.1678628741042205 -0.6085516886086347 5.208347494850831
-3.7479419725847043 6.40556856316388 -2.154103993748459
3.09236004689509 6.4385812792439125 1.7849386323649639
-3.6594003551505976 -1.194069071390418 6.700860374355749
7.147754941159638 -2.4284124592544134 -1.5738257765324486
-8.119737681283402 -2.008312599076609 -1.2514548580243958
-2.052060291093151 -6.828859753664138 3.5064057759394247
2.0092277358810615 6.013118682169422 -4.396459606444346
-2.193180031277978 0.45675703637873954 -7.623679741382016
2.189994057359948 0.7227302819932924 7.362406971894685
-5.86051006415821 4.952743248897898 -2.064924826097346
5.167862874104218 4.930640208281116 1.784938632364962
1.1121316572003397 -5.949133542900674 -5.1487990546168545
-5.771968446724102 -0.4645815665462738 5.441296045712204
7.25023548603223 -1.5850750910712397 -2.154103993748459
-3.6594003551505967 6.5274356446094615 1.9287080155752194
-8.085903314029999 -2.22793481255795 -1.2494461301929736
0.5991181492737403 -8.342932155523876 -1.2514548580243947
-2.05206029109315 6.1901835922804755 -4.539805512862507
2.189994057359948 6.261922178883041 3.938998109408814
1.1121316572003401 -1.944692473613963 -7.6236797413820145
-1.8614991564077068 0.9132765959162429 7.670717384253024
6.521335945931472 -4.043194452645756 -2.064924826097344
-5.771968446724103 5.0746103303434795 2.0178871832263328
1.3417930148192738 -5.633031802443111 5.441296045712203
-8.190769436159885 -1.381868725431851 -1.8253091874135836
7.338777103466338 -1.4632080096256592 1.92870801557522
0.3797896175439198 -8.378620756380778 -1.2494461301929722
0.5991181492737403 2.611737432958087 -8.021812999231075
6.521335945931472 -0.03875338335904535 -4.539805512862504
-1.8614991564077052 6.452468492805993 4.247308521767155
1.443812532070609 -1.4881729140764621 7.670717384253026
-7.523645336666421 -3.8583600059052996 -1.765856408979504
6.609877563365584 -3.921327371200173 2.017887183226332
1.3417930148192754 7.38601154350151 -2.6049152430897204
1.2168516967938718 -8.216905565884728 -1.8253091874135812
-8.10222781872577 -1.260001643986266 2.2575028219100943
0.3797896175439203 2.629494521257409 -8.052835523850364
0.9426347496680525 3.0845474711225402 7.818350554768322
-7.523645336666423 0.14608106338141122 -4.240737095744667
6.711897080616918 0.22353151716646927 4.247308521767153
1.4438125320706106 7.526429362581441 2.099386782216257
-1.344584157149097 -8.347710735971605 -1.7658564089795046
-7.4351037192323135 -3.7364929244597183 2.3169556003441745
6.609877563365585 3.55852407785469 -2.6049152430897213
1.2168516967938723 2.0421057127982545 -8.165726848608186
1.30539331422798 -8.095038484439142 2.2575028219100957
0.7248329873829 3.1044059772822283 7.8577300942269055
2.4638656159159646 -7.110270392589025 -4.240737095744666
-7.333084201980978 0.40836596390692464 4.546376938884992
6.7118970806169145 3.6989418969346217 2.0993867822162553
-1.3445841571490966 2.153779744834723 -8.256134458651294
-1.2560425397149877 -8.225843654526022 2.316955600344176
-7.435103719232313 3.743358524595149 -2.3058468259718867
1.5667579741188677 2.5237103867677546 7.96907611298634
1.3053933142279837 5.639383174011993 -6.2308365788354045
2.463865615915965 -0.613220981069408 -8.256134458651292
2.6544267506014068 -6.847985492063514 4.5463769388849915
-7.333084201980981 3.88377634367508 2.3984551993340917
-0.9885003357633686 2.643887078762326 8.16352608528908
-1.256042539714986 5.751057206048459 -6.321244188878513
5.857718921828385 -5.914442441367994 -2.3058468259718836
1.566757974118869 5.999120766535904 5.821154373435442
2.819949437301691 -0.12311364714180661 8.163526085289082
2.6544267506014068 7.128915368510975 -4.091822850337689
5.959738439079723 -5.774024622288062 2.398455199334091
-0.9885003357633675 6.119297458530476 6.015604345738183
5.857718921828388 0.582606970151623 -6.321244188878511
-6.920334291952267 -5.746280992899875 -2.033755886753058
2.819949437301692 7.356737801913056 3.5407236589730235
5.959738439079725 4.727465858518267 -4.09182285033769
-6.818314774700936 -5.605863173819946 2.6705461385529214
6.125261125780008 0.9508472226336375 6.015604345738183
-6.920334291952269 0.7507684186197414 -6.049153249659686
6.125261125780003 4.95528829192035 3.540723658973021
-6.8183147747009345 4.895627306986386 -3.8197319111188683
-6.652792088000652 1.1190086711017537 6.2876952849570085
2.8525240997258834 -6.349628823108507 -6.0491532496596845
-6.652792088000654 5.123449740388469 3.8128145981918453
6.762993390042273 -4.971770660645997 -3.8197319111188657
3.1200663036774983 -5.981388570626496 6.287695284957008
6.928516076742559 -4.743948227243913 3.8128145981918435
-7.864110844346114 -4.779275372529948 -3.5082679922728994
3.120066303677498 8.298843920339744 -2.5379737617106954
-7.698588157645835 -4.551452939127868 4.124278517037815
6.928516076742561 5.5318431944356075 -2.5379737617106963
-7.6985881576458315 5.724338482551656 -2.2265098428647367
7.82316398871614 -5.552874560938811 -2.2265098428647327
-8.87043051096683 -5.3331838941180925 -1.8710428769376852
3 0 1 2
3 3 1 2
3 3 1 0
3 3 2 0
3 0 1 2
3 4 1 2
3 4 1 0
3 4 2 0
3 3 1 2
3 5 1 2
3 5 1 3
3 5 2 3
3 4 1 2
3 6 1 2
3 6 1 4
3 6 2 4
3 3 1 0
3 7 1 0
3 7 1 3
3 7 0 3
3 5 1 2
3 8 1 2
3 8 1 5
3 8 2 5
3 4 1 0
3 9 1 0
3 9 1 4
3 9 0 4
3 3 2 0
3 10 2 0
3 10 2 3
3 10 0 3
3 7 1 0
3 11 1 0
3 11 1 7
3 11 0 7
3 5 1 3
3 12 1 3
3 12 1 5
3 12 3 5
3 4 2 0
3 13 2 0
3 13 2 4
3 13 0 4
3 7 1 3
3 14 1 3
3 14 1 7
3 14 3 7
3 10 2 0
3 15 2 0
3 15 2 10
3 15 0 10
3 6 1 4
3 16 1 4
3 16 1 6
3 16 4 6
3 5 2 3
3 17 2 3
3 17 2 5
3 17 3 5
3 9 1 4
3 18 1 4
3 18 1 9
3 18 4 9
3 10 2 3
3 19 2 3
3 19 2 10
3 19 3 10
3 8 1 5
3 20 1 5
3 20 1 8
3 20 5 8
3 6 2 4
3 21 2 4
3 21 2 6
3 21 4 6
3 7 0 3
3 22 0 3
3 22 0 7
3 22 3 7
3 12 1 5
3 23 1 5
3 23 1 12
3 23 5 12
3 13 2 4
3 24 2 4
3 24 2 13
3 24 4 13
3 10 0 3
3 25 0 3
3 25 0 10
3 25 3 10
3 11 1 7
3 26 1 7
3 26 1 11
3 26 7 11
3 8 2 5
3 27 2 5
3 27 2 8
3 27 5 8
3 9 0 4
3 28 0 4
3 28 0 9
3 28 4 9
3 16 1 6
3 29 1 6
3 29 1 16
3 29 6 16
3 14 1 7
3 30 1 7
3 30 1 14
3 30 7 14
3 17 2 5
3 31 2 5
3 31 2 17
3 31 5 17
3 13 0 4
3 32 0 4
3 32 0 13
3 32 4 13
3 15 2 10
3 33 2 10
3 33 2 15
3 33 10 15
3 11 0 7
3 34 0 7
3 34 0 11
3 34 7 11
3 12 3 5
3 35 3 5
3 35 3 12
3 35 5 12
3 18 1 9
3 36 1 9
3 36 1 18
3 36 9 18
3 21 2 6
3 37 2 6
3 37 2 21
3 37 6 21
3 19 2 10
3 38 2 10
3 38 2 19
3 38 10 19
3 22 0 7
3 39 0 7
3 39 0 22
3 39 7 22
3 17 3 5
3 40 3 5
3 40 3 17
3 40 5 17
3 15 0 10
3 41 0 10
3 41 0 15
3 41 10 15
3 14 3 7
3 42 3 7
3 42 3 14
3 42 7 14
3 16 4 6
3 43 4 6
3 43 4 16
3 43 6 16
3 23 1 12
3 44 1 12
3 44 1 23
3 44 12 23
3 24 2 13
3 45 2 13
3 45 2 24
3 45 13 24
3 28 0 9
3 46 0 9
3 46 0 28
3 46 9 28
3 25 0 10
3 47 0 10
3 47 0 25
3 47 10 25
3 22 3 7
3 48 3 7
3 48 3 22
3 48 7 22
3 21 4 6
3 49 4 6
3 49 4 21
3 49 6 21
3 19 3 10
3 50 3 10
3 50 3 19
3 50 10 19
3 18 4 9
3 51 4 9
3 51 4 18
3 51 9 18
3 20 5 8
3 52 5 8
3 52 5 20
3 52 8 20
3 29 1 16
3 53 1 16
3 53 1 29
3 53 16 29
3 31 2 17
3 54 2 17
3 54 2 31
3 54 17 31
3 32 0 13
3 55 0 13
3 55 0 32
3 55 13 32
3 35 3 12
3 56 3 12
3 56 3 35
3 56 12 35
3 25 3 10
3 57 3 10
3 57 3 25
3 57 10 25
3 28 4 9
3 58 4 9
3 58 4 28
3 58 9 28
3 27 5 8
3 59 5 8
3 59 5 27
3 59 8 27
3 24 4 13
3 60 4 13
3 60 4 24
3 60 13 24
3 23 5 12
3 61 5 12
3 61 5 23
3 61 12 23
3 26 7 11
3 62 7 11
3 62 7 26
3 62 11 26
3 37 2 21
3 63 2 21
3 63 2 37
3 63 21 37
3 39 0 22
3 64 0 22
3 64 0 39
3 64 22 39
3 40 3 17
3 65 3 17
3 65 3 40
3 65 17 40
3 43 4 16
3 66 4 16
3 66 4 43
3 66 16 43
3 32 4 13
3 67 4 13
3 67 4 32
3 67 13 32
3 35 5 12
3 68 5 12
3 68 5 35
3 68 12 35
3 34 7 11
3 69 7 11
3 69 7 34
3 69 11 34
3 31 5 17
3 70 5 17
3 70 5 31
3 70 17 31
3 29 6 16
3 71 6 16
3 71 6 29
3 71 16 29
3 30 7 14
3 72 7 14
3 72 7 30
3 72 14 30
3 33 10 15
3 73 10 15
3 73 10 33
3 73 15 33
3 46 0 28
3 74 0 28
3 74 0 46
3 74 28 46
3 48 3 22
3 75 3 22
3 75 3 48
3 75 22 48
3 49 4 21
3 76 4 21
3 76 4 49
3 76 21 49
3 52 5 20
3 77 5 20
3 77 5 52
3 77 20 52
3 40 5 17
3 78 5 17
3 78 5 40
3 78 17 40
3 43 6 16
3 79 6 16
3 79 6 43
3 79 16 43
3 42 7 14
3 80 7 14
3 80 7 42
3 80 14 42
3 41 10 15
3 81 10 15
3 81 10 41
3 81 15 41
3 37 6 21
3 82 6 21
3 82 6 37
3 82 21 37
3 39 7 22
3 83 7 22
3 83 7 39
3 83 22 39
3 36 9 18
3 84 9 18
3 84 9 36
3 84 18 36
3 38 10 19
3 85 10 19
3 85 10 38
3 85 19 38
3 56 3 35
3 86 3 35
3 86 3 56
3 86 35 56
3 58 4 28
3 87 4 28
3 87 4 58
3 87 28 58
3 59 5 27
3 88 5 27
3 88 5 59
3 88 27 59
3 52 8 20
3 89 8 20
3 89 8 52
3 89 20 52
3 62 7 26
3 90 7 26
3 90 7 62
3 90 26 62
3 49 6 21
3 91 6 21
3 91 6 49
3 91 21 49
3 48 7 22
3 92 7 22
3 92 7 48
3 92 22 48
3 51 9 18
3 93 9 18
3 93 9 51
3 93 18 51
3 50 10 19
3 94 10 19
3 94 10 50
3 94 19 50
3 46 9 28
3 95 9 28
3 95 9 46
3 95 28 46
3 47 10 25
3 96 10 25
3 96 10 47
3 96 25 47
3 44 12 23
3 97 12 23
3 97 12 44
3 97 23 44
3 45 13 24
3 98 13 24
3 98 13 45
3 98 24 45
3 66 4 43
3 99 4 43
3 99 4 66
3 99 43 66
3 68 5 35
3 100 5 35
3 100 5 68
3 100 35 68
3 59 8 27
3 101 8 27
3 101 8 59
3 101 27 59
3 69 7 34
3 102 7 34
3 102 7 69
3 102 34 69
3 62 11 26
3 103 11 26
3 103 11 62
3 103 26 62
3 73 10 33
3 104 10 33
3 104 10 73
3 104 33 73
3 58 9 28
3 105 9 28
3 105 9 58
3 105 28 58
3 57 10 25
3 106 10 25
3 106 10 57
3 106 25 57
3 61 12 23
3 107 12 23
3 107 12 61
3 107 23 61
3 60 13 24
3 108 13 24
3 108 13 60
3 108 24 60
3 56 12 35
3 109 12 35
3 109 12 56
3 109 35 56
3 55 13 32
3 110 13 32
3 110 13 55
3 110 32 55
3 53 16 29
3 111 16 29
3 111 16 53
3 111 29 53
3 54 17 31
3 112 17 31
3 112 17 54
3 112 31 54
3 77 5 52
3 113 5 52
3 113 5 77
3 113 52 77
3 79 6 43
3 114 6 43
3 114 6 79
3 114 43 79
3 80 7 42
3 115 7 42
3 115 7 80
3 115 42 80
3 69 11 34
3 116 11 34
3 116 11 69
3 116 34 69
3 81 10 41
3 117 10 41
3 117 10 81
3 117 41 81
3 72 14 30
3 118 14 30
3 118 14 72
3 118 30 72
3 73 15 33
3 119 15 33
3 119 15 73
3 119 33 73
3 68 12 35
3 120 12 35
3 120 12 68
3 120 35 68
3 67 13 32
3 121 13 32
3 121 13 67
3 121 32 67
3 71 16 29
3 122 16 29
3 122 16 71
3 122 29 71
3 70 17 31
3 123 17 31
3 123 17 70
3 123 31 70
3 66 16 43
3 124 16 43
3 124 16 66
3 124 43 66
3 65 17 40
3 125 17 40
3 125 17 65
3 125 40 65
3 63 21 37
3 126 21 37
3 126 21 63
3 126 37 63
3 64 22 39
3 127 22 39
3 127 22 64
3 127 39 64
3 89 8 52
3 128 8 52
3 128 8 89
3 128 52 89
3 90 7 62
3 129 7 62
3 129 7 90
3 129 62 90
3 93 9 51
3 130 9 51
3 130 9 93
3 130 51 93
3 94 10 50
3 131 10 50
3 131 10 94
3 131 50 94
3 80 14 42
3 132 14 42
3 132 14 80
3 132 42 80
3 81 15 41
3 133 15 41
3 133 15 81
3 133 41 81
3 84 18 36
3 134 18 36
3 134 18 84
3 134 36 84
3 85 19 38
3 135 19 38
3 135 19 85
3 135 38 85
3 79 16 43
3 136 16 43
3 136 16 79
3 136 43 79
3 78 17 40
3 137 17 40
3 137 17 78
3 137 40 78
3 82 21 37
3 138 21 37
3 138 21 82
3 138 37 82
3 83 22 39
3 139 22 39
3 139 22 83
3 139 39 83
3 77 20 52
3 140 20 52
3 140 20 77
3 140 52 77
3 76 21 49
3 141 21 49
3 141 21 76
3 141 49 76
3 75 22 48
3 142 22 48
3 142 22 75
3 142 48 75
3 74 28 46
3 143 28 46
3 143 28 74
3 143 46 74
3 103 11 62
3 144 11 62
3 144 11 103
3 144 62 103
3 104 10 73
3 145 10 73
3 145 10 104
3 145 73 104
3 107 12 61
3 146 12 61
3 146 12 107
3 146 61 107
3 108 13 60
3 147 13 60
3 147 13 108
3 147 60 108
3 93 18 51
3 148 18 51
3 148 18 93
3 148 51 93
3 94 19 50
3 149 19 50
3 149 19 94
3 149 50 94
3 97 23 44
3 150 23 44
3 150 23 97
3 150 44 97
3 98 24 45
3 151 24 45
3 151 24 98
3 151 45 98
3 96 25 47
3 152 25 47
3 152 25 96
3 152 47 96
3 89 20 52
3 153 20 52
3 153 20 89
3 153 52 89
3 91 21 49
3 154 21 49
3 154 21 91
3 154 49 91
3 92 22 48
3 155 22 48
3 155 22 92
3 155 48 92
3 95 28 46
3 156 28 46
3 156 28 95
3 156 46 95
3 90 26 62
3 157 26 62
3 157 26 90
3 157 62 90
3 88 27 59
3 158 27 59
3 158 27 88
3 158 59 88
3 87 28 58
3 159 28 58
3 159 28 87
3 159 58 87
3 86 35 56
3 160 35 56
3 160 35 86
3 160 56 86
3 118 14 72
3 161 14 72
3 161 14 118
3 161 72 118
3 119 15 73
3 162 15 73
3 162 15 119
3 162 73 119
3 122 16 71
3 163 16 71
3 163 16 122
3 163 71 122
3 123 17 70
3 164 17 70
3 164 17 123
3 164 70 123
3 107 23 61
3 165 23 61
3 165 23 107
3 165 61 107
3 108 24 60
3 166 24 60
3 166 24 108
3 166 60 108
3 106 25 57
3 167 25 57
3 167 25 106
3 167 57 106
3 112 31 54
3 168 31 54
3 168 31 112
3 168 54 112
3 110 32 55
3 169 32 55
3 169 32 110
3 169 55 110
3 103 26 62
3 170 26 62
3 170 26 103
3 170 62 103
3 101 27 59
3 171 27 59
3 171 27 101
3 171 59 101
3 105 28 58
3 172 28 58
3 172 28 105
3 172 58 105
3 109 35 56
3 173 35 56
3 173 35 109
3 173 56 109
3 104 33 73
3 174 33 73
3 174 33 104
3 174 73 104
3 102 34 69
3 175 34 69
3 175 34 102
3 175 69 102
3 100 35 68
3 176 35 68
3 176 35 100
3 176 68 100
3 99 43 66
3 177 43 66
3 177 43 99
3 177 66 99
3 134 18 84
3 178 18 84
3 178 18 134
3 178 84 134
3 135 19 85
3 179 19 85
3 179 19 135
3 179 85 135
3 122 29 71
3 180 29 71
3 180 29 122
3 180 71 122
3 138 21 82
3 181 21 82
3 181 21 138
3 181 82 138
3 139 22 83
3 182 22 83
3 182 22 139
3 182 83 139
3 118 30 72
3 183 30 72
3 183 30 118
3 183 72 118
3 123 31 70
3 184 31 70
3 184 31 123
3 184 70 123
3 121 32 67
3 185 32 67
3 185 32 121
3 185 67 121
3 127 39 64
3 186 39 64
3 186 39 127
3 186 64 127
3 125 40 65
3 187 40 65
3 187 40 125
3 187 65 125
3 119 33 73
3 188 33 73
3 188 33 119
3 188 73 119
3 116 34 69
3 189 34 69
3 189 34 116
3 189 69 116
3 120 35 68
3 190 35 68
3 190 35 120
3 190 68 120
3 124 43 66
3 191 43 66
3 191 43 124
3 191 66 124
3 117 41 81
3 192 41 81
3 192 41 117
3 192 81 117
3 115 42 80
3 193 42 80
3 193 42 115
3 193 80 115
3 114 43 79
3 194 43 79
3 194 43 114
3 194 79 114
3 113 52 77
3 195 52 77
3 195 52 113
3 195 77 113
3 150 23 97
3 196 23 97
3 196 23 150
3 196 97 150
3 151 24 98
3 197 24 98
3 197 24 151
3 197 98 151
3 152 25 96
3 198 25 96
3 198 25 152
3 198 96 152
3 134 36 84
3 199 36 84
3 199 36 134
3 199 84 134
3 138 37 82
3 200 37 82
3 200 37 138
3 200 82 138
3 156 28 95
3 201 28 95
3 201 28 156
3 201 95 156
3 135 38 85
3 202 38 85
3 202 38 135
3 202 85 135
3 139 39 83
3 203 39 83
3 203 39 139
3 203 83 139
3 137 40 78
3 204 40 78
3 204 40 137
3 204 78 137
3 142 48 75
3 205 48 75
3 205 48 142
3 205 75 142
3 141 49 76
3 206 49 76
3 206 49 141
3 206 76 141
3 133 41 81
3 207 41 81
3 207 41 133
3 207 81 133
3 132 42 80
3 208 42 80
3 208 42 132
3 208 80 132
3 136 43 79
3 209 43 79
3 209 43 136
3 209 79 136
3 140 52 77
3 210 52 77
3 210 52 140
3 210 77 140
3 131 50 94
3 211 50 94
3 211 50 131
3 211 94 131
3 130 51 93
3 212 51 93
3 212 51 130
3 212 93 130
3 128 52 89
3 213 52 89
3 213 52 128
3 213 89 128
3 129 62 90
3 214 62 90
3 214 62 129
3 214 90 129
3 150 44 97
3 215 44 97
3 215 44 150
3 215 97 150
3 168 31 112
3 216 31 112
3 216 31 168
3 216 112 168
3 169 32 110
3 217 32 110
3 217 32 169
3 217 110 169
3 151 45 98
3 218 45 98
3 218 45 151
3 218 98 151
3 156 46 95
3 219 46 95
3 219 46 156
3 219 95 156
3 173 35 109
3 220 35 109
3 220 35 173
3 220 109 173
3 152 47 96
3 221 47 96
3 221 47 152
3 221 96 152
3 155 48 92
3 222 48 92
3 222 48 155
3 222 92 155
3 154 49 91
3 223 49 91
3 223 49 154
3 223 91 154
3 159 58 87
3 224 58 87
3 224 58 159
3 224 87 159
3 158 59 88
3 225 59 88
3 225 59 158
3 225 88 158
3 149 50 94
3 226 50 94
3 226 50 149
3 226 94 149
3 148 51 93
3 227 51 93
3 227 51 148
3 227 93 148
3 153 52 89
3 228 52 89
3 228 52 153
3 228 89 153
3 157 62 90
3 229 62 90
3 229 62 157
3 229 90 157
3 147 60 108
3 230 60 108
3 230 60 147
3 230 108 147
3 146 61 107
3 231 61 107
3 231 61 146
3 231 107 146
3 144 62 103
3 232 62 103
3 232 62 144
3 232 103 144
3 145 73 104
3 233 73 104
3 233 73 145
3 233 104 145
3 168 54 112
3 234 54 112
3 234 54 168
3 234 112 168
3 186 39 127
3 235 39 127
3 235 39 186
3 235 127 186
3 187 40 125
3 236 40 125
3 236 40 187
3 236 125 187
3 169 55 110
3 237 55 110
3 237 55 169
3 237 110 169
3 173 56 109
3 238 56 109
3 238 56 173
3 238 109 173
3 191 43 124
3 239 43 124
3 239 43 191
3 239 124 191
3 167 57 106
3 240 57 106
3 240 57 167
3 240 106 167
3 172 58 105
3 241 58 105
3 241 58 172
3 241 105 172
3 171 59 101
3 242 59 101
3 242 59 171
3 242 101 171
3 176 68 100
3 243 68 100
3 243 68 176
3 243 100 176
3 175 69 102
3 244 69 102
3 244 69 175
3 244 102 175
3 166 60 108
3 245 60 108
3 245 60 166
3 245 108 166
3 165 61 107
3 246 61 107
3 246 61 165
3 246 107 165
3 170 62 103
3 247 62 103
3 247 62 170
3 247 103 170
3 174 73 104
3 248 73 104
3 248 73 174
3 248 104 174
3 164 70 123
3 249 70 123
3 249 70 164
3 249 123 164
3 163 71 122
3 250 71 122
3 250 71 163
3 250 122 163
3 161 72 118
3 251 72 118
3 251 72 161
3 251 118 161
3 162 73 119
3 252 73 119
3 252 73 162
3 252 119 162
3 186 64 127
3 253 64 127
3 253 64 186
3 253 127 186
3 205 48 142
3 254 48 142
3 254 48 205
3 254 142 205
3 206 49 141
3 255 49 141
3 255 49 206
3 255 141 206
3 187 65 125
3 256 65 125
3 256 65 187
3 256 125 187
3 191 66 124
3 257 66 124
3 257 66 191
3 257 124 191
3 210 52 140
3 258 52 140
3 258 52 210
3 258 140 210
3 185 67 121
3 259 67 121
3 259 67 185
3 259 121 185
3 190 68 120
3 260 68 120
3 260 68 190
3 260 120 190
3 189 69 116
3 261 69 116
3 261 69 189
3 261 116 189
3 194 79 114
3 262 79 114
3 262 79 194
3 262 114 194
3 193 80 115
3 263 80 115
3 263 80 193
3 263 115 193
3 192 81 117
3 264 81 117
3 264 81 192
3 264 117 192
3 184 70 123
3 265 70 123
3 265 70 184
3 265 123 184
3 180 71 122
3 266 71 122
3 266 71 180
3 266 122 180
3 183 72 118
3 267 72 118
3 267 72 183
3 267 118 183
3 188 73 119
3 268 73 119
3 268 73 188
3 268 119 188
3 181 82 138
3 269 82 138
3 269 82 181
3 269 138 181
3 182 83 139
3 270 83 139
3 270 83 182
3 270 139 182
3 178 84 134
3 271 84 134
3 271 84 178
3 271 134 178
3 179 85 135
3 272 85 135
3 272 85 179
3 272 135 179
3 205 75 142
3 273 75 142
3 273 75 205
3 273 142 205
3 224 58 159
3 274 58 159
3 274 58 224
3 274 159 224
3 225 59 158
3 275 59 158
3 275 59 225
3 275 158 225
3 206 76 141
3 276 76 141
3 276 76 206
3 276 141 206
3 210 77 140
3 277 77 140
3 277 77 210
3 277 140 210
3 229 62 157
3 278 62 157
3 278 62 229
3 278 157 229
3 204 78 137
3 279 78 137
3 279 78 204
3 279 137 204
3 209 79 136
3 280 79 136
3 280 79 209
3 280 136 209
3 208 80 132
3 281 80 132
3 281 80 208
3 281 132 208
3 207 81 133
3 282 81 133
3 282 81 207
3 282 133 207
3 212 93 130
3 283 93 130
3 283 93 212
3 283 130 212
3 211 94 131
3 284 94 131
3 284 94 211
3 284 131 211
3 200 82 138
3 285 82 138
3 285 82 200
3 285 138 200
3 203 83 139
3 286 83 139
3 286 83 203
3 286 139 203
3 199 84 134
3 287 84 134
3 287 84 199
3 287 134 199
3 202 85 135
3 288 85 135
3 288 85 202
3 288 135 202
3 201 95 156
3 289 95 156
3 289 95 201
3 289 156 201
3 198 96 152
3 290 96 152
3 290 96 198
3 290 152 198
3 196 97 150
3 291 97 150
3 291 97 196
3 291 150 196
3 197 98 151
3 292 98 151
3 292 98 197
3 292 151 197
3 224 87 159
3 293 87 159
3 293 87 224
3 293 159 224
3 243 68 176
3 294 68 176
3 294 68 243
3 294 176 243
3 244 69 175
3 295 69 175
3 295 69 244
3 295 175 244
3 225 88 158
3 296 88 158
3 296 88 225
3 296 158 225
3 228 89 153
3 297 89 153
3 297 89 228
3 297 153 228
3 229 90 157
3 298 90 157
3 298 90 229
3 298 157 229
3 248 73 174
3 299 73 174
3 299 73 248
3 299 174 248
3 223 91 154
3 300 91 154
3 300 91 223
3 300 154 223
3 222 92 155
3 301 92 155
3 301 92 222
3 301 155 222
3 227 93 148
3 302 93 148
3 302 93 227
3 302 148 227
3 226 94 149
3 303 94 149
3 303 94 226
3 303 149 226
3 231 107 146
3 304 107 146
3 304 107 231
3 304 146 231
3 230 108 147
3 305 108 147
3 305 108 230
3 305 147 230
3 219 95 156
3 306 95 156
3 306 95 219
3 306 156 219
3 221 96 152
3 307 96 152
3 307 96 221
3 307 152 221
3 215 97 150
3 308 97 150
3 308 97 215
3 308 150 215
3 218 98 151
3 309 98 151
3 309 98 218
3 309 151 218
3 220 109 173
3 310 109 173
3 310 109 220
3 310 173 220
3 217 110 169
3 311 110 169
3 311 110 217
3 311 169 217
3 216 112 168
3 312 112 168
3 312 112 216
3 312 168 216
3 243 100 176
3 313 100 176
3 313 100 243
3 313 176 243
3 262 79 194
3 314 79 194
3 314 79 262
3 314 194 262
3 263 80 193
3 315 80 193
3 315 80 263
3 315 193 263
3 264 81 192
3 316 81 192
3 316 81 264
3 316 192 264
3 242 101 171
3 317 101 171
3 317 101 242
3 317 171 242
3 244 102 175
3 318 102 175
3 318 102 244
3 318 175 244
3 247 103 170
3 319 103 170
3 319 103 247
3 319 170 247
3 248 104 174
3 320 104 174
3 320 104 248
3 320 174 248
3 241 105 172
3 321 105 172
3 321 105 241
3 321 172 241
3 240 106 167
3 322 106 167
3 322 106 240
3 322 167 240
3 246 107 165
3 323 107 165
3 323 107 246
3 323 165 246
3 245 108 166
3 324 108 166
3 324 108 245
3 324 166 245
3 250 122 163
3 325 122 163
3 325 122 250
3 325 163 250
3 249 123 164
3 326 123 164
3 326 123 249
3 326 164 249
3 238 109 173
3 327 109 173
3 327 109 238
3 327 173 238
3 237 110 169
3 328 110 169
3 328 110 237
3 328 169 237
3 234 112 168
3 329 112 168
3 329 112 234
3 329 168 234
3 239 124 191
3 330 124 191
3 330 124 239
3 330 191 239
3 236 125 187
3 331 125 187
3 331 125 236
3 331 187 236
3 235 127 186
3 332 127 186
3 332 127 235
3 332 186 235
3 262 114 194
3 333 114 194
3 333 114 262
3 333 194 262
3 263 115 193
3 334 115 193
3 334 115 263
3 334 193 263
3 283 93 212
3 335 93 212
3 335 93 283
3 335 212 283
3 284 94 211
3 336 94 211
3 336 94 284
3 336 211 284
3 261 116 189
3 337 116 189
3 337 116 261
3 337 189 261
3 264 117 192
3 338 117 192
3 338 117 264
3 338 192 264
3 267 118 183
3 339 118 183
3 339 118 267
3 339 183 267
3 268 119 188
3 340 119 188
3 340 119 268
3 340 188 268
3 260 120 190
3 341 120 190
3 341 120 260
3 341 190 260
3 259 121 185
3 342 121 185
3 342 121 259
3 342 185 259
3 266 122 180
3 343 122 180
3 343 122 266
3 343 180 266
3 265 123 184
3 344 123 184
3 344 123 265
3 344 184 265
3 269 138 181
3 345 138 181
3 345 138 269
3 345 181 269
3 270 139 182
3 346 139 182
3 346 139 270
3 346 182 270
3 257 124 191
3 347 124 191
3 347 124 257
3 347 191 257
3 256 125 187
3 348 125 187
3 348 125 256
3 348 187 256
3 253 127 186
3 349 127 186
3 349 127 253
3 349 186 253
3 258 140 210
3 350 140 210
3 350 140 258
3 350 210 258
3 255 141 206
3 351 141 206
3 351 141 255
3 351 206 255
3 254 142 205
3 352 142 205
3 352 142 254
3 352 205 254
3 283 130 212
3 353 130 212
3 353 130 283
3 353 212 283
3 284 131 211
3 354 131 211
3 354 131 284
3 354 211 284
3 304 107 231
3 355 107 231
3 355 107 304
3 355 231 304
3 305 108 230
3 356 108 230
3 356 108 305
3 356 230 305
3 281 132 208
3 357 132 208
3 357 132 281
3 357 208 281
3 282 133 207
3 358 133 207
3 358 133 282
3 358 207 282
3 287 134 199
3 359 134 199
3 359 134 287
3 359 199 287
3 288 135 202
3 360 135 202
3 360 135 288
3 360 202 288
3 280 136 209
3 361 136 209
3 361 136 280
3 361 209 280
3 279 137 204
3 362 137 204
3 362 137 279
3 362 204 279
3 285 138 200
3 363 138 200
3 363 138 285
3 363 200 285
3 286 139 203
3 364 139 203
3 364 139 286
3 364 203 286
3 289 156 201
3 365 156 201
3 365 156 289
3 365 201 289
3 277 140 210
3 366 140 210
3 366 140 277
3 366 210 277
3 276 141 206
3 367 141 206
3 367 141 276
3 367 206 276
3 273 142 205
3 368 142 205
3 368 142 273
3 368 205 273
3 278 157 229
3 369 157 229
3 369 157 278
3 369 229 278
3 275 158 225
3 370 158 225
3 370 158 275
3 370 225 275
3 274 159 224
3 371 159 224
3 371 159 274
3 371 224 274
3 304 146 231
3 372 146 231
3 372 146 304
3 372 231 304
3 305 147 230
3 373 147 230
3 373 147 305
3 373 230 305
3 325 122 250
3 374 122 250
3 374 122 325
3 374 250 325
3 326 123 249
3 375 123 249
3 375 123 326
3 375 249 326
3 302 148 227
3 376 148 227
3 376 148 302
3 376 227 302
3 303 149 226
3 377 149 226
3 377 149 303
3 377 226 303
3 309 151 218
3 378 151 218
3 378 151 309
3 378 218 309
3 307 152 221
3 379 152 221
3 379 152 307
3 379 221 307
3 297 153 228
3 380 153 228
3 380 153 297
3 380 228 297
3 300 154 223
3 381 154 223
3 381 154 300
3 381 223 300
3 301 155 222
3 382 155 222
3 382 155 301
3 382 222 301
3 306 156 219
3 383 156 219
3 383 156 306
3 383 219 306
3 310 173 220
3 384 173 220
3 384 173 310
3 384 220 310
3 298 157 229
3 385 157 229
3 385 157 298
3 385 229 298
3 296 158 225
3 386 158 225
3 386 158 296
3 386 225 296
3 293 159 224
3 387 159 224
3 387 159 293
3 387 224 293
3 299 174 248
3 388 174 248
3 388 174 299
3 388 248 299
3 295 175 244
3 389 175 244
3 389 175 295
3 389 244 295
3 294 176 243
3 390 176 243
3 390 176 294
3 390 243 294
3 325 163 250
3 391 163 250
3 391 163 325
3 391 250 325
3 326 164 249
3 392 164 249
3 392 164 326
3 392 249 326
3 345 138 269
3 393 138 269
3 393 138 345
3 393 269 345
3 346 139 270
3 394 139 270
3 394 139 346
3 394 270 346
3 323 165 246
3 395 165 246
3 395 165 323
3 395 246 323
3 324 166 245
3 396 166 245
3 396 166 324
3 396 245 324
3 322 167 240
3 397 167 240
3 397 167 322
3 397 240 322
3 328 169 237
3 398 169 237
3 398 169 328
3 398 237 328
3 319 170 247
3 399 170 247
3 399 170 319
3 399 247 319
3 317 171 242
3 400 171 242
3 400 171 317
3 400 242 317
3 321 172 241
3 401 172 241
3 401 172 321
3 401 241 321
3 327 173 238
3 402 173 238
3 402 173 327
3 402 238 327
3 330 191 239
3 403 191 239
3 403 191 330
3 403 239 330
3 320 174 248
3 404 174 248
3 404 174 320
3 404 248 320
3 318 175 244
3 405 175 244
3 405 175 318
3 405 244 318
3 313 176 243
3 406 176 243
3 406 176 313
3 406 243 313
3 316 192 264
3 407 192 264
3 407 192 316
3 407 264 316
3 315 193 263
3 408 193 263
3 408 193 315
3 408 263 315
3 314 194 262
3 409 194 262
3 409 194 314
3 409 262 314
3 343 180 266
3 410 180 266
3 410 180 343
3 410 266 343
3 345 181 269
3 411 181 269
3 411 181 345
3 411 269 345
3 346 182 270
3 412 182 270
3 412 182 346
3 412 270 346
3 365 156 289
3 413 156 289
3 413 156 365
3 413 289 365
3 339 183 267
3 414 183 267
3 414 183 339
3 414 267 339
3 344 184 265
3 415 184 265
3 415 184 344
3 415 265 344
3 342 185 259
3 416 185 259
3 416 185 342
3 416 259 342
3 348 187 256
3 417 187 256
3 417 187 348
3 417 256 348
3 340 188 268
3 418 188 268
3 418 188 340
3 418 268 340
3 337 189 261
3 419 189 261
3 419 189 337
3 419 261 337
3 341 190 260
3 420 190 260
3 420 190 341
3 420 260 341
3 347 191 257
3 421 191 257
3 421 191 347
3 421 257 347
3 350 210 258
3 422 210 258
3 422 210 350
3 422 258 350
3 338 192 264
3 423 192 264
3 423 192 338
3 423 264 338
3 334 193 263
3 424 193 263
3 424 193 334
3 424 263 334
3 333 194 262
3 425 194 262
3 425 194 333
3 425 262 333
3 336 211 284
3 426 211 284
3 426 211 336
3 426 284 336
3 335 212 283
3 427 212 283
3 427 212 335
3 427 283 335
3 359 199 287
3 428 199 287
3 428 199 359
3 428 287 359
3 363 200 285
3 429 200 285
3 429 200 363
3 429 285 363
3 365 201 289
3 430 201 289
3 430 201 365
3 430 289 365
3 384 173 310
3 431 173 310
3 431 173 384
3 431 310 384
3 360 202 288
3 432 202 288
3 432 202 360
3 432 288 360
3 364 203 286
3 433 203 286
3 433 203 364
3 433 286 364
3 362 204 279
3 434 204 279
3 434 204 362
3 434 279 362
3 367 206 276
3 435 206 276
3 435 206 367
3 435 276 367
3 358 207 282
3 436 207 282
3 436 207 358
3 436 282 358
3 357 208 281
3 437 208 281
3 437 208 357
3 437 281 357
3 361 209 280
3 438 209 280
3 438 209 361
3 438 280 361
3 366 210 277
3 439 210 277
3 439 210 366
3 439 277 366
3 369 229 278
3 440 229 278
3 440 229 369
3 440 278 369
3 354 211 284
3 441 211 284
3 441 211 354
3 441 284 354
3 353 212 283
3 442 212 283
3 442 212 353
3 442 283 353
3 356 230 305
3 443 230 305
3 443 230 356
3 443 305 356
3 355 231 304
3 444 231 304
3 444 231 355
3 444 304 355
3 378 218 309
3 445 218 309
3 445 218 378
3 445 309 378
3 383 219 306
3 446 219 306
3 446 219 383
3 446 306 383
3 384 220 310
3 447 220 310
3 447 220 384
3 447 310 384
3 403 191 330
3 448 191 330
3 448 191 403
3 448 330 403
3 379 221 307
3 449 221 307
3 449 221 379
3 449 307 379
3 382 222 301
3 450 222 301
3 450 222 382
3 450 301 382
3 381 223 300
3 451 223 300
3 451 223 381
3 451 300 381
3 386 225 296
3 452 225 296
3 452 225 386
3 452 296 386
3 377 226 303
3 453 226 303
3 453 226 377
3 453 303 377
3 376 227 302
3 454 227 302
3 454 227 376
3 454 302 376
3 380 228 297
3 455 228 297
3 455 228 380
3 455 297 380
3 385 229 298
3 456 229 298
3 456 229 385
3 456 298 385
3 388 248 299
3 457 248 299
3 457 248 388
3 457 299 388
3 373 230 305
3 458 230 305
3 458 230 373
3 458 305 373
3 372 231 304
3 459 231 304
3 459 231 372
3 459 304 372
3 375 249 326
3 460 249 326
3 460 249 375
3 460 326 375
3 374 250 325
3 461 250 325
3 461 250 374
3 461 325 374
3 398 237 328
3 462 237 328
3 462 237 398
3 462 328 398
3 402 238 327
3 463 238 327
3 463 238 402
3 463 327 402
3 403 239 330
3 464 239 330
3 464 239 403
3 464 330 403
3 422 210 350
3 465 210 350
3 465 210 422
3 465 350 422
3 397 240 322
3 466 240 322
3 466 240 397
3 466 322 397
3 401 241 321
3 467 241 321
3 467 241 401
3 467 321 401
3 400 242 317
3 468 242 317
3 468 242 400
3 468 317 400
3 405 244 318
3 469 244 318
3 469 244 405
3 469 318 405
3 396 245 324
3 470 245 324
3 470 245 396
3 470 324 396
3 395 246 323
3 471 246 323
3 471 246 395
3 471 323 395
3 399 247 319
3 472 247 319
3 472 247 399
3 472 319 399
3 404 248 320
3 473 248 320
3 473 248 404
3 473 320 404
3 392 249 326
3 474 249 326
3 474 249 392
3 474 326 392
3 391 250 325
3 475 250 325
3 475 250 391
3 475 325 391
3 393 269 345
3 476 269 345
3 476 269 393
3 476 345 393
3 394 270 346
3 477 270 346
3 477 270 394
3 477 346 394
3 417 256 348
3 478 256 348
3 478 256 417
3 478 348 417
3 421 257 347
3 479 257 347
3 479 257 421
3 479 347 421
3 422 258 350
3 480 258 350
3 480 258 422
3 480 350 422
3 440 229 369
3 481 229 369
3 481 229 440
3 481 369 440
3 416 259 342
3 482 259 342
3 482 259 416
3 482 342 416
3 420 260 341
3 483 260 341
3 483 260 420
3 483 341 420
3 419 261 337
3 484 261 337
3 484 261 419
3 484 337 419
3 423 264 338
3 485 264 338
3 485 264 423
3 485 338 423
3 415 265 344
3 486 265 344
3 486 265 415
3 486 344 415
3 410 266 343
3 487 266 343
3 487 266 410
3 487 343 410
3 414 267 339
3 488 267 339
3 488 267 414
3 488 339 414
3 418 268 340
3 489 268 340
3 489 268 418
3 489 340 418
3 411 269 345
3 490 269 345
3 490 269 411
3 490 345 411
3 412 270 346
3 491 270 346
3 491 270 412
3 491 346 412
3 413 289 365
3 492 289 365
3 492 289 413
3 492 365 413
3 435 276 367
3 493 276 367
3 493 276 435
3 493 367 435
3 439 277 366
3 494 277 366
3 494 277 439
3 494 366 439
3 440 278 369
3 495 278 369
3 495 278 440
3 495 369 440
3 457 248 388
3 496 248 388
3 496 248 457
3 496 388 457
3 434 279 362
3 497 279 362
3 497 279 434
3 497 362 434
3 438 280 361
3 498 280 361
3 498 280 438
3 498 361 438
3 437 281 357
3 499 281 357
3 499 281 437
3 499 357 437
3 436 282 358
3 500 282 358
3 500 282 436
3 500 358 436
3 429 285 363
3 501 285 363
3 501 285 429
3 501 363 429
3 433 286 364
3 502 286 364
3 502 286 433
3 502 364 433
3 428 287 359
3 503 287 359
3 503 287 428
3 503 359 428
3 432 288 360
3 504 288 360
3 504 288 432
3 504 360 432
3 430 289 365
3 505 289 365
3 505 289 430
3 505 365 430
3 431 310 384
3 506 310 384
3 506 310 431
3 506 384 431
3 452 296 386
3 507 296 386
3 507 296 452
3 507 386 452
3 455 297 380
3 508 297 380
3 508 297 455
3 508 380 455
3 456 298 385
3 509 298 385
3 509 298 456
3 509 385 456
3 457 299 388
3 510 299 388
3 510 299 457
3 510 388 457
3 451 300 381
3 511 300 381
3 511 300 451
3 511 381 451
3 450 301 382
3 512 301 382
3 512 301 450
3 512 382 450
3 454 302 376
3 513 302 376
3 513 302 454
3 513 376 454
3 453 303 377
3 514 303 377
3 514 303 453
3 514 377 453
3 446 306 383
3 515 306 383
3 515 306 446
3 515 383 446
3 449 307 379
3 516 307 379
3 516 307 449
3 516 379 449
3 445 309 378
3 517 309 378
3 517 309 445
3 517 378 445
3 447 310 384
3 518 310 384
3 518 310 447
3 518 384 447
3 448 330 403
3 519 330 403
3 519 330 448
3 519 403 448
3 468 317 400
3 520 317 400
3 520 317 468
3 520 400 468
3 469 318 405
3 521 318 405
3 521 318 469
3 521 405 469
3 472 319 399
3 522 319 399
3 522 319 472
3 522 399 472
3 473 320 404
3 523 320 404
3 523 320 473
3 523 404 473
3 467 321 401
3 524 321 401
3 524 321 467
3 524 401 467
3 466 322 397
3 525 322 397
3 525 322 466
3 525 397 466
3 471 323 395
3 526 323 395
3 526 323 471
3 526 395 471
3 470 324 396
3 527 324 396
3 527 324 470
3 527 396 470
3 463 327 402
3 528 327 402
3 528 327 463
3 528 402 463
3 462 328 398
3 529 328 398
3 529 328 462
3 529 398 462
3 464 330 403
3 530 330 403
3 530 330 464
3 530 403 464
3 465 350 422
3 531 350 422
3 531 350 465
3 531 422 465
3 484 337 419
3 532 337 419
3 532 337 484
3 532 419 484
3 485 338 423
3 533 338 423
3 533 338 485
3 533 423 485
3 488 339 414
3 534 339 414
3 534 339 488
3 534 414 488
3 489 340 418
3 535 340 418
3 535 340 489
3 535 418 489
3 483 341 420
3 536 341 420
3 536 341 483
3 536 420 483
3 482 342 416
3 537 342 416
3 537 342 482
3 537 416 482
3 486 344 415
3 538 344 415
3 538 344 486
3 538 415 486
3 479 347 421
3 539 347 421
3 539 347 479
3 539 421 479
3 478 348 417
3 540 348 417
3 540 348 478
3 540 417 478
3 480 350 422
3 541 350 422
3 541 350 480
3 541 422 480
3 481 369 440
3 542 369 440
3 542 369 481
3 542 440 481
3 499 357 437
3 543 357 437
3 543 357 499
3 543 437 499
3 500 358 436
3 544 358 436
3 544 358 500
3 544 436 500
3 504 360 432
3 545 360 432
3 545 360 504
3 545 432 504
3 498 361 438
3 546 361 438
3 546 361 498
3 546 438 498
3 497 362 434
3 547 362 434
3 547 362 497
3 547 434 497
3 502 364 433
3 548 364 433
3 548 364 502
3 548 433 502
3 494 366 439
3 549 366 439
3 549 366 494
3 549 439 494
3 493 367 435
3 550 367 435
3 550 367 493
3 550 435 493
3 495 369 440
3 551 369 440
3 551 369 495
3 551 440 495
3 496 388 457
3 552 388 457
3 552 388 496
3 552 457 496
3 513 376 454
3 553 376 454
3 553 376 513
3 553 454 513
3 514 377 453
3 554 377 453
3 554 377 514
3 554 453 514
3 516 379 449
3 555 379 449
3 555 379 516
3 555 449 516
3 508 380 455
3 556 380 455
3 556 380 508
3 556 455 508
3 511 381 451
3 557 381 451
3 557 381 511
3 557 451 511
3 512 382 450
3 558 382 450
3 558 382 512
3 558 450 512
3 509 385 456
3 559 385 456
3 559 385 509
3 559 456 509
3 507 386 452
3 560 386 452
3 560 386 507
3 560 452 507
3 510 388 457
3 561 388 457
3 561 388 510
3 561 457 510
3 526 395 471
3 562 395 471
3 562 395 526
3 562 471 526
3 527 396 470
3 563 396 470
3 563 396 527
3 563 470 527
3 525 397 466
3 564 397 466
3 564 397 525
3 564 466 525
3 522 399 472
3 565 399 472
3 565 399 522
3 565 472 522
3 520 400 468
3 566 400 468
3 566 400 520
3 566 468 520
3 524 401 467
3 567 401 467
3 567 401 524
3 567 467 524
3 523 404 473
3 568 404 473
3 568 404 523
3 568 473 523
3 521 405 469
3 569 405 469
3 569 405 521
3 569 469 521
3 534 414 488
3 570 414 488
3 570 414 534
3 570 488 534
3 538 415 486
3 571 415 486
3 571 415 538
3 571 486 538
3 537 416 482
3 572 416 482
3 572 416 537
3 572 482 537
3 535 418 489
3 573 418 489
3 573 418 535
3 573 489 535
3 532 419 484
3 574 419 484
3 574 419 532
3 574 484 532
3 536 420 483
3 575 420 483
3 575 420 536
3 575 483 536
3 533 423 485
3 576 423 485
3 576 423 533
3 576 485 533
3 545 432 504
3 577 432 504
3 577 432 545
3 577 504 545
3 548 433 502
3 578 433 502
3 578 433 548
3 578 502 548
3 547 434 497
3 579 434 497
3 579 434 547
3 579 497 547
3 544 436 500
3 580 436 500
3 580 436 544
3 580 500 544
3 543 437 499
3 581 437 499
3 581 437 543
3 581 499 543
3 546 438 498
3 582 438 498
3 582 438 546
3 582 498 546
3 555 449 516
3 583 449 516
3 583 449 555
3 583 516 555
3 558 450 512
3 584 450 512
3 584 450 558
3 584 512 558
3 557 451 511
3 585 451 511
3 585 451 557
3 585 511 557
3 554 453 514
3 586 453 514
3 586 453 554
3 586 514 554
3 553 454 513
3 587 454 513
3 587 454 553
3 587 513 553
3 564 466 525
3 588 466 525
3 588 466 564
3 588 525 564
3 567 467 524
3 589 467 524
3 589 467 567
3 589 524 567
3 563 470 527
3 590 470 527
3 590 470 563
3 590 527 563
3 562 471 526
3 591 471 526
3 591 471 562
3 591 526 562
3 572 482 537
3 592 482 537
3 592 482 572
3 592 537 572
3 575 483 536
3 593 483 536
3 593 483 575
3 593 536 575
3 571 486 538
3 594 486 538
3 594 486 571
3 594 538 571
3 579 497 547
3 595 497 547
3 595 497 579
3 595 547 579
3 582 498 546
3 596 498 546
3 596 498 582
3 596 546 582
3 578 502 548
3 597 502 548
3 597 502 578
3 597 548 578
3 585 511 557
3 598 511 557
3 598 511 585
3 598 557 585
3 584 512 558
3 599 512 558
3 599 512 584
3 599 558 584
3 589 524 567
3 600 524 567
3 600 524 589
3 600 567 589
3 593 536 575
3 601 536 575
3 601 536 593
3 601 575 593
3 596 546 582
3 602 546 582
3 602 546 596
3 602 582 596
# cell 1: 0 1 2 3
# cell 2: 4 5 6 7
# cell 3: 8 9 10 11
# cell 4: 12 13 14 15
# cell 5: 16 17 18 19
# cell 6: 20 21 22 23
# cell 7: 24 25 26 27
# cell 8: 28 29 30 31
# cell 9: 32 33 34 35
# cell 10: 36 37 38 39
# cell 11: 40 41 42 43
# cell 12: 44 45 46 47
# cell 13: 48 49 50 51
# cell 14: 52 53 54 55
# cell 15: 56 57 58 59
# cell 16: 60 61 62 63
# cell 17: 64 65 66 67
# cell 18: 68 69 70 71
# cell 19: 72 73 74 75
# cell 20: 76 77 78 79
# cell 21: 80 81 82 83
# cell 22: 84 85 86 87
# cell 23: 88 89 90 91
# cell 24: 92 93 94 95
# cell 25: 96 97 98 99
# cell 26: 100 101 102 103
# cell 27: 104 105 106 107
# cell 28: 108 109 110 111
# cell 29: 112 113 114 115
# cell 30: 116 117 118 119
# cell 31: 120 121 122 123
# cell 32: 124 125 126 127
# cell 33: 128 129 130 131
# cell 34: 132 133 134 135
# cell 35: 136 137 138 139
# cell 36: 140 141 142 143
# cell 37: 144 145 146 147
# cell 38: 148 149 150 151
# cell 39: 152 153 154 155
# cell 40: 156 157 158 159
# cell 41: 160 161 162 163
# cell 42: 164 165 166 167
# cell 43: 168 169 170 171
# cell 44: 172 173 174 175
# cell 45: 176 177 178 179
# cell 46: 180 181 182 183
# cell 47: 184 185 186 187
# cell 48: 188 189 190 191
# cell 49: 192 193 194 195
# cell 50: 196 197 198 199
# cell 51: 200 201 202 203
# cell 52: 204 205 206 207
# cell 53: 208 209 210 211
# cell 54: 212 213 214 215
# cell 55: 216 217 218 219
# cell 56: 220 221 222 223
# cell 57: 224 225 226 227
# cell 58: 228 229 230 231
# cell 59: 232 233 234 235
# cell 60: 236 237 238 239
# cell 61: 240 241 242 243
# cell 62: 244 245 246 247
# cell 63: 248 249 250 251
# cell 64: 252 253 254 255
# cell 65: 256 257 258 259
# cell 66: 260 261 262 263
# cell 67: 264 265 266 267
# cell 68: 268 269 270 271
# cell 69: 272 273 274 275
# cell 70: 276 277 278 279
# cell 71: 280 281 282 283
# cell 72: 284 285 286 287
# cell 73: 288 289 290 291
# cell 74: 292 293 294 295
# cell 75: 296 297 298 299
# cell 76: 300 301 302 303
# cell 77: 304 305 306 307
# cell 78: 308 309 310 311
# cell 79: 312 313 314 315
# cell 80: 316 317 318 319
# cell 81: 320 321 322 323
# cell 82: 324 325 326 327
# cell 83: 328 329 330 331
# cell 84: 332 333 334 335
# cell 85: 336 337 338 339
# cell 86: 340 341 342 343
# cell 87: 344 345 346 347
# cell 88: 348 349 350 351
# cell 89: 352 353 354 355
# cell 90: 356 357 358 359
# cell 91: 360 361 362 363
# cell 92: 364 365 366 367
# cell 93: 368 369 370 371
# cell 94: 372 373 374 375
# cell 95: 376 377 378 379
# cell 96: 380 381 382 383
# cell 97: 384 385 386 387
# cell 98: 388 389 390 391
# cell 99: 392 393 394 395
# cell 100: 396 397 398 399
# cell 101: 400 401 402 403
# cell 102: 404 405 406 407
# cell 103: 408 409 410 411
# cell 104: 412 413 414 415
# cell 105: 416 417 418 419
# cell 106: 420 421 422 423
# cell 107: 424 425 426 427
# cell 108: 428 429 430 431
# cell 109: 432 433 434 435
# cell 110: 436 437 438 439
# cell 111: 440 441 442 443
# cell 112: 444 445 446 447
# cell 113: 448 449 450 451
# cell 114: 452 453 454 455
# cell 115: 456 457 458 459
# cell 116: 460 461 462 463
# cell 117: 464 465 466 467
# cell 118: 468 469 470 471
# cell 119: 472 473 474 475
# cell 120: 476 477 478 479
# cell 121: 480 481 482 483
# cell 122: 484 485 486 487
# cell 123: 488 489 490 491
# cell 124: 492 493 494 495
# cell 125: 496 497 498 499
# cell 126: 500 501 502 503
# cell 127: 504 505 506 507
# cell 128: 508 509 510 511
# cell 129: 512 513 514 515
# cell 130: 516 517 518 519
# cell 131: 520 521 522 523
# cell 132: 524 525 526 527
# cell 133: 528 529 530 531
# cell 134: 532 533 534 535
# cell 135: 536 537 538 539
# cell 136: 540 541 542 543
# cell 137: 544 545 546 547
# cell 138: 548 549 550 551
# cell 139: 552 553 554 555
# cell 140: 556 557 558 559
# cell 141: 560 561 562 563
# cell 142: 564 565 566 567
# cell 143: 568 569 570 571
# cell 144: 572 573 574 575
# cell 145: 576 577 578 579
# cell 146: 580 581 582 583
# cell 147: 584 585 586 587
# cell 148: 588 589 590 591
# cell 149: 592 593 594 595
# cell 150: 596 597 598 599
# cell 151: 600 601 602 603
# cell 152: 604 605 606 607
# cell 153: 608 609 610 611
# cell 154: 612 613 614 615
# cell 155: 616 617 618 619
# cell 156: 620 621 622 623
# cell 157: 624 625 626 627
# cell 158: 628 629 630 631
# cell 159: 632 633 634 635
# cell 160: 636 637 638 639
# cell 161: 640 641 642 643
# cell 162: 644 645 646 647
# cell 163: 648 649 650 651
# cell 164: 652 653 654 655
# cell 165: 656 657 658 659
# cell 166: 660 661 662 663
# cell 167: 664 665 666 667
# cell 168: 668 669 670 671
# cell 169: 672 673 674 675
# cell 170: 676 677 678 679
# cell 171: 680 681 682 683
# cell 172: 684 685 686 687
# cell 173: 688 689 690 691
# cell 174: 692 693 694 695
# cell 175: 696 697 698 699
# cell 176: 700 701 702 703
# cell 177: 704 705 706 707
# cell 178: 708 709 710 711
# cell 179: 712 713 714 715
# cell 180: 716 717 718 719
# cell 181: 720 721 722 723
# cell 182: 724 725 726 727
# cell 183: 728 729 730 731
# cell 184: 732 733 734 735
# cell 185: 736 737 738 739
# cell 186: 740 741 742 743
# cell 187: 744 745 746 747
# cell 188: 748 749 750 751
# cell 189: 752 753 754 755
# cell 190: 756 757 758 759
# cell 191: 760 761 762 763
# cell 192: 764 765 766 767
# cell 193: 768 769 770 771
# cell 194: 772 773 774 775
# cell 195: 776 777 778 779
# cell 196: 780 781 782 783
# cell 197: 784 785 786 787
# cell 198: 788 789 790 791
# cell 199: 792 793 794 795
# cell 200: 796 797 798 799
# cell 201: 800 801 802 803
# cell 202: 804 805 806 807
# cell 203: 808 809 810 811
# cell 204: 812 813 814 815
# cell 205: 816 817 818 819
# cell 206: 820 821 822 823
# cell 207: 824 825 826 827
# cell 208: 828 829 830 831
# cell 209: 832 833 834 835
# cell 210: 836 837 838 839
# cell 211: 840 841 842 843
# cell 212: 844 845 846 847
# cell 213: 848 849 850 851
# cell 214: 852 853 854 855
# cell 215: 856 857 858 859
# cell 216: 860 861 862 863
# cell 217: 864 865 866 867
# cell 218: 868 869 870 871
# cell 219: 872 873 874 875
# cell 220: 876 877 878 879
# cell 221: 880 881 882 883
# cell 222: 884 885 886 887
# cell 223: 888 889 890 891
# cell 224: 892 893 894 895
# cell 225: 896 897 898 899
# cell 226: 900 901 902 903
# cell 227: 904 905 906 907
# cell 228: 908 909 910 911
# cell 229: 912 913 914 915
# cell 230: 916 917 918 919
# cell 231: 920 921 922 923
# cell 232: 924 925 926 927
# cell 233: 928 929 930 931
# cell 234: 932 933 934 935
# cell 235: 936 937 938 939
# cell 236: 940 941 942 943
# cell 237: 944 945 946 947
# cell 238: 948 949 950 951
# cell 239: 952 953 954 955
# cell 240: 956 957 958 959
# cell 241: 960 961 962 963
# cell 242: 964 965 966 967
# cell 243: 968 969 970 971
# cell 244: 972 973 974 975
# cell 245: 976 977 978 979
# cell 246: 980 981 982 983
# cell 247: 984 985 986 987
# cell 248: 988 989 990 991
# cell 249: 992 993 994 995
# cell 250: 996 997 998 999
# cell 251: 1000 1001 1002 1003
# cell 252: 1004 1005 1006 1007
# cell 253: 1008 1009 1010 1011
# cell 254: 1012 1013 1014 1015
# cell 255: 1016 1017 1018 1019
# cell 256: 1020 1021 1022 1023
# cell 257: 1024 1025 1026 1027
# cell 258: 1028 1029 1030 1031
# cell 259: 1032 1033 1034 1035
# cell 260: 1036 1037 1038 1039
# cell 261: 1040 1041 1042 1043
# cell 262: 1044 1045 1046 1047
# cell 263: 1048 1049 1050 1051
# cell 264: 1052 1053 1054 1055
# cell 265: 1056 1057 1058 1059
# cell 266: 1060 1061 1062 1063
# cell 267: 1064 1065 1066 1067
# cell 268: 1068 1069 1070 1071
# cell 269: 1072 1073 1074 1075
# cell 270: 1076 1077 1078 1079
# cell 271: 1080 1081 1082 1083
# cell 272: 1084 1085 1086 1087
# cell 273: 1088 1089 1090 1091
# cell 274: 1092 1093 1094 1095
# cell 275: 1096 1097 1098 1099
# cell 276: 1100 1101 1102 1103
# cell 277: 1104 1105 1106 1107
# cell 278: 1108 1109 1110 1111
# cell 279: 1112 1113 1114 1115
# cell 280: 1116 1117 1118 1119
# cell 281: 1120 1121 1122 1123
# cell 282: 1124 1125 1126 1127
# cell 283: 1128 1129 1130 1131
# cell 284: 1132 1133 1134 1135
# cell 285: 1136 1137 1138 1139
# cell 286: 1140 1141 1142 1143
# cell 287: 1144 1145 1146 1147
# cell 288: 1148 1149 1150 1151
# cell 289: 1152 1153 1154 1155
# cell 290: 1156 1157 1158 1159
# cell 291: 1160 1161 1162 1163
# cell 292: 1164 1165 1166 1167
# cell 293: 1168 1169 1170 1171
# cell 294: 1172 1173 1174 1175
# cell 295: 1176 1177 1178 1179
# cell 296: 1180 1181 1182 1183
# cell 297: 1184 1185 1186 1187
# cell 298: 1188 1189 1190 1191
# cell 299: 1192 1193 1194 1195
# cell 300: 1196 1197 1198 1199
# cell 301: 1200 1201 1202 1203
# cell 302: 1204 1205 1206 1207
# cell 303: 1208 1209 1210 1211
# cell 304: 1212 1213 1214 1215
# cell 305: 1216 1217 1218 1219
# cell 306: 1220 1221 1222 1223
# cell 307: 1224 1225 1226 1227
# cell 308: 1228 1229 1230 1231
# cell 309: 1232 1233 1234 1235
# cell 310: 1236 1237 1238 1239
# cell 311: 1240 1241 1242 1243
# cell 312: 1244 1245 1246 1247
# cell 313: 1248 1249 1250 1251
# cell 314: 1252 1253 1254 1255
# cell 315: 1256 1257 1258 1259
# cell 316: 1260 1261 1262 1263
# cell 317: 1264 1265 1266 1267
# cell 318: 1268 1269 1270 1271
# cell 319: 1272 1273 1274 1275
# cell 320: 1276 1277 1278 1279
# cell 321: 1280 1281 1282 1283
# cell 322: 1284 1285 1286 1287
# cell 323: 1288 1289 1290 1291
# cell 324: 1292 1293 1294 1295
# cell 325: 1296 1297 1298 1299
# cell 326: 1300 1301 1302 1303
# cell 327: 1304 1305 1306 1307
# cell 328: 1308 1309 1310 1311
# cell 329: 1312 1313 1314 1315
# cell 330: 1316 1317 1318 1319
# cell 331: 1320 1321 1322 1323
# cell 332: 1324 1325 1326 1327
# cell 333: 1328 1329 1330 1331
# cell 334: 1332 1333 1334 1335
# cell 335: 1336 1337 1338 1339
# cell 336: 1340 1341 1342 1343
# cell 337: 1344 1345 1346 1347
# cell 338: 1348 1349 1350 1351
# cell 339: 1352 1353 1354 1355
# cell 340: 1356 1357 1358 1359
# cell 341: 1360 1361 1362 1363
# cell 342: 1364 1365 1366 1367
# cell 343: 1368 1369 1370 1371
# cell 344: 1372 1373 1374 1375
# cell 345: 1376 1377 1378 1379
# cell 346: 1380 1381 1382 1383
# cell 347: 1384 1385 1386 1387
# cell 348: 1388 1389 1390 1391
# cell 349: 1392 1393 1394 1395
# cell 350: 1396 1397 1398 1399
# cell 351: 1400 1401 1402 1403
# cell 352: 1404 1405 1406 1407
# cell 353: 1408 1409 1410 1411
# cell 354: 1412 1413 1414 1415
# cell 355: 1416 1417 1418 1419
# cell 356: 1420 1421 1422 1423
# cell 357: 1424 1425 1426 1427
# cell 358: 1428 1429 1430 1431
# cell 359: 1432 1433 1434 1435
# cell 360: 1436 1437 1438 1439
# cell 361: 1440 1441 1442 1443
# cell 362: 1444 1445 1446 1447
# cell 363: 1448 1449 1450 1451
# cell 364: 1452 1453 1454 1455
# cell 365: 1456 1457 1458 1459
# cell 366: 1460 1461 1462 1463
# cell 367: 1464 1465 1466 1467
# cell 368: 1468 1469 1470 1471
# cell 369: 1472 1473 1474 1475
# cell 370: 1476 1477 1478 1479
# cell 371: 1480 1481 1482 1483
# cell 372: 1484 1485 1486 1487
# cell 373: 1488 1489 1490 1491
# cell 374: 1492 1493 1494 1495
# cell 375: 1496 1497 1498 1499
# cell 376: 1500 1501 1502 1503
# cell 377: 1504 1505 1506 1507
# cell 378: 1508 1509 1510 1511
# cell 379: 1512 1513 1514 1515
# cell 380: 1516 1517 1518 1519
# cell 381: 1520 1521 1522 1523
# cell 382: 1524 1525 1526 1527
# cell 383: 1528 1529 1530 1531
# cell 384: 1532 1533 1534 1535
# cell 385: 1536 1537 1538 1539
# cell 386: 1540 1541 1542 1543
# cell 387: 1544 1545 1546 1547
# cell 388: 1548 1549 1550 1551
# cell 389: 1552 1553 1554 1555
# cell 390: 1556 1557 1558 1559
# cell 391: 1560 1561 1562 1563
# cell 392: 1564 1565 1566 1567
# cell 393: 1568 1569 1570 1571
# cell 394: 1572 1573 1574 1575
# cell 395: 1576 1577 1578 1579
# cell 396: 1580 1581 1582 1583
# cell 397: 1584 1585 1586 1587
# cell 398: 1588 1589 1590 1591
# cell 399: 1592 1593 1594 1595
# cell 400: 1596 1597 1598 1599
# cell 401: 1600 1601 1602 1603
# cell 402: 1604 1605 1606 1607
# cell 403: 1608 1609 1610 1611
# cell 404: 1612 1613 1614 1615
# cell 405: 1616 1617 1618 1619
# cell 406: 1620 1621 1622 1623
# cell 407: 1624 1625 1626 1627
# cell 408: 1628 1629 1630 1631
# cell 409: 1632 1633 1634 1635
# cell 410: 1636 1637 1638 1639
# cell 411: 1640 1641 1642 1643
# cell 412: 1644 1645 1646 1647
# cell 413: 1648 1649 1650 1651
# cell 414: 1652 1653 1654 1655
# cell 415: 1656 1657 1658 1659
# cell 416: 1660 1661 1662 1663
# cell 417: 1664 1665 1666 1667
# cell 418: 1668 1669 1670 1671
# cell 419: 1672 1673 1674 1675
# cell 420: 1676 1677 1678 1679
# cell 421: 1680 1681 1682 1683
# cell 422: 1684 1685 1686 1687
# cell 423: 1688 1689 1690 1691
# cell 424: 1692 1693 1694 1695
# cell 425: 1696 1697 1698 1699
# cell 426: 1700 1701 1702 1703
# cell 427: 1704 1705 1706 1707
# cell 428: 1708 1709 1710 1711
# cell 429: 1712 1713 1714 1715
# cell 430: 1716 1717 1718 1719
# cell 431: 1720 1721 1722 1723
# cell 432: 1724 1725 1726 1727
# cell 433: 1728 1729 1730 1731
# cell 434: 1732 1733 1734 1735
# cell 435: 1736 1737 1738 1739
# cell 436: 1740 1741 1742 1743
# cell 437: 1744 1745 1746 1747
# cell 438: 1748 1749 1750 1751
# cell 439: 1752 1753 1754 1755
# cell 440: 1756 1757 1758 1759
# cell 441: 1760 1761 1762 1763
# cell 442: 1764 1765 1766 1767
# cell 443: 1768 1769 1770 1771
# cell 444: 1772 1773 1774 1775
# cell 445: 1776 1777 1778 1779
# cell 446: 1780 1781 1782 1783
# cell 447: 1784 1785 1786 1787
# cell 448: 1788 1789 1790 1791
# cell 449: 1792 1793 1794 1795
# cell 450: 1796 1797 1798 1799
# cell 451: 1800 1801 1802 1803
# cell 452: 1804 1805 1806 1807
# cell 453: 1808 1809 1810 1811
# cell 454: 1812 1813 1814 1815
# cell 455: 1816 1817 1818 1819
# cell 456: 1820 1821 1822 1823
# cell 457: 1824 1825 1826 1827
# cell 458: 1828 1829 1830 1831
# cell 459: 1832 1833 1834 1835
# cell 460: 1836 1837 1838 1839
# cell 461: 1840 1841 1842 1843
# cell 462: 1844 1845 1846 1847
# cell 463: 1848 1849 1850 1851
# cell 464: 1852 1853 1854 1855
# cell 465: 1856 1857 1858 1859
# cell 466: 1860 1861 1862 1863
# cell 467: 1864 1865 1866 1867
# cell 468: 1868 1869 1870 1871
# cell 469: 1872 1873 1874 1875
# cell 470: 1876 1877 1878 1879
# cell 471: 1880 1881 1882 1883
# cell 472: 1884 1885 1886 1887
# cell 473: 1888 1889 1890 1891
# cell 474: 1892 1893 1894 1895
# cell 475: 1896 1897 1898 1899
# cell 476: 1900 1901 1902 1903
# cell 477: 1904 1905 1906 1907
# cell 478: 1908 1909 1910 1911
# cell 479: 1912 1913 1914 1915
# cell 480: 1916 1917 1918 1919
# cell 481: 1920 1921 1922 1923
# cell 482: 1924 1925 1926 1927
# cell 483: 1928 1929 1930 1931
# cell 484: 1932 1933 1934 1935
# cell 485: 1936 1937 1938 1939
# cell 486: 1940 1941 1942 1943
# cell 487: 1944 1945 1946 1947
# cell 488: 1948 1949 1950 1951
# cell 489: 1952 1953 1954 1955
# cell 490: 1956 1957 1958 1959
# cell 491: 1960 1961 1962 1963
# cell 492: 1964 1965 1966 1967
# cell 493: 1968 1969 1970 1971
# cell 494: 1972 1973 1974 1975
# cell 495: 1976 1977 1978 1979
# cell 496: 1980 1981 1982 1983
# cell 497: 1984 1985 1986 1987
# cell 498: 1988 1989 1990 1991
# cell 499: 1992 1993 1994 1995
# cell 500: 1996 1997 1998 1999
# cell 501: 2000 2001 2002 2003
# cell 502: 2004 2005 2006 2007
# cell 503: 2008 2009 2010 2011
# cell 504: 2012 2013 2014 2015
# cell 505: 2016 2017 2018 2019
# cell 506: 2020 2021 2022 2023
# cell 507: 2024 2025 2026 2027
# cell 508: 2028 2029 2030 2031
# cell 509: 2032 2033 2034 2035
# cell 510: 2036 2037 2038 2039
# cell 511: 2040 2041 2042 2043
# cell 512: 2044 2045 2046 2047
# cell 513: 2048 2049 2050 2051
# cell 514: 2052 2053 2054 2055
# cell 515: 2056 2057 2058 2059
# cell 516: 2060 2061 2062 2063
# cell 517: 2064 2065 2066 2067
# cell 518: 2068 2069 2070 2071
# cell 519: 2072 2073 2074 2075
# cell 520: 2076 2077 2078 2079
# cell 521: 2080 2081 2082 2083
# cell 522: 2084 2085 2086 2087
# cell 523: 2088 2089 2090 2091
# cell 524: 2092 2093 2094 2095
# cell 525: 2096 2097 2098 2099
# cell 526: 2100 2101 2102 2103
# cell 527: 2104 2105 2106 2107
# cell 528: 2108 2109 2110 2111
# cell 529: 2112 2113 2114 2115
# cell 530: 2116 2117 2118 2119
# cell 531: 2120 2121 2122 2123
# cell 532: 2124 2125 2126 2127
# cell 533: 2128 2129 2130 2131
# cell 534: 2132 2133 2134 2135
# cell 535: 2136 2137 2138 2139
# cell 536: 2140 2141 2142 2143
# cell 537: 2144 2145 2146 2147
# cell 538: 2148 2149 2150 2151
# cell 539: 2152 2153 2154 2155
# cell 540: 2156 2157 2158 2159
# cell 541: 2160 2161 2162 2163
# cell 542: 2164 2165 2166 2167
# cell 543: 2168 2169 2170 2171
# cell 544: 2172 2173 2174 2175
# cell 545: 2176 2177 2178 2179
# cell 546: 2180 2181 2182 2183
# cell 547: 2184 2185 2186 2187
# cell 548: 2188 2189 2190 2191
# cell 549: 2192 2193 2194 2195
# cell 550: 2196 2197 2198 2199
# cell 551: 2200 2201 2202 2203
# cell 552: 2204 2205 2206 2207
# cell 553: 2208 2209 2210 2211
# cell 554: 2212 2213 2214 2215
# cell 555: 2216 2217 2218 2219
# cell 556: 2220 2221 2222 2223
# cell 557: 2224 2225 2226 2227
# cell 558: 2228 2229 2230 2231
# cell 559: 2232 2233 2234 2235
# cell 560: 2236 2237 2238 2239
# cell 561: 2240 2241 2242 2243
# cell 562: 2244 2245 2246 2247
# cell 563: 2248 2249 2250 2251
# cell 564: 2252 2253 2254 2255
# cell 565: 2256 2257 2258 2259
# cell 566: 2260 2261 2262 2263
# cell 567: 2264 2265 2266 2267
# cell 568: 2268 2269 2270 2271
# cell 569: 2272 2273 2274 2275
# cell 570: 2276 2277 2278 2279
# cell 571: 2280 2281 2282 2283
# cell 572: 2284 2285 2286 2287
# cell 573: 2288 2289 2290 2291
# cell 574: 2292 2293 2294 2295
# cell 575: 2296 2297 2298 2299
# cell 576: 2300 2301 2302 2303
# cell 577: 2304 2305 2306 2307
# cell 578: 2308 2309 2310 2311
# cell 579: 2312 2313 2314 2315
# cell 580: 2316 2317 2318 2319
# cell 581: 2320 2321 2322 2323
# cell 582: 2324 2325 2326 2327
# cell 583: 2328 2329 2330 2331
# cell 584: 2332 2333 2334 2335
# cell 585: 2336 2337 2338 2339
# cell 586: 2340 2341 2342 2343
# cell 587: 2344 2345 2346 2347
# cell 588: 2348 2349 2350 2351
# cell 589: 2352 2353 2354 2355
# cell 590: 2356 2357 2358 2359
# cell 591: 2360 2361 2362 2363
# cell 592: 2364 2365 2366 2367
# cell 593: 2368 2369 2370 2371
# cell 594: 2372 2373 2374 2375
# cell 595: 2376 2377 2378 2379
# cell 596: 2380 2381 2382 2383
# cell 597: 2384 2385 2386 2387
# cell 598: 2388 2389 2390 2391
# cell 599: 2392 2393 2394 2395
# cell 600: 2396 2397 2398 2399