OFF
# face-rotation BFS net; polygonal faces are preserved
# the cell decomposition is listed below as comments
33 56 0
-0.7071067811865476 0. 0.
0. 0. -0.7071067811865476
0. 0.7071067811865476 0.
0. -0.7071067811865476 0.
0.7071067811865476 0. 0.
0. 0. 0.7071067811865476
-1.2844570503761734 0.5773502691896256 -0.5773502691896255
-0.577350269189626 0.5773502691896256 -1.2844570503761732
-0.5773502691896261 1.2844570503761734 -0.5773502691896257
-1.5201593107716893 0.813052529585141 -1.5201593107716889
-0.813052529585142 1.5201593107716889 -1.520159310771689
-1.5201593107716895 1.5201593107716889 -0.8130525295851414
-1.2844570503761734 -0.5773502691896257 -0.5773502691896257
-0.5773502691896258 -1.2844570503761732 -0.5773502691896257
-0.5773502691896258 -0.5773502691896257 -1.2844570503761732
0.5773502691896258 -0.5773502691896257 -1.2844570503761732
1.2844570503761734 -0.5773502691896257 -0.5773502691896257
0.5773502691896258 -1.2844570503761732 -0.5773502691896257
0.5773502691896257 1.2844570503761734 -0.5773502691896257
1.2844570503761734 0.5773502691896257 -0.5773502691896257
0.5773502691896258 0.5773502691896258 -1.2844570503761734
0.5773502691896257 1.2844570503761734 0.5773502691896257
1.2844570503761734 0.5773502691896257 0.5773502691896257
0.5773502691896258 0.5773502691896258 1.2844570503761734
-1.2844570503761734 0.5773502691896255 0.5773502691896257
-0.5773502691896257 0.5773502691896255 1.2844570503761734
-0.5773502691896258 1.2844570503761732 0.5773502691896258
0.5773502691896258 -0.5773502691896257 1.2844570503761732
1.2844570503761734 -0.5773502691896257 0.5773502691896257
0.5773502691896258 -1.2844570503761732 0.5773502691896257
-1.2844570503761734 -0.5773502691896257 0.5773502691896257
-0.5773502691896258 -1.2844570503761732 0.5773502691896257
-0.5773502691896258 -0.5773502691896257 1.2844570503761732
3 0 1 2
3 0 3 1
3 1 4 3
3 2 4 1
3 2 4 5
3 0 5 2
3 5 4 3
3 0 3 5
3 6 7 8
3 6 9 7
3 7 10 9
3 8 10 7
3 8 10 11
3 6 11 8
3 11 10 9
3 6 9 11
3 0 1 2
3 6 7 8
4 7 1 0 6
4 7 1 2 8
4 8 2 0 6
3 0 3 1
3 12 13 14
4 14 1 0 12
4 13 3 1 14
4 13 3 0 12
3 1 4 3
3 15 16 17
4 17 3 1 15
4 16 4 1 15
4 16 4 3 17
3 2 4 1
3 18 19 20
4 20 1 2 18
4 19 4 1 20
4 19 4 2 18
3 2 4 5
3 21 22 23
4 22 4 2 21
4 23 5 2 21
4 22 4 5 23
3 0 5 2
3 24 25 26
4 26 2 0 24
4 25 5 2 26
4 25 5 0 24
3 5 4 3
3 27 28 29
4 28 4 3 29
4 28 4 5 27
4 29 3 5 27
3 0 3 5
3 30 31 32
4 31 3 0 30
4 32 5 0 30
4 31 3 5 32
# cell 1: 0 1 2 3 4 5 6 7
# cell 2: 8 9 10 11 12 13 14 15
# cell 3: 16 17 18 19 20
# cell 4: 21 22 23 24 25
# cell 5: 26 27 28 29 30
# cell 6: 31 32 33 34 35
# cell 7: 36 37 38 39 40
# cell 8: 41 42 43 44 45
# cell 9: 46 47 48 49 50
# cell 10: 51 52 53 54 55