OFF
# face-rotation BFS net; polygonal faces are preserved
# the cell decomposition is listed below as comments
357 488 0
1.3090169943749475 0.8090169943749475 1.618033988749895
0.8090169943749473 1.618033988749895 1.3090169943749475
1.618033988749895 1.3090169943749475 0.8090169943749475
1.3090169943749475 0.8090169943749475 -1.618033988749895
0.8090169943749473 1.618033988749895 -1.3090169943749475
1.618033988749895 1.3090169943749475 -0.8090169943749475
1.3090169943749475 -1.8090169943749475 0.
0.49999999999999994 -2.118033988749895 0.5
0.49999999999999994 -2.118033988749895 -0.5
1.3090169943749475 1.8090169943749475 0.
0.49999999999999994 2.118033988749895 0.5
0.49999999999999994 2.118033988749895 -0.5
1.3090169943749475 -0.8090169943749475 1.618033988749895
0.8090169943749473 -1.618033988749895 1.3090169943749475
1.618033988749895 -1.3090169943749475 0.8090169943749475
1.3090169943749475 -0.8090169943749475 -1.618033988749895
0.8090169943749473 -1.618033988749895 -1.3090169943749475
1.618033988749895 -1.3090169943749475 -0.8090169943749475
-0.5000000000000001 0.5 -2.118033988749895
0.49999999999999994 0.5 -2.118033988749895
-7.401486830834377e-17 1.3090169943749475 -1.8090169943749475
-0.5000000000000001 0.5 2.118033988749895
0.49999999999999994 0.5 2.118033988749895
-7.401486830834377e-17 1.3090169943749475 1.8090169943749475
-0.5000000000000001 -0.5 -2.118033988749895
0.49999999999999994 -0.5 -2.118033988749895
-7.401486830834377e-17 -1.3090169943749475 -1.8090169943749475
-0.5000000000000001 -0.5 2.118033988749895
0.49999999999999994 -0.5 2.118033988749895
-7.401486830834377e-17 -1.3090169943749475 1.8090169943749475
-1.3090169943749475 0.8090169943749475 1.618033988749895
-0.8090169943749476 1.618033988749895 1.3090169943749475
-1.618033988749895 1.3090169943749475 0.8090169943749475
-1.3090169943749475 0.8090169943749475 -1.618033988749895
-0.8090169943749476 1.618033988749895 -1.3090169943749475
-1.618033988749895 1.3090169943749475 -0.8090169943749475
-1.3090169943749475 -1.8090169943749475 0.
-0.5000000000000001 -2.118033988749895 0.5
-0.5000000000000001 -2.118033988749895 -0.5
-1.3090169943749475 1.8090169943749475 0.
-0.5000000000000001 2.118033988749895 0.5
-0.5000000000000001 2.118033988749895 -0.5
-1.3090169943749475 -0.8090169943749475 1.618033988749895
-0.8090169943749476 -1.618033988749895 1.3090169943749475
-1.618033988749895 -1.3090169943749475 0.8090169943749475
-1.3090169943749475 -0.8090169943749475 -1.618033988749895
-0.8090169943749476 -1.618033988749895 -1.3090169943749475
-1.618033988749895 -1.3090169943749475 -0.8090169943749475
2.118033988749895 -0.5 -0.5
1.8090169943749475 0. -1.3090169943749475
2.118033988749895 0.5 -0.5
2.118033988749895 -0.5 0.5
1.8090169943749475 0. 1.3090169943749475
2.118033988749895 0.5 0.5
-1.8090169943749475 0. 1.3090169943749475
-2.118033988749895 0.5 0.5
-2.118033988749895 -0.5 0.5
-1.8090169943749475 0. -1.3090169943749475
-2.118033988749895 0.5 -0.5
-2.118033988749895 -0.5 -0.5
1.886367263564573 1.3863672635645734 2.195384257939521
1.386367263564573 2.1953842579395206 1.8863672635645738
2.195384257939521 1.8863672635645734 1.3863672635645738
4.0437459152311 3.5437459152311 1.116694932106259
3.131723256064503 3.940740250439451 1.0136892673146098
3.2740735837727843 2.965056589397837 0.8470226006479429
4.710412581897765 1.5923785931478724 3.40139558752282
4.313418246689414 1.6953842579395213 4.313418246689417
4.980084913356081 2.362050924606188 3.9800849133560834
2.29838992273117 2.79838992273117 0.9893729283562234
1.4893729283562223 3.1074069171061174 1.4893729283562231
2.156039595022889 3.774073583772784 1.15603959502289
2.965056589397836 0.8470226006479415 3.2740735837727843
3.543745915231099 1.116694932106258 4.0437459152311
3.9407402504394504 1.0136892673146085 3.131723256064504
5.1224352410643625 3.004401252314469 2.195384257939522
5.289101907731029 2.862050924606188 3.1710679189811364
5.019429576272714 2.0923785931478722 2.5923785931478727
3.980084913356081 4.980084913356083 2.362050924606189
4.313418246689415 4.313418246689416 1.6953842579395224
3.4013955875228183 4.710412581897767 1.5923785931478731
1.1560395950228877 2.1560395950228886 3.7740735837727843
1.4893729283562216 1.4893729283562223 3.1074069171061174
0.9893729283562216 2.2983899227311695 2.79838992273117
4.646751580022748 4.64675158002275 3.0287175912728554
4.980084913356082 3.980084913356083 2.362050924606189
5.146751580022748 3.8377345856478025 3.337734585647803
1.8227062616895542 1.8227062616895557 4.440740250439451
2.156039595022888 1.1560395950228892 3.7740735837727843
2.734728920856151 1.4257119264812053 4.5437459152311
1.0136892673146067 3.131723256064503 3.940740250439451
0.8470226006479407 3.274073583772784 2.965056589397837
1.1166949321062558 4.043745915231099 3.5437459152311
3.1710679189811333 5.28910190773103 2.8620509246061885
2.5923785931478704 5.019429576272714 2.0923785931478727
2.1953842579395193 5.1224352410643625 3.004401252314469
3.8377345856477993 3.337734585647802 5.14675158002275
3.9800849133560803 2.362050924606188 4.980084913356084
4.646751580022747 3.0287175912728546 4.64675158002275
1.4257119264812037 4.543745915231099 2.734728920856153
1.1560395950228883 3.7740735837727835 2.1560395950228894
1.8227062616895549 4.44074025043945 1.8227062616895566
2.0923785931478696 2.5923785931478713 5.019429576272715
3.0044012523144663 2.195384257939521 5.122435241064364
2.862050924606185 3.171067918981135 5.28910190773103
4.249757244814396 4.749757244814399 3.9407402504394518
4.749757244814396 3.9407402504394513 4.2497572448144
3.9407402504394486 4.249757244814399 4.7497572448144
4.44074025043945 1.8227062616895566 1.8227062616895569
4.543745915231099 2.734728920856153 1.4257119264812064
3.7740735837727843 2.1560395950228894 1.1560395950228903
3.7740735837727843 1.1560395950228897 2.15603959502289
2.79838992273117 0.9893729283562225 2.2983899227311704
3.107406917106118 1.4893729283562227 1.4893729283562234
1.5923785931478696 3.401395587522819 4.710412581897767
1.6953842579395186 4.313418246689415 4.313418246689416
2.362050924606185 3.980084913356082 4.980084913356083
3.3377345856478 5.146751580022749 3.8377345856478025
2.3620509246061854 4.980084913356082 3.9800849133560834
3.028717591272852 4.646751580022749 4.64675158002275
1.8863672635645727 1.386367263564573 -2.195384257939521
1.3863672635645725 2.1953842579395206 -1.8863672635645736
2.19538425793952 1.8863672635645732 -1.3863672635645738
1.6658390841480373 -2.7431893533376632 -3.766856000899561e-16
0.8568220897730897 -3.0522063477126107 0.49999999999999956
0.8568220897730896 -3.0522063477126102 -0.5000000000000003
1.6658390841480373 2.7431893533376632 -3.766856000899561e-16
0.8568220897730897 3.0522063477126107 0.49999999999999956
0.8568220897730896 3.0522063477126102 -0.5000000000000003
1.8863672635645727 -1.386367263564573 2.195384257939521
1.3863672635645725 -2.1953842579395206 1.8863672635645736
2.19538425793952 -1.8863672635645732 1.3863672635645738
1.8863672635645727 -1.386367263564573 -2.195384257939521
1.3863672635645725 -2.1953842579395206 -1.8863672635645736
2.19538425793952 -1.8863672635645732 -1.3863672635645738
-0.5000000000000001 0.8568220897730904 -3.0522063477126102
0.49999999999999994 0.8568220897730904 -3.0522063477126102
-8.982420351949893e-17 1.665839084148038 -2.7431893533376623
-0.5000000000000001 0.8568220897730904 3.0522063477126102
0.49999999999999994 0.8568220897730904 3.0522063477126102
-8.982420351949893e-17 1.665839084148038 2.7431893533376623
-0.5000000000000001 -0.8568220897730904 -3.0522063477126102
0.49999999999999994 -0.8568220897730904 -3.0522063477126102
-8.982420351949893e-17 -1.665839084148038 -2.7431893533376623
-0.5000000000000001 -0.8568220897730904 3.0522063477126102
0.49999999999999994 -0.8568220897730904 3.0522063477126102
-8.982420351949893e-17 -1.665839084148038 2.7431893533376623
-1.8863672635645727 1.3863672635645727 2.195384257939521
-1.3863672635645732 2.19538425793952 1.8863672635645736
-2.1953842579395206 1.8863672635645732 1.3863672635645736
-1.8863672635645727 1.3863672635645727 -2.195384257939521
-1.3863672635645732 2.19538425793952 -1.8863672635645736
-2.1953842579395206 1.8863672635645732 -1.3863672635645736
-1.6658390841480373 -2.7431893533376632 -5.063280578260568e-16
-0.8568220897730899 -3.0522063477126107 0.49999999999999956
-0.8568220897730897 -3.0522063477126102 -0.5000000000000006
-1.6658390841480373 2.7431893533376632 -5.063280578260568e-16
-0.8568220897730899 3.0522063477126107 0.49999999999999956
-0.8568220897730897 3.0522063477126102 -0.5000000000000006
-1.8863672635645727 -1.3863672635645727 2.195384257939521
-1.3863672635645732 -2.19538425793952 1.8863672635645736
-2.1953842579395206 -1.8863672635645732 1.3863672635645736
-1.8863672635645727 -1.3863672635645727 -2.195384257939521
-1.3863672635645732 -2.19538425793952 -1.8863672635645736
-2.1953842579395206 -1.8863672635645732 -1.3863672635645736
3.0522063477126107 -0.4999999999999996 -0.8568220897730896
2.7431893533376632 4.3652196805906955e-16 -1.665839084148037
3.0522063477126102 0.5000000000000004 -0.8568220897730894
3.0522063477126107 -0.4999999999999996 0.8568220897730896
2.7431893533376632 4.3652196805906955e-16 1.665839084148037
3.0522063477126102 0.5000000000000004 0.8568220897730894
-2.7431893533376632 -4.285425831843964e-16 1.6658390841480373
-3.0522063477126107 0.4999999999999996 0.8568220897730898
-3.0522063477126102 -0.5000000000000004 0.8568220897730896
-2.7431893533376632 -4.285425831843964e-16 -1.6658390841480373
-3.0522063477126107 0.4999999999999996 -0.8568220897730898
-3.0522063477126102 -0.5000000000000004 -0.8568220897730896
2.1180339887498945 1.118033988749895 2.118033988749895
2.6180339887498945 0.30901699437494756 1.8090169943749475
2.927050983124842 0.8090169943749475 1.
2.427050983124842 1.618033988749895 1.3090169943749475
1.618033988749895 1.3090169943749477 2.427050983124843
0.8090169943749475 1.0000000000000002 2.927050983124843
0.30901699437494734 1.8090169943749475 2.6180339887498953
1.118033988749895 2.118033988749895 2.1180339887498953
1.618033988749895 1.3090169943749477 -2.427050983124843
0.8090169943749475 1.0000000000000002 -2.927050983124843
0.30901699437494734 1.8090169943749475 -2.6180339887498953
1.118033988749895 2.118033988749895 -2.1180339887498953
2.1180339887498945 1.118033988749895 -2.118033988749895
2.6180339887498945 0.30901699437494756 -1.8090169943749475
2.927050983124842 0.8090169943749475 -1.
2.427050983124842 1.618033988749895 -1.3090169943749475
1.8090169943749475 -2.6180339887498945 -0.30901699437494756
0.9999999999999998 -2.9270509831248424 -0.8090169943749476
1.3090169943749472 -2.427050983124842 -1.618033988749895
2.118033988749895 -2.1180339887498945 -1.118033988749895
1.8090169943749475 -2.6180339887498945 0.30901699437494756
0.9999999999999998 -2.9270509831248424 0.8090169943749476
1.3090169943749472 -2.427050983124842 1.618033988749895
2.118033988749895 -2.1180339887498945 1.118033988749895
1.8090169943749475 2.6180339887498945 0.30901699437494756
0.9999999999999998 2.9270509831248424 0.8090169943749476
1.3090169943749472 2.427050983124842 1.618033988749895
2.118033988749895 2.1180339887498945 1.118033988749895
1.8090169943749475 2.6180339887498945 -0.30901699437494756
0.9999999999999998 2.9270509831248424 -0.8090169943749476
1.3090169943749472 2.427050983124842 -1.618033988749895
2.118033988749895 2.1180339887498945 -1.118033988749895
1.618033988749895 -1.3090169943749477 2.427050983124843
0.8090169943749475 -1.0000000000000002 2.927050983124843
0.30901699437494734 -1.8090169943749475 2.6180339887498953
1.118033988749895 -2.118033988749895 2.1180339887498953
2.1180339887498945 -1.118033988749895 2.118033988749895
2.6180339887498945 -0.30901699437494756 1.8090169943749475
2.927050983124842 -0.8090169943749475 1.
2.427050983124842 -1.618033988749895 1.3090169943749475
2.1180339887498945 -1.118033988749895 -2.118033988749895
2.6180339887498945 -0.30901699437494756 -1.8090169943749475
2.927050983124842 -0.8090169943749475 -1.
2.427050983124842 -1.618033988749895 -1.3090169943749475
1.618033988749895 -1.3090169943749477 -2.427050983124843
0.8090169943749475 -1.0000000000000002 -2.927050983124843
0.30901699437494734 -1.8090169943749475 -2.6180339887498953
1.118033988749895 -2.118033988749895 -2.1180339887498953
-1.118033988749895 2.118033988749895 -2.1180339887498953
-0.30901699437494756 1.8090169943749475 -2.6180339887498953
-0.8090169943749476 1. -2.927050983124843
-1.618033988749895 1.3090169943749475 -2.427050983124843
-1.118033988749895 2.118033988749895 2.1180339887498953
-0.30901699437494756 1.8090169943749475 2.6180339887498953
-0.8090169943749476 1. 2.927050983124843
-1.618033988749895 1.3090169943749475 2.427050983124843
-1.118033988749895 -2.118033988749895 -2.1180339887498953
-0.30901699437494756 -1.8090169943749475 -2.6180339887498953
-0.8090169943749476 -1. -2.927050983124843
-1.618033988749895 -1.3090169943749475 -2.427050983124843
-1.118033988749895 -2.118033988749895 2.1180339887498953
-0.30901699437494756 -1.8090169943749475 2.6180339887498953
-0.8090169943749476 -1. 2.927050983124843
-1.618033988749895 -1.3090169943749475 2.427050983124843
-2.1180339887498945 1.118033988749895 2.118033988749895
-2.427050983124842 1.618033988749895 1.3090169943749475
-2.927050983124842 0.8090169943749475 1.
-2.6180339887498945 0.30901699437494756 1.8090169943749475
-2.1180339887498945 1.118033988749895 -2.118033988749895
-2.427050983124842 1.618033988749895 -1.3090169943749475
-2.927050983124842 0.8090169943749475 -1.
-2.6180339887498945 0.30901699437494756 -1.8090169943749475
-1.8090169943749475 -2.618033988749895 -0.30901699437494745
-1.0000000000000002 -2.9270509831248424 -0.8090169943749475
-1.3090169943749477 -2.4270509831248424 -1.618033988749895
-2.118033988749895 -2.118033988749895 -1.118033988749895
-1.8090169943749475 -2.618033988749895 0.30901699437494745
-1.0000000000000002 -2.9270509831248424 0.8090169943749475
-1.3090169943749477 -2.4270509831248424 1.618033988749895
-2.118033988749895 -2.118033988749895 1.118033988749895
-1.8090169943749475 2.618033988749895 0.30901699437494745
-1.0000000000000002 2.9270509831248424 0.8090169943749475
-1.3090169943749477 2.4270509831248424 1.618033988749895
-2.118033988749895 2.118033988749895 1.118033988749895
-1.8090169943749475 2.618033988749895 -0.30901699437494745
-1.0000000000000002 2.9270509831248424 -0.8090169943749475
-1.3090169943749477 2.4270509831248424 -1.618033988749895
-2.118033988749895 2.118033988749895 -1.118033988749895
-2.1180339887498945 -1.118033988749895 2.118033988749895
-2.427050983124842 -1.618033988749895 1.3090169943749475
-2.927050983124842 -0.8090169943749475 1.
-2.6180339887498945 -0.30901699437494756 1.8090169943749475
-2.1180339887498945 -1.118033988749895 -2.118033988749895
-2.427050983124842 -1.618033988749895 -1.3090169943749475
-2.927050983124842 -0.8090169943749475 -1.
-2.6180339887498945 -0.30901699437494756 -1.8090169943749475
3.118033988749895 -0.5 0.5
3.118033988749895 0.5 0.5
3.118033988749895 0.5 -0.5
3.118033988749895 -0.5 -0.5
-0.5000000000000001 3.118033988749895 0.5
0.49999999999999994 3.118033988749895 0.5
0.49999999999999994 3.118033988749895 -0.5
-0.5000000000000001 3.118033988749895 -0.5
-0.5000000000000001 0.5 3.118033988749895
0.49999999999999994 0.5 3.118033988749895
0.49999999999999994 -0.5 3.118033988749895
-0.5000000000000001 -0.5 3.118033988749895
-0.5000000000000001 0.5 -3.118033988749895
0.49999999999999994 0.5 -3.118033988749895
0.49999999999999994 -0.5 -3.118033988749895
-0.5000000000000001 -0.5 -3.118033988749895
-0.5000000000000001 -3.118033988749895 0.5
0.49999999999999994 -3.118033988749895 0.5
0.49999999999999994 -3.118033988749895 -0.5
-0.5000000000000001 -3.118033988749895 -0.5
-3.118033988749895 -0.5 0.5
-3.118033988749895 0.5 0.5
-3.118033988749895 0.5 -0.5
-3.118033988749895 -0.5 -0.5
2.3347481064940814 -5.4109999186797663e-17 2.1596678027269878
1.834748106494081 0.8090169943749475 2.4686847971019352
1.0257311121191335 0.5 2.9686847971019352
1.0257311121191335 -0.5 2.9686847971019352
1.834748106494081 -0.8090169943749475 2.4686847971019352
2.3347481064940814 -5.4109999186797663e-17 -2.1596678027269878
1.834748106494081 0.8090169943749475 -2.4686847971019352
1.0257311121191335 0.5 -2.9686847971019352
1.0257311121191335 -0.5 -2.9686847971019352
1.834748106494081 -0.8090169943749475 -2.4686847971019352
2.9686847971019352 -1.0257311121191335 -0.5
2.9686847971019352 -1.0257311121191335 0.5
2.468684797101935 -1.834748106494081 0.8090169943749475
2.1596678027269873 -2.334748106494081 -1.0606802932511546e-17
2.468684797101935 -1.834748106494081 -0.8090169943749475
2.9686847971019352 1.0257311121191335 -0.5
2.9686847971019352 1.0257311121191335 0.5
2.468684797101935 1.834748106494081 0.8090169943749475
2.1596678027269873 2.334748106494081 -1.0606802932511546e-17
2.468684797101935 1.834748106494081 -0.8090169943749475
-0.8090169943749476 2.468684797101935 -1.834748106494081
-0.5000000000000001 2.9686847971019352 -1.0257311121191335
0.49999999999999994 2.9686847971019352 -1.0257311121191335
0.8090169943749473 2.468684797101935 -1.834748106494081
-2.505273594567665e-17 2.1596678027269873 -2.334748106494081
-0.8090169943749476 2.468684797101935 1.834748106494081
-0.5000000000000001 2.9686847971019352 1.0257311121191335
0.49999999999999994 2.9686847971019352 1.0257311121191335
0.8090169943749473 2.468684797101935 1.834748106494081
-2.505273594567665e-17 2.1596678027269873 2.334748106494081
-0.8090169943749476 -2.468684797101935 -1.834748106494081
-0.5000000000000001 -2.9686847971019352 -1.0257311121191335
0.49999999999999994 -2.9686847971019352 -1.0257311121191335
0.8090169943749473 -2.468684797101935 -1.834748106494081
-2.505273594567665e-17 -2.1596678027269873 -2.334748106494081
-0.8090169943749476 -2.468684797101935 1.834748106494081
-0.5000000000000001 -2.9686847971019352 1.0257311121191335
0.49999999999999994 -2.9686847971019352 1.0257311121191335
0.8090169943749473 -2.468684797101935 1.834748106494081
-2.505273594567665e-17 -2.1596678027269873 2.334748106494081
-2.3347481064940814 -5.4109999186797663e-17 2.1596678027269878
-1.834748106494081 0.8090169943749475 2.4686847971019352
-1.0257311121191337 0.5 2.9686847971019352
-1.0257311121191337 -0.5 2.968684797101935
-1.834748106494081 -0.8090169943749475 2.4686847971019352
-2.3347481064940814 -5.4109999186797663e-17 -2.1596678027269878
-1.834748106494081 0.8090169943749475 -2.4686847971019352
-1.0257311121191337 0.5 -2.9686847971019352
-1.0257311121191337 -0.5 -2.968684797101935
-1.834748106494081 -0.8090169943749475 -2.4686847971019352
-2.9686847971019352 -1.0257311121191335 -0.5
-2.9686847971019352 -1.0257311121191335 0.5
-2.468684797101935 -1.834748106494081 0.8090169943749475
-2.1596678027269873 -2.334748106494081 -1.0606802932511546e-17
-2.468684797101935 -1.834748106494081 -0.8090169943749475
-2.9686847971019352 1.0257311121191335 -0.5
-2.9686847971019352 1.0257311121191335 0.5
-2.468684797101935 1.834748106494081 0.8090169943749475
-2.1596678027269873 2.334748106494081 -1.0606802932511546e-17
-2.468684797101935 1.834748106494081 -0.8090169943749475
3 0 1 2
3 3 4 5
3 6 7 8
3 9 10 11
3 12 13 14
3 15 16 17
3 18 19 20
3 21 22 23
3 24 25 26
3 27 28 29
3 30 31 32
3 33 34 35
3 36 37 38
3 39 40 41
3 42 43 44
3 45 46 47
3 48 49 50
3 51 52 53
3 54 55 56
3 57 58 59
4 0 52 53 2
4 0 22 23 1
4 3 19 20 4
4 3 49 50 5
4 6 8 16 17
4 6 7 13 14
4 9 10 1 2
4 9 11 4 5
4 12 28 29 13
4 12 52 51 14
4 15 49 48 17
4 15 25 26 16
4 34 20 18 33
4 31 23 21 30
4 46 26 24 45
4 43 29 27 42
4 30 32 55 54
4 33 35 58 57
4 36 38 46 47
4 36 37 43 44
4 39 40 31 32
4 39 41 34 35
4 42 44 56 54
4 45 47 59 57
4 51 53 50 48
4 40 10 11 41
4 21 22 28 27
4 18 19 25 24
4 37 7 8 38
4 56 55 58 59
5 52 0 22 28 12
5 49 3 19 25 15
5 48 51 14 6 17
5 50 53 2 9 5
5 34 41 11 4 20
5 31 40 10 1 23
5 46 38 8 16 26
5 43 37 7 13 29
5 54 30 21 27 42
5 57 33 18 24 45
5 59 56 44 36 47
5 58 55 32 39 35
3 60 61 62
3 63 64 65
3 66 67 68
3 69 70 71
3 72 73 74
3 75 76 77
3 78 79 80
3 81 82 83
3 84 85 86
3 87 88 89
3 90 91 92
3 93 94 95
3 96 97 98
3 99 100 101
3 102 103 104
3 105 106 107
3 108 109 110
3 111 112 113
3 114 115 116
3 117 118 119
4 60 112 113 62
4 60 82 83 61
4 63 79 80 64
4 63 109 110 65
4 66 68 76 77
4 66 67 73 74
4 69 70 61 62
4 69 71 64 65
4 72 88 89 73
4 72 112 111 74
4 75 109 108 77
4 75 85 86 76
4 94 80 78 93
4 91 83 81 90
4 106 86 84 105
4 103 89 87 102
4 90 92 115 114
4 93 95 118 117
4 96 98 106 107
4 96 97 103 104
4 99 100 91 92
4 99 101 94 95
4 102 104 116 114
4 105 107 119 117
4 111 113 110 108
4 100 70 71 101
4 81 82 88 87
4 78 79 85 84
4 97 67 68 98
4 116 115 118 119
5 112 60 82 88 72
5 109 63 79 85 75
5 108 111 74 66 77
5 110 113 62 69 65
5 94 101 71 64 80
5 91 100 70 61 83
5 106 98 68 76 86
5 103 97 67 73 89
5 114 90 81 87 102
5 117 93 78 84 105
5 119 116 104 96 107
5 118 115 92 99 95
3 0 1 2
3 60 61 62
4 62 2 0 60
4 61 1 0 60
4 61 1 2 62
3 3 4 5
3 120 121 122
4 121 4 3 120
4 122 5 3 120
4 121 4 5 122
3 6 7 8
3 123 124 125
4 125 8 6 123
4 124 7 6 123
4 124 7 8 125
3 9 10 11
3 126 127 128
4 127 10 9 126
4 128 11 9 126
4 127 10 11 128
3 12 13 14
3 129 130 131
4 130 13 14 131
4 130 13 12 129
4 131 14 12 129
3 15 16 17
3 132 133 134
4 133 16 17 134
4 134 17 15 132
4 133 16 15 132
3 18 19 20
3 135 136 137
4 136 19 20 137
4 137 20 18 135
4 136 19 18 135
3 21 22 23
3 138 139 140
4 139 22 23 140
4 140 23 21 138
4 139 22 21 138
3 24 25 26
3 141 142 143
4 142 25 26 143
4 143 26 24 141
4 142 25 24 141
3 27 28 29
3 144 145 146
4 145 28 29 146
4 146 29 27 144
4 145 28 27 144
3 30 31 32
3 147 148 149
4 148 31 30 147
4 149 32 30 147
4 148 31 32 149
3 33 34 35
3 150 151 152
4 151 34 33 150
4 152 35 33 150
4 151 34 35 152
3 36 37 38
3 153 154 155
4 155 38 36 153
4 154 37 36 153
4 154 37 38 155
3 39 40 41
3 156 157 158
4 157 40 39 156
4 158 41 39 156
4 157 40 41 158
3 42 43 44
3 159 160 161
4 160 43 42 159
4 160 43 44 161
4 161 44 42 159
3 45 46 47
3 162 163 164
4 163 46 45 162
4 163 46 47 164
4 164 47 45 162
3 48 49 50
3 165 166 167
4 166 49 50 167
4 166 49 48 165
4 167 50 48 165
3 51 52 53
3 168 169 170
4 169 52 53 170
4 169 52 51 168
4 170 53 51 168
3 54 55 56
3 171 172 173
4 172 55 54 171
4 173 56 54 171
4 172 55 56 173
3 57 58 59
3 174 175 176
4 175 58 57 174
4 176 59 57 174
4 175 58 59 176
4 0 52 53 2
4 177 178 179 180
4 180 2 0 177
4 178 52 53 179
4 178 52 0 177
4 180 2 53 179
4 0 22 23 1
4 181 182 183 184
4 184 1 0 181
4 182 22 23 183
4 182 22 0 181
4 183 23 1 184
4 3 19 20 4
4 185 186 187 188
4 188 4 3 185
4 186 19 20 187
4 186 19 3 185
4 187 20 4 188
4 3 49 50 5
4 189 190 191 192
4 192 5 3 189
4 190 49 50 191
4 190 49 3 189
4 192 5 50 191
4 6 8 16 17
4 193 194 195 196
4 194 8 6 193
4 195 16 17 196
4 196 17 6 193
4 194 8 16 195
4 6 7 13 14
4 197 198 199 200
4 198 7 6 197
4 199 13 14 200
4 200 14 6 197
4 198 7 13 199
4 9 10 1 2
4 201 202 203 204
4 203 1 2 204
4 202 10 9 201
4 204 2 9 201
4 202 10 1 203
4 9 11 4 5
4 205 206 207 208
4 207 4 5 208
4 206 11 9 205
4 208 5 9 205
4 206 11 4 207
4 12 28 29 13
4 209 210 211 212
4 212 13 12 209
4 210 28 29 211
4 210 28 12 209
4 211 29 13 212
4 12 52 51 14
4 213 214 215 216
4 216 14 12 213
4 214 52 51 215
4 214 52 12 213
4 216 14 51 215
4 15 49 48 17
4 217 218 219 220
4 220 17 15 217
4 218 49 48 219
4 218 49 15 217
4 220 17 48 219
4 15 25 26 16
4 221 222 223 224
4 224 16 15 221
4 222 25 26 223
4 222 25 15 221
4 223 26 16 224
4 34 20 18 33
4 225 226 227 228
4 226 20 18 227
4 225 34 33 228
4 226 20 34 225
4 227 18 33 228
4 31 23 21 30
4 229 230 231 232
4 230 23 21 231
4 229 31 30 232
4 230 23 31 229
4 231 21 30 232
4 46 26 24 45
4 233 234 235 236
4 234 26 24 235
4 233 46 45 236
4 234 26 46 233
4 235 24 45 236
4 43 29 27 42
4 237 238 239 240
4 238 29 27 239
4 237 43 42 240
4 238 29 43 237
4 239 27 42 240
4 30 32 55 54
4 241 242 243 244
4 242 32 30 241
4 243 55 54 244
4 241 30 54 244
4 242 32 55 243
4 33 35 58 57
4 245 246 247 248
4 246 35 33 245
4 247 58 57 248
4 245 33 57 248
4 246 35 58 247
4 36 38 46 47
4 249 250 251 252
4 250 38 36 249
4 251 46 47 252
4 250 38 46 251
4 252 47 36 249
4 36 37 43 44
4 253 254 255 256
4 254 37 36 253
4 255 43 44 256
4 254 37 43 255
4 256 44 36 253
4 39 40 31 32
4 257 258 259 260
4 259 31 32 260
4 258 40 39 257
4 258 40 31 259
4 260 32 39 257
4 39 41 34 35
4 261 262 263 264
4 263 34 35 264
4 262 41 39 261
4 262 41 34 263
4 264 35 39 261
4 42 44 56 54
4 265 266 267 268
4 266 44 42 265
4 267 56 54 268
4 265 42 54 268
4 266 44 56 267
4 45 47 59 57
4 269 270 271 272
4 270 47 45 269
4 271 59 57 272
4 269 45 57 272
4 270 47 59 271
4 51 53 50 48
4 273 274 275 276
4 275 50 48 276
4 274 53 51 273
4 273 51 48 276
4 274 53 50 275
4 40 10 11 41
4 277 278 279 280
4 278 10 11 279
4 277 40 41 280
4 279 11 41 280
4 278 10 40 277
4 21 22 28 27
4 281 282 283 284
4 282 22 21 281
4 283 28 27 284
4 282 22 28 283
4 281 21 27 284
4 18 19 25 24
4 285 286 287 288
4 286 19 18 285
4 287 25 24 288
4 286 19 25 287
4 285 18 24 288
4 37 7 8 38
4 289 290 291 292
4 290 7 8 291
4 289 37 38 292
4 291 8 38 292
4 290 7 37 289
4 56 55 58 59
4 293 294 295 296
4 294 55 56 293
4 295 58 59 296
4 293 56 59 296
4 294 55 58 295
5 52 0 22 28 12
5 297 298 299 300 301
4 297 52 0 298
4 299 22 0 298
4 300 28 12 301
4 297 52 12 301
4 299 22 28 300
5 49 3 19 25 15
5 302 303 304 305 306
4 304 19 3 303
4 302 49 3 303
4 302 49 15 306
4 305 25 15 306
4 304 19 25 305
5 48 51 14 6 17
5 307 308 309 310 311
4 311 17 6 310
4 309 14 6 310
4 309 14 51 308
4 311 17 48 307
4 308 51 48 307
5 50 53 2 9 5
5 312 313 314 315 316
4 314 2 53 313
4 316 5 50 312
4 314 2 9 315
4 316 5 9 315
4 313 53 50 312
5 34 41 11 4 20
5 317 318 319 320 321
4 321 20 4 320
4 319 11 4 320
4 321 20 34 317
4 318 41 34 317
4 319 11 41 318
5 31 40 10 1 23
5 322 323 324 325 326
4 326 23 1 325
4 324 10 1 325
4 326 23 31 322
4 323 40 31 322
4 324 10 40 323
5 46 38 8 16 26
5 327 328 329 330 331
4 329 8 16 330
4 331 26 16 330
4 331 26 46 327
4 328 38 46 327
4 329 8 38 328
5 43 37 7 13 29
5 332 333 334 335 336
4 334 7 13 335
4 336 29 13 335
4 336 29 43 332
4 333 37 43 332
4 334 7 37 333
5 54 30 21 27 42
5 337 338 339 340 341
4 339 21 30 338
4 340 27 42 341
4 338 30 54 337
4 341 42 54 337
4 339 21 27 340
5 57 33 18 24 45
5 342 343 344 345 346
4 344 18 33 343
4 345 24 45 346
4 343 33 57 342
4 346 45 57 342
4 344 18 24 345
5 59 56 44 36 47
5 347 348 349 350 351
4 351 47 36 350
4 349 44 36 350
4 349 44 56 348
4 351 47 59 347
4 348 56 59 347
5 58 55 32 39 35
5 352 353 354 355 356
4 354 32 55 353
4 356 35 58 352
4 354 32 39 355
4 356 35 39 355
4 353 55 58 352
# cell 1: 0 1 2 3 4 5 6 7 8 9 10 11 12 13 14 15 16 17 18 19 20 21 22 23 24 25 26 27 28 29 30 31 32 33 34 35 36 37 38 39 40 41 42 43 44 45 46 47 48 49 50 51 52 53 54 55 56 57 58 59 60 61
# cell 2: 62 63 64 65 66 67 68 69 70 71 72 73 74 75 76 77 78 79 80 81 82 83 84 85 86 87 88 89 90 91 92 93 94 95 96 97 98 99 100 101 102 103 104 105 106 107 108 109 110 111 112 113 114 115 116 117 118 119 120 121 122 123
# cell 3: 124 125 126 127 128
# cell 4: 129 130 131 132 133
# cell 5: 134 135 136 137 138
# cell 6: 139 140 141 142 143
# cell 7: 144 145 146 147 148
# cell 8: 149 150 151 152 153
# cell 9: 154 155 156 157 158
# cell 10: 159 160 161 162 163
# cell 11: 164 165 166 167 168
# cell 12: 169 170 171 172 173
# cell 13: 174 175 176 177 178
# cell 14: 179 180 181 182 183
# cell 15: 184 185 186 187 188
# cell 16: 189 190 191 192 193
# cell 17: 194 195 196 197 198
# cell 18: 199 200 201 202 203
# cell 19: 204 205 206 207 208
# cell 20: 209 210 211 212 213
# cell 21: 214 215 216 217 218
# cell 22: 219 220 221 222 223
# cell 23: 224 225 226 227 228 229
# cell 24: 230 231 232 233 234 235
# cell 25: 236 237 238 239 240 241
# cell 26: 242 243 244 245 246 247
# cell 27: 248 249 250 251 252 253
# cell 28: 254 255 256 257 258 259
# cell 29: 260 261 262 263 264 265
# cell 30: 266 267 268 269 270 271
# cell 31: 272 273 274 275 276 277
# cell 32: 278 279 280 281 282 283
# cell 33: 284 285 286 287 288 289
# cell 34: 290 291 292 293 294 295
# cell 35: 296 297 298 299 300 301
# cell 36: 302 303 304 305 306 307
# cell 37: 308 309 310 311 312 313
# cell 38: 314 315 316 317 318 319
# cell 39: 320 321 322 323 324 325
# cell 40: 326 327 328 329 330 331
# cell 41: 332 333 334 335 336 337
# cell 42: 338 339 340 341 342 343
# cell 43: 344 345 346 347 348 349
# cell 44: 350 351 352 353 354 355
# cell 45: 356 357 358 359 360 361
# cell 46: 362 363 364 365 366 367
# cell 47: 368 369 370 371 372 373
# cell 48: 374 375 376 377 378 379
# cell 49: 380 381 382 383 384 385
# cell 50: 386 387 388 389 390 391
# cell 51: 392 393 394 395 396 397
# cell 52: 398 399 400 401 402 403
# cell 53: 404 405 406 407 408 409 410
# cell 54: 411 412 413 414 415 416 417
# cell 55: 418 419 420 421 422 423 424
# cell 56: 425 426 427 428 429 430 431
# cell 57: 432 433 434 435 436 437 438
# cell 58: 439 440 441 442 443 444 445
# cell 59: 446 447 448 449 450 451 452
# cell 60: 453 454 455 456 457 458 459
# cell 61: 460 461 462 463 464 465 466
# cell 62: 467 468 469 470 471 472 473
# cell 63: 474 475 476 477 478 479 480
# cell 64: 481 482 483 484 485 486 487