OFF
# face-rotation BFS net; polygonal faces are preserved
# the cell decomposition is listed below as comments
140 200 0
-0.5 0.5 1.2071067811865475
0.5 0.5 1.2071067811865475
0.5 -0.5 1.2071067811865475
-0.5 -0.5 1.2071067811865475
-0.5 0.5 -1.2071067811865475
0.5 0.5 -1.2071067811865475
0.5 -0.5 -1.2071067811865475
-0.5 -0.5 -1.2071067811865475
-1.2071067811865475 -0.5 0.5
-1.2071067811865475 0.5 0.5
-1.2071067811865475 0.5 -0.5
-1.2071067811865475 -0.5 -0.5
1.2071067811865475 -0.5 0.5
1.2071067811865475 0.5 0.5
1.2071067811865475 0.5 -0.5
1.2071067811865475 -0.5 -0.5
-0.5 1.2071067811865475 0.5
0.5 1.2071067811865475 0.5
0.5 1.2071067811865475 -0.5
-0.5 1.2071067811865475 -0.5
-0.5 -1.2071067811865475 0.5
0.5 -1.2071067811865475 0.5
0.5 -1.2071067811865475 -0.5
-0.5 -1.2071067811865475 -0.5
-0.5 0.5 2.2071067811865475
0.5 0.5 2.2071067811865475
0.5 -0.5 2.2071067811865475
-0.5 -0.5 2.2071067811865475
-0.5 0.5 4.621320343559642
0.5 0.5 4.621320343559642
0.5 -0.5 4.621320343559642
-0.5 -0.5 4.621320343559642
-1.2071067811865475 -0.5 2.914213562373095
-1.2071067811865475 0.5 2.914213562373095
-1.2071067811865475 0.5 3.914213562373095
-1.2071067811865475 -0.5 3.914213562373095
1.2071067811865475 -0.5 2.914213562373095
1.2071067811865475 0.5 2.914213562373095
1.2071067811865475 0.5 3.914213562373095
1.2071067811865475 -0.5 3.914213562373095
-0.5 1.2071067811865475 2.914213562373095
0.5 1.2071067811865475 2.914213562373095
0.5 1.2071067811865475 3.914213562373095
-0.5 1.2071067811865475 3.914213562373095
-0.5 -1.2071067811865475 2.914213562373095
0.5 -1.2071067811865475 2.914213562373095
0.5 -1.2071067811865475 3.914213562373095
-0.5 -1.2071067811865475 3.914213562373095
-0.5 0.5 -2.2071067811865475
0.5 0.5 -2.2071067811865475
0.5 -0.5 -2.2071067811865475
-0.5 -0.5 -2.2071067811865475
-2.2071067811865475 -0.5 0.5
-2.2071067811865475 0.5 0.5
-2.2071067811865475 0.5 -0.5
-2.2071067811865475 -0.5 -0.5
2.2071067811865475 -0.5 0.5
2.2071067811865475 0.5 0.5
2.2071067811865475 0.5 -0.5
2.2071067811865475 -0.5 -0.5
-0.5 2.2071067811865475 0.5
0.5 2.2071067811865475 0.5
0.5 2.2071067811865475 -0.5
-0.5 2.2071067811865475 -0.5
-0.5 -2.2071067811865475 0.5
0.5 -2.2071067811865475 0.5
0.5 -2.2071067811865475 -0.5
-0.5 -2.2071067811865475 -0.5
-1.914213562373095 1.2071067811865475 0.5
-1.2071067811865475 1.914213562373095 0.5
-1.2071067811865475 1.914213562373095 -0.5
-1.914213562373095 1.2071067811865475 -0.5
-1.914213562373095 -1.2071067811865475 0.5
-1.2071067811865475 -1.914213562373095 0.5
-1.2071067811865475 -1.914213562373095 -0.5
-1.914213562373095 -1.2071067811865475 -0.5
1.914213562373095 1.2071067811865475 0.5
1.2071067811865475 1.914213562373095 0.5
1.2071067811865475 1.914213562373095 -0.5
1.914213562373095 1.2071067811865475 -0.5
1.914213562373095 -1.2071067811865475 0.5
1.2071067811865475 -1.914213562373095 0.5
1.2071067811865475 -1.914213562373095 -0.5
1.914213562373095 -1.2071067811865475 -0.5
-0.49999999999999994 1.2071067811865475 -1.914213562373095
0.5 1.2071067811865475 -1.914213562373095
0.5 1.914213562373095 -1.2071067811865475
-0.49999999999999994 1.914213562373095 -1.2071067811865475
-0.49999999999999994 -1.2071067811865475 -1.914213562373095
0.5 -1.2071067811865475 -1.914213562373095
0.5 -1.914213562373095 -1.2071067811865475
-0.49999999999999994 -1.914213562373095 -1.2071067811865475
-1.914213562373095 0.5 -1.2071067811865475
-1.2071067811865475 0.5 -1.914213562373095
-1.2071067811865475 -0.49999999999999994 -1.914213562373095
-1.914213562373095 -0.49999999999999994 -1.2071067811865475
1.914213562373095 0.5 -1.2071067811865475
1.2071067811865475 0.5 -1.914213562373095
1.2071067811865475 -0.49999999999999994 -1.914213562373095
1.914213562373095 -0.49999999999999994 -1.2071067811865475
-0.49999999999999994 1.2071067811865475 1.914213562373095
0.5 1.2071067811865475 1.914213562373095
0.5 1.914213562373095 1.2071067811865475
-0.49999999999999994 1.914213562373095 1.2071067811865475
-0.49999999999999994 -1.2071067811865475 1.914213562373095
0.5 -1.2071067811865475 1.914213562373095
0.5 -1.914213562373095 1.2071067811865475
-0.49999999999999994 -1.914213562373095 1.2071067811865475
-1.914213562373095 0.5 1.2071067811865475
-1.2071067811865475 0.5 1.914213562373095
-1.2071067811865475 -0.49999999999999994 1.914213562373095
-1.914213562373095 -0.49999999999999994 1.2071067811865475
1.914213562373095 0.5 1.2071067811865475
1.2071067811865475 0.5 1.914213562373095
1.2071067811865475 -0.49999999999999994 1.914213562373095
1.914213562373095 -0.49999999999999994 1.2071067811865475
-1.7844570503761732 1.0773502691896257 -1.0773502691896255
-1.0773502691896255 1.0773502691896257 -1.7844570503761732
-1.0773502691896255 1.7844570503761732 -1.0773502691896255
-1.7844570503761732 -1.0773502691896257 -1.0773502691896255
-1.0773502691896255 -1.0773502691896257 -1.7844570503761732
-1.0773502691896255 -1.7844570503761732 -1.0773502691896255
1.7844570503761732 1.0773502691896257 -1.0773502691896257
1.0773502691896257 1.0773502691896257 -1.7844570503761732
1.0773502691896257 1.7844570503761732 -1.0773502691896255
1.7844570503761732 -1.0773502691896257 -1.0773502691896257
1.0773502691896257 -1.0773502691896257 -1.7844570503761732
1.0773502691896257 -1.7844570503761732 -1.0773502691896255
-1.7844570503761732 1.0773502691896257 1.0773502691896255
-1.0773502691896255 1.0773502691896257 1.7844570503761732
-1.0773502691896255 1.7844570503761732 1.0773502691896255
-1.7844570503761732 -1.0773502691896257 1.0773502691896255
-1.0773502691896255 -1.0773502691896257 1.7844570503761732
-1.0773502691896255 -1.7844570503761732 1.0773502691896255
1.7844570503761732 1.0773502691896257 1.0773502691896257
1.0773502691896257 1.0773502691896257 1.7844570503761732
1.0773502691896257 1.7844570503761732 1.0773502691896255
1.7844570503761732 -1.0773502691896257 1.0773502691896257
1.0773502691896257 -1.0773502691896257 1.7844570503761732
1.0773502691896257 -1.7844570503761732 1.0773502691896255
4 0 1 2 3
4 4 5 6 7
4 8 9 10 11
4 12 13 14 15
4 16 17 18 19
4 20 21 22 23
4 9 16 19 10
4 8 20 23 11
4 13 17 18 14
4 12 21 22 15
4 4 5 18 19
4 7 6 22 23
4 10 4 7 11
4 14 5 6 15
4 0 1 17 16
4 3 2 21 20
4 9 0 3 8
4 13 1 2 12
3 10 4 19
3 11 7 23
3 14 5 18
3 15 6 22
3 9 0 16
3 8 3 20
3 13 1 17
3 12 2 21
4 24 25 26 27
4 28 29 30 31
4 32 33 34 35
4 36 37 38 39
4 40 41 42 43
4 44 45 46 47
4 33 40 43 34
4 32 44 47 35
4 37 41 42 38
4 36 45 46 39
4 28 29 42 43
4 31 30 46 47
4 34 28 31 35
4 38 29 30 39
4 24 25 41 40
4 27 26 45 44
4 33 24 27 32
4 37 25 26 36
3 34 28 43
3 35 31 47
3 38 29 42
3 39 30 46
3 33 24 40
3 32 27 44
3 37 25 41
3 36 26 45
4 0 1 2 3
4 24 25 26 27
4 25 1 0 24
4 26 2 3 27
4 24 0 3 27
4 25 1 2 26
4 4 5 6 7
4 48 49 50 51
4 49 5 4 48
4 50 6 7 51
4 48 4 7 51
4 49 5 6 50
4 8 9 10 11
4 52 53 54 55
4 53 9 10 54
4 52 8 11 55
4 54 10 11 55
4 53 9 8 52
4 12 13 14 15
4 56 57 58 59
4 57 13 14 58
4 56 12 15 59
4 58 14 15 59
4 57 13 12 56
4 16 17 18 19
4 60 61 62 63
4 60 16 19 63
4 61 17 18 62
4 62 18 19 63
4 61 17 16 60
4 20 21 22 23
4 64 65 66 67
4 64 20 23 67
4 65 21 22 66
4 66 22 23 67
4 65 21 20 64
4 9 16 19 10
4 68 69 70 71
4 68 9 10 71
4 69 16 19 70
4 70 19 10 71
4 69 16 9 68
4 8 20 23 11
4 72 73 74 75
4 72 8 11 75
4 73 20 23 74
4 74 23 11 75
4 73 20 8 72
4 13 17 18 14
4 76 77 78 79
4 76 13 14 79
4 77 17 18 78
4 78 18 14 79
4 77 17 13 76
4 12 21 22 15
4 80 81 82 83
4 80 12 15 83
4 81 21 22 82
4 82 22 15 83
4 81 21 12 80
4 4 5 18 19
4 84 85 86 87
4 85 5 4 84
4 86 18 19 87
4 84 4 19 87
4 85 5 18 86
4 7 6 22 23
4 88 89 90 91
4 89 6 7 88
4 90 22 23 91
4 88 7 23 91
4 89 6 22 90
4 10 4 7 11
4 92 93 94 95
4 93 4 7 94
4 92 10 11 95
4 93 4 10 92
4 94 7 11 95
4 14 5 6 15
4 96 97 98 99
4 97 5 6 98
4 96 14 15 99
4 97 5 14 96
4 98 6 15 99
4 0 1 17 16
4 100 101 102 103
4 101 1 0 100
4 102 17 16 103
4 100 0 16 103
4 101 1 17 102
4 3 2 21 20
4 104 105 106 107
4 105 2 3 104
4 106 21 20 107
4 104 3 20 107
4 105 2 21 106
4 9 0 3 8
4 108 109 110 111
4 109 0 3 110
4 108 9 8 111
4 109 0 9 108
4 110 3 8 111
4 13 1 2 12
4 112 113 114 115
4 113 1 2 114
4 112 13 12 115
4 113 1 13 112
4 114 2 12 115
3 10 4 19
3 116 117 118
4 118 19 10 116
4 117 4 19 118
4 117 4 10 116
3 11 7 23
3 119 120 121
4 121 23 11 119
4 120 7 23 121
4 120 7 11 119
3 14 5 18
3 122 123 124
4 124 18 14 122
4 123 5 18 124
4 123 5 14 122
3 15 6 22
3 125 126 127
4 127 22 15 125
4 126 6 22 127
4 126 6 15 125
3 9 0 16
3 128 129 130
4 130 16 9 128
4 129 0 16 130
4 129 0 9 128
3 8 3 20
3 131 132 133
4 133 20 8 131
4 132 3 20 133
4 132 3 8 131
3 13 1 17
3 134 135 136
4 136 17 13 134
4 135 1 17 136
4 135 1 13 134
3 12 2 21
3 137 138 139
4 139 21 12 137
4 138 2 21 139
4 138 2 12 137
# cell 1: 0 1 2 3 4 5 6 7 8 9 10 11 12 13 14 15 16 17 18 19 20 21 22 23 24 25
# cell 2: 26 27 28 29 30 31 32 33 34 35 36 37 38 39 40 41 42 43 44 45 46 47 48 49 50 51
# cell 3: 52 53 54 55 56 57
# cell 4: 58 59 60 61 62 63
# cell 5: 64 65 66 67 68 69
# cell 6: 70 71 72 73 74 75
# cell 7: 76 77 78 79 80 81
# cell 8: 82 83 84 85 86 87
# cell 9: 88 89 90 91 92 93
# cell 10: 94 95 96 97 98 99
# cell 11: 100 101 102 103 104 105
# cell 12: 106 107 108 109 110 111
# cell 13: 112 113 114 115 116 117
# cell 14: 118 119 120 121 122 123
# cell 15: 124 125 126 127 128 129
# cell 16: 130 131 132 133 134 135
# cell 17: 136 137 138 139 140 141
# cell 18: 142 143 144 145 146 147
# cell 19: 148 149 150 151 152 153
# cell 20: 154 155 156 157 158 159
# cell 21: 160 161 162 163 164
# cell 22: 165 166 167 168 169
# cell 23: 170 171 172 173 174
# cell 24: 175 176 177 178 179
# cell 25: 180 181 182 183 184
# cell 26: 185 186 187 188 189
# cell 27: 190 191 192 193 194
# cell 28: 195 196 197 198 199