OFF
# face-rotation BFS net; polygonal faces are preserved
# the cell decomposition is listed below as comments
339 960 0
-0.3215536330748054 -0.14726819810916317 0.13473155940930526
0.23176274578121064 -0.27950849718747384 -0.1067627457812106
0.16704513588733158 0.20628519248411062 0.26977693777816847
-0.07725424859373692 0.22049150281252633 -0.2977457514062632
0.12875708098956143 -0.3674858380208773 0.4962429190104387
-0.24893035657981885 0.07386260142352062 0.7072636899131521
-0.14106767342335377 -0.7357935480291201 0.07969755064752036
0.6732636081802078 -0.1465378970403306 0.3047731812622924
-0.8936150358924896 0.6699663386563146 0.06492136442333682
-0.8068073158783016 1.204170211178913 -0.2335022498867628
-0.40501626693035253 1.0235197292495883 0.19996674279220003
-0.43080763918701054 0.7255702233138672 -0.34089082466884923
-0.9583326457863686 1.155760028327899 0.44146104798271574
-0.6493156514114214 0.6557600283278989 0.6324440536077685
-1.056481292213202 1.0957732336799086 0.48220913317836167
-1.068222950713493 1.233163626015755 -0.12024586497467049
-1.4849001925764707 0.8424788492884168 0.11578695604197702
-0.972818106613752 1.2062006294093433 0.36181472955469857
-0.8936150358924893 1.2136243638776667 0.5272242593013159
-0.8068073158783016 1.422325756420625 -0.04799236054435019
-0.43080763918701026 1.6052273863786624 0.40713097234119044
1.7419340513746397 -0.9190350810241438 -0.772849301851667
1.23176274578121 -0.653519395692494 -0.5465913273136087
1.785079124637226 -0.39887715345989916 -0.441880656364906
1.5407797401561572 -0.38467084313148353 -1.0094033455493374
1.3143904737544214 -0.6676878347747652 1.9291322683076917
0.912599424806472 -0.48703735284544014 1.4956632756287294
1.4011981937686095 -0.1334839622521668 1.6307086539975924
0.9383907970631306 -0.18908784690971928 2.0365208430897788
1.1717759511332202 -1.4196152514233573 -0.22502014213210247
1.0799415445206524 -1.017964893965881 0.2356418200120539
1.0286780770771418 -0.8318210948568218 -0.3514600060871499
0.6029278374867577 -1.208074150124209 -0.10828027185587766
1.5840025443339187 -0.9715266767064978 -0.11894528028225469
1.5867177933860228 -0.880574501630035 -0.09034548791549676
1.2012972137118736 -0.430747198803549 0.08592812226366987
-0.33540279508726856 2.7780924237964664 -1.1230294453151561
-0.4222105151014571 2.243888551273868 -0.8246058310050565
0.06638825386068048 2.5974419418671415 -0.6895604526361931
0.040596881604022333 2.2994924359314206 -1.2304180200972425
-0.9583326457863675 2.5790752166140467 1.6517857398707356
-0.893615035892489 2.0932815269424623 1.2752460563113561
-0.40501626693035164 2.4468349175357362 1.4102914346802196
-0.6493156514114202 2.0790752166140463 1.842768745495788
-1.4936847967444085 2.5206582580617143 0.8864341292204736
-1.0843021701650501 2.0724739848426896 1.0026353923126863
-1.0671079219939446 2.3745883024759475 0.4637501464941292
-1.5299153186994239 1.9829852799749519 0.5838434334542547
-0.9001479405695114 2.6621617502786163 0.9847030118972715
-0.8132281816951954 2.62678476260085 0.9676430261981526
-0.5486587693847675 2.1360256433600107 0.7009512111723144
-0.6910469683391948 0.1736676007926635 -0.24268187361679833
-0.8825699808323352 -0.36451668436525186 -0.00679498940167006
-0.8260923467080579 0.13052252753007768 0.3588721635938932
0.09952244670289984 0.7457290036103474 -0.02417386139238792
0.5526985446830368 0.6740533772942601 0.38990347445418927
-0.035522931665963264 0.7025839303477617 0.5773801758183037
-1.2792684446881952 0.20219815384616485 -0.055205172252684134
-0.6782682789363405 0.07774615554214925 -0.31703078223601955
-1.2249716903628254 -0.2053728405735111 -0.37111428455613094
-0.7406983830286824 -0.5104753208068511 -0.13796658113784588
-0.7554447002251858 -0.3671899666683858 -0.7389806114804496
-1.2782525641782532 0.10705049408082246 -0.061801359025688854
-1.3425119936220447 0.24592110522298394 0.03956051676936334
-1.1439856156675265 -0.3355232695284099 0.10646139551042211
-1.3756461864642655 -0.030359572134613197 0.5914093401201315
0.15600008082717745 1.240768215505677 0.34149329160317526
0.20877645281510515 0.719617753345802 -0.07185764828822669
0.6202212338674683 1.1298213025596915 0.13888449654096047
0.6945701424866897 0.5280947408526615 0.2587318827180136
0.7762991419995366 0.7411902899770949 -0.31561702590120755
0.24408690392598428 1.2086256816841356 0.3589629214752348
0.09952244670290014 1.2893870288316998 0.43812903348559107
0.552698544683037 0.8922089225359726 0.5754133637966021
0.1670451358873319 1.0859423555489063 1.017798734788208
-0.28953064035111414 -1.4169433858302527 -1.3684575311153688
-0.5004453096766401 -1.4342442600039875 -0.7877840486260839
-0.4283287877417822 -1.959052964506311 -1.1061251270195533
0.06718400551042075 -1.6419577394815654 -0.9166951894700441
1.826810441565 0.11445540740179208 -0.783515242431301
1.6945701424866897 0.15408384234764122 -0.1810966988143844
2.2612190822043967 -0.012877842939280456 -0.36275237864040705
-2.9848260233605037 0.3913602842510337 0.6837149988443041
-2.3966045470115036 0.3628297311975329 0.49623829748018955
-2.5316499253803664 0.31968465793494666 1.0977923346908813
-2.5991726145647984 0.8591284690611836 0.8038415355203251
-0.9058657209872375 -1.4685654781027475 -1.257000115061894
-1.3257140479994847 -1.1692998875287866 -0.9162164595654176
-0.7988735455169892 -1.362921160473602 -0.6575353839968201
-0.7913989279440072 -0.8940304691508812 -1.060091791141389
-1.2289032817251335 -1.7731605482525428 -0.8270761812746985
-1.2661629634622218 -1.7588141026017157 -0.740453352493742
-1.3109677308029812 -1.312585241667252 -0.31520242922281405
0.1560000808271782 2.6640834037918246 1.551817983491195
0.09952244670290067 2.169044191896495 1.1861508304956314
-0.035522931665962335 2.125899118633909 1.787704867706323
1.9890792426551813 0.6262363767009729 -0.4568570062231938
1.7056151975468439 1.0241905607668524 -0.07837766231472651
1.6596650449937052 0.41609407615058885 0.0219879698896846
1.3727605941181387 0.6719700724286335 -0.46193281065875713
2.1968123960123482 0.705710603316976 0.11976834489326665
2.1632233831576038 0.7227131699233563 0.20740572160101373
1.6238861980339963 0.8110950116424186 0.49597124630449463
-0.4390476149566124 0.3031462856950588 -0.7919519413437879
0.10917617880731426 0.6998447495509181 -0.6404266114357213
0.29928543496564175 0.5510810338187667 -0.6595391177691391
-0.1731756938442513 0.23960400914594368 -0.9079914393818629
0.31349174529405766 -0.06641294806304043 -0.6811116544004319
0.05964063318095497 0.6591377404216381 -0.7110438046624686
0.10280625589808101 0.8216762923839935 -0.6375149061425396
-0.36679411052629163 0.5443857955994487 -0.9282922909185578
-0.3997029520399805 1.1464050238387502 -0.7924399143089156
-0.2957622608181475 0.15068130782655811 0.6755891268703544
-0.8357460788124722 0.17640678158950662 0.9751249136372265
-0.2875222850485453 0.5731052454453662 1.1266502435452934
-0.17791113062038916 0.5259797595474633 1.1522737128358622
-0.6465839484076019 0.12432940208998719 1.1837187676423166
-0.0633438096178123 -0.0794663584257638 1.199974220585224
-0.36112364731996893 0.5247095509658979 1.1632332324830066
-0.2957622608181473 0.6943393330479103 1.1378920217483337
-0.8357460788124722 0.39456232683121933 1.1606348029796396
-0.8260923467080579 1.010179690594873 1.1068939606039327
0.31148338999148933 -1.2741980385598763 -1.3491725002856128
-0.10516060215559256 -0.8391965642201984 -1.4875470368888266
0.015193578133941052 -1.291389994446001 -1.891282078961671
1.2992854349656415 0.1770701353137466 -1.0993676993015369
1.817696716328673 0.0129135293173775 -1.3930824645303175
1.188035172874141 -0.2693251520737737 -1.5165750811913064
1.0372752011626942 0.2803670499276373 -1.2776693984658651
0.6310445867910974 -0.026009911860072198 -1.6284910860553192
0.7695945041534241 -0.23372339133765002 -1.0631371773465217
1.1346421363985308 0.22374471533351092 -1.8853531997951387
1.0821057034660355 0.302918545318254 -1.8936626349295311
0.6168382764626812 0.591484070021735 -1.606918549424026
-2.5413036574847805 0.3655689119943758 1.7140450847342148
-2.0013198394904554 0.3398434382314276 1.4145092979673426
-2.3548732300837294 0.844922158732768 1.3713642247047568
-0.28752228504854477 1.9964204337315137 2.3369749354333123
-0.2957622608181467 1.5739964961127053 1.885913818758373
-0.4920086107641524 1.1078805149512927 2.5478296480584337
-0.36859826489295056 1.2575073767624514 1.9610181791805663
-0.9022121599780419 0.9801819659518746 2.10354129569493
-0.37188207408813156 0.6643416084049119 2.134539356839331
-0.8033306163352985 1.5660382967055009 2.2737200584499555
-0.8381986313173231 1.5890650675334628 2.1879785387035335
-0.871107472831012 1.3582366829882462 1.6156139029261491
0.7992854349656422 -0.25793596055618095 -0.3505221233941915
0.38784065391327877 -0.6681395097700705 -0.5612642682233784
0.7686491436674419 -0.3821504484053874 -0.9551692848974571
0.856870620016442 -0.5668379386002362 -0.8827152515659489
0.42947282263144715 -0.7383504368436841 -0.4705495118606071
0.5431060895420826 -0.16610155394361348 1.118249842602626
0.16242094664407172 -0.6522084596020088 1.145542872812664
0.14985088771622604 -0.2770484668895985 0.6545612186373986
0.2782712633293353 -0.3214691144246587 1.6546167386962771
1.0074580672315503 -1.113639021723293 0.8419079480845728
0.882231467670416 -0.559122954309671 0.5994285860914502
0.512418855336221 -1.0395374305971739 0.4794011976250347
-0.354687825917026 1.7044447401476313 -0.5306550318344999
-0.8801174283274835 1.5348808565593286 -0.8083920181063077
-0.7135545314006719 1.2711511282277814 -0.27484779031293927
-0.3761176061223216 1.6526692854693588 -1.1461435191868763
-1.0212236679345155 2.5356262175917395 -0.1311678616167987
-0.6632260903873446 2.085814023497405 0.09570817450095312
-1.2696759895472396 1.9912298772748034 0.023331587524224512
-0.6910469683391944 1.5969827890788113 0.9676428182712203
-1.2792684446881946 1.4073577968906006 0.9696096302929222
-0.9706568039311416 1.4627224871651896 1.5022066801440679
-1.0717321112372047 1.6481594478173534 1.4518181819848088
-1.2974968674990888 1.50239864285621 0.8952662312944918
0.2170164285847071 -0.13622314304900857 -0.7077767761238142
0.1545863244923652 -0.724444619398009 -0.5287125750256405
0.40040609131087523 -0.593831328659769 -1.0805085715442149
-0.2021283213691697 -0.4994302657466963 -0.9804749166709652
0.8103304900257964 -0.29720724718607927 -0.9672082543029836
0.8410167518934157 0.2553966003055103 -0.6921567094605866
-0.32686694796517735 -0.2701534926983247 1.127138216510421
-0.3718820740881318 -0.8281932090072058 0.8653533340360058
-0.44518470874428984 -0.7664634771530132 1.4759122379984166
-0.8764207877213844 -0.5504024833679649 1.0894939382205935
0.29465376792935877 -0.2311113261949731 1.6803985637140226
0.340538021988788 0.3301971839200376 1.4258530806427612
-0.6206784723552904 -0.19297992767225366 -1.3164361832682632
-0.345413675507635 0.08457237497693887 -0.8377295694005882
-0.7067539871254622 -0.7909724817018295 -1.1861982382125302
0.12439089185264618 -0.2813225183954291 -1.873610480635679
0.08931326986332358 0.26967452165318423 -1.5958734943638713
0.18372181056942039 -0.24033173723693127 -1.2597981239709206
-0.6632260903873454 0.9557178895661884 -0.8652759183837193
-1.2696759895472403 1.0423530850840375 -0.7835515404011218
-1.021223667934516 1.1073628573353969 -1.3457002615125189
-1.0671079219939454 0.5460543472203865 -1.0911547784412567
0.7845391177691381 0.8238450728596268 -0.9280435936757148
1.3019512394757515 0.6625402749427212 -0.6310057682558669
1.317701337858923 0.6186658526988941 -0.8430648504555299
0.7466082111873188 0.7654028591956257 -1.0282320798535372
-0.2813851912608677 1.6427150082934394 -1.141213935796911
0.14985088771622673 1.426654014508391 -0.7547956360190878
-1.538512442784977 0.3954473228889808 1.0086971088751564
-1.363904527963974 -0.1677499644704598 1.1938643382731637
-0.9472272861009964 0.2229348122568785 0.9578315172565162
-1.9048148187078142 -0.09137628806760681 0.9048156742557845
-1.4079921054497682 0.6252018787765643 2.115449096404198
-1.1849590521917035 0.8273250495414443 1.575663498000126
-0.8764207877213839 0.39847430882280044 1.8963770661459391
-1.089615485055423 0.8194925563223112 1.0340579565291297
-1.606035131969409 0.9348911340152177 0.7147463097045998
-1.6224084575059832 0.9152928871986501 1.332252450712684
-0.3215536330748051 1.2760469901769849 1.3450562512973243
0.08023741587314426 0.8772409630059479 1.5930153546338748
0.24624820660859453 1.4651475394399824 1.4993548720646042
0.15950924135089045 1.439850745591222 1.6967846291851278
-0.013015368604485808 0.8471962494583414 1.6657698194431372
-0.8825699808323346 1.4506450381566922 1.5367387764282903
-0.17826827893634023 -0.7312708388327985 -0.008013787861071986
-0.4464277058502382 -0.867189966668386 -0.547997605855397
-0.04311627456484769 -1.26149429872008 -0.2953516196020973
-0.6907270903313069 -0.8529836563399703 -1.1155202950398286
0.7087764528151057 -0.08939924102914569 0.23715934608672085
1.0853161363744845 0.24119028997709463 -0.12463402027615496
1.2538528559015196 -0.3229986194427372 0.06312183158692708
1.3296155208555525 0.6089499908987841 -0.5571113310917236
-0.6639553426052953 -1.1131163594895255 -0.024387113397646515
-0.599794497393316 -1.1821921167495004 -0.03886276718673695
-0.2795749388509265 -1.4198368937568788 -0.32729975952602197
-0.767538885511178 -1.1258710422369833 -0.08763066233149597
-0.3685982648929512 -0.7522459202335605 0.2520122892858544
-0.9022121599780426 -0.8483519893036865 0.5486363707595445
-0.49200861076415314 -1.3073869431077723 0.4939923349595202
-1.184959052191704 -0.302771084389772 0.614679405115454
-1.4079921054497686 -0.8030614814797773 0.9009166965084786
1.1812375816249985 0.22207778364367725 0.48561166769944486
1.2326781950950974 0.14379758022632216 0.4676202283258536
1.4672275555249206 -0.15583873449989677 0.15550457559284264
1.2405202950398282 0.327174231093977 0.46738324488855
0.6854942884965087 0.01050261685668496 0.5433563055850674
0.803345418694267 0.3858010685775901 1.0200408915505752
1.1348745976609411 -0.13016319434607937 0.9436517946229188
0.3577322701598934 0.8135308432937468 1.0410687997835306
0.7671148967392522 0.770860731137775 1.5021014860799442
-1.412064188501667 0.8657489142837398 -0.20865800338356338
-1.5299153186994245 0.4904504625628341 -0.6853425893490712
-1.8614444976660987 1.0064147254865032 -0.6089534924214156
-1.0843021701650508 0.06272068784667784 -0.7063704975820259
-1.4936847967444091 0.10539080000264867 -1.16740318387844
-0.35797163511220687 1.6284974513739854 0.08268601291565159
0.17564225997288468 1.7246035204441117 -0.21393806855803857
-0.23456128924100478 2.1836384742481973 -0.15929403275801413
0.4583891521865461 1.1790226155301977 -0.2799811029139486
0.6814222054446113 1.6793130126202032 -0.5662183943069728
-1.782811827266046 0.40965363321739656 0.4411744196907245
-1.8831895587937313 0.46331500126308667 -0.16628815515889234
-2.0914223921354544 0.8977105506229492 0.22088829694650947
-1.8271793112197519 -0.8510705836857013 -1.0871805236522265
-1.619984725177929 -0.8125852416672519 -0.5061854348478669
-1.298873545516989 -0.5539041660986543 -0.9665523783717679
-2.065930823381706 0.9410842594553083 0.301922364822773
-1.9433442564078094 -0.038268987283084005 0.8355862304772836
-0.0772542485937364 1.6438066910986742 0.9125789404817555
0.10917617880731462 1.9050043925953535 0.38438819110988487
-0.3654462526851883 2.1466386178834274 0.6979363691362961
1.6022070354000744 1.6304566888393706 -0.13932144955747044
1.3148692036590492 1.3110950116424185 0.3049882406794421
1.1596650449937054 1.2251110705255361 -0.2870290244852629
-0.43904761495661154 2.1183080082170025 0.751581824486172
0.23176274578121103 1.53565322533447 1.4367710200487502
1.849796734531105 -0.8846708431314835 -0.8184203399242855
2.326810441565 -0.6945615869731554 -0.4744982480563544
1.917319423715536 -0.054081312125242864 -1.3711967119122135
2.394333130749431 0.13602794403308527 -1.0272746200442824
2.4590507406433098 -0.34976574563849894 -1.4038143036036617
2.7033501251243788 -0.3639720559669147 -0.8362916144192303
2.4173194237155364 -0.8630983065001903 -1.062179717537267
1.9315257340439516 -0.6715752940070499 -1.3927692485435068
2.312604131236584 -0.07706760509134836 -0.4529257114250612
-1.4120641885016663 1.4521870229936036 0.29002319462313064
-0.8764207877213837 1.5157386815109248 -0.011660986517241012
0.11040707658998927 -0.8667261923498059 0.04295095196717336
0.28302621322472127 -0.4656522962965328 0.4803390803179931
-0.32686694796517723 0.3162846160115391 1.625819414517114
-0.8293761559032389 0.41701392223733386 1.2804151382626976
-0.106945179405955 0.24470407203105726 -1.0103608053585929
0.160735517603315 0.7587945132963445 -1.224893026477936
0.7405202950398282 1.1361912254689248 0.15836625051360265
1.0274247459153947 0.8803152291908801 0.6422870310620441
-1.267538885511178 -0.31685404786203586 -0.39664765670644353
-1.2750135030841598 -0.7857447391847567 0.005908750438125443
-0.4308076391870099 2.148885411600015 0.8694338672191697
0.16704513588733222 1.6296003807702582 1.4801016296661873
-0.8260923467080574 1.553837715816225 1.5691968554819118
-2.1105738456026617 1.2126818596544577 0.9388869138891881
-2.1363652178593195 0.9147323537187368 0.3980293464281388
-2.027111211747114 0.041893932295706815 0.8736517305062931
-1.7410805103382718 0.8917460607526314 1.3163003469152916
-0.1779111306203887 2.2296822409454524 -0.25708314182062464
0.43588158912506947 2.2765061429653155 -0.31214701961008956
0.570926967493933 2.3196512162279013 -0.9137010568207811
0.638449656678364 1.7802074051016643 -0.6197502576502246
0.39415027219729576 1.79441371543008 -1.1872729468346563
-0.21964244754816248 1.747589813410217 -1.1322090690451916
-1.6649606970682864 1.0653393780501417 -1.7018225408882754
-1.6391693248116292 1.3632888839858632 -1.1609649734272263
-2.127768093773766 1.0097354933925893 -1.29601035179609
-1.8834687092926983 0.9955291830641742 -0.728487662611658
-2.0602454045893346 0.47029168226635276 -1.0020595526255331
-1.9252000262204707 0.5134367555289381 -1.6036135898362245
-1.555706690956082 0.1925009566271123 -1.2262001568101202
-1.311407306475013 0.5602606575488012 -1.6586774676256886
-1.1346306111783764 1.0854981583466228 -1.3851055776118133
1.1568988092875405 -0.1192776519237507 1.0631859648131607
1.3336755045841777 0.4059598488740705 1.3367578548270362
1.1986301262153147 0.3628147756114845 1.9383118920377278
0.8291367909509253 0.6837505745133112 1.5608984590116246
0.5848374064698569 0.31599087359162176 1.993375769827193
0.4080607111732197 -0.20924662720619946 1.7198038798133175
-0.7671667816091793 -1.4232409047909955 1.5651163222987476
-0.3043593849037003 -1.367637020133443 1.159304133206562
-0.7929581538658372 -1.7211904107267166 1.0242587548376985
-0.5486587693847688 -1.353430709805027 0.5917814440221301
-1.162451489130227 -1.40025461182489 0.6468453218115948
-1.29749686749909 -1.443399685087476 1.2483993590222862
-1.3650195566835217 -0.903955873961239 0.9544485598517302
-1.1207201722024531 -0.9181621842896548 1.5219712490361619
-0.5069274524569951 -0.8713382822697919 1.4669073712466971
1.3268104415650002 -0.32055068846813545 -0.034669666523955533
1.3943331307494315 0.510038842538105 -0.5874460385118838
0.9315257340439522 -0.2975643955020301 -0.952940667011108
0.472015819133253 -1.2032774363846108 -0.7565802132694488
-0.029783713703156543 -1.302191441008064 -0.40962306925218284
-0.606960134992002 -0.9381105688436516 -1.1405898928715605
0.3655009938178911 -0.7071437452242746 -1.1093860575149255
0.1445375728258546 1.3037687199192285 0.23761102108202753
-0.8764207877213843 1.1532999980300234 -0.31986291643589426
-1.2974968674990899 0.2603027963105128 -0.1609574956342011
-0.5486587693847684 0.35027177159296136 -0.817575410634357
0.5709269674939317 0.6159487348299121 0.4956557978357057
-0.013015368604486266 -0.39489959708735617 0.6095460925144448
-0.8711074728310128 -0.4275171887788034 0.09708728111947806
-0.829376155903239 0.05457523875643222 0.9722132083440447
3 0 1 2
3 3 2 0
3 3 1 2
3 3 1 0
3 0 4 2
3 5 2 0
3 5 4 2
3 5 4 0
3 0 4 1
3 6 4 1
3 0 4 6
3 0 1 6
3 0 1 2
3 0 4 2
3 0 4 1
3 2 4 1
3 2 4 1
3 7 4 1
3 2 4 7
3 2 1 7
3 8 9 10
3 11 10 8
3 11 9 10
3 11 9 8
3 8 12 10
3 13 10 8
3 13 12 10
3 13 12 8
3 8 14 15
3 16 14 15
3 8 14 16
3 8 15 16
3 8 9 10
3 8 17 10
3 8 17 9
3 10 17 9
3 10 18 19
3 20 18 19
3 10 18 20
3 10 19 20
3 21 22 23
3 24 23 21
3 24 22 23
3 24 22 21
3 25 26 27
3 28 27 25
3 28 26 27
3 28 26 25
3 29 30 31
3 32 30 31
3 29 30 32
3 29 31 32
3 29 31 33
3 29 30 33
3 29 30 31
3 33 30 31
3 34 30 31
3 35 30 31
3 34 30 35
3 34 31 35
3 36 37 38
3 39 38 36
3 39 37 38
3 39 37 36
3 40 41 42
3 43 42 40
3 43 41 42
3 43 41 40
3 44 45 46
3 47 45 46
3 44 45 47
3 44 46 47
3 44 46 48
3 44 45 48
3 44 45 46
3 48 45 46
3 49 45 46
3 50 45 46
3 49 45 50
3 49 46 50
3 51 52 53
3 0 53 51
3 0 52 53
3 0 52 51
3 54 55 56
3 2 56 54
3 2 55 56
3 2 55 54
3 51 57 53
3 8 53 51
3 8 57 53
3 8 57 51
3 58 59 60
3 61 59 60
3 58 59 61
3 58 60 61
3 51 52 53
3 51 62 53
3 51 62 52
3 53 62 52
3 53 63 64
3 65 63 64
3 53 63 65
3 53 64 65
3 54 66 56
3 10 56 54
3 10 66 56
3 10 66 54
3 67 68 69
3 70 68 69
3 67 68 70
3 67 69 70
3 54 55 56
3 54 71 56
3 54 71 55
3 56 71 55
3 56 72 73
3 74 72 73
3 56 72 74
3 56 73 74
3 75 76 77
3 78 77 75
3 78 76 77
3 78 76 75
3 79 80 81
3 23 81 79
3 23 80 81
3 23 80 79
3 82 83 84
3 85 84 82
3 85 83 84
3 85 83 82
3 86 87 88
3 89 87 88
3 86 87 89
3 86 88 89
3 86 88 90
3 86 87 90
3 86 87 88
3 90 87 88
3 91 87 88
3 92 87 88
3 91 87 92
3 91 88 92
3 93 94 95
3 42 95 93
3 42 94 95
3 42 94 93
3 96 97 98
3 99 97 98
3 96 97 99
3 96 98 99
3 96 98 100
3 96 97 100
3 96 97 98
3 100 97 98
3 101 97 98
3 102 97 98
3 101 97 102
3 101 98 102
3 3 103 11
3 3 51 11
3 11 103 51
3 3 103 51
3 3 104 11
3 3 54 11
3 11 104 54
3 3 104 54
3 3 105 106
3 107 105 106
3 3 105 107
3 3 106 107
3 3 103 11
3 3 108 11
3 3 108 103
3 11 108 103
3 11 109 110
3 111 109 110
3 11 109 111
3 11 110 111
3 112 113 13
3 112 53 13
3 13 113 53
3 112 113 53
3 112 114 13
3 112 56 13
3 13 114 56
3 112 114 56
3 112 115 116
3 117 115 116
3 112 115 117
3 112 116 117
3 112 113 13
3 112 118 13
3 112 118 113
3 13 118 113
3 13 119 120
3 121 119 120
3 13 119 121
3 13 120 121
3 122 123 124
3 122 75 124
3 124 123 75
3 122 123 75
3 24 125 126
3 24 79 126
3 126 125 79
3 24 125 79
3 127 128 129
3 130 128 129
3 127 128 130
3 127 129 130
3 127 129 131
3 127 128 131
3 127 128 129
3 131 128 129
3 132 128 129
3 133 128 129
3 132 128 133
3 132 129 133
3 134 135 136
3 134 84 136
3 136 135 84
3 134 135 84
3 137 138 43
3 137 95 43
3 43 138 95
3 137 138 95
3 139 140 141
3 142 140 141
3 139 140 142
3 139 141 142
3 139 141 143
3 139 140 143
3 139 140 141
3 143 140 141
3 144 140 141
3 145 140 141
3 144 140 145
3 144 141 145
3 107 146 147
3 1 146 147
3 107 146 1
3 107 147 1
3 107 146 147
3 148 146 147
3 107 147 148
3 107 146 148
3 149 146 150
3 31 146 150
3 149 146 31
3 149 150 31
3 117 151 152
3 153 151 152
3 117 151 153
3 117 152 153
3 117 151 152
3 154 151 152
3 117 152 154
3 117 151 154
3 155 156 157
3 30 156 157
3 155 156 30
3 155 157 30
3 111 158 159
3 160 158 159
3 111 158 160
3 111 159 160
3 111 158 159
3 161 158 159
3 111 159 161
3 111 158 161
3 162 163 164
3 46 163 164
3 162 163 46
3 162 164 46
3 121 165 166
3 18 165 166
3 121 165 18
3 121 166 18
3 121 165 166
3 167 165 166
3 121 166 167
3 121 165 167
3 168 165 169
3 45 165 169
3 168 165 45
3 168 169 45
3 170 171 172
3 170 173 172
3 172 173 171
3 170 173 171
3 107 146 174
3 107 175 174
3 174 175 146
3 107 175 146
3 176 177 178
3 176 179 178
3 178 179 177
3 176 179 177
3 117 151 180
3 117 181 180
3 180 181 151
3 117 181 151
3 61 182 173
3 183 182 173
3 61 182 183
3 61 173 183
3 61 182 173
3 184 182 173
3 61 173 184
3 61 182 184
3 185 186 187
3 129 186 187
3 185 186 129
3 185 187 129
3 188 189 190
3 188 191 190
3 190 191 189
3 188 191 189
3 70 192 175
3 105 192 175
3 70 192 105
3 70 175 105
3 70 192 175
3 193 192 175
3 70 175 193
3 70 192 193
3 194 195 175
3 128 195 175
3 194 195 128
3 194 175 128
3 111 158 196
3 111 197 196
3 196 197 158
3 111 197 158
3 65 198 199
3 200 198 199
3 65 198 200
3 65 199 200
3 65 198 199
3 201 198 199
3 65 199 201
3 65 198 201
3 202 203 204
3 141 203 204
3 202 203 141
3 202 204 141
3 205 206 207
3 205 198 207
3 207 198 206
3 205 198 206
3 74 208 209
3 119 208 209
3 74 208 119
3 74 209 119
3 74 208 209
3 210 208 209
3 74 209 210
3 74 208 210
3 211 208 212
3 140 208 212
3 211 208 140
3 211 212 140
3 121 165 213
3 121 208 213
3 213 208 165
3 121 208 165
3 214 215 216
3 214 171 216
3 216 215 171
3 214 215 171
3 61 173 217
3 61 215 217
3 217 215 173
3 61 215 173
3 218 219 220
3 218 146 220
3 220 219 146
3 218 219 146
3 70 175 221
3 70 219 221
3 221 219 175
3 70 219 175
3 214 222 215
3 60 222 215
3 214 222 60
3 214 215 60
3 214 215 216
3 214 223 215
3 216 223 215
3 214 223 216
3 224 225 215
3 88 225 215
3 224 225 88
3 224 215 88
3 226 227 228
3 226 177 228
3 228 227 177
3 226 227 177
3 229 179 230
3 229 227 230
3 230 227 179
3 229 227 179
3 218 231 219
3 69 231 219
3 218 231 69
3 218 219 69
3 218 219 220
3 218 232 219
3 220 232 219
3 218 232 220
3 233 234 219
3 98 234 219
3 233 234 98
3 233 219 98
3 235 236 237
3 235 151 237
3 237 236 151
3 235 236 151
3 238 181 239
3 238 236 239
3 239 236 181
3 238 236 181
3 240 241 242
3 240 189 242
3 242 241 189
3 240 241 189
3 243 191 244
3 243 241 244
3 244 241 191
3 243 241 191
3 245 246 247
3 245 158 247
3 247 246 158
3 245 246 158
3 248 197 249
3 248 246 249
3 249 246 197
3 248 246 197
3 16 250 251
3 63 250 251
3 16 250 63
3 16 251 63
3 16 251 252
3 16 250 251
3 252 250 251
3 16 250 252
3 253 254 255
3 87 254 255
3 253 254 87
3 253 255 87
3 16 250 256
3 16 206 256
3 256 250 206
3 16 250 206
3 65 198 257
3 65 250 257
3 257 250 198
3 65 250 198
3 20 258 259
3 72 258 259
3 20 258 72
3 20 259 72
3 20 259 260
3 20 258 259
3 260 258 259
3 20 258 260
3 261 262 263
3 97 262 263
3 261 262 97
3 261 263 97
3 20 258 264
3 20 165 264
3 264 258 165
3 20 258 165
3 74 208 265
3 74 258 265
3 265 258 208
3 74 258 208
3 24 23 266
3 267 23 266
3 268 269 270
3 271 269 270
3 266 272 273
3 23 274 79
3 270 272 273
3 269 274 79
3 24 273 268
3 24 79 268
3 267 272 271
3 267 274 271
3 271 274 269
3 271 272 270
3 268 79 269
3 268 273 270
3 267 274 23
3 267 272 266
3 24 79 23
3 24 273 266
3 3 2 0
3 112 2 0
3 11 10 8
3 13 10 8
3 0 53 51
3 2 56 54
3 8 53 51
3 10 56 54
3 3 51 11
3 3 54 11
3 112 53 13
3 112 56 13
3 13 56 10
3 13 53 8
3 11 54 10
3 11 51 8
3 112 56 2
3 112 53 0
3 3 54 2
3 3 51 0
3 275 18 276
3 20 18 276
3 47 45 46
3 50 45 46
3 276 163 164
3 46 163 164
3 18 165 169
3 45 165 169
3 275 164 47
3 20 163 50
3 275 169 47
3 20 165 50
3 50 165 45
3 47 169 45
3 50 163 46
3 47 164 46
3 20 165 18
3 275 169 18
3 20 163 276
3 275 164 276
3 277 278 1
3 218 278 1
3 32 30 31
3 35 30 31
3 1 146 150
3 31 146 150
3 278 156 157
3 30 156 157
3 277 150 32
3 218 146 35
3 277 157 32
3 218 156 35
3 35 156 30
3 32 157 30
3 35 146 31
3 32 150 31
3 218 156 278
3 277 157 278
3 218 146 1
3 277 150 1
3 279 119 280
3 121 119 280
3 142 140 141
3 145 140 141
3 279 204 142
3 279 212 142
3 280 203 204
3 141 203 204
3 121 203 145
3 119 208 212
3 140 208 212
3 121 208 145
3 145 208 140
3 145 203 141
3 142 212 140
3 142 204 141
3 121 208 119
3 121 203 280
3 279 212 119
3 279 204 280
3 107 105 281
3 282 105 281
3 130 128 129
3 133 128 129
3 107 187 130
3 107 175 130
3 281 186 187
3 129 186 187
3 282 186 133
3 105 195 175
3 128 195 175
3 282 195 133
3 133 195 128
3 133 186 129
3 130 175 128
3 130 187 129
3 282 195 105
3 282 186 281
3 107 175 105
3 107 187 281
3 70 283 69
3 284 283 69
3 99 97 98
3 102 97 98
3 70 219 99
3 69 234 219
3 98 234 219
3 284 234 102
3 70 263 99
3 283 262 263
3 97 262 263
3 284 262 102
3 102 262 97
3 99 263 97
3 102 234 98
3 99 219 98
3 284 262 283
3 70 263 283
3 284 234 69
3 70 219 69
3 61 285 60
3 286 285 60
3 89 87 88
3 92 87 88
3 61 215 89
3 60 225 215
3 88 225 215
3 286 225 92
3 61 255 89
3 285 254 255
3 87 254 255
3 286 254 92
3 92 254 87
3 89 255 87
3 92 225 88
3 89 215 88
3 286 254 285
3 61 255 285
3 286 225 60
3 61 215 60
3 43 41 42
3 42 41 287
3 42 94 95
3 95 94 288
3 43 138 95
3 43 138 289
3 289 165 41
3 288 208 138
3 289 208 165
3 287 258 94
3 287 258 165
3 288 258 208
3 43 95 42
3 287 165 41
3 289 208 138
3 288 258 94
3 43 41 289
3 42 94 287
3 95 138 288
3 165 258 208
3 136 290 85
3 85 290 291
3 85 83 84
3 84 83 292
3 136 135 84
3 136 135 293
3 293 206 290
3 292 198 135
3 293 198 206
3 291 250 83
3 291 250 206
3 292 250 198
3 136 84 85
3 291 206 290
3 293 198 135
3 292 250 83
3 136 290 293
3 85 83 291
3 84 135 292
3 206 250 198
3 39 37 38
3 38 37 294
3 38 295 296
3 296 295 297
3 39 298 296
3 39 298 299
3 299 158 37
3 297 197 298
3 299 197 158
3 294 246 158
3 297 246 197
3 294 246 295
3 39 296 38
3 294 158 37
3 299 197 298
3 297 246 295
3 38 295 294
3 39 37 299
3 296 298 297
3 158 246 197
3 300 301 302
3 302 301 303
3 302 304 305
3 305 304 306
3 300 307 305
3 300 307 308
3 308 189 301
3 306 191 307
3 308 191 189
3 303 241 189
3 306 241 191
3 303 241 304
3 300 305 302
3 303 189 301
3 308 191 307
3 306 241 304
3 302 304 303
3 300 301 308
3 305 307 306
3 189 241 191
3 28 26 27
3 27 26 309
3 27 310 311
3 311 310 312
3 28 313 311
3 28 313 314
3 314 151 26
3 314 181 151
3 312 181 313
3 309 236 310
3 309 236 151
3 312 236 181
3 28 311 27
3 309 151 26
3 314 181 313
3 312 236 310
3 311 313 312
3 28 26 314
3 27 310 309
3 151 236 181
3 315 316 317
3 317 316 318
3 317 319 320
3 320 319 321
3 315 322 320
3 315 322 323
3 323 177 316
3 323 179 177
3 321 179 322
3 318 227 319
3 318 227 177
3 321 227 179
3 315 320 317
3 318 177 316
3 323 179 322
3 321 227 319
3 320 322 321
3 315 316 323
3 317 319 318
3 177 227 179
3 24 22 23
3 23 22 324
3 23 80 79
3 79 80 325
3 24 125 79
3 24 125 326
3 326 146 22
3 326 175 146
3 325 175 125
3 324 219 146
3 325 219 175
3 324 219 80
3 24 79 23
3 324 146 22
3 326 175 125
3 325 219 80
3 79 125 325
3 23 80 324
3 24 22 326
3 146 219 175
3 122 327 78
3 78 327 328
3 78 76 75
3 75 76 329
3 122 123 75
3 122 123 330
3 330 171 327
3 330 173 171
3 329 173 123
3 328 215 171
3 329 215 173
3 328 215 76
3 122 75 78
3 328 171 327
3 330 173 123
3 329 215 76
3 75 123 329
3 78 76 328
3 122 327 330
3 171 215 173
3 13 18 10
3 10 18 20
3 10 72 56
3 56 72 74
3 13 119 56
3 13 119 121
3 121 165 18
3 74 208 119
3 121 208 165
3 20 258 72
3 20 258 165
3 74 258 208
3 13 56 10
3 20 165 18
3 121 208 119
3 74 258 72
3 165 258 208
3 13 18 121
3 10 72 20
3 56 119 74
3 13 14 8
3 8 14 16
3 8 63 53
3 53 63 65
3 13 200 53
3 13 200 205
3 205 206 14
3 65 198 200
3 205 198 206
3 16 250 63
3 16 250 206
3 65 250 198
3 13 53 8
3 16 206 14
3 205 198 200
3 65 250 63
3 206 250 198
3 13 14 205
3 8 63 16
3 53 200 65
3 11 160 10
3 10 160 245
3 10 331 54
3 54 331 248
3 11 109 54
3 11 109 111
3 111 158 160
3 248 197 109
3 111 197 158
3 245 246 158
3 248 246 197
3 245 246 331
3 11 54 10
3 245 158 160
3 111 197 109
3 248 246 331
3 158 246 197
3 10 331 245
3 11 160 111
3 54 109 248
3 11 332 8
3 8 332 240
3 8 333 51
3 51 333 243
3 11 334 51
3 11 334 188
3 188 189 332
3 243 191 334
3 188 191 189
3 240 241 189
3 243 241 191
3 240 241 333
3 11 51 8
3 240 189 332
3 188 191 334
3 243 241 333
3 189 241 191
3 8 333 240
3 11 332 188
3 51 334 243
3 112 153 2
3 2 153 235
3 2 335 56
3 56 335 238
3 112 115 56
3 112 115 117
3 117 151 153
3 117 181 151
3 238 181 115
3 235 236 335
3 235 236 151
3 238 236 181
3 112 56 2
3 235 151 153
3 117 181 115
3 238 236 335
3 151 236 181
3 56 115 238
3 112 153 117
3 2 335 235
3 112 336 0
3 0 336 226
3 0 337 53
3 53 337 229
3 112 338 53
3 112 338 176
3 176 177 336
3 176 179 177
3 229 179 338
3 226 227 337
3 226 227 177
3 229 227 179
3 112 53 0
3 226 177 336
3 176 179 338
3 229 227 337
3 177 227 179
3 53 338 229
3 112 336 176
3 0 337 226
3 3 1 2
3 2 1 218
3 2 69 67
3 67 69 70
3 3 105 67
3 3 105 107
3 107 146 1
3 107 175 146
3 70 175 105
3 218 219 146
3 70 219 175
3 218 219 69
3 3 67 2
3 218 146 1
3 107 175 105
3 70 219 69
3 146 219 175
3 67 105 70
3 2 69 218
3 3 1 107
3 3 1 0
3 0 1 214
3 0 60 58
3 58 60 61
3 3 183 58
3 3 183 170
3 170 171 1
3 170 173 171
3 61 173 183
3 214 215 171
3 61 215 173
3 214 215 60
3 3 58 0
3 214 171 1
3 170 173 183
3 61 215 60
3 171 215 173
3 58 183 61
3 0 60 214
3 3 1 170
# cell 1: 0 1 2 3
# cell 2: 4 5 6 7
# cell 3: 8 9 10 11
# cell 4: 12 13 14 15
# cell 5: 16 17 18 19
# cell 6: 20 21 22 23
# cell 7: 24 25 26 27
# cell 8: 28 29 30 31
# cell 9: 32 33 34 35
# cell 10: 36 37 38 39
# cell 11: 40 41 42 43
# cell 12: 44 45 46 47
# cell 13: 48 49 50 51
# cell 14: 52 53 54 55
# cell 15: 56 57 58 59
# cell 16: 60 61 62 63
# cell 17: 64 65 66 67
# cell 18: 68 69 70 71
# cell 19: 72 73 74 75
# cell 20: 76 77 78 79
# cell 21: 80 81 82 83
# cell 22: 84 85 86 87
# cell 23: 88 89 90 91
# cell 24: 92 93 94 95
# cell 25: 96 97 98 99
# cell 26: 100 101 102 103
# cell 27: 104 105 106 107
# cell 28: 108 109 110 111
# cell 29: 112 113 114 115
# cell 30: 116 117 118 119
# cell 31: 120 121 122 123
# cell 32: 124 125 126 127
# cell 33: 128 129 130 131
# cell 34: 132 133 134 135
# cell 35: 136 137 138 139
# cell 36: 140 141 142 143
# cell 37: 144 145 146 147
# cell 38: 148 149 150 151
# cell 39: 152 153 154 155
# cell 40: 156 157 158 159
# cell 41: 160 161 162 163
# cell 42: 164 165 166 167
# cell 43: 168 169 170 171
# cell 44: 172 173 174 175
# cell 45: 176 177 178 179
# cell 46: 180 181 182 183
# cell 47: 184 185 186 187
# cell 48: 188 189 190 191
# cell 49: 192 193 194 195
# cell 50: 196 197 198 199
# cell 51: 200 201 202 203
# cell 52: 204 205 206 207
# cell 53: 208 209 210 211
# cell 54: 212 213 214 215
# cell 55: 216 217 218 219
# cell 56: 220 221 222 223
# cell 57: 224 225 226 227
# cell 58: 228 229 230 231
# cell 59: 232 233 234 235
# cell 60: 236 237 238 239
# cell 61: 240 241 242 243
# cell 62: 244 245 246 247
# cell 63: 248 249 250 251
# cell 64: 252 253 254 255
# cell 65: 256 257 258 259
# cell 66: 260 261 262 263
# cell 67: 264 265 266 267
# cell 68: 268 269 270 271
# cell 69: 272 273 274 275
# cell 70: 276 277 278 279
# cell 71: 280 281 282 283
# cell 72: 284 285 286 287
# cell 73: 288 289 290 291
# cell 74: 292 293 294 295
# cell 75: 296 297 298 299
# cell 76: 300 301 302 303
# cell 77: 304 305 306 307
# cell 78: 308 309 310 311
# cell 79: 312 313 314 315
# cell 80: 316 317 318 319
# cell 81: 320 321 322 323
# cell 82: 324 325 326 327
# cell 83: 328 329 330 331
# cell 84: 332 333 334 335
# cell 85: 336 337 338 339
# cell 86: 340 341 342 343
# cell 87: 344 345 346 347
# cell 88: 348 349 350 351
# cell 89: 352 353 354 355
# cell 90: 356 357 358 359
# cell 91: 360 361 362 363
# cell 92: 364 365 366 367
# cell 93: 368 369 370 371
# cell 94: 372 373 374 375
# cell 95: 376 377 378 379
# cell 96: 380 381 382 383
# cell 97: 384 385 386 387
# cell 98: 388 389 390 391
# cell 99: 392 393 394 395
# cell 100: 396 397 398 399
# cell 101: 400 401 402 403
# cell 102: 404 405 406 407
# cell 103: 408 409 410 411
# cell 104: 412 413 414 415
# cell 105: 416 417 418 419
# cell 106: 420 421 422 423
# cell 107: 424 425 426 427
# cell 108: 428 429 430 431
# cell 109: 432 433 434 435
# cell 110: 436 437 438 439
# cell 111: 440 441 442 443
# cell 112: 444 445 446 447
# cell 113: 448 449 450 451
# cell 114: 452 453 454 455
# cell 115: 456 457 458 459
# cell 116: 460 461 462 463
# cell 117: 464 465 466 467
# cell 118: 468 469 470 471
# cell 119: 472 473 474 475
# cell 120: 476 477 478 479
# cell 121: 480 481 482 483 484 485 486 487 488 489 490 491 492 493 494 495 496 497 498 499
# cell 122: 500 501 502 503 504 505 506 507 508 509 510 511 512 513 514 515 516 517 518 519
# cell 123: 520 521 522 523 524 525 526 527 528 529 530 531 532 533 534 535 536 537 538 539
# cell 124: 540 541 542 543 544 545 546 547 548 549 550 551 552 553 554 555 556 557 558 559
# cell 125: 560 561 562 563 564 565 566 567 568 569 570 571 572 573 574 575 576 577 578 579
# cell 126: 580 581 582 583 584 585 586 587 588 589 590 591 592 593 594 595 596 597 598 599
# cell 127: 600 601 602 603 604 605 606 607 608 609 610 611 612 613 614 615 616 617 618 619
# cell 128: 620 621 622 623 624 625 626 627 628 629 630 631 632 633 634 635 636 637 638 639
# cell 129: 640 641 642 643 644 645 646 647 648 649 650 651 652 653 654 655 656 657 658 659
# cell 130: 660 661 662 663 664 665 666 667 668 669 670 671 672 673 674 675 676 677 678 679
# cell 131: 680 681 682 683 684 685 686 687 688 689 690 691 692 693 694 695 696 697 698 699
# cell 132: 700 701 702 703 704 705 706 707 708 709 710 711 712 713 714 715 716 717 718 719
# cell 133: 720 721 722 723 724 725 726 727 728 729 730 731 732 733 734 735 736 737 738 739
# cell 134: 740 741 742 743 744 745 746 747 748 749 750 751 752 753 754 755 756 757 758 759
# cell 135: 760 761 762 763 764 765 766 767 768 769 770 771 772 773 774 775 776 777 778 779
# cell 136: 780 781 782 783 784 785 786 787 788 789 790 791 792 793 794 795 796 797 798 799
# cell 137: 800 801 802 803 804 805 806 807 808 809 810 811 812 813 814 815 816 817 818 819
# cell 138: 820 821 822 823 824 825 826 827 828 829 830 831 832 833 834 835 836 837 838 839
# cell 139: 840 841 842 843 844 845 846 847 848 849 850 851 852 853 854 855 856 857 858 859
# cell 140: 860 861 862 863 864 865 866 867 868 869 870 871 872 873 874 875 876 877 878 879
# cell 141: 880 881 882 883 884 885 886 887 888 889 890 891 892 893 894 895 896 897 898 899
# cell 142: 900 901 902 903 904 905 906 907 908 909 910 911 912 913 914 915 916 917 918 919
# cell 143: 920 921 922 923 924 925 926 927 928 929 930 931 932 933 934 935 936 937 938 939
# cell 144: 940 941 942 943 944 945 946 947 948 949 950 951 952 953 954 955 956 957 958 959