OFF
# face-rotation BFS net; polygonal faces are preserved
# the cell decomposition is listed below as comments
165 272 0
0.6212264105565853 1.1426135089259621 0.33775397381375233
1.1426135089259621 0.33775397381375233 0.6212264105565853
1.1426135089259621 0.6212264105565853 -0.33775397381375233
0.33775397381375233 1.1426135089259621 -0.6212264105565853
0.6212264105565853 0.33775397381375233 -1.1426135089259621
1.1426135089259621 -0.33775397381375233 -0.6212264105565853
0.6212264105565853 -0.33775397381375233 1.1426135089259621
1.1426135089259621 -0.6212264105565853 0.33775397381375233
0.33775397381375233 0.6212264105565853 1.1426135089259621
0.33775397381375233 -0.6212264105565853 -1.1426135089259621
0.6212264105565853 -1.1426135089259621 -0.33775397381375233
0.33775397381375233 -1.1426135089259621 0.6212264105565853
-0.33775397381375233 1.1426135089259621 0.6212264105565853
-0.33775397381375233 0.6212264105565853 -1.1426135089259621
-0.33775397381375233 -1.1426135089259621 -0.6212264105565853
-0.33775397381375233 -0.6212264105565853 1.1426135089259621
-0.6212264105565853 1.1426135089259621 -0.33775397381375233
-0.6212264105565853 0.33775397381375233 1.1426135089259621
-0.6212264105565853 -0.33775397381375233 -1.1426135089259621
-0.6212264105565853 -1.1426135089259621 0.33775397381375233
-1.1426135089259621 0.6212264105565853 0.33775397381375233
-1.1426135089259621 0.33775397381375233 -0.6212264105565853
-1.1426135089259621 -0.33775397381375233 0.6212264105565853
-1.1426135089259621 -0.6212264105565853 -0.33775397381375233
1.4196878424399813 1.7199637781155879 0.5084174100307237
1.941074940809358 0.9151042430033784 0.7918898467735567
1.9410749408093575 1.1985766797462112 -0.16709053759678105
1.759022820761758 2.170302409867258 -0.31744389142333607
2.5652092720174866 1.7434061237454916 -0.7271059066348252
2.9024959044677496 0.934779093201709 -0.24506850866211027
2.5652092720174866 1.0678981761179873 1.5581211112170994
2.9024959044677496 0.6513066564588763 0.7139118757082275
1.7590228207617582 1.6489153114978812 1.4463960280592114
3.5273516654038737 1.6851030028784937 -0.4608677408022691
3.710730701594992 1.091340521747891 0.3225977945515506
3.5273516654038737 1.163715904509117 1.3029721786802786
1.6062288876471493 2.5482656588577015 1.0367340128477225
2.567649851305541 2.7220613583141606 -0.5216114409573215
4.051784829476829 2.0313674856478925 0.3169952062474472
3.0903638658184374 1.857571786191434 1.875340660052491
1.9455638659689263 2.9986042906093715 0.21087271139366276
2.2841774145627087 2.438588921571328 1.763615576894603
3.529792244691928 2.6637582374471624 -0.25537327512476526
3.86840579328571 2.103742868409119 1.2973695903761753
2.385597731257942 3.1723999900658306 1.0918751246986713
2.9083117457708374 3.2668908023134415 0.2446198234862214
3.1925056122416655 2.7968773203634405 1.5478163447544442
3.715219626754561 2.8913681326110514 0.7005610435419944
1.1985766797462112 1.941074940809358 0.16709053759678089
1.7199637781155879 1.4196878424399813 -0.5084174100307238
0.9151042430033782 1.941074940809358 -0.7918898467735569
1.419687842439981 0.5084174100307237 -1.7199637781155879
1.941074940809358 -0.16709053759678094 -1.1985766797462112
1.941074940809358 0.7918898467735569 -0.9151042430033781
1.1985766797462114 0.9151042430033778 -1.7199637781155879
1.7199637781155883 1.1985766797462107 -0.9151042430033781
0.9151042430033787 1.7199637781155879 -1.1985766797462114
1.419687842439981 -0.5084174100307237 1.7199637781155879
1.941074940809358 0.16709053759678094 1.1985766797462112
1.941074940809358 -0.7918898467735569 0.9151042430033781
1.198576679746211 -0.16709053759678089 1.941074940809358
1.7199637781155879 0.5084174100307237 1.419687842439981
0.915104243003378 0.7918898467735568 1.9410749408093577
1.1985766797462114 1.719963778115588 0.9151042430033779
1.7199637781155883 0.9151042430033782 1.198576679746211
0.9151042430033787 1.1985766797462114 1.7199637781155879
1.198576679746211 0.16709053759678089 -1.941074940809358
1.7199637781155879 -0.5084174100307237 -1.419687842439981
0.915104243003378 -0.7918898467735568 -1.9410749408093577
1.4196878424399813 -1.7199637781155879 -0.5084174100307237
1.941074940809358 -0.9151042430033781 -0.7918898467735567
1.941074940809358 -1.1985766797462112 0.167090537596781
1.1985766797462114 -1.719963778115588 -0.9151042430033779
1.7199637781155883 -0.9151042430033782 -1.198576679746211
0.9151042430033787 -1.1985766797462114 -1.7199637781155879
1.1985766797462112 -1.941074940809358 -0.16709053759678089
1.7199637781155879 -1.4196878424399813 0.5084174100307238
0.9151042430033782 -1.941074940809358 0.7918898467735569
1.1985766797462114 -0.9151042430033778 1.7199637781155879
1.7199637781155883 -1.1985766797462107 0.9151042430033781
0.9151042430033787 -1.7199637781155879 1.1985766797462114
0.7918898467735567 1.941074940809358 0.9151042430033782
0.5084174100307236 1.4196878424399813 1.7199637781155879
-0.16709053759678094 1.941074940809358 1.1985766797462112
0.7918898467735567 0.9151042430033782 -1.941074940809358
0.5084174100307236 1.7199637781155879 -1.419687842439981
-0.167090537596781 1.1985766797462112 -1.941074940809358
0.7918898467735567 -1.941074940809358 -0.9151042430033782
0.5084174100307236 -1.4196878424399813 -1.7199637781155879
-0.16709053759678094 -1.941074940809358 -1.1985766797462112
0.7918898467735567 -0.9151042430033782 1.941074940809358
0.5084174100307236 -1.7199637781155879 1.419687842439981
-0.167090537596781 -1.1985766797462112 1.941074940809358
-0.7918898467735567 1.941074940809358 -0.9151042430033782
0.167090537596781 1.941074940809358 -1.1985766797462112
-0.5084174100307237 1.419687842439981 -1.7199637781155879
-0.7918898467735567 0.9151042430033782 1.941074940809358
0.16709053759678089 1.1985766797462112 1.941074940809358
-0.5084174100307237 1.7199637781155879 1.419687842439981
-0.7918898467735567 -0.9151042430033782 -1.941074940809358
0.16709053759678089 -1.1985766797462112 -1.941074940809358
-0.5084174100307237 -1.7199637781155879 -1.419687842439981
-0.7918898467735567 -1.941074940809358 0.9151042430033782
0.167090537596781 -1.941074940809358 1.1985766797462112
-0.5084174100307237 -1.419687842439981 1.7199637781155879
-1.1985766797462114 0.9151042430033778 1.7199637781155879
-1.719963778115588 1.1985766797462107 0.9151042430033782
-0.9151042430033784 1.7199637781155876 1.1985766797462114
-1.1985766797462112 1.941074940809358 -0.16709053759678089
-1.7199637781155879 1.4196878424399813 0.5084174100307238
-0.9151042430033782 1.941074940809358 0.7918898467735569
-1.1985766797462114 1.7199637781155879 -0.9151042430033778
-1.719963778115588 0.9151042430033782 -1.1985766797462107
-0.9151042430033784 1.1985766797462114 -1.7199637781155879
-1.198576679746211 -0.16709053759678089 -1.941074940809358
-1.7199637781155879 0.5084174100307237 -1.419687842439981
-0.915104243003378 0.7918898467735568 -1.9410749408093577
-1.1985766797462114 -1.7199637781155879 0.9151042430033778
-1.719963778115588 -0.9151042430033782 1.1985766797462107
-0.9151042430033784 -1.1985766797462114 1.7199637781155879
-1.198576679746211 0.16709053759678089 1.941074940809358
-1.7199637781155879 -0.5084174100307237 1.419687842439981
-0.915104243003378 -0.7918898467735568 1.9410749408093577
-1.1985766797462114 -0.9151042430033778 -1.7199637781155879
-1.719963778115588 -1.1985766797462107 -0.9151042430033782
-0.9151042430033784 -1.7199637781155876 -1.1985766797462114
-1.1985766797462112 -1.941074940809358 0.16709053759678089
-1.7199637781155879 -1.4196878424399813 -0.5084174100307238
-0.9151042430033782 -1.941074940809358 -0.7918898467735569
-1.4196878424399813 1.7199637781155879 -0.5084174100307237
-1.941074940809358 0.9151042430033781 -0.7918898467735567
-1.941074940809358 1.1985766797462112 0.167090537596781
-1.419687842439981 0.5084174100307237 1.7199637781155879
-1.941074940809358 -0.16709053759678094 1.1985766797462112
-1.941074940809358 0.7918898467735569 0.9151042430033781
-1.419687842439981 -0.5084174100307237 -1.7199637781155879
-1.941074940809358 0.16709053759678094 -1.1985766797462112
-1.941074940809358 -0.7918898467735569 -0.9151042430033781
-1.4196878424399813 -1.7199637781155879 0.5084174100307237
-1.941074940809358 -0.9151042430033781 0.7918898467735567
-1.941074940809358 -1.1985766797462112 -0.167090537596781
2.142613508925962 -0.6212264105565853 0.33775397381375233
2.142613508925962 0.33775397381375233 0.6212264105565853
2.142613508925962 0.6212264105565853 -0.33775397381375233
2.142613508925962 -0.33775397381375233 -0.6212264105565853
-0.6212264105565853 2.142613508925962 -0.33775397381375233
0.33775397381375233 2.142613508925962 -0.6212264105565853
0.6212264105565853 2.142613508925962 0.33775397381375233
-0.33775397381375233 2.142613508925962 0.6212264105565853
-0.6212264105565853 -0.33775397381375233 -2.142613508925962
0.33775397381375233 -0.6212264105565853 -2.142613508925962
0.6212264105565853 0.33775397381375233 -2.142613508925962
-0.33775397381375233 0.6212264105565853 -2.142613508925962
-0.6212264105565853 -2.142613508925962 0.33775397381375233
0.33775397381375233 -2.142613508925962 0.6212264105565853
0.6212264105565853 -2.142613508925962 -0.33775397381375233
-0.33775397381375233 -2.142613508925962 -0.6212264105565853
-0.6212264105565853 0.33775397381375233 2.142613508925962
0.33775397381375233 0.6212264105565853 2.142613508925962
0.6212264105565853 -0.33775397381375233 2.142613508925962
-0.33775397381375233 -0.6212264105565853 2.142613508925962
-2.142613508925962 -0.6212264105565853 -0.33775397381375233
-2.142613508925962 0.33775397381375233 -0.6212264105565853
-2.142613508925962 0.6212264105565853 0.33775397381375233
-2.142613508925962 -0.33775397381375233 0.6212264105565853
3 0 1 2
3 0 2 3
3 4 5 2
3 4 2 3
3 6 1 7
3 6 1 8
3 0 1 8
3 4 5 9
3 10 5 7
3 10 5 9
3 10 7 11
3 6 7 11
3 0 8 12
3 4 3 13
3 10 9 14
3 6 11 15
3 16 3 13
3 17 8 12
3 18 9 14
3 19 11 15
3 17 20 12
3 16 20 12
3 16 21 13
3 18 21 13
3 19 22 15
3 17 22 15
3 18 23 14
3 19 23 14
3 16 21 20
3 17 22 20
3 18 21 23
3 19 22 23
4 7 1 2 5
4 16 3 0 12
4 18 9 4 13
4 19 11 10 14
4 17 8 6 15
4 23 21 20 22
3 24 25 26
3 24 26 27
3 28 29 26
3 28 26 27
3 30 25 31
3 30 25 32
3 24 25 32
3 28 29 33
3 34 29 31
3 34 29 33
3 34 31 35
3 30 31 35
3 24 32 36
3 28 27 37
3 34 33 38
3 30 35 39
3 40 27 37
3 41 32 36
3 42 33 38
3 43 35 39
3 41 44 36
3 40 44 36
3 40 45 37
3 42 45 37
3 43 46 39
3 41 46 39
3 42 47 38
3 43 47 38
3 40 45 44
3 41 46 44
3 42 45 47
3 43 46 47
4 31 25 26 29
4 40 27 24 36
4 42 33 28 37
4 43 35 34 38
4 41 32 30 39
4 47 45 44 46
3 0 1 2
3 24 25 26
4 26 2 0 24
4 25 1 0 24
4 25 1 2 26
3 0 2 3
3 48 49 50
4 49 2 0 48
4 49 2 3 50
4 50 3 0 48
3 4 5 2
3 51 52 53
4 53 2 4 51
4 52 5 4 51
4 52 5 2 53
3 4 2 3
3 54 55 56
4 55 2 3 56
4 55 2 4 54
4 56 3 4 54
3 6 1 7
3 57 58 59
4 58 1 6 57
4 59 7 6 57
4 58 1 7 59
3 6 1 8
3 60 61 62
4 61 1 6 60
4 61 1 8 62
4 62 8 6 60
3 0 1 8
3 63 64 65
4 64 1 0 63
4 64 1 8 65
4 65 8 0 63
3 4 5 9
3 66 67 68
4 67 5 4 66
4 67 5 9 68
4 68 9 4 66
3 10 5 7
3 69 70 71
4 70 5 10 69
4 71 7 10 69
4 70 5 7 71
3 10 5 9
3 72 73 74
4 73 5 9 74
4 73 5 10 72
4 74 9 10 72
3 10 7 11
3 75 76 77
4 76 7 10 75
4 76 7 11 77
4 77 11 10 75
3 6 7 11
3 78 79 80
4 79 7 6 78
4 79 7 11 80
4 80 11 6 78
3 0 8 12
3 81 82 83
4 82 8 0 81
4 82 8 12 83
4 83 12 0 81
3 4 3 13
3 84 85 86
4 85 3 4 84
4 85 3 13 86
4 86 13 4 84
3 10 9 14
3 87 88 89
4 88 9 10 87
4 88 9 14 89
4 89 14 10 87
3 6 11 15
3 90 91 92
4 91 11 6 90
4 91 11 15 92
4 92 15 6 90
3 16 3 13
3 93 94 95
4 94 3 13 95
4 95 13 16 93
4 94 3 16 93
3 17 8 12
3 96 97 98
4 97 8 12 98
4 98 12 17 96
4 97 8 17 96
3 18 9 14
3 99 100 101
4 100 9 14 101
4 101 14 18 99
4 100 9 18 99
3 19 11 15
3 102 103 104
4 103 11 15 104
4 104 15 19 102
4 103 11 19 102
3 17 20 12
3 105 106 107
4 107 12 17 105
4 106 20 12 107
4 106 20 17 105
3 16 20 12
3 108 109 110
4 109 20 12 110
4 109 20 16 108
4 110 12 16 108
3 16 21 13
3 111 112 113
4 113 13 16 111
4 112 21 13 113
4 112 21 16 111
3 18 21 13
3 114 115 116
4 115 21 13 116
4 115 21 18 114
4 116 13 18 114
3 19 22 15
3 117 118 119
4 119 15 19 117
4 118 22 15 119
4 118 22 19 117
3 17 22 15
3 120 121 122
4 121 22 15 122
4 121 22 17 120
4 122 15 17 120
3 18 23 14
3 123 124 125
4 125 14 18 123
4 124 23 14 125
4 124 23 18 123
3 19 23 14
3 126 127 128
4 127 23 14 128
4 127 23 19 126
4 128 14 19 126
3 16 21 20
3 129 130 131
4 131 20 16 129
4 130 21 16 129
4 130 21 20 131
3 17 22 20
3 132 133 134
4 134 20 17 132
4 133 22 17 132
4 133 22 20 134
3 18 21 23
3 135 136 137
4 136 21 18 135
4 137 23 18 135
4 136 21 23 137
3 19 22 23
3 138 139 140
4 139 22 19 138
4 140 23 19 138
4 139 22 23 140
4 7 1 2 5
4 141 142 143 144
4 142 1 2 143
4 144 5 2 143
4 142 1 7 141
4 144 5 7 141
4 16 3 0 12
4 145 146 147 148
4 146 3 0 147
4 148 12 0 147
4 146 3 16 145
4 148 12 16 145
4 18 9 4 13
4 149 150 151 152
4 150 9 4 151
4 152 13 4 151
4 150 9 18 149
4 152 13 18 149
4 19 11 10 14
4 153 154 155 156
4 154 11 10 155
4 156 14 10 155
4 154 11 19 153
4 156 14 19 153
4 17 8 6 15
4 157 158 159 160
4 158 8 6 159
4 160 15 6 159
4 158 8 17 157
4 160 15 17 157
4 23 21 20 22
4 161 162 163 164
4 162 21 20 163
4 164 22 20 163
4 162 21 23 161
4 164 22 23 161
# cell 1: 0 1 2 3 4 5 6 7 8 9 10 11 12 13 14 15 16 17 18 19 20 21 22 23 24 25 26 27 28 29 30 31 32 33 34 35 36 37
# cell 2: 38 39 40 41 42 43 44 45 46 47 48 49 50 51 52 53 54 55 56 57 58 59 60 61 62 63 64 65 66 67 68 69 70 71 72 73 74 75
# cell 3: 76 77 78 79 80
# cell 4: 81 82 83 84 85
# cell 5: 86 87 88 89 90
# cell 6: 91 92 93 94 95
# cell 7: 96 97 98 99 100
# cell 8: 101 102 103 104 105
# cell 9: 106 107 108 109 110
# cell 10: 111 112 113 114 115
# cell 11: 116 117 118 119 120
# cell 12: 121 122 123 124 125
# cell 13: 126 127 128 129 130
# cell 14: 131 132 133 134 135
# cell 15: 136 137 138 139 140
# cell 16: 141 142 143 144 145
# cell 17: 146 147 148 149 150
# cell 18: 151 152 153 154 155
# cell 19: 156 157 158 159 160
# cell 20: 161 162 163 164 165
# cell 21: 166 167 168 169 170
# cell 22: 171 172 173 174 175
# cell 23: 176 177 178 179 180
# cell 24: 181 182 183 184 185
# cell 25: 186 187 188 189 190
# cell 26: 191 192 193 194 195
# cell 27: 196 197 198 199 200
# cell 28: 201 202 203 204 205
# cell 29: 206 207 208 209 210
# cell 30: 211 212 213 214 215
# cell 31: 216 217 218 219 220
# cell 32: 221 222 223 224 225
# cell 33: 226 227 228 229 230
# cell 34: 231 232 233 234 235
# cell 35: 236 237 238 239 240 241
# cell 36: 242 243 244 245 246 247
# cell 37: 248 249 250 251 252 253
# cell 38: 254 255 256 257 258 259
# cell 39: 260 261 262 263 264 265
# cell 40: 266 267 268 269 270 271