OFF
# face-rotation BFS net; polygonal faces are preserved
# the cell decomposition is listed below as comments
417 668 0
1.8252650808086004 0.33092102472984425 -1.0984231644125202
2.0502158765044713 0.6430296059140725 -0.175392626961585
2.092754375489906 -0.33092102472984425 -0.3981270993101259
1.645069107445494 -0.6430296059140725 -1.2360806387901921
1.7000678439532744 -1.2495037884630271 -0.44288192164289053
1.932135944910516 -0.8475500467890608 0.44288192164289053
1.8633072077216801 0.7283351769571915 0.8032738683691033
1.5819879123593188 1.4540242293380155 0.175392626961585
1.5624103695756024 1.2495037884630271 -0.8032738683691033
1.3329632018073765 -1.6469179406903744 0.3981270993101259
1.3794145278298302 -1.1031568350717538 1.2360806387901921
1.7903297966073533 -0.192893711352359 1.185388553785668
1.306437116715503 0.5677153694669214 1.6181953242067568
1.1992185544667238 1.4152654162559821 1.0984231644125202
1.144874490434974 0.8475500467890608 -1.6181953242067568
1.0574124061635608 -0.3748216581145623 1.8409297965552978
1.0622157525650822 -1.4540242293380155 -1.185388553785668
0.853311280897597 -0.7283351769571915 -1.8409297965552978
0.7597911736825295 1.9778389654202186 0.3981270993101259
0.7281140440422709 1.6469179406903744 -1.185388553785668
0.6260465263418766 -1.7461864409858263 1.0984231644125202
0.46822796414515255 -2.0970538352520878 0.175392626961585
0.4391378575590853 0.3748216581145623 2.0770896597432085
0.26565457961566386 1.7461864409858263 1.2360806387901921
0.2041011252659638 1.1031568350717538 -1.8409297965552978
0.5441740065953593 0.19289371135235905 -2.0770896597432085
0.16156262628052928 -1.4152654162559821 -1.6181953242067568
0.30089683814607776 -1.9778389654202186 -0.8032738683691033
0.10503614903627397 -0.5677153694669214 2.0770896597432085
-0.10503614903627397 -0.5677153694669214 -2.0770896597432085
-0.23206810095724179 2.0970538352520878 0.44288192164289053
0.23206810095724179 2.0970538352520878 -0.44288192164289053
-0.26565457961566386 1.7461864409858263 -1.2360806387901921
-0.30089683814607776 -1.9778389654202186 0.8032738683691033
-0.16156262628052928 -1.4152654162559821 1.6181953242067568
-0.4391378575590853 0.3748216581145623 -2.0770896597432085
-0.46822796414515255 -2.0970538352520878 -0.175392626961585
-0.5441740065953593 0.19289371135235905 2.0770896597432085
-0.2041011252659638 1.1031568350717538 1.8409297965552978
-0.6260465263418766 -1.7461864409858263 -1.0984231644125202
-0.7281140440422709 1.6469179406903744 1.185388553785668
-0.7597911736825295 1.9778389654202186 -0.3981270993101259
-0.853311280897597 -0.7283351769571915 1.8409297965552978
-1.0574124061635608 -0.3748216581145623 -1.8409297965552978
-1.0622157525650822 -1.4540242293380155 1.185388553785668
-1.144874490434974 0.8475500467890608 1.6181953242067568
-1.1992185544667238 1.4152654162559821 -1.0984231644125202
-1.306437116715503 0.5677153694669214 -1.6181953242067568
-1.3329632018073765 -1.6469179406903744 -0.3981270993101259
-1.3794145278298302 -1.1031568350717538 -1.2360806387901921
-1.5624103695756024 1.2495037884630271 0.8032738683691033
-1.5819879123593188 1.4540242293380155 -0.175392626961585
-1.645069107445494 -0.6430296059140725 1.2360806387901921
-1.7903297966073533 -0.192893711352359 -1.185388553785668
-1.7000678439532744 -1.2495037884630271 0.44288192164289053
-1.8252650808086004 0.33092102472984425 1.0984231644125202
-1.8633072077216801 0.7283351769571915 -0.8032738683691033
-1.932135944910516 -0.8475500467890608 -0.44288192164289053
-2.0502158765044713 0.6430296059140725 0.175392626961585
-2.092754375489906 -0.33092102472984425 0.3981270993101259
2.783053189891452 0.4341150303260487 -1.366738157114205
3.0080039855873233 0.7462236115102769 -0.44370761966326977
3.050542484572757 -0.2277270191336398 -0.6664420920118104
3.055239434136374 -0.4910950358310441 -1.631126095427267
3.536903028840705 -1.051599493607993 -0.9574533749251899
3.718998410473109 -0.6550299126150388 -0.05769016195234222
3.6501696732842728 0.9208553111312132 0.30270178477387066
3.41882309724675 1.6519285241930493 -0.3391788263207145
2.9725806962664825 1.4014383585460553 -1.198319325006178
4.354150408298676 -1.3214091913779793 -0.4482290159650675
4.638577759080277 -0.7520080731115996 0.3230578623392095
4.089588393675372 0.054833006366197035 0.5412736938900491
4.565600347965949 0.9188641314270753 0.7051725477557742
4.220405760958024 1.7407741655683768 0.2520670491373267
2.981709675322406 1.0454543416440947 -2.1327667774890564
5.074262800821325 0.05796183353094714 0.7156483547566457
3.7281252939322553 -1.1667938059051641 -1.9322170979615159
3.4221162697808696 -0.4515669921316203 -2.5605554478951014
4.116058957416877 2.339449965987653 -0.5420985699769009
3.3940235854094443 1.9341483641232258 -1.9322170979615159
5.323784798061392 -1.2400427282960402 -0.21760237206844102
5.050459331112036 -1.603355067391338 -1.1082747772646606
5.563540987475152 0.9269350955763538 0.6415381266170228
5.005004412963846 2.2568134665115664 -0.09160197063709385
3.6019804706289786 1.4692511484751423 -2.7928125387886498
3.3766723796492553 0.49807274854050765 -2.870586439548967
4.249800214010718 -0.9747905257180104 -2.763475191551288
4.6635545326225465 -1.5077975039854716 -2.0254298508382313
6.028738003988325 0.07051611051617968 0.41762238832302834
4.068932712002791 -0.11800362015642096 -3.2463863067429015
4.943416955892915 2.6546709416401404 -1.0069797148584905
4.100732016197017 2.5138714193640563 -1.526650367230304
4.177860673238653 2.2249396574033415 -2.480888077234069
5.991611319267805 -1.2998715571255777 -0.9595108898886813
6.182951079223444 -0.7316948262453128 -0.1591582808804184
4.161495861676531 0.8705031321970682 -3.365912303388126
5.651838353937379 -1.4376656554571814 -1.8898694866112296
6.420290040916965 0.9432589905598265 0.12606301579291612
5.83510763443872 1.7538332598838915 0.1491043928804019
5.239796772875455 -1.1141887574631908 -2.7416819260250804
5.828087497542235 2.3532962013475927 -0.6512673329380713
4.975221847832118 2.595740733279073 -2.004735035260871
6.739055802872787 0.08968163062384699 -0.2859977559500966
4.947147007166339 0.2721215768513074 -3.523048523950227
6.719949372251959 -0.6155582013874817 -0.9947090678772901
6.55643307600422 1.6773043197568258 -0.5392508414814527
5.09328960294716 2.0932328245506233 -2.8612079226703053
5.083175593182282 1.2561450163688423 -3.408182975300586
6.17018516588899 -0.8385137359371623 -2.50006089910003
5.670780792991372 -0.34355469709175723 -3.2111240623956467
6.406648853066496 2.1081061601350592 -1.4291803110944492
5.879548893708382 2.2579451212552737 -2.265669353805164
7.0722069132984995 0.2961871393530082 -1.2059791755921596
5.859895842897753 0.6313568926891454 -3.328524616098683
6.830314078965662 -0.33042338691744466 -1.9468213349388672
6.959339860975536 1.2773919225476975 -1.362498190206322
5.935104911201416 1.5685516885322368 -2.9879229268933574
6.489305495339611 0.059792889369795155 -2.8020665650418337
6.61099632411715 1.5762059231234353 -2.2509614552819883
6.953511121699601 0.6437417044155702 -2.136095906632347
2.718034849259804 0.22772701913364057 -1.5369583827799795
2.5378388758966977 -0.7462236115102762 -1.6746158571576517
2.9855241439411095 -0.43411503032604787 -0.8366623176775853
2.6188146005828488 -1.6391475140147533 -0.5067737389656826
3.0115011321194802 -0.7205647502815704 -0.46201891663291794
2.8508827015400895 -1.2371937723407866 0.3789901043200985
2.572745840203239 -1.6063258782361174 -0.7762152549762242
2.5177471036954584 -0.9998516956871627 -1.569413972123526
2.9654323717398707 -0.6877431145029345 -0.7314604326434597
2.7452320636223613 1.1817563054026181 0.9321840263235449
2.932140732405152 1.0964507343594991 -0.04648246900714342
2.4639127682599997 1.907445357783442 0.3043027849160266
2.3960470133722898 1.786562553679234 -0.932184026323545
2.8838525203011587 1.1800883711302792 -0.30430278491602675
2.4156245561560064 1.991082994554222 0.04648246900714326
2.4350883658255675 1.6063258782361172 -1.1366072017024367
2.922893872754437 0.9998516956871626 -0.5087259602949183
2.6979430770585657 0.6877431145029342 -1.4317564977458535
2.4968825870210685 -1.8503399565729342 -0.3789901043200972
2.1297779448751704 -2.2477541088002817 0.4620189166329193
2.7289506879783096 -1.4483862148989677 0.5067737389656839
2.198169148494343 -1.4471639065620598 1.6957544425958613
2.750890565575029 -1.1915571182793667 0.9025557254485594
2.609084417271866 -0.5369007828426647 1.6450623575913368
2.1247705203297604 -1.6805071042613788 1.5694139721235252
2.0783191943073067 -2.2242682098799995 0.7314604326434588
2.677491937410446 -1.4249003159786855 0.7762152549762235
2.1024345511991855 0.7447510324673235 2.197027301831874
2.6593046422053623 0.9053708399575937 1.3821058459942204
2.586327231091036 -0.01585804835195681 1.7642205314107853
2.0075724542313043 1.0028299459227905 2.1830710130465523
2.5644425452374815 1.1634497534130608 1.3681495572088986
1.9003538919825251 1.8503799927118514 1.6632988532523156
1.9445745469666538 1.992615685445608 1.4317564977458535
2.327343904859249 2.031374498527641 0.5087259602949183
2.60866320022161 1.3056854461468173 1.1366072017024367
2.289798315101192 1.639147514014753 -1.3681495572088984
2.5526530263341902 0.7205647502815703 -1.6632988532523152
1.8722624359605633 1.2371937723407866 -2.1830710130465514
2.057792679164801 -1.3713000030377187 1.9201145014494352
1.7357905574985315 -0.6429648260805274 2.524963659214541
2.468707947942324 -0.46103687931832416 1.8694224164449114
1.9731037833821699 0.5677153694669214 2.363551316706687
1.7240790728302275 -0.3748216581145623 2.5862857890552275
2.4569964632740198 -0.192893711352359 1.9307445462855979
2.4073640172776254 -1.786562553679234 -0.9025557254485599
2.352365280769845 -1.1800883711302794 -1.6957544425958615
1.7695119258894327 -1.991082994554222 -1.6450623575913372
1.4247191518748457 -1.1817563054026181 -2.524963659214541
2.216476978422743 -1.0964507343594991 -1.9201145014494352
1.633623623542331 -1.907445357783442 -1.8694224164449114
1.7674812393727364 2.193137247366291 1.3667381571142052
2.150250597265331 2.2318960604483244 0.44370761966326994
1.3280538585885424 2.7557107965305283 0.6664420920118109
1.2794301428182813 2.247754108800282 -1.7642205314107853
1.696190589210984 1.4483862148989681 -2.1970273018318736
2.1137264683516124 1.8503399565729344 -1.3821058459942204
1.915168042420018 -1.824721131483145 1.6746158571576513
1.868716716397564 -2.368482237101766 0.8366623176775851
1.1618000409320643 -2.4677507373972176 1.5369583827799793
0.8577533883219928 -2.978119671958601 0.4437076196632692
1.7224886259842167 -2.5279837773968876 0.66644209201181
1.015571950518717 -2.62725227769234 1.3667381571142045
1.7562632098886926 0.6588228744324842 2.5066523622448913
1.5072384993367502 -0.2837141531489994 2.729386834593432
0.888963950732275 0.4659291630801252 2.965546697781343
1.5562348083277397 2.240023718263577 1.5369583827799795
0.6226708334766797 2.570944742993421 1.6746158571576515
1.1168074275435456 2.8025972674278137 0.8366623176775854
0.5374344585992973 1.68050710426138 -2.5862857890552275
1.4782078237683074 1.424900315978687 -2.3635513167066864
1.0614473773756041 2.2242682098800004 -1.9307445462855974
0.507915585628153 1.4471639065620603 -2.7293868345934325
1.448688950797163 1.1915571182793672 -2.5066523622448913
0.8479884669575486 0.5369007828426657 -2.965546697781343
0.49489595961386273 -1.9926156854456079 -2.363551316706687
1.3955490858984154 -2.031374498527641 -1.930744546285598
1.1866446142309304 -1.305685446146817 -2.5862857890552275
0.40624396198820195 -2.193137247366291 -2.197027301831874
1.3068970882727549 -2.2318960604483244 -1.7642205314107855
0.5455781738537505 -2.7557107965305283 -1.3821058459942208
0.36206026693222837 -0.6588228744324836 3.03919049923913
1.314436524059515 -0.46592916308012455 2.8030306360512194
0.6961619754550396 0.28371415314900006 3.0391904992391297
0.7515874793189303 0.015858048351957033 -3.03919049923913
1.060724753621168 -0.9053708399575936 -2.8030306360512194
0.1023773236872969 -0.7447510324673232 -3.0391904992391297
0.3075742590915299 -1.8503799927118516 -2.506652362244891
0.9993229137085976 -1.163449753413061 -2.729386834593432
0.040975483774726706 -1.0028299459227912 -2.965546697781343
-0.10474609720720712 3.0312261942148035 0.7762152549762238
0.3929765833656985 2.6803587999485425 1.5694139721235256
0.8871131774325642 2.912011324382935 0.7314604326434593
-0.11013608739546144 3.087533728913721 0.5067737389656839
0.8817231872443099 2.968318859081852 0.4620189166329193
0.35400011451902225 3.0875337289137215 -0.37899010432009705
0.3435265482974039 2.978119671958601 -0.9025557254485594
0.8395724913824331 2.5279837773968876 -1.6450623575913368
-0.15419613227550166 2.62725227769234 -1.6957544425958613
0.3110714056236862 1.8247211314831453 -2.524963659214541
0.8350843243999932 2.368482237101766 -1.8694224164449111
-0.15868429925794142 2.467750737397218 -1.9201145014494352
-0.17357483439604265 -2.912011324382934 1.1366072017024367
0.7533685300919117 -2.6803587999485416 1.4317564977458535
0.5955499678951877 -3.0312261942148035 0.5087259602949183
-0.13531001827074068 -2.2400237182635774 2.183071013046552
0.6522991343516652 -2.5709447429934214 1.6632988532523152
-0.27464423013628914 -2.802597267427814 1.3681495572088984
0.25371177043834736 1.371300003037718 -2.803030636051219
-0.38952721238670174 0.6429648260805265 -3.0391904992391297
0.5937846517677428 0.461036879318323 -3.0391904992391288
0.5441740065953593 0.19289371135235905 -3.0770896597432085
-0.4391378575590853 0.3748216581145623 -3.0770896597432085
-0.10503614903627397 -0.5677153694669214 -3.0770896597432085
0.34918505025007207 -2.968318859081852 -0.9321840263235449
0.5165161762491469 -3.087533728913721 0.04648246900714342
-0.4199397520411583 -3.0875337289137215 -0.3043027849160266
-0.3491850502500713 -2.968318859081852 0.9321840263235452
0.4199397520411589 -3.087533728913721 0.3043027849160269
-0.5165161762491461 -3.087533728913722 -0.04648246900714309
-0.5441740065953593 0.19289371135235905 3.0770896597432085
0.4391378575590853 0.3748216581145623 3.0770896597432085
0.10503614903627397 -0.5677153694669214 3.0770896597432085
-0.25371177043834736 1.371300003037718 2.803030636051219
0.38952721238670174 0.6429648260805265 3.0391904992391297
-0.5937846517677428 0.461036879318323 3.0391904992391288
0.13531001827074066 -2.2400237182635774 -2.1830710130465523
-0.6522991343516652 -2.5709447429934214 -1.6632988532523154
0.27464423013628914 -2.802597267427814 -1.3681495572088986
0.17357483439604265 -2.912011324382934 -1.1366072017024367
-0.7533685300919116 -2.6803587999485416 -1.4317564977458535
-0.5955499678951877 -3.0312261942148035 -0.5087259602949183
-0.3110714056236861 1.824721131483145 2.524963659214541
-0.8350843243999932 2.368482237101766 1.8694224164449111
0.15868429925794147 2.4677507373972176 1.9201145014494354
-0.3435265482974039 2.978119671958601 0.9025557254485594
-0.8395724913824331 2.5279837773968876 1.645062357591337
0.15419613227550166 2.62725227769234 1.695754442595861
-0.35400011451902264 3.087533728913721 0.37899010432009783
-0.8817231872443103 2.968318859081852 -0.4620189166329185
0.11013608739546088 3.087533728913722 -0.5067737389656832
0.10474609720720712 3.0312261942148035 -0.7762152549762238
-0.3929765833656986 2.6803587999485425 -1.5694139721235256
-0.8871131774325642 2.912011324382935 -0.7314604326434593
-0.3075742590915299 -1.8503799927118518 2.5066523622448913
-0.9993229137085975 -1.1634497534130612 2.7293868345934325
-0.040975483774726706 -1.0028299459227914 2.9655466977813436
-0.7515874793189303 0.015858048351957033 3.03919049923913
-1.0607247536211681 -0.9053708399575935 2.8030306360512194
-0.1023773236872969 -0.7447510324673233 3.0391904992391297
-0.3620602669322284 -0.6588228744324836 -3.03919049923913
-1.314436524059515 -0.4659291630801245 -2.8030306360512194
-0.6961619754550397 0.2837141531490001 -3.0391904992391297
-0.40624396198820195 -2.193137247366291 2.197027301831874
-1.3068970882727549 -2.2318960604483244 1.7642205314107855
-0.5455781738537505 -2.7557107965305283 1.3821058459942208
-0.49489595961386273 -1.9926156854456079 2.363551316706687
-1.3955490858984154 -2.031374498527641 1.930744546285598
-1.1866446142309304 -1.305685446146817 2.5862857890552275
-0.507915585628153 1.4471639065620603 2.729386834593432
-1.448688950797163 1.1915571182793674 2.5066523622448913
-0.8479884669575486 0.5369007828426657 2.965546697781343
-0.5374344585992972 1.68050710426138 2.5862857890552275
-1.4782078237683072 1.424900315978687 2.3635513167066864
-1.061447377375604 2.2242682098800004 1.9307445462855974
-1.5562348083277397 2.2400237182635774 -1.5369583827799795
-0.6226708334766797 2.570944742993422 -1.6746158571576517
-1.1168074275435453 2.802597267427814 -0.8366623176775854
-1.7562632098886926 0.6588228744324842 -2.5066523622448913
-1.5072384993367502 -0.2837141531489994 -2.7293868345934325
-0.8889639507322749 0.4659291630801252 -2.965546697781343
-0.857753388321993 -2.978119671958601 -0.4437076196632692
-1.722488625984217 -2.527983777396888 -0.66644209201181
-1.0155719505187173 -2.62725227769234 -1.3667381571142045
-1.915168042420018 -1.824721131483145 -1.6746158571576513
-1.868716716397564 -2.368482237101766 -0.8366623176775851
-1.1618000409320643 -2.4677507373972176 -1.5369583827799793
-1.2794301428182808 2.247754108800282 1.7642205314107848
-1.6961905892109839 1.4483862148989681 2.1970273018318736
-2.1137264683516124 1.8503399565729346 1.38210584599422
-1.7674812393727364 2.193137247366291 -1.366738157114205
-2.150250597265331 2.2318960604483244 -0.4437076196632699
-1.3280538585885422 2.755710796530528 -0.6664420920118108
-1.4247191518748457 -1.1817563054026181 2.524963659214541
-2.216476978422743 -1.0964507343594991 1.9201145014494352
-1.633623623542331 -1.907445357783442 1.8694224164449114
-1.9731037833821699 0.5677153694669214 -2.363551316706687
-1.7240790728302275 -0.3748216581145623 -2.5862857890552275
-2.4569964632740198 -0.192893711352359 -1.9307445462855979
-2.057792679164801 -1.3713000030377187 -1.9201145014494352
-1.7357905574985315 -0.6429648260805273 -2.524963659214541
-2.468707947942324 -0.46103687931832404 -1.8694224164449114
-2.4073640172776254 -1.786562553679234 0.9025557254485597
-2.352365280769845 -1.1800883711302794 1.6957544425958613
-1.7695119258894327 -1.991082994554222 1.645062357591337
-2.289798315101192 1.6391475140147531 1.3681495572088982
-2.5526530263341902 0.7205647502815702 1.6632988532523152
-1.8722624359605635 1.2371937723407866 2.183071013046552
-1.9445745469666538 1.9926156854456076 -1.4317564977458535
-2.327343904859249 2.031374498527641 -0.5087259602949183
-2.60866320022161 1.3056854461468173 -1.1366072017024367
-2.0075724542313047 1.0028299459227903 -2.1830710130465523
-2.5644425452374815 1.1634497534130606 -1.3681495572088984
-1.9003538919825254 1.8503799927118512 -1.6632988532523154
-2.1024345511991855 0.7447510324673235 -2.197027301831874
-2.6593046422053623 0.9053708399575937 -1.3821058459942204
-2.586327231091036 -0.01585804835195681 -1.7642205314107853
-2.1247705203297604 -1.6805071042613788 -1.5694139721235252
-2.0783191943073067 -2.2242682098799995 -0.7314604326434588
-2.677491937410446 -1.4249003159786855 -0.7762152549762235
-2.4968825870210685 -1.8503399565729342 0.3789901043200972
-2.1297779448751704 -2.2477541088002817 -0.4620189166329193
-2.7289506879783096 -1.4483862148989677 -0.5067737389656839
-2.1981691484943435 -1.4471639065620596 -1.6957544425958613
-2.750890565575029 -1.1915571182793667 -0.9025557254485596
-2.609084417271866 -0.5369007828426648 -1.6450623575913368
-2.4350883658255675 1.606325878236117 1.1366072017024367
-2.9228938727544365 0.9998516956871624 0.5087259602949185
-2.6979430770585657 0.687743114502934 1.4317564977458535
-2.3960470133722898 1.786562553679234 0.932184026323545
-2.8838525203011587 1.1800883711302792 0.30430278491602675
-2.4156245561560064 1.991082994554222 -0.04648246900714326
-2.7452320636223613 1.1817563054026181 -0.9321840263235449
-2.932140732405152 1.0964507343594991 0.04648246900714342
-2.4639127682599997 1.907445357783442 -0.3043027849160266
-2.572745840203239 -1.6063258782361174 0.7762152549762243
-2.5177471036954584 -0.9998516956871627 1.569413972123526
-2.9654323717398707 -0.6877431145029345 0.7314604326434598
-2.7180348492598037 0.22772701913364052 1.5369583827799798
-2.537838875896697 -0.7462236115102762 1.6746158571576517
-2.9855241439411095 -0.4341150303260479 0.8366623176775855
-2.6188146005828488 -1.6391475140147533 0.5067737389656826
-3.0115011321194802 -0.7205647502815704 0.46201891663291794
-2.8508827015400895 -1.2371937723407866 -0.37899010432009855
-2.7830531898914526 0.4341150303260487 1.366738157114205
-3.0080039855873233 0.7462236115102769 0.4437076196632698
-3.0505424845727585 -0.2277270191336398 0.6664420920118108
2.7725767429841994 -0.1928937113523589 1.372981027870748
2.8455541540985263 0.7283351769571915 0.9908663424541833
3.0324628228813175 0.6430296059140725 0.012199847123494811
3.0750013218667522 -0.33092102472984414 -0.21053462522504612
2.9143828912873624 -0.8475500467890608 0.6304743957279704
1.1512360048020454 0.19289371135235908 -2.8717441320349746
1.4603732791042832 -0.7283351769571915 -2.635584268847064
2.25213110565218 -0.6430296059140724 -2.0307351110819583
2.4323270790152867 0.33092102472984425 -1.8930776367042865
1.7519364886416602 0.8475500467890608 -2.4128497964985227
0.7920203113345008 -2.828489773772259 -0.990866342454183
0.9593514373335755 -2.947704643604128 -0.0121998471234947
1.8240866749957996 -2.497568749042415 0.2105346252250463
2.1911913171416977 -2.1001545968150674 -0.6304743957279704
1.5533392257535052 -2.304675037690056 -1.3729810278707477
0.7231915741456648 2.947704643604128 -0.6304743957279705
1.2509146468709524 2.828489773772259 0.21053462522504607
2.0731113855477417 2.304675037690056 -0.012199847123494922
2.0535338427640255 2.1001545968150674 -0.9908663424541833
1.219237517230694 2.4975687490424145 -1.372981027870748
0.40856714813961725 -1.0934464815860547 2.8717441320349746
0.14196837282281394 -1.9409965283751156 2.4128497964985227
0.9295775254452199 -2.27191755310496 1.8930776367042863
1.6829455269331732 -1.628887947190887 2.030735111081958
1.360943405266904 -0.9005527702336957 2.6355842688470634
1.5027495535700668 1.9409965283751158 1.8930776367042865
1.609968115818846 1.093446481586055 2.412849796498523
0.742668856662428 0.9005527702336957 2.8717441320349746
0.09942987383737878 1.628887947190887 2.6355842688470634
0.5691855787190065 2.27191755310496 2.0307351110819583
-1.5027495535700668 1.9409965283751158 -1.8930776367042867
-1.609968115818846 1.093446481586055 -2.412849796498523
-0.742668856662428 0.9005527702336957 -2.8717441320349746
-0.09942987383737878 1.628887947190887 -2.635584268847064
-0.5691855787190065 2.27191755310496 -2.0307351110819583
-0.40856714813961725 -1.0934464815860547 -2.8717441320349746
-0.14196837282281394 -1.9409965283751156 -2.4128497964985227
-0.9295775254452199 -2.27191755310496 -1.8930776367042863
-1.6829455269331732 -1.628887947190887 -2.030735111081958
-1.360943405266904 -0.9005527702336957 -2.6355842688470634
-0.7231915741456648 2.947704643604128 0.6304743957279705
-1.2509146468709524 2.828489773772259 -0.21053462522504607
-2.0731113855477417 2.304675037690056 0.012199847123494922
-2.0535338427640255 2.1001545968150674 0.9908663424541833
-1.219237517230694 2.4975687490424145 1.372981027870748
-0.7920203113345008 -2.828489773772259 0.990866342454183
-0.9593514373335755 -2.947704643604128 0.012199847123494756
-1.8240866749957996 -2.4975687490424145 -0.21053462522504623
-2.1911913171416977 -2.1001545968150674 0.6304743957279703
-1.5533392257535052 -2.304675037690056 1.3729810278707477
-1.1512360048020454 0.19289371135235908 2.8717441320349746
-1.4603732791042832 -0.7283351769571915 2.635584268847064
-2.25213110565218 -0.6430296059140724 2.0307351110819583
-2.4323270790152867 0.33092102472984425 1.8930776367042865
-1.7519364886416602 0.8475500467890608 2.4128497964985227
-2.7725767429841994 -0.1928937113523589 -1.372981027870748
-2.8455541540985263 0.7283351769571915 -0.9908663424541833
-3.0324628228813175 0.6430296059140725 -0.012199847123494867
-3.0750013218667522 -0.33092102472984414 0.21053462522504618
-2.9143828912873624 -0.8475500467890608 -0.6304743957279704
3 0 1 2
3 0 3 2
3 4 2 5
3 4 3 2
3 6 1 7
3 8 1 7
3 8 1 0
3 4 9 5
3 10 5 11
3 10 9 5
3 12 6 11
3 12 6 13
3 13 7 6
3 8 0 14
3 10 15 11
3 12 15 11
3 4 3 16
3 17 3 16
3 13 7 18
3 19 14 8
3 10 9 20
3 21 9 20
3 12 15 22
3 13 23 18
3 24 14 19
3 24 14 25
3 26 16 17
3 26 16 27
3 28 15 22
3 25 17 29
3 26 17 29
3 30 23 18
3 30 18 31
3 31 19 32
3 24 19 32
3 33 20 21
3 34 20 33
3 24 35 25
3 25 35 29
3 27 21 36
3 33 21 36
3 37 22 28
3 38 22 37
3 26 39 27
3 27 39 36
3 38 40 23
3 30 40 23
3 30 41 31
3 31 32 41
3 34 42 28
3 37 42 28
3 29 43 35
3 34 44 33
3 34 44 42
3 38 45 37
3 38 45 40
3 46 32 41
3 47 43 35
3 36 48 39
3 49 48 39
3 40 45 50
3 46 51 41
3 42 52 44
3 47 43 53
3 49 43 53
3 54 52 44
3 50 55 45
3 46 51 56
3 47 56 46
3 47 56 53
3 49 48 57
3 54 48 57
3 49 57 53
3 50 58 55
3 50 58 51
3 56 58 51
3 54 52 59
3 55 52 59
3 54 59 57
3 55 58 59
5 11 6 1 2 5
5 25 17 3 0 14
5 27 21 9 4 16
5 31 18 7 8 19
5 28 34 20 10 15
5 13 12 22 38 23
5 46 47 35 24 32
5 29 26 39 49 43
5 30 41 51 50 40
5 33 36 48 54 44
5 37 42 52 55 45
5 53 56 58 59 57
3 60 61 62
3 60 63 62
3 64 62 65
3 64 63 62
3 66 61 67
3 68 61 67
3 68 61 60
3 64 69 65
3 70 65 71
3 70 69 65
3 72 66 71
3 72 66 73
3 73 67 66
3 68 60 74
3 70 75 71
3 72 75 71
3 64 63 76
3 77 63 76
3 73 67 78
3 79 74 68
3 70 69 80
3 81 69 80
3 72 75 82
3 73 83 78
3 84 74 79
3 84 74 85
3 86 76 77
3 86 76 87
3 88 75 82
3 85 77 89
3 86 77 89
3 90 83 78
3 90 78 91
3 91 79 92
3 84 79 92
3 93 80 81
3 94 80 93
3 84 95 85
3 85 95 89
3 87 81 96
3 93 81 96
3 97 82 88
3 98 82 97
3 86 99 87
3 87 99 96
3 98 100 83
3 90 100 83
3 90 101 91
3 91 92 101
3 94 102 88
3 97 102 88
3 89 103 95
3 94 104 93
3 94 104 102
3 98 105 97
3 98 105 100
3 106 92 101
3 107 103 95
3 96 108 99
3 109 108 99
3 100 105 110
3 106 111 101
3 102 112 104
3 107 103 113
3 109 103 113
3 114 112 104
3 110 115 105
3 106 111 116
3 107 116 106
3 107 116 113
3 109 108 117
3 114 108 117
3 109 117 113
3 110 118 115
3 110 118 111
3 116 118 111
3 114 112 119
3 115 112 119
3 114 119 117
3 115 118 119
5 71 66 61 62 65
5 85 77 63 60 74
5 87 81 69 64 76
5 91 78 67 68 79
5 88 94 80 70 75
5 73 72 82 98 83
5 106 107 95 84 92
5 89 86 99 109 103
5 90 101 111 110 100
5 93 96 108 114 104
5 97 102 112 115 105
5 113 116 118 119 117
3 0 1 2
3 60 61 62
4 62 2 0 60
4 61 1 0 60
4 61 1 2 62
3 0 3 2
3 120 121 122
4 122 2 0 120
4 121 3 2 122
4 121 3 0 120
3 4 2 5
3 123 124 125
4 124 2 4 123
4 125 5 4 123
4 124 2 5 125
3 4 3 2
3 126 127 128
4 127 3 2 128
4 128 2 4 126
4 127 3 4 126
3 6 1 7
3 129 130 131
4 130 1 7 131
4 131 7 6 129
4 130 1 6 129
3 8 1 7
3 132 133 134
4 133 1 7 134
4 133 1 8 132
4 134 7 8 132
3 8 1 0
3 135 136 137
4 136 1 0 137
4 136 1 8 135
4 137 0 8 135
3 4 9 5
3 138 139 140
4 140 5 4 138
4 139 9 5 140
4 139 9 4 138
3 10 5 11
3 141 142 143
4 142 5 10 141
4 143 11 10 141
4 142 5 11 143
3 10 9 5
3 144 145 146
4 145 9 5 146
4 146 5 10 144
4 145 9 10 144
3 12 6 11
3 147 148 149
4 148 6 12 147
4 149 11 12 147
4 148 6 11 149
3 12 6 13
3 150 151 152
4 151 6 12 150
4 151 6 13 152
4 152 13 12 150
3 13 7 6
3 153 154 155
4 154 7 6 155
4 155 6 13 153
4 154 7 13 153
3 8 0 14
3 156 157 158
4 157 0 8 156
4 158 14 8 156
4 157 0 14 158
3 10 15 11
3 159 160 161
4 161 11 10 159
4 160 15 11 161
4 160 15 10 159
3 12 15 11
3 162 163 164
4 164 11 12 162
4 163 15 11 164
4 163 15 12 162
3 4 3 16
3 165 166 167
4 166 3 4 165
4 166 3 16 167
4 167 16 4 165
3 17 3 16
3 168 169 170
4 169 3 16 170
4 170 16 17 168
4 169 3 17 168
3 13 7 18
3 171 172 173
4 172 7 13 171
4 173 18 13 171
4 172 7 18 173
3 19 14 8
3 174 175 176
4 175 14 8 176
4 175 14 19 174
4 176 8 19 174
3 10 9 20
3 177 178 179
4 178 9 10 177
4 178 9 20 179
4 179 20 10 177
3 21 9 20
3 180 181 182
4 181 9 20 182
4 182 20 21 180
4 181 9 21 180
3 12 15 22
3 183 184 185
4 184 15 12 183
4 184 15 22 185
4 185 22 12 183
3 13 23 18
3 186 187 188
4 188 18 13 186
4 187 23 18 188
4 187 23 13 186
3 24 14 19
3 189 190 191
4 190 14 19 191
4 190 14 24 189
4 191 19 24 189
3 24 14 25
3 192 193 194
4 193 14 24 192
4 194 25 24 192
4 193 14 25 194
3 26 16 17
3 195 196 197
4 196 16 17 197
4 196 16 26 195
4 197 17 26 195
3 26 16 27
3 198 199 200
4 199 16 26 198
4 200 27 26 198
4 199 16 27 200
3 28 15 22
3 201 202 203
4 202 15 22 203
4 203 22 28 201
4 202 15 28 201
3 25 17 29
3 204 205 206
4 205 17 29 206
4 206 29 25 204
4 205 17 25 204
3 26 17 29
3 207 208 209
4 208 17 26 207
4 208 17 29 209
4 209 29 26 207
3 30 23 18
3 210 211 212
4 211 23 18 212
4 212 18 30 210
4 211 23 30 210
3 30 18 31
3 213 214 215
4 214 18 30 213
4 215 31 30 213
4 214 18 31 215
3 31 19 32
3 216 217 218
4 217 19 32 218
4 218 32 31 216
4 217 19 31 216
3 24 19 32
3 219 220 221
4 220 19 24 219
4 220 19 32 221
4 221 32 24 219
3 33 20 21
3 222 223 224
4 223 20 21 224
4 223 20 33 222
4 224 21 33 222
3 34 20 33
3 225 226 227
4 226 20 33 227
4 227 33 34 225
4 226 20 34 225
3 24 35 25
3 228 229 230
4 230 25 24 228
4 229 35 25 230
4 229 35 24 228
3 25 35 29
3 231 232 233
4 233 29 25 231
4 232 35 25 231
4 232 35 29 233
3 27 21 36
3 234 235 236
4 235 21 36 236
4 236 36 27 234
4 235 21 27 234
3 33 21 36
3 237 238 239
4 238 21 33 237
4 238 21 36 239
4 239 36 33 237
3 37 22 28
3 240 241 242
4 241 22 28 242
4 241 22 37 240
4 242 28 37 240
3 38 22 37
3 243 244 245
4 244 22 37 245
4 245 37 38 243
4 244 22 38 243
3 26 39 27
3 246 247 248
4 248 27 26 246
4 247 39 27 248
4 247 39 26 246
3 27 39 36
3 249 250 251
4 251 36 27 249
4 250 39 27 249
4 250 39 36 251
3 38 40 23
3 252 253 254
4 253 40 23 254
4 253 40 38 252
4 254 23 38 252
3 30 40 23
3 255 256 257
4 257 23 30 255
4 256 40 23 257
4 256 40 30 255
3 30 41 31
3 258 259 260
4 260 31 30 258
4 259 41 31 260
4 259 41 30 258
3 31 32 41
3 261 262 263
4 262 32 31 261
4 263 41 31 261
4 262 32 41 263
3 34 42 28
3 264 265 266
4 265 42 28 266
4 265 42 34 264
4 266 28 34 264
3 37 42 28
3 267 268 269
4 269 28 37 267
4 268 42 28 269
4 268 42 37 267
3 29 43 35
3 270 271 272
4 272 35 29 270
4 271 43 35 272
4 271 43 29 270
3 34 44 33
3 273 274 275
4 275 33 34 273
4 274 44 34 273
4 274 44 33 275
3 34 44 42
3 276 277 278
4 278 42 34 276
4 277 44 34 276
4 277 44 42 278
3 38 45 37
3 279 280 281
4 281 37 38 279
4 280 45 38 279
4 280 45 37 281
3 38 45 40
3 282 283 284
4 284 40 38 282
4 283 45 38 282
4 283 45 40 284
3 46 32 41
3 285 286 287
4 286 32 41 287
4 287 41 46 285
4 286 32 46 285
3 47 43 35
3 288 289 290
4 289 43 35 290
4 289 43 47 288
4 290 35 47 288
3 36 48 39
3 291 292 293
4 293 39 36 291
4 292 48 39 293
4 292 48 36 291
3 49 48 39
3 294 295 296
4 295 48 39 296
4 295 48 49 294
4 296 39 49 294
3 40 45 50
3 297 298 299
4 298 45 40 297
4 298 45 50 299
4 299 50 40 297
3 46 51 41
3 300 301 302
4 302 41 46 300
4 301 51 46 300
4 301 51 41 302
3 42 52 44
3 303 304 305
4 305 44 42 303
4 304 52 44 305
4 304 52 42 303
3 47 43 53
3 306 307 308
4 307 43 47 306
4 307 43 53 308
4 308 53 47 306
3 49 43 53
3 309 310 311
4 310 43 53 311
4 311 53 49 309
4 310 43 49 309
3 54 52 44
3 312 313 314
4 313 52 44 314
4 313 52 54 312
4 314 44 54 312
3 50 55 45
3 315 316 317
4 317 45 50 315
4 316 55 50 315
4 316 55 45 317
3 46 51 56
3 318 319 320
4 319 51 46 318
4 320 56 46 318
4 319 51 56 320
3 47 56 46
3 321 322 323
4 322 56 46 323
4 322 56 47 321
4 323 46 47 321
3 47 56 53
3 324 325 326
4 326 53 47 324
4 325 56 47 324
4 325 56 53 326
3 49 48 57
3 327 328 329
4 328 48 49 327
4 328 48 57 329
4 329 57 49 327
3 54 48 57
3 330 331 332
4 331 48 57 332
4 332 57 54 330
4 331 48 54 330
3 49 57 53
3 333 334 335
4 335 53 49 333
4 334 57 49 333
4 334 57 53 335
3 50 58 55
3 336 337 338
4 338 55 50 336
4 337 58 50 336
4 337 58 55 338
3 50 58 51
3 339 340 341
4 340 58 50 339
4 340 58 51 341
4 341 51 50 339
3 56 58 51
3 342 343 344
4 344 51 56 342
4 343 58 51 344
4 343 58 56 342
3 54 52 59
3 345 346 347
4 346 52 54 345
4 346 52 59 347
4 347 59 54 345
3 55 52 59
3 348 349 350
4 349 52 59 350
4 350 59 55 348
4 349 52 55 348
3 54 59 57
3 351 352 353
4 353 57 54 351
4 352 59 54 351
4 352 59 57 353
3 55 58 59
3 354 355 356
4 355 58 55 354
4 356 59 55 354
4 355 58 59 356
5 11 6 1 2 5
5 357 358 359 360 361
4 359 1 2 360
4 360 2 5 361
4 359 1 6 358
4 361 5 11 357
4 358 6 11 357
5 25 17 3 0 14
5 362 363 364 365 366
4 364 3 0 365
4 365 0 14 366
4 364 3 17 363
4 366 14 25 362
4 363 17 25 362
5 27 21 9 4 16
5 367 368 369 370 371
4 369 9 4 370
4 371 16 4 370
4 369 9 21 368
4 371 16 27 367
4 368 21 27 367
5 31 18 7 8 19
5 372 373 374 375 376
4 374 7 8 375
4 374 7 18 373
4 375 8 19 376
4 373 18 31 372
4 376 19 31 372
5 28 34 20 10 15
5 377 378 379 380 381
4 381 15 10 380
4 379 20 10 380
4 381 15 28 377
4 379 20 34 378
4 377 28 34 378
5 13 12 22 38 23
5 382 383 384 385 386
4 382 13 12 383
4 384 22 12 383
4 386 23 13 382
4 384 22 38 385
4 386 23 38 385
5 46 47 35 24 32
5 387 388 389 390 391
4 391 32 24 390
4 389 35 24 390
4 391 32 46 387
4 389 35 47 388
4 387 46 47 388
5 29 26 39 49 43
5 392 393 394 395 396
4 392 29 26 393
4 394 39 26 393
4 396 43 29 392
4 394 39 49 395
4 396 43 49 395
5 30 41 51 50 40
5 397 398 399 400 401
4 401 40 30 397
4 398 41 30 397
4 400 50 40 401
4 399 51 41 398
4 399 51 50 400
5 33 36 48 54 44
5 402 403 404 405 406
4 403 36 33 402
4 406 44 33 402
4 404 48 36 403
4 406 44 54 405
4 404 48 54 405
5 37 42 52 55 45
5 407 408 409 410 411
4 408 42 37 407
4 411 45 37 407
4 409 52 42 408
4 410 55 45 411
4 409 52 55 410
5 53 56 58 59 57
5 412 413 414 415 416
4 413 56 53 412
4 416 57 53 412
4 414 58 56 413
4 415 59 57 416
4 414 58 59 415
# cell 1: 0 1 2 3 4 5 6 7 8 9 10 11 12 13 14 15 16 17 18 19 20 21 22 23 24 25 26 27 28 29 30 31 32 33 34 35 36 37 38 39 40 41 42 43 44 45 46 47 48 49 50 51 52 53 54 55 56 57 58 59 60 61 62 63 64 65 66 67 68 69 70 71 72 73 74 75 76 77 78 79 80 81 82 83 84 85 86 87 88 89 90 91
# cell 2: 92 93 94 95 96 97 98 99 100 101 102 103 104 105 106 107 108 109 110 111 112 113 114 115 116 117 118 119 120 121 122 123 124 125 126 127 128 129 130 131 132 133 134 135 136 137 138 139 140 141 142 143 144 145 146 147 148 149 150 151 152 153 154 155 156 157 158 159 160 161 162 163 164 165 166 167 168 169 170 171 172 173 174 175 176 177 178 179 180 181 182 183
# cell 3: 184 185 186 187 188
# cell 4: 189 190 191 192 193
# cell 5: 194 195 196 197 198
# cell 6: 199 200 201 202 203
# cell 7: 204 205 206 207 208
# cell 8: 209 210 211 212 213
# cell 9: 214 215 216 217 218
# cell 10: 219 220 221 222 223
# cell 11: 224 225 226 227 228
# cell 12: 229 230 231 232 233
# cell 13: 234 235 236 237 238
# cell 14: 239 240 241 242 243
# cell 15: 244 245 246 247 248
# cell 16: 249 250 251 252 253
# cell 17: 254 255 256 257 258
# cell 18: 259 260 261 262 263
# cell 19: 264 265 266 267 268
# cell 20: 269 270 271 272 273
# cell 21: 274 275 276 277 278
# cell 22: 279 280 281 282 283
# cell 23: 284 285 286 287 288
# cell 24: 289 290 291 292 293
# cell 25: 294 295 296 297 298
# cell 26: 299 300 301 302 303
# cell 27: 304 305 306 307 308
# cell 28: 309 310 311 312 313
# cell 29: 314 315 316 317 318
# cell 30: 319 320 321 322 323
# cell 31: 324 325 326 327 328
# cell 32: 329 330 331 332 333
# cell 33: 334 335 336 337 338
# cell 34: 339 340 341 342 343
# cell 35: 344 345 346 347 348
# cell 36: 349 350 351 352 353
# cell 37: 354 355 356 357 358
# cell 38: 359 360 361 362 363
# cell 39: 364 365 366 367 368
# cell 40: 369 370 371 372 373
# cell 41: 374 375 376 377 378
# cell 42: 379 380 381 382 383
# cell 43: 384 385 386 387 388
# cell 44: 389 390 391 392 393
# cell 45: 394 395 396 397 398
# cell 46: 399 400 401 402 403
# cell 47: 404 405 406 407 408
# cell 48: 409 410 411 412 413
# cell 49: 414 415 416 417 418
# cell 50: 419 420 421 422 423
# cell 51: 424 425 426 427 428
# cell 52: 429 430 431 432 433
# cell 53: 434 435 436 437 438
# cell 54: 439 440 441 442 443
# cell 55: 444 445 446 447 448
# cell 56: 449 450 451 452 453
# cell 57: 454 455 456 457 458
# cell 58: 459 460 461 462 463
# cell 59: 464 465 466 467 468
# cell 60: 469 470 471 472 473
# cell 61: 474 475 476 477 478
# cell 62: 479 480 481 482 483
# cell 63: 484 485 486 487 488
# cell 64: 489 490 491 492 493
# cell 65: 494 495 496 497 498
# cell 66: 499 500 501 502 503
# cell 67: 504 505 506 507 508
# cell 68: 509 510 511 512 513
# cell 69: 514 515 516 517 518
# cell 70: 519 520 521 522 523
# cell 71: 524 525 526 527 528
# cell 72: 529 530 531 532 533
# cell 73: 534 535 536 537 538
# cell 74: 539 540 541 542 543
# cell 75: 544 545 546 547 548
# cell 76: 549 550 551 552 553
# cell 77: 554 555 556 557 558
# cell 78: 559 560 561 562 563
# cell 79: 564 565 566 567 568
# cell 80: 569 570 571 572 573
# cell 81: 574 575 576 577 578
# cell 82: 579 580 581 582 583
# cell 83: 584 585 586 587 588 589 590
# cell 84: 591 592 593 594 595 596 597
# cell 85: 598 599 600 601 602 603 604
# cell 86: 605 606 607 608 609 610 611
# cell 87: 612 613 614 615 616 617 618
# cell 88: 619 620 621 622 623 624 625
# cell 89: 626 627 628 629 630 631 632
# cell 90: 633 634 635 636 637 638 639
# cell 91: 640 641 642 643 644 645 646
# cell 92: 647 648 649 650 651 652 653
# cell 93: 654 655 656 657 658 659 660
# cell 94: 661 662 663 664 665 666 667