OFF
# face-rotation BFS net; polygonal faces are preserved
# the cell decomposition is listed below as comments
17 28 0
-0.5773502691896257 0. 0.2041241452319315
0.28867513459481287 0.5 0.2041241452319315
0.28867513459481287 -0.5 0.2041241452319315
0. 0. -0.6123724356957945
-0.5773502691896256 -8.326672684688674e-17 1.2041241452319316
0.2886751345948129 0.4999999999999999 1.2041241452319316
0.2886751345948129 -0.5 1.2041241452319316
8.821755692494722e-18 -1.527972907136084e-17 2.0206207261596574
1.2314841761768764 -0.49999999999999994 -0.12920918810140186
0.9428090415820636 4.220450615359644e-17 -0.9457057690291277
1.2314841761768764 0.5 -0.12920918810140186
-1.0487547899806575 0.816496580927726 -0.12920918810140178
-0.47140452079103173 0.816496580927726 -0.9457057690291277
-0.1827293861962189 1.316496580927726 -0.12920918810140178
-1.0487547899806575 -0.816496580927726 -0.12920918810140178
-0.47140452079103173 -0.816496580927726 -0.9457057690291277
-0.1827293861962189 -1.316496580927726 -0.12920918810140178
3 0 1 2
3 2 3 1
3 0 3 1
3 0 3 2
3 4 5 6
3 6 7 5
3 4 7 5
3 4 7 6
3 0 1 2
3 4 5 6
4 5 1 2 6
4 5 1 0 4
4 6 2 0 4
3 2 3 1
3 8 9 10
4 10 1 2 8
4 9 3 1 10
4 9 3 2 8
3 0 3 1
3 11 12 13
4 13 1 0 11
4 12 3 1 13
4 12 3 0 11
3 0 3 2
3 14 15 16
4 16 2 0 14
4 15 3 2 16
4 15 3 0 14
# cell 1: 0 1 2 3
# cell 2: 4 5 6 7
# cell 3: 8 9 10 11 12
# cell 4: 13 14 15 16 17
# cell 5: 18 19 20 21 22
# cell 6: 23 24 25 26 27