OFF
# face-rotation BFS net; polygonal faces are preserved
# the cell decomposition is listed below as comments
295 308 0
0.6881909602355868 -0.5 -2.327438436766327
0.6881909602355868 0.5 -2.327438436766327
-0.2628655560595668 0.8090169943749475 -2.327438436766327
-0.8506508083520399 0. -2.327438436766327
-0.2628655560595668 -0.8090169943749475 -2.327438436766327
-2.3894925769396664 -0.5 -0.4253254041760199
-1.9641671727636467 -0.8090169943749475 -1.2759762125280598
-1.7013016167040798 0. -1.8017073246471935
-1.9641671727636467 0.8090169943749475 -1.2759762125280598
-2.3894925769396664 0.5 -0.4253254041760199
-1.3763819204711736 -1.618033988749895 -1.2759762125280598
-0.5257311121191336 -1.618033988749895 -1.8017073246471935
0.16245984811645317 -2.118033988749895 -1.2759762125280598
-0.2628655560595668 -2.4270509831248424 -0.4253254041760199
-1.2139220723547204 -2.118033988749895 -0.4253254041760199
1.6392474765307403 -1.8090169943749475 -0.4253254041760199
2.2270327288232137 -1. -0.4253254041760199
2.0645728807067605 -0.5 -1.2759762125280598
1.3763819204711736 -1. -1.8017073246471935
1.1135163644116068 -1.8090169943749475 -1.2759762125280598
1.6392474765307403 1.8090169943749475 -0.4253254041760199
2.2270327288232137 1. -0.4253254041760199
2.0645728807067605 0.5 -1.2759762125280598
1.3763819204711736 1. -1.8017073246471935
1.1135163644116068 1.8090169943749475 -1.2759762125280598
-1.3763819204711736 1.618033988749895 -1.2759762125280598
-0.5257311121191336 1.618033988749895 -1.8017073246471935
0.16245984811645317 2.118033988749895 -1.2759762125280598
-0.2628655560595668 2.4270509831248424 -0.4253254041760199
-1.2139220723547204 2.118033988749895 -0.4253254041760199
-1.6392474765307403 -1.8090169943749475 0.42532540417602
-1.1135163644116068 -1.8090169943749475 1.2759762125280598
-1.3763819204711736 -1. 1.8017073246471935
-2.0645728807067605 -0.5 1.2759762125280598
-2.2270327288232137 -1. 0.42532540417602
1.3763819204711736 -1.618033988749895 1.2759762125280598
0.5257311121191336 -1.618033988749895 1.8017073246471935
-0.16245984811645317 -2.118033988749895 1.2759762125280598
0.2628655560595668 -2.4270509831248424 0.42532540417602
1.2139220723547204 -2.118033988749895 0.42532540417602
2.3894925769396664 -0.5 0.42532540417602
1.9641671727636467 -0.8090169943749475 1.2759762125280598
1.7013016167040798 0. 1.8017073246471935
1.9641671727636467 0.8090169943749475 1.2759762125280598
2.3894925769396664 0.5 0.42532540417602
1.3763819204711736 1.618033988749895 1.2759762125280598
0.5257311121191336 1.618033988749895 1.8017073246471935
-0.16245984811645317 2.118033988749895 1.2759762125280598
0.2628655560595668 2.4270509831248424 0.42532540417602
1.2139220723547204 2.118033988749895 0.42532540417602
-1.6392474765307403 1.8090169943749475 0.42532540417602
-1.1135163644116068 1.8090169943749475 1.2759762125280598
-1.3763819204711736 1. 1.8017073246471935
-2.0645728807067605 0.5 1.2759762125280598
-2.2270327288232137 1. 0.42532540417602
-0.6881909602355868 -0.5 2.327438436766327
-0.6881909602355868 0.5 2.327438436766327
0.2628655560595668 0.8090169943749475 2.327438436766327
0.8506508083520399 0. 2.327438436766327
0.2628655560595668 -0.8090169943749475 2.327438436766327
0.6881909602355867 -0.5 -3.3274384367663274
0.6881909602355867 0.5 -3.3274384367663274
-0.2628655560595668 0.8090169943749475 -3.327438436766328
-0.85065080835204 -1.5407439555097449e-33 -3.3274384367663283
-0.2628655560595668 -0.8090169943749475 -3.327438436766328
-2.3894925769396655 -0.5 -5.229551469356637
-1.964167172763646 -0.8090169943749475 -4.378900661004597
-1.7013016167040793 2.6695894000244284e-32 -3.8531695488854627
-1.964167172763646 0.8090169943749475 -4.378900661004597
-2.3894925769396655 0.5 -5.229551469356637
-1.376381920471173 -1.618033988749895 -4.378900661004596
-0.5257311121191333 -1.618033988749895 -3.853169548885462
0.16245984811645384 -2.118033988749895 -4.378900661004595
-0.2628655560595656 -2.4270509831248424 -5.229551469356635
-1.213922072354719 -2.118033988749895 -5.229551469356636
1.6392474765307417 -1.8090169943749475 -5.229551469356634
2.2270327288232146 -1. -5.229551469356633
2.064572880706761 -0.5 -4.378900661004594
1.376381920471174 -1. -3.8531695488854605
1.1135163644116075 -1.8090169943749475 -4.378900661004595
1.6392474765307417 1.8090169943749475 -5.229551469356634
2.2270327288232146 1. -5.229551469356633
2.064572880706761 0.5 -4.378900661004594
1.376381920471174 1. -3.8531695488854605
1.1135163644116075 1.8090169943749475 -4.378900661004595
-1.376381920471173 1.618033988749895 -4.378900661004596
-0.5257311121191333 1.618033988749895 -3.853169548885462
0.16245984811645384 2.118033988749895 -4.378900661004595
-0.2628655560595656 2.4270509831248424 -5.229551469356635
-1.213922072354719 2.118033988749895 -5.229551469356636
-1.6392474765307385 -1.8090169943749475 -6.0802022777086755
-1.1135163644116044 -1.8090169943749475 -6.930853086060715
-1.376381920471171 -1. -7.456584198179849
-2.0645728807067583 -0.5 -6.930853086060716
-2.227032728823212 -1. -6.080202277708676
1.376381920471176 -1.618033988749895 -6.930853086060714
0.5257311121191361 -1.618033988749895 -7.456584198179848
-0.16245984811645084 -2.118033988749895 -6.930853086060715
0.2628655560595686 -2.4270509831248424 -6.080202277708675
1.2139220723547222 -2.118033988749895 -6.080202277708674
2.389492576939668 -0.5 -6.080202277708674
1.9641671727636492 -0.8090169943749475 -6.930853086060713
1.7013016167040824 2.202326897330582e-31 -7.456584198179847
1.9641671727636492 0.8090169943749475 -6.930853086060713
2.389492576939668 0.5 -6.080202277708674
1.376381920471176 1.618033988749895 -6.930853086060714
0.5257311121191361 1.618033988749895 -7.456584198179848
-0.16245984811645084 2.118033988749895 -6.930853086060715
0.2628655560595686 2.4270509831248424 -6.080202277708675
1.2139220723547222 2.118033988749895 -6.080202277708674
-1.6392474765307385 1.8090169943749475 -6.0802022777086755
-1.1135163644116044 1.8090169943749475 -6.930853086060715
-1.376381920471171 1. -7.456584198179849
-2.0645728807067583 0.5 -6.930853086060716
-2.227032728823212 1. -6.080202277708676
-0.6881909602355838 -0.5 -7.982315310298983
-0.6881909602355838 0.5 -7.982315310298983
0.2628655560595698 0.8090169943749475 -7.982315310298982
0.8506508083520429 2.4846932768881226e-31 -7.982315310298981
0.2628655560595698 -0.8090169943749475 -7.982315310298982
-3.283919767939582 -0.4999999999999997 -0.8725389996759777
-2.8585943637635625 -0.8090169943749472 -1.723189808028018
-2.5957288077039955 1.7736940093059749e-16 -2.2489209201471514
-2.8585943637635625 0.8090169943749477 -1.7231898080280175
-3.283919767939582 0.5000000000000002 -0.8725389996759777
-1.6527751227211946 -2.468684797101935 -1.723189808028018
-0.8021243143691547 -2.468684797101935 -2.248920920147152
-0.11393335413356798 -2.968684797101935 -1.723189808028018
-0.5392587583095879 -3.2777017914768827 -0.872538999675978
-1.4903152746047414 -2.9686847971019352 -0.872538999675978
2.3628542742807195 -2.3347481064940814 -0.8725389996759777
2.950639526573193 -1.5257311121191337 -0.8725389996759776
2.7881796784567396 -1.0257311121191337 -1.723189808028018
2.0999887182211525 -1.5257311121191337 -2.2489209201471514
1.8371231621615858 -2.3347481064940814 -1.7231898080280175
2.3628542742807195 2.3347481064940814 -0.8725389996759777
2.950639526573193 1.5257311121191337 -0.8725389996759776
2.7881796784567396 1.0257311121191337 -1.723189808028018
2.0999887182211525 1.5257311121191337 -2.2489209201471514
1.8371231621615858 2.3347481064940814 -1.7231898080280175
-1.6527751227211946 2.468684797101935 -1.723189808028018
-0.8021243143691547 2.468684797101935 -2.248920920147152
-0.11393335413356798 2.968684797101935 -1.723189808028018
-0.5392587583095879 3.2777017914768827 -0.872538999675978
-1.4903152746047414 2.9686847971019352 -0.872538999675978
-2.362854274280719 -2.3347481064940814 0.8725389996759778
-1.8371231621615856 -2.3347481064940814 1.7231898080280177
-2.0999887182211525 -1.525731112119134 2.2489209201471514
-2.788179678456739 -1.025731112119134 1.723189808028018
-2.950639526573193 -1.525731112119134 0.8725389996759779
1.6527751227211946 -2.468684797101935 1.723189808028018
0.8021243143691547 -2.468684797101935 2.248920920147152
0.11393335413356798 -2.968684797101935 1.723189808028018
0.5392587583095879 -3.2777017914768827 0.8725389996759781
1.4903152746047414 -2.9686847971019352 0.8725389996759781
3.283919767939582 -0.4999999999999997 0.8725389996759778
2.8585943637635625 -0.8090169943749472 1.723189808028018
2.5957288077039955 1.7736940093059749e-16 2.2489209201471514
2.8585943637635625 0.8090169943749477 1.7231898080280175
3.283919767939582 0.5000000000000002 0.8725389996759778
1.6527751227211946 2.468684797101935 1.723189808028018
0.8021243143691547 2.468684797101935 2.248920920147152
0.11393335413356798 2.968684797101935 1.723189808028018
0.5392587583095879 3.2777017914768827 0.8725389996759781
1.4903152746047414 2.9686847971019352 0.8725389996759781
-2.362854274280719 2.3347481064940814 0.8725389996759778
-1.8371231621615856 2.3347481064940814 1.7231898080280177
-2.0999887182211525 1.525731112119134 2.2489209201471514
-2.788179678456739 1.025731112119134 1.723189808028018
-2.950639526573193 1.525731112119134 0.8725389996759779
-0.6881909602355868 -0.5 3.327438436766327
-0.6881909602355868 0.5 3.327438436766327
0.2628655560595668 0.8090169943749475 3.327438436766327
0.8506508083520399 -2.8647265203508606e-33 3.327438436766327
0.2628655560595668 -0.8090169943749475 3.327438436766327
-2.1924250898925024 0.3568220897730904 -2.59636179693896
-1.3417742815404627 0.35682208977309027 -3.122092909058093
-0.7539890292479896 1.1658390841480375 -3.122092909058093
-1.0168545853075561 1.974856078522985 -2.596361796938959
-1.8675053936595964 1.974856078522985 -2.0706306848198257
-2.4552906459520694 1.1658390841480377 -2.070630684819826
-2.1924250898925024 -0.3568220897730904 -2.59636179693896
-1.3417742815404627 -0.35682208977309027 -3.122092909058093
-0.7539890292479896 -1.1658390841480375 -3.122092909058093
-1.0168545853075561 -1.974856078522985 -2.596361796938959
-1.8675053936595964 -1.974856078522985 -2.0706306848198257
-2.4552906459520694 -1.1658390841480377 -2.070630684819826
1.5639743945562532 -1.577350269189626 -2.59636179693896
1.3011088384966867 -2.3863672635645736 -2.070630684819826
0.35005232220153293 -2.695384257939521 -2.070630684819826
-0.33813863803405386 -2.1953842579395206 -2.5963617969389596
-0.07527308197448712 -1.3863672635645732 -3.122092909058093
0.8757834343206665 -1.077350269189626 -3.122092909058093
1.295252958442273 0.4999999999999999 -3.122092909058093
1.9834439186778599 1. -2.59636179693896
2.6716348789134465 0.4999999999999998 -2.070630684819826
2.6716348789134465 -0.5000000000000001 -2.070630684819826
1.9834439186778596 -1.0000000000000002 -2.5963617969389596
1.295252958442273 -0.5000000000000001 -3.122092909058093
1.5639743945562532 1.577350269189626 -2.59636179693896
1.3011088384966867 2.3863672635645736 -2.070630684819826
0.35005232220153293 2.695384257939521 -2.070630684819826
-0.33813863803405386 2.1953842579395206 -2.5963617969389596
-0.07527308197448712 1.3863672635645732 -3.122092909058093
0.8757834343206665 1.077350269189626 -3.122092909058093
-1.5639743945562532 1.5773502691896257 2.5963617969389596
-1.3011088384966867 2.3863672635645736 2.0706306848198257
-0.3500523222015329 2.6953842579395206 2.0706306848198257
0.33813863803405386 2.1953842579395206 2.596361796938959
0.07527308197448712 1.3863672635645732 3.122092909058093
-0.8757834343206665 1.0773502691896257 3.122092909058093
2.1924250898925024 0.3568220897730904 2.59636179693896
1.3417742815404627 0.35682208977309027 3.122092909058093
0.7539890292479896 1.1658390841480375 3.122092909058093
1.0168545853075561 1.974856078522985 2.596361796938959
1.8675053936595964 1.974856078522985 2.0706306848198257
2.4552906459520694 1.1658390841480377 2.070630684819826
2.1924250898925024 -0.3568220897730904 2.59636179693896
1.3417742815404627 -0.35682208977309027 3.122092909058093
0.7539890292479896 -1.1658390841480375 3.122092909058093
1.0168545853075561 -1.974856078522985 2.596361796938959
1.8675053936595964 -1.974856078522985 2.0706306848198257
2.4552906459520694 -1.1658390841480377 2.070630684819826
-1.5639743945562532 -1.5773502691896257 2.5963617969389596
-1.3011088384966867 -2.3863672635645736 2.0706306848198257
-0.3500523222015329 -2.6953842579395206 2.0706306848198257
0.33813863803405386 -2.1953842579395206 2.596361796938959
0.07527308197448712 -1.3863672635645732 3.122092909058093
-0.8757834343206665 -1.0773502691896257 3.122092909058093
-2.671634878913447 0.49999999999999983 2.0706306848198266
-1.9834439186778599 1. 2.59636179693896
-1.295252958442273 0.49999999999999983 3.122092909058093
-1.2952529584422727 -0.5000000000000001 3.122092909058093
-1.9834439186778596 -1.0000000000000002 2.5963617969389596
-2.671634878913447 -0.5000000000000001 2.070630684819826
-3.02168720111498 -1.5773502691896257 0.2377329300909402
-2.4339019488225064 -2.386367263564573 0.2377329300909402
-2.0085765446464867 -2.695384257939521 -0.6129178782610997
-2.17103639276294 -2.195384257939521 -1.4635686866131397
-2.7588216450554133 -1.3863672635645734 -1.4635686866131397
-3.184147049231433 -1.077350269189626 -0.6129178782610998
-1.942778475634084 -2.743189353337663 0.6129178782611
-1.4170473635149505 -2.743189353337663 1.4635686866131399
-0.46599084721979694 -3.0522063477126107 1.46356868661314
-0.04066544304377695 -3.3612233420875586 0.6129178782611002
-0.5663965551629107 -3.3612233420875586 -0.23773293009093976
-1.5174530714580643 -3.0522063477126107 -0.23773293009093976
1.942778475634084 -2.743189353337663 -0.6129178782610999
1.4170473635149505 -2.743189353337663 -1.4635686866131399
0.46599084721979694 -3.0522063477126107 -1.4635686866131399
0.04066544304377695 -3.3612233420875586 -0.6129178782611001
0.5663965551629107 -3.3612233420875586 0.23773293009093988
1.5174530714580643 -3.0522063477126107 0.23773293009094
3.1841470492314325 -1.0773502691896253 0.6129178782610999
2.758821645055413 -1.3863672635645727 1.4635686866131397
2.1710363927629404 -2.1953842579395206 1.4635686866131397
2.008576544646487 -2.695384257939521 0.6129178782611
2.433901948822507 -2.386367263564573 -0.23773293009094
3.02168720111498 -1.5773502691896253 -0.2377329300909401
3.3717395233165126 0.4999999999999996 0.23773293009094032
3.20927967520006 0.9999999999999997 -0.6129178782610996
3.0468198270836067 0.4999999999999995 -1.4635686866131394
3.046819827083606 -0.5000000000000004 -1.4635686866131392
3.209279675200059 -1.0000000000000004 -0.6129178782610993
3.371739523316512 -0.5000000000000004 0.23773293009094043
3.1841470492314325 1.0773502691896253 0.6129178782610999
2.758821645055413 1.3863672635645727 1.4635686866131397
2.1710363927629404 2.1953842579395206 1.4635686866131397
2.008576544646487 2.695384257939521 0.6129178782611
2.433901948822507 2.386367263564573 -0.23773293009094
3.02168720111498 1.5773502691896253 -0.2377329300909401
1.942778475634084 2.743189353337663 -0.6129178782610999
1.4170473635149505 2.743189353337663 -1.4635686866131399
0.46599084721979694 3.0522063477126107 -1.4635686866131399
0.04066544304377695 3.3612233420875586 -0.6129178782611001
0.5663965551629107 3.3612233420875586 0.23773293009093988
1.5174530714580643 3.0522063477126107 0.23773293009094
-1.942778475634084 2.743189353337663 0.6129178782611
-1.4170473635149505 2.743189353337663 1.4635686866131399
-0.46599084721979694 3.0522063477126107 1.46356868661314
-0.04066544304377695 3.3612233420875586 0.6129178782611002
-0.5663965551629107 3.3612233420875586 -0.23773293009093976
-1.5174530714580643 3.0522063477126107 -0.23773293009093976
-3.02168720111498 1.5773502691896257 0.2377329300909402
-2.4339019488225064 2.386367263564573 0.2377329300909402
-2.0085765446464867 2.695384257939521 -0.6129178782610997
-2.17103639276294 2.195384257939521 -1.4635686866131397
-2.7588216450554133 1.3863672635645734 -1.4635686866131397
-3.184147049231433 1.077350269189626 -0.6129178782610998
-3.3717395233165126 0.49999999999999967 -0.23773293009094032
-3.20927967520006 0.9999999999999996 0.6129178782610996
-3.0468198270836067 0.49999999999999956 1.4635686866131394
-3.046819827083606 -0.5000000000000004 1.4635686866131392
-3.209279675200059 -1.0000000000000004 0.6129178782610994
-3.371739523316512 -0.5000000000000004 -0.23773293009094043
5 0 1 2 3 4
5 5 6 7 8 9
5 10 11 12 13 14
5 15 16 17 18 19
5 20 21 22 23 24
5 25 26 27 28 29
5 30 31 32 33 34
5 35 36 37 38 39
5 40 41 42 43 44
5 45 46 47 48 49
5 50 51 52 53 54
5 55 56 57 58 59
6 7 3 2 26 25 8
6 7 3 4 11 10 6
6 18 19 12 11 4 0
6 1 23 22 17 18 0
6 23 24 27 26 2 1
6 52 51 47 46 57 56
6 42 58 57 46 45 43
6 42 58 59 36 35 41
6 32 31 37 36 59 55
6 53 52 56 55 32 33
6 34 30 14 10 6 5
6 30 31 37 38 13 14
6 15 19 12 13 38 39
6 40 41 35 39 15 16
6 44 21 22 17 16 40
6 44 43 45 49 20 21
6 20 24 27 28 48 49
6 50 51 47 48 28 29
6 54 50 29 25 8 9
6 9 54 53 33 34 5
5 60 61 62 63 64
5 65 66 67 68 69
5 70 71 72 73 74
5 75 76 77 78 79
5 80 81 82 83 84
5 85 86 87 88 89
5 90 91 92 93 94
5 95 96 97 98 99
5 100 101 102 103 104
5 105 106 107 108 109
5 110 111 112 113 114
5 115 116 117 118 119
6 67 63 62 86 85 68
6 67 63 64 71 70 66
6 78 79 72 71 64 60
6 61 83 82 77 78 60
6 83 84 87 86 62 61
6 112 111 107 106 117 116
6 102 118 117 106 105 103
6 102 118 119 96 95 101
6 92 91 97 96 119 115
6 113 112 116 115 92 93
6 94 90 74 70 66 65
6 90 91 97 98 73 74
6 75 79 72 73 98 99
6 100 101 95 99 75 76
6 104 81 82 77 76 100
6 104 103 105 109 80 81
6 80 84 87 88 108 109
6 110 111 107 108 88 89
6 114 110 89 85 68 69
6 69 114 113 93 94 65
5 0 1 2 3 4
5 60 61 62 63 64
4 62 2 3 63
4 64 4 3 63
4 64 4 0 60
4 61 1 0 60
4 62 2 1 61
5 5 6 7 8 9
5 120 121 122 123 124
4 122 7 8 123
4 122 7 6 121
4 120 5 6 121
4 124 9 8 123
4 124 9 5 120
5 10 11 12 13 14
5 125 126 127 128 129
4 125 10 11 126
4 127 12 11 126
4 129 14 10 125
4 128 13 14 129
4 127 12 13 128
5 15 16 17 18 19
5 130 131 132 133 134
4 133 18 19 134
4 132 17 18 133
4 134 19 15 130
4 130 15 16 131
4 132 17 16 131
5 20 21 22 23 24
5 135 136 137 138 139
4 137 22 23 138
4 138 23 24 139
4 137 22 21 136
4 135 20 21 136
4 139 24 20 135
5 25 26 27 28 29
5 140 141 142 143 144
4 140 25 26 141
4 142 27 26 141
4 142 27 28 143
4 143 28 29 144
4 144 29 25 140
5 30 31 32 33 34
5 145 146 147 148 149
4 147 32 31 146
4 147 32 33 148
4 149 34 30 145
4 146 31 30 145
4 148 33 34 149
5 35 36 37 38 39
5 150 151 152 153 154
4 150 35 36 151
4 152 37 36 151
4 152 37 38 153
4 153 38 39 154
4 150 35 39 154
5 40 41 42 43 44
5 155 156 157 158 159
4 157 42 43 158
4 157 42 41 156
4 156 41 40 155
4 159 44 40 155
4 158 43 44 159
5 45 46 47 48 49
5 160 161 162 163 164
4 162 47 46 161
4 160 45 46 161
4 160 45 49 164
4 163 48 49 164
4 162 47 48 163
5 50 51 52 53 54
5 165 166 167 168 169
4 167 52 51 166
4 167 52 53 168
4 166 51 50 165
4 169 54 50 165
4 168 53 54 169
5 55 56 57 58 59
5 170 171 172 173 174
4 172 57 56 171
4 172 57 58 173
4 174 59 58 173
4 174 59 55 170
4 171 56 55 170
6 7 3 2 26 25 8
6 175 176 177 178 179 180
4 177 2 3 176
4 175 7 8 180
4 179 25 26 178
4 175 7 3 176
4 177 2 26 178
4 179 25 8 180
6 7 3 4 11 10 6
6 181 182 183 184 185 186
4 183 4 3 182
4 181 7 6 186
4 185 10 11 184
4 181 7 3 182
4 183 4 11 184
4 185 10 6 186
6 18 19 12 11 4 0
6 187 188 189 190 191 192
4 191 4 0 192
4 189 12 11 190
4 187 18 19 188
4 191 4 11 190
4 187 18 0 192
4 189 12 19 188
6 1 23 22 17 18 0
6 193 194 195 196 197 198
4 193 1 0 198
4 196 17 18 197
4 195 22 23 194
4 197 18 0 198
4 194 23 1 193
4 195 22 17 196
6 23 24 27 26 2 1
6 199 200 201 202 203 204
4 203 2 1 204
4 199 23 24 200
4 201 27 26 202
4 203 2 26 202
4 199 23 1 204
4 201 27 24 200
6 52 51 47 46 57 56
6 205 206 207 208 209 210
4 207 47 46 208
4 205 52 51 206
4 209 57 56 210
4 209 57 46 208
4 210 56 52 205
4 207 47 51 206
6 42 58 57 46 45 43
6 211 212 213 214 215 216
4 211 42 43 216
4 215 45 46 214
4 213 57 58 212
4 213 57 46 214
4 211 42 58 212
4 215 45 43 216
6 42 58 59 36 35 41
6 217 218 219 220 221 222
4 221 35 36 220
4 217 42 41 222
4 219 59 58 218
4 217 42 58 218
4 219 59 36 220
4 221 35 41 222
6 32 31 37 36 59 55
6 223 224 225 226 227 228
4 223 32 31 224
4 225 37 36 226
4 227 59 55 228
4 227 59 36 226
4 228 55 32 223
4 225 37 31 224
6 53 52 56 55 32 33
6 229 230 231 232 233 234
4 233 32 33 234
4 230 52 53 229
4 231 56 55 232
4 231 56 52 230
4 232 55 32 233
4 229 53 33 234
6 34 30 14 10 6 5
6 235 236 237 238 239 240
4 240 5 6 239
4 237 14 10 238
4 235 34 30 236
4 238 10 6 239
4 237 14 30 236
4 235 34 5 240
6 30 31 37 38 13 14
6 241 242 243 244 245 246
4 245 13 14 246
4 242 31 30 241
4 243 37 38 244
4 243 37 31 242
4 246 14 30 241
4 244 38 13 245
6 15 19 12 13 38 39
6 247 248 249 250 251 252
4 249 12 13 250
4 248 19 15 247
4 251 38 39 252
4 249 12 19 248
4 251 38 13 250
4 252 39 15 247
6 40 41 35 39 15 16
6 253 254 255 256 257 258
4 257 15 16 258
4 255 35 39 256
4 254 41 40 253
4 255 35 41 254
4 256 39 15 257
4 253 40 16 258
6 44 21 22 17 16 40
6 259 260 261 262 263 264
4 262 17 16 263
4 261 22 21 260
4 259 44 40 264
4 261 22 17 262
4 264 40 16 263
4 259 44 21 260
6 44 43 45 49 20 21
6 265 266 267 268 269 270
4 269 20 21 270
4 266 43 44 265
4 267 45 49 268
4 267 45 43 266
4 265 44 21 270
4 268 49 20 269
6 20 24 27 28 48 49
6 271 272 273 274 275 276
4 272 24 20 271
4 273 27 28 274
4 275 48 49 276
4 273 27 24 272
4 276 49 20 271
4 275 48 28 274
6 50 51 47 48 28 29
6 277 278 279 280 281 282
4 281 28 29 282
4 279 47 48 280
4 278 51 50 277
4 279 47 51 278
4 280 48 28 281
4 282 29 50 277
6 54 50 29 25 8 9
6 283 284 285 286 287 288
4 288 9 8 287
4 285 29 25 286
4 283 54 50 284
4 286 25 8 287
4 285 29 50 284
4 283 54 9 288
6 9 54 53 33 34 5
6 289 290 291 292 293 294
4 289 9 5 294
4 292 33 34 293
4 291 53 54 290
4 291 53 33 292
4 293 34 5 294
4 290 54 9 289
# cell 1: 0 1 2 3 4 5 6 7 8 9 10 11 12 13 14 15 16 17 18 19 20 21 22 23 24 25 26 27 28 29 30 31
# cell 2: 32 33 34 35 36 37 38 39 40 41 42 43 44 45 46 47 48 49 50 51 52 53 54 55 56 57 58 59 60 61 62 63
# cell 3: 64 65 66 67 68 69 70
# cell 4: 71 72 73 74 75 76 77
# cell 5: 78 79 80 81 82 83 84
# cell 6: 85 86 87 88 89 90 91
# cell 7: 92 93 94 95 96 97 98
# cell 8: 99 100 101 102 103 104 105
# cell 9: 106 107 108 109 110 111 112
# cell 10: 113 114 115 116 117 118 119
# cell 11: 120 121 122 123 124 125 126
# cell 12: 127 128 129 130 131 132 133
# cell 13: 134 135 136 137 138 139 140
# cell 14: 141 142 143 144 145 146 147
# cell 15: 148 149 150 151 152 153 154 155
# cell 16: 156 157 158 159 160 161 162 163
# cell 17: 164 165 166 167 168 169 170 171
# cell 18: 172 173 174 175 176 177 178 179
# cell 19: 180 181 182 183 184 185 186 187
# cell 20: 188 189 190 191 192 193 194 195
# cell 21: 196 197 198 199 200 201 202 203
# cell 22: 204 205 206 207 208 209 210 211
# cell 23: 212 213 214 215 216 217 218 219
# cell 24: 220 221 222 223 224 225 226 227
# cell 25: 228 229 230 231 232 233 234 235
# cell 26: 236 237 238 239 240 241 242 243
# cell 27: 244 245 246 247 248 249 250 251
# cell 28: 252 253 254 255 256 257 258 259
# cell 29: 260 261 262 263 264 265 266 267
# cell 30: 268 269 270 271 272 273 274 275
# cell 31: 276 277 278 279 280 281 282 283
# cell 32: 284 285 286 287 288 289 290 291
# cell 33: 292 293 294 295 296 297 298 299
# cell 34: 300 301 302 303 304 305 306 307