OFF
# face-rotation BFS net; polygonal faces are preserved
# the cell decomposition is listed below as comments
236 248 0
-1.9142135623730951 0.5 1.2071067811865475
-1.2071067811865475 0.5 1.9142135623730951
-1.2071067811865475 -0.5 1.9142135623730951
-1.9142135623730951 -0.5 1.2071067811865475
-0.5 1.2071067811865475 1.9142135623730951
0.5 1.2071067811865475 1.9142135623730951
0.5 1.9142135623730951 1.2071067811865475
-0.5 1.9142135623730951 1.2071067811865475
1.9142135623730951 0.5 1.2071067811865475
1.2071067811865475 0.5 1.9142135623730951
1.2071067811865475 -0.5 1.9142135623730951
1.9142135623730951 -0.5 1.2071067811865475
-0.5 -1.2071067811865475 1.9142135623730951
0.5 -1.2071067811865475 1.9142135623730951
0.5 -1.9142135623730951 1.2071067811865475
-0.5 -1.9142135623730951 1.2071067811865475
-1.9142135623730951 0.5 -1.2071067811865475
-1.2071067811865475 0.5 -1.9142135623730951
-1.2071067811865475 -0.5 -1.9142135623730951
-1.9142135623730951 -0.5 -1.2071067811865475
-0.5 1.2071067811865475 -1.9142135623730951
0.5 1.2071067811865475 -1.9142135623730951
0.5 1.9142135623730951 -1.2071067811865475
-0.5 1.9142135623730951 -1.2071067811865475
1.9142135623730951 0.5 -1.2071067811865475
1.2071067811865475 0.5 -1.9142135623730951
1.2071067811865475 -0.5 -1.9142135623730951
1.9142135623730951 -0.5 -1.2071067811865475
-0.5 -1.2071067811865475 -1.9142135623730951
0.5 -1.2071067811865475 -1.9142135623730951
0.5 -1.9142135623730951 -1.2071067811865475
-0.5 -1.9142135623730951 -1.2071067811865475
-1.9142135623730951 -1.2071067811865475 0.5
-1.2071067811865475 -1.9142135623730951 0.5
-1.2071067811865475 -1.9142135623730951 -0.5
-1.9142135623730951 -1.2071067811865475 -0.5
1.9142135623730951 1.2071067811865475 0.5
1.2071067811865475 1.9142135623730951 0.5
1.2071067811865475 1.9142135623730951 -0.5
1.9142135623730951 1.2071067811865475 -0.5
-1.9142135623730951 1.2071067811865475 0.5
-1.2071067811865475 1.9142135623730951 0.5
-1.2071067811865475 1.9142135623730951 -0.5
-1.9142135623730951 1.2071067811865475 -0.5
1.9142135623730951 -1.2071067811865475 0.5
1.2071067811865475 -1.9142135623730951 0.5
1.2071067811865475 -1.9142135623730951 -0.5
1.9142135623730951 -1.2071067811865475 -0.5
-2.621320343559643 0.49999999999999994 1.9142135623730951
-1.9142135623730951 0.49999999999999994 2.621320343559643
-1.9142135623730951 -0.5 2.621320343559643
-2.621320343559643 -0.5 1.9142135623730951
-1.9142135623730951 1.2071067811865475 3.3284271247461903
-1.9142135623730951 1.2071067811865475 4.32842712474619
-2.621320343559643 1.9142135623730951 4.32842712474619
-2.621320343559643 1.9142135623730951 3.3284271247461903
-2.621320343559643 0.49999999999999994 5.742640687119285
-1.914213562373095 0.49999999999999994 5.035533905932738
-1.914213562373095 -0.5 5.035533905932738
-2.621320343559643 -0.5 5.742640687119285
-1.9142135623730951 -1.2071067811865475 3.3284271247461903
-1.9142135623730951 -1.2071067811865475 4.32842712474619
-2.621320343559643 -1.9142135623730951 4.32842712474619
-2.621320343559643 -1.9142135623730951 3.3284271247461903
-5.035533905932738 0.49999999999999994 1.9142135623730951
-5.742640687119286 0.49999999999999994 2.621320343559643
-5.742640687119286 -0.5 2.621320343559643
-5.035533905932738 -0.5 1.9142135623730951
-5.742640687119285 1.2071067811865475 3.32842712474619
-5.742640687119285 1.2071067811865475 4.32842712474619
-5.035533905932738 1.9142135623730951 4.32842712474619
-5.035533905932738 1.9142135623730951 3.3284271247461903
-5.035533905932738 0.49999999999999994 5.742640687119285
-5.742640687119285 0.49999999999999994 5.035533905932737
-5.742640687119285 -0.5 5.035533905932737
-5.035533905932738 -0.5 5.742640687119285
-5.742640687119285 -1.2071067811865475 3.32842712474619
-5.742640687119285 -1.2071067811865475 4.32842712474619
-5.035533905932738 -1.9142135623730951 4.32842712474619
-5.035533905932738 -1.9142135623730951 3.3284271247461903
-3.3284271247461903 -1.2071067811865475 1.9142135623730951
-3.3284271247461903 -1.9142135623730951 2.621320343559643
-4.32842712474619 -1.9142135623730951 2.621320343559643
-4.32842712474619 -1.2071067811865475 1.9142135623730951
-3.32842712474619 1.2071067811865475 5.742640687119285
-3.3284271247461903 1.9142135623730951 5.035533905932738
-4.32842712474619 1.9142135623730951 5.035533905932738
-4.32842712474619 1.2071067811865475 5.742640687119285
-3.3284271247461903 1.2071067811865475 1.9142135623730951
-3.3284271247461903 1.9142135623730951 2.621320343559643
-4.32842712474619 1.9142135623730951 2.621320343559643
-4.32842712474619 1.2071067811865475 1.9142135623730951
-3.32842712474619 -1.2071067811865475 5.742640687119285
-3.32842712474619 -1.9142135623730951 5.035533905932738
-4.32842712474619 -1.9142135623730951 5.035533905932738
-4.32842712474619 -1.2071067811865475 5.742640687119285
-0.49999999999999994 1.914213562373095 2.621320343559643
0.5 1.914213562373095 2.621320343559643
0.5 2.621320343559643 1.9142135623730954
-0.49999999999999994 2.621320343559643 1.9142135623730954
2.621320343559643 0.4999999999999999 1.9142135623730954
1.914213562373095 0.4999999999999999 2.621320343559643
1.914213562373095 -0.5 2.621320343559643
2.621320343559643 -0.5 1.9142135623730954
-0.49999999999999994 -1.914213562373095 2.621320343559643
0.5 -1.914213562373095 2.621320343559643
0.5 -2.621320343559643 1.9142135623730954
-0.49999999999999994 -2.621320343559643 1.9142135623730954
-2.621320343559643 0.4999999999999999 -1.914213562373095
-1.914213562373095 0.4999999999999999 -2.621320343559643
-1.914213562373095 -0.5 -2.621320343559643
-2.621320343559643 -0.5 -1.914213562373095
-0.49999999999999994 1.914213562373095 -2.621320343559643
0.5 1.914213562373095 -2.621320343559643
0.5 2.621320343559643 -1.9142135623730954
-0.49999999999999994 2.621320343559643 -1.9142135623730954
2.621320343559643 0.4999999999999999 -1.9142135623730954
1.914213562373095 0.4999999999999999 -2.621320343559643
1.914213562373095 -0.5 -2.621320343559643
2.621320343559643 -0.5 -1.9142135623730954
-0.49999999999999994 -1.914213562373095 -2.621320343559643
0.5 -1.914213562373095 -2.621320343559643
0.5 -2.621320343559643 -1.9142135623730954
-0.49999999999999994 -2.621320343559643 -1.9142135623730954
-2.621320343559643 -1.914213562373095 0.5
-1.914213562373095 -2.621320343559643 0.5
-1.914213562373095 -2.621320343559643 -0.5
-2.621320343559643 -1.914213562373095 -0.5
2.621320343559643 1.9142135623730954 0.5
1.914213562373095 2.621320343559643 0.5
1.914213562373095 2.621320343559643 -0.5
2.621320343559643 1.9142135623730954 -0.5
-2.621320343559643 1.914213562373095 0.5
-1.914213562373095 2.621320343559643 0.5
-1.914213562373095 2.621320343559643 -0.5
-2.621320343559643 1.914213562373095 -0.5
2.621320343559643 -1.9142135623730954 0.5
1.914213562373095 -2.621320343559643 0.5
1.914213562373095 -2.621320343559643 -0.5
2.621320343559643 -1.9142135623730954 -0.5
-1.2071067811865475 0.5 2.9142135623730954
-1.2071067811865475 -0.5 2.9142135623730954
-0.5000000000000002 -1.2071067811865475 2.9142135623730954
0.4999999999999998 -1.2071067811865475 2.914213562373096
1.2071067811865475 -0.5 2.914213562373096
1.2071067811865475 0.5 2.914213562373096
0.4999999999999998 1.2071067811865475 2.914213562373096
-0.5000000000000002 1.2071067811865475 2.9142135623730954
-1.2071067811865475 0.5 -2.9142135623730954
-1.2071067811865475 -0.5 -2.9142135623730954
-0.5000000000000002 -1.2071067811865475 -2.9142135623730954
0.4999999999999998 -1.2071067811865475 -2.914213562373096
1.2071067811865475 -0.5 -2.914213562373096
1.2071067811865475 0.5 -2.914213562373096
0.4999999999999998 1.2071067811865475 -2.914213562373096
-0.5000000000000002 1.2071067811865475 -2.9142135623730954
-2.9142135623730954 -1.2071067811865475 0.5
-2.9142135623730954 -1.2071067811865475 -0.5
-2.9142135623730954 -0.5000000000000002 -1.2071067811865475
-2.914213562373096 0.4999999999999998 -1.2071067811865475
-2.914213562373096 1.2071067811865475 -0.5
-2.914213562373096 1.2071067811865475 0.5
-2.914213562373096 0.4999999999999998 1.2071067811865475
-2.9142135623730954 -0.5000000000000002 1.2071067811865475
2.9142135623730954 -1.2071067811865475 0.5
2.9142135623730954 -1.2071067811865475 -0.5
2.9142135623730954 -0.5000000000000002 -1.2071067811865475
2.914213562373096 0.4999999999999998 -1.2071067811865475
2.914213562373096 1.2071067811865475 -0.5
2.914213562373096 1.2071067811865475 0.5
2.914213562373096 0.4999999999999998 1.2071067811865475
2.9142135623730954 -0.5000000000000002 1.2071067811865475
-1.2071067811865475 -2.9142135623730954 0.5
-1.2071067811865475 -2.9142135623730954 -0.5
-0.5000000000000002 -2.9142135623730954 -1.2071067811865475
0.4999999999999998 -2.914213562373096 -1.2071067811865475
1.2071067811865475 -2.914213562373096 -0.5
1.2071067811865475 -2.914213562373096 0.5
0.4999999999999998 -2.914213562373096 1.2071067811865475
-0.5000000000000002 -2.9142135623730954 1.2071067811865475
-1.2071067811865475 2.9142135623730954 0.5
-1.2071067811865475 2.9142135623730954 -0.5
-0.5000000000000002 2.9142135623730954 -1.2071067811865475
0.4999999999999998 2.914213562373096 -1.2071067811865475
1.2071067811865475 2.914213562373096 -0.5
1.2071067811865475 2.914213562373096 0.5
0.4999999999999998 2.914213562373096 1.2071067811865475
-0.5000000000000002 2.9142135623730954 1.2071067811865475
-2.491563831562721 -1.0773502691896257 -1.7844570503761734
-1.7844570503761732 -1.0773502691896255 -2.491563831562721
-1.0773502691896257 -1.7844570503761732 -2.491563831562721
-1.077350269189626 -2.491563831562721 -1.7844570503761736
-1.7844570503761734 -2.491563831562721 -1.0773502691896262
-2.491563831562721 -1.7844570503761732 -1.0773502691896262
2.491563831562721 -1.0773502691896257 -1.7844570503761732
1.7844570503761732 -1.0773502691896257 -2.491563831562721
1.077350269189626 -1.7844570503761732 -2.491563831562721
1.0773502691896262 -2.491563831562721 -1.7844570503761734
1.7844570503761734 -2.491563831562721 -1.077350269189626
2.491563831562721 -1.7844570503761732 -1.077350269189626
-2.491563831562721 1.0773502691896257 -1.7844570503761734
-1.7844570503761732 1.0773502691896255 -2.491563831562721
-1.0773502691896257 1.7844570503761732 -2.491563831562721
-1.077350269189626 2.491563831562721 -1.7844570503761736
-1.7844570503761734 2.491563831562721 -1.0773502691896262
-2.491563831562721 1.7844570503761732 -1.0773502691896262
2.491563831562721 1.0773502691896257 -1.7844570503761732
1.7844570503761732 1.0773502691896257 -2.491563831562721
1.077350269189626 1.7844570503761732 -2.491563831562721
1.0773502691896262 2.491563831562721 -1.7844570503761734
1.7844570503761734 2.491563831562721 -1.077350269189626
2.491563831562721 1.7844570503761732 -1.077350269189626
-2.491563831562721 -1.0773502691896257 1.7844570503761734
-1.7844570503761732 -1.0773502691896255 2.491563831562721
-1.0773502691896257 -1.7844570503761732 2.491563831562721
-1.077350269189626 -2.491563831562721 1.7844570503761736
-1.7844570503761734 -2.491563831562721 1.0773502691896262
-2.491563831562721 -1.7844570503761732 1.0773502691896262
2.491563831562721 -1.0773502691896257 1.7844570503761732
1.7844570503761732 -1.0773502691896257 2.491563831562721
1.077350269189626 -1.7844570503761732 2.491563831562721
1.0773502691896262 -2.491563831562721 1.7844570503761734
1.7844570503761734 -2.491563831562721 1.077350269189626
2.491563831562721 -1.7844570503761732 1.077350269189626
-2.491563831562721 1.0773502691896257 1.7844570503761734
-1.7844570503761732 1.0773502691896255 2.491563831562721
-1.0773502691896257 1.7844570503761732 2.491563831562721
-1.077350269189626 2.491563831562721 1.7844570503761736
-1.7844570503761734 2.491563831562721 1.0773502691896262
-2.491563831562721 1.7844570503761732 1.0773502691896262
2.491563831562721 1.0773502691896257 1.7844570503761732
1.7844570503761732 1.0773502691896257 2.491563831562721
1.077350269189626 1.7844570503761732 2.491563831562721
1.0773502691896262 2.491563831562721 1.7844570503761734
1.7844570503761734 2.491563831562721 1.077350269189626
2.491563831562721 1.7844570503761732 1.077350269189626
4 0 1 2 3
4 4 5 6 7
4 8 9 10 11
4 12 13 14 15
4 16 17 18 19
4 20 21 22 23
4 24 25 26 27
4 28 29 30 31
4 32 33 34 35
4 36 37 38 39
4 40 41 42 43
4 44 45 46 47
8 1 2 12 13 10 9 5 4
8 17 18 28 29 26 25 21 20
8 32 35 19 16 43 40 0 3
8 44 47 27 24 39 36 8 11
8 33 34 31 30 46 45 14 15
8 41 42 23 22 38 37 6 7
6 19 18 28 31 34 35
6 27 26 29 30 46 47
6 16 17 20 23 42 43
6 24 25 21 22 38 39
6 3 2 12 15 33 32
6 11 10 13 14 45 44
6 0 1 4 7 41 40
6 8 9 5 6 37 36
4 48 49 50 51
4 52 53 54 55
4 56 57 58 59
4 60 61 62 63
4 64 65 66 67
4 68 69 70 71
4 72 73 74 75
4 76 77 78 79
4 80 81 82 83
4 84 85 86 87
4 88 89 90 91
4 92 93 94 95
8 49 50 60 61 58 57 53 52
8 65 66 76 77 74 73 69 68
8 80 83 67 64 91 88 48 51
8 92 95 75 72 87 84 56 59
8 81 82 79 78 94 93 62 63
8 89 90 71 70 86 85 54 55
6 67 66 76 79 82 83
6 75 74 77 78 94 95
6 64 65 68 71 90 91
6 72 73 69 70 86 87
6 51 50 60 63 81 80
6 59 58 61 62 93 92
6 48 49 52 55 89 88
6 56 57 53 54 85 84
4 0 1 2 3
4 48 49 50 51
4 49 1 2 50
4 48 0 3 51
4 50 2 3 51
4 49 1 0 48
4 4 5 6 7
4 96 97 98 99
4 97 5 4 96
4 98 6 7 99
4 96 4 7 99
4 97 5 6 98
4 8 9 10 11
4 100 101 102 103
4 101 9 10 102
4 100 8 11 103
4 102 10 11 103
4 101 9 8 100
4 12 13 14 15
4 104 105 106 107
4 105 13 12 104
4 106 14 15 107
4 104 12 15 107
4 105 13 14 106
4 16 17 18 19
4 108 109 110 111
4 109 17 18 110
4 108 16 19 111
4 110 18 19 111
4 109 17 16 108
4 20 21 22 23
4 112 113 114 115
4 113 21 20 112
4 114 22 23 115
4 112 20 23 115
4 113 21 22 114
4 24 25 26 27
4 116 117 118 119
4 117 25 26 118
4 116 24 27 119
4 118 26 27 119
4 117 25 24 116
4 28 29 30 31
4 120 121 122 123
4 121 29 28 120
4 122 30 31 123
4 120 28 31 123
4 121 29 30 122
4 32 33 34 35
4 124 125 126 127
4 124 32 35 127
4 125 33 34 126
4 126 34 35 127
4 125 33 32 124
4 36 37 38 39
4 128 129 130 131
4 128 36 39 131
4 129 37 38 130
4 130 38 39 131
4 129 37 36 128
4 40 41 42 43
4 132 133 134 135
4 132 40 43 135
4 133 41 42 134
4 134 42 43 135
4 133 41 40 132
4 44 45 46 47
4 136 137 138 139
4 136 44 47 139
4 137 45 46 138
4 138 46 47 139
4 137 45 44 136
8 1 2 12 13 10 9 5 4
8 140 141 142 143 144 145 146 147
4 140 1 2 141
4 146 5 4 147
4 145 9 10 144
4 143 13 12 142
4 142 12 2 141
4 143 13 10 144
4 147 4 1 140
4 146 5 9 145
8 17 18 28 29 26 25 21 20
8 148 149 150 151 152 153 154 155
4 148 17 18 149
4 154 21 20 155
4 153 25 26 152
4 151 29 28 150
4 150 28 18 149
4 151 29 26 152
4 155 20 17 148
4 154 21 25 153
8 32 35 19 16 43 40 0 3
8 156 157 158 159 160 161 162 163
4 162 0 3 163
4 159 16 19 158
4 156 32 35 157
4 161 40 43 160
4 158 19 35 157
4 159 16 43 160
4 163 3 32 156
4 162 0 40 161
8 44 47 27 24 39 36 8 11
8 164 165 166 167 168 169 170 171
4 170 8 11 171
4 167 24 27 166
4 169 36 39 168
4 164 44 47 165
4 166 27 47 165
4 167 24 39 168
4 171 11 44 164
4 170 8 36 169
8 33 34 31 30 46 45 14 15
8 172 173 174 175 176 177 178 179
4 178 14 15 179
4 175 30 31 174
4 172 33 34 173
4 177 45 46 176
4 174 31 34 173
4 175 30 46 176
4 179 15 33 172
4 178 14 45 177
8 41 42 23 22 38 37 6 7
8 180 181 182 183 184 185 186 187
4 186 6 7 187
4 183 22 23 182
4 185 37 38 184
4 180 41 42 181
4 182 23 42 181
4 183 22 38 184
4 187 7 41 180
4 186 6 37 185
6 19 18 28 31 34 35
6 188 189 190 191 192 193
4 189 18 19 188
4 190 28 31 191
4 192 34 35 193
4 190 28 18 189
4 188 19 35 193
4 191 31 34 192
6 27 26 29 30 46 47
6 194 195 196 197 198 199
4 195 26 27 194
4 196 29 30 197
4 198 46 47 199
4 196 29 26 195
4 194 27 47 199
4 197 30 46 198
6 16 17 20 23 42 43
6 200 201 202 203 204 205
4 201 17 16 200
4 202 20 23 203
4 204 42 43 205
4 202 20 17 201
4 200 16 43 205
4 203 23 42 204
6 24 25 21 22 38 39
6 206 207 208 209 210 211
4 208 21 22 209
4 207 25 24 206
4 210 38 39 211
4 208 21 25 207
4 206 24 39 211
4 209 22 38 210
6 3 2 12 15 33 32
6 212 213 214 215 216 217
4 213 2 3 212
4 214 12 15 215
4 216 33 32 217
4 214 12 2 213
4 212 3 32 217
4 215 15 33 216
6 11 10 13 14 45 44
6 218 219 220 221 222 223
4 219 10 11 218
4 220 13 14 221
4 222 45 44 223
4 220 13 10 219
4 218 11 44 223
4 221 14 45 222
6 0 1 4 7 41 40
6 224 225 226 227 228 229
4 225 1 0 224
4 226 4 7 227
4 228 41 40 229
4 226 4 1 225
4 224 0 40 229
4 227 7 41 228
6 8 9 5 6 37 36
6 230 231 232 233 234 235
4 232 5 6 233
4 231 9 8 230
4 234 37 36 235
4 232 5 9 231
4 230 8 36 235
4 233 6 37 234
# cell 1: 0 1 2 3 4 5 6 7 8 9 10 11 12 13 14 15 16 17 18 19 20 21 22 23 24 25
# cell 2: 26 27 28 29 30 31 32 33 34 35 36 37 38 39 40 41 42 43 44 45 46 47 48 49 50 51
# cell 3: 52 53 54 55 56 57
# cell 4: 58 59 60 61 62 63
# cell 5: 64 65 66 67 68 69
# cell 6: 70 71 72 73 74 75
# cell 7: 76 77 78 79 80 81
# cell 8: 82 83 84 85 86 87
# cell 9: 88 89 90 91 92 93
# cell 10: 94 95 96 97 98 99
# cell 11: 100 101 102 103 104 105
# cell 12: 106 107 108 109 110 111
# cell 13: 112 113 114 115 116 117
# cell 14: 118 119 120 121 122 123
# cell 15: 124 125 126 127 128 129 130 131 132 133
# cell 16: 134 135 136 137 138 139 140 141 142 143
# cell 17: 144 145 146 147 148 149 150 151 152 153
# cell 18: 154 155 156 157 158 159 160 161 162 163
# cell 19: 164 165 166 167 168 169 170 171 172 173
# cell 20: 174 175 176 177 178 179 180 181 182 183
# cell 21: 184 185 186 187 188 189 190 191
# cell 22: 192 193 194 195 196 197 198 199
# cell 23: 200 201 202 203 204 205 206 207
# cell 24: 208 209 210 211 212 213 214 215
# cell 25: 216 217 218 219 220 221 222 223
# cell 26: 224 225 226 227 228 229 230 231
# cell 27: 232 233 234 235 236 237 238 239
# cell 28: 240 241 242 243 244 245 246 247