OFF
# face-rotation BFS net; polygonal faces are preserved
# the cell decomposition is listed below as comments
590 608 0
3.118033988749895 -0.5 -2.118033988749895
3.118033988749895 0.5 -2.118033988749895
2.618033988749895 1.3090169943749475 -2.4270509831248424
1.8090169943749477 1.618033988749895 -2.9270509831248424
1.0000000000000002 1.3090169943749475 -3.4270509831248424
0.5000000000000002 0.5 -3.73606797749979
0.5000000000000002 -0.5 -3.73606797749979
1.0000000000000002 -1.3090169943749475 -3.4270509831248424
1.8090169943749477 -1.618033988749895 -2.9270509831248424
2.618033988749895 -1.3090169943749475 -2.4270509831248424
-3.118033988749895 0.5 2.118033988749895
-2.618033988749895 1.3090169943749475 2.4270509831248424
-1.8090169943749472 1.618033988749895 2.9270509831248424
-0.9999999999999998 1.3090169943749475 3.4270509831248424
-0.4999999999999998 0.5 3.73606797749979
-0.4999999999999998 -0.5 3.73606797749979
-0.9999999999999998 -1.3090169943749475 3.4270509831248424
-1.8090169943749472 -1.618033988749895 2.9270509831248424
-2.618033988749895 -1.3090169943749475 2.4270509831248424
-3.118033988749895 -0.5 2.118033988749895
-0.4999999999999998 2.118033988749895 -3.118033988749895
0.5000000000000002 2.118033988749895 -3.118033988749895
-0.4999999999999998 0.5 -3.73606797749979
-0.9999999999999998 1.3090169943749475 -3.4270509831248424
-0.4999999999999998 -2.118033988749895 3.118033988749895
0.5000000000000002 -2.118033988749895 3.118033988749895
1.0000000000000002 -1.3090169943749475 3.4270509831248424
0.5000000000000002 -0.5 3.73606797749979
2.118033988749895 3.118033988749895 -0.5
2.118033988749895 3.118033988749895 0.5
2.4270509831248424 2.618033988749895 1.3090169943749475
2.9270509831248424 1.8090169943749475 1.618033988749895
3.4270509831248424 1. 1.3090169943749475
3.73606797749979 0.5 0.5
3.73606797749979 0.5 -0.5
3.4270509831248424 1. -1.3090169943749475
2.9270509831248424 1.8090169943749475 -1.618033988749895
2.4270509831248424 2.618033988749895 -1.3090169943749475
-3.73606797749979 -0.5 -0.5
-3.73606797749979 -0.5 0.5
-3.4270509831248424 -1. 1.3090169943749475
-2.9270509831248424 -1.8090169943749475 1.618033988749895
-2.4270509831248424 -2.618033988749895 1.3090169943749475
-2.118033988749895 -3.118033988749895 0.5
-2.118033988749895 -3.118033988749895 -0.5
-2.4270509831248424 -2.618033988749895 -1.3090169943749475
-2.9270509831248424 -1.8090169943749475 -1.618033988749895
-3.4270509831248424 -1. -1.3090169943749475
-3.73606797749979 0.5 -0.5
-3.73606797749979 0.5 0.5
-3.4270509831248424 1. 1.3090169943749475
-2.9270509831248424 1.8090169943749475 1.618033988749895
-2.4270509831248424 2.618033988749895 1.3090169943749475
-2.118033988749895 3.118033988749895 0.5
-2.118033988749895 3.118033988749895 -0.5
-2.4270509831248424 2.618033988749895 -1.3090169943749475
-2.9270509831248424 1.8090169943749475 -1.618033988749895
-3.4270509831248424 1. -1.3090169943749475
2.118033988749895 -3.118033988749895 -0.5
2.118033988749895 -3.118033988749895 0.5
2.4270509831248424 -2.618033988749895 1.3090169943749475
2.9270509831248424 -1.8090169943749475 1.618033988749895
3.4270509831248424 -1. 1.3090169943749475
3.73606797749979 -0.5 0.5
3.73606797749979 -0.5 -0.5
3.4270509831248424 -1. -1.3090169943749475
2.9270509831248424 -1.8090169943749475 -1.618033988749895
2.4270509831248424 -2.618033988749895 -1.3090169943749475
-0.4999999999999998 2.118033988749895 3.118033988749895
0.5000000000000002 2.118033988749895 3.118033988749895
1.0000000000000002 1.3090169943749475 3.4270509831248424
0.5000000000000002 0.5 3.73606797749979
-0.4999999999999998 -2.118033988749895 -3.118033988749895
0.5000000000000002 -2.118033988749895 -3.118033988749895
-0.4999999999999998 -0.5 -3.73606797749979
-0.9999999999999998 -1.3090169943749475 -3.4270509831248424
3.118033988749895 -0.5 2.118033988749895
3.118033988749895 0.5 2.118033988749895
2.618033988749895 1.3090169943749475 2.4270509831248424
1.8090169943749477 1.618033988749895 2.9270509831248424
1.8090169943749477 -1.618033988749895 2.9270509831248424
2.618033988749895 -1.3090169943749475 2.4270509831248424
-3.118033988749895 0.5 -2.118033988749895
-2.618033988749895 1.3090169943749475 -2.4270509831248424
-1.8090169943749472 1.618033988749895 -2.9270509831248424
-1.8090169943749472 -1.618033988749895 -2.9270509831248424
-2.618033988749895 -1.3090169943749475 -2.4270509831248424
-3.118033988749895 -0.5 -2.118033988749895
-1.3090169943749472 -2.4270509831248424 2.618033988749895
-1.6180339887498947 -2.9270509831248424 1.8090169943749475
1.6180339887498951 2.9270509831248424 -1.8090169943749475
1.3090169943749477 2.4270509831248424 -2.618033988749895
1.3090169943749477 -2.4270509831248424 -2.618033988749895
-1.3090169943749472 2.4270509831248424 2.618033988749895
-1.3090169943749472 2.4270509831248424 -2.618033988749895
1.3090169943749477 -2.4270509831248424 2.618033988749895
1.6180339887498951 2.9270509831248424 1.8090169943749475
1.3090169943749477 2.4270509831248424 2.618033988749895
-1.3090169943749472 -2.4270509831248424 -2.618033988749895
-1.6180339887498947 -2.9270509831248424 -1.8090169943749475
1.3090169943749477 3.4270509831248424 1.
0.5000000000000002 3.73606797749979 0.5
0.5000000000000002 3.73606797749979 -0.5
1.3090169943749477 3.4270509831248424 -1.
-1.3090169943749472 -3.4270509831248424 1.
-0.4999999999999998 -3.73606797749979 0.5
-0.4999999999999998 -3.73606797749979 -0.5
-1.3090169943749472 -3.4270509831248424 -1.
-1.6180339887498947 2.9270509831248424 -1.8090169943749475
1.6180339887498951 -2.9270509831248424 1.8090169943749475
-1.6180339887498947 2.9270509831248424 1.8090169943749475
-1.3090169943749472 3.4270509831248424 1.
-0.4999999999999998 3.73606797749979 0.5
0.5000000000000002 -3.73606797749979 -0.5
1.3090169943749477 -3.4270509831248424 -1.
1.6180339887498951 -2.9270509831248424 -1.8090169943749475
0.5000000000000002 -3.73606797749979 0.5
1.3090169943749477 -3.4270509831248424 1.
-1.3090169943749472 3.4270509831248424 -1.
-0.4999999999999998 3.73606797749979 -0.5
3.6437651008690284 -0.49999999999999994 -2.968684797101934
3.6437651008690284 0.5 -2.968684797101934
3.143765100869028 1.3090169943749475 -3.277701791476882
2.3347481064940805 1.618033988749895 -3.7777017914768813
1.5257311121191335 1.3090169943749475 -4.277701791476882
1.025731112119133 0.5 -4.586718785851829
1.025731112119133 -0.49999999999999994 -4.586718785851829
1.5257311121191335 -1.3090169943749475 -4.277701791476882
2.3347481064940805 -1.618033988749895 -3.7777017914768813
3.143765100869028 -1.3090169943749475 -3.277701791476882
4.643765100869029 0.5 -10.440820752101514
5.143765100869029 1.3090169943749475 -10.131803757726566
5.952782095243976 1.618033988749895 -9.631803757726566
6.761799089618924 1.3090169943749475 -9.131803757726566
7.261799089618924 0.5 -8.822786763351617
7.261799089618924 -0.49999999999999994 -8.822786763351617
6.761799089618924 -1.3090169943749475 -9.131803757726566
5.952782095243976 -1.618033988749895 -9.631803757726566
5.143765100869029 -1.3090169943749475 -10.131803757726566
4.643765100869029 -0.49999999999999994 -10.440820752101514
1.1313039211192173 2.118033988749895 -5.757539179101766
1.5785175166191756 2.118033988749895 -4.86311198810185
0.5785175166191752 0.5 -5.481145976851745
0.6313039211192173 1.3090169943749475 -6.066556173476713
6.709012685118882 -2.118033988749895 -8.546393561101597
7.1562262806188395 -2.118033988749895 -7.651966370101681
7.6562262806188395 -1.3090169943749475 -7.342949375726733
7.709012685118882 -0.49999999999999994 -7.9283595723517015
4.643765100869029 3.118033988749895 -4.586718785851829
5.538192291868945 3.118033988749895 -5.033932381351787
6.399995690743934 2.618033988749895 -5.119342577976755
6.899995690743934 1.8090169943749475 -4.8103255836018075
6.847209286243892 1. -4.224915386976839
6.261799089618924 0.5 -3.586718785851829
5.367371898619007 0.5 -3.1395051903518714
4.505568499744018 1. -3.0540949937269026
4.005568499744018 1.8090169943749475 -3.36311198810185
4.05835490424406 2.618033988749895 -3.9485221847268184
2.0257311121191335 -0.49999999999999994 -9.822786763351619
2.9201583031190492 -0.49999999999999994 -10.270000358851576
3.781961701994039 -1. -10.355410555476546
4.281961701994039 -1.8090169943749475 -10.046393561101597
4.229175297493997 -2.618033988749895 -9.460983364476629
3.6437651008690284 -3.118033988749895 -8.822786763351619
2.749337909869112 -3.118033988749895 -8.37557316785166
1.8875345109941226 -2.618033988749895 -8.290162971226692
1.3875345109941226 -1.8090169943749475 -8.599179965601639
1.4403209154941647 -1. -9.184590162226609
2.0257311121191335 0.5 -9.822786763351619
2.9201583031190492 0.5 -10.270000358851576
3.781961701994039 1. -10.355410555476546
4.281961701994039 1.8090169943749475 -10.046393561101597
4.229175297493997 2.618033988749895 -9.460983364476629
3.6437651008690284 3.118033988749895 -8.822786763351619
2.749337909869112 3.118033988749895 -8.37557316785166
1.8875345109941226 2.618033988749895 -8.290162971226692
1.3875345109941226 1.8090169943749475 -8.599179965601639
1.4403209154941647 1. -9.184590162226609
4.643765100869029 -3.118033988749895 -4.586718785851829
5.538192291868945 -3.118033988749895 -5.033932381351787
6.399995690743934 -2.618033988749895 -5.119342577976755
6.899995690743934 -1.8090169943749475 -4.8103255836018075
6.847209286243892 -1. -4.224915386976839
6.261799089618924 -0.49999999999999994 -3.586718785851829
5.367371898619007 -0.49999999999999994 -3.1395051903518714
4.505568499744018 -1. -3.0540949937269026
4.005568499744018 -1.8090169943749475 -3.36311198810185
4.05835490424406 -2.618033988749895 -3.9485221847268184
6.709012685118882 2.118033988749895 -8.546393561101597
7.1562262806188395 2.118033988749895 -7.651966370101681
7.6562262806188395 1.3090169943749475 -7.342949375726733
7.709012685118882 0.5 -7.9283595723517015
1.1313039211192173 -2.118033988749895 -5.757539179101766
1.5785175166191756 -2.118033988749895 -4.86311198810185
0.5785175166191752 -0.49999999999999994 -5.481145976851745
0.6313039211192173 -1.3090169943749475 -6.066556173476713
7.43261948286886 -0.49999999999999994 -4.863111988101849
7.43261948286886 0.5 -4.863111988101849
7.485405887368902 1.3090169943749475 -5.448522184726818
7.570816083993871 1.618033988749895 -6.395735780226776
7.570816083993871 -1.618033988749895 -6.395735780226776
7.485405887368902 -1.3090169943749475 -5.448522184726818
0.8549107188691965 0.5 -8.546393561101597
0.8021243143691543 1.3090169943749475 -7.960983364476629
0.7167141177441856 1.618033988749895 -7.013769768976671
0.7167141177441856 -1.618033988749895 -7.013769768976671
0.8021243143691543 -1.3090169943749475 -7.960983364476629
0.8549107188691965 -0.49999999999999994 -8.546393561101597
5.899995690743934 -2.4270509831248424 -9.046393561101597
5.038192291868945 -2.9270509831248424 -8.960983364476629
3.2493379098691126 2.9270509831248424 -4.448522184726818
2.387534510994123 2.4270509831248424 -4.36311198810185
2.387534510994123 -2.4270509831248424 -4.36311198810185
5.899995690743934 2.4270509831248424 -9.046393561101597
1.216714117744186 2.4270509831248424 -6.704752774601724
7.070816083993871 -2.4270509831248424 -6.704752774601723
6.485405887368902 2.9270509831248424 -6.066556173476712
7.070816083993871 2.4270509831248424 -6.704752774601723
1.216714117744186 -2.4270509831248424 -6.704752774601724
1.8021243143691543 -2.9270509831248424 -7.342949375726734
5.623602488493913 3.4270509831248424 -5.981145976851744
4.814585494118965 3.73606797749979 -6.481145976851744
3.9201583031190497 3.73606797749979 -6.033932381351787
3.834748106494081 3.4270509831248424 -5.086718785851828
4.452782095243976 -3.4270509831248424 -8.322786763351619
4.367371898619007 -3.73606797749979 -7.37557316785166
3.4729447076190914 -3.73606797749979 -6.928359572351702
2.663927713244144 -3.4270509831248424 -7.428359572351702
1.8021243143691543 2.9270509831248424 -7.342949375726734
6.485405887368902 -2.9270509831248424 -6.066556173476712
5.038192291868945 2.9270509831248424 -8.960983364476629
4.452782095243976 3.4270509831248424 -8.322786763351619
4.367371898619007 3.73606797749979 -7.37557316785166
3.9201583031190497 -3.73606797749979 -6.033932381351787
3.834748106494081 -3.4270509831248424 -5.086718785851828
3.2493379098691126 -2.9270509831248424 -4.448522184726818
4.814585494118965 -3.73606797749979 -6.481145976851744
5.623602488493913 -3.4270509831248424 -5.981145976851744
2.663927713244144 3.4270509831248424 -7.428359572351702
3.4729447076190914 3.73606797749979 -6.928359572351702
-3.6437651008690284 0.4999999999999999 2.968684797101935
-3.143765100869028 1.3090169943749475 3.2777017914768822
-2.3347481064940805 1.618033988749895 3.7777017914768822
-1.525731112119133 1.3090169943749475 4.277701791476883
-1.025731112119133 0.5 4.586718785851829
-1.025731112119133 -0.5 4.586718785851829
-1.525731112119133 -1.3090169943749475 4.277701791476883
-2.3347481064940805 -1.618033988749895 3.7777017914768822
-3.143765100869028 -1.3090169943749475 3.2777017914768822
-3.6437651008690284 -0.5 2.968684797101935
-0.4999999999999998 2.474856078522985 -4.05220634771261
0.5000000000000001 2.474856078522985 -4.05220634771261
1.0000000000000002 1.665839084148038 -4.361223342087558
0.5000000000000002 0.8568220897730906 -4.670240336462506
-0.49999999999999983 0.8568220897730906 -4.670240336462506
-0.9999999999999999 1.665839084148038 -4.361223342087558
-0.4999999999999998 -2.474856078522985 4.05220634771261
0.5000000000000001 -2.474856078522985 4.05220634771261
1.0000000000000002 -1.665839084148038 4.361223342087558
0.5000000000000002 -0.8568220897730906 4.670240336462506
-0.49999999999999983 -0.8568220897730906 4.670240336462506
-0.9999999999999999 -1.665839084148038 4.361223342087558
2.968684797101935 3.643765100869029 -0.49999999999999994
2.968684797101935 3.643765100869029 0.5
3.2777017914768822 3.143765100869029 1.3090169943749475
3.7777017914768822 2.334748106494081 1.618033988749895
4.277701791476882 1.5257311121191335 1.3090169943749475
4.586718785851829 1.0257311121191337 0.5
4.586718785851829 1.0257311121191337 -0.49999999999999994
4.277701791476883 1.5257311121191335 -1.3090169943749475
3.7777017914768822 2.3347481064940814 -1.618033988749895
3.2777017914768822 3.143765100869029 -1.3090169943749475
-4.586718785851829 -1.025731112119134 -0.5
-4.586718785851829 -1.025731112119134 0.5
-4.277701791476882 -1.525731112119134 1.3090169943749477
-3.777701791476882 -2.3347481064940814 1.6180339887498951
-3.277701791476882 -3.143765100869029 1.3090169943749477
-2.9686847971019343 -3.6437651008690284 0.5
-2.9686847971019343 -3.6437651008690284 -0.5
-3.277701791476882 -3.143765100869029 -1.3090169943749472
-3.777701791476882 -2.3347481064940814 -1.6180339887498947
-4.277701791476882 -1.525731112119134 -1.3090169943749472
-4.586718785851829 1.025731112119134 -0.5
-4.586718785851829 1.025731112119134 0.5
-4.277701791476882 1.525731112119134 1.3090169943749477
-3.777701791476882 2.3347481064940814 1.6180339887498951
-3.277701791476882 3.143765100869029 1.3090169943749477
-2.9686847971019343 3.6437651008690284 0.5
-2.9686847971019343 3.6437651008690284 -0.5
-3.277701791476882 3.143765100869029 -1.3090169943749472
-3.777701791476882 2.3347481064940814 -1.6180339887498947
-4.277701791476882 1.525731112119134 -1.3090169943749472
2.968684797101935 -3.643765100869029 -0.49999999999999994
2.968684797101935 -3.643765100869029 0.5
3.2777017914768822 -3.143765100869029 1.3090169943749475
3.7777017914768822 -2.334748106494081 1.618033988749895
4.277701791476882 -1.5257311121191335 1.3090169943749475
4.586718785851829 -1.0257311121191337 0.5
4.586718785851829 -1.0257311121191337 -0.49999999999999994
4.277701791476883 -1.5257311121191335 -1.3090169943749475
3.7777017914768822 -2.3347481064940814 -1.618033988749895
3.2777017914768822 -3.143765100869029 -1.3090169943749475
-0.4999999999999998 2.474856078522985 4.05220634771261
0.5000000000000001 2.474856078522985 4.05220634771261
1.0000000000000002 1.665839084148038 4.361223342087558
0.5000000000000002 0.8568220897730906 4.670240336462506
-0.49999999999999983 0.8568220897730906 4.670240336462506
-0.9999999999999999 1.665839084148038 4.361223342087558
-0.4999999999999998 -2.474856078522985 -4.05220634771261
0.5000000000000001 -2.474856078522985 -4.05220634771261
1.0000000000000002 -1.665839084148038 -4.361223342087558
0.5000000000000002 -0.8568220897730906 -4.670240336462506
-0.49999999999999983 -0.8568220897730906 -4.670240336462506
-0.9999999999999999 -1.665839084148038 -4.361223342087558
3.643765100869028 -0.5 2.968684797101935
3.643765100869028 0.5 2.968684797101935
3.1437651008690284 1.3090169943749472 3.2777017914768822
2.3347481064940814 1.6180339887498947 3.7777017914768822
1.5257311121191335 1.3090169943749472 4.277701791476883
1.025731112119134 0.5 4.586718785851829
1.025731112119134 -0.5 4.586718785851829
1.5257311121191335 -1.3090169943749477 4.277701791476883
2.3347481064940814 -1.6180339887498951 3.7777017914768822
3.1437651008690284 -1.3090169943749477 3.2777017914768822
-3.6437651008690284 0.4999999999999999 -2.968684797101935
-3.143765100869028 1.3090169943749475 -3.2777017914768822
-2.3347481064940805 1.618033988749895 -3.7777017914768822
-1.525731112119133 1.3090169943749475 -4.277701791476883
-1.025731112119133 0.5 -4.586718785851829
-1.025731112119133 -0.5 -4.586718785851829
-1.525731112119133 -1.3090169943749475 -4.277701791476883
-2.3347481064940805 -1.618033988749895 -3.7777017914768822
-3.143765100869028 -1.3090169943749475 -3.2777017914768822
-3.6437651008690284 -0.5 -2.968684797101935
-2.386367263564573 -2.195384257939521 3.5044012523144676
-1.8863672635645727 -3.0044012523144685 3.19538425793952
-2.19538425793952 -3.5044012523144685 2.3863672635645727
-3.0044012523144676 -3.195384257939521 1.8863672635645727
-3.5044012523144676 -2.386367263564573 2.19538425793952
-3.19538425793952 -1.8863672635645734 3.0044012523144676
2.195384257939521 3.5044012523144685 -2.3863672635645727
3.0044012523144685 3.195384257939521 -1.8863672635645732
3.5044012523144685 2.3863672635645736 -2.1953842579395206
3.195384257939521 1.8863672635645736 -3.0044012523144685
2.3863672635645736 2.195384257939521 -3.5044012523144685
1.8863672635645736 3.0044012523144685 -3.1953842579395206
2.118033988749895 -2.118033988749895 -3.73606797749979
1.3090169943749475 -1.8090169943749475 -4.23606797749979
0.8090169943749477 -2.618033988749895 -3.9270509831248424
1.618033988749895 -2.9270509831248424 -3.4270509831248424
-1.6180339887498942 2.9270509831248432 3.427050983124842
-0.8090169943749468 2.618033988749896 3.9270509831248424
-1.309016994374947 1.8090169943749486 4.23606797749979
-2.1180339887498945 2.118033988749896 3.73606797749979
-1.6180339887498942 2.9270509831248432 -3.427050983124842
-0.8090169943749468 2.618033988749896 -3.9270509831248424
-1.309016994374947 1.8090169943749486 -4.23606797749979
-2.1180339887498945 2.118033988749896 -3.73606797749979
2.118033988749895 -2.118033988749895 3.73606797749979
1.3090169943749475 -1.8090169943749475 4.23606797749979
0.8090169943749477 -2.618033988749895 3.9270509831248424
1.618033988749895 -2.9270509831248424 3.4270509831248424
2.195384257939521 3.5044012523144685 2.3863672635645727
3.0044012523144685 3.195384257939521 1.8863672635645732
3.5044012523144685 2.3863672635645736 2.1953842579395206
3.195384257939521 1.8863672635645736 3.0044012523144685
2.3863672635645736 2.195384257939521 3.5044012523144685
1.8863672635645736 3.0044012523144685 3.1953842579395206
-2.386367263564573 -2.195384257939521 -3.5044012523144676
-1.8863672635645727 -3.0044012523144685 -3.19538425793952
-2.19538425793952 -3.5044012523144685 -2.3863672635645727
-3.0044012523144676 -3.195384257939521 -1.8863672635645727
-3.5044012523144676 -2.386367263564573 -2.19538425793952
-3.19538425793952 -1.8863672635645734 -3.0044012523144676
2.4748560785229845 4.052206347712611 0.4999999999999995
1.6658390841480373 4.361223342087558 0.9999999999999996
0.8568220897730897 4.670240336462506 0.4999999999999995
0.8568220897730895 4.670240336462505 -0.5000000000000004
1.665839084148037 4.361223342087557 -1.0000000000000004
2.4748560785229845 4.052206347712611 -0.5000000000000004
-2.4748560785229845 -4.052206347712611 0.4999999999999997
-1.6658390841480368 -4.361223342087558 0.9999999999999996
-0.8568220897730892 -4.670240336462506 0.4999999999999997
-0.8568220897730889 -4.670240336462505 -0.5000000000000003
-1.6658390841480366 -4.361223342087557 -1.0000000000000002
-2.474856078522984 -4.052206347712611 -0.5000000000000003
-2.386367263564573 2.195384257939521 -3.5044012523144676
-1.8863672635645727 3.0044012523144685 -3.19538425793952
-2.19538425793952 3.5044012523144685 -2.3863672635645727
-3.0044012523144676 3.195384257939521 -1.8863672635645727
-3.5044012523144676 2.386367263564573 -2.19538425793952
-3.19538425793952 1.8863672635645734 -3.0044012523144676
2.195384257939521 -3.5044012523144685 2.3863672635645727
3.0044012523144685 -3.195384257939521 1.8863672635645732
3.5044012523144685 -2.3863672635645736 2.1953842579395206
3.195384257939521 -1.8863672635645736 3.0044012523144685
2.3863672635645736 -2.195384257939521 3.5044012523144685
1.8863672635645736 -3.0044012523144685 3.1953842579395206
2.118033988749895 2.118033988749895 3.73606797749979
1.3090169943749475 1.8090169943749475 4.23606797749979
0.8090169943749477 2.618033988749895 3.9270509831248424
1.618033988749895 2.9270509831248424 3.4270509831248424
-1.6180339887498942 -2.9270509831248432 -3.427050983124842
-0.8090169943749468 -2.618033988749896 -3.9270509831248424
-1.309016994374947 -1.8090169943749486 -4.23606797749979
-2.1180339887498945 -2.118033988749896 -3.73606797749979
-1.3090169943749472 3.2777017914768822 3.1437651008690284
-1.6180339887498947 3.7777017914768822 2.334748106494081
-1.3090169943749472 4.277701791476883 1.5257311121191335
-0.49999999999999967 4.586718785851829 1.0257311121191333
0.5000000000000003 4.586718785851829 1.0257311121191333
1.3090169943749477 4.277701791476882 1.5257311121191335
1.6180339887498951 3.7777017914768822 2.334748106494081
1.3090169943749477 3.277701791476882 3.1437651008690284
0.5000000000000003 2.968684797101935 3.643765100869029
-0.49999999999999967 2.968684797101935 3.643765100869029
-1.3090169943749472 -3.2777017914768822 -3.1437651008690284
-1.6180339887498947 -3.7777017914768822 -2.334748106494081
-1.3090169943749472 -4.277701791476883 -1.5257311121191335
-0.49999999999999967 -4.586718785851829 -1.0257311121191333
0.5000000000000003 -4.586718785851829 -1.0257311121191333
1.3090169943749477 -4.277701791476882 -1.5257311121191335
1.6180339887498951 -3.7777017914768822 -2.334748106494081
1.3090169943749477 -3.277701791476882 -3.1437651008690284
0.5000000000000003 -2.968684797101935 -3.643765100869029
-0.49999999999999967 -2.968684797101935 -3.643765100869029
-1.6180339887498942 -2.9270509831248432 3.427050983124842
-0.8090169943749468 -2.618033988749896 3.9270509831248424
-1.309016994374947 -1.8090169943749486 4.23606797749979
-2.1180339887498945 -2.118033988749896 3.73606797749979
2.118033988749895 2.118033988749895 -3.73606797749979
1.3090169943749475 1.8090169943749475 -4.23606797749979
0.8090169943749477 2.618033988749895 -3.9270509831248424
1.618033988749895 2.9270509831248424 -3.4270509831248424
2.195384257939521 -3.5044012523144685 -2.3863672635645727
3.0044012523144685 -3.195384257939521 -1.8863672635645732
3.5044012523144685 -2.3863672635645736 -2.1953842579395206
3.195384257939521 -1.8863672635645736 -3.0044012523144685
2.3863672635645736 -2.195384257939521 -3.5044012523144685
1.8863672635645736 -3.0044012523144685 -3.1953842579395206
-2.386367263564573 2.195384257939521 3.5044012523144676
-1.8863672635645727 3.0044012523144685 3.19538425793952
-2.19538425793952 3.5044012523144685 2.3863672635645727
-3.0044012523144676 3.195384257939521 1.8863672635645727
-3.5044012523144676 2.386367263564573 2.19538425793952
-3.19538425793952 1.8863672635645734 3.0044012523144676
-1.3090169943749472 -3.2777017914768822 3.1437651008690284
-1.6180339887498947 -3.7777017914768822 2.334748106494081
-1.3090169943749472 -4.277701791476883 1.5257311121191335
-0.49999999999999967 -4.586718785851829 1.0257311121191333
0.5000000000000003 -4.586718785851829 1.0257311121191333
1.3090169943749477 -4.277701791476882 1.5257311121191335
1.6180339887498951 -3.7777017914768822 2.334748106494081
1.3090169943749477 -3.277701791476882 3.1437651008690284
0.5000000000000003 -2.968684797101935 3.643765100869029
-0.49999999999999967 -2.968684797101935 3.643765100869029
-1.3090169943749472 3.2777017914768822 -3.1437651008690284
-1.6180339887498947 3.7777017914768822 -2.334748106494081
-1.3090169943749472 4.277701791476883 -1.5257311121191335
-0.49999999999999967 4.586718785851829 -1.0257311121191333
0.5000000000000003 4.586718785851829 -1.0257311121191333
1.3090169943749477 4.277701791476882 -1.5257311121191335
1.6180339887498951 3.7777017914768822 -2.334748106494081
1.3090169943749477 3.277701791476882 -3.1437651008690284
0.5000000000000003 2.968684797101935 -3.643765100869029
-0.49999999999999967 2.968684797101935 -3.643765100869029
2.4748560785229845 -4.052206347712611 0.4999999999999995
1.6658390841480373 -4.361223342087558 0.9999999999999996
0.8568220897730897 -4.670240336462506 0.4999999999999995
0.8568220897730895 -4.670240336462505 -0.5000000000000004
1.665839084148037 -4.361223342087557 -1.0000000000000004
2.4748560785229845 -4.052206347712611 -0.5000000000000004
-2.4748560785229845 4.052206347712611 0.4999999999999997
-1.6658390841480368 4.361223342087558 0.9999999999999996
-0.8568220897730892 4.670240336462506 0.4999999999999997
-0.8568220897730889 4.670240336462505 -0.5000000000000003
-1.6658390841480366 4.361223342087557 -1.0000000000000002
-2.474856078522984 4.052206347712611 -0.5000000000000003
-3.7360679774997894 -2.118033988749896 2.1180339887498953
-3.427050983124842 -1.6180339887498956 2.9270509831248424
-3.9270509831248424 -0.8090169943749482 2.6180339887498953
-4.23606797749979 -1.3090169943749483 1.8090169943749481
3.9270509831248424 0.8090169943749473 -2.618033988749895
4.23606797749979 1.3090169943749475 -1.8090169943749475
3.73606797749979 2.118033988749895 -2.118033988749895
3.4270509831248424 1.618033988749895 -2.9270509831248424
2.6180339887498953 -3.927050983124842 0.8090169943749477
1.8090169943749481 -4.23606797749979 1.3090169943749475
2.1180339887498953 -3.7360679774997894 2.118033988749895
2.927050983124843 -3.427050983124842 1.618033988749895
-1.8090169943749468 4.23606797749979 -1.3090169943749475
-2.1180339887498945 3.73606797749979 -2.118033988749895
-2.9270509831248424 3.4270509831248424 -1.618033988749895
-2.6180339887498945 3.9270509831248424 -0.8090169943749475
-3.7360679774997894 2.118033988749896 -2.1180339887498953
-3.427050983124842 1.6180339887498956 -2.9270509831248424
-3.9270509831248424 0.8090169943749482 -2.6180339887498953
-4.23606797749979 1.3090169943749483 -1.8090169943749481
3.9270509831248424 -0.8090169943749473 2.618033988749895
4.23606797749979 -1.3090169943749475 1.8090169943749475
3.73606797749979 -2.118033988749895 2.118033988749895
3.4270509831248424 -1.618033988749895 2.9270509831248424
2.6180339887498953 3.927050983124842 -0.8090169943749477
1.8090169943749481 4.23606797749979 -1.3090169943749475
2.1180339887498953 3.7360679774997894 -2.118033988749895
2.927050983124843 3.427050983124842 -1.618033988749895
-1.8090169943749468 -4.23606797749979 1.3090169943749475
-2.1180339887498945 -3.73606797749979 2.118033988749895
-2.9270509831248424 -3.4270509831248424 1.618033988749895
-2.6180339887498945 -3.9270509831248424 0.8090169943749475
3.9270509831248424 0.8090169943749473 2.618033988749895
4.23606797749979 1.3090169943749475 1.8090169943749475
3.73606797749979 2.118033988749895 2.118033988749895
3.4270509831248424 1.618033988749895 2.9270509831248424
-3.7360679774997894 -2.118033988749896 -2.1180339887498953
-3.427050983124842 -1.6180339887498956 -2.9270509831248424
-3.9270509831248424 -0.8090169943749482 -2.6180339887498953
-4.23606797749979 -1.3090169943749483 -1.8090169943749481
-1.8090169943749468 4.23606797749979 1.3090169943749475
-2.1180339887498945 3.73606797749979 2.118033988749895
-2.9270509831248424 3.4270509831248424 1.618033988749895
-2.6180339887498945 3.9270509831248424 0.8090169943749475
2.6180339887498953 -3.927050983124842 -0.8090169943749477
1.8090169943749481 -4.23606797749979 -1.3090169943749475
2.1180339887498953 -3.7360679774997894 -2.118033988749895
2.927050983124843 -3.427050983124842 -1.618033988749895
4.052206347712611 -0.5 2.4748560785229854
4.052206347712611 0.49999999999999994 2.4748560785229854
4.361223342087558 1. 1.6658390841480377
4.670240336462506 0.49999999999999994 0.8568220897730905
4.670240336462506 -0.5 0.8568220897730905
4.361223342087558 -1. 1.6658390841480377
-4.052206347712611 0.49999999999999956 -2.474856078522984
-4.361223342087558 0.9999999999999996 -1.665839084148037
-4.670240336462506 0.49999999999999956 -0.8568220897730893
-4.670240336462505 -0.5000000000000004 -0.8568220897730893
-4.361223342087557 -1.0000000000000004 -1.6658390841480366
-4.052206347712611 -0.5000000000000004 -2.474856078522984
3.9270509831248424 -0.8090169943749473 -2.618033988749895
4.23606797749979 -1.3090169943749475 -1.8090169943749475
3.73606797749979 -2.118033988749895 -2.118033988749895
3.4270509831248424 -1.618033988749895 -2.9270509831248424
-3.7360679774997894 2.118033988749896 2.1180339887498953
-3.427050983124842 1.6180339887498956 2.9270509831248424
-3.9270509831248424 0.8090169943749482 2.6180339887498953
-4.23606797749979 1.3090169943749483 1.8090169943749481
-1.8090169943749468 -4.23606797749979 -1.3090169943749475
-2.1180339887498945 -3.73606797749979 -2.118033988749895
-2.9270509831248424 -3.4270509831248424 -1.618033988749895
-2.6180339887498945 -3.9270509831248424 -0.8090169943749475
2.6180339887498953 3.927050983124842 0.8090169943749477
1.8090169943749481 4.23606797749979 1.3090169943749475
2.1180339887498953 3.7360679774997894 2.118033988749895
2.927050983124843 3.427050983124842 1.618033988749895
4.052206347712611 -0.5 -2.4748560785229854
4.052206347712611 0.49999999999999994 -2.4748560785229854
4.361223342087558 1. -1.6658390841480377
4.670240336462506 0.49999999999999994 -0.8568220897730905
4.670240336462506 -0.5 -0.8568220897730905
4.361223342087558 -1. -1.6658390841480377
-4.052206347712611 0.49999999999999956 2.474856078522984
-4.361223342087558 0.9999999999999996 1.665839084148037
-4.670240336462506 0.49999999999999956 0.8568220897730893
-4.670240336462505 -0.5000000000000004 0.8568220897730893
-4.361223342087557 -1.0000000000000004 1.6658390841480366
-4.052206347712611 -0.5000000000000004 2.474856078522984
-0.4999999999999998 0.5 4.73606797749979
0.5000000000000002 0.5 4.73606797749979
0.5000000000000002 -0.5 4.73606797749979
-0.4999999999999998 -0.5 4.73606797749979
-0.4999999999999998 0.5 -4.73606797749979
0.5000000000000002 0.5 -4.73606797749979
0.5000000000000002 -0.5 -4.73606797749979
-0.4999999999999998 -0.5 -4.73606797749979
-0.4999999999999998 -4.73606797749979 0.5
0.5000000000000002 -4.73606797749979 0.5
0.5000000000000002 -4.73606797749979 -0.5
-0.4999999999999998 -4.73606797749979 -0.5
-0.4999999999999998 4.73606797749979 0.5
0.5000000000000002 4.73606797749979 0.5
0.5000000000000002 4.73606797749979 -0.5
-0.4999999999999998 4.73606797749979 -0.5
4.73606797749979 -0.5 0.5
4.73606797749979 0.5 0.5
4.73606797749979 0.5 -0.5
4.73606797749979 -0.5 -0.5
-4.73606797749979 -0.5 0.5
-4.73606797749979 0.5 0.5
-4.73606797749979 0.5 -0.5
-4.73606797749979 -0.5 -0.5
10 0 1 2 3 4 5 6 7 8 9
10 10 11 12 13 14 15 16 17 18 19
6 20 21 4 5 22 23
6 24 25 26 27 15 16
10 28 29 30 31 32 33 34 35 36 37
10 38 39 40 41 42 43 44 45 46 47
10 48 49 50 51 52 53 54 55 56 57
10 58 59 60 61 62 63 64 65 66 67
6 68 69 70 71 14 13
6 72 73 7 6 74 75
10 76 77 78 79 70 71 27 26 80 81
10 82 83 84 23 22 74 75 85 86 87
6 17 88 89 42 41 18
6 90 37 36 2 3 91
4 8 7 73 92
4 93 68 13 12
4 94 20 23 84
4 80 26 25 95
6 96 30 31 78 79 97
6 85 98 99 45 46 86
6 29 100 101 102 103 28
6 43 104 105 106 107 44
6 84 94 108 55 56 83
6 109 60 61 81 80 95
4 79 70 69 97
4 98 72 75 85
10 93 110 111 112 101 100 96 97 69 68
10 98 99 107 106 113 114 115 92 73 72
4 88 24 16 17
4 3 4 21 91
6 115 67 66 9 8 92
6 12 93 110 52 51 11
10 88 89 104 105 116 117 109 95 25 24
10 94 108 118 119 102 103 90 91 21 20
6 59 117 116 113 114 58
6 53 111 112 119 118 54
4 41 18 19 40
4 1 35 36 2
4 59 117 109 60
4 118 108 55 54
4 56 83 82 57
4 76 62 61 81
4 28 103 90 37
4 104 89 42 43
4 77 32 31 78
4 46 86 87 47
4 111 110 52 53
4 58 114 115 67
6 76 77 32 33 63 62
6 82 57 48 38 47 87
4 0 65 66 9
4 51 11 10 50
4 107 99 45 44
4 29 100 96 30
6 0 1 35 34 64 65
6 10 50 49 39 40 19
4 14 71 27 15
4 22 5 6 74
4 105 116 113 106
4 112 101 102 119
4 63 33 34 64
4 39 49 48 38
10 120 121 122 123 124 125 126 127 128 129
10 130 131 132 133 134 135 136 137 138 139
6 140 141 124 125 142 143
6 144 145 146 147 135 136
10 148 149 150 151 152 153 154 155 156 157
10 158 159 160 161 162 163 164 165 166 167
10 168 169 170 171 172 173 174 175 176 177
10 178 179 180 181 182 183 184 185 186 187
6 188 189 190 191 134 133
6 192 193 127 126 194 195
10 196 197 198 199 190 191 147 146 200 201
10 202 203 204 143 142 194 195 205 206 207
6 137 208 209 162 161 138
6 210 157 156 122 123 211
4 128 127 193 212
4 213 188 133 132
4 214 140 143 204
4 200 146 145 215
6 216 150 151 198 199 217
6 205 218 219 165 166 206
6 149 220 221 222 223 148
6 163 224 225 226 227 164
6 204 214 228 175 176 203
6 229 180 181 201 200 215
4 199 190 189 217
4 218 192 195 205
10 213 230 231 232 221 220 216 217 189 188
10 218 219 227 226 233 234 235 212 193 192
4 208 144 136 137
4 123 124 141 211
6 235 187 186 129 128 212
6 132 213 230 172 171 131
10 208 209 224 225 236 237 229 215 145 144
10 214 228 238 239 222 223 210 211 141 140
6 179 237 236 233 234 178
6 173 231 232 239 238 174
4 161 138 139 160
4 121 155 156 122
4 179 237 229 180
4 238 228 175 174
4 176 203 202 177
4 196 182 181 201
4 148 223 210 157
4 224 209 162 163
4 197 152 151 198
4 166 206 207 167
4 231 230 172 173
4 178 234 235 187
6 196 197 152 153 183 182
6 202 177 168 158 167 207
4 120 185 186 129
4 171 131 130 170
4 227 219 165 164
4 149 220 216 150
6 120 121 155 154 184 185
6 130 170 169 159 160 139
4 134 191 147 135
4 142 125 126 194
4 225 236 233 226
4 232 221 222 239
4 183 153 154 184
4 159 169 168 158
10 0 1 2 3 4 5 6 7 8 9
10 120 121 122 123 124 125 126 127 128 129
4 124 4 5 125
4 127 7 6 126
4 123 3 2 122
4 127 7 8 128
4 124 4 3 123
4 128 8 9 129
4 122 2 1 121
4 129 9 0 120
4 121 1 0 120
4 125 5 6 126
10 10 11 12 13 14 15 16 17 18 19
10 240 241 242 243 244 245 246 247 248 249
4 245 15 16 246
4 244 14 13 243
4 248 18 17 247
4 243 13 12 242
4 246 16 17 247
4 241 11 12 242
4 248 18 19 249
4 241 11 10 240
4 240 10 19 249
4 244 14 15 245
6 20 21 4 5 22 23
6 250 251 252 253 254 255
4 252 4 5 253
4 254 22 23 255
4 250 20 23 255
4 252 4 21 251
4 251 21 20 250
4 253 5 22 254
6 24 25 26 27 15 16
6 256 257 258 259 260 261
4 260 15 16 261
4 258 26 27 259
4 258 26 25 257
4 256 24 16 261
4 257 25 24 256
4 259 27 15 260
10 28 29 30 31 32 33 34 35 36 37
10 262 263 264 265 266 267 268 269 270 271
4 270 36 37 271
4 265 31 30 264
4 263 29 28 262
4 269 35 36 270
4 262 28 37 271
4 266 32 31 265
4 266 32 33 267
4 263 29 30 264
4 269 35 34 268
4 267 33 34 268
10 38 39 40 41 42 43 44 45 46 47
10 272 273 274 275 276 277 278 279 280 281
4 276 42 41 275
4 279 45 46 280
4 277 43 44 278
4 275 41 40 274
4 276 42 43 277
4 280 46 47 281
4 272 38 47 281
4 279 45 44 278
4 273 39 40 274
4 273 39 38 272
10 48 49 50 51 52 53 54 55 56 57
10 282 283 284 285 286 287 288 289 290 291
4 289 55 56 290
4 286 52 51 285
4 287 53 54 288
4 289 55 54 288
4 290 56 57 291
4 286 52 53 287
4 282 48 57 291
4 285 51 50 284
4 283 49 50 284
4 283 49 48 282
10 58 59 60 61 62 63 64 65 66 67
10 292 293 294 295 296 297 298 299 300 301
4 295 61 60 294
4 300 66 67 301
4 293 59 58 292
4 293 59 60 294
4 296 62 61 295
4 292 58 67 301
4 296 62 63 297
4 299 65 66 300
4 299 65 64 298
4 297 63 64 298
6 68 69 70 71 14 13
6 302 303 304 305 306 307
4 306 14 13 307
4 304 70 71 305
4 302 68 13 307
4 304 70 69 303
4 303 69 68 302
4 305 71 14 306
6 72 73 7 6 74 75
6 308 309 310 311 312 313
4 310 7 6 311
4 312 74 75 313
4 310 7 73 309
4 308 72 75 313
4 309 73 72 308
4 311 6 74 312
10 76 77 78 79 70 71 27 26 80 81
10 314 315 316 317 318 319 320 321 322 323
4 321 26 27 320
4 318 70 71 319
4 321 26 80 322
4 317 79 78 316
4 322 80 81 323
4 318 70 79 317
4 323 81 76 314
4 316 78 77 315
4 315 77 76 314
4 319 71 27 320
10 82 83 84 23 22 74 75 85 86 87
10 324 325 326 327 328 329 330 331 332 333
4 328 22 23 327
4 329 74 75 330
4 327 23 84 326
4 332 86 85 331
4 325 83 84 326
4 330 75 85 331
4 325 83 82 324
4 332 86 87 333
4 324 82 87 333
4 328 22 74 329
6 17 88 89 42 41 18
6 334 335 336 337 338 339
4 339 18 17 334
4 337 42 41 338
4 335 88 17 334
4 336 89 88 335
4 339 18 41 338
4 336 89 42 337
6 90 37 36 2 3 91
6 340 341 342 343 344 345
4 344 3 2 343
4 342 36 37 341
4 344 3 91 345
4 345 91 90 340
4 342 36 2 343
4 340 90 37 341
4 8 7 73 92
4 346 347 348 349
4 347 7 8 346
4 347 7 73 348
4 348 73 92 349
4 346 8 92 349
4 93 68 13 12
4 350 351 352 353
4 352 13 12 353
4 351 68 13 352
4 351 68 93 350
4 350 93 12 353
4 94 20 23 84
4 354 355 356 357
4 355 20 23 356
4 356 23 84 357
4 354 94 84 357
4 355 20 94 354
4 80 26 25 95
4 358 359 360 361
4 359 26 25 360
4 359 26 80 358
4 358 80 95 361
4 360 25 95 361
6 96 30 31 78 79 97
6 362 363 364 365 366 367
4 364 31 30 363
4 366 79 78 365
4 366 79 97 367
4 367 97 96 362
4 364 31 78 365
4 362 96 30 363
6 85 98 99 45 46 86
6 368 369 370 371 372 373
4 371 45 46 372
4 373 86 85 368
4 369 98 85 368
4 370 99 98 369
4 373 86 46 372
4 370 99 45 371
6 29 100 101 102 103 28
6 374 375 376 377 378 379
4 374 29 28 379
4 376 101 100 375
4 377 102 103 378
4 378 103 28 379
4 375 100 29 374
4 376 101 102 377
6 43 104 105 106 107 44
6 380 381 382 383 384 385
4 380 43 44 385
4 383 106 107 384
4 382 105 104 381
4 380 43 104 381
4 385 44 107 384
4 382 105 106 383
6 84 94 108 55 56 83
6 386 387 388 389 390 391
4 389 55 56 390
4 391 83 84 386
4 387 94 84 386
4 388 108 94 387
4 388 108 55 389
4 391 83 56 390
6 109 60 61 81 80 95
6 392 393 394 395 396 397
4 394 61 60 393
4 396 80 81 395
4 396 80 95 397
4 397 95 109 392
4 392 109 60 393
4 394 61 81 395
4 79 70 69 97
4 398 399 400 401
4 399 70 69 400
4 399 70 79 398
4 398 79 97 401
4 400 69 97 401
4 98 72 75 85
4 402 403 404 405
4 403 72 75 404
4 404 75 85 405
4 402 98 85 405
4 403 72 98 402
10 93 110 111 112 101 100 96 97 69 68
10 406 407 408 409 410 411 412 413 414 415
4 414 69 68 415
4 415 68 93 406
4 413 97 96 412
4 410 101 100 411
4 414 69 97 413
4 407 110 93 406
4 409 112 111 408
4 407 110 111 408
4 411 100 96 412
4 410 101 112 409
10 98 99 107 106 113 114 115 92 73 72
10 416 417 418 419 420 421 422 423 424 425
4 424 73 72 425
4 424 73 92 423
4 417 99 98 416
4 419 106 107 418
4 425 72 98 416
4 423 92 115 422
4 420 113 114 421
4 421 114 115 422
4 417 99 107 418
4 420 113 106 419
4 88 24 16 17
4 426 427 428 429
4 428 16 17 429
4 427 24 16 428
4 426 88 17 429
4 427 24 88 426
4 3 4 21 91
4 430 431 432 433
4 431 4 3 430
4 431 4 21 432
4 430 3 91 433
4 432 21 91 433
6 115 67 66 9 8 92
6 434 435 436 437 438 439
4 438 8 9 437
4 436 66 67 435
4 438 8 92 439
4 439 92 115 434
4 434 115 67 435
4 436 66 9 437
6 12 93 110 52 51 11
6 440 441 442 443 444 445
4 445 11 12 440
4 443 52 51 444
4 441 93 12 440
4 442 110 93 441
4 442 110 52 443
4 445 11 51 444
10 88 89 104 105 116 117 109 95 25 24
10 446 447 448 449 450 451 452 453 454 455
4 454 25 24 455
4 447 89 88 446
4 454 25 95 453
4 449 105 104 448
4 453 95 109 452
4 455 24 88 446
4 450 116 117 451
4 451 117 109 452
4 447 89 104 448
4 450 116 105 449
10 94 108 118 119 102 103 90 91 21 20
10 456 457 458 459 460 461 462 463 464 465
4 464 21 20 465
4 463 91 90 462
4 465 20 94 456
4 460 102 103 461
4 457 108 94 456
4 464 21 91 463
4 459 119 118 458
4 457 108 118 458
4 461 103 90 462
4 460 102 119 459
6 59 117 116 113 114 58
6 466 467 468 469 470 471
4 466 59 58 471
4 469 113 114 470
4 468 116 117 467
4 467 117 59 466
4 470 114 58 471
4 468 116 113 469
6 53 111 112 119 118 54
6 472 473 474 475 476 477
4 472 53 54 477
4 474 112 111 473
4 475 119 118 476
4 477 54 118 476
4 472 53 111 473
4 474 112 119 475
4 41 18 19 40
4 478 479 480 481
4 479 18 19 480
4 478 41 40 481
4 479 18 41 478
4 480 19 40 481
4 1 35 36 2
4 482 483 484 485
4 485 2 1 482
4 483 35 36 484
4 484 36 2 485
4 483 35 1 482
4 59 117 109 60
4 486 487 488 489
4 486 59 60 489
4 488 109 60 489
4 487 117 109 488
4 487 117 59 486
4 118 108 55 54
4 490 491 492 493
4 492 55 54 493
4 491 108 55 492
4 491 108 118 490
4 493 54 118 490
4 56 83 82 57
4 494 495 496 497
4 494 56 57 497
4 495 83 82 496
4 495 83 56 494
4 496 82 57 497
4 76 62 61 81
4 498 499 500 501
4 499 62 61 500
4 501 81 76 498
4 500 61 81 501
4 499 62 76 498
4 28 103 90 37
4 502 503 504 505
4 502 28 37 505
4 504 90 37 505
4 503 103 28 502
4 503 103 90 504
4 104 89 42 43
4 506 507 508 509
4 508 42 43 509
4 507 89 42 508
4 509 43 104 506
4 507 89 104 506
4 77 32 31 78
4 510 511 512 513
4 511 32 31 512
4 513 78 77 510
4 512 31 78 513
4 511 32 77 510
4 46 86 87 47
4 514 515 516 517
4 514 46 47 517
4 515 86 87 516
4 515 86 46 514
4 516 87 47 517
4 111 110 52 53
4 518 519 520 521
4 520 52 53 521
4 519 110 111 518
4 519 110 52 520
4 521 53 111 518
4 58 114 115 67
4 522 523 524 525
4 522 58 67 525
4 523 114 115 524
4 524 115 67 525
4 523 114 58 522
6 76 77 32 33 63 62
6 526 527 528 529 530 531
4 528 32 33 529
4 531 62 63 530
4 527 77 76 526
4 531 62 76 526
4 528 32 77 527
4 529 33 63 530
6 82 57 48 38 47 87
6 532 533 534 535 536 537
4 535 38 47 536
4 534 48 57 533
4 532 82 87 537
4 532 82 57 533
4 537 87 47 536
4 534 48 38 535
4 0 65 66 9
4 538 539 540 541
4 541 9 0 538
4 539 65 66 540
4 540 66 9 541
4 539 65 0 538
4 51 11 10 50
4 542 543 544 545
4 543 11 10 544
4 542 51 50 545
4 543 11 51 542
4 544 10 50 545
4 107 99 45 44
4 546 547 548 549
4 548 45 44 549
4 547 99 45 548
4 549 44 107 546
4 547 99 107 546
4 29 100 96 30
4 550 551 552 553
4 550 29 30 553
4 552 96 30 553
4 551 100 29 550
4 551 100 96 552
6 0 1 35 34 64 65
6 554 555 556 557 558 559
4 555 1 0 554
4 556 35 34 557
4 559 65 64 558
4 556 35 1 555
4 559 65 0 554
4 557 34 64 558
6 10 50 49 39 40 19
6 560 561 562 563 564 565
4 560 10 19 565
4 563 39 40 564
4 562 49 50 561
4 565 19 40 564
4 560 10 50 561
4 562 49 39 563
4 14 71 27 15
4 566 567 568 569
4 566 14 15 569
4 568 27 15 569
4 567 71 14 566
4 567 71 27 568
4 22 5 6 74
4 570 571 572 573
4 571 5 6 572
4 571 5 22 570
4 572 6 74 573
4 570 22 74 573
4 105 116 113 106
4 574 575 576 577
4 574 105 106 577
4 576 113 106 577
4 575 116 105 574
4 575 116 113 576
4 112 101 102 119
4 578 579 580 581
4 579 101 102 580
4 579 101 112 578
4 580 102 119 581
4 578 112 119 581
4 63 33 34 64
4 582 583 584 585
4 583 33 34 584
4 582 63 64 585
4 583 33 63 582
4 584 34 64 585
4 39 49 48 38
4 586 587 588 589
4 586 39 38 589
4 587 49 48 588
4 588 48 38 589
4 587 49 39 586
# cell 1: 0 1 2 3 4 5 6 7 8 9 10 11 12 13 14 15 16 17 18 19 20 21 22 23 24 25 26 27 28 29 30 31 32 33 34 35 36 37 38 39 40 41 42 43 44 45 46 47 48 49 50 51 52 53 54 55 56 57 58 59 60 61
# cell 2: 62 63 64 65 66 67 68 69 70 71 72 73 74 75 76 77 78 79 80 81 82 83 84 85 86 87 88 89 90 91 92 93 94 95 96 97 98 99 100 101 102 103 104 105 106 107 108 109 110 111 112 113 114 115 116 117 118 119 120 121 122 123
# cell 3: 124 125 126 127 128 129 130 131 132 133 134 135
# cell 4: 136 137 138 139 140 141 142 143 144 145 146 147
# cell 5: 148 149 150 151 152 153 154 155
# cell 6: 156 157 158 159 160 161 162 163
# cell 7: 164 165 166 167 168 169 170 171 172 173 174 175
# cell 8: 176 177 178 179 180 181 182 183 184 185 186 187
# cell 9: 188 189 190 191 192 193 194 195 196 197 198 199
# cell 10: 200 201 202 203 204 205 206 207 208 209 210 211
# cell 11: 212 213 214 215 216 217 218 219
# cell 12: 220 221 222 223 224 225 226 227
# cell 13: 228 229 230 231 232 233 234 235 236 237 238 239
# cell 14: 240 241 242 243 244 245 246 247 248 249 250 251
# cell 15: 252 253 254 255 256 257 258 259
# cell 16: 260 261 262 263 264 265 266 267
# cell 17: 268 269 270 271 272 273
# cell 18: 274 275 276 277 278 279
# cell 19: 280 281 282 283 284 285
# cell 20: 286 287 288 289 290 291
# cell 21: 292 293 294 295 296 297 298 299
# cell 22: 300 301 302 303 304 305 306 307
# cell 23: 308 309 310 311 312 313 314 315
# cell 24: 316 317 318 319 320 321 322 323
# cell 25: 324 325 326 327 328 329 330 331
# cell 26: 332 333 334 335 336 337 338 339
# cell 27: 340 341 342 343 344 345
# cell 28: 346 347 348 349 350 351
# cell 29: 352 353 354 355 356 357 358 359 360 361 362 363
# cell 30: 364 365 366 367 368 369 370 371 372 373 374 375
# cell 31: 376 377 378 379 380 381
# cell 32: 382 383 384 385 386 387
# cell 33: 388 389 390 391 392 393 394 395
# cell 34: 396 397 398 399 400 401 402 403
# cell 35: 404 405 406 407 408 409 410 411 412 413 414 415
# cell 36: 416 417 418 419 420 421 422 423 424 425 426 427
# cell 37: 428 429 430 431 432 433 434 435
# cell 38: 436 437 438 439 440 441 442 443
# cell 39: 444 445 446 447 448 449
# cell 40: 450 451 452 453 454 455
# cell 41: 456 457 458 459 460 461
# cell 42: 462 463 464 465 466 467
# cell 43: 468 469 470 471 472 473
# cell 44: 474 475 476 477 478 479
# cell 45: 480 481 482 483 484 485
# cell 46: 486 487 488 489 490 491
# cell 47: 492 493 494 495 496 497
# cell 48: 498 499 500 501 502 503
# cell 49: 504 505 506 507 508 509
# cell 50: 510 511 512 513 514 515
# cell 51: 516 517 518 519 520 521 522 523
# cell 52: 524 525 526 527 528 529 530 531
# cell 53: 532 533 534 535 536 537
# cell 54: 538 539 540 541 542 543
# cell 55: 544 545 546 547 548 549
# cell 56: 550 551 552 553 554 555
# cell 57: 556 557 558 559 560 561 562 563
# cell 58: 564 565 566 567 568 569 570 571
# cell 59: 572 573 574 575 576 577
# cell 60: 578 579 580 581 582 583
# cell 61: 584 585 586 587 588 589
# cell 62: 590 591 592 593 594 595
# cell 63: 596 597 598 599 600 601
# cell 64: 602 603 604 605 606 607