OFF
# face-rotation BFS net; polygonal faces are preserved
# the cell decomposition is listed below as comments
112 128 0
-1.2071067811865475 0.5 1.2071067811865475
-1.2071067811865475 -0.5 1.2071067811865475
-0.5 -1.2071067811865475 1.2071067811865475
0.5 -1.2071067811865475 1.2071067811865475
1.2071067811865475 -0.5 1.2071067811865475
1.2071067811865475 0.5 1.2071067811865475
0.5 1.2071067811865475 1.2071067811865475
-0.5 1.2071067811865475 1.2071067811865475
-1.2071067811865475 0.5 -1.2071067811865475
-1.2071067811865475 -0.5 -1.2071067811865475
-0.5 -1.2071067811865475 -1.2071067811865475
0.5 -1.2071067811865475 -1.2071067811865475
1.2071067811865475 -0.5 -1.2071067811865475
1.2071067811865475 0.5 -1.2071067811865475
0.5 1.2071067811865475 -1.2071067811865475
-0.5 1.2071067811865475 -1.2071067811865475
-1.2071067811865475 1.2071067811865475 0.5
-1.2071067811865475 1.2071067811865475 -0.5
1.2071067811865475 1.2071067811865475 -0.5
1.2071067811865475 1.2071067811865475 0.5
-1.2071067811865475 -1.2071067811865475 0.5
-1.2071067811865475 -1.2071067811865475 -0.5
1.2071067811865475 -1.2071067811865475 -0.5
1.2071067811865475 -1.2071067811865475 0.5
-1.2071067811865477 0.5 2.207106781186548
-1.2071067811865477 -0.5 2.207106781186548
-0.5000000000000002 -1.2071067811865475 2.207106781186548
0.49999999999999983 -1.2071067811865475 2.2071067811865483
1.2071067811865472 -0.5 2.207106781186549
1.2071067811865472 0.5 2.207106781186549
0.49999999999999983 1.2071067811865475 2.2071067811865483
-0.5000000000000002 1.2071067811865475 2.207106781186548
-1.2071067811865486 0.5 4.621320343559643
-1.2071067811865486 -0.5 4.621320343559643
-0.500000000000001 -1.2071067811865475 4.621320343559643
0.4999999999999989 -1.2071067811865475 4.621320343559644
1.2071067811865464 -0.5 4.621320343559644
1.2071067811865464 0.5 4.621320343559644
0.4999999999999989 1.2071067811865475 4.621320343559644
-0.500000000000001 1.2071067811865475 4.621320343559643
-1.207106781186548 1.2071067811865475 2.914213562373095
-1.2071067811865483 1.2071067811865475 3.9142135623730954
1.2071067811865466 1.2071067811865475 3.914213562373096
1.207106781186547 1.2071067811865475 2.9142135623730963
-1.207106781186548 -1.2071067811865475 2.914213562373095
-1.2071067811865483 -1.2071067811865475 3.9142135623730954
1.2071067811865466 -1.2071067811865475 3.914213562373096
1.207106781186547 -1.2071067811865475 2.9142135623730963
-1.2071067811865475 0.5 -2.2071067811865475
-1.2071067811865475 -0.5 -2.2071067811865475
-0.5000000000000002 -1.2071067811865475 -2.207106781186548
0.4999999999999998 -1.2071067811865475 -2.207106781186548
1.2071067811865475 -0.5 -2.207106781186548
1.2071067811865475 0.5 -2.207106781186548
0.4999999999999998 1.2071067811865475 -2.207106781186548
-0.5000000000000002 1.2071067811865475 -2.207106781186548
-1.2071067811865475 2.2071067811865475 0.5
-1.2071067811865475 2.2071067811865475 -0.5
-0.5000000000000002 2.207106781186548 -1.2071067811865475
0.4999999999999998 2.207106781186548 -1.2071067811865475
1.2071067811865475 2.207106781186548 -0.5
1.2071067811865475 2.207106781186548 0.5
0.4999999999999998 2.207106781186548 1.2071067811865475
-0.5000000000000002 2.207106781186548 1.2071067811865475
-1.2071067811865475 -2.2071067811865475 0.5
-1.2071067811865475 -2.2071067811865475 -0.5
-0.5000000000000002 -2.207106781186548 -1.2071067811865475
0.4999999999999998 -2.207106781186548 -1.2071067811865475
1.2071067811865475 -2.207106781186548 -0.5
1.2071067811865475 -2.207106781186548 0.5
0.4999999999999998 -2.207106781186548 1.2071067811865475
-0.5000000000000002 -2.207106781186548 1.2071067811865475
-2.2071067811865475 -1.2071067811865475 0.5
-2.2071067811865475 -1.2071067811865475 -0.5
-2.207106781186548 -0.5000000000000002 -1.2071067811865475
-2.207106781186548 0.4999999999999998 -1.2071067811865475
-2.207106781186548 1.2071067811865475 -0.5
-2.207106781186548 1.2071067811865475 0.5
-2.207106781186548 0.4999999999999998 1.2071067811865475
-2.207106781186548 -0.5000000000000002 1.2071067811865475
2.2071067811865475 -1.2071067811865475 0.5
2.2071067811865475 -1.2071067811865475 -0.5
2.207106781186548 -0.5000000000000002 -1.2071067811865475
2.207106781186548 0.4999999999999998 -1.2071067811865475
2.207106781186548 1.2071067811865475 -0.5
2.207106781186548 1.2071067811865475 0.5
2.207106781186548 0.4999999999999998 1.2071067811865475
2.207106781186548 -0.5000000000000002 1.2071067811865475
-1.7844570503761732 1.7844570503761732 -1.0773502691896257
-1.0773502691896257 1.7844570503761732 -1.7844570503761732
-1.7844570503761734 1.0773502691896257 -1.7844570503761732
-1.7844570503761732 -1.7844570503761732 -1.0773502691896257
-1.0773502691896257 -1.7844570503761732 -1.7844570503761732
-1.7844570503761734 -1.0773502691896257 -1.7844570503761732
1.7844570503761732 1.7844570503761734 -1.0773502691896257
1.0773502691896255 1.7844570503761734 -1.7844570503761732
1.7844570503761732 1.0773502691896262 -1.7844570503761734
1.7844570503761732 -1.7844570503761734 -1.0773502691896257
1.0773502691896255 -1.7844570503761734 -1.7844570503761732
1.7844570503761732 -1.0773502691896262 -1.7844570503761734
-1.7844570503761732 1.7844570503761732 1.0773502691896257
-1.0773502691896257 1.7844570503761732 1.7844570503761732
-1.7844570503761734 1.0773502691896257 1.7844570503761732
-1.7844570503761732 -1.7844570503761732 1.0773502691896257
-1.0773502691896257 -1.7844570503761732 1.7844570503761732
-1.7844570503761734 -1.0773502691896257 1.7844570503761732
1.7844570503761732 1.7844570503761734 1.0773502691896257
1.0773502691896255 1.7844570503761734 1.7844570503761732
1.7844570503761732 1.0773502691896262 1.7844570503761734
1.7844570503761732 -1.7844570503761734 1.0773502691896257
1.0773502691896255 -1.7844570503761734 1.7844570503761732
1.7844570503761732 -1.0773502691896262 1.7844570503761734
8 0 1 2 3 4 5 6 7
8 8 9 10 11 12 13 14 15
8 16 17 15 14 18 19 6 7
8 20 21 10 11 22 23 3 2
8 20 21 9 8 17 16 0 1
8 23 22 12 13 18 19 5 4
3 17 15 8
3 21 10 9
3 18 14 13
3 22 11 12
3 16 7 0
3 20 2 1
3 19 6 5
3 23 3 4
8 24 25 26 27 28 29 30 31
8 32 33 34 35 36 37 38 39
8 40 41 39 38 42 43 30 31
8 44 45 34 35 46 47 27 26
8 44 45 33 32 41 40 24 25
8 47 46 36 37 42 43 29 28
3 41 39 32
3 45 34 33
3 42 38 37
3 46 35 36
3 40 31 24
3 44 26 25
3 43 30 29
3 47 27 28
8 0 1 2 3 4 5 6 7
8 24 25 26 27 28 29 30 31
4 30 6 7 31
4 27 3 2 26
4 24 0 1 25
4 29 5 4 28
4 31 7 0 24
4 26 2 1 25
4 30 6 5 29
4 27 3 4 28
8 8 9 10 11 12 13 14 15
8 48 49 50 51 52 53 54 55
4 54 14 15 55
4 51 11 10 50
4 48 8 9 49
4 53 13 12 52
4 55 15 8 48
4 50 10 9 49
4 54 14 13 53
4 51 11 12 52
8 16 17 15 14 18 19 6 7
8 56 57 58 59 60 61 62 63
4 62 6 7 63
4 59 14 15 58
4 56 16 17 57
4 61 19 18 60
4 58 15 17 57
4 59 14 18 60
4 63 7 16 56
4 62 6 19 61
8 20 21 10 11 22 23 3 2
8 64 65 66 67 68 69 70 71
4 70 3 2 71
4 67 11 10 66
4 64 20 21 65
4 69 23 22 68
4 66 10 21 65
4 67 11 22 68
4 71 2 20 64
4 70 3 23 69
8 20 21 9 8 17 16 0 1
8 72 73 74 75 76 77 78 79
4 78 0 1 79
4 75 8 9 74
4 77 16 17 76
4 72 20 21 73
4 75 8 17 76
4 74 9 21 73
4 78 0 16 77
4 79 1 20 72
8 23 22 12 13 18 19 5 4
8 80 81 82 83 84 85 86 87
4 86 5 4 87
4 83 13 12 82
4 85 19 18 84
4 80 23 22 81
4 83 13 18 84
4 82 12 22 81
4 86 5 19 85
4 87 4 23 80
3 17 15 8
3 88 89 90
4 89 15 8 90
4 89 15 17 88
4 90 8 17 88
3 21 10 9
3 91 92 93
4 92 10 9 93
4 92 10 21 91
4 93 9 21 91
3 18 14 13
3 94 95 96
4 95 14 13 96
4 95 14 18 94
4 96 13 18 94
3 22 11 12
3 97 98 99
4 98 11 12 99
4 98 11 22 97
4 99 12 22 97
3 16 7 0
3 100 101 102
4 101 7 0 102
4 101 7 16 100
4 102 0 16 100
3 20 2 1
3 103 104 105
4 104 2 1 105
4 104 2 20 103
4 105 1 20 103
3 19 6 5
3 106 107 108
4 107 6 5 108
4 107 6 19 106
4 108 5 19 106
3 23 3 4
3 109 110 111
4 110 3 4 111
4 110 3 23 109
4 111 4 23 109
# cell 1: 0 1 2 3 4 5 6 7 8 9 10 11 12 13
# cell 2: 14 15 16 17 18 19 20 21 22 23 24 25 26 27
# cell 3: 28 29 30 31 32 33 34 35 36 37
# cell 4: 38 39 40 41 42 43 44 45 46 47
# cell 5: 48 49 50 51 52 53 54 55 56 57
# cell 6: 58 59 60 61 62 63 64 65 66 67
# cell 7: 68 69 70 71 72 73 74 75 76 77
# cell 8: 78 79 80 81 82 83 84 85 86 87
# cell 9: 88 89 90 91 92
# cell 10: 93 94 95 96 97
# cell 11: 98 99 100 101 102
# cell 12: 103 104 105 106 107
# cell 13: 108 109 110 111 112
# cell 14: 113 114 115 116 117
# cell 15: 118 119 120 121 122
# cell 16: 123 124 125 126 127