OFF
# face-rotation BFS net; polygonal faces are preserved
# the cell decomposition is listed below as comments
116 128 0
-0.5 0.5 -1.4142135623730951
0.5 0.5 -1.4142135623730951
0.5 -0.5 -1.4142135623730951
-0.5 -0.5 -1.4142135623730951
-0.5 0.5 1.4142135623730951
0.5 0.5 1.4142135623730951
0.5 -0.5 1.4142135623730951
-0.5 -0.5 1.4142135623730951
-1. -1. -0.7071067811865476
-0.5 -1.5 0.
-1. -1. 0.7071067811865476
-1.5 -0.5 0.
1. -1. -0.7071067811865476
1.5 -0.5 0.
1. -1. 0.7071067811865476
0.5 -1.5 0.
-1. 1. -0.7071067811865476
-0.5 1.5 0.
-1. 1. 0.7071067811865476
-1.5 0.5 0.
1. 1. -0.7071067811865476
1.5 0.5 0.
1. 1. 0.7071067811865476
0.5 1.5 0.
-0.5 0.5 -2.414213562373095
0.5 0.5 -2.414213562373095
0.5 -0.5 -2.414213562373095
-0.5 -0.5 -2.414213562373095
-0.5 0.5 -5.242640687119286
0.5 0.5 -5.242640687119286
0.5 -0.5 -5.242640687119286
-0.5 -0.5 -5.242640687119286
-1. -1. -3.121320343559643
-0.5 -1.5 -3.8284271247461903
-1. -1. -4.535533905932738
-1.5 -0.5 -3.8284271247461903
1. -1. -3.121320343559643
1.5 -0.5 -3.8284271247461903
1. -1. -4.535533905932738
0.5 -1.5 -3.8284271247461903
-1. 1. -3.121320343559643
-0.5 1.5 -3.8284271247461903
-1. 1. -4.535533905932738
-1.5 0.5 -3.8284271247461903
1. 1. -3.121320343559643
1.5 0.5 -3.8284271247461903
1. 1. -4.535533905932738
0.5 1.5 -3.8284271247461903
-0.5 0.5 2.4142135623730954
0.5 0.5 2.4142135623730954
0.5 -0.5 2.4142135623730954
-0.5 -0.5 2.4142135623730954
-1.7071067811865475 -1.7071067811865475 -0.7071067811865476
-1.2071067811865475 -2.2071067811865475 0.
-1.7071067811865475 -1.7071067811865475 0.7071067811865476
-2.2071067811865475 -1.2071067811865475 0.
1.7071067811865475 -1.7071067811865475 -0.7071067811865476
2.2071067811865475 -1.2071067811865475 0.
1.7071067811865475 -1.7071067811865475 0.7071067811865476
1.2071067811865475 -2.2071067811865475 0.
-1.7071067811865475 1.7071067811865475 -0.7071067811865476
-1.2071067811865475 2.2071067811865475 0.
-1.7071067811865475 1.7071067811865475 0.7071067811865476
-2.2071067811865475 1.2071067811865475 0.
1.7071067811865475 1.7071067811865475 -0.7071067811865476
2.2071067811865475 1.2071067811865475 0.
1.7071067811865475 1.7071067811865475 0.7071067811865476
1.2071067811865475 2.2071067811865475 0.
-0.5 1.316496580927726 1.9915638315627209
0.5 1.316496580927726 1.9915638315627209
1. 1.816496580927726 1.2844570503761734
0.5 2.3164965809277263 0.577350269189626
-0.5 2.3164965809277263 0.577350269189626
-1. 1.816496580927726 1.2844570503761734
-0.5 1.316496580927726 -1.9915638315627209
0.5 1.316496580927726 -1.9915638315627209
1. 1.816496580927726 -1.2844570503761734
0.5 2.3164965809277263 -0.577350269189626
-0.5 2.3164965809277263 -0.577350269189626
-1. 1.816496580927726 -1.2844570503761734
-0.5 -2.3164965809277263 0.577350269189626
0.5 -2.3164965809277263 0.577350269189626
1. -1.816496580927726 1.2844570503761734
0.5 -1.316496580927726 1.9915638315627209
-0.5 -1.316496580927726 1.9915638315627209
-1. -1.816496580927726 1.2844570503761734
-0.5 -2.3164965809277263 -0.577350269189626
0.5 -2.3164965809277263 -0.577350269189626
1. -1.816496580927726 -1.2844570503761734
0.5 -1.316496580927726 -1.9915638315627209
-0.5 -1.316496580927726 -1.9915638315627209
-1. -1.816496580927726 -1.2844570503761734
-2.3164965809277263 0.5 -0.577350269189626
-1.816496580927726 1. -1.2844570503761734
-1.316496580927726 0.5 -1.9915638315627209
-1.316496580927726 -0.5 -1.9915638315627209
-1.816496580927726 -1. -1.2844570503761734
-2.3164965809277263 -0.5 -0.577350269189626
-2.3164965809277263 0.5 0.577350269189626
-1.816496580927726 1. 1.2844570503761734
-1.316496580927726 0.5 1.9915638315627209
-1.316496580927726 -0.5 1.9915638315627209
-1.816496580927726 -1. 1.2844570503761734
-2.3164965809277263 -0.5 0.577350269189626
1.316496580927726 0.5 -1.9915638315627209
1.816496580927726 1. -1.2844570503761734
2.3164965809277263 0.5 -0.577350269189626
2.3164965809277263 -0.5 -0.577350269189626
1.816496580927726 -1. -1.2844570503761734
1.316496580927726 -0.5 -1.9915638315627209
1.316496580927726 0.5 1.9915638315627209
1.816496580927726 1. 1.2844570503761734
2.3164965809277263 0.5 0.577350269189626
2.3164965809277263 -0.5 0.577350269189626
1.816496580927726 -1. 1.2844570503761734
1.316496580927726 -0.5 1.9915638315627209
4 0 1 2 3
4 4 5 6 7
4 8 9 10 11
4 12 13 14 15
4 16 17 18 19
4 20 21 22 23
6 4 5 22 23 17 18
6 0 1 20 23 17 16
6 9 15 14 6 7 10
6 9 15 12 2 3 8
6 19 16 0 3 8 11
6 19 18 4 7 10 11
6 1 20 21 13 12 2
6 5 22 21 13 14 6
4 24 25 26 27
4 28 29 30 31
4 32 33 34 35
4 36 37 38 39
4 40 41 42 43
4 44 45 46 47
6 28 29 46 47 41 42
6 24 25 44 47 41 40
6 33 39 38 30 31 34
6 33 39 36 26 27 32
6 43 40 24 27 32 35
6 43 42 28 31 34 35
6 25 44 45 37 36 26
6 29 46 45 37 38 30
4 0 1 2 3
4 24 25 26 27
4 25 1 0 24
4 26 2 3 27
4 24 0 3 27
4 25 1 2 26
4 4 5 6 7
4 48 49 50 51
4 49 5 4 48
4 50 6 7 51
4 48 4 7 51
4 49 5 6 50
4 8 9 10 11
4 52 53 54 55
4 53 9 10 54
4 53 9 8 52
4 52 8 11 55
4 54 10 11 55
4 12 13 14 15
4 56 57 58 59
4 58 14 15 59
4 56 12 15 59
4 57 13 12 56
4 57 13 14 58
4 16 17 18 19
4 60 61 62 63
4 61 17 18 62
4 61 17 16 60
4 60 16 19 63
4 62 18 19 63
4 20 21 22 23
4 64 65 66 67
4 66 22 23 67
4 64 20 23 67
4 65 21 20 64
4 65 21 22 66
6 4 5 22 23 17 18
6 68 69 70 71 72 73
4 69 5 4 68
4 72 17 18 73
4 70 22 23 71
4 71 23 17 72
4 68 4 18 73
4 70 22 5 69
6 0 1 20 23 17 16
6 74 75 76 77 78 79
4 75 1 0 74
4 78 17 16 79
4 76 20 23 77
4 77 23 17 78
4 74 0 16 79
4 76 20 1 75
6 9 15 14 6 7 10
6 80 81 82 83 84 85
4 83 6 7 84
4 80 9 10 85
4 82 14 15 81
4 81 15 9 80
4 84 7 10 85
4 82 14 6 83
6 9 15 12 2 3 8
6 86 87 88 89 90 91
4 89 2 3 90
4 86 9 8 91
4 88 12 15 87
4 87 15 9 86
4 90 3 8 91
4 88 12 2 89
6 19 16 0 3 8 11
6 92 93 94 95 96 97
4 94 0 3 95
4 96 8 11 97
4 93 16 19 92
4 94 0 16 93
4 95 3 8 96
4 92 19 11 97
6 19 18 4 7 10 11
6 98 99 100 101 102 103
4 100 4 7 101
4 102 10 11 103
4 99 18 19 98
4 100 4 18 99
4 101 7 10 102
4 98 19 11 103
6 1 20 21 13 12 2
6 104 105 106 107 108 109
4 104 1 2 109
4 107 13 12 108
4 106 21 20 105
4 105 20 1 104
4 108 12 2 109
4 106 21 13 107
6 5 22 21 13 14 6
6 110 111 112 113 114 115
4 110 5 6 115
4 113 13 14 114
4 112 21 22 111
4 111 22 5 110
4 114 14 6 115
4 112 21 13 113
# cell 1: 0 1 2 3 4 5 6 7 8 9 10 11 12 13
# cell 2: 14 15 16 17 18 19 20 21 22 23 24 25 26 27
# cell 3: 28 29 30 31 32 33
# cell 4: 34 35 36 37 38 39
# cell 5: 40 41 42 43 44 45
# cell 6: 46 47 48 49 50 51
# cell 7: 52 53 54 55 56 57
# cell 8: 58 59 60 61 62 63
# cell 9: 64 65 66 67 68 69 70 71
# cell 10: 72 73 74 75 76 77 78 79
# cell 11: 80 81 82 83 84 85 86 87
# cell 12: 88 89 90 91 92 93 94 95
# cell 13: 96 97 98 99 100 101 102 103
# cell 14: 104 105 106 107 108 109 110 111
# cell 15: 112 113 114 115 116 117 118 119
# cell 16: 120 121 122 123 124 125 126 127