OFF
# face-rotation BFS net; polygonal faces are preserved
# the cell decomposition is listed below as comments
290 308 0
0.9510565162951534 -1.3090169943749475 -2.48989828488278
1.5388417685876268 -0.5 -2.48989828488278
1.5388417685876268 0.5 -2.48989828488278
0.9510565162951534 1.3090169943749475 -2.48989828488278
-7.031412489292658e-17 1.618033988749895 -2.48989828488278
-0.9510565162951536 1.3090169943749475 -2.48989828488278
-1.5388417685876268 0.5 -2.48989828488278
-1.5388417685876268 -0.5 -2.48989828488278
-0.9510565162951536 -1.3090169943749475 -2.48989828488278
-7.031412489292658e-17 -1.618033988749895 -2.48989828488278
0.9510565162951534 -1.3090169943749475 2.48989828488278
1.5388417685876268 -0.5 2.48989828488278
1.5388417685876268 0.5 2.48989828488278
0.9510565162951534 1.3090169943749475 2.48989828488278
-7.031412489292658e-17 1.618033988749895 2.48989828488278
-0.9510565162951536 1.3090169943749475 2.48989828488278
-1.5388417685876268 0.5 2.48989828488278
-1.5388417685876268 -0.5 2.48989828488278
-0.9510565162951536 -1.3090169943749475 2.48989828488278
-7.031412489292658e-17 -1.618033988749895 2.48989828488278
-2.0645728807067605 2.118033988749895 0.2628655560595668
-2.2270327288232137 1.618033988749895 1.1135163644116068
-1.8017073246471935 1.3090169943749475 1.9641671727636467
0.6881909602355867 2.118033988749895 1.9641671727636467
0.8506508083520398 2.618033988749895 1.1135163644116068
0.4253254041760199 2.9270509831248424 0.2628655560595668
-0.42532540417602 2.9270509831248424 -0.2628655560595668
-1.3763819204711736 2.618033988749895 -0.2628655560595668
-2.9152236890588004 -0.5 -0.2628655560595668
-2.9152236890588004 0.5 -0.2628655560595668
-2.6523581329992334 1.3090169943749475 0.2628655560595668
-1.8017073246471935 -1.3090169943749475 1.9641671727636467
-2.2270327288232137 -1.618033988749895 1.1135163644116068
-2.6523581329992334 -1.3090169943749475 0.2628655560595668
-2.0645728807067605 -2.118033988749895 0.2628655560595668
0.6881909602355867 -2.118033988749895 1.9641671727636467
0.8506508083520398 -2.618033988749895 1.1135163644116068
0.4253254041760199 -2.9270509831248424 0.2628655560595668
-0.42532540417602 -2.9270509831248424 -0.2628655560595668
-1.3763819204711736 -2.618033988749895 -0.2628655560595668
2.2270327288232137 0. 1.9641671727636467
2.752763840942347 0. 1.1135163644116068
2.9152236890588004 -0.5 0.2628655560595668
2.6523581329992334 -1.3090169943749475 -0.2628655560595668
2.0645728807067605 -2.118033988749895 -0.2628655560595668
1.3763819204711736 -2.618033988749895 0.2628655560595668
2.9152236890588004 0.5 0.2628655560595668
2.6523581329992334 1.3090169943749475 -0.2628655560595668
2.0645728807067605 2.118033988749895 -0.2628655560595668
1.3763819204711736 2.618033988749895 0.2628655560595668
2.2270327288232137 -1.618033988749895 -1.1135163644116068
1.8017073246471935 -1.3090169943749475 -1.9641671727636467
-0.6881909602355869 -2.118033988749895 -1.9641671727636467
-0.85065080835204 -2.618033988749895 -1.1135163644116068
1.8017073246471935 1.3090169943749475 -1.9641671727636467
2.2270327288232137 1.618033988749895 -1.1135163644116068
-0.6881909602355869 2.118033988749895 -1.9641671727636467
-0.85065080835204 2.618033988749895 -1.1135163644116068
-2.752763840942347 0. -1.1135163644116068
-2.2270327288232137 0. -1.9641671727636467
0.9510565162951534 -1.3090169943749475 -3.4898982848827798
1.538841768587627 -0.5 -3.4898982848827798
1.538841768587627 0.49999999999999994 -3.4898982848827798
0.9510565162951534 1.3090169943749475 -3.4898982848827793
-7.031412489292643e-17 1.618033988749895 -3.489898284882779
-0.9510565162951536 1.3090169943749475 -3.489898284882779
-1.5388417685876266 0.49999999999999994 -3.489898284882779
-1.5388417685876266 -0.5 -3.489898284882779
-0.9510565162951536 -1.3090169943749475 -3.4898982848827793
-7.031412489292663e-17 -1.618033988749895 -3.4898982848827798
0.9510565162951523 -1.3090169943749466 -8.46969485464834
1.5388417685876257 -0.49999999999999917 -8.46969485464834
1.5388417685876257 0.5000000000000009 -8.46969485464834
0.9510565162951523 1.3090169943749483 -8.46969485464834
-1.2329547703174723e-15 1.6180339887498958 -8.469694854648338
-0.9510565162951548 1.3090169943749483 -8.469694854648338
-1.538841768587628 0.5000000000000009 -8.469694854648338
-1.538841768587628 -0.49999999999999917 -8.469694854648338
-0.9510565162951548 -1.3090169943749466 -8.46969485464834
-1.2329547703174727e-15 -1.618033988749894 -8.46969485464834
-2.0645728807067614 2.1180339887498953 -6.242662125825126
-2.227032728823215 1.6180339887498956 -7.093312934177165
-1.8017073246471944 1.3090169943749483 -7.943963742529206
0.6881909602355857 2.118033988749896 -7.943963742529206
0.850650808352039 2.6180339887498953 -7.093312934177167
0.4253254041760192 2.927050983124843 -6.242662125825126
-0.42532540417602055 2.927050983124843 -5.7169310137059925
-1.376381920471174 2.6180339887498953 -5.716931013705992
-2.9152236890588012 -0.4999999999999996 -5.7169310137059925
-2.9152236890588012 0.5000000000000003 -5.716931013705992
-2.6523581329992343 1.309016994374948 -6.242662125825126
-1.8017073246471944 -1.3090169943749466 -7.943963742529206
-2.227032728823215 -1.6180339887498942 -7.093312934177167
-2.6523581329992343 -1.309016994374947 -6.242662125825126
-2.0645728807067614 -2.1180339887498945 -6.2426621258251265
0.6881909602355857 -2.118033988749894 -7.943963742529206
0.850650808352039 -2.6180339887498945 -7.093312934177167
0.4253254041760192 -2.927050983124842 -6.242662125825127
-0.42532540417602055 -2.927050983124842 -5.716931013705993
-1.376381920471174 -2.6180339887498945 -5.7169310137059925
2.2270327288232123 7.555296906787481e-16 -7.943963742529206
2.752763840942346 6.112363595139545e-16 -7.093312934177167
2.9152236890587995 -0.4999999999999995 -6.242662125825127
2.6523581329992325 -1.309016994374947 -5.716931013705993
2.0645728807067596 -2.1180339887498945 -5.716931013705993
1.3763819204711731 -2.6180339887498945 -6.242662125825127
2.9152236890587995 0.5000000000000004 -6.242662125825127
2.6523581329992325 1.309016994374948 -5.716931013705993
2.0645728807067596 2.1180339887498953 -5.7169310137059925
1.3763819204711731 2.6180339887498953 -6.2426621258251265
2.2270327288232132 -1.6180339887498947 -4.866280205353954
1.8017073246471935 -1.3090169943749475 -4.015629397001914
-0.688190960235587 -2.118033988749895 -4.015629397001913
-0.8506508083520403 -2.6180339887498945 -4.866280205353953
1.8017073246471935 1.3090169943749475 -4.015629397001913
2.2270327288232132 1.6180339887498951 -4.866280205353953
-0.688190960235587 2.118033988749895 -4.015629397001913
-0.8506508083520403 2.6180339887498953 -4.866280205353952
-2.7527638409423476 2.3347151417458017e-16 -4.866280205353952
-2.227032728823214 8.917818300978665e-17 -4.015629397001913
0.9510565162951534 -1.3090169943749475 3.48989828488278
1.5388417685876268 -0.5 3.48989828488278
1.5388417685876268 0.5 3.48989828488278
0.9510565162951534 1.3090169943749475 3.48989828488278
-7.031412489292663e-17 1.618033988749895 3.48989828488278
-0.9510565162951536 1.3090169943749475 3.48989828488278
-1.5388417685876268 0.5 3.48989828488278
-1.5388417685876268 -0.5 3.48989828488278
-0.9510565162951536 -1.3090169943749475 3.48989828488278
-7.031412489292663e-17 -1.618033988749895 3.48989828488278
-2.3409660829567818 2.968684797101935 0.7100791515595246
-2.5034259310732345 2.468684797101935 1.5607299599115647
-2.078100526897215 2.1596678027269878 2.4113807682636046
-1.227449718545175 2.1596678027269878 2.937111880382738
-0.2763932022500214 2.4686847971019352 2.937111880382738
0.4117977579855654 2.9686847971019357 2.411380768263605
0.5742576061020186 3.4686847971019352 1.560729959911565
0.14893220192599843 3.7777017914768827 0.7100791515595248
-0.7017186064260412 3.7777017914768827 0.18434803944039113
-1.652775122721195 3.4686847971019352 0.18434803944039113
-3.809650880058716 -0.5 0.18434803944039113
-3.809650880058716 0.5000000000000001 0.18434803944039113
-3.546785323999149 1.3090169943749475 0.710079151559525
-3.1214599198231294 1.618033988749895 1.5607299599115647
-2.6961345156471097 1.3090169943749475 2.4113807682636046
-2.4332689595875427 0.5000000000000001 2.937111880382738
-2.433268959587543 -0.4999999999999999 2.937111880382738
-2.6961345156471097 -1.3090169943749475 2.411380768263605
-3.1214599198231294 -1.618033988749895 1.560729959911565
-3.5467853239991496 -1.3090169943749475 0.710079151559525
-2.3409660829567818 -2.968684797101935 0.7100791515595246
-2.5034259310732345 -2.468684797101935 1.5607299599115647
-2.078100526897215 -2.1596678027269878 2.4113807682636046
-1.227449718545175 -2.1596678027269878 2.937111880382738
-0.2763932022500214 -2.4686847971019352 2.937111880382738
0.4117977579855654 -2.9686847971019357 2.411380768263605
0.5742576061020186 -3.4686847971019352 1.560729959911565
0.14893220192599843 -3.7777017914768827 0.7100791515595248
-0.7017186064260412 -3.7777017914768827 0.18434803944039113
-1.652775122721195 -3.4686847971019352 0.18434803944039113
1.4117977579855654 -2.6437651008690284 2.411380768263605
1.6746633140451321 -1.834748106494081 2.9371118803827385
2.2624485663376053 -1.0257311121191333 2.937111880382738
2.950639526573192 -0.5257311121191333 2.4113807682636046
3.476370638692326 -0.5257311121191333 1.560729959911565
3.6388304868087795 -1.0257311121191335 0.7100791515595251
3.3759649307492126 -1.8347481064940812 0.18434803944039135
2.788179678456739 -2.643765100869029 0.18434803944039135
2.0999887182211525 -3.143765100869029 0.7100791515595251
1.5742576061020186 -3.1437651008690284 1.5607299599115652
1.4117977579855654 2.6437651008690284 2.411380768263605
1.6746633140451321 1.834748106494081 2.9371118803827385
2.2624485663376053 1.0257311121191333 2.937111880382738
2.950639526573192 0.5257311121191333 2.4113807682636046
3.476370638692326 0.5257311121191333 1.560729959911565
3.6388304868087795 1.0257311121191335 0.7100791515595251
3.3759649307492126 1.8347481064940812 0.18434803944039135
2.788179678456739 2.643765100869029 0.18434803944039135
2.0999887182211525 3.143765100869029 0.7100791515595251
1.5742576061020186 3.1437651008690284 1.5607299599115652
2.3409660829567818 -2.9686847971019343 -0.7100791515595244
2.5034259310732345 -2.4686847971019343 -1.5607299599115645
2.078100526897215 -2.1596678027269873 -2.4113807682636046
1.227449718545175 -2.1596678027269878 -2.937111880382738
0.2763932022500214 -2.4686847971019352 -2.937111880382738
-0.4117977579855654 -2.9686847971019352 -2.411380768263605
-0.5742576061020184 -3.4686847971019352 -1.560729959911565
-0.14893220192599843 -3.7777017914768827 -0.7100791515595246
0.7017186064260412 -3.7777017914768822 -0.1843480394403909
1.652775122721195 -3.468684797101935 -0.1843480394403909
2.4332689595875427 -0.5 -2.937111880382738
2.4332689595875427 0.5 -2.937111880382738
2.6961345156471097 1.3090169943749472 -2.411380768263605
3.1214599198231294 1.6180339887498947 -1.560729959911565
3.5467853239991496 1.3090169943749472 -0.7100791515595251
3.809650880058716 0.5 -0.18434803944039135
3.809650880058716 -0.5 -0.18434803944039135
3.5467853239991496 -1.3090169943749477 -0.7100791515595251
3.1214599198231294 -1.6180339887498951 -1.560729959911565
2.6961345156471093 -1.3090169943749477 -2.411380768263605
2.3409660829567818 2.9686847971019343 -0.7100791515595244
2.5034259310732345 2.4686847971019343 -1.5607299599115645
2.078100526897215 2.1596678027269873 -2.4113807682636046
1.227449718545175 2.1596678027269878 -2.937111880382738
0.2763932022500214 2.4686847971019352 -2.937111880382738
-0.4117977579855654 2.9686847971019352 -2.411380768263605
-0.5742576061020184 3.4686847971019352 -1.560729959911565
-0.14893220192599843 3.7777017914768827 -0.7100791515595246
0.7017186064260412 3.7777017914768822 -0.1843480394403909
1.652775122721195 3.468684797101935 -0.1843480394403909
-3.4763706386923263 0.5257311121191335 -1.5607299599115647
-2.950639526573193 0.5257311121191335 -2.4113807682636046
-2.262448566337606 1.0257311121191337 -2.937111880382738
-1.6746633140451328 1.8347481064940812 -2.937111880382738
-1.4117977579855658 2.643765100869029 -2.4113807682636046
-1.574257606102019 3.143765100869029 -1.5607299599115647
-2.099988718221153 3.143765100869029 -0.7100791515595251
-2.7881796784567396 2.643765100869029 -0.18434803944039135
-3.3759649307492126 1.8347481064940812 -0.18434803944039135
-3.63883048680878 1.0257311121191337 -0.7100791515595251
-3.4763706386923263 -0.5257311121191335 -1.5607299599115647
-2.950639526573193 -0.5257311121191335 -2.4113807682636046
-2.262448566337606 -1.0257311121191337 -2.937111880382738
-1.6746633140451328 -1.8347481064940812 -2.937111880382738
-1.4117977579855658 -2.643765100869029 -2.4113807682636046
-1.574257606102019 -3.143765100869029 -1.5607299599115647
-2.099988718221153 -3.143765100869029 -0.7100791515595251
-2.7881796784567396 -2.643765100869029 -0.18434803944039135
-3.3759649307492126 -1.8347481064940812 -0.18434803944039135
-3.63883048680878 -1.0257311121191337 -0.7100791515595251
3.8974706354356465 -0.4999999999999991 0.4504580301446463
3.7350107873191933 8.835941590994449e-16 1.3011088384966862
3.8974706354356456 0.5000000000000009 0.4504580301446461
-3.8974706354356465 -0.4999999999999991 -0.4504580301446463
-3.7350107873191933 8.835941590994449e-16 -1.3011088384966862
-3.8974706354356456 0.5000000000000009 -0.4504580301446461
2.8340947270299 5.342627906415094e-16 2.758821645055413
2.145903766794313 0.5000000000000006 3.2845527571745463
2.1459037667943135 -0.4999999999999995 3.2845527571745468
-2.145903766794313 -0.5000000000000004 -3.2845527571745463
-2.8340947270298997 -4.833874250661561e-16 -2.758821645055413
-2.145903766794313 0.49999999999999956 -3.2845527571745468
3.02168720111498 2.1953842579395206 -1.3011088384966865
2.8592273529985266 2.6953842579395206 -0.4504580301446464
3.4470126052909995 1.8863672635645732 -0.4504580301446464
3.02168720111498 -2.1953842579395206 -1.3011088384966865
2.8592273529985266 -2.6953842579395206 -0.4504580301446464
3.4470126052909995 -1.8863672635645732 -0.4504580301446464
-3.4470126052909995 1.8863672635645732 0.4504580301446467
-2.8592273529985266 2.6953842579395206 0.4504580301446466
-3.02168720111498 2.1953842579395206 1.3011088384966867
-3.4470126052909995 -1.8863672635645732 0.4504580301446467
-2.8592273529985266 -2.6953842579395206 0.4504580301446466
-3.02168720111498 -2.1953842579395206 1.3011088384966867
2.292830797835616 1.6658390841480375 -2.758821645055413
1.4421799894835763 1.6658390841480375 -3.2845527571745463
2.0299652417760496 0.8568220897730903 -3.2845527571745468
2.292830797835616 -1.6658390841480375 -2.758821645055413
1.4421799894835763 -1.6658390841480375 -3.2845527571745463
2.0299652417760496 -0.8568220897730903 -3.2845527571745468
-2.02996524177605 0.8568220897730899 3.2845527571745468
-2.2928307978356166 1.6658390841480375 2.758821645055413
-1.4421799894835767 1.6658390841480375 3.2845527571745468
-2.02996524177605 -0.8568220897730899 3.2845527571745468
-2.2928307978356166 -1.6658390841480375 2.758821645055413
-1.4421799894835767 -1.6658390841480375 3.2845527571745468
0.7288564032793631 3.861223342087558 0.45045803014464636
1.6799129195745168 3.5522063477126107 0.45045803014464636
1.1541818074553831 3.552206347712611 1.3011088384966865
0.7288564032793631 -3.861223342087558 0.45045803014464636
1.6799129195745168 -3.5522063477126107 0.45045803014464636
1.1541818074553831 -3.552206347712611 1.3011088384966865
1.1386489903802333 1.8863672635645727 3.2845527571745463
0.18759247408507973 2.19538425793952 3.2845527571745463
0.8757834343206665 2.69538425793952 2.7588216450554133
1.1386489903802333 -1.8863672635645727 3.2845527571745463
0.18759247408507973 -2.19538425793952 3.2845527571745463
0.8757834343206665 -2.69538425793952 2.7588216450554133
-1.1386489903802335 1.8863672635645727 -3.2845527571745468
-0.18759247408507984 2.19538425793952 -3.2845527571745468
-0.8757834343206667 2.69538425793952 -2.7588216450554133
-1.1386489903802335 -1.8863672635645727 -3.2845527571745468
-0.18759247408507984 -2.19538425793952 -3.2845527571745468
-0.8757834343206667 -2.69538425793952 -2.7588216450554133
-1.154181807455383 3.5522063477126107 -1.301108838496687
-0.7288564032793627 3.861223342087558 -0.4504580301446469
-1.6799129195745164 3.552206347712611 -0.450458030144647
-1.154181807455383 -3.5522063477126107 -1.301108838496687
-0.7288564032793627 -3.861223342087558 -0.4504580301446469
-1.6799129195745164 -3.552206347712611 -0.450458030144647
10 0 1 2 3 4 5 6 7 8 9
10 10 11 12 13 14 15 16 17 18 19
10 20 21 22 15 14 23 24 25 26 27
10 28 29 30 21 22 16 17 31 32 33
10 34 32 31 18 19 35 36 37 38 39
10 35 10 11 40 41 42 43 44 45 36
10 23 13 12 40 41 46 47 48 49 24
10 44 50 51 0 9 52 53 38 37 45
10 1 2 54 55 47 46 42 43 50 51
10 48 55 54 3 4 56 57 26 25 49
10 58 59 6 5 56 57 27 20 30 29
10 58 59 7 8 52 53 39 34 33 28
3 42 41 46
3 28 58 29
3 40 12 11
3 7 59 6
3 55 48 47
3 50 44 43
3 30 20 21
3 33 34 32
3 54 3 2
3 51 0 1
3 16 22 15
3 17 31 18
3 25 49 24
3 37 45 36
3 13 14 23
3 10 19 35
3 5 4 56
3 8 9 52
3 57 26 27
3 53 38 39
10 60 61 62 63 64 65 66 67 68 69
10 70 71 72 73 74 75 76 77 78 79
10 80 81 82 75 74 83 84 85 86 87
10 88 89 90 81 82 76 77 91 92 93
10 94 92 91 78 79 95 96 97 98 99
10 95 70 71 100 101 102 103 104 105 96
10 83 73 72 100 101 106 107 108 109 84
10 104 110 111 60 69 112 113 98 97 105
10 61 62 114 115 107 106 102 103 110 111
10 108 115 114 63 64 116 117 86 85 109
10 118 119 66 65 116 117 87 80 90 89
10 118 119 67 68 112 113 99 94 93 88
3 102 101 106
3 88 118 89
3 100 72 71
3 67 119 66
3 115 108 107
3 110 104 103
3 90 80 81
3 93 94 92
3 114 63 62
3 111 60 61
3 76 82 75
3 77 91 78
3 85 109 84
3 97 105 96
3 73 74 83
3 70 79 95
3 65 64 116
3 68 69 112
3 117 86 87
3 113 98 99
10 0 1 2 3 4 5 6 7 8 9
10 60 61 62 63 64 65 66 67 68 69
4 69 9 0 60
4 62 2 1 61
4 64 4 3 63
4 65 5 6 66
4 68 8 7 67
4 66 6 7 67
4 63 3 2 62
4 60 0 1 61
4 64 4 5 65
4 69 9 8 68
10 10 11 12 13 14 15 16 17 18 19
10 120 121 122 123 124 125 126 127 128 129
4 124 14 15 125
4 126 16 17 127
4 129 19 18 128
4 120 10 11 121
4 123 13 12 122
4 122 12 11 121
4 125 15 16 126
4 128 18 17 127
4 124 14 13 123
4 129 19 10 120
10 20 21 22 15 14 23 24 25 26 27
10 130 131 132 133 134 135 136 137 138 139
4 134 14 15 133
4 132 22 21 131
4 135 23 24 136
4 138 26 25 137
4 139 27 20 130
4 130 20 21 131
4 132 22 15 133
4 136 24 25 137
4 134 14 23 135
4 138 26 27 139
10 28 29 30 21 22 16 17 31 32 33
10 140 141 142 143 144 145 146 147 148 149
4 145 16 17 146
4 144 22 21 143
4 147 31 32 148
4 142 30 29 141
4 149 33 28 140
4 141 29 28 140
4 143 21 30 142
4 148 32 33 149
4 144 22 16 145
4 147 31 17 146
10 34 32 31 18 19 35 36 37 38 39
10 150 151 152 153 154 155 156 157 158 159
4 154 19 18 153
4 152 31 32 151
4 155 35 36 156
4 158 38 37 157
4 159 39 34 150
4 150 34 32 151
4 152 31 18 153
4 156 36 37 157
4 154 19 35 155
4 158 38 39 159
10 35 10 11 40 41 42 43 44 45 36
10 160 161 162 163 164 165 166 167 168 169
4 161 10 11 162
4 160 35 36 169
4 164 41 40 163
4 167 44 45 168
4 166 43 42 165
4 164 41 42 165
4 162 11 40 163
4 167 44 43 166
4 168 45 36 169
4 160 35 10 161
10 23 13 12 40 41 46 47 48 49 24
10 170 171 172 173 174 175 176 177 178 179
4 171 13 12 172
4 170 23 24 179
4 174 41 40 173
4 176 47 46 175
4 177 48 49 178
4 174 41 46 175
4 172 12 40 173
4 177 48 47 176
4 178 49 24 179
4 170 23 13 171
10 44 50 51 0 9 52 53 38 37 45
10 180 181 182 183 184 185 186 187 188 189
4 184 9 0 183
4 187 38 37 188
4 180 44 45 189
4 181 50 51 182
4 185 52 53 186
4 180 44 50 181
4 183 0 51 182
4 189 45 37 188
4 184 9 52 185
4 187 38 53 186
10 1 2 54 55 47 46 42 43 50 51
10 190 191 192 193 194 195 196 197 198 199
4 191 2 1 190
4 197 43 42 196
4 194 47 46 195
4 198 50 51 199
4 193 55 54 192
4 195 46 42 196
4 194 47 55 193
4 197 43 50 198
4 191 2 54 192
4 190 1 51 199
10 48 55 54 3 4 56 57 26 25 49
10 200 201 202 203 204 205 206 207 208 209
4 204 4 3 203
4 207 26 25 208
4 200 48 49 209
4 201 55 54 202
4 205 56 57 206
4 200 48 55 201
4 203 3 54 202
4 209 49 25 208
4 204 4 56 205
4 207 26 57 206
10 58 59 6 5 56 57 27 20 30 29
10 210 211 212 213 214 215 216 217 218 219
4 213 5 6 212
4 216 27 20 217
4 218 30 29 219
4 214 56 57 215
4 210 58 59 211
4 210 58 29 219
4 211 59 6 212
4 217 20 30 218
4 214 56 5 213
4 216 27 57 215
10 58 59 7 8 52 53 39 34 33 28
10 220 221 222 223 224 225 226 227 228 229
4 223 8 7 222
4 228 33 28 229
4 226 39 34 227
4 224 52 53 225
4 220 58 59 221
4 220 58 28 229
4 221 59 7 222
4 227 34 33 228
4 224 52 8 223
4 226 39 53 225
3 42 41 46
3 230 231 232
4 231 41 42 230
4 231 41 46 232
4 232 46 42 230
3 28 58 29
3 233 234 235
4 235 29 28 233
4 234 58 29 235
4 234 58 28 233
3 40 12 11
3 236 237 238
4 237 12 11 238
4 238 11 40 236
4 237 12 40 236
3 7 59 6
3 239 240 241
4 241 6 7 239
4 240 59 6 241
4 240 59 7 239
3 55 48 47
3 242 243 244
4 243 48 47 244
4 244 47 55 242
4 243 48 55 242
3 50 44 43
3 245 246 247
4 246 44 43 247
4 246 44 50 245
4 247 43 50 245
3 30 20 21
3 248 249 250
4 249 20 21 250
4 250 21 30 248
4 249 20 30 248
3 33 34 32
3 251 252 253
4 253 32 33 251
4 252 34 32 253
4 252 34 33 251
3 54 3 2
3 254 255 256
4 255 3 2 256
4 256 2 54 254
4 255 3 54 254
3 51 0 1
3 257 258 259
4 258 0 1 259
4 258 0 51 257
4 259 1 51 257
3 16 22 15
3 260 261 262
4 262 15 16 260
4 261 22 15 262
4 261 22 16 260
3 17 31 18
3 263 264 265
4 265 18 17 263
4 264 31 17 263
4 264 31 18 265
3 25 49 24
3 266 267 268
4 268 24 25 266
4 267 49 24 268
4 267 49 25 266
3 37 45 36
3 269 270 271
4 271 36 37 269
4 270 45 36 271
4 270 45 37 269
3 13 14 23
3 272 273 274
4 273 14 13 272
4 273 14 23 274
4 274 23 13 272
3 10 19 35
3 275 276 277
4 276 19 10 275
4 276 19 35 277
4 277 35 10 275
3 5 4 56
3 278 279 280
4 279 4 5 278
4 279 4 56 280
4 280 56 5 278
3 8 9 52
3 281 282 283
4 282 9 8 281
4 282 9 52 283
4 283 52 8 281
3 57 26 27
3 284 285 286
4 285 26 27 286
4 285 26 57 284
4 286 27 57 284
3 53 38 39
3 287 288 289
4 288 38 39 289
4 288 38 53 287
4 289 39 53 287
# cell 1: 0 1 2 3 4 5 6 7 8 9 10 11 12 13 14 15 16 17 18 19 20 21 22 23 24 25 26 27 28 29 30 31
# cell 2: 32 33 34 35 36 37 38 39 40 41 42 43 44 45 46 47 48 49 50 51 52 53 54 55 56 57 58 59 60 61 62 63
# cell 3: 64 65 66 67 68 69 70 71 72 73 74 75
# cell 4: 76 77 78 79 80 81 82 83 84 85 86 87
# cell 5: 88 89 90 91 92 93 94 95 96 97 98 99
# cell 6: 100 101 102 103 104 105 106 107 108 109 110 111
# cell 7: 112 113 114 115 116 117 118 119 120 121 122 123
# cell 8: 124 125 126 127 128 129 130 131 132 133 134 135
# cell 9: 136 137 138 139 140 141 142 143 144 145 146 147
# cell 10: 148 149 150 151 152 153 154 155 156 157 158 159
# cell 11: 160 161 162 163 164 165 166 167 168 169 170 171
# cell 12: 172 173 174 175 176 177 178 179 180 181 182 183
# cell 13: 184 185 186 187 188 189 190 191 192 193 194 195
# cell 14: 196 197 198 199 200 201 202 203 204 205 206 207
# cell 15: 208 209 210 211 212
# cell 16: 213 214 215 216 217
# cell 17: 218 219 220 221 222
# cell 18: 223 224 225 226 227
# cell 19: 228 229 230 231 232
# cell 20: 233 234 235 236 237
# cell 21: 238 239 240 241 242
# cell 22: 243 244 245 246 247
# cell 23: 248 249 250 251 252
# cell 24: 253 254 255 256 257
# cell 25: 258 259 260 261 262
# cell 26: 263 264 265 266 267
# cell 27: 268 269 270 271 272
# cell 28: 273 274 275 276 277
# cell 29: 278 279 280 281 282
# cell 30: 283 284 285 286 287
# cell 31: 288 289 290 291 292
# cell 32: 293 294 295 296 297
# cell 33: 298 299 300 301 302
# cell 34: 303 304 305 306 307