OFF
# face-rotation BFS net; polygonal faces are preserved
# the cell decomposition is listed below as comments
57 68 0
-0.8660254037844386 -0.5 0.6123724356957946
-1.1547005383792515 0. -0.20412414523193143
-0.8660254037844386 0.5 0.6123724356957946
0.8660254037844386 0.5 0.6123724356957946
0. 1. 0.6123724356957946
0.5773502691896257 1. -0.20412414523193143
0.8660254037844386 -0.5 0.6123724356957946
0. -1. 0.6123724356957946
0.5773502691896257 -1. -0.20412414523193143
-0.5773502691896257 0. -1.0206207261596576
0.28867513459481287 0.5 -1.0206207261596576
0.28867513459481287 -0.5 -1.0206207261596576
-1.8088344453665017 -0.4999999999999995 0.9457057690291283
-2.0975095799613146 4.824845077547091e-16 0.12920918810140225
-1.8088344453665008 0.5000000000000004 0.9457057690291278
-3.155985073475627 0.5000000000000022 2.0343678769327633
-2.4824097594210635 1.0000000000000013 1.4900368229809453
-3.44466020807044 1.0000000000000022 1.2178712960050373
-3.155985073475628 -0.49999999999999784 2.0343678769327638
-2.4824097594210652 -0.9999999999999988 1.490036822980946
-3.444660208070442 -0.9999999999999978 1.217871296005038
-3.0597600286106914 1.334471953106241e-15 -0.1429563388745061
-3.733335342665254 0.5000000000000022 0.4013747150773115
-3.7333353426652547 -0.49999999999999784 0.4013747150773118
1.3374299245754704 1.3164965809277263 0.9457057690291281
0.47140452079103184 1.8164965809277263 0.9457057690291281
1.0487547899806575 1.8164965809277263 0.12920918810140214
1.3374299245754704 -1.3164965809277263 0.9457057690291281
0.47140452079103184 -1.8164965809277263 0.9457057690291281
1.0487547899806575 -1.8164965809277263 0.12920918810140214
-0.5773502691896257 0. -2.0206207261596574
0.28867513459481287 0.5 -2.0206207261596574
0.28867513459481287 -0.5 -2.0206207261596574
-1.6261050591702833 0.816496580927726 -0.5374574785652648
-1.3374299245754702 1.316496580927726 0.2790391023624611
-0.4714045207910318 1.816496580927726 0.2790391023624611
0.10594574839859394 1.816496580927726 -0.5374574785652648
-0.18272938619621892 1.316496580927726 -1.3539540594929909
-1.0487547899806575 0.8164965809277259 -1.3539540594929909
-1.6261050591702833 -0.816496580927726 -0.5374574785652648
-1.3374299245754702 -1.316496580927726 0.2790391023624611
-0.4714045207910318 -1.816496580927726 0.2790391023624611
0.10594574839859394 -1.816496580927726 -0.5374574785652648
-0.18272938619621892 -1.316496580927726 -1.3539540594929909
-1.0487547899806575 -0.8164965809277259 -1.3539540594929909
1.8088344453665022 -0.5 0.2790391023624613
1.8088344453665022 0.5 0.2790391023624613
1.5201593107716893 1. -0.5374574785652648
1.2314841761768767 0.5 -1.3539540594929909
1.2314841761768767 -0.5 -1.3539540594929909
1.5201593107716893 -1. -0.5374574785652648
-0.8660254037844386 -0.5 1.6123724356957947
-0.8660254037844386 0.5 1.6123724356957947
0. 1. 1.6123724356957947
0.8660254037844386 0.5 1.6123724356957947
0.8660254037844386 -0.5 1.6123724356957947
0. -1. 1.6123724356957947
3 0 1 2
3 3 4 5
3 6 7 8
3 9 10 11
6 1 2 4 5 10 9
6 1 0 7 8 11 9
6 6 3 5 10 11 8
6 0 2 4 3 6 7
3 12 13 14
3 15 16 17
3 18 19 20
3 21 22 23
6 13 14 16 17 22 21
6 13 12 19 20 23 21
6 18 15 17 22 23 20
6 12 14 16 15 18 19
3 0 1 2
3 12 13 14
4 13 1 2 14
4 13 1 0 12
4 14 2 0 12
3 3 4 5
3 24 25 26
4 25 4 5 26
4 26 5 3 24
4 25 4 3 24
3 6 7 8
3 27 28 29
4 28 7 8 29
4 29 8 6 27
4 28 7 6 27
3 9 10 11
3 30 31 32
4 31 10 9 30
4 32 11 9 30
4 31 10 11 32
6 1 2 4 5 10 9
6 33 34 35 36 37 38
4 33 1 2 34
4 35 4 5 36
4 37 10 9 38
4 38 9 1 33
4 36 5 10 37
4 35 4 2 34
6 1 0 7 8 11 9
6 39 40 41 42 43 44
4 39 1 0 40
4 41 7 8 42
4 43 11 9 44
4 44 9 1 39
4 42 8 11 43
4 41 7 0 40
6 6 3 5 10 11 8
6 45 46 47 48 49 50
4 47 5 3 46
4 50 8 6 45
4 48 10 11 49
4 47 5 10 48
4 50 8 11 49
4 46 3 6 45
6 0 2 4 3 6 7
6 51 52 53 54 55 56
4 52 2 0 51
4 53 4 3 54
4 56 7 6 55
4 53 4 2 52
4 56 7 0 51
4 54 3 6 55
# cell 1: 0 1 2 3 4 5 6 7
# cell 2: 8 9 10 11 12 13 14 15
# cell 3: 16 17 18 19 20
# cell 4: 21 22 23 24 25
# cell 5: 26 27 28 29 30
# cell 6: 31 32 33 34 35
# cell 7: 36 37 38 39 40 41 42 43
# cell 8: 44 45 46 47 48 49 50 51
# cell 9: 52 53 54 55 56 57 58 59
# cell 10: 60 61 62 63 64 65 66 67