OFF
# face-rotation BFS net; polygonal faces are preserved
# the cell decomposition is listed below as comments
177 240 0
-0.9999999999999999 -1.7320508075688774 -1.224744871391589
-2. -1.1547005383792515 0.4082482904638635
-2. -1.0288811278426586e-17 -1.224744871391589
1.0000000000000009 -0.5773502691896254 2.0412414523193156
-0.9999999999999996 -0.5773502691896254 2.041241452319316
6.6287150475219235e-16 1.1547005383792521 2.0412414523193156
1.0000000000000007 1.7320508075688776 -1.2247448713915887
-0.9999999999999997 1.7320508075688776 -1.224744871391589
6.6287150475219235e-16 2.3094010767585034 0.40824829046386335
2.000000000000001 3.066193000440126e-16 -1.224744871391589
1.0000000000000004 -1.7320508075688772 -1.224744871391589
2.000000000000001 -1.154700538379251 0.40824829046386335
-5.29965982852212 0.7503589518521896 0.5305839031787141
-3.6329931618554534 -0.21189149679718744 1.0749149571305305
-3.632993161855454 0.9428090415820642 -0.5580782047249215
-3.2996598285221186 1.9050594902314408 3.7965702268896178
-2.6329931618554525 0.3654587723924383 2.7079081189859826
-1.632993161855452 2.0975095799613155 2.707908118985982
-3.2996598285221195 4.214460566989944 0.5305839031787138
-2.6329931618554534 2.674859849150941 -0.5580782047249215
-1.6329931618554525 3.2522101183405665 1.0749149571305303
-4.9663264951887856 4.0220104772600695 1.619246011082349
-5.966326495188786 2.289959669691192 1.6192460110823492
-4.9663264951887856 2.867309938880817 3.2522391729378013
-2.0000000000000004 -4.964819518842132 0.5305839031787128
-2. -3.0403186215433786 1.07491495713053
-1.0000000000000002 -3.6176688907330043 -0.558078204724922
2.6921864914437687e-16 -3.8101189804628808 3.7965702268896173
-0.9999999999999998 -2.4629683523537533 2.7079081189859826
1.0000000000000004 -2.4629683523537533 2.7079081189859826
2.000000000000001 -4.964819518842132 0.5305839031787125
1.0000000000000002 -3.617668890733005 -0.558078204724922
2.000000000000001 -3.040318621543379 1.07491495713053
1.0000000000000002 -6.311970146951259 1.6192460110823474
-1.0000000000000002 -6.311970146951259 1.6192460110823474
1.1838878037018867e-16 -5.7346198777616335 3.2522391729378
-2.0000000000000004 -1.1547005383792508 -4.857738033247043
-2.0000000000000004 3.414879220119905e-16 -3.2247448713915894
-1.0000000000000002 -1.732050807568877 -3.2247448713915903
-2.409668217930313e-16 2.3094010767585043 -4.857738033247041
-1. 1.7320508075688776 -3.2247448713915894
1.0000000000000002 1.7320508075688783 -3.2247448713915894
2. -1.1547005383792504 -4.857738033247043
1.0000000000000002 -1.7320508075688765 -3.2247448713915903
2.0000000000000004 6.5839603333443e-16 -3.22474487139159
0.9999999999999996 -0.5773502691896238 -6.490731195102494
-1.0000000000000007 -0.5773502691896241 -6.490731195102494
-4.3570320100450207e-16 1.1547005383792535 -6.490731195102494
3.2996598285221213 1.9050594902314424 3.796570226889618
1.6329931618554538 2.0975095799613164 2.707908118985983
2.6329931618554543 0.3654587723924394 2.707908118985983
3.2996598285221204 4.214460566989945 0.5305839031787125
1.6329931618554534 3.252210118340568 1.0749149571305303
2.632993161855453 2.674859849150942 -0.5580782047249222
5.299659828522121 0.7503589518521909 0.5305839031787127
3.6329931618554547 -0.21189149679718566 1.0749149571305305
3.632993161855454 0.9428090415820649 -0.5580782047249218
5.966326495188788 2.2899596696911937 1.6192460110823474
4.966326495188788 2.86730993888082 3.2522391729377995
4.966326495188787 4.02201047726007 1.6192460110823472
-5.000000000000001 -1.73205080756888 -1.2247448713915878
-4. -1.1547005383792524 0.408248290463864
-2.999999999999999 -2.8867513459481295 0.4082482904638649
-3.999999999999999 -3.4641016151377566 -1.2247448713915872
-6.449489742783178 -2.5689141007523495 2.408248290463866
-4.724744871391589 -1.5731321849709876 2.224744871391591
-3.7247448713915876 -3.3051829925398644 2.224744871391592
-5.449489742783176 -4.300964908321226 2.4082482904638667
-7.449489742783178 -3.146264369941976 0.7752551286084145
-6.724744871391589 -2.7278327233502417 -1.0412414523193125
-5.724744871391588 -4.459883530919119 -1.0412414523193119
-6.449489742783176 -4.878315177510853 0.7752551286084154
-4.000000000000002 -2.609024107869118e-15 -1.2247448713915887
-3.0000000000000018 -0.5773502691896283 -2.8577380332470415
-4.000000000000001 -2.3094010767585065 -2.85773803324704
-6.449489742783182 1.4142135623730905 -3.224744871391589
-4.724744871391593 1.5731321849709832 -2.2247448713915894
-3.724744871391593 0.9957819157813572 -3.857738033247042
-5.449489742783182 0.8368632931834648 -4.857738033247041
-7.449489742783181 -0.3178372451957875 -3.2247448713915876
-6.724744871391591 -1.8909694301667734 -2.2247448713915867
-5.724744871391591 -2.468319699356399 -3.85773803324704
-6.449489742783181 -0.8951875143854133 -4.85773803324704
-1.9999999999999987 -3.4641016151377553 -1.2247448713915876
-2. -2.3094010767585043 -2.8577380332470406
-1.999999999999996 -6.292528739883947 -3.224744871391587
-0.9999999999999973 -4.87831517751085 -2.2247448713915876
-0.9999999999999987 -3.7236146391315987 -3.85773803324704
-1.9999999999999976 -5.137828201504695 -4.85773803324704
-3.9999999999999964 -6.292528739883949 -3.2247448713915867
-4.999999999999998 -4.878315177510854 -2.224744871391587
-5. -3.7236146391316027 -3.85773803324704
-3.999999999999998 -5.137828201504697 -4.857738033247039
-0.999999999999999 0.5773502691896273 5.3072277760302216
-0.9999999999999992 1.7320508075688783 3.674234614174768
1.0000000000000009 1.7320508075688776 3.6742346141747673
1.000000000000001 0.5773502691896268 5.307227776030221
-0.9999999999999988 4.560477932315069 5.674234614174767
-0.9999999999999992 3.7236146391315987 3.857738033247041
1.000000000000001 3.7236146391315987 3.85773803324704
1.0000000000000013 4.560477932315069 5.674234614174766
1.0000000000000013 1.4142135623730974 7.123724356957947
-0.9999999999999994 1.4142135623730974 7.123724356957947
-0.9999999999999988 3.4057773939358182 7.30722777603022
1.0000000000000016 3.4057773939358182 7.307227776030219
4.440892098500626e-16 -1.1547005383792497 5.3072277760302216
1.0000000000000007 -1.732050807568876 3.674234614174768
2.0000000000000013 8.881784197001252e-16 3.674234614174768
3.4494897427831797 -3.1462643699419734 5.674234614174769
2.7247448713915903 -2.7278327233502377 3.857738033247042
3.724744871391591 -0.9957819157813605 3.857738033247042
4.4494897427831805 -1.4142135623730958 5.674234614174768
2.4494897427831797 -2.568914100752347 7.307227776030221
0.72474487139159 -1.573132184970985 7.123724356957948
1.7247448713915912 0.15891862259789202 7.123724356957948
3.4494897427831805 -0.8368632931834694 7.307227776030221
0. 4.618802153517007 -2.8577380332470397
1.0000000000000004 2.886751345948129 -2.8577380332470406
2.0000000000000004 3.4641016151377544 -1.2247448713915883
0.9999999999999998 5.196152422706632 -1.2247448713915872
3.4494897427831783 4.300964908321227 -4.85773803324704
2.7247448713915894 2.727832723350239 -3.857738033247041
3.7247448713915903 3.3051829925398644 -2.224744871391588
4.449489742783179 4.878315177510852 -3.224744871391587
2.4494897427831774 6.033015715890104 -4.857738033247038
0.7247448713915885 6.191934338487995 -3.857738033247039
1.7247448713915885 6.769284607677619 -2.2247448713915863
3.449489742783178 6.61036598507973 -3.2247448713915863
-3.3164965809277267 -2.1266716905622842 1.5580782047249229
-2.3164965809277263 -1.5493214213726585 3.191071366580376
-3.316496580927727 0.7600796553858454 -2.524404699913708
-2.316496580927727 2.492130462954723 -2.524404699913708
-1.0000000000000002 -3.2522101183405665 -2.524404699913708
1.0000000000000002 -3.2522101183405665 -2.524404699913708
0.18350341907227463 2.780805597549535 3.191071366580375
0.18350341907227408 3.935506135928787 1.5580782047249224
-5.632993161855452 -3.252210118340571 -3.524404699913706
-6.6329931618554525 -2.674859849150945 -1.8914115380582532
-5.632993161855451 -4.406910656719822 -1.8914115380582532
2.500000000000001 -1.2314841761768769 3.191071366580376
3.500000000000001 -1.8088344453665024 1.5580782047249233
1.0000000000000009 0.5773502691896273 7.3072277760302216
-0.9999999999999998 0.5773502691896273 7.3072277760302216
8.1965126115848305e-16 -1.1547005383792504 7.3072277760302216
2.5 2.598076211353317 -2.2247448713915894
3.5000000000000013 0.8660254037844399 -2.22474487139159
-1.0000000000000002 5.196152422706633 -1.2247448713915876
0.9999999999999991 7.08177050587076 -1.8914115380582537
-1.0000000000000013 7.081770505870759 -1.8914115380582535
-1.1095382137202132e-15 6.504420236681135 -3.5244046999137058
5.000000000000002 -1.7320508075688787 -1.2247448713915903
4.000000000000002 -3.464101615137756 -1.2247448713915903
4.000000000000001 -2.3094010767585043 -2.8577380332470423
6.632993161855454 -2.674859849150943 -1.891411538058259
5.632993161855453 -4.40691065671982 -1.8914115380582586
5.632993161855453 -3.2522101183405683 -3.5244046999137106
-0.9999999999999994 -1.7320508075688765 3.6742346141747695
-1.9999999999999991 9.196676787326538e-16 3.674234614174769
-1.0000000000000002 2.88675134594813 -2.857738033247041
-2.0000000000000004 3.4641016151377553 -1.224744871391588
1.0000000000000002 4.041451884327381 0.408248290463864
-1. 4.041451884327381 0.40824829046386424
2.000000000000001 -2.3094010767585034 -2.857738033247042
2.000000000000001 -3.4641016151377553 -1.2247448713915896
4.000000000000002 -1.1547005383792524 0.40824829046386224
3.0000000000000018 -2.88675134594813 0.40824829046386246
4.000000000000002 -6.661338147750939e-16 -1.2247448713915898
3.000000000000001 -0.5773502691896264 -2.857738033247042
-7.632993161855454 3.2522101183405683 1.0749149571305312
-7.632993161855454 2.0975095799613177 2.7079081189859844
-5.632993161855454 4.406910656719821 4.340901280841436
-6.632993161855454 2.674859849150944 4.340901280841437
-5.632993161855453 5.561611195099072 2.7079081189859835
-6.632993161855453 4.984260925909446 1.0749149571305314
-7.29965982852212 5.369161105369198 3.796570226889618
-8.29965982852212 3.6371102978003202 3.796570226889618
-8.29965982852212 4.791810836179572 2.1635770650341657
3 0 1 2
3 3 4 5
3 6 7 8
3 9 10 11
6 5 4 1 2 7 8
6 10 0 1 4 3 11
6 6 7 2 0 10 9
6 6 8 5 3 11 9
3 12 13 14
3 15 16 17
3 18 19 20
3 21 22 23
6 17 16 13 14 19 20
6 22 12 13 16 15 23
6 22 12 14 19 18 21
6 23 15 17 20 18 21
3 24 25 26
3 27 28 29
3 30 31 32
3 33 34 35
6 31 26 25 28 29 32
6 34 24 25 28 27 35
6 30 31 26 24 34 33
6 30 32 29 27 35 33
3 36 37 38
3 39 40 41
3 42 43 44
3 45 46 47
6 41 40 37 38 43 44
6 46 36 37 40 39 47
6 42 43 38 36 46 45
6 42 44 41 39 47 45
3 48 49 50
3 51 52 53
3 54 55 56
3 57 58 59
6 53 52 49 50 55 56
6 58 48 49 52 51 59
6 54 55 50 48 58 57
6 54 56 53 51 59 57
4 2 1 13 14
4 5 4 16 17
4 8 7 19 20
4 4 1 13 16
4 7 2 14 19
4 8 5 17 20
6 5 4 1 2 7 8
6 17 16 13 14 19 20
4 0 1 25 26
4 3 4 28 29
4 11 10 31 32
4 25 1 4 28
4 10 0 26 31
4 11 3 29 32
6 10 0 1 4 3 11
6 31 26 25 28 29 32
4 60 61 62 63
4 64 65 66 67
4 68 69 70 71
4 65 61 62 66
4 69 60 63 70
4 68 64 67 71
6 69 60 61 65 64 68
6 70 63 62 66 67 71
4 37 2 0 38
4 6 7 40 41
4 9 10 43 44
4 37 2 7 40
4 38 0 10 43
4 9 6 41 44
6 6 7 2 0 10 9
6 41 40 37 38 43 44
4 60 72 73 74
4 75 76 77 78
4 79 80 81 82
4 76 72 73 77
4 74 60 80 81
4 79 75 78 82
6 80 60 72 76 75 79
6 81 74 73 77 78 82
4 49 5 3 50
4 52 8 6 53
4 55 11 9 56
4 49 5 8 52
4 50 3 11 55
4 53 6 9 56
6 6 8 5 3 11 9
6 53 52 49 50 55 56
4 63 83 84 74
4 85 86 87 88
4 89 90 91 92
4 86 83 84 87
4 90 63 74 91
4 89 85 88 92
6 85 86 83 63 90 89
6 88 87 84 74 91 92
4 93 94 95 96
4 97 98 99 100
4 101 102 103 104
4 98 94 95 99
4 96 93 102 101
4 100 97 103 104
6 102 93 94 98 97 103
6 101 96 95 99 100 104
4 105 106 107 96
4 108 109 110 111
4 112 113 114 115
4 109 106 107 110
4 113 105 96 114
4 111 108 112 115
6 108 109 106 105 113 112
6 111 110 107 96 114 115
4 116 117 118 119
4 120 121 122 123
4 124 125 126 127
4 121 117 118 122
4 125 116 119 126
4 124 120 123 127
6 120 121 117 116 125 124
6 123 122 118 119 126 127
3 128 1 13
3 129 4 16
4 4 1 13 16
4 128 1 4 129
4 16 13 128 129
3 130 2 14
3 131 7 19
4 7 2 14 19
4 130 2 7 131
4 19 14 130 131
3 132 0 26
3 133 10 31
4 10 0 26 31
4 132 0 10 133
4 31 26 132 133
3 134 5 17
3 135 8 20
4 8 5 17 20
4 134 5 8 135
4 20 17 134 135
3 74 60 63
3 136 137 138
4 137 60 63 138
4 74 60 137 136
4 138 63 74 136
3 139 3 29
3 140 11 32
4 11 3 29 32
4 139 3 11 140
4 32 29 139 140
3 96 93 105
3 141 142 143
4 142 93 105 143
4 96 93 142 141
4 143 105 96 141
3 144 6 41
3 145 9 44
4 9 6 41 44
4 144 6 9 145
4 44 41 144 145
3 119 146 116
3 147 148 149
4 148 146 116 149
4 119 146 148 147
4 149 116 119 147
3 150 151 152
3 153 154 155
4 154 151 152 155
4 150 151 154 153
4 155 152 150 153
3 62 1 61
3 73 2 72
3 84 0 83
3 74 60 63
4 2 1 61 72
4 0 1 62 83
4 60 61 62 63
4 73 2 0 84
4 60 72 73 74
4 63 83 84 74
3 0 1 2
3 60 61 72
3 63 62 83
3 74 73 84
3 156 4 157
3 95 5 94
3 107 3 106
3 96 93 105
4 5 4 157 94
4 3 4 156 106
4 93 157 156 105
4 95 5 3 107
4 93 94 95 96
4 105 106 107 96
3 3 4 5
3 93 157 94
3 105 156 106
3 96 95 107
3 158 7 159
3 160 8 161
3 118 6 117
3 119 146 116
4 8 7 159 161
4 6 7 158 117
4 146 159 158 116
4 160 8 6 118
4 146 161 160 119
4 116 117 118 119
3 6 7 8
3 146 159 161
3 116 158 117
3 119 160 118
3 162 10 163
3 164 11 165
3 166 9 167
3 150 151 152
4 11 10 163 165
4 9 10 162 167
4 151 163 162 152
4 164 11 9 166
4 151 165 164 150
4 152 167 166 150
3 9 10 11
3 151 163 165
3 152 162 167
3 150 164 166
3 168 22 169
3 170 23 171
3 172 21 173
3 174 175 176
4 23 22 169 171
4 21 22 168 173
4 175 169 168 176
4 170 23 21 172
4 175 171 170 174
4 176 173 172 174
3 21 22 23
3 175 169 171
3 176 168 173
3 174 170 172
# cell 1: 0 1 2 3 4 5 6 7
# cell 2: 8 9 10 11 12 13 14 15
# cell 3: 16 17 18 19 20 21 22 23
# cell 4: 24 25 26 27 28 29 30 31
# cell 5: 32 33 34 35 36 37 38 39
# cell 6: 40 41 42 43 44 45 46 47
# cell 7: 48 49 50 51 52 53 54 55
# cell 8: 56 57 58 59 60 61 62 63
# cell 9: 64 65 66 67 68 69 70 71
# cell 10: 72 73 74 75 76 77 78 79
# cell 11: 80 81 82 83 84 85 86 87
# cell 12: 88 89 90 91 92 93 94 95
# cell 13: 96 97 98 99 100 101 102 103
# cell 14: 104 105 106 107 108 109 110 111
# cell 15: 112 113 114 115 116 117 118 119
# cell 16: 120 121 122 123 124
# cell 17: 125 126 127 128 129
# cell 18: 130 131 132 133 134
# cell 19: 135 136 137 138 139
# cell 20: 140 141 142 143 144
# cell 21: 145 146 147 148 149
# cell 22: 150 151 152 153 154
# cell 23: 155 156 157 158 159
# cell 24: 160 161 162 163 164
# cell 25: 165 166 167 168 169
# cell 26: 170 171 172 173 174 175 176 177 178 179 180 181 182 183
# cell 27: 184 185 186 187 188 189 190 191 192 193 194 195 196 197
# cell 28: 198 199 200 201 202 203 204 205 206 207 208 209 210 211
# cell 29: 212 213 214 215 216 217 218 219 220 221 222 223 224 225
# cell 30: 226 227 228 229 230 231 232 233 234 235 236 237 238 239