OFF
# face-rotation BFS net; polygonal faces are preserved
# the cell decomposition is listed below as comments
63 140 0
4.7325770161317076e-17 1.1547005383792517 -0.4082482904638631
-1.0000000000000004 -0.577350269189626 -0.40824829046386313
2.822913169310668e-17 -1.4739627076456386e-16 1.2247448713915894
1.0000000000000002 -0.577350269189626 -0.4082482904638631
-1.6329931618554525 2.097509579961316 0.2584183762028037
-2.6329931618554525 0.3654587723924382 0.2584183762028037
-1.6329931618554525 0.942809041582064 1.891411538058256
-3.299659828522119 1.9050594902314404 1.3470804841064388
1.0000000000000002 -2.462968352353753 0.25841837620280383
-1.0000000000000004 -2.4629683523537524 0.25841837620280383
-1.7061512471773045e-16 -1.8856180831641263 1.8914115380582563
-6.556281757335356e-16 -3.8101189804628794 1.3470804841064394
1. -0.5773502691896256 -2.408248290463863
-1.0000000000000007 -0.5773502691896255 -2.408248290463863
-1.6185033623295604e-16 1.154700538379252 -2.4082482904638636
-3.53816418981499e-16 1.3374393807062092e-16 -4.041241452319316
2.6329931618554534 0.36545877239243774 0.25841837620280395
1.6329931618554534 0.9428090415820637 1.891411538058256
1.6329931618554534 2.097509579961315 0.25841837620280383
3.2996598285221204 1.9050594902314404 1.3470804841064385
-3.7216552697590863 -0.8916199497169797 1.369529487313915
-2.7216552697590854 -0.31426968052735393 3.002522649169367
-4.388321936425752 0.6479807681220221 2.45819159521755
-3.7216552697590872 0.993998133447147 -1.297137179352752
-2.7216552697590877 2.7260489410160247 -1.2971371793527524
-4.388321936425754 2.5335988512861496 -0.20847507144911717
-1.0000000000000013 -3.7200470744631717 -1.2971371793527513
0.9999999999999993 -3.7200470744631726 -1.2971371793527517
-1.4211543646031787e-15 -5.067197702572299 -0.2084750714491157
-1.0886621079036338 2.514157444218837 3.002522649169367
-1.0886621079036343 3.6688579825980883 1.3695294873139154
-2.755328774570301 3.476407892868213 2.45819159521755
1.6329931618554525 -2.1998877636914806 3.002522649169368
2.6329931618554525 -2.7772380328811073 1.3695294873139159
1.6329931618554516 -4.124388660990234 2.458191595217551
1.6329931618554527 2.097509579961315 -3.0749149571305296
2.6329931618554525 0.36545877239243774 -3.074914957130529
1.6329931618554525 0.9428090415820634 -4.707908118985983
-2.316496580927727 -1.5493214213726583 0.7415816237971966
-1.3164965809277265 -0.9719711521830324 2.3745747856526496
-2.316496580927727 0.18272938619621926 -1.7079081189859817
-1.3164965809277265 1.9147801937650968 -1.7079081189859822
-1.0000000000000004 -2.097509579961316 -1.7079081189859817
1.0000000000000002 -2.097509579961316 -1.7079081189859817
0.18350341907227397 1.626105059170284 2.3745747856526487
0.18350341907227397 2.780805597549535 0.7415816237971968
-4.510657549140603 -0.07063049893239615 -0.2746881761452755
-5.17732421580727 1.4689702189066058 0.8139739317583594
1.5000000000000009 -0.6541339069872508 2.374574785652649
2.500000000000001 -1.2314841761768767 0.741581623797197
-2.0106575491406016 1.372745174041669 3.807794728493355
-3.6773242158072685 2.3349956226910447 3.2634636745415375
1.5000000000000004 2.0207259421636907 -1.408248290463863
2.500000000000001 0.2886751345948132 -1.4082482904638631
-2.0106575491406042 4.04760502319261 0.024971652376843345
-3.6773242158072703 3.8551549334627353 1.1136337602804782
2.5 -3.7650830274630267 0.0249716523768444
1.4999999999999996 -5.112233655572153 1.1136337602804802
-2.7996598285221195 -1.058475493514313 -1.1360827634879542
-0.16666666666666663 0.4616838172573765 3.163577065034165
-0.1666666666666653 3.1365436664083166 -0.6192460110823471
2.6329931618554525 -1.712609400501565 -0.6192460110823473
-4.832766380870199 2.597748881196107 2.4286375592496716
3 0 1 2
3 3 1 2
3 3 1 0
3 3 2 0
3 4 5 6
3 7 5 6
3 7 5 4
3 7 6 4
3 8 9 10
3 11 9 10
3 11 9 8
3 11 10 8
3 12 13 14
3 15 13 14
3 15 13 12
3 15 14 12
3 16 17 18
3 19 17 18
3 19 17 16
3 19 18 16
4 2 1 5 6
4 0 1 5 4
4 0 2 6 4
3 0 1 2
3 4 5 6
4 9 1 2 10
4 3 1 9 8
4 3 2 10 8
3 3 1 2
3 8 9 10
4 6 5 20 21
4 7 5 20 22
4 7 6 21 22
3 7 5 6
3 22 20 21
4 13 1 0 14
4 3 1 13 12
4 14 0 3 12
3 3 1 0
3 12 13 14
4 4 5 23 24
4 7 5 23 25
4 7 4 24 25
3 7 5 4
3 25 23 24
4 17 2 0 18
4 17 2 3 16
4 18 0 3 16
3 3 2 0
3 16 17 18
4 8 9 26 27
4 11 9 26 28
4 11 8 27 28
3 11 9 8
3 28 26 27
4 29 6 4 30
4 7 6 29 31
4 30 4 7 31
3 7 6 4
3 31 29 30
4 8 10 32 33
4 11 10 32 34
4 33 8 11 34
3 11 10 8
3 34 32 33
4 12 14 35 36
4 15 14 35 37
4 15 12 36 37
3 15 14 12
3 37 35 36
3 38 1 5
3 39 2 6
4 2 1 5 6
4 38 1 2 39
4 6 5 38 39
3 40 1 5
3 41 0 4
4 0 1 5 4
4 40 1 0 41
4 4 5 40 41
3 42 1 9
3 43 3 8
4 3 1 9 8
4 3 1 42 43
4 8 9 42 43
3 44 2 6
3 45 0 4
4 0 2 6 4
4 44 2 0 45
4 44 6 4 45
3 46 5 20
3 47 7 22
4 7 5 20 22
4 7 5 46 47
4 22 20 46 47
3 48 2 10
3 49 3 8
4 3 2 10 8
4 48 2 3 49
4 8 10 48 49
3 50 6 21
3 51 7 22
4 7 6 21 22
4 7 6 50 51
4 22 21 50 51
3 52 0 14
3 53 3 12
4 14 0 3 12
4 52 0 3 53
4 12 14 52 53
3 54 4 24
3 55 7 25
4 7 4 24 25
4 54 4 7 55
4 25 24 54 55
3 56 8 27
3 57 11 28
4 11 8 27 28
4 56 8 11 57
4 28 27 56 57
3 38 1 5
3 58 1 5
3 58 1 38
3 58 5 38
3 39 2 6
3 59 2 6
3 59 2 39
3 59 6 39
3 41 0 4
3 60 0 4
3 60 0 41
3 60 4 41
3 43 3 8
3 61 3 8
3 61 3 43
3 61 8 43
3 47 7 22
3 62 7 22
3 62 7 47
3 62 22 47
# cell 1: 0 1 2 3
# cell 2: 4 5 6 7
# cell 3: 8 9 10 11
# cell 4: 12 13 14 15
# cell 5: 16 17 18 19
# cell 6: 20 21 22 23 24
# cell 7: 25 26 27 28 29
# cell 8: 30 31 32 33 34
# cell 9: 35 36 37 38 39
# cell 10: 40 41 42 43 44
# cell 11: 45 46 47 48 49
# cell 12: 50 51 52 53 54
# cell 13: 55 56 57 58 59
# cell 14: 60 61 62 63 64
# cell 15: 65 66 67 68 69
# cell 16: 70 71 72 73 74
# cell 17: 75 76 77 78 79
# cell 18: 80 81 82 83 84
# cell 19: 85 86 87 88 89
# cell 20: 90 91 92 93 94
# cell 21: 95 96 97 98 99
# cell 22: 100 101 102 103 104
# cell 23: 105 106 107 108 109
# cell 24: 110 111 112 113 114
# cell 25: 115 116 117 118 119
# cell 26: 120 121 122 123
# cell 27: 124 125 126 127
# cell 28: 128 129 130 131
# cell 29: 132 133 134 135
# cell 30: 136 137 138 139