OFF
# face-rotation BFS net; polygonal faces are preserved
# the cell decomposition is listed below as comments
654 1344 0
-0.7071067811865479 1.224744871391589 -9.451144628546331e-17
-1.0000000000000002 -0.577350269189626 -0.816496580927726
-0.7071067811865479 -0.4082482904638633 1.1547005383792517
0.7071067811865472 -1.2247448713915894 -2.0553374874797896e-16
0.707106781186547 0.40824829046386296 -1.1547005383792517
0.9999999999999994 0.5773502691896255 0.8164965809277257
-2.678303900493526 1.4200070172672237 0.2761423749153975
-2.971197119306978 -0.382088123313991 -0.5403542060123286
-2.678303900493525 -0.2129861445882285 1.430842913294649
-4.483041754617891 -0.7106209765318207 0.7270809848507654
-4.483041754617891 0.9223721853236314 -0.427619553528486
-4.190148535804438 1.091474164049394 1.5435775657784911
-0.10938979974117857 -3.029482725515954 0.2761423749153973
-1.816496580927726 -2.382088123313991 -0.5403542060123288
-1.5236033621142735 -2.212986144588228 1.4308429132946494
-2.8569366954476068 -3.5271175574595466 0.7270809848507653
-1.4427231330745118 -4.343614138387273 -0.42761955352848624
-1.1498299142610593 -4.17451215966151 1.5435775657784911
-0.10938979974117924 1.2701771030061655 -2.764176246627981
-1.8164965809277267 0.2845785433526764 -2.425972289176455
-1.5236033621142733 2.0866736839338906 -1.6094757082487279
-2.8569366954476076 1.8612043789662083 -3.0830379956121123
-1.4427231330745132 1.0447077980384831 -4.237738533991366
-1.1498299142610602 2.8468029386196974 -3.421241953063638
1.0453107386380733 -0.7298228969938356 -2.764176246627981
-0.661796042548474 -1.7154214566473245 -2.4259722891764555
1.045310738638073 -2.3628160588492877 -1.609475708248729
0.1833819260957723 -3.4047819447446974 -3.083037995612114
0.18338192609577236 -1.7717887828892458 -4.237738533991367
1.8904887072823198 -2.419183385091209 -3.4212419530636398
0.6617960425484737 1.7154214566473243 2.4259722891764555
-1.0453107386380738 0.7298228969938354 2.7641762466279807
-1.0453107386380736 2.362816058849287 1.6094757082487285
-1.8904887072823198 2.419183385091209 3.421241953063639
-0.18338192609577286 1.771788782889246 4.237738533991366
-0.18338192609577275 3.404781944744698 3.0830379956121137
-5.458969210037685 -0.08552423821697652 -1.8530003451669512
-3.9471245747267734 -1.3899845468545995 -1.9657349976507943
-5.458969210037685 -1.7185174000724293 -0.6982998067876998
-5.247914217080835 -2.8667705356292164 -2.322174964129541
-5.247914217080835 -1.2337773737737643 -3.4768755025087925
-6.759758852391746 -1.5623102269915938 -2.209440311645698
1.816496580927726 -0.28457854335267685 2.4259722891764555
0.1093897997411788 -1.270177103006166 2.764176246627981
1.5236033621142728 -2.0866736839338915 1.6094757082487285
1.14982991426106 -2.846802938619698 3.4212419530636393
1.4427231330745127 -1.0447077980384833 4.237738533991366
2.856936695447607 -1.8612043789662087 3.0830379956121132
-4.687783367748028 0.35972011542418225 3.3371481906374854
-3.1759387324371158 -0.9447401932134406 3.224413538153643
-4.98067658656148 -1.4423750251570329 2.5206516097097595
-4.281466228915541 -2.3087915295042163 4.182104984546214
-3.988573010102088 -0.506696388923001 4.99860156547394
-5.793310864226453 -1.0043312208665933 4.294839637030057
1.8164965809277254 2.38208812331399 0.5403542060123284
0.10938979974117835 3.0294827255159533 -0.2761423749153975
1.523603362114273 2.2129861445882266 -1.430842913294649
1.1498299142610593 4.174512159661508 -1.5435775657784911
1.4427231330745116 4.343614138387272 0.42761955352848613
2.8569366954476063 3.527117557459545 -0.7270809848507653
-4.68778336774803 3.0263867820908494 1.451530107473359
-3.1759387324371184 3.3549196353086788 0.18409491661026522
-4.980676586561484 2.857284803365087 -0.5196670118336182
-4.281466228915543 4.712523568776991 -0.7827145342959159
-3.9885730101020904 4.881625547502753 1.1884825850110614
-5.793310864226456 4.383990715559161 0.4847206565671779
2.9711971193069764 0.38208812331399084 0.5403542060123283
2.6783039004935243 -1.420007017267224 -0.2761423749153976
2.678303900493523 0.21298614458822823 -1.430842913294649
4.190148535804436 -1.0914741640493935 -1.5435775657784918
4.483041754617889 -0.9223721853236309 0.42761955352848535
4.483041754617887 0.7106209765318212 -0.7270809848507659
0.27703615109410074 -5.572932874953389 1.451530107473358
1.3174762656139816 -4.4279034408078335 0.18409491661026445
-0.015857067719352136 -5.742034853679152 -0.5196670118336191
1.9404320120360044 -6.064120304074518 -0.7827145342959172
2.2333252308494576 -5.895018325348755 1.18848258501106
0.8999918975161239 -7.209149738220073 0.48472065656717656
-6.161345655111416 1.2867363099250286 1.8197199406938882
-6.454238873924868 -0.5153588306561857 1.0032233597661624
-6.454238873924869 1.117634331199266 -0.1514771786130893
-8.161345655111415 0.1320357715457774 0.18672677883843658
-7.868452436297963 0.30113775027154005 2.157923898145414
-7.868452436297963 1.9341309121269918 1.0032233597661624
-1.966326495188785 -5.979250013785874 1.8197199406938882
-3.6734332763753317 -5.331855411583911 1.0032233597661622
-2.259219714002237 -6.148351992511637 -0.1514771786130893
-3.9663264951887847 -7.133950552165126 0.1867267788384369
-3.673433276375332 -6.964848573439362 2.1579238981454143
-2.2592197140022376 -7.781345154367089 1.0032233597661628
0.2770361510940995 3.2261600011055966 -4.770368133478188
1.3174762656139807 1.6495341654920654 -4.113302427042531
-0.015857067719353468 1.424064860524383 -5.586864714405915
1.9404320120360028 1.2834230947796232 -5.978212296688132
2.2333252308494562 3.085518235360837 -5.161715715760405
0.8999918975161221 2.860048930393155 -6.635278003123789
-1.9663264951887864 3.708731751162 -5.030717661312367
-3.6734332763753335 2.723133191508511 -4.6925137038608415
-2.2592197140022394 1.9066366105807862 -5.847214242240095
-3.9663264951887878 2.5540312127827507 -6.663710823167818
-3.6734332763753343 4.3561263533639645 -5.84721424224009
-2.2592197140022408 3.5396297724362396 -7.0019147806193445
1.5623458882435206 3.9682339238408635 3.8798794261958696
2.4075238568877673 2.27887343574349 3.2228137197602127
1.5623458882435202 2.3352407619854114 5.034579964575123
3.5511786589781495 2.2133881049879585 4.862254284438128
3.5511786589781495 3.8463812668434105 3.707553746058876
2.7060006903339033 3.902748593085332 5.519319990873786
2.228692664733845 -3.5572545725489078 -5.030717661312369
0.5215858835472977 -4.542853132202397 -4.692513703860844
0.5215858835472977 -2.909859970346944 -5.847214242240096
0.22869266473384509 -4.71195511092816 -6.663710823167821
1.9357994459203929 -5.359349713130122 -5.847214242240095
1.9357994459203929 -3.7263565512746704 -7.001914780619346
-0.5215858835472981 4.542853132202396 4.6925137038608415
-2.2286926647338454 3.5572545725489078 5.030717661312368
-0.5215858835472982 2.9098599703469445 5.847214242240095
-1.9357994459203935 3.7263565512746717 7.001914780619345
-1.9357994459203929 5.359349713130123 5.847214242240092
-0.22869266473384586 4.7119551109281606 6.663710823167819
3.673433276375334 -2.723133191508511 4.692513703860842
1.9663264951887869 -3.7087317511620004 5.0307176613123685
2.2592197140022394 -1.906636610580786 5.847214242240096
2.2592197140022403 -3.5396297724362387 7.001914780619346
3.673433276375335 -4.356126353363964 5.847214242240093
3.9663264951887873 -2.55403121278275 6.66371082316782
3.6734332763753335 5.33185541158391 -1.0032233597661637
1.9663264951887862 5.979250013785874 -1.81971994069389
2.2592197140022394 6.148351992511638 0.15147717861308774
2.2592197140022403 7.78134515436709 -1.0032233597661648
3.6734332763753343 6.964848573439362 -2.1579238981454165
3.9663264951887873 7.133950552165126 -0.18672677883843858
6.454238873924865 0.515358830656187 -1.0032233597661637
6.161345655111413 -1.2867363099250277 -1.8197199406938898
6.454238873924866 -1.1176343311992654 0.15147717861308774
7.868452436297961 -1.9341309121269905 -1.0032233597661646
7.86845243629796 -0.30113775027153855 -2.157923898145416
8.161345655111413 -0.13203577154577606 -0.18672677883843858
-9.839649555604938 2.1293930580026266 1.279365734681559
-10.13254277441839 0.32729791742141223 0.4628691537538334
-9.83964955560494 0.4963998961471747 2.434066273060811
-11.644387409729303 -0.0012349357964172025 1.7303043446169262
-11.644387409729303 1.6317582260590342 0.5756038062376742
-11.35149419091585 1.8008602047847968 2.546800925544652
-2.473562287363386 -2.3170007413554465 -0.44830674770719714
-2.1806690685499324 -2.1478987626296844 1.5228903715997806
-3.985406922674298 -2.6455335945732763 0.819128443155897
-2.4735622873633862 0.3496659253112213 -2.3339248308713234
-2.180669068549934 2.151761065892436 -1.5174282499435967
-3.9854069226742994 1.6541262339488434 -2.2211901783874803
-0.9339615695243841 -2.3170007413554474 -2.333924830871323
0.7731452116621633 -2.9643953435574106 -1.5174282499435976
-0.5601881216711698 -4.278526756428729 -2.221190178387481
-1.7023764450737322 0.794910278952379 2.8562237049331136
-1.7023764450737326 2.4279034408078313 1.7015231665538628
-3.2142210803846445 2.099370587590002 2.9689583574169567
-3.1773242158072685 -2.723317880187933 -1.9657349976507938
-4.2177643303271495 -3.8683473143334886 -0.6982998067877002
-2.803550767954054 -4.684843895261214 -1.8530003451669512
-0.933961569524384 -1.4281118524665561 -2.9624641919260335
0.7731452116621633 -0.44251329281306706 -3.300668149377559
-0.5601881216711705 -0.6679825977807495 -4.774230436740944
-0.16277572723473033 -1.8717563877142864 2.8562237049331136
1.2514378351383648 -2.6882529686420122 1.7015231665538624
0.2109977206184842 -3.8332824027875674 2.9689583574169562
-3.1773242158072703 -0.9455401024101528 -3.222813719760212
-4.217764330327151 0.6310857332033794 -3.8798794261958687
-2.803550767954057 -0.18541084772434646 -5.034579964575122
-2.406138373517616 -2.2780735265467724 3.224413538153643
-3.7394717068509493 -3.5922049394180906 2.52065160970976
-2.0323649256644014 -4.239599541620054 3.3371481906374854
-0.003344852742663995 -0.8908200405202655 3.3006681493775587
1.7037619284438834 0.09477851913322355 2.9624641919260335
0.8585839597996368 0.15114584537514497 4.774230436740944
-0.16277572723473022 3.3167923296967197 -0.8126342776649707
1.2514378351383637 2.5002957487689943 -1.9673348160442239
0.21099772061848338 4.076921584382526 -2.6244005224798808
-2.4075238568877677 -2.2788734357434888 -3.2228137197602127
-1.5623458882435215 -3.968233923840862 -3.879879426195871
-1.5623458882435215 -2.33524076198541 -5.034579964575123
-2.087276624533483 -0.3162008321587304 4.11330242704253
-2.9324545931777295 1.3731596559386428 4.770368133478188
-1.2253478119911825 0.7257650537366798 5.586864714405916
-2.4061383735176163 3.799364079753123 -1.0729838054991494
-3.73947170685095 3.5738947747854404 -2.546546092862534
-2.0323649256644027 4.55949333443893 -2.8847500503140595
-0.003344852742663218 3.408839788001852 0.26034952783417875
1.7037619284438834 2.76144518579989 1.0768461087619055
0.8585839597996375 4.450805673897263 1.7339118151975632
2.7910385529773665 -1.7993640797531238 -0.812634277664972
2.7910385529773674 -0.166370917897672 -1.9673348160442234
3.6362165216216127 -1.8557314059950452 -2.624400522479882
-1.3174762656139807 -1.6495341654920654 4.113302427042532
-0.27703615109409957 -3.2261600011055975 4.77036813347819
0.015857067719353135 -1.4240648605243829 5.586864714405916
-2.087276624533483 3.983458996363387 1.0729838054991498
-2.932454593177729 4.039826322605309 2.88475005031406
-1.2253478119911818 5.025424882258798 2.5465460928625347
2.087276624533482 -3.9834589963633875 -1.0729838054991512
1.2253478119911814 -5.025424882258798 -2.5465460928625365
2.932454593177728 -4.039826322605309 -2.8847500503140617
2.9504694274694323 -1.7073166214479907 0.26034952783417786
3.2433626462828857 0.09477851913322355 1.0768461087619046
4.283802760802766 -1.4818473164803079 1.7339118151975623
-6.779548025731466 -0.8513243051697207 0.5280964292200081
-6.779548025731466 0.7816688566857313 -0.6266041091592439
-8.080337668085528 -0.6951171320888853 -0.9830440756379899
-1.3174762656139813 4.427903440807833 -0.18409491661026628
-0.2770361510941001 5.572932874953387 -1.45153010747336
0.015857067719351997 5.742034853679151 0.5196670118336175
2.4061383735176154 -3.7993640797531234 1.0729838054991498
2.0323649256644023 -4.55949333443893 2.884750050314061
3.7394717068509493 -3.573894774785441 2.5465460928625347
-6.607222345594471 -3.1222023977247133 0.14501695697898498
-6.3961673526376215 -4.270455533281501 -1.4788582003628559
-7.908011987948533 -2.965995224643878 -1.366123547879013
2.087276624533483 0.31620083215872974 -4.113302427042531
1.225347811991182 -0.7257650537366803 -5.586864714405916
2.932454593177729 -1.3731596559386432 -4.77036813347819
-6.6201171512393975 -0.7592768468645904 1.60108023471916
-6.327223932425945 1.0428182937166248 2.4175768156468855
-7.432751428904371 -0.32123304257415103 3.3752682620394565
2.9504694274694327 0.8145654292963473 -1.5228903715997806
3.2433626462828853 0.9836674080221111 0.4483067477071967
4.283802760802766 2.128696842167666 -0.819128443155897
3.1759387324371184 -3.354919635308679 -0.18409491661026645
4.68778336774803 -3.0263867820908485 -1.4515301074733609
4.980676586561484 -2.857284803365086 0.5196670118336166
-6.288360596610335 -2.9381074811144487 2.290984567977291
-5.589150238964397 -3.804523985461632 3.9524379428137455
-7.100994874275308 -2.500063676824009 4.065172595297588
2.406138373517616 2.278073526546771 -3.2244135381536436
2.0323649256644014 4.239599541620052 -3.3371481906374854
3.7394717068509493 3.5922049394180893 -2.5206516097097595
-6.607222345594472 1.1774574307974066 -2.8953016645643936
-6.3961673526376215 0.029204295240618572 -4.5191768219062345
-7.908011987948533 -0.2993285579772106 -3.25174163104314
3.1773242158072694 0.9455401024101533 3.222813719760213
2.8035507679540554 0.18541084772434635 5.034579964575123
4.21776433032715 -0.6310857332033786 3.8798794261958705
-6.620117151239401 1.7626052038797528 -0.18215966471479994
-6.327223932425948 1.9317071826055154 1.789037454592177
-7.432751428904373 3.289311116073827 0.8222280036859961
-7.270735454852594 -2.32009668478055 1.279365734681559
-8.977842236039141 -1.6727020825785872 0.4628691537538334
-8.684949017225689 -1.5036001038528244 2.434066273060811
3.175938732437113 0.94474019321344 -3.2244135381536436
4.687783367748025 -0.35972011542418186 -3.3371481906374862
4.9806765865614775 1.442375025157033 -2.5206516097097604
-6.288360596610337 3.1393301251854493 -2.0064127756755052
-5.589150238964397 4.994568890597352 -2.2694602981378025
-7.10099487427531 4.6660360373795235 -1.0020251072747088
3.1773242158072694 2.723317880187932 1.9657349976507934
2.8035507679540554 4.6848438952612135 1.853000345166951
4.2177643303271495 3.8683473143334863 0.6982998067876995
-6.223841672500628 -3.874666959169825 -3.7475557557680066
-6.223841672500628 -2.2416737973143723 -4.902256294147258
-7.73568630781154 -2.5702066505322017 -3.6348211032841635
-5.51717475432068 1.8067967010488295 4.44081448223835
-4.81796439667474 0.9403801967016457 6.102267857074804
-6.622702250799105 0.442745364758054 5.398505928630921
-1.783597692217185 -6.614492230942265 -0.1821596647147995
-1.4907044734037316 -6.445390252216502 1.7890374545921774
-0.867748726981709 -8.081607115483186 0.822228003685996
-7.270735454852594 1.9795631437415682 -1.7609528868618194
-8.977842236039141 0.9939645840880795 -1.422748929410294
-8.684949017225689 2.796059724669294 -0.6062523484825673
3.9471245747267707 1.3899845468546 1.9657349976507936
5.458969210037683 0.08552423821697802 1.8530003451669508
5.458969210037681 1.7185174000724304 0.6982998067876993
-0.4254406590287888 -7.0155450874143455 -2.006412775675506
1.5308484207265676 -7.337630537809712 -2.269460298137804
0.4904083062066872 -8.482659971955268 -1.0020251072747102
-5.517174754320684 3.5845744788266076 3.1837357601289322
-4.8179643966747445 5.439813244238511 2.9206882376666345
-6.62270225079911 4.94217841229492 2.216926309222752
-4.779101060859132 -3.0405455781294277 5.97567560940521
-4.486207842045679 -1.238450437548213 6.792172190332935
-6.290945696170044 -1.7360852694918054 6.088410261889051
-1.7835976922171863 2.0330889647427517 -6.296922969044943
-1.490704473403734 3.8351841053239655 -5.480426388117216
-0.867748726981711 3.4690730346115233 -7.345336257762817
-1.9210157565507135 -7.286423179969337 -1.7609528868618194
-3.6281225377372612 -8.272021739622826 -1.4227489294102929
-1.9210157565507138 -8.919416341824789 -0.6062523484825675
-6.49954961256294 2.4248074973827265 3.429195648942618
-8.206656393749487 1.4392089377292379 3.767399606394143
-8.206656393749487 3.0722020995846897 2.612699068014892
-0.4254406590287918 0.4468509230854878 -7.2831235985993725
1.530848420726565 0.30620915734072773 -7.674471180881589
0.49040830620668396 1.8828349929542594 -8.331536887317247
0.3457451832608639 -6.570300733773186 3.183735760128931
2.302034263016221 -6.8923861841685525 2.920688237666633
0.968700929682887 -8.20651759703987 2.2169263092227496
-4.779101060859136 6.647436186818445 -0.8747619926010484
-4.486207842045683 6.816538165544207 1.0964351267059291
-6.2909456961700485 6.318903333600615 0.3926731982620456
0.06032338789913183 3.097677296712334 6.112828052434679
0.0603233878991325 4.730670458567786 4.958127514055427
1.2039781899895152 4.665185127812255 6.597568078733343
-1.9210157565507147 0.7685654231230901 -7.456689950488828
-3.6281225377372635 1.4159600253250544 -8.273186531416552
-1.9210157565507155 2.4015585849785435 -8.611390488868077
-1.1498299142610584 -6.841178826328177 3.4291956489426183
-2.8569366954476063 -7.826777385981664 3.7673996063941444
-1.4427231330745118 -8.64327396690939 2.612699068014893
1.6841985452409722 1.664851685563621 6.914933765378843
3.673031315975602 1.5429990285661686 6.742608085241849
2.827853347331356 3.232359516663542 7.3996737916775075
0.3457451832608631 5.191755105248761 -5.13329368433831
2.3020342630162203 5.051113339504002 -5.5246412666205265
0.9687009296828855 4.825644034536319 -6.9982035539839105
3.3672980773911636 -7.462541019366396 -0.8747619926010497
3.660191296204616 -7.293439040640634 1.0964351267059276
2.326857962871282 -8.60757045351195 0.3926731982620438
0.2949106973804281 2.0479311578046437 7.456689950488824
-1.119302864992667 2.8644277387323704 8.611390488868075
0.5878039161938805 3.8500262983858593 8.273186531416549
-1.1498299142610606 5.513469605286364 -5.306860036227762
-2.8569366954476085 6.160864207488329 -6.123356617155486
-1.4427231330745145 5.3443676265606035 -7.278057155534739
1.6841985452409742 5.964511514085739 3.874615143835463
3.673031315975604 5.842658857088286 3.7022894636984693
2.8278533473313567 5.899026183330208 5.5140557085133795
3.3672980773911627 1.6627801572655239 -7.327338477102684
3.6601912962046157 3.4648752978467376 -6.510841896174957
2.3268579628712804 3.239405992879055 -7.984404183538341
-4.782823076116513 -8.938688406289492 0.4628691537538341
-4.48992985730306 -8.769586427563727 2.4340662730608114
-3.075716294929965 -9.586083008491455 1.27936573468156
0.2949106973804282 6.347590986326761 4.416371328945445
-1.119302864992667 7.164087567254488 5.571071867324695
0.5878039161938805 6.516692965052526 6.387568448252422
4.199889784040823 -3.752516718424544 -5.306860036227766
3.90699656522737 -5.5546118590057585 -6.123356617155491
3.90699656522737 -3.921618697150306 -7.278057155534743
5.296906473317444 2.7768400840841223 5.659095715021885
5.296906473317444 4.409833245939574 4.504395176642633
4.451728504673198 4.466200572181496 6.316161421457543
-4.782823076116515 3.4159600253250546 -8.273186531416547
-4.489929857303062 5.218055165906268 -7.456689950488817
-3.0757162949299683 4.4015585849785435 -8.611390488868071
5.644630395682311 -2.918395337384147 4.416371328945445
5.644630395682312 -4.551388499239599 5.5710718673246955
5.937523614495765 -2.749293358658385 6.387568448252423
0.5668966221853704 -5.850026298385858 -8.27318653141655
2.274003403371918 -6.497420900587821 -7.456689950488824
2.274003403371918 -4.864427738732369 -8.611390488868075
-2.274003403371919 4.86442773873237 8.611390488868075
-2.2740034033719185 6.497420900587822 7.456689950488822
-0.5668966221853713 5.85002629838586 8.273186531416549
3.0757162949299683 -4.401558584978542 8.611390488868075
4.489929857303062 -5.218055165906267 7.456689950488822
4.782823076116515 -3.415960025325053 8.273186531416549
5.64463039568231 5.136593265708274 -1.2793657346815606
5.644630395682311 6.769586427563725 -2.434066273060813
5.937523614495763 6.938688406289489 -0.4628691537538355
3.075716294929968 9.586083008491453 -1.2793657346815621
4.489929857303062 8.769586427563725 -2.4340662730608136
4.7828230761165145 8.93868840628949 -0.4628691537538362
9.83964955560494 -2.1293930580026257 -1.279365734681562
9.839649555604938 -0.4963998961471733 -2.4340662730608136
10.132542774418392 -0.3272979174214108 -0.4628691537538362
-2.132045169060215 -2.197263347470142 -0.5093234147442646
-1.8391519502467621 -2.0281613687443794 1.4618737045627133
-2.1320451690602162 0.25222639531303614 -2.2413742223131417
-1.8391519502467637 2.054321535894251 -1.4248776413854158
-0.8475881186840419 -1.9725184760785535 -2.2413742223131417
0.859518662502505 -2.6199130782805167 -1.4248776413854156
-1.3998121220265838 0.6749813421274425 2.6866185759543018
-1.3998121220265844 2.3079745039828947 1.5319180375750503
-3.7711952398040913 -1.6829128376693956 -1.8318100007351932
-5.283039875115003 -2.0114456908872254 -0.5643748098720995
-0.8475881186840426 -1.4556817236729453 -2.6068329947055795
0.8595186625025047 -0.47008316401945627 -2.945036952157105
-0.11535507165041045 -1.5497635292641456 2.6866185759543018
1.2988584907226843 -2.366260110191872 1.53191803757505
-3.771195239804091 -1.1660760852637881 -2.1972687731276315
-5.283039875115003 0.13838422337383416 -2.0845341206437884
-3.038962192770459 -1.2601578908549904 3.09618279753225
-4.843700046894824 -1.7577927227985821 2.392420869088366
-0.022655369319037166 -0.9794065787637213 2.9450369521571056
1.6844514118675102 0.006191980889767412 2.60683299470558
-0.1153550716504106 3.049556127780091 -0.5655915423862636
1.2988584907226837 2.2330595468523655 -1.7202920807655162
-3.307974503982896 -1.665188744917245 -2.037095261777217
-1.3367773846759181 -1.8604508907928798 -2.3132376366926146
-3.56503645141278 -3.591381307242076 -2.510066051602612
-2.3891071164900994 -4.1234559097949735 -0.9822942045696604
-1.5938393321058029 -3.7866434531177107 -2.78620842651801
-2.946262490439085 -0.6898009403545662 3.3546011737350536
-4.458107125749997 0.6146593682830566 3.4673358262188962
-3.03896219277046 3.339161766189248 -0.1560273208083146
-4.843700046894825 2.8415269342456555 -0.8597892492521985
-0.022655369319036944 3.103076325874908 0.05828560620897549
1.6844514118675105 2.4556817236729453 0.8747821871367017
2.5833155410988575 -1.6246784863946755 -0.5655915423862642
2.5833155410988575 0.008314675460776133 -1.7202920807655162
-2.1759293349226807 -0.045275666636728884 -2.344268427960678
-3.600867722796349 -1.834290723643007 -4.008292381084194
-2.4688225537361346 -0.2143776453624915 -4.315465547267656
-1.6296706034893722 -2.029552869518642 -4.284434755999593
-2.536788661693241 -1.2199443912760857 3.15305327402722
-0.5655915423862641 -1.4152065371517202 2.8769108991118224
-2.59858846324749 -3.033402301117075 3.994213897073144
-1.9009517518010104 -3.8416192785853687 2.303034327608637
-0.6273913439405128 -3.228664446992709 3.718071522157747
-2.9462624904390857 3.3926819642840655 0.46784982778692574
-4.458107125749998 3.0641491110662358 1.7352850186500193
1.372317820480374 -4.301399343174305 -0.15602732080831594
0.03898448714704008 -5.615530756045623 -0.859789249252199
2.676015243430231 -1.5711582882998587 0.05828560620897494
2.968908462243684 0.23093685228135596 0.8747821871367015
-6.4828501176387 -0.7266054605922281 0.7044755107050018
-6.4828501176387 0.9063877012632242 -0.45022502767425
-1.404743492633027 0.39996868700443033 2.845880107843758
-2.2438954428797886 -1.0508424125503226 5.124250393334198
-1.1118502738195737 0.5690706657301932 4.817077227150736
-0.2726983235728111 -1.2461045584259578 4.848108018418801
-2.536788661693244 3.379375265768152 -0.09915684431334526
-0.5655915423862663 3.184113119892517 -0.37529921922874365
-2.598588463247495 4.776915076545647 -1.5285144838912992
-1.900951751801015 3.4518613466717456 -2.85423528096337
-0.6273913439405174 4.581652930670012 -1.8046568588066974
1.4650175228117477 -4.247879145079487 0.46784982778692497
0.42457740829186696 -5.3929085792250415 1.7352850186500188
-3.870683846220711 -5.2510101605059365 0.7044755107050008
-2.4564702838476156 -6.067506741433663 -0.4502250276742504
1.3723178204803723 1.2866958122661971 -4.107407299135988
0.03898448714703873 1.0612265072985145 -5.580969586499373
-6.390150415307324 -0.673085262497412 1.3283526593002422
-6.097257196493872 1.1290098780838025 2.1448492402279684
2.6760152434302302 0.5786716259611993 -1.4618737045627128
2.9689084622436837 0.7477736046869625 0.5093234147442641
-1.404743492633028 2.54979860126549 1.3257207970720697
-2.2438954428797913 5.1814704063493675 0.7173397366143804
-1.1118502738195757 4.3518937418467045 2.1422173779997964
-0.2726983235728142 4.986208260473733 0.4411973616989827
1.6582304982293867 -3.886611057942753 -0.09915684431334615
2.474727079157112 -2.081873203818388 -0.3752992192287433
2.83763557638567 -4.638901161426317 -1.5285144838913
2.038923740658788 -3.3722031817640814 -2.85423528096337
3.654132157313395 -2.8341633073019525 -1.8046568588066971
-3.777984143889337 -5.197489962411119 1.328352659300242
-2.07087736270279 -5.844884564613082 2.144849240227968
1.4650175228117461 1.8570527627666205 -3.8489889229331835
0.4245774082918653 3.4336785983801525 -4.50605462936884
-3.8706838462207127 2.4145226012344634 -4.715874686529275
-2.4564702838476187 1.5980260203067378 -5.870575224908528
2.467296782360603 1.918882210664724 3.2618974055071743
1.622118813716356 1.9752495369066452 5.073663650322084
-6.390150415307325 1.4767446517636484 -0.19180665147144704
-6.097257196493872 1.645846630489411 1.7793904678355301
1.505818616913429 -2.4914428510538267 1.3257207970720697
3.365337279415935 -4.534005660144717 0.7173397366143797
3.212925398099977 -3.13883745325579 2.1422173779997955
4.1818338603436604 -2.729267806020352 0.44119736169898216
-5.919033255945523 -3.136025149504516 0.9623319271261388
-6.416668087889115 -1.2011125314630604 0.8702844688210076
-7.5647872004501515 -3.6084616514372483 -0.07125295365967264
-6.928793819619632 -2.4838821928199577 -1.5979596906579112
-8.062422032393744 -1.6735490333957925 -0.16330041196480388
1.6582304982293854 1.2020510499608839 -3.6973843279790364
2.4747270791571117 0.3401222374185814 -2.0879086197303067
2.8376355763856687 0.10520311154024797 -4.8831027859620315
2.0389237406587877 -1.5669311024400918 -4.1307554101401
3.654132157313395 -0.7567257010020543 -3.2736270777133023
-3.7779841438893387 2.9848795517348865 -4.45745631032647
-2.070877362702792 3.9704781113883754 -4.795660267777995
2.4672967823606022 2.4357189630703306 2.896438633114736
1.6221188137163565 4.125079451167704 3.5535043395503934
0.15569598757037129 -4.559371841462427 -4.715874686529276
0.15569598757037129 -2.9263786796069753 -5.870575224908529
-2.403096228280998 3.2618347075113174 5.161119040170434
-0.6959894470944511 2.6144401053093547 5.9776156210981615
-1.9161768243235393 -6.272404919541648 -0.19180665147144738
-1.623283605510086 -6.103302940815885 1.7793904678355297
-5.11903513544841 -1.835200435149111 2.2537877218490032
-7.430877891256436 -3.4645580027223453 2.2297671179892333
-6.630879770759322 -2.1637332883669402 3.5212229127120978
-7.928512723200027 -1.5296453846808897 2.1377196596841017
1.5058186169134273 2.0803825044442026 -1.9070479142011831
3.3653372794159324 2.1876496096143723 -4.0355882854305625
3.2129253980999746 3.0659810640976914 -2.245251871652709
4.181833860343659 1.32572079707207 -2.4261125771818337
-5.919033255945524 1.9526369583991197 -2.6358955565395505
-6.416668087889116 1.220882909773907 -0.8423249316805557
-7.564787200450152 1.1356426215293154 -3.4258412557304037
-6.928793819619633 -0.6786101134959708 -2.874479819834641
-8.062422032393744 0.4038885729041025 -1.6322706308714086
2.624678486394675 1.7600300560858835 2.8068956206967184
2.9628824438462003 0.6219588686281845 1.1974199124479887
4.122945313535092 0.8472770342755122 3.7671447737120296
3.1827182390079267 -0.9065610409206045 3.5670821477208925
4.461149270986617 -0.29079415318218693 2.1576690654633004
0.6959894470944499 -4.7642700195704135 -4.457456310326473
2.403096228280997 -3.7786714599169247 -4.795660267777998
-2.403096228280998 3.7786714599169247 4.795660267777997
-0.6959894470944505 4.764270019570413 4.457456310326472
1.6232836055100877 -3.712059735185572 5.161119040170436
1.9161768243235402 -1.9099645946043573 5.977615621098162
-1.9161768243235404 1.9099645946043577 -5.977615621098161
-1.6232836055100872 3.712059735185571 -5.161119040170433
-5.119035135448411 2.7366249203489166 -0.9789809894242483
-7.430877891256437 3.257097267036741 -2.5231609040557075
-6.630879770759325 4.041085228986538 -0.8662463369404048
-7.928512723200029 2.525343218411528 -0.729590279196713
1.9402270745271644 2.331188344385742 1.0165592069188638
4.331785267581223 2.7456286157393723 2.468691663245192
3.6473338557137125 3.31678690403923 0.6783552494673383
4.669989225032749 1.6075574282816731 0.8592159549964629
-6.366908109557835 -4.064636015693335 -3.468024413346118
-7.8787527448687475 -2.760175707055712 -3.355289760862275
-4.952585267780233 2.5106159645241193 3.8683843921362033
-5.928512723200026 1.5027195409835108 2.443003600497738
-6.279477463300726 1.8777165442645782 5.224406303943656
-5.784999321270489 -0.018240051976484706 4.823357738026349
-7.255404918720519 0.8698201207239701 3.7990255123051915
0.69598944709445 -2.614440105309355 -5.977615621098163
2.4030962282809973 -3.2618347075113174 -5.161119040170437
2.0708773627027917 -3.970478111388375 4.795660267777999
3.777984143889339 -2.984879551734886 4.457456310326473
1.6232836055100868 6.103302940815883 -1.779390467835531
1.9161768243235389 6.272404919541646 0.1918066514714465
-0.1556959875703724 2.9263786796069766 5.87057522490853
-0.1556959875703725 4.559371841462428 4.715874686529276
-2.8527716846788116 -5.116927511654839 -3.5895972833283167
-1.6768423497561304 -5.649002114207736 -2.061825436295364
-3.648039469063108 -5.453739968332102 -1.7856830613799668
-3.1098336321086957 -7.0431200739796695 -4.062568073153712
-1.9339042971860148 -7.575194676532567 -2.53479622612076
-3.9051014164929923 -7.379932530656932 -2.2586538512053624
-4.684626677834674 2.987430760290456 1.9446261316957987
-6.464429903091146 3.815076273161742 3.981119044620047
-6.196471313145587 4.291891068928079 2.0573607841796413
-7.44035735851094 2.807179849621134 2.555738252981581
-6.3669081095578335 -1.914806101432276 -4.988183724117807
-7.878752744868745 -2.2433389546501044 -3.7207485332547123
-4.992020193949486 -3.270844107511296 5.785092164758356
-6.503864829260398 -1.9663837988736734 5.897826817242198
2.456470283847617 -1.5980260203067376 5.87057522490853
3.870683846220712 -2.414522601234463 4.715874686529276
2.07087736270279 5.84488456461308 -2.1448492402279675
3.7779841438893373 5.197489962411116 -1.3283526593002417
6.097257196493872 -1.6458466304894082 -1.779390467835532
6.390150415307326 -1.4767446517636462 0.1918066514714456
-2.903231011349871 -2.6425077011113003 -5.699471950548702
-1.7711858422896563 -1.0225946228307847 -6.006645116732164
-3.7423829615966335 -0.8273324769551496 -5.730502741816766
-3.196124230163325 -2.8116096798370633 -7.670669069855679
-2.0640790611031106 -1.1916966015565476 -7.977842236039141
-4.035276180410087 -0.9964344556809125 -7.7016998611237435
-1.5674619475293883 -4.374853588919575 5.060650276345748
-0.8698252360829087 -5.183070566387869 3.36947070688124
-2.841022355389886 -4.987808420512234 3.645613081796638
-1.6292617490836372 -6.188311498760564 5.901810899391672
-0.9316250376371573 -6.996528476228858 4.210631329927164
-2.9028221569441346 -6.801266330353223 4.4867737048425615
-4.606427272804656 -0.898392016429657 6.860007121888885
-6.4111651269290215 -1.396026848373249 6.156245193445002
-4.992020193949486 6.54451856849016 -1.1554173432476098
-6.503864829260398 6.21598571527233 0.11201784761548361
2.4564702838476173 6.06750674143366 0.4502250276742504
3.870683846220712 5.251010160505933 -0.7044755107050013
6.09725719649387 -1.129009878083802 -2.1448492402279684
6.390150415307322 0.6730852624974127 -1.3283526593002426
-10.130254117355097 -0.03838756395156001 0.49389994502189805
-9.837360898541643 0.13071441477420254 2.465097064328875
-1.0679661079571077 -1.5829170151032197 6.65202224036715
0.0640790611031069 0.036996063177296146 6.3448490741836885
-1.9071180582038703 0.23225820905293126 6.620991449099086
-0.7750728891436536 -1.4138150363774575 8.623219359674128
0.3569722799165612 0.20609804190305814 8.316046193490665
-1.614224839390416 0.4013601877786933 8.592188568406064
-1.5674619475293943 6.229511366463397 -2.4377680937825312
-0.8698252360829145 4.9044576365894965 -3.7634888908546014
-2.8410223553898915 5.099719782465131 -3.487346515939204
-1.629261749083645 7.627051177240892 -3.867125733360485
-0.9316250376371648 6.3019974473669915 -5.192846530432555
-2.9028221569441417 6.497259593242626 -4.916704155517158
-4.606427272804662 6.767140745310738 1.439656924654609
-6.411165126929027 6.269505913367147 0.7358949962107258
3.1717092388767023 -7.59547558841026 -1.1554173432476116
2.1312691243568214 -8.740505022555814 0.11201784761548195
6.482850117638698 -0.906387701263222 0.45022502767425
6.482850117638697 0.7266054605922303 -0.7044755107050017
-10.130254117355099 0.4784491884540474 0.12844117262946017
-9.837360898541647 2.2805443290352616 0.9449377535571863
-1.067966107957111 6.79922571805753 0.7249522728756443
0.06407906110310435 5.969649053554867 2.1498299142610593
-1.907118058203873 6.164911199430502 2.4259722891764577
-0.7750728891436572 8.601320858638744 1.5414488538033704
0.3569722799165588 7.771744194136081 2.9663264951887856
-1.614224839390419 7.967006340011717 3.242468870104184
4.6111841227565185 -4.47221754925758 -2.437768093782532
3.812472287029636 -3.2055195695953445 -3.7634888908546014
2.9959757061019108 -5.010257423719709 -3.4873465159392047
5.790589200912802 -5.224507652741144 -3.8671257333604863
4.99187736518592 -3.957809673078908 -5.192846530432555
4.175380784258195 -5.762547527203273 -4.916704155517159
3.5573021600215293 -7.372853411589679 1.4396569246546074
2.2239688266881954 -8.686984824460998 0.7358949962107234
-4.6507779070562965 -9.012282006648446 0.12844117262946164
-2.9436711258697494 -9.65967660885041 0.944937753557187
-9.744661196210274 0.701071365274626 2.7235154405316786
-9.744661196210274 2.3340645271300775 1.5688149021524267
5.354319143923757 -4.324498638900417 0.7249522728756432
5.201907262607799 -2.92933043201149 2.1498299142610584
4.3854106816800735 -4.734068286135854 2.425972289176456
7.061425925110305 -4.9718932411023795 1.5414488538033684
6.909014043794347 -3.5767250342134522 2.9663264951887838
6.092517462866621 -5.3814628883378175 3.2424688701041813
-4.6507779070563 3.1251895010826107 -8.454047236945671
-2.943671125869752 4.1107880607361 -8.792251194397195
-4.26518498591147 -8.789659829827865 2.7235154405316804
-2.850971423538376 -9.606156410755592 1.5688149021524285
3.5573021600215275 3.814939369203819 -6.471307217154374
2.223968826688193 3.5894700642361363 -7.944869504517758
-2.088211327236351 4.604688005757991 8.792251194397199
-0.38110454604980376 5.59028656541148 8.454047236945673
5.354319143923755 2.1249911038827634 -3.835525659439425
5.201907262607797 3.0033225583660825 -2.045189245661571
4.385410681680071 3.8652513709083847 -3.6546649539103
7.061425925110303 3.1105896635362513 -4.173729616890951
6.909014043794345 3.9889211180195705 -2.3833932031130964
6.092517462866619 4.850849930561873 -3.9928689113618256
-4.265184985911472 5.49764159216425 -7.379132279815138
-2.8509714235383785 4.681145011236524 -8.533832818194393
-2.088211327236351 6.754517920019052 7.272091883625508
-0.3811045460498038 6.107123317817089 8.088588464553236
2.628504786760429 -6.4425793457214295 -7.379132279815145
2.6285047867604288 -4.809586183865978 -8.533832818194396
4.805478445435551 -5.1857030178666275 7.272091883625508
5.0983716642490045 -3.3836078772854132 8.088588464553236
4.80547844543555 8.584761651719875 -2.4650970643288783
5.098371664249003 8.75386363044564 -0.4938999450219008
-8.816300636595214 -1.954543055531615 -1.9943409384554593
-8.318665804651623 -3.889455673573071 -1.9022934801503282
-9.452294017425732 -3.079122514148906 -0.46763420145722057
-8.463718341179373 -1.5756457324992266 4.064229175488252
-7.966083509235781 -3.510558350540682 4.156276633793383
-9.263716461676486 -2.8764704468546314 2.7727733807653876
-8.463718341179376 4.357007257878342 -0.1307899844343765
-7.9660835092357845 5.088761306503555 -1.924360609293371
-9.263716461676488 3.5730192959285443 -1.7877045515496794
-3.065949466246229 -9.195107754813082 -2.2276230599372986
-2.270681681861933 -8.858295298135818 -4.031537281885648
-4.241878801168911 -8.663033152260184 -3.755394906970251
-3.240008396025792 -0.6596219990036509 -9.505614083072093
-2.40085644577903 -2.4747972231598014 -9.474583291804029
-4.372053565086007 -2.2795350772841667 -9.19844091688863
-0.3406644315299174 1.0143150193713515 10.007225762955175
0.49848751871684494 -0.8008602047847996 10.038256554223238
-1.472709600590132 -0.6055980589091644 10.314398929138637
3 0 1 2
3 3 1 2
3 4 1 0
3 4 1 3
3 5 2 0
3 5 2 3
3 5 0 4
3 5 3 4
3 6 7 8
3 9 7 8
3 10 7 6
3 11 8 6
3 10 7 9
3 11 8 9
3 11 6 10
3 11 9 10
3 12 13 14
3 15 13 14
3 16 13 12
3 16 13 15
3 17 14 12
3 17 14 15
3 17 12 16
3 17 15 16
3 18 19 20
3 21 19 20
3 22 19 18
3 22 19 21
3 23 20 18
3 23 20 21
3 23 18 22
3 23 21 22
3 24 25 26
3 27 25 26
3 28 25 24
3 28 25 27
3 29 26 24
3 29 26 27
3 29 24 28
3 29 27 28
3 30 31 32
3 33 31 32
3 34 31 30
3 34 31 33
3 35 32 30
3 35 32 33
3 35 30 34
3 35 33 34
3 36 37 38
3 39 37 38
3 40 37 36
3 40 37 39
3 41 38 36
3 41 38 39
3 41 36 40
3 41 39 40
3 42 43 44
3 45 43 44
3 46 43 42
3 46 43 45
3 47 44 42
3 47 44 45
3 47 42 46
3 47 45 46
3 48 49 50
3 51 49 50
3 52 49 48
3 52 49 51
3 53 50 48
3 53 50 51
3 53 48 52
3 53 51 52
3 54 55 56
3 57 55 56
3 58 55 54
3 58 55 57
3 59 56 54
3 59 56 57
3 59 54 58
3 59 57 58
3 60 61 62
3 63 61 62
3 64 61 60
3 64 61 63
3 65 62 60
3 65 62 63
3 65 60 64
3 65 63 64
3 66 67 68
3 69 67 68
3 70 67 66
3 71 68 66
3 70 67 69
3 71 68 69
3 71 66 70
3 71 69 70
3 72 73 74
3 75 73 74
3 76 73 72
3 76 73 75
3 77 74 72
3 77 74 75
3 77 72 76
3 77 75 76
3 78 79 80
3 81 79 80
3 82 79 78
3 83 80 78
3 82 79 81
3 83 80 81
3 83 78 82
3 83 81 82
3 84 85 86
3 87 85 86
3 88 85 84
3 88 85 87
3 89 86 84
3 89 86 87
3 89 84 88
3 89 87 88
3 90 91 92
3 93 91 92
3 94 91 90
3 94 91 93
3 95 92 90
3 95 92 93
3 95 90 94
3 95 93 94
3 96 97 98
3 99 97 98
3 100 97 96
3 100 97 99
3 101 98 96
3 101 98 99
3 101 96 100
3 101 99 100
3 102 103 104
3 105 103 104
3 106 103 102
3 106 103 105
3 107 104 102
3 107 104 105
3 107 102 106
3 107 105 106
3 108 109 110
3 111 109 110
3 112 109 108
3 112 109 111
3 113 110 108
3 113 110 111
3 113 108 112
3 113 111 112
3 114 115 116
3 117 115 116
3 118 115 114
3 118 115 117
3 119 116 114
3 119 116 117
3 119 114 118
3 119 117 118
3 120 121 122
3 123 121 122
3 124 121 120
3 124 121 123
3 125 122 120
3 125 122 123
3 125 120 124
3 125 123 124
3 126 127 128
3 129 127 128
3 130 127 126
3 130 127 129
3 131 128 126
3 131 128 129
3 131 126 130
3 131 129 130
3 132 133 134
3 135 133 134
3 136 133 132
3 136 133 135
3 137 134 132
3 137 134 135
3 137 132 136
3 137 135 136
3 138 139 140
3 141 139 140
3 142 139 138
3 142 139 141
3 143 140 138
3 143 140 141
3 143 138 142
3 143 141 142
4 2 1 7 8
4 0 1 7 6
4 0 2 8 6
3 0 1 2
3 6 7 8
4 13 1 2 14
4 3 1 13 12
4 3 2 14 12
3 3 1 2
3 12 13 14
4 8 7 144 145
4 9 7 144 146
4 9 8 145 146
3 9 7 8
3 146 144 145
4 19 1 0 20
4 4 1 19 18
4 4 0 20 18
3 4 1 0
3 18 19 20
4 6 7 147 148
4 10 7 147 149
4 10 6 148 149
3 10 7 6
3 149 147 148
4 25 1 3 26
4 4 1 25 24
4 26 3 4 24
3 4 1 3
3 24 25 26
4 31 2 0 32
4 5 2 31 30
4 5 0 32 30
3 5 2 0
3 30 31 32
4 12 13 150 151
4 16 13 150 152
4 16 12 151 152
3 16 13 12
3 152 150 151
4 153 8 6 154
4 11 8 153 155
4 11 6 154 155
3 11 8 6
3 155 153 154
4 37 7 9 38
4 10 7 37 36
4 38 9 10 36
3 10 7 9
3 36 37 38
4 43 2 3 44
4 5 2 43 42
4 44 3 5 42
3 5 2 3
3 42 43 44
4 15 13 156 157
4 16 13 156 158
4 16 15 157 158
3 16 13 15
3 158 156 157
4 18 19 159 160
4 22 19 159 161
4 22 18 160 161
3 22 19 18
3 161 159 160
4 162 14 12 163
4 17 14 162 164
4 17 12 163 164
3 17 14 12
3 164 162 163
4 49 8 9 50
4 11 8 49 48
4 50 9 11 48
3 11 8 9
3 48 49 50
4 55 0 4 56
4 55 0 5 54
4 56 4 5 54
3 5 0 4
3 54 55 56
4 21 19 165 166
4 22 19 165 167
4 22 21 166 167
3 22 19 21
3 167 165 166
4 168 14 15 169
4 17 14 168 170
4 17 15 169 170
3 17 14 15
3 170 168 169
4 30 31 171 172
4 34 31 171 173
4 34 30 172 173
3 34 31 30
3 173 171 172
4 174 20 18 175
4 23 20 174 176
4 23 18 175 176
3 23 20 18
3 176 174 175
4 61 6 10 62
4 61 6 11 60
4 62 10 11 60
3 11 6 10
3 60 61 62
4 67 3 4 68
4 67 3 5 66
4 68 4 5 66
3 5 3 4
3 66 67 68
4 27 25 177 178
4 28 25 177 179
4 28 27 178 179
3 28 25 27
3 179 177 178
4 33 31 180 181
4 34 31 180 182
4 34 33 181 182
3 34 31 33
3 182 180 181
4 183 20 21 184
4 23 20 183 185
4 23 21 184 185
3 23 20 21
3 185 183 184
4 30 32 186 187
4 35 32 186 188
4 35 30 187 188
3 35 32 30
3 188 186 187
4 189 26 24 190
4 29 26 189 191
4 29 24 190 191
3 29 26 24
3 191 189 190
4 73 12 16 74
4 73 12 17 72
4 74 16 17 72
3 17 12 16
3 72 73 74
4 79 9 10 80
4 79 9 11 78
4 80 10 11 78
3 11 9 10
3 78 79 80
4 45 43 192 193
4 46 43 192 194
4 46 45 193 194
3 46 43 45
3 194 192 193
4 33 32 195 196
4 35 32 195 197
4 35 33 196 197
3 35 32 33
3 197 195 196
4 198 26 27 199
4 29 26 198 200
4 29 27 199 200
3 29 26 27
3 200 198 199
4 42 44 201 202
4 47 44 201 203
4 47 42 202 203
3 47 44 42
3 203 201 202
4 204 38 36 205
4 41 38 204 206
4 41 36 205 206
3 41 38 36
3 206 204 205
4 85 15 16 86
4 85 15 17 84
4 86 16 17 84
3 17 15 16
3 84 85 86
4 91 18 22 92
4 91 18 23 90
4 92 22 23 90
3 23 18 22
3 90 91 92
4 57 55 207 208
4 58 55 207 209
4 58 57 208 209
3 58 55 57
3 209 207 208
4 45 44 210 211
4 47 44 210 212
4 47 45 211 212
3 47 44 45
3 212 210 211
4 213 38 39 214
4 41 38 213 215
4 41 39 214 215
3 41 38 39
3 215 213 214
4 216 24 28 217
4 29 24 216 218
4 217 28 29 218
3 29 24 28
3 218 216 217
4 48 50 219 220
4 53 50 219 221
4 53 48 220 221
3 53 50 48
3 221 219 220
4 54 56 222 223
4 59 56 222 224
4 59 54 223 224
3 59 56 54
3 224 222 223
4 97 21 22 98
4 97 21 23 96
4 98 22 23 96
3 23 21 22
3 96 97 98
4 103 30 34 104
4 103 30 35 102
4 104 34 35 102
3 35 30 34
3 102 103 104
4 69 67 225 226
4 70 67 225 227
4 70 69 226 227
3 70 67 69
3 227 225 226
4 51 50 228 229
4 53 50 228 230
4 53 51 229 230
3 53 50 51
3 230 228 229
4 57 56 231 232
4 59 56 231 233
4 59 57 232 233
3 59 56 57
3 233 231 232
4 234 36 40 235
4 41 36 234 236
4 235 40 41 236
3 41 36 40
3 236 234 235
4 237 42 46 238
4 47 42 237 239
4 238 46 47 239
3 47 42 46
3 239 237 238
4 60 62 240 241
4 65 62 240 242
4 65 60 241 242
3 65 62 60
3 242 240 241
4 109 27 28 110
4 109 27 29 108
4 110 28 29 108
3 29 27 28
3 108 109 110
4 115 33 34 116
4 115 33 35 114
4 116 34 35 114
3 35 33 34
3 114 115 116
4 81 79 243 244
4 82 79 243 245
4 82 81 244 245
3 82 79 81
3 245 243 244
4 69 68 246 247
4 71 68 246 248
4 71 69 247 248
3 71 68 69
3 248 246 247
4 63 62 249 250
4 65 62 249 251
4 65 63 250 251
3 65 62 63
3 251 249 250
4 58 54 252 253
4 59 54 252 254
4 253 58 59 254
3 59 54 58
3 254 252 253
4 255 39 40 256
4 255 39 41 257
4 256 40 41 257
3 41 39 40
3 257 255 256
4 258 48 52 259
4 53 48 258 260
4 259 52 53 260
3 53 48 52
3 260 258 259
4 72 74 261 262
4 77 74 261 263
4 77 72 262 263
3 77 74 72
3 263 261 262
4 121 45 46 122
4 121 45 47 120
4 122 46 47 120
3 47 45 46
3 120 121 122
4 81 80 264 265
4 83 80 264 266
4 83 81 265 266
3 83 80 81
3 266 264 265
4 70 66 267 268
4 71 66 267 269
4 268 70 71 269
3 71 66 70
3 269 267 268
4 75 74 270 271
4 77 74 270 272
4 77 75 271 272
3 77 74 75
3 272 270 271
4 64 60 273 274
4 65 60 273 275
4 274 64 65 275
3 65 60 64
3 275 273 274
4 276 51 52 277
4 276 51 53 278
4 277 52 53 278
3 53 51 52
3 278 276 277
4 90 92 279 280
4 95 92 279 281
4 95 90 280 281
3 95 92 90
3 281 279 280
4 127 57 58 128
4 127 57 59 126
4 128 58 59 126
3 59 57 58
3 126 127 128
4 87 86 282 283
4 89 86 282 284
4 89 87 283 284
3 89 86 87
3 284 282 283
4 82 78 285 286
4 83 78 285 287
4 286 82 83 287
3 83 78 82
3 287 285 286
4 93 92 288 289
4 95 92 288 290
4 95 93 289 290
3 95 92 93
3 290 288 289
4 76 72 291 292
4 77 72 291 293
4 292 76 77 293
3 77 72 76
3 293 291 292
4 294 63 64 295
4 294 63 65 296
4 295 64 65 296
3 65 63 64
3 296 294 295
4 102 104 297 298
4 107 104 297 299
4 107 102 298 299
3 107 104 102
3 299 297 298
4 133 69 70 134
4 133 69 71 132
4 134 70 71 132
3 71 69 70
3 132 133 134
4 99 98 300 301
4 101 98 300 302
4 101 99 301 302
3 101 98 99
3 302 300 301
4 88 84 303 304
4 89 84 303 305
4 304 88 89 305
3 89 84 88
3 305 303 304
4 105 104 306 307
4 107 104 306 308
4 107 105 307 308
3 107 104 105
3 308 306 307
4 94 90 309 310
4 95 90 309 311
4 310 94 95 311
3 95 90 94
3 311 309 310
4 312 75 76 313
4 312 75 77 314
4 313 76 77 314
3 77 75 76
3 314 312 313
4 139 81 82 140
4 139 81 83 138
4 140 82 83 138
3 83 81 82
3 138 139 140
4 117 116 315 316
4 119 116 315 317
4 119 117 316 317
3 119 116 117
3 317 315 316
4 100 96 318 319
4 101 96 318 320
4 319 100 101 320
3 101 96 100
3 320 318 319
4 106 102 321 322
4 107 102 321 323
4 107 106 322 323
3 107 102 106
3 323 321 322
4 324 93 94 325
4 95 93 324 326
4 325 94 95 326
3 95 93 94
3 326 324 325
4 327 87 88 328
4 327 87 89 329
4 328 88 89 329
3 89 87 88
3 329 327 328
4 118 114 330 331
4 119 114 330 332
4 119 118 331 332
3 119 114 118
3 332 330 331
4 112 108 333 334
4 113 108 333 335
4 334 112 113 335
3 113 108 112
3 335 333 334
4 336 105 106 337
4 107 105 336 338
4 337 106 107 338
3 107 105 106
3 338 336 337
4 339 99 100 340
4 101 99 339 341
4 340 100 101 341
3 101 99 100
3 341 339 340
4 124 120 342 343
4 125 120 342 344
4 125 124 343 344
3 125 120 124
3 344 342 343
4 112 111 345 346
4 113 111 345 347
4 346 112 113 347
3 113 111 112
3 347 345 346
4 348 117 118 349
4 119 117 348 350
4 349 118 119 350
3 119 117 118
3 350 348 349
4 124 123 351 352
4 125 123 351 353
4 352 124 125 353
3 125 123 124
3 353 351 352
4 130 126 354 355
4 131 126 354 356
4 131 130 355 356
3 131 126 130
3 356 354 355
4 130 129 357 358
4 131 129 357 359
4 358 130 131 359
3 131 129 130
3 359 357 358
4 136 135 360 361
4 137 135 360 362
4 137 136 361 362
3 137 135 136
3 362 360 361
3 363 1 7
3 364 2 8
4 2 1 7 8
4 363 1 2 364
4 8 7 363 364
3 365 1 7
3 366 0 6
4 0 1 7 6
4 365 1 0 366
4 6 7 365 366
3 367 1 13
3 368 3 12
4 3 1 13 12
4 367 1 3 368
4 12 13 367 368
3 369 2 8
3 370 0 6
4 0 2 8 6
4 369 2 0 370
4 369 8 6 370
3 371 7 144
3 372 9 146
4 9 7 144 146
4 371 7 9 372
4 146 144 371 372
3 373 1 19
3 374 4 18
4 4 1 19 18
4 4 1 373 374
4 18 19 373 374
3 375 2 14
3 376 3 12
4 3 2 14 12
4 375 2 3 376
4 375 14 12 376
3 377 7 147
3 378 10 149
4 10 7 147 149
4 10 7 377 378
4 149 147 377 378
3 379 8 145
3 380 9 146
4 9 8 145 146
4 379 8 9 380
4 379 145 146 380
3 381 2 31
3 382 5 30
4 5 2 31 30
4 5 2 381 382
4 30 31 381 382
3 383 0 20
3 384 4 18
4 4 0 20 18
4 383 0 4 384
4 383 20 18 384
3 385 363 386
3 387 388 389
4 388 363 386 389
4 388 363 385 387
4 389 386 385 387
3 390 8 153
3 391 11 155
4 11 8 153 155
4 11 8 390 391
4 155 153 390 391
3 392 6 148
3 393 10 149
4 10 6 148 149
4 392 6 10 393
4 392 148 149 393
3 394 0 32
3 395 5 30
4 5 0 32 30
4 394 0 5 395
4 30 32 394 395
3 396 3 26
3 397 4 24
4 26 3 4 24
4 396 3 4 397
4 396 26 24 397
3 385 398 386
3 399 400 401
4 400 398 386 401
4 400 398 385 399
4 401 386 385 399
3 402 364 403
3 404 405 406
4 405 364 403 406
4 405 364 402 404
4 406 403 402 404
3 407 6 154
3 408 11 155
4 11 6 154 155
4 407 6 11 408
4 155 154 407 408
3 409 12 151
3 410 16 152
4 16 12 151 152
4 409 12 16 410
4 409 151 152 410
3 411 3 44
3 412 5 42
4 44 3 5 42
4 411 3 5 412
4 42 44 411 412
3 413 9 38
3 414 10 36
4 38 9 10 36
4 413 9 10 414
4 413 38 36 414
3 402 415 403
3 416 417 418
4 417 415 403 418
4 417 415 402 416
4 418 403 402 416
3 419 366 420
3 421 422 423
4 422 366 420 423
4 422 366 419 421
4 423 420 419 421
3 424 12 163
3 425 17 164
4 17 12 163 164
4 424 12 17 425
4 164 163 424 425
3 426 15 157
3 427 16 158
4 16 15 157 158
4 426 15 16 427
4 426 157 158 427
3 428 18 160
3 429 22 161
4 22 18 160 161
4 428 18 22 429
4 428 160 161 429
3 430 9 50
3 431 11 48
4 50 9 11 48
4 430 9 11 431
4 48 50 430 431
3 432 4 56
3 433 5 54
4 56 4 5 54
4 432 4 5 433
4 54 56 432 433
3 419 434 420
3 435 436 437
4 436 434 420 437
4 436 434 419 435
4 437 420 419 435
3 438 368 439
3 440 441 442
4 441 368 439 442
4 441 368 438 440
4 442 439 438 440
3 443 15 169
3 444 17 170
4 17 15 169 170
4 443 15 17 444
4 170 169 443 444
3 445 18 175
3 446 23 176
4 23 18 175 176
4 445 18 23 446
4 176 175 445 446
3 447 21 166
3 448 22 167
4 22 21 166 167
4 447 21 22 448
4 447 166 167 448
3 449 30 172
3 450 34 173
4 34 30 172 173
4 449 30 34 450
4 449 172 173 450
3 451 10 62
3 452 11 60
4 62 10 11 60
4 451 10 11 452
4 60 62 451 452
3 438 453 439
3 454 455 456
4 455 453 439 456
4 455 453 438 454
4 456 439 438 454
3 457 372 458
3 459 460 461
4 460 372 458 461
4 460 372 457 459
4 461 458 457 459
3 462 374 463
3 464 465 466
4 465 374 463 466
4 465 374 462 464
4 466 463 462 464
3 467 21 184
3 468 23 185
4 23 21 184 185
4 467 21 23 468
4 185 184 467 468
3 469 30 187
3 470 35 188
4 35 30 187 188
4 469 30 35 470
4 188 187 469 470
3 471 27 178
3 472 28 179
4 28 27 178 179
4 471 27 28 472
4 471 178 179 472
3 473 33 181
3 474 34 182
4 34 33 181 182
4 473 33 34 474
4 473 181 182 474
3 475 16 74
3 476 17 72
4 74 16 17 72
4 475 16 17 476
4 72 74 475 476
3 457 477 458
3 478 479 480
4 479 477 458 480
4 479 477 457 478
4 480 458 457 478
3 462 481 463
3 482 483 484
4 483 481 463 484
4 483 481 462 482
4 484 463 462 482
3 485 378 486
3 487 488 489
4 488 378 486 489
4 488 378 485 487
4 489 486 485 487
3 490 382 491
3 492 493 494
4 493 382 491 494
4 493 382 490 492
4 494 491 490 492
3 495 27 199
3 496 29 200
4 29 27 199 200
4 495 27 29 496
4 200 199 495 496
3 497 33 196
3 498 35 197
4 35 33 196 197
4 497 33 35 498
4 197 196 497 498
3 499 45 193
3 500 46 194
4 46 45 193 194
4 499 45 46 500
4 499 193 194 500
3 501 22 92
3 502 23 90
4 92 22 23 90
4 501 22 23 502
4 90 92 501 502
3 485 503 486
3 504 505 506
4 505 503 486 506
4 505 503 485 504
4 506 486 485 504
3 490 507 491
3 508 509 510
4 509 507 491 510
4 509 507 490 508
4 510 491 490 508
3 511 39 214
3 512 41 215
4 41 39 214 215
4 511 39 41 512
4 215 214 511 512
3 513 391 514
3 515 516 517
4 516 391 514 517
4 516 391 513 515
4 517 514 513 515
3 518 28 217
3 519 29 218
4 217 28 29 218
4 518 28 29 519
4 218 217 518 519
3 520 45 211
3 521 47 212
4 47 45 211 212
4 520 45 47 521
4 212 211 520 521
3 522 57 208
3 523 58 209
4 58 57 208 209
4 522 57 58 523
4 522 208 209 523
3 524 34 104
3 525 35 102
4 104 34 35 102
4 524 34 35 525
4 102 104 524 525
3 526 527 528
3 529 530 531
4 530 527 528 531
4 530 527 526 529
4 531 528 526 529
3 513 532 514
3 533 534 535
4 534 532 514 535
4 534 532 513 533
4 535 514 513 533
3 536 40 235
3 537 41 236
4 235 40 41 236
4 536 40 41 537
4 236 235 536 537
3 538 51 229
3 539 53 230
4 53 51 229 230
4 538 51 53 539
4 230 229 538 539
3 540 46 238
3 541 47 239
4 238 46 47 239
4 540 46 47 541
4 239 238 540 541
3 542 57 232
3 543 59 233
4 59 57 232 233
4 542 57 59 543
4 233 232 542 543
3 544 69 226
3 545 70 227
4 70 69 226 227
4 544 69 70 545
4 544 226 227 545
3 546 547 548
3 549 550 551
4 550 547 548 551
4 550 547 546 549
4 551 548 546 549
3 552 553 554
3 555 556 557
4 556 553 554 557
4 556 553 552 555
4 557 554 552 555
3 558 52 259
3 559 53 260
4 259 52 53 260
4 558 52 53 559
4 260 259 558 559
3 560 63 250
3 561 65 251
4 65 63 250 251
4 560 63 65 561
4 251 250 560 561
3 562 58 253
3 563 59 254
4 253 58 59 254
4 562 58 59 563
4 254 253 562 563
3 564 69 247
3 565 71 248
4 71 69 247 248
4 564 69 71 565
4 564 247 248 565
3 566 81 244
3 567 82 245
4 82 81 244 245
4 566 81 82 567
4 566 244 245 567
3 568 569 570
3 571 572 573
4 572 569 570 573
4 572 569 568 571
4 573 570 568 571
3 574 575 576
3 577 578 579
4 578 575 576 579
4 578 575 574 577
4 579 576 574 577
3 580 64 274
3 581 65 275
4 274 64 65 275
4 580 64 65 581
4 275 274 580 581
3 582 75 271
3 583 77 272
4 77 75 271 272
4 582 75 77 583
4 272 271 582 583
3 584 70 268
3 585 71 269
4 268 70 71 269
4 584 70 71 585
4 584 268 269 585
3 586 81 265
3 587 83 266
4 83 81 265 266
4 586 81 83 587
4 586 265 266 587
3 588 589 590
3 591 592 593
4 592 589 590 593
4 592 589 588 591
4 593 590 588 591
3 594 595 596
3 597 598 599
4 598 595 596 599
4 598 595 594 597
4 599 596 594 597
3 600 76 292
3 601 77 293
4 292 76 77 293
4 600 76 77 601
4 293 292 600 601
3 602 87 283
3 603 89 284
4 89 87 283 284
4 602 87 89 603
4 284 283 602 603
3 604 82 286
3 605 83 287
4 286 82 83 287
4 604 82 83 605
4 604 286 287 605
3 606 607 608
3 609 610 611
4 610 607 608 611
4 610 607 606 609
4 611 608 606 609
3 612 99 301
3 613 101 302
4 101 99 301 302
4 101 99 612 613
4 302 301 612 613
3 614 88 304
3 615 89 305
4 304 88 89 305
4 614 88 89 615
4 305 304 614 615
3 616 94 310
3 617 95 311
4 310 94 95 311
4 616 94 95 617
4 311 310 616 617
3 618 117 316
3 619 119 317
4 119 117 316 317
4 119 117 618 619
4 317 316 618 619
3 620 621 622
3 623 624 625
4 624 621 622 625
4 620 621 624 623
4 625 622 620 623
3 626 100 319
3 627 101 320
4 319 100 101 320
4 626 100 101 627
4 320 319 626 627
3 628 118 331
3 629 119 332
4 119 118 331 332
4 628 118 119 629
4 332 331 628 629
3 630 112 334
3 631 113 335
4 334 112 113 335
4 630 112 113 631
4 335 334 630 631
3 632 124 343
3 633 125 344
4 125 124 343 344
4 632 124 125 633
4 344 343 632 633
3 634 130 355
3 635 131 356
4 131 130 355 356
4 634 130 131 635
4 356 355 634 635
3 363 1 7
3 398 1 7
3 386 1 363
3 385 7 363
3 386 1 398
3 385 7 398
3 385 363 386
3 385 398 386
3 364 2 8
3 415 2 8
3 403 2 364
3 402 8 364
3 403 2 415
3 402 8 415
3 402 364 403
3 402 415 403
3 366 0 6
3 434 0 6
3 420 0 366
3 419 6 366
3 420 0 434
3 419 6 434
3 419 366 420
3 419 434 420
3 368 3 12
3 453 3 12
3 439 3 368
3 438 12 368
3 439 3 453
3 438 12 453
3 438 368 439
3 438 453 439
3 372 9 146
3 477 9 146
3 458 9 372
3 457 146 372
3 458 9 477
3 457 146 477
3 457 372 458
3 457 477 458
3 374 4 18
3 481 4 18
3 463 4 374
3 462 18 374
3 463 4 481
3 462 18 481
3 462 374 463
3 462 481 463
3 378 10 149
3 503 10 149
3 486 10 378
3 485 149 378
3 486 10 503
3 485 149 503
3 485 378 486
3 485 503 486
3 382 5 30
3 507 5 30
3 491 5 382
3 490 30 382
3 491 5 507
3 490 30 507
3 490 382 491
3 490 507 491
3 387 388 389
3 527 388 389
3 528 388 387
3 526 389 387
3 528 388 527
3 526 389 527
3 526 387 528
3 526 527 528
3 391 11 155
3 532 11 155
3 514 11 391
3 513 155 391
3 514 11 532
3 513 155 532
3 513 391 514
3 513 532 514
3 399 400 401
3 547 400 401
3 548 400 399
3 546 401 399
3 548 400 547
3 546 401 547
3 546 399 548
3 546 547 548
3 404 405 406
3 553 405 406
3 554 405 404
3 552 406 404
3 554 405 553
3 552 406 553
3 552 404 554
3 552 553 554
3 416 417 418
3 569 417 418
3 570 417 416
3 568 418 416
3 570 417 569
3 568 418 569
3 568 416 570
3 568 569 570
3 421 422 423
3 575 422 423
3 576 422 421
3 574 423 421
3 576 422 575
3 574 423 575
3 574 421 576
3 574 575 576
3 435 436 437
3 589 436 437
3 590 436 435
3 588 437 435
3 590 436 589
3 588 437 589
3 588 435 590
3 588 589 590
3 440 441 442
3 595 441 442
3 596 441 440
3 594 442 440
3 596 441 595
3 594 442 595
3 594 440 596
3 594 595 596
3 454 455 456
3 607 455 456
3 608 455 454
3 606 456 454
3 608 455 607
3 606 456 607
3 606 454 608
3 606 607 608
3 459 460 461
3 636 460 461
3 637 460 459
3 638 461 459
3 637 460 636
3 638 461 636
3 638 459 637
3 638 636 637
3 478 479 480
3 639 479 480
3 640 479 478
3 641 480 478
3 640 479 639
3 641 480 639
3 641 478 640
3 641 639 640
3 482 483 484
3 621 483 484
3 622 483 482
3 620 484 482
3 622 483 621
3 620 484 621
3 620 482 622
3 620 621 622
3 504 505 506
3 642 505 506
3 643 505 504
3 644 506 504
3 643 505 642
3 644 506 642
3 644 504 643
3 644 642 643
3 529 530 531
3 645 530 531
3 646 530 529
3 647 531 529
3 646 530 645
3 647 531 645
3 647 529 646
3 647 645 646
3 549 550 551
3 648 550 551
3 649 550 549
3 650 551 549
3 649 550 648
3 650 551 648
3 650 549 649
3 650 648 649
3 571 572 573
3 651 572 573
3 652 572 571
3 653 573 571
3 652 572 651
3 653 573 651
3 653 571 652
3 653 651 652
# cell 1: 0 1 2 3 4 5 6 7
# cell 2: 8 9 10 11 12 13 14 15
# cell 3: 16 17 18 19 20 21 22 23
# cell 4: 24 25 26 27 28 29 30 31
# cell 5: 32 33 34 35 36 37 38 39
# cell 6: 40 41 42 43 44 45 46 47
# cell 7: 48 49 50 51 52 53 54 55
# cell 8: 56 57 58 59 60 61 62 63
# cell 9: 64 65 66 67 68 69 70 71
# cell 10: 72 73 74 75 76 77 78 79
# cell 11: 80 81 82 83 84 85 86 87
# cell 12: 88 89 90 91 92 93 94 95
# cell 13: 96 97 98 99 100 101 102 103
# cell 14: 104 105 106 107 108 109 110 111
# cell 15: 112 113 114 115 116 117 118 119
# cell 16: 120 121 122 123 124 125 126 127
# cell 17: 128 129 130 131 132 133 134 135
# cell 18: 136 137 138 139 140 141 142 143
# cell 19: 144 145 146 147 148 149 150 151
# cell 20: 152 153 154 155 156 157 158 159
# cell 21: 160 161 162 163 164 165 166 167
# cell 22: 168 169 170 171 172 173 174 175
# cell 23: 176 177 178 179 180 181 182 183
# cell 24: 184 185 186 187 188 189 190 191
# cell 25: 192 193 194 195 196
# cell 26: 197 198 199 200 201
# cell 27: 202 203 204 205 206
# cell 28: 207 208 209 210 211
# cell 29: 212 213 214 215 216
# cell 30: 217 218 219 220 221
# cell 31: 222 223 224 225 226
# cell 32: 227 228 229 230 231
# cell 33: 232 233 234 235 236
# cell 34: 237 238 239 240 241
# cell 35: 242 243 244 245 246
# cell 36: 247 248 249 250 251
# cell 37: 252 253 254 255 256
# cell 38: 257 258 259 260 261
# cell 39: 262 263 264 265 266
# cell 40: 267 268 269 270 271
# cell 41: 272 273 274 275 276
# cell 42: 277 278 279 280 281
# cell 43: 282 283 284 285 286
# cell 44: 287 288 289 290 291
# cell 45: 292 293 294 295 296
# cell 46: 297 298 299 300 301
# cell 47: 302 303 304 305 306
# cell 48: 307 308 309 310 311
# cell 49: 312 313 314 315 316
# cell 50: 317 318 319 320 321
# cell 51: 322 323 324 325 326
# cell 52: 327 328 329 330 331
# cell 53: 332 333 334 335 336
# cell 54: 337 338 339 340 341
# cell 55: 342 343 344 345 346
# cell 56: 347 348 349 350 351
# cell 57: 352 353 354 355 356
# cell 58: 357 358 359 360 361
# cell 59: 362 363 364 365 366
# cell 60: 367 368 369 370 371
# cell 61: 372 373 374 375 376
# cell 62: 377 378 379 380 381
# cell 63: 382 383 384 385 386
# cell 64: 387 388 389 390 391
# cell 65: 392 393 394 395 396
# cell 66: 397 398 399 400 401
# cell 67: 402 403 404 405 406
# cell 68: 407 408 409 410 411
# cell 69: 412 413 414 415 416
# cell 70: 417 418 419 420 421
# cell 71: 422 423 424 425 426
# cell 72: 427 428 429 430 431
# cell 73: 432 433 434 435 436
# cell 74: 437 438 439 440 441
# cell 75: 442 443 444 445 446
# cell 76: 447 448 449 450 451
# cell 77: 452 453 454 455 456
# cell 78: 457 458 459 460 461
# cell 79: 462 463 464 465 466
# cell 80: 467 468 469 470 471
# cell 81: 472 473 474 475 476
# cell 82: 477 478 479 480 481
# cell 83: 482 483 484 485 486
# cell 84: 487 488 489 490 491
# cell 85: 492 493 494 495 496
# cell 86: 497 498 499 500 501
# cell 87: 502 503 504 505 506
# cell 88: 507 508 509 510 511
# cell 89: 512 513 514 515 516
# cell 90: 517 518 519 520 521
# cell 91: 522 523 524 525 526
# cell 92: 527 528 529 530 531
# cell 93: 532 533 534 535 536
# cell 94: 537 538 539 540 541
# cell 95: 542 543 544 545 546
# cell 96: 547 548 549 550 551
# cell 97: 552 553 554 555 556
# cell 98: 557 558 559 560 561
# cell 99: 562 563 564 565 566
# cell 100: 567 568 569 570 571
# cell 101: 572 573 574 575 576
# cell 102: 577 578 579 580 581
# cell 103: 582 583 584 585 586
# cell 104: 587 588 589 590 591
# cell 105: 592 593 594 595 596
# cell 106: 597 598 599 600 601
# cell 107: 602 603 604 605 606
# cell 108: 607 608 609 610 611
# cell 109: 612 613 614 615 616
# cell 110: 617 618 619 620 621
# cell 111: 622 623 624 625 626
# cell 112: 627 628 629 630 631
# cell 113: 632 633 634 635 636
# cell 114: 637 638 639 640 641
# cell 115: 642 643 644 645 646
# cell 116: 647 648 649 650 651
# cell 117: 652 653 654 655 656
# cell 118: 657 658 659 660 661
# cell 119: 662 663 664 665 666
# cell 120: 667 668 669 670 671
# cell 121: 672 673 674 675 676
# cell 122: 677 678 679 680 681
# cell 123: 682 683 684 685 686
# cell 124: 687 688 689 690 691
# cell 125: 692 693 694 695 696
# cell 126: 697 698 699 700 701
# cell 127: 702 703 704 705 706
# cell 128: 707 708 709 710 711
# cell 129: 712 713 714 715 716
# cell 130: 717 718 719 720 721
# cell 131: 722 723 724 725 726
# cell 132: 727 728 729 730 731
# cell 133: 732 733 734 735 736
# cell 134: 737 738 739 740 741
# cell 135: 742 743 744 745 746
# cell 136: 747 748 749 750 751
# cell 137: 752 753 754 755 756
# cell 138: 757 758 759 760 761
# cell 139: 762 763 764 765 766
# cell 140: 767 768 769 770 771
# cell 141: 772 773 774 775 776
# cell 142: 777 778 779 780 781
# cell 143: 782 783 784 785 786
# cell 144: 787 788 789 790 791
# cell 145: 792 793 794 795 796
# cell 146: 797 798 799 800 801
# cell 147: 802 803 804 805 806
# cell 148: 807 808 809 810 811
# cell 149: 812 813 814 815 816
# cell 150: 817 818 819 820 821
# cell 151: 822 823 824 825 826
# cell 152: 827 828 829 830 831
# cell 153: 832 833 834 835 836
# cell 154: 837 838 839 840 841
# cell 155: 842 843 844 845 846
# cell 156: 847 848 849 850 851
# cell 157: 852 853 854 855 856
# cell 158: 857 858 859 860 861
# cell 159: 862 863 864 865 866
# cell 160: 867 868 869 870 871
# cell 161: 872 873 874 875 876
# cell 162: 877 878 879 880 881
# cell 163: 882 883 884 885 886
# cell 164: 887 888 889 890 891
# cell 165: 892 893 894 895 896
# cell 166: 897 898 899 900 901
# cell 167: 902 903 904 905 906
# cell 168: 907 908 909 910 911
# cell 169: 912 913 914 915 916
# cell 170: 917 918 919 920 921
# cell 171: 922 923 924 925 926
# cell 172: 927 928 929 930 931
# cell 173: 932 933 934 935 936
# cell 174: 937 938 939 940 941
# cell 175: 942 943 944 945 946
# cell 176: 947 948 949 950 951
# cell 177: 952 953 954 955 956
# cell 178: 957 958 959 960 961
# cell 179: 962 963 964 965 966
# cell 180: 967 968 969 970 971
# cell 181: 972 973 974 975 976
# cell 182: 977 978 979 980 981
# cell 183: 982 983 984 985 986
# cell 184: 987 988 989 990 991
# cell 185: 992 993 994 995 996
# cell 186: 997 998 999 1000 1001
# cell 187: 1002 1003 1004 1005 1006
# cell 188: 1007 1008 1009 1010 1011
# cell 189: 1012 1013 1014 1015 1016
# cell 190: 1017 1018 1019 1020 1021
# cell 191: 1022 1023 1024 1025 1026
# cell 192: 1027 1028 1029 1030 1031
# cell 193: 1032 1033 1034 1035 1036
# cell 194: 1037 1038 1039 1040 1041
# cell 195: 1042 1043 1044 1045 1046
# cell 196: 1047 1048 1049 1050 1051
# cell 197: 1052 1053 1054 1055 1056
# cell 198: 1057 1058 1059 1060 1061
# cell 199: 1062 1063 1064 1065 1066
# cell 200: 1067 1068 1069 1070 1071
# cell 201: 1072 1073 1074 1075 1076
# cell 202: 1077 1078 1079 1080 1081
# cell 203: 1082 1083 1084 1085 1086
# cell 204: 1087 1088 1089 1090 1091
# cell 205: 1092 1093 1094 1095 1096
# cell 206: 1097 1098 1099 1100 1101
# cell 207: 1102 1103 1104 1105 1106
# cell 208: 1107 1108 1109 1110 1111
# cell 209: 1112 1113 1114 1115 1116
# cell 210: 1117 1118 1119 1120 1121
# cell 211: 1122 1123 1124 1125 1126
# cell 212: 1127 1128 1129 1130 1131
# cell 213: 1132 1133 1134 1135 1136
# cell 214: 1137 1138 1139 1140 1141
# cell 215: 1142 1143 1144 1145 1146
# cell 216: 1147 1148 1149 1150 1151
# cell 217: 1152 1153 1154 1155 1156 1157 1158 1159
# cell 218: 1160 1161 1162 1163 1164 1165 1166 1167
# cell 219: 1168 1169 1170 1171 1172 1173 1174 1175
# cell 220: 1176 1177 1178 1179 1180 1181 1182 1183
# cell 221: 1184 1185 1186 1187 1188 1189 1190 1191
# cell 222: 1192 1193 1194 1195 1196 1197 1198 1199
# cell 223: 1200 1201 1202 1203 1204 1205 1206 1207
# cell 224: 1208 1209 1210 1211 1212 1213 1214 1215
# cell 225: 1216 1217 1218 1219 1220 1221 1222 1223
# cell 226: 1224 1225 1226 1227 1228 1229 1230 1231
# cell 227: 1232 1233 1234 1235 1236 1237 1238 1239
# cell 228: 1240 1241 1242 1243 1244 1245 1246 1247
# cell 229: 1248 1249 1250 1251 1252 1253 1254 1255
# cell 230: 1256 1257 1258 1259 1260 1261 1262 1263
# cell 231: 1264 1265 1266 1267 1268 1269 1270 1271
# cell 232: 1272 1273 1274 1275 1276 1277 1278 1279
# cell 233: 1280 1281 1282 1283 1284 1285 1286 1287
# cell 234: 1288 1289 1290 1291 1292 1293 1294 1295
# cell 235: 1296 1297 1298 1299 1300 1301 1302 1303
# cell 236: 1304 1305 1306 1307 1308 1309 1310 1311
# cell 237: 1312 1313 1314 1315 1316 1317 1318 1319
# cell 238: 1320 1321 1322 1323 1324 1325 1326 1327
# cell 239: 1328 1329 1330 1331 1332 1333 1334 1335
# cell 240: 1336 1337 1338 1339 1340 1341 1342 1343