OFF
# face-rotation BFS net; polygonal faces are preserved
# the cell decomposition is listed below as comments
649 1344 0
2.7553287745703026 3.3496031332758047 3.0050033720771796
1.666666666666667 1.7553287745703015 2.482409759421065
2.755328774570302 1.7166099714203535 4.1597039104564315
3.299659828522119 0.6054988603092422 2.588355507819659
3.2996598285221195 2.2384920221646936 1.4336549694404075
4.388321936425754 2.1997732190147454 3.1109491204757735
-2.7553287745703017 3.3496031332758056 3.0050033720771796
-1.666666666666667 1.7553287745703015 2.482409759421065
-2.755328774570302 1.7166099714203538 4.159703910456432
-3.299659828522119 0.6054988603092422 2.5883555078196596
-3.299659828522119 2.238492022164694 1.4336549694404073
-4.388321936425754 2.1997732190147463 3.110949120475774
1.9663264951887842 -1.2721655269759096 2.7613641904822215
0.3333333333333324 -0.12233561271484938 2.6554184420836267
0.8776643872851491 -0.9276076920388376 4.40334309205139
-0.7553287745703031 -1.5942743587055044 3.4605340504693256
0.333333333333332 -1.9388321936425754 1.8185551489001572
0.8776643872851486 -2.7441042729665632 3.56647979886792
1.9663264951887873 3.0274943015462097 -0.27895443106115686
0.33333333333333437 2.5443310539518174 0.7698003589195005
0.877664387285153 4.460714244386916 0.5932241115885103
-0.7553287745702997 3.7940475777202503 -0.3495849299935535
0.3333333333333344 2.360827634879543 -1.2217634726432207
0.8776643872851528 4.277210825314642 -1.398339719974211
2.6329931618554525 1.149829914261059 -0.10594574839859469
1. 0.6666666666666663 0.9428090415820628
2.632993161855452 -0.48316324759439344 1.0487547899806569
0.9999999999999998 -1.1498299142610597 0.10594574839859333
1. 0.4831632475943921 -1.0487547899806586
2.6329931618554525 -0.6666666666666673 -0.942809041582064
5.054988603092421 3.288435326918382 4.650549838314775
3.421995441236969 2.8052720793239896 5.699304628295433
3.4219954412369695 4.438265241179441 4.544604089916181
3.42199544123697 4.621768660251716 6.536167921478902
5.054988603092422 3.471938745990656 6.642113669877496
5.054988603092422 5.104931907846107 5.487413131498244
-2.6329931618554525 1.1498299142610586 -0.10594574839859469
-1. 0.6666666666666662 0.9428090415820628
-2.632993161855452 -0.48316324759439366 1.0487547899806569
-1. -1.1498299142610597 0.10594574839859333
-1. 0.483163247594392 -1.0487547899806586
-2.6329931618554525 -0.6666666666666675 -0.9428090415820642
5.499433047536866 1.0478835703320188 4.310358281697671
3.8664398856814133 0.5647203227376264 5.359113071678329
4.410770939633231 -0.5463907883734853 3.787764669041557
4.592214624283837 -1.2775887936233985 5.640445879185104
5.680876732187472 0.3166855650821055 6.163039491841218
6.22520778613929 -0.7944255460290062 4.5916910892044465
-1.4219954412369706 -2.1997732190147463 7.164707282533611
0.210997720618482 -1.7166099714203538 6.115952492552954
-1.42199544123697 -2.38327663808702 5.173143450970889
0.21099772061848132 -3.5331065523480802 5.2790891993694835
0.21099772061848066 -3.3496031332758065 7.2706530309322055
-1.4219954412369709 -4.016269799942473 6.327843989350141
5.499433047536866 3.714550236998684 2.424740198533544
3.866439885681414 4.864380151259742 2.3187944501349502
4.41077093963323 3.7532690401486315 0.7474460474981774
4.592214624283837 5.743726304657804 0.6756263603429722
5.680876732187472 5.705007501507857 2.352920511378339
6.225207786139289 4.593896390396746 0.7815721087415664
-1.4219954412369664 7.488208545933126 0.3142696805273534
0.2109977206184862 6.338378631672066 0.4202154289259479
-1.4219954412369655 5.671711965005398 -0.5225936126561154
0.21099772061848632 6.1548752125997925 -1.5713484026367728
0.21099772061848554 7.971371793527519 -0.734485109453304
-1.4219954412369664 7.304705126860851 -1.6772941510353674
6.265986323710905 0.666666666666667 0.9428090415820627
4.6329931618554525 -0.4831632475943921 1.0487547899806569
4.6329931618554525 1.14982991426106 -0.10594574839859466
4.632993161855452 -0.6666666666666663 -0.9428090415820644
6.265986323710905 -1.149829914261059 0.10594574839859314
6.265986323710905 0.4831632475943928 -1.0487547899806584
2.755328774570299 -4.2772108253146435 1.3983397199742091
3.299659828522117 -2.3608276348795445 1.2217634726432192
1.6666666666666643 -3.027494301546211 0.2789544310611556
3.2996598285221164 -2.5443310539518187 -0.7698003589195017
4.388321936425751 -3.7940475777202516 0.3495849299935516
2.755328774570299 -4.460714244386917 -0.593224111588512
-6.265986323710905 0.6666666666666665 0.9428090415820626
-4.6329931618554525 -0.48316324759439255 1.0487547899806566
-4.6329931618554525 1.1498299142610595 -0.10594574839859477
-4.632993161855452 -0.6666666666666667 -0.9428090415820645
-6.265986323710905 -1.1498299142610595 0.10594574839859303
-6.265986323710905 0.48316324759439233 -1.0487547899806586
-2.7553287745702986 -4.277210825314643 1.398339719974209
-3.2996598285221177 -2.360827634879545 1.2217634726432192
-1.666666666666665 -3.0274943015462097 0.2789544310611554
-3.2996598285221177 -2.5443310539518187 -0.7698003589195022
-4.3883219364257515 -3.7940475777202525 0.3495849299935517
-2.7553287745702986 -4.460714244386917 -0.593224111588512
2.7553287745703017 2.744104272966563 -3.5664797988679213
3.2996598285221195 1.9388321936425745 -1.818555148900159
1.6666666666666672 1.2721655269759078 -2.761364190482222
3.2996598285221195 0.12233561271484872 -2.6554184420836284
4.388321936425754 1.5942743587055035 -3.4605340504693283
2.7553287745703012 0.9276076920388365 -4.403343092051391
-2.7553287745703017 2.7441042729665632 -3.5664797988679213
-3.299659828522119 1.9388321936425745 -1.8185551489001588
-1.666666666666667 1.2721655269759082 -2.7613641904822224
-3.299659828522119 0.12233561271484872 -2.6554184420836284
-4.388321936425754 1.5942743587055033 -3.460534050469328
-2.7553287745703017 0.9276076920388369 -4.403343092051391
9.89897948556636 1.1498299142610582 -0.10594574839859541
8.265986323710907 0.666666666666666 0.9428090415820625
9.89897948556636 -0.4831632475943937 1.0487547899806564
8.265986323710907 -1.14982991426106 0.10594574839859283
8.265986323710907 0.483163247594392 -1.0487547899806586
9.898979485566358 -0.666666666666668 -0.9428090415820649
1.966326495188785 -1.7553287745703021 -2.482409759421066
0.3333333333333328 -2.238492022164694 -1.433654969440409
0.3333333333333331 -0.6054988603092424 -2.58835550781966
-0.7553287745703022 -2.1997732190147463 -3.1109491204757753
0.87766438728515 -3.3496031332758056 -3.005003372077182
0.8776643872851502 -1.7166099714203538 -4.159703910456432
-9.89897948556636 1.1498299142610582 -0.10594574839859541
-8.265986323710907 0.6666666666666657 0.9428090415820622
-9.89897948556636 -0.48316324759439383 1.0487547899806564
-8.265986323710907 -1.1498299142610602 0.10594574839859283
-8.265986323710907 0.4831632475943918 -1.0487547899806589
-9.898979485566358 -0.6666666666666681 -0.9428090415820649
5.054988603092418 -5.6717119650054 0.5225936126561137
3.421995441236966 -6.154875212599793 1.571348402636771
5.0549886030924185 -7.304705126860853 1.677294151035365
3.421995441236966 -7.97137179352752 0.7344851094533011
3.4219954412369655 -6.338378631672067 -0.42021542892594976
5.0549886030924185 -7.4882085459331265 -0.31426968052735615
5.05498860309242 2.38327663808702 -5.173143450970892
3.4219954412369677 3.5331065523480785 -5.279089199369485
5.05498860309242 4.016269799942473 -6.327843989350143
3.4219954412369664 3.349603133275805 -7.2706530309322055
3.4219954412369677 1.7166099714203529 -6.115952492552955
5.054988603092419 2.1997732190147463 -7.164707282533613
6.932652990377571 -0.6054988603092417 -2.588355507819661
5.299659828522119 -1.755328774570301 -2.4824097594210666
6.932652990377571 -2.238492022164694 -1.4336549694404095
6.388321936425752 -3.3496031332758056 -3.0050033720771814
6.388321936425752 -1.716609971420353 -4.159703910456433
8.021315098281207 -2.1997732190147463 -3.1109491204757758
-1.4219954412369695 -3.4719387459906543 -6.642113669877498
-1.4219954412369686 -3.28843532691838 -4.650549838314777
-1.4219954412369697 -5.104931907846106 -5.487413131498246
0.21099772061848243 -4.43826524117944 -4.5446040899161835
0.2109977206184831 -2.805272079323988 -5.699304628295435
0.2109977206184822 -4.621768660251714 -6.536167921478905
0.11111111111111138 2.4811035131727253 3.5088102379803994
1.1997732190147463 2.442384710022777 5.1861043890157665
1.1997732190147465 4.075377871878229 4.031403850636514
0.5555555555555565 0.24055175658636313 3.168618681363294
1.6442176634591914 0.20183295343641483 4.84591283239866
2.1885487174110083 -0.9092781576746967 3.274564429761889
-0.23344672382596204 0.42405517565863526 5.372074009723203
-0.7777777777777789 1.2293272549826237 3.62414935975544
-1.8664398856814137 -0.2426114910080313 4.42926496814114
0.5555555555555565 2.9072184232530276 1.2830005981991675
1.6442176634591914 4.5014927819585315 1.8055942108552818
2.1885487174110083 3.39038167084742 0.2342458082185097
-0.23344672382595816 4.923488223195502 2.190494390315033
-0.777777777777777 3.007105032760404 2.367070637646023
-1.8664398856814104 4.256821556528836 1.2476853487329689
-3.4219954412369695 2.8052720793239905 5.699304628295433
-3.421995441236969 4.438265241179442 4.544604089916181
-5.054988603092422 3.2884353269183824 4.650549838314776
-1.9663264951887844 -1.2721655269759096 2.7613641904822215
-0.33333333333333226 -0.1223356127148495 2.655418442083627
-0.33333333333333215 -1.9388321936425754 1.8185551489001575
2.433219942840704 -1.4536092116265158 5.545082692385766
3.5218820507443382 -1.7981670465635873 3.9031037908165986
2.4332199428407035 -3.270105792554242 4.708219399202298
-3.866439885681413 0.5647203227376261 5.359113071678329
-4.410770939633229 -0.5463907883734853 3.787764669041556
-5.499433047536865 1.0478835703320186 4.31035828169767
-1.9663264951887867 3.0274943015462092 -0.27895443106115714
-0.33333333333333426 2.544331053951818 0.7698003589195004
-0.33333333333333426 2.360827634879543 -1.2217634726432207
4.088662107903636 0.9276076920388385 5.872313310957995
5.721655269759087 1.410770939633231 4.823558520977336
5.721655269759088 1.5942743587055053 6.815122352540057
2.4332199428407084 5.712490502577017 0.47788498981346894
3.5218820507443427 4.27927055973631 -0.39429355283619827
2.433219942840709 5.5289870835047426 -1.5136788417492522
-3.8664398856814124 4.864380151259745 2.3187944501349493
-4.410770939633229 3.753269040148634 0.747446047498177
-5.499433047536865 3.714550236998686 2.4247401985335433
4.855215384077675 -0.12027587829318165 1.5619550292603235
4.855215384077674 1.5127172835622702 0.4072544908810718
5.9438774919813095 1.473998480412322 2.084548641916438
2.755328774570303 2.0162697999424735 7.411914028796998
2.755328774570304 3.8327663808701993 8.248777321980468
4.388321936425755 2.6829364666091404 8.35472307037906
4.088662107903637 5.227267520560956 2.831994689414617
5.721655269759088 4.077437606299897 2.9379404378132117
5.72165526975909 5.8939341872276225 3.7748037309966804
3.0774376062998945 -2.6238283946733825 1.792633272810407
1.4444444444444426 -3.2904950613400494 0.8498242312283428
1.9887754983962596 -4.095767140664037 2.5977488811961056
-4.855215384077675 -0.12027587829318165 1.5619550292603246
-4.855215384077676 1.5127172835622698 0.407254490881072
-5.94387749198131 1.4739984804123225 2.084548641916439
3.0516250708665997 0.5225686288848989 7.1851196577189285
3.7773998094690233 -1.3197404874761258 7.4664524652257045
4.866061917372658 0.2745338712293781 7.989046077881818
2.755328774570304 6.315929628464592 4.371595407253619
2.7553287745703043 6.499433047536867 6.3631592388163405
4.388321936425756 6.982596295131259 5.314404448835682
6.932652990377573 -0.12233561271484938 2.6554184420836275
5.29965982852212 -1.2721655269759085 2.7613641904822215
6.932652990377572 -1.9388321936425759 1.8185551489001572
-1.8664398856814137 -3.208937986196816 3.0626729329646984
-0.7777777777777788 -3.553495821133887 1.4206940313955305
-0.23344672382596274 -4.358767900457876 3.168618681363293
3.077437606299897 2.564720322737624 -1.8762247097876799
1.4444444444444449 1.898053656070958 -2.819033751369743
1.9887754983962638 3.814436846506057 -2.9956099987007336
3.051625070866599 6.600006235184791 2.8877223140661314
3.777399809469022 7.4793523885828535 1.2445542242741534
4.866061917372657 7.440633585432906 2.92184837530952
3.8664398856814093 -4.4403249756011105 3.053279559588253
4.4107709396332275 -2.5239417851660115 2.8767033122572636
5.499433047536862 -3.9571617280067186 2.004524769607596
-6.932652990377573 -0.12233561271484983 2.6554184420836275
-5.29965982852212 -1.272165526975909 2.761364190482222
-6.932652990377572 -1.9388321936425759 1.8185551489001575
6.932652990377573 2.5443310539518187 0.7698003589194997
5.2996598285221195 3.027494301546211 -0.2789544310611575
6.932652990377572 2.360827634879544 -1.2217634726432214
-1.8664398856814102 3.957161728006717 -2.0045247696075976
-0.777777777777777 2.5239417851660098 -2.876703312257265
-0.2334467238259581 4.440324975601109 -3.0532795595882547
7.054988603092421 3.288435326918382 4.650549838314774
7.054988603092421 3.4719387459906557 6.642113669877495
7.054988603092422 5.104931907846108 5.4874131314982435
3.9663264951887856 -2.360827634879543 1.221763472643219
3.966326495188785 -2.5443310539518174 -0.7698003589195019
5.599319657044238 -3.02749430154621 0.27895443106115525
-3.8664398856814106 -4.4403249756011105 3.053279559588254
-4.410770939633229 -2.523941785166012 2.8767033122572636
-5.499433047536863 -3.9571617280067195 2.0045247696075963
3.8664398856814133 4.358767900457875 -3.168618681363296
4.410770939633231 3.5534958211338874 -1.420694031395533
5.499433047536865 3.2089379861968164 -3.062672932964702
7.351284899388719 1.7947341558608056 4.423755467236705
7.532728584039324 1.0635361506108927 6.276436677380253
8.077059637991143 -0.04757496050021903 4.705088274743481
-6.932652990377573 2.544331053951818 0.7698003589194997
-5.2996598285221195 3.0274943015462106 -0.2789544310611576
-6.932652990377572 2.360827634879543 -1.2217634726432214
4.088662107903637 5.71043076815535 8.075768639317904
5.721655269759088 4.5606008538942895 8.181714387716498
5.721655269759089 6.193594015749742 7.027013849337246
-3.966326495188784 -2.360827634879544 1.221763472643219
-3.9663264951887838 -2.5443310539518174 -0.769800358919502
-5.599319657044236 -3.02749430154621 0.2789544310611552
3.9663264951887856 1.9388321936425759 -1.8185551489001595
3.9663264951887847 0.12233561271485016 -2.6554184420836293
5.599319657044237 1.272165526975909 -2.7613641904822233
-3.866439885681413 4.358767900457875 -3.1686186813632955
-4.41077093963323 3.5534958211338874 -1.4206940313955332
-5.499433047536865 3.2089379861968155 -3.0626729329647016
7.35128489938872 3.5725119336385833 3.166676745127288
7.532728584039326 5.562969198147757 3.0948570579720824
8.077059637991143 4.451858087036646 1.5235086553353105
-0.33333333333333315 -2.238492022164694 -1.4336549694404088
-0.33333333333333337 -0.6054988603092423 -2.58835550781966
-1.966326495188785 -1.7553287745703021 -2.482409759421066
-2.088662107903639 -2.9887754983962633 8.877316683035174
-0.4556689460481874 -4.1386054126573235 8.983262431433769
-2.0886621079036396 -4.80527207932399 8.040453389851704
0.1111111111111085 -4.27927055973631 0.3942935528361965
1.1997732190147428 -5.528987083504743 1.51367884174925
1.199773219014743 -5.712490502577017 -0.4778849898134709
5.70332573539495 -2.4294784423061255 6.839855040407002
6.7919878432985845 -0.8352040836006214 7.362448653063116
7.336318897250401 -1.9463151947117332 5.791100250426345
-3.9663264951887856 1.9388321936425759 -1.8185551489001592
-3.9663264951887847 0.12233561271485016 -2.655418442083629
-5.599319657044238 1.272165526975909 -2.7613641904822233
0.5555555555555538 -2.8643801512597435 -1.3759854085528884
2.1885487174110065 -2.381216903665352 -2.424740198533545
1.6442176634591883 -4.297600094100451 -2.2481639512025557
-2.0886621079036356 9.365872933218277 0.1412609978647903
-0.45566894604818353 9.84903618081267 -0.9074937921158672
-2.088662107903635 9.182369514146002 -1.8503028336979304
0.8776643872851475 -5.410770939633231 5.452097882032047
0.8776643872851465 -5.2272675205609564 7.443661713594768
-0.7553287745703056 -5.893934187227623 6.5008526720127024
0.11111111111111005 1.7981670465635866 -3.9031037908165973
1.1997732190147452 3.2701057925542414 -4.708219399202296
1.199773219014744 1.453609211626515 -5.545082692385767
5.703325735394948 7.258503322641745 -0.010582561599257967
6.791987843298583 7.219784519491796 1.666711589436109
7.3363188972504005 6.108673408380685 0.09536318679933642
-1.8664398856814133 -3.714550236998686 -2.4247401985335446
-0.7777777777777783 -3.753269040148634 -0.7474460474981786
-0.23344672382596143 -4.864380151259745 -2.318794450134951
0.5555555555555549 -0.34249810051540425 -3.1592253079868478
2.188548717411007 -1.4923280147764637 -3.0532795595882547
1.6442176634591892 -0.6870559354524757 -4.801204209556017
0.8776643872851527 6.9438774919813095 -3.283957803138337
0.877664387285152 8.760374072909036 -2.4470945099548675
-0.7553287745702998 8.093707406242368 -3.3899035515369316
11.89897948556636 -0.48316324759439433 1.0487547899806562
11.89897948556636 1.1498299142610575 -0.10594574839859598
11.89897948556636 -0.6666666666666684 -0.9428090415820656
-1.8664398856814128 -1.0478835703320173 -4.310358281697672
-0.7777777777777773 0.5463907883734858 -3.787764669041557
-0.23344672382596038 -0.5647203227376252 -5.35911307167833
-3.4219954412369633 -6.154875212599796 1.5713484026367714
-5.054988603092417 -5.6717119650054055 0.5225936126561139
-3.421995441236963 -6.33837863167207 -0.42021542892594965
10.565646152233024 -2.360827634879545 1.2217634726432183
8.93265299037757 -3.02749430154621 0.278954431061155
10.565646152233022 -2.5443310539518187 -0.7698003589195028
4.410770939633227 -3.0071050327604034 -2.367070637646025
5.499433047536861 -4.256821556528836 -1.2476853487329715
3.866439885681409 -4.923488223195502 -2.1904943903150347
-5.299659828522117 -1.7553287745703017 -2.482409759421067
-6.932652990377569 -2.238492022164695 -1.433654969440409
-6.93265299037757 -0.6054988603092426 -2.588355507819661
4.088662107903634 -9.84903618081267 0.9074937921158635
5.7216552697590854 -9.182369514146002 1.8503028336979273
5.7216552697590854 -9.365872933218276 -0.14126099786479407
-3.421995441236968 3.533106552348079 -5.279089199369486
-5.05498860309242 2.38327663808702 -5.173143450970892
-3.4219954412369677 1.716609971420353 -6.115952492552956
10.565646152233027 1.938832193642574 -1.8185551489001601
8.932652990377573 1.272165526975908 -2.7613641904822233
10.565646152233025 0.12233561271484772 -2.6554184420836298
4.41077093963323 -1.2293272549826244 -3.6241493597554424
5.499433047536864 0.24261149100803067 -4.429264968141142
3.866439885681412 -0.4240551756586365 -5.372074009723205
-4.4107709396332275 -3.0071050327604043 -2.3670706376460258
-5.499433047536861 -4.256821556528838 -1.2476853487329724
-3.866439885681408 -4.923488223195503 -2.1904943903150356
4.088662107903634 4.138605412657323 -8.98326243143377
5.721655269759086 4.80527207932399 -8.040453389851708
5.721655269759086 2.9887754983962633 -8.877316683035177
3.521882050744341 -2.4811035131727253 -3.5088102379804016
2.4332199428407053 -4.075377871878229 -4.031403850636517
2.4332199428407058 -2.4423847100227767 -5.186104389015768
7.599319657044239 -2.2384920221646953 -1.433654969440409
7.599319657044239 -0.6054988603092438 -2.588355507819662
9.232312818899691 -1.7553287745703035 -2.482409759421067
-4.41077093963323 -1.2293272549826246 -3.6241493597554424
-5.499433047536865 0.24261149100802956 -4.429264968141141
-3.8664398856814124 -0.4240551756586366 -5.372074009723205
7.499433047536865 -4.864380151259746 -2.318794450134951
8.043764101488684 -3.7532690401486337 -0.747446047498179
9.132426209392317 -3.7145502369986856 -2.424740198533546
-2.088662107903637 -6.193594015749742 -7.027013849337249
-2.0886621079036365 -4.56060085389429 -8.1817143877165
-0.45566894604818464 -5.71043076815535 -8.075768639317907
2.7553287745703003 -9.060033901431153 -0.8051156083857021
2.7553287745703 -7.4270407395757 -1.9598161467649524
4.388321936425752 -8.576870653836759 -1.8538703983663591
7.499433047536865 -0.5647203227376255 -5.359113071678331
8.043764101488684 0.5463907883734858 -3.7877646690415574
9.132426209392317 -1.047883570332019 -4.310358281697673
2.7553287745703003 2.2609410253721713 -8.810253748771208
2.755328774570301 0.6279478635167186 -7.655553210391957
4.388321936425753 1.1111111111111123 -8.704308000372615
7.054988603092419 -4.43826524117944 -4.544604089916184
7.054988603092419 -2.805272079323988 -5.699304628295436
8.687981764947873 -3.288435326918381 -4.650549838314778
-1.471731579019166e-16 -0.058078204724922644 2.515941226553049
1.0000000000000004 1.6666666666666665 2.6748598491509403
-0.9999999999999998 1.6666666666666665 2.6748598491509408
1.2522662596428245e-16 -0.2415816237971966 4.50750505811577
1.0000000000000004 1.4831632475943926 4.666423680713661
-0.9999999999999996 1.4831632475943926 4.666423680713662
2.57037091788861e-16 2.3914115380582546 1.1017276641799532
3.982747462132321e-16 4.207908118985981 1.9385909573634224
1.0000000000000004 3.4831632475943923 3.5117231423344086
-0.9999999999999997 3.4831632475943923 3.5117231423344086
0.5168367524056074 0.1529195158935618 2.814337064681519
2.1498299142610593 -0.9969103983674975 2.9202828130801137
3.066213104696159 2.8572751184993432 5.77284803158184
3.0662131046961596 4.490268280354795 4.618147493202588
-0.5168367524056074 0.15291951589356223 2.814337064681519
-2.14982991426106 -0.9969103983674974 2.9202828130801133
0.5168367524056083 2.6024092586767393 1.0822862571126404
2.149829914261061 3.0855725062711317 0.03353146713198285
3.560600853894291 0.3649471037228799 5.3944283211445265
4.104931907846108 -0.7461640073882312 3.8230799185077537
-0.5168367524056077 2.6024092586767393 1.0822862571126401
-2.14982991426106 3.085572506271132 0.033531467131982295
0.04994330475368425 -1.390381670847423 6.164228680064028
-1.5830498571017673 -2.0570483375140896 5.221419638481963
3.905158688831361 0.8695294873139161 5.559827412764855
5.5381518506868135 1.3526927349083087 4.511072622784196
3.5606008538942913 4.964266760767116 2.1422182028039587
4.104931907846107 3.853155649656005 0.5708698001671867
-2.6013427592241256e-16 -1.8745747856526485 1.6790779333695798
-3.9051586888313627 0.8695294873139168 5.559827412764856
-5.538151850686814 1.3526927349083089 4.511072622784198
0.04994330475369013 6.275151090892976 0.7438784828297488
-1.5830498571017622 5.608484424226309 -0.19893055875231502
3.9051586888313623 4.952012391952545 2.6730760668167246
5.5381518506868135 3.8021824776914857 2.7790218152153194
4.599319657044239 -0.27216552697590934 1.3471506281091268
4.599319657044239 1.3608276348795423 0.19245008972987465
-8.656340341487477e-17 2.3914115380582546 0.7838904189841718
-1.1152740063770908e-16 2.207908118985981 -1.2076734125785495
0.5667800571592914 -1.7542989073594684 6.197760147196012
0.566780057159291 -3.570795488287194 5.360896854012542
-3.905158688831362 4.952012391952545 2.673076066816725
-5.538151850686814 3.8021824776914865 2.7790218152153194
3.116156409449843 -2.360827634879544 1.539600717839002
1.483163247594391 -3.02749430154621 0.5967916762569377
4.9438774919813095 -0.2844198957904821 1.8780084921218934
6.032539599884945 1.309854462915022 2.4006021047780073
-4.599319657044238 -0.2721655269759087 1.3471506281091268
-4.599319657044238 1.360827634879543 0.19245008972987443
-0.9999999999999994 0.1835034190722738 6.18658299148535
9.292496882149958e-16 1.9082482904638627 6.345501614083242
1.0000000000000007 0.1835034190722738 6.186582991485349
-0.9999999999999983 -4.440892098500626e-16 8.178146823048072
1.9524449186973723e-15 1.7247448713915885 8.337065445645964
1.0000000000000016 -6.661338147750939e-16 8.17814682304807
0.5667800571592961 6.428070606786536 0.411951177569296
0.5667800571592965 6.244567187714261 -1.5796126539934248
3.4219954412369677 -2.127380911053584 1.8697442407652425
4.088662107903635 -1.038718803149949 3.409344958604245
3.077437606299896 -3.662547197823331 3.1044686514533373
1.8052720793239874 -2.532076685137245 4.155007223768209
3.744104272966563 -2.573885089919697 4.64406936929234
-3.116156409449843 -2.360827634879546 1.5396007178390019
-1.4831632475943914 -3.027494301546211 0.5967916762569376
3.1161564094498453 2.2384920221646927 -1.7126094005015655
1.4831632475943928 1.5718253554980266 -2.6554184420836284
-4.943877491981308 -0.28441989579048166 1.878008492121892
-6.032539599884943 1.3098544629150224 2.4006021047780064
4.9438774919813095 1.8654100184705777 0.3578491813502027
6.032539599884944 1.8266912153206292 2.0351433323855694
-1.0000000000000002 5.449489742783177 3.146264369941972
-2.8114412143982233e-16 4.724744871391589 4.719396554912958
0.9999999999999998 5.449489742783178 3.1462643699419726
-1.000000000000001 7.265986323710904 3.983127663125441
-1.2449008138052808e-15 6.541241452319316 5.556259848096428
0.9999999999999989 7.265986323710905 3.9831276631254413
3.632993161855453 -2.2079081189859817 1.207673412578548
3.632993161855453 -2.3914115380582555 -0.7838904189841733
-1.9051586888313625 -3.230357122193459 3.42700258333734
-0.2721655269759112 -4.380187036454519 3.532948331735935
3.4219954412369695 2.471938745990653 -1.3824658775753265
4.0886621079036365 3.560600853894288 0.1571348402636762
3.0774376062998994 4.14777017983939 -2.418259729511109
1.8052720793239903 4.761403940119869 -1.0022623848038004
3.7441042729665663 5.236432287743025 -0.8786590116721065
-3.1161564094498457 2.2384920221646922 -1.712609400501565
-1.4831632475943934 1.5718253554980264 -2.6554184420836284
7.021315098281205 2.9245180904063357 4.6840813054467585
7.021315098281206 3.10802150947861 6.675645137009479
-4.9438774919813095 1.865410018470578 0.3578491813502025
-6.032539599884944 1.82669121532063 2.0351433323855694
4.571825355498026 -0.5249716523768433 1.5378169355047884
5.054988603092419 -3.2772108253146435 1.9756899891638362
5.721655269759086 -2.1885487174110074 3.5152907070028387
6.204818517353479 -1.674801566637903 1.6437626839033823
-3.632993161855453 -2.2079081189859826 1.207673412578548
-3.632993161855453 -2.3914115380582563 -0.7838904189841734
3.632993161855451 1.8745747856526482 -1.6790779333695816
3.632993161855452 0.058078204724922144 -2.5159412265530507
-1.9051586888313583 4.307794728493356 -1.903275707897227
-0.2721655269759062 4.790957976087748 -2.9520304978778844
7.021315098281207 3.4413548428119416 4.318622533054323
7.0213150982812085 5.257851423739668 5.155485826237792
-2.1745922605895687e-16 -2.1498299142610597 -1.3082678139745019
-1.2946210526129514e-16 -0.516836752405608 -2.4629683523537533
3.905158688831365 5.468849144358154 8.282308789112452
5.538151850686816 4.319019230097094 8.388254537511045
-1.0000000000000004 -3.116156409449845 0.47140452079103135
0.9999999999999997 -3.116156409449845 0.4714045207910311
-1.0000000000000002 -4.510657549140602 1.9050594902314393
-1.8291194951646938e-16 -3.2690759253434054 3.112732902809988
0.9999999999999997 -4.510657549140602 1.905059490231439
-3.4219954412369677 -2.1273809110535833 1.8697442407652427
-4.088662107903634 -1.0387188031499472 3.4093449586042452
-4.571825355498027 -0.5249716523768437 1.5378169355047886
-5.054988603092419 -3.2772108253146426 1.9756899891638375
-5.721655269759086 -2.188548717411007 3.5152907070028396
-6.20481851735348 -1.6748015666379032 1.6437626839033834
4.571825355498029 1.624858261884215 0.017657624733098287
5.054988603092422 2.9551019935850458 -2.4312206675559844
5.721655269759088 4.043764101488682 -0.8916199497169813
6.204818517353481 2.1080215094786077 -1.0310971652475593
-3.632993161855451 1.8745747856526478 -1.6790779333695816
-3.632993161855452 0.05807820472492192 -2.5159412265530507
8.232312818899691 0.5137471507731046 1.2747363468425155
8.232312818899691 -1.3027494301546216 0.4378730536590454
0.5168367524056057 -2.513747150773104 -1.274736346842518
2.1498299142610584 -2.0305839031787127 -2.323491136823175
3.9051586888313645 5.98568589676376 7.916850016720013
5.538151850686816 6.468849144358153 6.868095226739356
-1.8475161615286085e-16 -6.063123503063656 2.6730760668167273
1. -4.821541879266459 3.8807494793952757
-1.0000000000000002 -4.821541879266459 3.8807494793952753
-6.456487035370634e-16 -7.457624642754413 4.106731036257137
0.9999999999999996 -6.216043018957217 5.314404448835685
-1.0000000000000007 -6.216043018957216 5.314404448835684
-0.9999999999999997 1.4831632475943923 -2.780805597549536
1.0000000000000002 1.4831632475943928 -2.780805597549536
-0.9999999999999999 3.2996598285221186 -3.6176688907330057
-3.3004150304610135e-16 4.024404699913708 -2.0445367057620194
1. 3.299659828522119 -3.6176688907330057
-3.4219954412369673 2.4719387459906534 -1.382465877575327
-4.088662107903635 3.5606008538942895 0.1571348402636753
-4.571825355498027 1.624858261884216 0.017657624733097732
-5.054988603092419 2.9551019935850453 -2.4312206675559858
-5.721655269759087 4.043764101488681 -0.8916199497169834
-6.20481851735348 2.1080215094786077 -1.0310971652475611
8.232312818899691 1.030583903178713 0.9092775744500778
8.232312818899691 0.8470804841064384 -1.0822862571126433
-0.5168367524056057 -2.513747150773104 -1.2747363468425181
-2.149829914261059 -2.030583903178713 -2.323491136823175
-8.232312818899693 0.5137471507731043 1.2747363468425152
-8.232312818899691 -1.3027494301546216 0.4378730536590454
0.5168367524056072 -0.3639172365120465 -2.794895657614206
2.1498299142610597 -1.513747150773106 -2.6889499092156126
3.5830498571017637 -6.03356946709578 1.8780084921218918
5.216043018957216 -5.5504062195013875 0.8292537021412348
-7.088870227211356e-18 4.541241452319315 -4.825342303311555
0.9999999999999998 5.265986323710904 -3.2522101183405674
-1.0000000000000004 5.265986323710904 -3.2522101183405674
-2.2637490360426847e-16 6.357738033247041 -5.662205596495023
0.9999999999999996 7.082482904638631 -4.089073411524036
-1.0000000000000004 7.08248290463863 -4.089073411524037
6.054988603092422 4.471938745990656 8.056327232250592
6.054988603092423 6.104931907846108 6.90162669387134
-3.06216303978684e-16 -2.3914115380582563 -1.1017276641799554
-3.7772158578037933e-16 -4.207908118985983 -1.9385909573634248
0.9999999999999996 -4.932652990377571 -0.3654587723924386
-1.0000000000000004 -4.932652990377571 -0.36545877239243874
-8.232312818899691 1.0305839031787127 0.9092775744500778
-8.232312818899691 0.8470804841064381 -1.0822862571126433
-0.516836752405607 -0.3639172365120459 -2.794895657614206
-2.1498299142610593 -1.513747150773106 -2.6889499092156126
-3.583049857101761 -6.03356946709578 1.8780084921218931
-5.2160430189572144 -5.550406219501388 0.8292537021412352
7.060411869739913 -0.5966427029589698 7.286745093435896
7.60474292369173 -1.7077538140700812 5.715396690799124
3.5830498571017664 3.7817932089056763 -5.062501015884075
5.216043018957219 2.631963294644618 -4.956555267485481
5.116156409449845 -2.0305839031787127 -2.323491136823175
6.749149571305297 -2.513747150773105 -1.2747363468425181
2.638343476563236e-16 -0.24158162379719672 -2.6218869749516442
-2.0777035605914472e-16 -0.42508504286947046 -4.613450806514366
0.9999999999999998 1.2996598285221188 -4.772369429112257
-1.0000000000000002 1.2996598285221186 -4.772369429112256
3.0662131046961556 -6.244567187714264 1.5796126539934225
3.0662131046961556 -6.4280706067865365 -0.41195117756929855
0.6941609682128727 -5.227267520560957 7.76149895879055
-0.9388321936425799 -5.893934187227624 6.818689917208485
-3.583049857101766 3.7817932089056763 -5.062501015884074
-5.216043018957218 2.631963294644617 -4.95655526748548
7.060411869739912 7.068890058781426 1.866394896201619
7.60474292369173 5.957778947670314 0.2950464935648467
5.116156409449844 -1.5137471507731048 -2.6889499092156135
6.7491495713052965 -0.36391723651204566 -2.7948956576142074
-5.116156409449846 -2.0305839031787123 -2.323491136823176
-6.749149571305297 -2.513747150773105 -1.2747363468425181
10.89897948556636 -2.207908118985983 1.207673412578547
10.89897948556636 -2.3914115380582572 -0.7838904189841742
3.066213104696158 3.5707954882871933 -5.360896854012543
3.066213104696157 1.7542989073594675 -6.197760147196013
0.6941609682128764 9.060033901431156 -2.341148761556275
-0.9388321936425752 8.393367234764487 -3.283957803138338
4.6329931618554525 -1.9663264951887847 -2.462968352353754
2.6329931618554525 -1.9663264951887862 -2.462968352353754
4.632993161855454 -3.90515868883136 -2.9538142802120992
3.6329931618554543 -4.330243731700831 -1.2747363468425186
2.6329931618554543 -3.9051586888313614 -2.9538142802120992
7.265986323710904 -2.14982991426106 -1.308267813974502
7.265986323710905 -0.5168367524056079 -2.462968352353754
-5.116156409449845 -1.5137471507731044 -2.6889499092156144
-6.749149571305297 -0.3639172365120457 -2.794895657614208
10.89897948556636 1.874574785652647 -1.679077933369582
10.898979485566358 0.05807820472492076 -2.5159412265530516
3.632993161855452 -0.24158162379719594 -2.6218869749516456
4.632993161855453 -2.1498299142610584 -4.454532183916476
3.6329931618554525 -0.4250850428694699 -4.613450806514367
2.6329931618554534 -2.1498299142610593 -4.454532183916476
5.538151850686811 -4.583049857101767 -1.084070039446857
3.9051586888313583 -5.249716523768433 -2.0268790810289197
-1.5830498571017666 -3.493357881987299 -4.39216593634073
0.04994330475368525 -4.643187796248358 -4.286220187942136
-7.265986323710904 -2.14982991426106 -1.3082678139745028
-7.265986323710905 -0.5168367524056077 -2.462968352353754
6.932652990377568 -3.5106575491406034 1.3277092210418133
7.599319657044236 -2.4219954412369686 2.867309938880816
6.449489742783175 -4.024404699913708 3.19923724414127
8.56564615223302 -4.6604874634016635 1.4336549694404073
9.232312818899688 -3.5718253554980284 2.9732556872794094
8.082482904638628 -5.174234614174768 3.305182992539863
-1.5830498571017666 -2.9765211295816885 -4.757624708733167
0.04994330475368569 -2.493357881987296 -5.806379498713825
-5.538151850686812 -4.583049857101772 -1.0840700394468563
-3.9051586888313583 -5.249716523768436 -2.02687908102892
5.538151850686813 0.5056122508018691 -4.682297523112548
3.9051586888313605 -0.16105441586479796 -5.625106564694612
2.9388321936425736 -9.335289030039563 -0.6461969857878097
4.571825355498025 -8.852125782445171 -1.6949517757684673
6.932652990377575 2.4219954412369664 -2.867309938880817
7.599319657044242 3.510657549140602 -1.3277092210418147
6.449489742783182 4.35773803324704 -2.727832723350239
8.565646152233029 2.905158688831359 -3.9160647288614743
9.232312818899695 3.993820796734995 -2.3764640110224717
8.082482904638635 4.8409012808414325 -3.776587513330896
-5.538151850686813 0.5056122508018692 -4.682297523112549
-3.9051586888313596 -0.16105441586479774 -5.625106564694613
2.9388321936425754 2.5025226491693666 -9.016793898565753
4.571825355498028 1.352692734908308 -8.91084815016716
0.5667800571592929 -4.490268280354796 -4.61814749320259
0.5667800571592932 -2.8572751184993437 -5.772848031581842
-1.0000000000000007 -5.93265299037757 -2.097509579961316
-5.28419529370428e-16 -6.65739786176916 -0.5243773949903299
0.9999999999999997 -5.93265299037757 -2.097509579961316
-1.0000000000000004 -7.749149571305296 -2.9343728731447856
-5.396723161452035e-16 -8.473894442696885 -1.3612406881737993
0.9999999999999994 -7.7491495713052965 -2.9343728731447856
-1. -4.440892098500626e-16 -6.292528739883945
-1.5465361865895352e-16 1.7247448713915887 -6.4514473624818365
1. -2.220446049250313e-16 -6.292528739883945
-1.0000000000000004 -0.1835034190722743 -8.284092571446667
-6.119438375407358e-16 1.541241452319315 -8.443011194044558
0.9999999999999996 -0.18350341907227408 -8.284092571446667
5.782823076116512 3.6024092586767407 2.814337064681517
6.265986323710905 1.6666666666666674 2.674859849150939
6.932652990377571 2.7553287745703026 4.214460566989941
-5.782823076116514 3.6024092586767393 2.8143370646815162
-6.265986323710906 1.666666666666666 2.67485984915094
-6.932652990377574 2.7553287745703026 4.21446056698994
1.0000000000000024 0.9999999999999991 9.910197630616949
-0.9999999999999974 0.9999999999999991 9.91019763061695
2.2474254700671734e-15 -0.7247448713915896 9.751279008019058
0.9999999999999979 8.265986323710905 5.715178470694319
-1.0000000000000022 8.265986323710903 5.715178470694318
-2.221287115668666e-15 8.990731195102494 4.142046285723332
-3.632993161855452 -0.24158162379719683 -2.621886974951645
-2.6329931618554534 -1.9663264951887862 -2.4629683523537533
-4.632993161855453 -1.966326495188785 -2.462968352353754
-7.599319657044239 -2.4219954412369677 2.867309938880819
-6.449489742783179 -4.024404699913707 3.1992372441412726
-6.932652990377572 -3.5106575491406034 1.3277092210418162
-7.59931965704424 3.510657549140602 -1.327709221041817
-6.44948974278318 4.357738033247039 -2.7278327233502417
-6.932652990377572 2.421995441236966 -2.867309938880819
0.9999999999999994 -9.715476066494084 -2.568914100752348
-1.0000000000000004 -9.715476066494084 -2.568914100752348
-4.0436580704075305e-16 -8.990731195102494 -4.142046285723334
3 0 1 2
3 3 1 2
3 4 1 0
3 4 1 3
3 5 2 0
3 5 2 3
3 5 0 4
3 5 3 4
3 6 7 8
3 9 7 8
3 10 7 6
3 11 8 6
3 10 7 9
3 11 8 9
3 11 6 10
3 11 9 10
3 12 13 14
3 15 13 14
3 16 13 12
3 16 13 15
3 17 14 12
3 17 14 15
3 17 12 16
3 17 15 16
3 18 19 20
3 21 19 20
3 22 19 18
3 22 19 21
3 23 20 18
3 23 20 21
3 23 18 22
3 23 21 22
3 24 25 26
3 27 25 26
3 28 25 24
3 28 25 27
3 29 26 24
3 29 26 27
3 29 24 28
3 29 27 28
3 30 31 32
3 33 31 32
3 34 31 30
3 34 31 33
3 35 32 30
3 35 32 33
3 35 30 34
3 35 33 34
3 36 37 38
3 39 37 38
3 40 37 36
3 40 37 39
3 41 38 36
3 41 38 39
3 41 36 40
3 41 39 40
3 42 43 44
3 45 43 44
3 46 43 42
3 46 43 45
3 47 44 42
3 47 44 45
3 47 42 46
3 47 45 46
3 48 49 50
3 51 49 50
3 52 49 48
3 52 49 51
3 53 50 48
3 53 50 51
3 53 48 52
3 53 51 52
3 54 55 56
3 57 55 56
3 58 55 54
3 58 55 57
3 59 56 54
3 59 56 57
3 59 54 58
3 59 57 58
3 60 61 62
3 63 61 62
3 64 61 60
3 64 61 63
3 65 62 60
3 65 62 63
3 65 60 64
3 65 63 64
3 66 67 68
3 69 67 68
3 70 67 66
3 71 68 66
3 70 67 69
3 71 68 69
3 71 66 70
3 71 69 70
3 72 73 74
3 75 73 74
3 76 73 72
3 76 73 75
3 77 74 72
3 77 74 75
3 77 72 76
3 77 75 76
3 78 79 80
3 81 79 80
3 82 79 78
3 83 80 78
3 82 79 81
3 83 80 81
3 83 78 82
3 83 81 82
3 84 85 86
3 87 85 86
3 88 85 84
3 88 85 87
3 89 86 84
3 89 86 87
3 89 84 88
3 89 87 88
3 90 91 92
3 93 91 92
3 94 91 90
3 94 91 93
3 95 92 90
3 95 92 93
3 95 90 94
3 95 93 94
3 96 97 98
3 99 97 98
3 100 97 96
3 100 97 99
3 101 98 96
3 101 98 99
3 101 96 100
3 101 99 100
3 102 103 104
3 105 103 104
3 106 103 102
3 106 103 105
3 107 104 102
3 107 104 105
3 107 102 106
3 107 105 106
3 108 109 110
3 111 109 110
3 112 109 108
3 112 109 111
3 113 110 108
3 113 110 111
3 113 108 112
3 113 111 112
3 114 115 116
3 117 115 116
3 118 115 114
3 118 115 117
3 119 116 114
3 119 116 117
3 119 114 118
3 119 117 118
3 120 121 122
3 123 121 122
3 124 121 120
3 124 121 123
3 125 122 120
3 125 122 123
3 125 120 124
3 125 123 124
3 126 127 128
3 129 127 128
3 130 127 126
3 130 127 129
3 131 128 126
3 131 128 129
3 131 126 130
3 131 129 130
3 132 133 134
3 135 133 134
3 136 133 132
3 136 133 135
3 137 134 132
3 137 134 135
3 137 132 136
3 137 135 136
3 138 139 140
3 141 139 140
3 142 139 138
3 142 139 141
3 143 140 138
3 143 140 141
3 143 138 142
3 143 141 142
4 2 1 144 145
4 0 1 144 146
4 0 2 145 146
3 0 1 2
3 146 144 145
4 147 1 2 148
4 3 1 147 149
4 3 2 148 149
3 3 1 2
3 149 147 148
4 150 151 13 14
4 152 151 13 15
4 152 150 14 15
3 152 151 150
3 15 13 14
4 153 1 0 154
4 4 1 153 155
4 4 0 154 155
3 4 1 0
3 155 153 154
4 156 157 19 20
4 158 157 19 21
4 158 156 20 21
3 158 157 156
3 21 19 20
4 25 1 3 26
4 4 1 25 24
4 26 3 4 24
3 4 1 3
3 24 25 26
4 31 2 0 32
4 5 2 31 30
4 5 0 32 30
3 5 2 0
3 30 31 32
4 12 13 25 26
4 16 13 25 27
4 16 12 26 27
3 16 13 12
3 27 25 26
4 159 8 6 160
4 11 8 159 161
4 11 6 160 161
3 11 8 6
3 161 159 160
4 37 7 9 38
4 10 7 37 36
4 38 9 10 36
3 10 7 9
3 36 37 38
4 43 2 3 44
4 5 2 43 42
4 44 3 5 42
3 5 2 3
3 42 43 44
4 162 163 37 38
4 164 163 37 39
4 164 162 38 39
3 164 163 162
3 39 37 38
4 18 19 25 24
4 22 19 25 28
4 22 18 24 28
3 22 19 18
3 28 25 24
4 165 14 12 166
4 17 14 165 167
4 17 12 166 167
3 17 14 12
3 167 165 166
4 168 8 9 169
4 11 8 168 170
4 169 9 11 170
3 11 8 9
3 170 168 169
4 55 0 4 56
4 55 0 5 54
4 56 4 5 54
3 5 0 4
3 54 55 56
4 171 172 37 36
4 173 172 37 40
4 173 171 36 40
3 173 172 171
3 40 37 36
4 49 14 15 50
4 17 14 49 51
4 17 15 50 51
3 17 14 15
3 51 49 50
4 30 31 174 175
4 34 31 174 176
4 34 30 175 176
3 34 31 30
3 176 174 175
4 177 20 18 178
4 23 20 177 179
4 23 18 178 179
3 23 20 18
3 179 177 178
4 180 6 10 181
4 180 6 11 182
4 181 10 11 182
3 11 6 10
3 182 180 181
4 183 3 4 184
4 183 3 5 185
4 184 4 5 185
3 5 3 4
3 185 183 184
4 27 25 37 39
4 28 25 37 40
4 28 27 39 40
3 28 25 27
3 40 37 39
4 33 31 186 187
4 34 31 186 188
4 34 33 187 188
3 34 31 33
3 188 186 187
4 61 20 21 62
4 23 20 61 63
4 23 21 62 63
3 23 20 21
3 63 61 62
4 30 32 189 190
4 35 32 189 191
4 35 30 190 191
3 35 32 30
3 191 189 190
4 67 26 24 68
4 29 26 67 69
4 29 24 68 69
3 29 26 24
3 69 67 68
4 192 12 16 193
4 192 12 17 194
4 193 16 17 194
3 17 12 16
3 194 192 193
4 195 9 10 196
4 195 9 11 197
4 196 10 11 197
3 11 9 10
3 197 195 196
4 45 43 198 199
4 46 43 198 200
4 46 45 199 200
3 46 43 45
3 200 198 199
4 33 32 201 202
4 35 32 201 203
4 35 33 202 203
3 35 32 33
3 203 201 202
4 73 26 27 74
4 29 26 73 75
4 29 27 74 75
3 29 26 27
3 75 73 74
4 204 205 67 66
4 206 205 67 70
4 206 204 66 70
3 206 205 204
3 70 67 66
4 79 38 36 80
4 41 38 79 81
4 41 36 80 81
3 41 38 36
3 81 79 80
4 207 15 16 208
4 207 15 17 209
4 208 16 17 209
3 17 15 16
3 209 207 208
4 210 18 22 211
4 210 18 23 212
4 211 22 23 212
3 23 18 22
3 212 210 211
4 57 55 213 214
4 58 55 213 215
4 58 57 214 215
3 58 55 57
3 215 213 214
4 216 217 73 72
4 218 217 73 76
4 218 216 72 76
3 218 217 216
3 76 73 72
4 85 38 39 86
4 41 38 85 87
4 41 39 86 87
3 41 38 39
3 87 85 86
4 91 24 28 92
4 29 24 91 93
4 92 28 29 93
3 29 24 28
3 93 91 92
4 219 220 79 78
4 221 220 79 82
4 221 219 78 82
3 221 220 219
3 82 79 78
4 222 223 68 66
4 224 223 68 71
4 224 222 66 71
3 224 223 222
3 71 68 66
4 225 21 22 226
4 225 21 23 227
4 226 22 23 227
3 23 21 22
3 227 225 226
4 228 30 34 229
4 228 30 35 230
4 229 34 35 230
3 35 30 34
3 230 228 229
4 69 67 231 232
4 70 67 231 233
4 70 69 232 233
3 70 67 69
3 233 231 232
4 234 235 85 84
4 236 235 85 88
4 236 234 84 88
3 236 235 234
3 88 85 84
4 237 238 91 90
4 239 238 91 94
4 239 237 90 94
3 239 238 237
3 94 91 90
4 97 36 40 98
4 41 36 97 99
4 98 40 41 99
3 41 36 40
3 99 97 98
4 240 42 46 241
4 47 42 240 242
4 241 46 47 242
3 47 42 46
3 242 240 241
4 243 244 80 78
4 245 244 80 83
4 245 243 78 83
3 245 244 243
3 83 80 78
4 109 27 28 110
4 109 27 29 108
4 110 28 29 108
3 29 27 28
3 108 109 110
4 246 33 34 247
4 246 33 35 248
4 247 34 35 248
3 35 33 34
3 248 246 247
4 81 79 249 250
4 82 79 249 251
4 82 81 250 251
3 82 79 81
3 251 249 250
4 69 68 252 253
4 71 68 252 254
4 71 69 253 254
3 71 68 69
3 254 252 253
4 255 256 97 96
4 257 256 97 100
4 257 255 96 100
3 257 256 255
3 100 97 96
4 58 54 258 259
4 59 54 258 260
4 259 58 59 260
3 59 54 58
3 260 258 259
4 261 39 40 262
4 261 39 41 263
4 262 40 41 263
3 41 39 40
3 263 261 262
4 264 48 52 265
4 53 48 264 266
4 265 52 53 266
3 53 48 52
3 266 264 265
4 72 74 267 268
4 77 74 267 269
4 77 72 268 269
3 77 74 72
3 269 267 268
4 270 45 46 271
4 270 45 47 272
4 271 46 47 272
3 47 45 46
3 272 270 271
4 81 80 273 274
4 83 80 273 275
4 83 81 274 275
3 83 80 81
3 275 273 274
4 70 66 103 105
4 71 66 103 106
4 105 70 71 106
3 71 66 70
3 106 103 105
4 75 74 276 277
4 77 74 276 278
4 77 75 277 278
3 77 74 75
3 278 276 277
4 64 60 279 280
4 65 60 279 281
4 280 64 65 281
3 65 60 64
3 281 279 280
4 282 51 52 283
4 282 51 53 284
4 283 52 53 284
3 53 51 52
3 284 282 283
4 90 92 285 286
4 95 92 285 287
4 95 90 286 287
3 95 92 90
3 287 285 286
4 288 57 58 289
4 288 57 59 290
4 289 58 59 290
3 59 57 58
3 290 288 289
4 291 292 109 111
4 293 292 109 112
4 293 291 111 112
3 293 292 291
3 112 109 111
4 82 78 115 117
4 83 78 115 118
4 117 82 83 118
3 83 78 82
3 118 115 117
4 93 92 294 295
4 95 92 294 296
4 95 93 295 296
3 95 92 93
3 296 294 295
4 76 72 121 120
4 77 72 121 124
4 120 76 77 124
3 77 72 76
3 124 121 120
4 297 63 64 298
4 297 63 65 299
4 298 64 65 299
3 65 63 64
3 299 297 298
4 102 104 300 301
4 107 104 300 302
4 107 102 301 302
3 107 104 102
3 302 300 301
4 133 69 70 134
4 133 69 71 132
4 134 70 71 132
3 71 69 70
3 132 133 134
4 303 304 110 111
4 305 304 110 113
4 305 303 111 113
3 305 304 303
3 113 110 111
4 88 84 306 307
4 89 84 306 308
4 307 88 89 308
3 89 84 88
3 308 306 307
4 105 104 309 310
4 107 104 309 311
4 107 105 310 311
3 107 104 105
3 311 309 310
4 94 90 127 126
4 95 90 127 130
4 126 94 95 130
3 95 90 94
3 130 127 126
4 312 75 76 313
4 312 75 77 314
4 313 76 77 314
3 77 75 76
3 314 312 313
4 315 81 82 316
4 315 81 83 317
4 316 82 83 317
3 83 81 82
3 317 315 316
4 318 319 122 123
4 320 319 122 125
4 320 318 123 125
3 320 319 318
3 125 122 123
4 100 96 321 322
4 101 96 321 323
4 322 100 101 323
3 101 96 100
3 323 321 322
4 106 102 324 325
4 107 102 324 326
4 107 106 325 326
3 107 102 106
3 326 324 325
4 327 93 94 328
4 95 93 327 329
4 328 94 95 329
3 95 93 94
3 329 327 328
4 330 87 88 331
4 330 87 89 332
4 331 88 89 332
3 89 87 88
3 332 330 331
4 333 334 128 129
4 335 334 128 131
4 335 333 129 131
3 335 334 333
3 131 128 129
4 112 108 336 337
4 113 108 336 338
4 337 112 113 338
3 113 108 112
3 338 336 337
4 339 105 106 340
4 107 105 339 341
4 340 106 107 341
3 107 105 106
3 341 339 340
4 342 99 100 343
4 101 99 342 344
4 343 100 101 344
3 101 99 100
3 344 342 343
4 345 346 134 135
4 347 346 134 137
4 347 345 135 137
3 347 346 345
3 137 134 135
4 112 111 139 141
4 113 111 139 142
4 141 112 113 142
3 113 111 112
3 142 139 141
4 140 348 349 138
4 350 348 140 143
4 138 349 350 143
3 350 348 349
3 143 140 138
4 124 123 351 352
4 125 123 351 353
4 352 124 125 353
3 125 123 124
3 353 351 352
4 354 355 132 136
4 356 355 132 137
4 356 354 136 137
3 356 355 354
3 137 132 136
4 130 129 357 358
4 131 129 357 359
4 358 130 131 359
3 131 129 130
3 359 357 358
4 136 135 360 361
4 137 135 360 362
4 137 136 361 362
3 137 135 136
3 362 360 361
3 363 364 365
3 366 367 368
4 367 364 365 368
4 363 364 367 366
4 368 365 363 366
3 369 364 365
3 370 371 372
4 371 364 365 372
4 369 364 371 370
4 372 365 369 370
3 25 1 373
3 26 3 374
4 3 1 373 374
4 25 1 3 26
4 374 373 25 26
3 375 2 145
3 376 0 146
4 0 2 145 146
4 375 2 0 376
4 375 145 146 376
3 37 7 377
3 38 9 378
4 9 7 377 378
4 37 7 9 38
4 378 377 37 38
3 25 1 379
3 24 4 380
4 4 1 379 380
4 4 1 25 24
4 380 379 25 24
3 381 2 148
3 382 3 149
4 3 2 148 149
4 381 2 3 382
4 381 148 149 382
3 37 7 383
3 36 10 384
4 10 7 383 384
4 10 7 37 36
4 384 383 37 36
3 385 150 14
3 386 152 15
4 152 150 14 15
4 385 150 152 386
4 385 14 15 386
3 387 2 31
3 388 5 30
4 5 2 31 30
4 5 2 387 388
4 30 31 387 388
3 389 0 154
3 390 4 155
4 4 0 154 155
4 389 0 4 390
4 389 154 155 390
3 37 363 25
3 39 391 27
4 391 363 25 27
4 391 363 37 39
4 27 25 37 39
3 392 8 159
3 393 11 161
4 11 8 159 161
4 11 8 392 393
4 161 159 392 393
3 394 156 20
3 395 158 21
4 158 156 20 21
4 394 156 158 395
4 394 20 21 395
3 396 0 32
3 397 5 30
4 5 0 32 30
4 396 0 5 397
4 30 32 396 397
3 398 3 26
3 399 4 24
4 26 3 4 24
4 398 3 4 399
4 398 26 24 399
3 37 400 25
3 40 401 28
4 401 400 25 28
4 401 400 37 40
4 28 25 37 40
3 402 14 165
3 403 17 167
4 17 14 165 167
4 17 14 402 403
4 167 165 402 403
3 404 6 160
3 405 11 161
4 11 6 160 161
4 404 6 11 405
4 161 160 404 405
3 406 12 26
3 407 16 27
4 16 12 26 27
4 406 12 16 407
4 406 26 27 407
3 408 3 44
3 409 5 42
4 44 3 5 42
4 408 3 5 409
4 42 44 408 409
3 410 9 38
3 411 10 36
4 38 9 10 36
4 410 9 10 411
4 410 38 36 411
3 412 413 414
3 415 416 417
4 416 413 414 417
4 416 413 412 415
4 417 414 412 415
3 418 20 177
3 419 23 179
4 23 20 177 179
4 23 20 418 419
4 179 177 418 419
3 420 374 421
3 422 423 424
4 423 374 421 424
4 420 374 423 422
4 424 421 420 422
3 425 162 38
3 426 164 39
4 164 162 38 39
4 425 162 164 426
4 425 38 39 426
3 427 18 24
3 428 22 28
4 22 18 24 28
4 427 18 22 428
4 427 24 28 428
3 429 9 169
3 430 11 170
4 169 9 11 170
4 429 9 11 430
4 170 169 429 430
3 431 4 56
3 432 5 54
4 56 4 5 54
4 431 4 5 432
4 54 56 431 432
3 433 434 435
3 436 437 438
4 437 434 435 438
4 437 434 433 436
4 438 435 433 436
3 439 26 67
3 440 29 69
4 29 26 67 69
4 29 26 439 440
4 69 67 439 440
3 441 15 50
3 442 17 51
4 17 15 50 51
4 441 15 17 442
4 51 50 441 442
3 443 380 444
3 445 446 447
4 446 380 444 447
4 443 380 446 445
4 447 444 443 445
3 448 171 36
3 449 173 40
4 173 171 36 40
4 448 171 173 449
4 448 36 40 449
3 450 30 175
3 451 34 176
4 34 30 175 176
4 450 30 34 451
4 450 175 176 451
3 452 10 181
3 453 11 182
4 181 10 11 182
4 452 10 11 453
4 182 181 452 453
3 420 421 454
3 455 456 457
4 456 421 454 457
4 456 421 420 455
4 457 454 420 455
3 458 38 79
3 459 41 81
4 41 38 79 81
4 41 38 458 459
4 81 79 458 459
3 460 24 68
3 461 29 69
4 29 24 68 69
4 29 24 460 461
4 69 68 460 461
3 462 21 62
3 463 23 63
4 23 21 62 63
4 462 21 23 463
4 63 62 462 463
3 464 30 190
3 465 35 191
4 35 30 190 191
4 464 30 35 465
4 191 190 464 465
3 466 27 39
3 467 28 40
4 28 27 39 40
4 466 27 28 467
4 466 39 40 467
3 468 33 187
3 469 34 188
4 34 33 187 188
4 468 33 34 469
4 468 187 188 469
3 470 391 471
3 472 473 474
4 471 391 473 474
4 470 391 473 472
4 474 471 470 472
3 475 476 477
3 478 479 480
4 479 476 477 480
4 479 476 475 478
4 480 477 475 478
3 443 444 481
3 482 483 484
4 483 444 481 484
4 483 444 443 482
4 484 481 443 482
3 485 36 80
3 486 41 81
4 41 36 80 81
4 41 36 485 486
4 81 80 485 486
3 487 204 66
3 488 206 70
4 206 204 66 70
4 206 204 487 488
4 70 66 487 488
3 489 27 74
3 490 29 75
4 29 27 74 75
4 489 27 29 490
4 75 74 489 490
3 491 33 202
3 492 35 203
4 35 33 202 203
4 491 33 35 492
4 203 202 491 492
3 493 494 495
3 496 497 498
4 497 494 495 498
4 493 494 497 496
4 493 495 498 496
3 499 401 500
3 501 502 503
4 500 401 502 503
4 499 401 502 501
4 503 500 499 501
3 504 505 506
3 507 508 509
4 508 505 506 509
4 508 505 504 507
4 509 506 504 507
3 510 222 66
3 511 224 71
4 224 222 66 71
4 224 222 510 511
4 71 66 510 511
3 512 39 86
3 513 41 87
4 41 39 86 87
4 512 39 41 513
4 87 86 512 513
3 514 219 78
3 515 221 82
4 221 219 78 82
4 221 219 514 515
4 82 78 514 515
3 516 28 92
3 517 29 93
4 92 28 29 93
4 516 28 29 517
4 93 92 516 517
3 518 216 72
3 519 218 76
4 218 216 72 76
4 518 216 218 519
4 76 72 518 519
3 520 521 522
3 523 524 525
4 524 521 522 525
4 520 521 524 523
4 520 522 525 523
3 526 34 229
3 527 35 230
4 229 34 35 230
4 526 34 35 527
4 230 229 526 527
3 528 471 470
3 529 530 531
4 530 471 470 531
4 530 471 528 529
4 531 470 528 529
3 532 243 78
3 533 245 83
4 245 243 78 83
4 245 243 532 533
4 83 78 532 533
3 534 40 98
3 535 41 99
4 98 40 41 99
4 534 40 41 535
4 99 98 534 535
3 536 234 84
3 537 236 88
4 236 234 84 88
4 536 234 236 537
4 88 84 536 537
3 538 46 241
3 539 47 242
4 241 46 47 242
4 538 46 47 539
4 242 241 538 539
3 540 237 90
3 541 239 94
4 239 237 90 94
4 540 237 239 541
4 94 90 540 541
3 542 69 232
3 543 70 233
4 70 69 232 233
4 542 69 70 543
4 542 232 233 543
3 544 500 499
3 545 546 547
4 546 500 499 547
4 546 500 544 545
4 547 499 544 545
3 548 72 268
3 549 77 269
4 77 72 268 269
4 77 72 548 549
4 269 268 548 549
3 550 52 265
3 551 53 266
4 265 52 53 266
4 550 52 53 551
4 266 265 550 551
3 552 255 96
3 553 257 100
4 257 255 96 100
4 552 255 257 553
4 100 96 552 553
3 554 58 259
3 555 59 260
4 259 58 59 260
4 554 58 59 555
4 260 259 554 555
3 556 69 253
3 557 71 254
4 71 69 253 254
4 556 69 71 557
4 556 253 254 557
3 558 81 250
3 559 82 251
4 82 81 250 251
4 558 81 82 559
4 558 250 251 559
3 560 104 300
3 561 107 302
4 107 104 300 302
4 107 104 560 561
4 302 300 560 561
3 562 90 286
3 563 95 287
4 95 90 286 287
4 95 90 562 563
4 287 286 562 563
3 564 64 280
3 565 65 281
4 280 64 65 281
4 564 64 65 565
4 281 280 564 565
3 566 440 567
3 568 569 570
4 569 440 567 570
4 566 440 569 568
4 570 567 566 568
3 571 70 105
3 572 71 106
4 105 70 71 106
4 571 70 71 572
4 571 105 106 572
3 573 81 274
3 574 83 275
4 83 81 274 275
4 573 81 83 574
4 573 274 275 574
3 575 102 301
3 576 107 302
4 107 102 301 302
4 107 102 575 576
4 302 301 575 576
3 566 577 567
3 578 579 580
4 579 577 567 580
4 579 577 566 578
4 580 567 566 578
3 581 76 120
3 582 77 124
4 120 76 77 124
4 581 76 77 582
4 124 120 581 582
3 583 291 111
3 584 293 112
4 293 291 111 112
4 583 291 293 584
4 112 111 583 584
3 585 82 117
3 586 83 118
4 117 82 83 118
4 585 82 83 586
4 585 117 118 586
3 587 588 589
3 590 591 592
4 591 588 589 592
4 591 588 587 590
4 592 589 587 590
3 593 303 111
3 594 305 113
4 305 303 111 113
4 305 303 593 594
4 113 111 593 594
3 595 88 307
3 596 89 308
4 307 88 89 308
4 595 88 89 596
4 308 307 595 596
3 597 94 126
3 598 95 130
4 126 94 95 130
4 597 94 95 598
4 130 126 597 598
3 599 318 123
3 600 320 125
4 320 318 123 125
4 320 318 599 600
4 125 123 599 600
3 601 602 603
3 604 605 606
4 605 602 603 606
4 601 602 605 604
4 606 603 601 604
3 607 100 322
3 608 101 323
4 322 100 101 323
4 607 100 101 608
4 323 322 607 608
3 609 333 129
3 610 335 131
4 335 333 129 131
4 609 333 335 610
4 131 129 609 610
3 611 112 337
3 612 113 338
4 337 112 113 338
4 611 112 113 612
4 338 337 611 612
3 613 614 615
3 616 617 618
4 617 614 615 618
4 613 614 617 616
4 618 615 613 616
3 619 620 621
3 622 623 624
4 623 620 621 624
4 619 620 623 622
4 624 621 619 622
3 363 364 365
3 369 364 365
3 25 364 363
3 37 365 363
3 25 364 369
3 37 365 369
3 37 363 25
3 37 369 25
3 366 367 368
3 413 367 368
3 414 367 366
3 412 368 366
3 414 367 413
3 412 368 413
3 412 366 414
3 412 413 414
3 370 371 372
3 434 371 372
3 435 371 370
3 433 372 370
3 435 371 434
3 433 372 434
3 433 370 435
3 433 434 435
3 26 3 374
3 421 3 374
3 454 3 26
3 420 374 26
3 454 3 421
3 420 374 421
3 420 26 454
3 420 421 454
3 38 9 378
3 476 9 378
3 477 9 38
3 475 378 38
3 477 9 476
3 475 378 476
3 475 38 477
3 475 476 477
3 24 4 380
3 444 4 380
3 481 4 24
3 443 380 24
3 481 4 444
3 443 380 444
3 443 24 481
3 443 444 481
3 36 10 384
3 505 10 384
3 506 10 36
3 504 384 36
3 506 10 505
3 504 384 505
3 504 36 506
3 504 505 506
3 388 5 30
3 625 5 30
3 626 5 388
3 627 30 388
3 626 5 625
3 627 30 625
3 627 388 626
3 627 625 626
3 39 391 27
3 471 391 27
3 470 391 39
3 528 27 39
3 470 391 471
3 528 27 471
3 528 39 470
3 528 471 470
3 393 11 161
3 628 11 161
3 629 11 393
3 630 161 393
3 629 11 628
3 630 161 628
3 630 393 629
3 630 628 629
3 40 401 28
3 500 401 28
3 499 401 40
3 544 28 40
3 499 401 500
3 544 28 500
3 544 40 499
3 544 500 499
3 495 473 494
3 474 473 494
3 472 473 495
3 493 494 495
3 472 473 474
3 493 494 474
3 493 495 472
3 493 474 472
3 415 416 417
3 631 416 417
3 632 416 415
3 633 417 415
3 632 416 631
3 633 417 631
3 633 415 632
3 633 631 632
3 522 502 521
3 503 502 521
3 501 502 522
3 520 521 522
3 501 502 503
3 520 521 503
3 520 522 501
3 520 503 501
3 436 437 438
3 634 437 438
3 635 437 436
3 636 438 436
3 635 437 634
3 636 438 634
3 636 436 635
3 636 634 635
3 440 29 69
3 577 29 69
3 567 29 440
3 566 69 440
3 567 29 577
3 566 69 577
3 566 440 567
3 566 577 567
3 455 456 457
3 588 456 457
3 589 456 455
3 587 457 455
3 589 456 588
3 587 457 588
3 587 455 589
3 587 588 589
3 459 41 81
3 637 41 81
3 638 41 459
3 639 81 459
3 638 41 637
3 639 81 637
3 639 459 638
3 639 637 638
3 478 479 480
3 640 479 480
3 641 479 478
3 642 480 478
3 641 479 640
3 642 480 640
3 642 478 641
3 642 640 641
3 482 483 484
3 602 483 484
3 603 483 482
3 601 484 482
3 603 483 602
3 601 484 602
3 601 482 603
3 601 602 603
3 507 508 509
3 643 508 509
3 644 508 507
3 645 509 507
3 644 508 643
3 645 509 643
3 645 507 644
3 645 643 644
3 529 530 531
3 614 530 531
3 615 530 529
3 613 531 529
3 615 530 614
3 613 531 614
3 613 529 615
3 613 614 615
3 545 546 547
3 620 546 547
3 621 546 545
3 619 547 545
3 621 546 620
3 619 547 620
3 619 545 621
3 619 620 621
3 617 646 647
3 648 646 647
3 618 646 617
3 616 647 617
3 618 646 648
3 616 647 648
3 616 617 618
3 616 648 618
# cell 1: 0 1 2 3 4 5 6 7
# cell 2: 8 9 10 11 12 13 14 15
# cell 3: 16 17 18 19 20 21 22 23
# cell 4: 24 25 26 27 28 29 30 31
# cell 5: 32 33 34 35 36 37 38 39
# cell 6: 40 41 42 43 44 45 46 47
# cell 7: 48 49 50 51 52 53 54 55
# cell 8: 56 57 58 59 60 61 62 63
# cell 9: 64 65 66 67 68 69 70 71
# cell 10: 72 73 74 75 76 77 78 79
# cell 11: 80 81 82 83 84 85 86 87
# cell 12: 88 89 90 91 92 93 94 95
# cell 13: 96 97 98 99 100 101 102 103
# cell 14: 104 105 106 107 108 109 110 111
# cell 15: 112 113 114 115 116 117 118 119
# cell 16: 120 121 122 123 124 125 126 127
# cell 17: 128 129 130 131 132 133 134 135
# cell 18: 136 137 138 139 140 141 142 143
# cell 19: 144 145 146 147 148 149 150 151
# cell 20: 152 153 154 155 156 157 158 159
# cell 21: 160 161 162 163 164 165 166 167
# cell 22: 168 169 170 171 172 173 174 175
# cell 23: 176 177 178 179 180 181 182 183
# cell 24: 184 185 186 187 188 189 190 191
# cell 25: 192 193 194 195 196
# cell 26: 197 198 199 200 201
# cell 27: 202 203 204 205 206
# cell 28: 207 208 209 210 211
# cell 29: 212 213 214 215 216
# cell 30: 217 218 219 220 221
# cell 31: 222 223 224 225 226
# cell 32: 227 228 229 230 231
# cell 33: 232 233 234 235 236
# cell 34: 237 238 239 240 241
# cell 35: 242 243 244 245 246
# cell 36: 247 248 249 250 251
# cell 37: 252 253 254 255 256
# cell 38: 257 258 259 260 261
# cell 39: 262 263 264 265 266
# cell 40: 267 268 269 270 271
# cell 41: 272 273 274 275 276
# cell 42: 277 278 279 280 281
# cell 43: 282 283 284 285 286
# cell 44: 287 288 289 290 291
# cell 45: 292 293 294 295 296
# cell 46: 297 298 299 300 301
# cell 47: 302 303 304 305 306
# cell 48: 307 308 309 310 311
# cell 49: 312 313 314 315 316
# cell 50: 317 318 319 320 321
# cell 51: 322 323 324 325 326
# cell 52: 327 328 329 330 331
# cell 53: 332 333 334 335 336
# cell 54: 337 338 339 340 341
# cell 55: 342 343 344 345 346
# cell 56: 347 348 349 350 351
# cell 57: 352 353 354 355 356
# cell 58: 357 358 359 360 361
# cell 59: 362 363 364 365 366
# cell 60: 367 368 369 370 371
# cell 61: 372 373 374 375 376
# cell 62: 377 378 379 380 381
# cell 63: 382 383 384 385 386
# cell 64: 387 388 389 390 391
# cell 65: 392 393 394 395 396
# cell 66: 397 398 399 400 401
# cell 67: 402 403 404 405 406
# cell 68: 407 408 409 410 411
# cell 69: 412 413 414 415 416
# cell 70: 417 418 419 420 421
# cell 71: 422 423 424 425 426
# cell 72: 427 428 429 430 431
# cell 73: 432 433 434 435 436
# cell 74: 437 438 439 440 441
# cell 75: 442 443 444 445 446
# cell 76: 447 448 449 450 451
# cell 77: 452 453 454 455 456
# cell 78: 457 458 459 460 461
# cell 79: 462 463 464 465 466
# cell 80: 467 468 469 470 471
# cell 81: 472 473 474 475 476
# cell 82: 477 478 479 480 481
# cell 83: 482 483 484 485 486
# cell 84: 487 488 489 490 491
# cell 85: 492 493 494 495 496
# cell 86: 497 498 499 500 501
# cell 87: 502 503 504 505 506
# cell 88: 507 508 509 510 511
# cell 89: 512 513 514 515 516
# cell 90: 517 518 519 520 521
# cell 91: 522 523 524 525 526
# cell 92: 527 528 529 530 531
# cell 93: 532 533 534 535 536
# cell 94: 537 538 539 540 541
# cell 95: 542 543 544 545 546
# cell 96: 547 548 549 550 551
# cell 97: 552 553 554 555 556
# cell 98: 557 558 559 560 561
# cell 99: 562 563 564 565 566
# cell 100: 567 568 569 570 571
# cell 101: 572 573 574 575 576
# cell 102: 577 578 579 580 581
# cell 103: 582 583 584 585 586
# cell 104: 587 588 589 590 591
# cell 105: 592 593 594 595 596
# cell 106: 597 598 599 600 601
# cell 107: 602 603 604 605 606
# cell 108: 607 608 609 610 611
# cell 109: 612 613 614 615 616
# cell 110: 617 618 619 620 621
# cell 111: 622 623 624 625 626
# cell 112: 627 628 629 630 631
# cell 113: 632 633 634 635 636
# cell 114: 637 638 639 640 641
# cell 115: 642 643 644 645 646
# cell 116: 647 648 649 650 651
# cell 117: 652 653 654 655 656
# cell 118: 657 658 659 660 661
# cell 119: 662 663 664 665 666
# cell 120: 667 668 669 670 671
# cell 121: 672 673 674 675 676
# cell 122: 677 678 679 680 681
# cell 123: 682 683 684 685 686
# cell 124: 687 688 689 690 691
# cell 125: 692 693 694 695 696
# cell 126: 697 698 699 700 701
# cell 127: 702 703 704 705 706
# cell 128: 707 708 709 710 711
# cell 129: 712 713 714 715 716
# cell 130: 717 718 719 720 721
# cell 131: 722 723 724 725 726
# cell 132: 727 728 729 730 731
# cell 133: 732 733 734 735 736
# cell 134: 737 738 739 740 741
# cell 135: 742 743 744 745 746
# cell 136: 747 748 749 750 751
# cell 137: 752 753 754 755 756
# cell 138: 757 758 759 760 761
# cell 139: 762 763 764 765 766
# cell 140: 767 768 769 770 771
# cell 141: 772 773 774 775 776
# cell 142: 777 778 779 780 781
# cell 143: 782 783 784 785 786
# cell 144: 787 788 789 790 791
# cell 145: 792 793 794 795 796
# cell 146: 797 798 799 800 801
# cell 147: 802 803 804 805 806
# cell 148: 807 808 809 810 811
# cell 149: 812 813 814 815 816
# cell 150: 817 818 819 820 821
# cell 151: 822 823 824 825 826
# cell 152: 827 828 829 830 831
# cell 153: 832 833 834 835 836
# cell 154: 837 838 839 840 841
# cell 155: 842 843 844 845 846
# cell 156: 847 848 849 850 851
# cell 157: 852 853 854 855 856
# cell 158: 857 858 859 860 861
# cell 159: 862 863 864 865 866
# cell 160: 867 868 869 870 871
# cell 161: 872 873 874 875 876
# cell 162: 877 878 879 880 881
# cell 163: 882 883 884 885 886
# cell 164: 887 888 889 890 891
# cell 165: 892 893 894 895 896
# cell 166: 897 898 899 900 901
# cell 167: 902 903 904 905 906
# cell 168: 907 908 909 910 911
# cell 169: 912 913 914 915 916
# cell 170: 917 918 919 920 921
# cell 171: 922 923 924 925 926
# cell 172: 927 928 929 930 931
# cell 173: 932 933 934 935 936
# cell 174: 937 938 939 940 941
# cell 175: 942 943 944 945 946
# cell 176: 947 948 949 950 951
# cell 177: 952 953 954 955 956
# cell 178: 957 958 959 960 961
# cell 179: 962 963 964 965 966
# cell 180: 967 968 969 970 971
# cell 181: 972 973 974 975 976
# cell 182: 977 978 979 980 981
# cell 183: 982 983 984 985 986
# cell 184: 987 988 989 990 991
# cell 185: 992 993 994 995 996
# cell 186: 997 998 999 1000 1001
# cell 187: 1002 1003 1004 1005 1006
# cell 188: 1007 1008 1009 1010 1011
# cell 189: 1012 1013 1014 1015 1016
# cell 190: 1017 1018 1019 1020 1021
# cell 191: 1022 1023 1024 1025 1026
# cell 192: 1027 1028 1029 1030 1031
# cell 193: 1032 1033 1034 1035 1036
# cell 194: 1037 1038 1039 1040 1041
# cell 195: 1042 1043 1044 1045 1046
# cell 196: 1047 1048 1049 1050 1051
# cell 197: 1052 1053 1054 1055 1056
# cell 198: 1057 1058 1059 1060 1061
# cell 199: 1062 1063 1064 1065 1066
# cell 200: 1067 1068 1069 1070 1071
# cell 201: 1072 1073 1074 1075 1076
# cell 202: 1077 1078 1079 1080 1081
# cell 203: 1082 1083 1084 1085 1086
# cell 204: 1087 1088 1089 1090 1091
# cell 205: 1092 1093 1094 1095 1096
# cell 206: 1097 1098 1099 1100 1101
# cell 207: 1102 1103 1104 1105 1106
# cell 208: 1107 1108 1109 1110 1111
# cell 209: 1112 1113 1114 1115 1116
# cell 210: 1117 1118 1119 1120 1121
# cell 211: 1122 1123 1124 1125 1126
# cell 212: 1127 1128 1129 1130 1131
# cell 213: 1132 1133 1134 1135 1136
# cell 214: 1137 1138 1139 1140 1141
# cell 215: 1142 1143 1144 1145 1146
# cell 216: 1147 1148 1149 1150 1151
# cell 217: 1152 1153 1154 1155 1156 1157 1158 1159
# cell 218: 1160 1161 1162 1163 1164 1165 1166 1167
# cell 219: 1168 1169 1170 1171 1172 1173 1174 1175
# cell 220: 1176 1177 1178 1179 1180 1181 1182 1183
# cell 221: 1184 1185 1186 1187 1188 1189 1190 1191
# cell 222: 1192 1193 1194 1195 1196 1197 1198 1199
# cell 223: 1200 1201 1202 1203 1204 1205 1206 1207
# cell 224: 1208 1209 1210 1211 1212 1213 1214 1215
# cell 225: 1216 1217 1218 1219 1220 1221 1222 1223
# cell 226: 1224 1225 1226 1227 1228 1229 1230 1231
# cell 227: 1232 1233 1234 1235 1236 1237 1238 1239
# cell 228: 1240 1241 1242 1243 1244 1245 1246 1247
# cell 229: 1248 1249 1250 1251 1252 1253 1254 1255
# cell 230: 1256 1257 1258 1259 1260 1261 1262 1263
# cell 231: 1264 1265 1266 1267 1268 1269 1270 1271
# cell 232: 1272 1273 1274 1275 1276 1277 1278 1279
# cell 233: 1280 1281 1282 1283 1284 1285 1286 1287
# cell 234: 1288 1289 1290 1291 1292 1293 1294 1295
# cell 235: 1296 1297 1298 1299 1300 1301 1302 1303
# cell 236: 1304 1305 1306 1307 1308 1309 1310 1311
# cell 237: 1312 1313 1314 1315 1316 1317 1318 1319
# cell 238: 1320 1321 1322 1323 1324 1325 1326 1327
# cell 239: 1328 1329 1330 1331 1332 1333 1334 1335
# cell 240: 1336 1337 1338 1339 1340 1341 1342 1343