OFF
# face-rotation BFS net; polygonal faces are preserved
# the cell decomposition is listed below as comments
330 300 0
-2.000000000000001 -2.1335915696026904e-17 -2.4494897427831788
-3.000000000000001 0.5773502691896257 -0.8164965809277265
-3.000000000000001 -0.5773502691896261 0.8164965809277257
-2.000000000000001 -2.309401076758504 0.8164965809277257
-1.0000000000000007 -2.8867513459481295 -0.8164965809277264
-1.0000000000000007 -1.7320508075688776 -2.4494897427831788
1.0000000000000004 1.7320508075688772 2.4494897427831783
-1.0000000000000002 1.7320508075688772 2.4494897427831783
-2.000000000000001 -4.450838976436958e-16 2.4494897427831788
-1.0000000000000007 -1.732050807568878 2.4494897427831788
1.0000000000000002 -1.7320508075688779 2.4494897427831788
2.0000000000000004 -4.237479819476688e-16 2.4494897427831783
1.0000000000000004 2.886751345948129 0.816496580927726
-1.0000000000000004 2.886751345948129 0.8164965809277259
-2.000000000000001 2.3094010767585034 -0.8164965809277265
-1.0000000000000004 1.7320508075688774 -2.4494897427831788
1.0000000000000002 1.7320508075688774 -2.4494897427831788
2.000000000000001 2.309401076758503 -0.8164965809277263
3.000000000000001 -0.5773502691896263 0.816496580927726
2.0000000000000004 -2.309401076758504 0.8164965809277261
0.9999999999999998 -2.8867513459481295 -0.8164965809277263
0.9999999999999998 -1.7320508075688779 -2.4494897427831788
2.0000000000000004 -4.451073700242139e-16 -2.4494897427831788
3.000000000000001 0.5773502691896253 -0.816496580927726
-7.966326495188788 1.1352591313119391 2.0274943015462115
-6.29965982852212 0.1730086826625632 2.571825355498029
-4.632993161855454 0.36545877239243785 1.4831632475943937
-4.632993161855453 1.52015931077169 -0.14982991426105885
-6.29965982852212 2.4824097594210666 -0.6941609682128758
-7.966326495188788 2.2899596696911915 0.39450113969075873
-5.966326495188786 2.289959669691191 5.293480625257116
-5.29965982852212 0.750358951852188 4.204818517353481
-3.6329931618554534 0.9428090415820636 3.116156409449846
-2.6329931618554525 2.674859849150941 3.1161564094498457
-3.299659828522119 4.214460566989944 4.2048185173534804
-4.966326495188786 4.022010477260069 5.293480625257116
-5.966326495188787 5.754061284828947 0.3945011396907594
-5.29965982852212 4.214460566989944 -0.6941609682128767
-3.6329931618554534 3.252210118340568 -0.1498299142610593
-2.6329931618554525 3.829560387530193 1.4831632475943934
-3.29965982852212 5.369161105369195 2.571825355498029
-4.966326495188786 6.3314115540185725 2.0274943015462115
-6.632993161855453 4.984260925909446 4.749149571305299
-7.632993161855454 3.252210118340568 4.749149571305299
-8.632993161855454 2.674859849150942 3.1161564094498466
-8.632993161855454 3.829560387530194 1.483163247594394
-7.632993161855454 5.561611195099072 1.4831632475943946
-6.632993161855453 6.138961464288697 3.1161564094498466
-1.0000000000000013 -6.69687032641101 -0.6941609682128775
-1.0000000000000009 -4.772369429112257 -0.14982991426106018
-2.000000000000001 -4.195019159922631 1.4831632475943923
-3.0000000000000018 -5.542169788031758 2.5718253554980275
-3.000000000000002 -7.466670685330512 2.0274943015462106
-2.0000000000000018 -8.044020954520137 0.39450113969075806
2. -4.964819518842133 4.2048185173534804
1.0000000000000002 -3.6176688907330052 3.1161564094498457
-1.0000000000000009 -3.6176688907330052 3.1161564094498453
-2.0000000000000013 -4.964819518842132 4.2048185173534804
-1.000000000000001 -6.31197014695126 5.293480625257116
0.9999999999999996 -6.311970146951261 5.293480625257116
2. -8.044020954520139 0.3945011396907585
0.9999999999999993 -6.696870326411011 -0.6941609682128771
0.9999999999999998 -4.772369429112257 -0.14982991426105974
2. -4.195019159922631 1.4831632475943928
3. -5.542169788031759 2.571825355498028
2.9999999999999996 -7.466670685330512 2.0274943015462106
0.9999999999999993 -9.391171582629266 1.4831632475943934
-1.0000000000000018 -9.391171582629266 1.4831632475943932
-2.0000000000000027 -8.81382131343964 3.1161564094498457
-1.0000000000000016 -8.236471044250013 4.749149571305298
0.9999999999999993 -8.236471044250013 4.749149571305297
1.9999999999999993 -8.81382131343964 3.1161564094498457
-1.0000000000000009 -2.8867513459481295 -6.08248290463863
-1.0000000000000009 -1.7320508075688776 -4.449489742783178
-2.000000000000001 -2.1335915696026584e-17 -4.449489742783179
-3.000000000000001 0.5773502691896251 -6.082482904638632
-3.0000000000000013 -0.5773502691896271 -7.715476066494084
-2.000000000000001 -2.3094010767585043 -7.715476066494084
2.0000000000000004 2.309401076758503 -6.082482904638632
1. 1.7320508075688774 -4.449489742783179
-1.0000000000000007 1.732050807568877 -4.44948974278318
-2.000000000000001 2.309401076758503 -6.082482904638633
-1.0000000000000004 2.8867513459481287 -7.715476066494086
1.0000000000000004 2.886751345948128 -7.715476066494086
3.000000000000001 0.577350269189625 -6.082482904638631
2.0000000000000004 -1.968237000379474e-16 -4.449489742783179
0.9999999999999998 -1.7320508075688779 -4.449489742783178
0.9999999999999998 -2.88675134594813 -6.08248290463863
2.0000000000000004 -2.3094010767585043 -7.715476066494083
3.000000000000001 -0.5773502691896272 -7.715476066494084
1.0000000000000002 1.7320508075688756 -9.348469228349536
-1.0000000000000007 1.7320508075688756 -9.348469228349538
-2.000000000000001 -1.8567638314172158e-15 -9.348469228349536
-1.0000000000000007 -1.7320508075688794 -9.348469228349536
0.9999999999999999 -1.7320508075688792 -9.348469228349536
2.0000000000000004 -1.9464502181837044e-15 -9.348469228349536
5.299659828522122 0.750358951852188 4.20481851735348
3.6329931618554547 0.9428090415820631 3.116156409449845
2.632993161855455 2.6748598491509403 3.116156409449845
3.299659828522122 4.214460566989943 4.20481851735348
4.966326495188788 4.022010477260068 5.293480625257115
5.966326495188788 2.289959669691191 5.293480625257114
5.299659828522122 4.214460566989943 -0.6941609682128767
3.6329931618554547 3.2522101183405665 -0.14982991426105974
2.6329931618554547 3.8295603875301922 1.4831632475943932
3.2996598285221213 5.369161105369195 2.571825355498028
4.966326495188788 6.3314115540185725 2.0274943015462106
5.966326495188789 5.754061284828946 0.39450113969075895
6.299659828522122 2.482409759421066 -0.6941609682128762
4.632993161855455 1.520159310771689 -0.14982991426105974
4.632993161855455 0.36545877239243696 1.4831632475943923
6.299659828522122 0.17300868266256275 2.571825355498028
7.966326495188789 1.1352591313119391 2.027494301546211
7.966326495188788 2.289959669691191 0.39450113969075873
7.632993161855456 5.56161119509907 1.4831632475943937
6.632993161855455 6.1389614642886965 3.1161564094498457
6.632993161855455 4.984260925909445 4.749149571305297
7.632993161855456 3.2522101183405674 4.749149571305297
8.632993161855456 2.674859849150942 3.1161564094498457
8.632993161855456 3.8295603875301936 1.4831632475943937
-7.174234614174769 -2.9873457473440825 2.9999999999999973
-5.449489742783179 -1.9915638315627224 2.816496580927725
-4.449489742783179 -3.7236146391316005 2.816496580927725
-6.174234614174769 -4.71939655491296 2.9999999999999982
-5.17423461417477 -1.8326452089648322 6.265986323710904
-4.44948974278318 -1.414213562373097 4.449489742783178
-3.4494897427831797 -3.1462643699419752 4.449489742783179
-4.174234614174771 -3.56469601653371 6.265986323710905
-6.89897948556636 -2.8284271247461925 6.449489742783177
-7.898979485566359 -3.405777393935818 4.816496580927724
-6.898979485566359 -5.137828201504695 4.816496580927723
-5.89897948556636 -4.56047793231507 6.449489742783177
-7.17423461417477 1.8326452089648284 -3.816496580927729
-5.4494897427831805 1.9915638315627207 -2.816496580927729
-4.44948974278318 1.4142135623730943 -4.44948974278318
-6.174234614174769 1.2552949397752022 -5.4494897427831805
-5.174234614174771 5.296746824102584 -3.8164965809277303
-4.4494897427831805 3.7236146391315987 -2.816496580927729
-3.44948974278318 3.146264369941972 -4.4494897427831805
-4.17423461417477 4.719396554912958 -5.449489742783182
-6.89897948556636 5.137828201504693 -4.816496580927732
-7.898979485566359 3.4057773939358142 -4.816496580927731
-6.898979485566358 2.8284271247461876 -6.449489742783182
-5.898979485566359 4.560477932315066 -6.449489742783182
-2.000000000000001 -7.1293920330674165 -3.816496580927728
-1.0000000000000009 -5.715178470694321 -2.8164965809277267
-1.0000000000000009 -4.560477932315068 -4.449489742783179
-2.000000000000001 -5.974691494688164 -5.4494897427831805
2.0000000000000004 -7.1293920330674165 -3.8164965809277276
0.9999999999999999 -5.715178470694321 -2.8164965809277263
0.9999999999999998 -4.560477932315068 -4.449489742783179
2.0000000000000004 -5.974691494688164 -5.44948974278318
1. -8.54360559544051 -4.816496580927729
-1.0000000000000009 -8.54360559544051 -4.816496580927729
-1.0000000000000007 -7.388905057061258 -6.4494897427831805
0.9999999999999999 -7.388905057061259 -6.4494897427831805
-0.9999999999999998 5.397341225498539 6.265986323710906
-0.9999999999999998 4.560477932315068 4.449489742783179
1.0000000000000016 4.560477932315068 4.44948974278318
1.0000000000000013 5.397341225498539 6.265986323710906
-0.9999999999999998 7.706742302257041 3.0000000000000004
-0.9999999999999998 5.71517847069432 2.816496580927727
1.0000000000000013 5.71517847069432 2.8164965809277263
1.0000000000000013 7.706742302257041 3.
-0.9999999999999998 8.54360559544051 4.816496580927726
-0.9999999999999998 7.38890505706126 6.449489742783179
1.0000000000000009 7.38890505706126 6.449489742783179
1.0000000000000009 8.54360559544051 4.816496580927726
4.174234614174768 -3.5646960165337096 6.265986323710904
3.4494897427831797 -3.1462643699419743 4.449489742783177
4.4494897427831805 -1.4142135623730974 4.449489742783178
5.174234614174769 -1.832645208964833 6.265986323710904
6.174234614174768 -4.7193965549129615 2.999999999999999
4.44948974278318 -3.7236146391316005 2.8164965809277245
5.44948974278318 -1.9915638315627233 2.816496580927726
7.174234614174768 -2.9873457473440848 3.
6.898979485566357 -5.137828201504697 4.816496580927725
5.898979485566357 -4.560477932315071 6.449489742783177
6.8989794855663575 -2.8284271247461943 6.449489742783179
7.8989794855663575 -3.40577739393582 4.816496580927726
4.174234614174769 4.719396554912959 -5.4494897427831805
3.4494897427831797 3.1462643699419726 -4.44948974278318
4.4494897427831805 3.7236146391315983 -2.816496580927727
5.17423461417477 5.296746824102585 -3.8164965809277276
6.174234614174769 1.255294939775204 -5.44948974278318
4.44948974278318 1.4142135623730947 -4.449489742783179
5.4494897427831805 1.991563831562721 -2.816496580927727
7.17423461417477 1.83264520896483 -3.8164965809277276
6.8989794855663575 2.8284271247461903 -6.4494897427831805
5.8989794855663575 4.560477932315068 -6.4494897427831805
6.898979485566359 5.1378282015046945 -4.816496580927728
7.898979485566359 3.405777393935817 -4.816496580927728
-2.7247448713915894 -3.8825332617294905 1.8164965809277251
-4.724744871391591 -0.4184316465917357 1.8164965809277258
-1.7247448713915898 -3.305182992539865 3.4494897427831783
-3.724744871391591 0.15891862259789002 3.4494897427831788
-2.72474487139159 0.41843164659173415 -4.265986323710905
-4.724744871391591 1.5731321849709865 -1.000000000000001
-1.72474487139159 2.150482454160611 -4.265986323710906
-3.7247448713915907 3.3051829925398644 -1.000000000000001
-1.0000000000000009 -2.5689141007523473 -4.265986323710905
-1.0000000000000009 -4.878315177510851 -0.9999999999999998
0.9999999999999998 -2.5689141007523473 -4.265986323710905
0.9999999999999998 -4.878315177510851 -0.9999999999999998
2.0000000000000018 3.1462643699419726 3.4494897427831783
-2. 3.146264369941973 3.4494897427831783
2.000000000000001 4.300964908321224 1.8164965809277263
-2.0000000000000004 4.300964908321225 1.8164965809277263
-6.000000000000005 -2.3094010767585047 -4.082482904638629
-7.000000000000004 -1.7320508075688785 -2.449489742783176
-7.000000000000004 -2.88675134594813 -0.8164965809277236
-6.000000000000004 -4.618802153517008 -0.816496580927724
-5.000000000000004 -5.196152422706634 -2.4494897427831765
-5.000000000000005 -4.041451884327382 -4.0824829046386295
-7.632993161855457 -3.2522101183405683 -4.749149571305296
-8.632993161855458 -2.674859849150942 -3.1161564094498426
-8.632993161855456 -3.829560387530194 -1.4831632475943903
-7.632993161855457 -5.561611195099071 -1.48316324759439
-6.632993161855457 -6.138961464288697 -3.1161564094498426
-6.632993161855457 -4.984260925909446 -4.749149571305296
3.724744871391591 0.15891862259788914 3.4494897427831788
1.7247448713915892 -3.305182992539865 3.4494897427831788
4.724744871391591 -0.41843164659173615 1.8164965809277263
2.724744871391589 -3.88253326172949 1.8164965809277254
1.0000000000000009 1.7320508075688785 7.348469228349535
-1.0000000000000002 1.7320508075688785 7.348469228349536
-2.0000000000000004 8.068089686211522e-16 7.348469228349536
-1.0000000000000004 -1.7320508075688763 7.348469228349536
1.0000000000000002 -1.732050807568876 7.348469228349536
2.000000000000001 7.413467859812609e-16 7.348469228349536
1.0000000000000007 1.7320508075688794 9.348469228349536
-1.0000000000000002 1.7320508075688794 9.348469228349536
-2.0000000000000004 1.4888405927715258e-15 9.348469228349536
-1.0000000000000007 -1.7320508075688756 9.348469228349536
1.0000000000000002 -1.7320508075688759 9.348469228349536
2.000000000000001 1.591428374379802e-15 9.348469228349536
3.7247448713915907 3.305182992539864 -1.0000000000000004
1.7247448713915894 2.1504824541606125 -4.265986323710905
4.724744871391591 1.5731321849709863 -1.0000000000000004
2.7247448713915894 0.4184316465917346 -4.265986323710905
1.0000000000000009 7.505553499465137 -0.8164965809277274
-1.0000000000000002 7.505553499465137 -0.8164965809277274
-2.0000000000000004 6.9282032302755105 -2.4494897427831797
-1.0000000000000007 6.3508529610858835 -4.082482904638632
1.0000000000000002 6.350852961085884 -4.082482904638632
2.000000000000001 6.928203230275511 -2.4494897427831797
1. 9.391171582629264 -1.4831632475943948
-1.000000000000001 9.391171582629262 -1.4831632475943943
-2.0000000000000013 8.813821313439636 -3.1161564094498466
-1.0000000000000016 8.236471044250012 -4.749149571305299
0.9999999999999996 8.236471044250012 -4.749149571305299
2. 8.813821313439638 -3.1161564094498466
7. -2.8867513459481313 -0.816496580927728
5.999999999999999 -4.6188021535170085 -0.816496580927728
4.999999999999998 -5.196152422706634 -2.4494897427831797
4.999999999999999 -4.041451884327382 -4.082482904638632
6. -2.3094010767585047 -4.082482904638633
7.000000000000001 -1.7320508075688794 -2.44948974278318
8.632993161855453 -3.8295603875301953 -1.4831632475943954
7.632993161855452 -5.561611195099073 -1.483163247594395
6.632993161855452 -6.138961464288698 -3.1161564094498475
6.632993161855452 -4.984260925909447 -4.7491495713053
7.632993161855452 -3.252210118340569 -4.7491495713053
8.632993161855453 -2.674859849150944 -3.1161564094498475
-3.000000000000001 -4.041451884327381 0.8164965809277271
-5.000000000000002 -0.577350269189626 0.8164965809277267
-6.000000000000002 -2.3094010767585034 0.8164965809277276
-5.000000000000002 -4.0414518843273814 0.8164965809277276
-3.000000000000003 -0.5773502691896266 -4.0824829046386295
-5.000000000000003 0.5773502691896257 -0.8164965809277256
-6.0000000000000036 0. -2.4494897427831774
-5.0000000000000036 -0.5773502691896271 -4.0824829046386295
-2.0000000000000027 -2.3094010767585043 -4.0824829046386295
-2.0000000000000013 -4.618802153517008 -0.8164965809277254
-3.0000000000000027 -5.196152422706634 -2.449489742783177
-3.0000000000000036 -4.0414518843273814 -4.0824829046386295
-1.0000000000000007 -2.886751345948129 4.082482904638631
-3.000000000000001 0.5773502691896256 4.082482904638631
-3.0000000000000013 -0.5773502691896255 5.715476066494084
-2.000000000000001 -2.309401076758503 5.715476066494084
2.0000000000000013 2.3094010767585034 4.082482904638631
-2.0000000000000004 2.309401076758504 4.082482904638631
-1.0000000000000002 2.8867513459481304 5.715476066494083
1.000000000000001 2.88675134594813 5.715476066494084
3.0000000000000013 0.5773502691896257 4.08248290463863
1. -2.886751345948129 4.082482904638631
2.0000000000000004 -2.3094010767585025 5.715476066494084
3.0000000000000013 -0.5773502691896256 5.715476066494084
-1.0000000000000007 2.886751345948129 -4.082482904638631
-3.000000000000001 4.0414518843273814 -0.8164965809277268
-3.0000000000000013 5.196152422706634 -2.4494897427831797
-2.000000000000001 4.618802153517008 -4.082482904638631
2.000000000000001 4.618802153517008 0.8164965809277256
-2.0000000000000004 4.618802153517008 0.8164965809277256
-1.0000000000000002 6.350852961085885 0.8164965809277251
1.0000000000000009 6.350852961085886 0.8164965809277256
3.0000000000000013 4.0414518843273814 -0.8164965809277264
1. 2.886751345948129 -4.082482904638631
2.0000000000000004 4.618802153517008 -4.082482904638632
3.0000000000000013 5.196152422706634 -2.4494897427831788
1.9999999999999991 -2.309401076758504 -4.082482904638631
1.9999999999999991 -4.618802153517008 -0.8164965809277265
2.999999999999999 -5.196152422706634 -2.449489742783179
2.999999999999999 -4.0414518843273814 -4.082482904638631
5.000000000000001 -0.5773502691896268 0.8164965809277258
3. -4.0414518843273814 0.8164965809277263
5.000000000000001 -4.041451884327382 0.8164965809277254
6.000000000000002 -2.3094010767585047 0.8164965809277254
5.000000000000001 0.5773502691896248 -0.8164965809277265
3. -0.5773502691896264 -4.082482904638631
5. -0.5773502691896271 -4.082482904638632
6.000000000000001 -1.3322676295501878e-15 -2.449489742783179
-10.29965982852212 4.79181083617957 0.9388321936425759
-10.29965982852212 2.4824097594210666 4.2048185173534804
-11.966326495188788 3.444660208070444 3.660487463401663
-11.966326495188788 4.599360746449695 2.0274943015462106
-7.29965982852212 6.5238616437484485 5.837811679208934
-9.29965982852212 3.0597600286106927 5.837811679208934
-9.966326495188788 4.599360746449696 6.926473787112569
-8.966326495188786 6.331411554018573 6.926473787112569
-7.29965982852212 7.6785621821277 4.204818517353481
-9.29965982852212 6.523861643748448 0.9388321936425759
-9.966326495188786 8.063462361587451 2.027494301546211
-8.966326495188786 8.640812630777077 3.660487463401664
-10.632993161855453 7.29366200266795 6.382142733160752
-11.632993161855454 5.561611195099072 6.382142733160752
-12.632993161855454 4.984260925909446 4.749149571305298
-12.632993161855454 6.138961464288697 3.1161564094498457
-11.632993161855454 7.871012271857575 3.1161564094498457
-10.632993161855453 8.448362541047201 4.749149571305299
6 0 1 2 3 4 5
6 6 7 8 9 10 11
6 12 13 14 15 16 17
6 18 19 20 21 22 23
4 8 2 3 9
4 14 1 0 15
4 20 4 5 21
4 13 7 6 12
4 19 10 11 18
4 22 16 17 23
6 7 8 2 1 14 13
6 20 4 3 9 10 19
6 16 15 0 5 21 22
6 17 12 6 11 18 23
6 24 25 26 27 28 29
6 30 31 32 33 34 35
6 36 37 38 39 40 41
6 42 43 44 45 46 47
4 25 26 32 31
4 28 27 38 37
4 34 33 39 40
4 44 24 29 45
4 43 30 35 42
4 46 36 41 47
6 33 32 26 27 38 39
6 44 24 25 31 30 43
6 45 29 28 37 36 46
6 42 35 34 40 41 47
6 48 49 50 51 52 53
6 54 55 56 57 58 59
6 60 61 62 63 64 65
6 66 67 68 69 70 71
4 56 50 51 57
4 48 49 62 61
4 53 52 68 67
4 54 55 63 64
4 59 58 69 70
4 66 60 65 71
6 62 49 50 56 55 63
6 68 52 51 57 58 69
6 60 61 48 53 67 66
6 65 64 54 59 70 71
6 72 73 74 75 76 77
6 78 79 80 81 82 83
6 84 85 86 87 88 89
6 90 91 92 93 94 95
4 80 74 75 81
4 86 73 72 87
4 92 76 77 93
4 78 79 85 84
4 83 82 91 90
4 89 88 94 95
6 79 80 74 73 86 85
6 92 76 75 81 82 91
6 88 87 72 77 93 94
6 89 84 78 83 90 95
6 96 97 98 99 100 101
6 102 103 104 105 106 107
6 108 109 110 111 112 113
6 114 115 116 117 118 119
4 104 98 99 105
4 110 97 96 111
4 116 100 101 117
4 109 103 102 108
4 115 106 107 114
4 118 112 113 119
6 103 104 98 97 110 109
6 116 100 99 105 106 115
6 112 111 96 101 117 118
6 113 108 102 107 114 119
4 1 2 26 27
4 7 8 32 33
4 13 14 38 39
4 8 2 26 32
4 14 1 27 38
4 13 7 33 39
6 7 8 2 1 14 13
6 33 32 26 27 38 39
4 4 3 50 49
4 10 9 56 55
4 19 20 62 63
4 9 3 50 56
4 20 4 49 62
4 19 10 55 63
6 20 4 3 9 10 19
6 62 49 50 56 55 63
4 120 121 122 123
4 124 125 126 127
4 128 129 130 131
4 125 121 122 126
4 129 120 123 130
4 128 124 127 131
6 129 120 121 125 124 128
6 130 123 122 126 127 131
4 5 0 74 73
4 16 15 80 79
4 22 21 86 85
4 15 0 74 80
4 21 5 73 86
4 22 16 79 85
6 16 15 0 5 21 22
6 79 80 74 73 86 85
4 132 133 134 135
4 136 137 138 139
4 140 141 142 143
4 137 133 134 138
4 141 132 135 142
4 140 136 139 143
6 141 132 133 137 136 140
6 142 135 134 138 139 143
4 11 6 98 97
4 17 12 104 103
4 23 18 110 109
4 12 6 98 104
4 18 11 97 110
4 23 17 103 109
6 17 12 6 11 18 23
6 103 104 98 97 110 109
4 144 145 146 147
4 148 149 150 151
4 152 153 154 155
4 149 145 146 150
4 153 144 147 154
4 152 148 151 155
6 148 149 145 144 153 152
6 151 150 146 147 154 155
4 156 157 158 159
4 160 161 162 163
4 164 165 166 167
4 161 157 158 162
4 165 156 159 166
4 164 160 163 167
6 165 156 157 161 160 164
6 166 159 158 162 163 167
4 168 169 170 171
4 172 173 174 175
4 176 177 178 179
4 173 169 170 174
4 177 168 171 178
4 176 172 175 179
6 172 173 169 168 177 176
6 175 174 170 171 178 179
4 180 181 182 183
4 184 185 186 187
4 188 189 190 191
4 185 181 182 186
4 189 180 183 190
4 188 184 187 191
6 184 185 181 180 189 188
6 187 186 182 183 190 191
6 192 3 2 193 121 122
6 194 9 8 195 125 126
4 8 2 193 195
4 9 3 192 194
4 125 121 122 126
4 8 2 3 9
4 121 193 195 125
4 194 192 122 126
6 196 0 1 197 133 134
6 198 15 14 199 137 138
4 14 1 197 199
4 15 0 196 198
4 137 133 134 138
4 14 1 0 15
4 133 197 199 137
4 198 196 134 138
6 200 5 4 201 145 146
6 202 21 20 203 149 150
4 20 4 201 203
4 21 5 200 202
4 149 145 146 150
4 20 4 5 21
4 145 201 203 149
4 202 200 146 150
6 204 6 7 205 157 158
6 206 12 13 207 161 162
4 13 7 205 207
4 12 6 204 206
4 161 157 158 162
4 13 7 6 12
4 157 205 207 161
4 206 204 158 162
6 208 209 210 211 212 213
6 214 215 216 217 218 219
4 216 210 211 217
4 215 209 208 214
4 218 212 213 219
4 216 210 209 215
4 212 211 217 218
4 214 208 213 219
6 220 11 10 221 169 170
6 222 18 19 223 173 174
4 19 10 221 223
4 18 11 220 222
4 173 169 170 174
4 19 10 11 18
4 169 221 223 173
4 222 220 170 174
6 224 225 226 227 228 229
6 230 231 232 233 234 235
4 232 226 227 233
4 231 225 224 230
4 234 228 229 235
4 232 226 225 231
4 228 227 233 234
4 230 224 229 235
6 236 17 16 237 181 182
6 238 23 22 239 185 186
4 22 16 237 239
4 23 17 236 238
4 185 181 182 186
4 22 16 17 23
4 181 237 239 185
4 238 236 182 186
6 240 241 242 243 244 245
6 246 247 248 249 250 251
4 248 242 243 249
4 247 241 240 246
4 250 244 245 251
4 248 242 241 247
4 244 243 249 250
4 246 240 245 251
6 252 253 254 255 256 257
6 258 259 260 261 262 263
4 260 254 255 261
4 259 253 252 258
4 262 256 257 263
4 260 254 253 259
4 256 255 261 262
4 258 252 257 263
6 264 3 2 265 266 267
6 268 0 1 269 270 271
6 272 5 4 273 274 275
6 208 209 210 211 212 213
4 1 2 265 269
4 4 3 264 273
4 210 266 267 211
4 5 0 268 272
4 209 270 271 208
4 212 274 275 213
6 0 1 2 3 4 5
6 210 266 265 269 270 209
6 274 273 264 267 211 212
6 275 272 268 271 208 213
6 276 9 8 277 278 279
6 280 6 7 281 282 283
6 284 11 10 285 286 287
6 224 225 226 227 228 229
4 7 8 277 281
4 10 9 276 285
4 226 278 279 227
4 11 6 280 284
4 225 282 283 224
4 228 286 287 229
6 6 7 8 9 10 11
6 226 278 277 281 282 225
6 286 285 276 279 227 228
6 287 284 280 283 224 229
6 288 15 14 289 290 291
6 292 12 13 293 294 295
6 296 17 16 297 298 299
6 240 241 242 243 244 245
4 13 14 289 293
4 16 15 288 297
4 242 290 291 243
4 17 12 292 296
4 241 294 295 240
4 244 298 299 245
6 12 13 14 15 16 17
6 242 290 289 293 294 241
6 298 297 288 291 243 244
6 299 296 292 295 240 245
6 300 21 20 301 302 303
6 304 18 19 305 306 307
6 308 23 22 309 310 311
6 252 253 254 255 256 257
4 19 20 301 305
4 22 21 300 309
4 254 302 303 255
4 23 18 304 308
4 253 306 307 252
4 256 310 311 257
6 18 19 20 21 22 23
6 254 302 301 305 306 253
6 310 309 300 303 255 256
6 311 308 304 307 252 257
6 312 45 44 313 314 315
6 316 42 43 317 318 319
6 320 47 46 321 322 323
6 324 325 326 327 328 329
4 43 44 313 317
4 46 45 312 321
4 326 314 315 327
4 47 42 316 320
4 325 318 319 324
4 328 322 323 329
6 42 43 44 45 46 47
6 326 314 313 317 318 325
6 322 321 312 315 327 328
6 323 320 316 319 324 329
# cell 1: 0 1 2 3 4 5 6 7 8 9 10 11 12 13
# cell 2: 14 15 16 17 18 19 20 21 22 23 24 25 26 27
# cell 3: 28 29 30 31 32 33 34 35 36 37 38 39 40 41
# cell 4: 42 43 44 45 46 47 48 49 50 51 52 53 54 55
# cell 5: 56 57 58 59 60 61 62 63 64 65 66 67 68 69
# cell 6: 70 71 72 73 74 75 76 77
# cell 7: 78 79 80 81 82 83 84 85
# cell 8: 86 87 88 89 90 91 92 93
# cell 9: 94 95 96 97 98 99 100 101
# cell 10: 102 103 104 105 106 107 108 109
# cell 11: 110 111 112 113 114 115 116 117
# cell 12: 118 119 120 121 122 123 124 125
# cell 13: 126 127 128 129 130 131 132 133
# cell 14: 134 135 136 137 138 139 140 141
# cell 15: 142 143 144 145 146 147 148 149
# cell 16: 150 151 152 153 154 155 156 157
# cell 17: 158 159 160 161 162 163 164 165
# cell 18: 166 167 168 169 170 171 172 173
# cell 19: 174 175 176 177 178 179 180 181
# cell 20: 182 183 184 185 186 187 188 189
# cell 21: 190 191 192 193 194 195 196 197
# cell 22: 198 199 200 201 202 203 204 205
# cell 23: 206 207 208 209 210 211 212 213
# cell 24: 214 215 216 217 218 219 220 221
# cell 25: 222 223 224 225 226 227 228 229
# cell 26: 230 231 232 233 234 235 236 237 238 239 240 241 242 243
# cell 27: 244 245 246 247 248 249 250 251 252 253 254 255 256 257
# cell 28: 258 259 260 261 262 263 264 265 266 267 268 269 270 271
# cell 29: 272 273 274 275 276 277 278 279 280 281 282 283 284 285
# cell 30: 286 287 288 289 290 291 292 293 294 295 296 297 298 299