OFF
# face-rotation BFS net; polygonal faces are preserved
# the cell decomposition is listed below as comments
226 416 0
-0.2357022603955155 1.1785113019775793 -0.23570226039551545
-0.7071067811865471 -0.7071067811865471 -0.7071067811865471
-0.2357022603955154 -0.23570226039551545 1.1785113019775793
1.1785113019775793 -0.23570226039551556 -0.23570226039551545
-2.1602031576942675 1.5634114814373299 0.14919791906423452
-2.631607678485299 -0.3222066017267964 -0.32220660172679705
-2.1602031576942675 0.14919791906423535 1.5634114814373288
-3.8886864005947164 0.7777372801189442 0.7777372801189428
1.5634114814373297 -2.160203157694268 0.14919791906423446
-0.32220660172679627 -2.6316076784852993 -0.32220660172679727
0.14919791906423546 -2.1602031576942684 1.5634114814373288
0.7777372801189442 -3.8886864005947173 0.7777372801189425
-4.786786819334135 -0.8901634975399747 1.4192375792185263
-3.5297080972247175 -1.9901073793857154 0.3192936973727867
-3.058303576433686 -1.5187028585946836 2.2049117805369125
-4.5248954188946735 -2.8281598607919936 1.8382638199216659
1.5634114814373294 0.1491979190642344 -2.160203157694267
-0.3222066017267964 -0.32220660172679705 -2.631607678485299
0.14919791906423513 1.563411481437329 -2.160203157694268
0.777737280118944 0.7777372801189426 -3.8886864005947164
-4.786786819334135 1.4192375792185283 -0.8901634975399755
-3.529708097224717 0.3192936973727878 -1.9901073793857158
-3.0583035764336852 2.204911780536914 -1.5187028585946838
-4.524895418894673 1.8382638199216677 -2.8281598607919936
2.3332118403568316 0.9189982779837359 0.9189982779837361
0.9189982779837362 0.9189982779837359 2.3332118403568307
0.9189982779837358 2.33321184035683 0.9189982779837355
2.3332118403568307 2.3332118403568316 2.3332118403568307
1.4192375792185283 -4.786786819334135 -0.8901634975399768
0.319293697372788 -3.529708097224717 -1.9901073793857162
2.2049117805369134 -3.0583035764336857 -1.5187028585946845
1.8382638199216672 -4.524895418894673 -2.8281598607919953
-4.016986460414633 2.189037938138029 2.189037938138028
-2.288503217514184 1.5604985770833197 2.9747121394564138
-2.288503217514184 2.974712139456414 1.5604985770833193
-2.969420858656785 3.3937383801595535 3.393738380159553
-6.021729450127036 -3.2985934134650203 0.5980299083291366
-5.02654212845708 -2.460540932058742 -0.9209402142197424
-6.283620850566497 -1.360597050213001 0.17900366762599784
-6.9994573451010265 -2.7573511858901316 -1.0606156277874557
2.1890379381380303 -4.016986460414635 2.189037938138028
1.5604985770833213 -2.2885032175141857 2.9747121394564138
2.9747121394564147 -2.2885032175141857 1.5604985770833188
3.393738380159555 -2.9694208586567874 3.3937383801595526
-5.251929091207536 -2.5287930545455204 3.6772313440071405
-3.785337248746549 -1.2193360523482109 4.043879304622387
-5.513820491646998 -0.5907966912935018 3.2582051033040003
-5.443982784863142 -1.2018766256522455 5.161282613164091
2.1890379381380294 2.189037938138028 -4.016986460414634
1.5604985770833206 2.9747121394564147 -2.2885032175141853
2.974712139456415 1.5604985770833195 -2.288503217514185
3.3937383801595544 3.393738380159553 -2.9694208586567865
-5.2519290912075345 3.6772313440071427 -2.5287930545455204
-3.785337248746547 4.043879304622389 -1.2193360523482104
-5.513820491646996 3.258205103304003 -0.5907966912935024
-5.44398278486314 5.161282613164093 -1.2018766256522468
3.677231344007141 -5.251929091207535 -2.528793054545522
4.043879304622388 -3.7853372487465484 -1.2193360523482117
3.258205103304002 -5.513820491646998 -0.5907966912935043
5.161282613164093 -5.443982784863142 -1.2018766256522488
-8.724380371568797 -2.7716067480923443 -0.048470711430334656
-8.008543877034269 -1.3748526124152138 1.191148583983119
-7.746652476594806 -3.312848975667233 1.6101748246862577
-9.56825266187373 -2.4980757298555734 1.7440304293553162
-0.5078677873714252 -2.1408609492268758 1.7228423559293962
-0.9792723081624565 -2.612265470017907 -0.16277572723472966
-2.903773205461208 -2.227365290558156 0.22212445222502009
-2.432368684670177 -1.7559607697671247 2.107742535389146
-0.9792723081624574 -4.026479032391002 1.251437835138365
-2.903773205461209 -3.641578852931251 1.6363380145981148
-0.5078677873714237 1.722842355929397 -2.1408609492268758
-0.9792723081624554 -0.16277572723472922 -2.6122654700179075
-2.9037732054612073 0.22212445222502142 -2.227365290558157
-2.432368684670176 2.1077425353891477 -1.7559607697671251
-0.9792723081624558 1.251437835138366 -4.026479032391002
-2.903773205461208 1.6363380145981163 -3.641578852931252
1.7228423559293964 -0.5078677873714239 -2.1408609492268758
-0.16277572723472966 -0.9792723081624556 -2.6122654700179075
0.22212445222502109 -2.903773205461208 -2.2273652905581587
2.1077425353891472 -2.4323686846701764 -1.7559607697671265
1.2514378351383648 -0.9792723081624549 -4.026479032391002
1.6363380145981155 -2.9037732054612073 -3.6415788529312527
0.3086287935563017 2.539338936857122 1.125125374484028
0.30862879355630135 1.125125374484028 2.5393389368571224
-1.6158721037424506 1.510025553943779 2.9242391163168726
-1.6158721037424506 2.924239116316873 1.510025553943778
0.7800333143473325 3.0107434576481547 3.0107434576481547
-1.1444675829514195 3.395643637107905 3.3956436371079044
-5.158792193148957 0.8684591224442471 -0.7645340394112053
-3.9017134710395402 -0.23148475940149338 -1.8644779212569458
-4.799813889778958 -1.8993855370604118 -1.2229776221573618
-6.056892611888376 -0.7994416552146715 -0.12303374031162151
-5.6301967139399896 0.3970546016532158 -2.6501521225753315
-6.528297132679407 -1.2708461760057028 -2.0086518234757476
2.5393389368571224 0.30862879355630135 1.1251253744840277
1.125125374484028 0.3086287935563009 2.539338936857122
1.5100255539437786 -1.6158721037424515 2.9242391163168717
2.9242391163168735 -1.6158721037424508 1.5100255539437777
3.010743457648154 0.7800333143473321 3.0107434576481547
3.395643637107905 -1.1444675829514201 3.3956436371079044
-1.5236033621142753 -5.387306667270545 -0.10938979974117824
-1.5236033621142737 -3.9730931048974503 -1.5236033621142728
-3.4481042594130256 -3.5881929254377 -1.1387031826545235
-3.448104259413027 -5.002406487810795 0.2755103797185712
-1.995007882905306 -5.8587111880615765 -1.995007882905305
-3.9195087802040574 -5.473811008601826 -1.6101077034455553
-4.342295612221233 1.6849557033719726 2.501452284299697
-2.613812369320784 1.0564163423172634 3.287126485618083
-3.511912788060202 -0.6114844353416554 3.9286267847176664
-5.2403960309606505 0.01705492571305378 3.14295258339928
-3.8708910914302015 2.156360224163003 4.387070367463823
-4.76899151016962 0.48845944650408474 5.028570666563407
1.5100255539437784 2.9242391163168717 -1.6158721037424504
1.125125374484028 2.5393389368571215 0.3086287935563018
2.5393389368571224 1.125125374484027 0.30862879355630224
2.9242391163168735 1.510025553943777 -1.61587210374245
3.0107434576481547 3.0107434576481538 0.780033314347333
3.395643637107905 3.3956436371079035 -1.1444675829514193
-0.7071067811865495 -4.570810086342819 3.1565965239697253
-0.23570226039551723 -2.6851920031786927 3.628001044760757
-2.1602031576942693 -2.3002918237189416 4.012901224220506
-2.6316076784853015 -4.185909906883068 3.541496703429474
-0.23570226039551923 -4.099405565551788 5.042214607133852
-2.160203157694271 -3.7145053860920365 5.4271147865936005
-3.5119127880602 3.9286267847176695 -0.6114844353416546
-2.613812369320782 3.287126485618085 1.0564163423172637
-4.342295612221232 2.5014522842996993 1.6849557033719718
-5.24039603096065 3.142952583399284 0.017054925713053226
-3.8708910914302 4.387070367463825 2.156360224163004
-4.768991510169617 5.02857066656341 0.48845944650408535
-0.7071067811865471 3.156596523969727 -4.57081008634282
-0.23570226039551523 3.628001044760758 -2.6851920031786927
-2.1602031576942675 4.012901224220508 -2.3002918237189425
-2.6316076784852993 3.5414967034294773 -4.185909906883069
-0.23570226039551523 5.042214607133853 -4.099405565551788
-2.1602031576942675 5.427114786593603 -3.714505386092037
3.928626784717669 -3.511912788060201 -0.6114844353416558
3.2871264856180846 -2.6138123693207835 1.056416342317263
2.5014522842997002 -4.342295612221234 1.6849557033719706
3.1429525833992846 -5.2403960309606505 0.017054925713051783
4.387070367463826 -3.870891091430202 2.1563602241630027
5.028570666563411 -4.768991510169619 0.4884594465040838
3.1565965239697253 -0.7071067811865458 -4.57081008634282
3.628001044760757 -0.23570226039551456 -2.6851920031786936
4.012901224220507 -2.160203157694267 -2.3002918237189443
3.5414967034294764 -2.631607678485298 -4.1859099068830705
5.042214607133851 -0.23570226039551412 -4.0994055655517885
5.427114786593602 -2.1602031576942666 -3.714505386092039
-7.5839672572291725 -1.20939397967083 1.6910343730477124
-6.087133225996809 -0.7389604269978023 2.9312682846402414
-5.825241825557348 -2.6769567902498217 3.3502945253433802
-7.32207585678971 -3.147390342922849 2.110060613750851
-7.0823205476667646 -1.577012908404081 4.45023840718912
-8.579154578899127 -2.0474464610771084 3.210004495596592
-7.353911718120744 1.3949948672315475 -2.4687084379247257
-6.882507197329712 1.8663993880225784 -0.5830903547606002
-7.780607616069131 0.19849861036366034 0.05840994433898383
-8.252012136860163 -0.272905910427371 -1.8272081388251422
-8.610990440230161 2.4949387490772876 -1.368764556078986
-9.509090858969579 0.8270379714183695 -0.7272642569794023
-2.2671734098812157 -7.763869876892937 -1.4506768289534877
-1.7957688890901853 -7.292465356101905 0.43494125421063856
-3.7202697863889367 -6.907565176642155 0.8198414336703881
-4.191674307179968 -7.378969697433186 -1.0657766494937384
-2.2671734098812166 -9.178083439266032 -0.03646326658039353
-4.1916743071799685 -8.793183259806282 0.34843691287935596
-1.4506768289534886 -3.0836699908089398 -2.048393810398855
-1.178511301977579 -1.1785113019775795 -2.592724864350673
-3.1030121992763307 -0.793611122517828 -2.207824684890923
-3.3751777262522404 -2.6987698113491883 -1.6634936309391049
-1.9220813497445208 -3.555074511599972 -3.934011893562981
-1.649915822768611 -1.6499158227686117 -4.478342947514799
-3.574416720067363 -1.2650156433088604 -4.0934427680550485
-3.8465822470432727 -3.170174332140221 -3.5491117141032307
-0.036463266580394116 -1.6694564284358449 3.6084604390935224
0.23570226039551545 0.23570226039551578 3.0641293851417055
-1.6887986369032366 0.6206024398552668 3.449029564601455
-1.9609641638791462 -1.2845562489760938 3.9933606185532717
0.4349412542106359 -1.1980519076448142 5.494078522257649
0.7071067811865459 0.7071067811865461 4.949747468305832
-1.2173941161122064 1.0920069606462977 5.334647647765581
-1.489559643088116 -0.8131517281850629 5.878978701717398
-0.03646326658039256 3.6084604390935233 -1.6694564284358435
0.23570226039551634 3.0641293851417055 0.235702260395517
-1.6887986369032362 3.4490295646014557 0.6206024398552673
-1.960964163879145 3.9933606185532735 -1.284556248976093
0.434941254210639 5.4940785222576505 -1.1980519076448117
0.7071067811865477 4.949747468305832 0.7071067811865488
-1.2173941161122048 5.334647647765582 1.0920069606462994
-1.4895596430881137 5.878978701717401 -0.8131517281850613
3.608460439093523 -0.03646326658039234 -1.6694564284358442
3.0641293851417055 0.23570226039551612 0.235702260395516
3.4490295646014566 -1.6887986369032357 0.6206024398552658
3.9933606185532735 -1.9609641638791442 -1.2845562489760947
5.494078522257649 0.43494125421063934 -1.1980519076448126
4.949747468305832 0.7071067811865476 0.7071067811865476
5.334647647765583 -1.2173941161122044 1.0920069606462977
5.878978701717401 -1.4895596430881128 -0.8131517281850631
-6.415870915258377 1.9684030042899874 0.33540984243453376
-5.1457651227041366 1.8776811619646847 1.877681161964683
-6.043865541443555 0.2097803843057664 2.5191814610642664
-7.313971333997795 0.30050222663106907 0.9769101415341177
-7.672949637367795 3.0683468861357275 1.4353537242802732
-6.402843844813555 2.9776250438104253 2.9776250438104226
-7.3009442635529735 1.3097242661515072 3.6191253429100056
-8.571050056107214 1.4004461084768094 2.076854023379857
-1.5236033621142755 -6.801520229643639 1.3048237626319175
-0.9792723081624581 -5.440692594764097 2.665651397511461
-2.90377320546121 -5.055792415304345 3.0505515769712095
-3.448104259413027 -6.416620050183887 1.689723942091666
-1.5236033621142773 -8.215733792016733 2.719037325005013
-0.9792723081624604 -6.854906157137191 4.079864959884556
-2.9037732054612118 -6.47000597767744 4.464765139344305
-3.4481042594130296 -7.830833612556982 3.1039375044647617
-2.3934858705355535 -4.026479032391005 -5.819629976727106
-2.1213203435596437 -2.1213203435596446 -6.363961030678925
-4.045821240858396 -1.7364201640998929 -5.979060851219175
-4.317986767834304 -3.6415788529312527 -5.434729797267355
-2.864890391326585 -4.497883553182037 -7.705248059891232
-2.5927248643506755 -2.592724864350677 -8.249579113843051
-4.517225761649427 -2.207824684890925 -7.8646789343833
-4.789391288625336 -4.112983373722285 -7.320347880431481
1.1785113019775761 1.1785113019775768 6.835365551469959
-0.7459895953211759 1.5634114814373277 7.220265730929709
0.9063457750016664 -0.7266473868537834 7.379696605421777
-1.0181551222970855 -0.3417472073940324 7.764596784881526
3 0 1 2
3 3 1 2
3 3 1 0
3 3 2 0
3 4 5 6
3 7 5 6
3 7 5 4
3 7 6 4
3 8 9 10
3 11 9 10
3 11 9 8
3 11 10 8
3 12 13 14
3 15 13 14
3 15 13 12
3 15 14 12
3 16 17 18
3 19 17 18
3 19 17 16
3 19 18 16
3 20 21 22
3 23 21 22
3 23 21 20
3 23 22 20
3 24 25 26
3 27 25 26
3 27 25 24
3 27 26 24
3 28 29 30
3 31 29 30
3 31 29 28
3 31 30 28
3 32 33 34
3 35 33 34
3 35 33 32
3 35 34 32
3 36 37 38
3 39 37 38
3 39 37 36
3 39 38 36
3 40 41 42
3 43 41 42
3 43 41 40
3 43 42 40
3 44 45 46
3 47 45 46
3 47 45 44
3 47 46 44
3 48 49 50
3 51 49 50
3 51 49 48
3 51 50 48
3 52 53 54
3 55 53 54
3 55 53 52
3 55 54 52
3 56 57 58
3 59 57 58
3 59 57 56
3 59 58 56
3 60 61 62
3 63 61 62
3 63 61 60
3 63 62 60
4 2 1 5 6
4 0 1 5 4
4 0 2 6 4
3 0 1 2
3 4 5 6
4 9 1 2 10
4 3 1 9 8
4 3 2 10 8
3 3 1 2
3 8 9 10
4 13 5 6 14
4 7 5 13 12
4 7 6 14 12
3 7 5 6
3 12 13 14
4 17 1 0 18
4 3 1 17 16
4 18 0 3 16
3 3 1 0
3 16 17 18
4 64 65 66 67
4 68 65 66 69
4 68 64 67 69
3 68 65 64
3 69 66 67
4 21 5 4 22
4 7 5 21 20
4 22 4 7 20
3 7 5 4
3 20 21 22
4 25 2 0 26
4 25 2 3 24
4 26 0 3 24
3 3 2 0
3 24 25 26
4 70 71 72 73
4 74 71 72 75
4 74 70 73 75
3 74 71 70
3 75 72 73
4 29 9 8 30
4 11 9 29 28
4 30 8 11 28
3 11 9 8
3 28 29 30
4 33 6 4 34
4 33 6 7 32
4 34 4 7 32
3 7 6 4
3 32 33 34
4 76 77 78 79
4 80 77 78 81
4 80 76 79 81
3 80 77 76
3 81 78 79
4 82 83 84 85
4 86 83 84 87
4 86 82 85 87
3 86 83 82
3 87 84 85
4 37 13 12 38
4 15 13 37 36
4 38 12 15 36
3 15 13 12
3 36 37 38
4 41 10 8 42
4 41 10 11 40
4 42 8 11 40
3 11 10 8
3 40 41 42
4 88 89 90 91
4 92 89 90 93
4 92 88 91 93
3 92 89 88
3 93 90 91
4 94 95 96 97
4 98 95 96 99
4 98 94 97 99
3 98 95 94
3 99 96 97
4 45 14 12 46
4 45 14 15 44
4 46 12 15 44
3 15 14 12
3 44 45 46
4 49 18 16 50
4 49 18 19 48
4 50 16 19 48
3 19 18 16
3 48 49 50
4 100 101 102 103
4 104 101 102 105
4 104 100 103 105
3 104 101 100
3 105 102 103
4 106 107 108 109
4 110 107 108 111
4 110 106 109 111
3 110 107 106
3 111 108 109
4 112 113 114 115
4 116 113 112 117
4 115 114 116 117
3 116 113 114
3 117 112 115
4 53 22 20 54
4 53 22 23 52
4 54 20 23 52
3 23 22 20
3 52 53 54
4 118 119 120 121
4 122 119 120 123
4 122 118 121 123
3 122 119 118
3 123 120 121
4 124 125 126 127
4 128 125 124 129
4 127 126 128 129
3 128 125 126
3 129 124 127
4 57 30 28 58
4 57 30 31 56
4 58 28 31 56
3 31 30 28
3 56 57 58
4 130 131 132 133
4 134 131 132 135
4 134 130 133 135
3 134 131 130
3 135 132 133
4 136 137 138 139
4 140 137 136 141
4 139 138 140 141
3 140 137 138
3 141 136 139
4 61 38 36 62
4 61 38 39 60
4 62 36 39 60
3 39 38 36
3 60 61 62
4 142 143 144 145
4 146 143 144 147
4 145 142 146 147
3 146 143 142
3 147 144 145
4 148 149 150 151
4 152 149 148 153
4 151 150 152 153
3 152 149 150
3 153 148 151
4 154 155 156 157
4 158 155 156 159
4 157 154 158 159
3 158 155 154
3 159 156 157
4 160 161 162 163
4 164 161 162 165
4 164 160 163 165
3 164 161 160
3 165 162 163
4 65 1 5 66
4 64 2 6 67
4 2 1 5 6
4 65 1 2 64
4 66 5 6 67
4 64 65 66 67
4 71 1 5 72
4 70 0 4 73
4 0 1 5 4
4 71 1 0 70
4 72 5 4 73
4 70 71 72 73
4 77 1 9 78
4 76 3 8 79
4 3 1 9 8
4 3 1 77 76
4 78 9 8 79
4 76 77 78 79
4 83 2 6 84
4 82 0 4 85
4 0 2 6 4
4 83 2 0 82
4 84 6 4 85
4 82 83 84 85
4 89 5 13 90
4 88 7 12 91
4 7 5 13 12
4 7 5 89 88
4 90 13 12 91
4 88 89 90 91
4 95 2 10 96
4 94 3 8 97
4 3 2 10 8
4 95 2 3 94
4 96 10 8 97
4 94 95 96 97
4 101 65 66 102
4 100 68 69 103
4 68 65 66 69
4 68 65 101 100
4 69 66 102 103
4 100 101 102 103
4 107 6 14 108
4 106 7 12 109
4 7 6 14 12
4 107 6 7 106
4 108 14 12 109
4 106 107 108 109
4 113 0 18 112
4 114 3 16 115
4 18 0 3 16
4 113 0 3 114
4 112 18 16 115
4 112 113 114 115
4 166 167 168 169
4 170 171 172 173
4 171 167 168 172
4 171 167 166 170
4 172 168 169 173
4 170 166 169 173
4 119 64 67 120
4 118 68 69 121
4 68 64 67 69
4 119 64 68 118
4 120 67 69 121
4 118 119 120 121
4 125 4 22 124
4 126 7 20 127
4 22 4 7 20
4 125 4 7 126
4 124 22 20 127
4 124 125 126 127
4 174 175 176 177
4 178 179 180 181
4 179 175 176 180
4 179 175 174 178
4 180 176 177 181
4 178 174 177 181
4 131 70 73 132
4 130 74 75 133
4 74 70 73 75
4 131 70 74 130
4 132 73 75 133
4 130 131 132 133
4 137 8 30 136
4 138 11 28 139
4 30 8 11 28
4 137 8 11 138
4 136 30 28 139
4 136 137 138 139
4 182 183 184 185
4 186 187 188 189
4 187 183 184 188
4 187 183 182 186
4 188 184 185 189
4 186 182 185 189
4 143 76 79 144
4 142 80 81 145
4 80 76 79 81
4 143 76 80 142
4 144 79 81 145
4 142 143 144 145
4 149 12 38 148
4 150 15 36 151
4 38 12 15 36
4 149 12 15 150
4 148 38 36 151
4 148 149 150 151
4 190 191 192 193
4 194 195 196 197
4 195 191 192 196
4 190 191 195 194
4 196 192 193 197
4 194 190 193 197
4 155 88 91 156
4 154 92 93 157
4 92 88 91 93
4 155 88 92 154
4 156 91 93 157
4 154 155 156 157
4 198 199 200 201
4 202 203 204 205
4 203 199 200 204
4 198 199 203 202
4 204 200 201 205
4 202 198 201 205
4 161 100 103 162
4 160 104 105 163
4 104 100 103 105
4 161 100 104 160
4 162 103 105 163
4 160 161 162 163
4 206 207 208 209
4 210 211 212 213
4 211 207 208 212
4 206 207 211 210
4 209 208 212 213
4 210 206 209 213
4 214 215 216 217
4 218 219 220 221
4 219 215 216 220
4 214 215 219 218
4 217 216 220 221
4 218 214 217 221
4 65 1 5 66
4 167 1 5 168
4 167 1 65 166
4 168 5 66 169
4 166 65 66 169
4 166 167 168 169
4 64 2 6 67
4 175 2 6 176
4 175 2 64 174
4 176 6 67 177
4 174 64 67 177
4 174 175 176 177
4 70 0 4 73
4 183 0 4 184
4 183 0 70 182
4 184 4 73 185
4 182 70 73 185
4 182 183 184 185
4 76 3 8 79
4 191 3 8 192
4 191 3 76 190
4 192 8 79 193
4 190 76 79 193
4 190 191 192 193
4 88 7 12 91
4 199 7 12 200
4 199 7 88 198
4 200 12 91 201
4 198 88 91 201
4 198 199 200 201
4 100 68 69 103
4 207 68 69 208
4 207 68 100 206
4 208 69 103 209
4 206 100 103 209
4 206 207 208 209
4 170 171 172 173
4 215 171 172 216
4 215 171 170 214
4 216 172 173 217
4 214 170 173 217
4 214 215 216 217
4 178 179 180 181
4 222 179 180 223
4 222 179 178 224
4 223 180 181 225
4 224 178 181 225
4 224 222 223 225
# cell 1: 0 1 2 3
# cell 2: 4 5 6 7
# cell 3: 8 9 10 11
# cell 4: 12 13 14 15
# cell 5: 16 17 18 19
# cell 6: 20 21 22 23
# cell 7: 24 25 26 27
# cell 8: 28 29 30 31
# cell 9: 32 33 34 35
# cell 10: 36 37 38 39
# cell 11: 40 41 42 43
# cell 12: 44 45 46 47
# cell 13: 48 49 50 51
# cell 14: 52 53 54 55
# cell 15: 56 57 58 59
# cell 16: 60 61 62 63
# cell 17: 64 65 66 67 68
# cell 18: 69 70 71 72 73
# cell 19: 74 75 76 77 78
# cell 20: 79 80 81 82 83
# cell 21: 84 85 86 87 88
# cell 22: 89 90 91 92 93
# cell 23: 94 95 96 97 98
# cell 24: 99 100 101 102 103
# cell 25: 104 105 106 107 108
# cell 26: 109 110 111 112 113
# cell 27: 114 115 116 117 118
# cell 28: 119 120 121 122 123
# cell 29: 124 125 126 127 128
# cell 30: 129 130 131 132 133
# cell 31: 134 135 136 137 138
# cell 32: 139 140 141 142 143
# cell 33: 144 145 146 147 148
# cell 34: 149 150 151 152 153
# cell 35: 154 155 156 157 158
# cell 36: 159 160 161 162 163
# cell 37: 164 165 166 167 168
# cell 38: 169 170 171 172 173
# cell 39: 174 175 176 177 178
# cell 40: 179 180 181 182 183
# cell 41: 184 185 186 187 188
# cell 42: 189 190 191 192 193
# cell 43: 194 195 196 197 198
# cell 44: 199 200 201 202 203
# cell 45: 204 205 206 207 208
# cell 46: 209 210 211 212 213
# cell 47: 214 215 216 217 218
# cell 48: 219 220 221 222 223
# cell 49: 224 225 226 227 228 229
# cell 50: 230 231 232 233 234 235
# cell 51: 236 237 238 239 240 241
# cell 52: 242 243 244 245 246 247
# cell 53: 248 249 250 251 252 253
# cell 54: 254 255 256 257 258 259
# cell 55: 260 261 262 263 264 265
# cell 56: 266 267 268 269 270 271
# cell 57: 272 273 274 275 276 277
# cell 58: 278 279 280 281 282 283
# cell 59: 284 285 286 287 288 289
# cell 60: 290 291 292 293 294 295
# cell 61: 296 297 298 299 300 301
# cell 62: 302 303 304 305 306 307
# cell 63: 308 309 310 311 312 313
# cell 64: 314 315 316 317 318 319
# cell 65: 320 321 322 323 324 325
# cell 66: 326 327 328 329 330 331
# cell 67: 332 333 334 335 336 337
# cell 68: 338 339 340 341 342 343
# cell 69: 344 345 346 347 348 349
# cell 70: 350 351 352 353 354 355
# cell 71: 356 357 358 359 360 361
# cell 72: 362 363 364 365 366 367
# cell 73: 368 369 370 371 372 373
# cell 74: 374 375 376 377 378 379
# cell 75: 380 381 382 383 384 385
# cell 76: 386 387 388 389 390 391
# cell 77: 392 393 394 395 396 397
# cell 78: 398 399 400 401 402 403
# cell 79: 404 405 406 407 408 409
# cell 80: 410 411 412 413 414 415