OFF
# face-rotation BFS net; polygonal faces are preserved
# the cell decomposition is listed below as comments
36 48 0
1. -1. 1.
1. 1. 1.
-1. 1. 1.
-1. -1. 1.
1. 1. -1.
-1. 1. -1.
1. -1. -1.
-1. -1. -1.
1. 1. 3.
-1. 1. 3.
1. -1. 3.
-1. -1. 3.
1. 3. 1.
-1. 3. 1.
1. 3. -1.
-1. 3. -1.
3. 1. 1.
3. -1. 1.
3. 1. -1.
3. -1. -1.
-3. 1. 1.
-3. -1. 1.
-3. 1. -1.
-3. -1. -1.
1. -3. 1.
-1. -3. 1.
1. -3. -1.
-1. -3. -1.
1. 1. -3.
-1. 1. -3.
1. -1. -3.
-1. -1. -3.
1. 1. 5.
-1. 1. 5.
1. -1. 5.
-1. -1. 5.
4 0 1 2 3
4 4 1 2 5
4 4 1 0 6
4 5 2 3 7
4 6 0 3 7
4 6 4 5 7
4 0 1 2 3
4 8 1 2 9
4 8 1 0 10
4 9 2 3 11
4 10 0 3 11
4 10 8 9 11
4 4 1 2 5
4 12 1 2 13
4 12 1 4 14
4 13 2 5 15
4 14 4 5 15
4 14 12 13 15
4 4 1 0 6
4 16 1 0 17
4 16 1 4 18
4 17 0 6 19
4 18 4 6 19
4 18 16 17 19
4 5 2 3 7
4 20 2 3 21
4 20 2 5 22
4 21 3 7 23
4 22 5 7 23
4 22 20 21 23
4 6 0 3 7
4 24 0 3 25
4 24 0 6 26
4 25 3 7 27
4 26 6 7 27
4 26 24 25 27
4 6 4 5 7
4 28 4 5 29
4 28 4 6 30
4 29 5 7 31
4 30 6 7 31
4 30 28 29 31
4 10 8 9 11
4 32 8 9 33
4 32 8 10 34
4 33 9 11 35
4 34 10 11 35
4 34 32 33 35
# cell 1: 0 1 2 3 4 5
# cell 2: 6 7 8 9 10 11
# cell 3: 12 13 14 15 16 17
# cell 4: 18 19 20 21 22 23
# cell 5: 24 25 26 27 28 29
# cell 6: 30 31 32 33 34 35
# cell 7: 36 37 38 39 40 41
# cell 8: 42 43 44 45 46 47