OFF
# face-rotation BFS net; polygonal faces are preserved
# the cell decomposition is listed below as comments
284 496 0
0.47140452079103207 -0.9428090415820629 -0.9428090415820628
-0.9428090415820627 -0.9428090415820628 0.47140452079103184
-0.9428090415820628 0.47140452079103184 -0.9428090415820628
0.9428090415820637 -0.4714045207910312 0.9428090415820635
-0.4714045207910311 0.9428090415820635 0.9428090415820635
0.9428090415820635 0.9428090415820635 -0.4714045207910311
-4.595793181781264 0.07063049893239681 0.07063049893239648
-2.8673099388808154 -0.5579088621223123 0.8563047002507822
-2.867309938880815 0.8563047002507822 -0.557908862122312
-4.124388660990233 0.5420350197234284 1.9562485820965223
-2.3959054180897836 1.3277092210418138 1.327709221041814
-4.124388660990232 1.9562485820965225 0.542035019723428
0.07063049893239681 -4.595793181781265 0.07063049893239726
-0.5579088621223118 -2.8673099388808154 0.8563047002507822
0.8563047002507825 -2.8673099388808163 -0.557908862122312
0.5420350197234283 -4.124388660990233 1.9562485820965232
1.3277092210418138 -2.395905418089784 1.3277092210418142
1.9562485820965225 -4.124388660990234 0.5420350197234292
-2.942809041582063 -4.357022603955158 -0.9428090415820645
-2.9428090415820627 -2.942809041582063 0.47140452079103046
-4.357022603955158 -2.942809041582063 -0.9428090415820645
-3.4142135623730945 -4.82842712474619 0.9428090415820618
-4.82842712474619 -3.4142135623730945 0.9428090415820618
-4.82842712474619 -4.82842712474619 -0.47140452079103307
0.07063049893239637 0.0706304989323967 -4.595793181781264
-0.5579088621223125 0.8563047002507826 -2.8673099388808145
0.8563047002507824 -0.557908862122312 -2.8673099388808145
0.542035019723428 1.9562485820965225 -4.124388660990233
1.3277092210418142 1.3277092210418142 -2.395905418089783
1.9562485820965227 0.542035019723428 -4.124388660990233
-2.942809041582064 -0.9428090415820634 -4.357022603955158
-2.9428090415820636 0.47140452079103146 -2.9428090415820627
-4.357022603955158 -0.9428090415820635 -2.9428090415820636
-3.414213562373095 0.9428090415820631 -4.828427124746189
-4.82842712474619 0.9428090415820631 -3.4142135623730945
-4.82842712474619 -0.4714045207910317 -4.82842712474619
2.0975095799613155 2.0975095799613133 3.51172314233441
0.6832960175882206 2.097509579961314 2.097509579961315
2.097509579961315 0.6832960175882188 2.097509579961314
2.097509579961316 3.5117231423344086 2.0975095799613155
2.097509579961315 2.097509579961314 0.6832960175882201
3.51172314233441 2.0975095799613133 2.097509579961315
-0.9428090415820636 -2.942809041582064 -4.357022603955158
0.47140452079103146 -2.9428090415820636 -2.9428090415820627
-0.9428090415820639 -4.3570226039551585 -2.942809041582063
0.9428090415820624 -3.414213562373096 -4.828427124746189
0.9428090415820619 -4.82842712474619 -3.4142135623730936
-0.4714045207910329 -4.828427124746191 -4.828427124746189
-0.5746192083615338 1.4253807916384695 5.115736728926954
-1.3602934096799193 2.053920152693177 3.3872534860265047
-2.4602372915256594 0.9539762708474373 4.644332208135923
-0.9936454490646736 3.363377154890488 4.853845328487491
-2.8792635322287987 2.8919726340994556 4.38244080769646
-2.093589330910414 2.263433273044748 6.11092405059691
-2.9428090415820636 -2.942809041582063 -4.357022603955158
-4.3570226039551585 -2.9428090415820636 -2.9428090415820636
-2.9428090415820636 -4.3570226039551585 -2.9428090415820636
-4.82842712474619 -3.414213562373095 -4.82842712474619
-4.82842712474619 -4.82842712474619 -3.4142135623730954
-3.414213562373096 -4.82842712474619 -4.82842712474619
1.4253807916384647 -0.5746192083615307 5.115736728926956
2.0539201526931734 -1.360293409679918 3.3872534860265078
0.9539762708474329 -2.460237291525657 4.644332208135927
3.3633771548904825 -0.9936454490646704 4.853845328487495
2.891972634099451 -2.879263532228797 4.382440807696465
2.2634332730447424 -2.0935893309104094 6.110924050596913
-0.3523969861393125 -0.35239698613930737 6.004625617815845
-2.2380150693034393 -0.8238015069303389 5.533221097024813
-0.8238015069303444 -2.238015069303434 5.533221097024814
-1.7666105485124075 -0.3523969861393066 7.4188391801889395
-2.2380150693034393 -2.238015069303433 6.947434659397909
-0.3523969861393129 -1.7666105485124017 7.41883918018894
1.4253807916384647 5.115736728926956 -0.57461920836153
2.0539201526931734 3.3872534860265073 -1.3602934096799175
0.9539762708474331 4.644332208135927 -2.4602372915256563
3.363377154890483 4.853845328487494 -0.9936454490646696
2.8919726340994516 4.382440807696464 -2.879263532228796
2.2634332730447424 6.110924050596913 -2.0935893309104086
-0.3523969861393127 6.004625617815844 -0.3523969861393066
-2.238015069303439 5.533221097024813 -0.8238015069303386
-0.8238015069303448 5.533221097024816 -2.238015069303433
-1.7666105485124073 7.4188391801889395 -0.35239698613930437
-2.2380150693034393 6.94743465939791 -2.2380150693034313
-0.35239698613931325 7.418839180188941 -1.7666105485123993
6.004625617815843 -0.35239698613931214 -0.3523969861393069
5.533221097024813 -2.2380150693034384 -0.8238015069303388
5.533221097024814 -0.8238015069303444 -2.2380150693034335
7.418839180188939 -1.7666105485124062 -0.35239698613930504
6.947434659397909 -2.238015069303438 -2.238015069303432
7.4188391801889395 -0.35239698613931203 -1.7666105485124
-9.185449728701347 -2.942809041582061 -2.94280904158206
-7.7712361663282525 -4.357022603955157 -2.9428090415820614
-7.771236166328252 -2.942809041582062 -4.357022603955156
-9.656854249492378 -4.828427124746187 -3.4142135623730923
-8.242640687119284 -4.828427124746187 -4.828427124746187
-9.656854249492378 -3.4142135623730914 -4.828427124746186
-4.357022603955158 -0.9428090415820634 -0.942809041582064
-2.9428090415820627 -0.9428090415820629 0.47140452079103107
-4.874660694160199 -0.9428090415820631 0.9890426109960717
-4.874660694160199 -2.9428090415820627 0.9890426109960715
-0.9428090415820635 -4.357022603955158 -0.942809041582064
-0.9428090415820629 -2.9428090415820627 0.4714045207910309
-0.9428090415820631 -4.874660694160199 0.9890426109960716
-2.9428090415820636 -4.874660694160199 0.9890426109960709
-2.9428090415820627 0.4714045207910316 -0.9428090415820631
-4.874660694160199 0.9890426109960723 -0.9428090415820638
-4.874660694160199 0.9890426109960718 -2.942809041582063
-0.9428090415820638 -0.9428090415820634 -4.357022603955158
-0.9428090415820636 0.47140452079103184 -2.9428090415820622
-0.942809041582064 0.989042610996073 -4.874660694160199
-2.9428090415820636 0.9890426109960723 -4.874660694160198
0.47140452079103135 -2.9428090415820627 -0.9428090415820632
0.9890426109960724 -4.874660694160199 -0.9428090415820634
0.9890426109960723 -4.8746606941602 -2.9428090415820627
-2.249182298568809 1.1650312638042872 1.8316979304709502
-3.34912618041455 0.06508738195854868 3.0887766525803686
-4.023899110883269 1.839804194273007 2.4602372915256585
-3.135010221994379 2.7286930831618976 4.015792847081213
0.4714045207910312 -0.9428090415820631 -2.9428090415820622
0.9890426109960722 -0.9428090415820629 -4.874660694160199
0.989042610996072 -2.942809041582063 -4.874660694160199
1.2031585694162432 1.203158569416246 4.226847840038066
0.4174843680978578 1.8316979304709535 2.4983645971376163
1.2185697592209133 3.1504214117990523 3.770854509051703
-0.559208018556864 3.3726436340212747 4.659743397940591
-4.874660694160199 -4.8746606941602 -0.9428090415820645
-4.874660694160199 -4.8746606941602 -2.942809041582064
1.165031263804285 -2.249182298568808 1.8316979304709538
0.06508738195854424 -3.3491261804145465 3.088776652580372
1.8398041942730026 -4.023899110883267 2.4602372915256647
2.728693083161892 -3.1350102219943765 4.01579284708122
-4.874660694160199 -0.9428090415820645 -4.874660694160198
-4.874660694160199 -2.9428090415820645 -4.874660694160198
1.8316979304709524 0.41748436809785866 2.4983645971376176
3.150421411799049 1.2185697592209155 3.770854509051705
3.37264363402127 -0.5592080185568614 4.659743397940596
-3.126903958192327 -1.712690395819229 3.9776655414692588
-1.7126903958192325 -3.126903958192324 3.9776655414692605
-3.37237652142146 -3.3723765214214554 5.066327649372895
-2.4834876325325714 -2.4834876325325657 6.62188320492845
1.1650312638042846 1.8316979304709535 -2.249182298568808
0.06508738195854424 3.0887766525803717 -3.3491261804145473
1.8398041942730028 2.4602372915256643 -4.023899110883266
2.7286930831618914 4.015792847081219 -3.135010221994376
-0.9428090415820644 -4.874660694160199 -4.8746606941602
-2.9428090415820645 -4.874660694160199 -4.8746606941602
-2.0617593038954145 1.8700923486827263 6.376944866898936
-1.8395370816731933 0.09231457090494982 7.265833755787826
1.2031585694162432 4.226847840038066 1.2031585694162463
1.8316979304709518 2.498364597137618 0.41748436809785866
3.1504214117990497 3.770854509051705 1.2185697592209155
3.372643634021271 4.659743397940595 -0.559208018556861
-3.1269039581923277 3.977665541469259 -1.7126903958192288
-1.7126903958192339 3.9776655414692605 -3.1269039581923233
-3.372376521421461 5.066327649372895 -3.3723765214214554
-2.4834876325325723 6.62188320492845 -2.483487632532565
1.8700923486827203 -2.06175930389541 6.376944866898939
0.09231457090494288 -1.839537081673187 7.265833755787828
-0.5746192083615342 5.1157367289269535 1.4253807916384695
-2.4602372915256603 4.644332208135922 0.953976270847438
-2.0617593038954145 6.376944866898935 1.8700923486827263
-1.839537081673193 7.265833755787825 0.09231457090494966
3.9776655414692597 -3.1269039581923272 -1.7126903958192292
3.9776655414692605 -1.7126903958192325 -3.1269039581923233
5.066327649372895 -3.3723765214214594 -3.372376521421456
6.62188320492845 -2.48348763253257 -2.4834876325325657
1.8700923486827195 6.37694486689894 -2.061759303895409
0.09231457090494177 7.265833755787828 -1.839537081673186
5.115736728926955 -0.574619208361534 1.4253807916384695
4.644332208135924 -2.46023729152566 0.9539762708474375
6.376944866898937 -2.061759303895414 1.8700923486827254
7.265833755787827 -1.8395370816731926 0.0923145709049491
-5.983127663125441 -5.98312766312544 -4.568914100752346
-5.983127663125441 -4.5689141007523455 -5.98312766312544
-4.568914100752347 -5.98312766312544 -5.983127663125441
5.115736728926956 1.425380791638465 -0.57461920836153
4.644332208135927 0.9539762708474333 -2.4602372915256567
6.376944866898939 1.8700923486827206 -2.0617593038954096
7.265833755787828 0.0923145709049426 -1.8395370816731862
-9.185449728701347 -2.942809041582061 -0.9428090415820609
-7.7712361663282525 -4.357022603955157 -0.942809041582062
-9.70308781890639 -4.874660694160196 -0.9428090415820614
-9.70308781890639 -4.874660694160196 -2.942809041582061
-9.185449728701347 -0.9428090415820611 -2.94280904158206
-7.7712361663282525 -0.9428090415820618 -4.357022603955156
-9.70308781890639 -0.942809041582062 -4.8746606941601955
-9.70308781890639 -2.942809041582062 -4.874660694160195
-0.9428090415820631 -9.185449728701348 -2.942809041582061
-0.9428090415820629 -7.771236166328254 -4.357022603955156
-2.9428090415820627 -7.771236166328253 -4.357022603955156
-2.9428090415820627 -9.185449728701348 -2.942809041582061
-0.9428090415820631 -9.70308781890639 -4.874660694160196
-2.9428090415820627 -9.70308781890639 -4.874660694160196
-0.720586819359841 -2.7205868193598404 1.360293409679922
-2.720586819359841 -0.7205868193598396 1.36029340967992
-2.4983645971376185 -2.4983645971376163 2.2491822985688104
-0.7205868193598415 1.360293409679922 -2.7205868193598395
-2.7205868193598404 1.36029340967992 -0.7205868193598397
-2.498364597137619 2.2491822985688104 -2.498364597137616
0.4174843680978578 2.4983645971376163 1.8316979304709535
-2.2491822985688086 1.83169793047095 1.165031263804287
-1.3602934096799197 3.3872534860265042 2.053920152693177
-3.34912618041455 3.088776652580368 0.0650873819585478
1.3602934096799222 -0.7205868193598411 -2.7205868193598395
1.3602934096799202 -2.7205868193598404 -0.7205868193598396
2.249182298568811 -2.4983645971376185 -2.4983645971376163
2.4983645971376167 0.41748436809785805 1.831697930470954
1.8316979304709504 -2.2491822985688086 1.165031263804287
3.387253486026505 -1.3602934096799193 2.053920152693177
2.4983645971376176 1.8316979304709524 0.4174843680978588
1.8316979304709535 1.165031263804285 -2.249182298568808
3.3872534860265078 2.053920152693174 -1.3602934096799175
3.0887766525803686 -3.349126180414549 0.06508738195854791
3.0887766525803717 0.06508738195854458 -3.3491261804145465
4.226847840038066 1.2031585694162437 1.2031585694162463
-7.771236166328252 -0.9428090415820614 0.4714045207910331
-5.771236166328251 -0.9428090415820625 0.47140452079103135
-5.7712361663282525 -2.9428090415820627 0.4714045207910309
-7.771236166328252 -2.9428090415820614 0.4714045207910327
-7.771236166328252 0.47140452079103334 -0.9428090415820614
-5.771236166328252 0.471404520791032 -0.9428090415820629
-5.7712361663282525 0.47140452079103157 -2.9428090415820627
-7.7712361663282525 0.4714045207910329 -2.942809041582061
-5.771236166328253 -4.357022603955158 -0.9428090415820637
-5.771236166328255 -4.357022603955158 -2.9428090415820636
-5.771236166328254 -0.9428090415820635 -4.357022603955157
-5.771236166328255 -2.9428090415820636 -4.357022603955158
-9.185449728701347 -0.9428090415820609 -0.9428090415820607
-0.9428090415820626 -7.771236166328252 0.4714045207910331
-0.9428090415820631 -5.771236166328252 0.47140452079103135
-2.942809041582063 -5.7712361663282525 0.47140452079103135
-2.9428090415820627 -7.771236166328252 0.4714045207910327
0.47140452079103135 -7.7712361663282525 -0.9428090415820614
0.4714045207910309 -5.7712361663282525 -0.9428090415820627
0.4714045207910309 -5.771236166328253 -2.9428090415820627
0.4714045207910318 -7.771236166328253 -2.942809041582061
-4.357022603955158 -7.7712361663282525 -0.9428090415820621
-4.357022603955158 -5.771236166328253 -0.9428090415820639
-4.3570226039551585 -5.771236166328255 -2.9428090415820636
-4.357022603955158 -7.771236166328254 -2.942809041582062
-0.9428090415820639 -5.771236166328255 -4.357022603955157
-2.9428090415820636 -5.771236166328255 -4.357022603955158
-0.9428090415820627 -9.185449728701347 -0.9428090415820607
-2.9428090415820627 -9.185449728701347 -0.9428090415820615
-0.9428090415820636 0.4714045207910331 -7.7712361663282525
-0.9428090415820636 0.4714045207910318 -5.7712361663282525
-2.9428090415820636 0.47140452079103135 -5.7712361663282525
-2.9428090415820636 0.4714045207910327 -7.771236166328252
0.47140452079103157 -0.9428090415820622 -7.7712361663282525
0.4714045207910311 -0.9428090415820629 -5.7712361663282525
0.4714045207910307 -2.942809041582063 -5.7712361663282525
0.4714045207910307 -2.9428090415820622 -7.771236166328253
-4.3570226039551585 -0.9428090415820627 -7.7712361663282525
-4.3570226039551585 -0.9428090415820636 -5.7712361663282525
-4.3570226039551585 -2.9428090415820636 -5.7712361663282525
-4.3570226039551585 -2.9428090415820627 -7.7712361663282525
-0.9428090415820638 -4.357022603955157 -7.771236166328253
-0.942809041582064 -4.3570226039551585 -5.771236166328253
-2.9428090415820636 -4.3570226039551585 -5.771236166328253
-2.9428090415820636 -4.357022603955158 -7.7712361663282525
-0.942809041582064 -2.942809041582062 -9.185449728701348
-0.9428090415820639 -0.9428090415820616 -9.185449728701347
-2.9428090415820636 -0.9428090415820625 -9.185449728701347
-2.9428090415820636 -2.9428090415820622 -9.185449728701348
2.5634519790961634 3.977665541469262 6.253807916384652
1.6745630902072752 3.088776652580373 4.6982523608290965
-0.10321468757050245 3.3109988748025954 5.587141249717984
0.7856742013183853 4.199887763691485 7.142696805273539
3.977665541469258 2.5634519790961665 6.253807916384653
3.0887766525803695 1.674563090207278 4.698252360829097
3.310998874802591 -0.10321468757049956 5.5871412497179875
4.199887763691478 0.7856742013183898 7.142696805273543
-0.31426968052735593 3.0999438818457454 8.399775527382957
-1.2031585694162434 2.211054992956856 6.8442199718274015
-0.9809363471940225 0.43327721517907913 7.733108860716292
-0.09204745830513494 1.3221661040679682 9.288664416271846
3.0999438818457374 -0.31426968052734994 8.39977552738296
2.21105499295685 -1.2031585694162388 6.844219971827405
0.43327721517907203 -0.9809363471940156 7.733108860716293
1.3221661040679598 -0.09204745830512673 9.288664416271848
3.571348402636769 1.5713484026367766 8.871180048173992
3.3491261804145473 3.3491261804145536 7.982291159285102
1.57134840263677 3.5713484026367768 8.87118004817399
1.7935706248589913 1.7935706248589995 9.76006893706288
3 0 1 2
3 3 1 4
3 5 2 4
3 5 0 3
3 4 1 2
3 3 1 0
3 5 2 0
3 5 4 3
3 6 7 8
3 9 7 10
3 11 8 10
3 11 6 9
3 10 7 8
3 9 7 6
3 11 8 6
3 11 10 9
3 12 13 14
3 15 13 16
3 17 14 16
3 17 12 15
3 16 13 14
3 15 13 12
3 17 14 12
3 17 16 15
3 18 19 20
3 21 19 22
3 23 20 22
3 23 18 21
3 22 19 20
3 21 19 18
3 23 20 18
3 23 22 21
3 24 25 26
3 27 25 28
3 29 26 28
3 29 24 27
3 28 25 26
3 27 25 24
3 29 26 24
3 29 28 27
3 30 31 32
3 33 31 34
3 35 32 34
3 35 30 33
3 34 31 32
3 33 31 30
3 35 32 30
3 35 34 33
3 36 37 38
3 39 37 40
3 41 38 40
3 41 36 39
3 40 37 38
3 39 37 36
3 41 38 36
3 41 40 39
3 42 43 44
3 45 43 46
3 47 44 46
3 47 42 45
3 46 43 44
3 45 43 42
3 47 44 42
3 47 46 45
3 48 49 50
3 51 49 52
3 53 50 52
3 53 48 51
3 52 49 50
3 51 49 48
3 53 50 48
3 53 52 51
3 54 55 56
3 57 55 58
3 59 56 58
3 59 54 57
3 58 55 56
3 57 55 54
3 59 56 54
3 59 58 57
3 60 61 62
3 63 61 64
3 65 62 64
3 65 60 63
3 64 61 62
3 63 61 60
3 65 62 60
3 65 64 63
3 66 67 68
3 69 67 70
3 71 68 70
3 71 66 69
3 70 67 68
3 69 67 66
3 71 68 66
3 71 70 69
3 72 73 74
3 75 73 76
3 77 74 76
3 77 72 75
3 76 73 74
3 75 73 72
3 77 74 72
3 77 76 75
3 78 79 80
3 81 79 82
3 83 80 82
3 83 78 81
3 82 79 80
3 81 79 78
3 83 80 78
3 83 82 81
3 84 85 86
3 87 85 88
3 89 86 88
3 89 84 87
3 88 85 86
3 87 85 84
3 89 86 84
3 89 88 87
3 90 91 92
3 93 91 94
3 95 92 94
3 95 90 93
3 94 91 92
3 93 91 90
3 95 92 90
3 95 94 93
4 2 1 7 8
4 4 1 7 10
4 4 2 8 10
3 4 1 2
3 10 7 8
4 0 1 13 14
4 3 1 13 16
4 3 0 14 16
3 3 1 0
3 16 13 14
4 96 97 19 20
4 98 97 19 99
4 98 96 20 99
3 98 97 96
3 99 19 20
4 25 2 0 26
4 5 2 25 28
4 5 0 26 28
3 5 2 0
3 28 25 26
4 100 101 19 18
4 102 101 19 103
4 102 100 18 103
3 102 101 100
3 103 19 18
4 31 104 96 32
4 105 104 31 106
4 105 96 32 106
3 105 104 96
3 106 31 32
4 37 4 3 38
4 5 4 37 40
4 38 3 5 40
3 5 4 3
3 40 37 38
4 107 108 31 30
4 109 108 31 110
4 109 107 30 110
3 109 108 107
3 110 31 30
4 43 111 100 44
4 112 111 43 113
4 112 100 44 113
3 112 111 100
3 113 43 44
4 49 114 115 50
4 116 114 49 117
4 50 115 116 117
3 116 114 115
3 117 49 50
4 107 118 43 42
4 119 118 43 120
4 119 107 42 120
3 119 118 107
3 120 43 42
4 121 122 49 48
4 123 122 49 124
4 123 121 48 124
3 123 122 121
3 124 49 48
4 55 20 18 56
4 125 20 55 126
4 125 18 56 126
3 125 20 18
3 126 55 56
4 61 127 128 62
4 129 127 61 130
4 62 128 129 130
3 129 127 128
3 130 61 62
4 30 32 55 54
4 131 32 55 132
4 131 30 54 132
3 131 32 30
3 132 55 54
4 121 133 61 60
4 134 133 61 135
4 134 121 60 135
3 134 133 121
3 135 61 60
4 67 136 137 68
4 138 136 67 139
4 68 137 138 139
3 138 136 137
3 139 67 68
4 73 140 141 74
4 142 140 73 143
4 74 141 142 143
3 142 140 141
3 143 73 74
4 42 44 56 54
4 144 44 56 145
4 144 42 54 145
3 144 44 42
3 145 56 54
4 48 50 67 66
4 146 50 67 147
4 146 48 66 147
3 146 50 48
3 147 67 66
4 148 149 73 72
4 150 149 73 151
4 72 148 150 151
3 150 149 148
3 151 73 72
4 79 152 153 80
4 154 152 79 155
4 80 153 154 155
3 154 152 153
3 155 79 80
4 60 62 68 66
4 156 62 68 157
4 156 60 66 157
3 156 62 60
3 157 68 66
4 158 159 79 78
4 160 159 79 161
4 78 158 160 161
3 160 159 158
3 161 79 78
4 85 162 163 86
4 164 162 85 165
4 86 163 164 165
3 164 162 163
3 165 85 86
4 72 74 80 78
4 166 74 80 167
4 166 72 78 167
3 166 74 72
3 167 80 78
4 168 169 85 84
4 170 169 85 171
4 84 168 170 171
3 170 169 168
3 171 85 84
4 172 58 57 173
4 59 58 172 174
4 173 57 59 174
3 59 58 57
3 174 172 173
4 175 176 86 84
4 177 176 86 178
4 177 175 84 178
3 177 176 175
3 178 86 84
4 179 180 91 90
4 181 180 91 182
4 90 179 181 182
3 181 180 179
3 182 91 90
4 183 184 92 90
4 185 184 92 186
4 185 183 90 186
3 185 184 183
3 186 92 90
4 187 188 189 190
4 191 188 189 192
4 191 187 190 192
3 191 188 187
3 192 189 190
4 101 1 97 19
4 108 2 104 31
4 118 0 111 43
4 32 96 20 55
4 44 100 18 56
4 42 107 30 54
4 2 1 97 104
4 0 1 101 111
4 96 97 19 20
4 108 2 0 118
4 100 101 19 18
4 31 104 96 32
4 107 108 31 30
4 43 111 100 44
4 107 118 43 42
4 55 20 18 56
4 30 32 55 54
4 42 44 56 54
3 0 1 2
3 96 97 104
3 100 101 111
3 18 19 20
3 107 108 118
3 30 31 32
3 42 43 44
3 54 55 56
4 193 1 194 195
4 122 4 114 49
4 133 3 127 61
4 50 115 136 67
4 62 128 137 68
4 60 121 48 66
4 4 1 194 114
4 3 1 193 127
4 115 194 195 136
4 122 4 3 133
4 128 193 195 137
4 49 114 115 50
4 121 122 49 48
4 61 127 128 62
4 121 133 61 60
4 67 136 137 68
4 48 50 67 66
4 60 62 68 66
3 3 1 4
3 115 194 114
3 128 193 127
3 137 195 136
3 121 122 133
3 48 49 50
3 60 61 62
3 66 67 68
4 196 2 197 198
4 199 4 200 201
4 149 5 140 73
4 159 202 152 79
4 74 141 153 80
4 72 148 158 78
4 4 2 197 200
4 5 2 196 140
4 202 197 198 152
4 5 4 199 149
4 141 196 198 153
4 202 200 201 159
4 148 199 201 158
4 73 140 141 74
4 148 149 73 72
4 79 152 153 80
4 158 159 79 78
4 72 74 80 78
3 5 2 4
3 202 197 200
3 141 196 140
3 153 198 152
3 148 199 149
3 158 201 159
3 72 73 74
3 78 79 80
4 203 0 204 205
4 206 3 207 208
4 209 5 210 211
4 169 212 162 85
4 176 213 163 86
4 175 214 168 84
4 3 0 204 207
4 5 0 203 210
4 212 204 205 162
4 206 3 5 209
4 213 203 205 163
4 212 207 208 169
4 214 206 208 168
4 213 210 211 176
4 214 209 211 175
4 85 162 163 86
4 168 169 85 84
4 175 176 86 84
3 5 0 3
3 212 204 207
3 213 203 210
3 163 205 162
3 214 206 209
3 168 208 169
3 175 211 176
3 84 85 86
4 32 96 20 55
4 215 216 217 218
4 219 220 221 222
4 180 223 224 91
4 184 225 226 92
4 183 227 179 90
4 216 96 20 217
4 220 96 32 221
4 223 20 55 224
4 215 216 220 219
4 225 32 55 226
4 223 217 218 180
4 227 215 218 179
4 225 221 222 184
4 227 219 222 183
4 91 224 226 92
4 179 180 91 90
4 183 184 92 90
3 220 96 216
3 223 20 217
3 225 32 221
3 226 55 224
3 227 215 219
3 179 218 180
3 183 222 184
3 90 91 92
4 44 100 18 56
4 228 229 230 231
4 232 233 234 235
4 236 237 238 239
4 188 240 241 189
4 187 242 243 190
4 229 100 18 230
4 233 100 44 234
4 237 18 56 238
4 228 229 233 232
4 240 44 56 241
4 231 230 237 236
4 242 228 231 243
4 240 234 235 188
4 242 232 235 187
4 241 238 239 189
4 243 236 239 190
4 187 188 189 190
3 233 100 229
3 237 18 230
3 240 44 234
3 241 56 238
3 242 228 232
3 243 231 236
3 187 235 188
3 190 239 189
4 42 107 30 54
4 244 245 246 247
4 248 249 250 251
4 252 253 254 255
4 256 257 258 259
4 260 261 262 263
4 245 107 30 246
4 249 107 42 250
4 253 30 54 254
4 244 245 249 248
4 257 42 54 258
4 247 246 253 252
4 261 244 247 262
4 251 250 257 256
4 261 248 251 260
4 255 254 258 259
4 262 252 255 263
4 260 256 259 263
3 249 107 245
3 253 30 246
3 257 42 250
3 258 54 254
3 261 244 248
3 262 247 252
3 260 251 256
3 263 255 259
4 60 121 48 66
4 264 265 266 267
4 268 269 270 271
4 272 273 274 275
4 276 277 278 279
4 280 281 282 283
4 265 121 48 266
4 269 121 60 270
4 273 48 66 274
4 264 265 269 268
4 277 60 66 278
4 267 266 273 272
4 281 264 267 282
4 271 270 277 276
4 281 268 271 280
4 275 274 278 279
4 282 272 275 283
4 280 276 279 283
3 269 121 265
3 273 48 266
3 277 60 270
3 278 66 274
3 281 264 268
3 282 267 272
3 280 271 276
3 283 275 279
# cell 1: 0 1 2 3 4 5 6 7
# cell 2: 8 9 10 11 12 13 14 15
# cell 3: 16 17 18 19 20 21 22 23
# cell 4: 24 25 26 27 28 29 30 31
# cell 5: 32 33 34 35 36 37 38 39
# cell 6: 40 41 42 43 44 45 46 47
# cell 7: 48 49 50 51 52 53 54 55
# cell 8: 56 57 58 59 60 61 62 63
# cell 9: 64 65 66 67 68 69 70 71
# cell 10: 72 73 74 75 76 77 78 79
# cell 11: 80 81 82 83 84 85 86 87
# cell 12: 88 89 90 91 92 93 94 95
# cell 13: 96 97 98 99 100 101 102 103
# cell 14: 104 105 106 107 108 109 110 111
# cell 15: 112 113 114 115 116 117 118 119
# cell 16: 120 121 122 123 124 125 126 127
# cell 17: 128 129 130 131 132
# cell 18: 133 134 135 136 137
# cell 19: 138 139 140 141 142
# cell 20: 143 144 145 146 147
# cell 21: 148 149 150 151 152
# cell 22: 153 154 155 156 157
# cell 23: 158 159 160 161 162
# cell 24: 163 164 165 166 167
# cell 25: 168 169 170 171 172
# cell 26: 173 174 175 176 177
# cell 27: 178 179 180 181 182
# cell 28: 183 184 185 186 187
# cell 29: 188 189 190 191 192
# cell 30: 193 194 195 196 197
# cell 31: 198 199 200 201 202
# cell 32: 203 204 205 206 207
# cell 33: 208 209 210 211 212
# cell 34: 213 214 215 216 217
# cell 35: 218 219 220 221 222
# cell 36: 223 224 225 226 227
# cell 37: 228 229 230 231 232
# cell 38: 233 234 235 236 237
# cell 39: 238 239 240 241 242
# cell 40: 243 244 245 246 247
# cell 41: 248 249 250 251 252
# cell 42: 253 254 255 256 257
# cell 43: 258 259 260 261 262
# cell 44: 263 264 265 266 267
# cell 45: 268 269 270 271 272
# cell 46: 273 274 275 276 277
# cell 47: 278 279 280 281 282
# cell 48: 283 284 285 286 287
# cell 49: 288 289 290 291 292 293 294 295 296 297 298 299 300 301 302 303 304 305 306 307 308 309 310 311 312 313
# cell 50: 314 315 316 317 318 319 320 321 322 323 324 325 326 327 328 329 330 331 332 333 334 335 336 337 338 339
# cell 51: 340 341 342 343 344 345 346 347 348 349 350 351 352 353 354 355 356 357 358 359 360 361 362 363 364 365
# cell 52: 366 367 368 369 370 371 372 373 374 375 376 377 378 379 380 381 382 383 384 385 386 387 388 389 390 391
# cell 53: 392 393 394 395 396 397 398 399 400 401 402 403 404 405 406 407 408 409 410 411 412 413 414 415 416 417
# cell 54: 418 419 420 421 422 423 424 425 426 427 428 429 430 431 432 433 434 435 436 437 438 439 440 441 442 443
# cell 55: 444 445 446 447 448 449 450 451 452 453 454 455 456 457 458 459 460 461 462 463 464 465 466 467 468 469
# cell 56: 470 471 472 473 474 475 476 477 478 479 480 481 482 483 484 485 486 487 488 489 490 491 492 493 494 495