OFF
# face-rotation BFS net; polygonal faces are preserved
# the cell decomposition is listed below as comments
639 736 0
-0.23570226039551548 -1.6499158227686104 -1.6499158227686104
-1.6499158227686102 -1.6499158227686104 -0.2357022603955157
-1.6499158227686104 -0.2357022603955157 -1.6499158227686104
0.707106781186548 -0.7071067811865469 2.1213203435596424
-1.1785113019775784 -1.1785113019775786 1.6499158227686108
-0.7071067811865468 0.7071067811865478 2.1213203435596424
0.7071067811865478 2.121320343559643 -0.7071067811865468
-1.1785113019775786 1.6499158227686113 -1.1785113019775786
-0.7071067811865469 2.121320343559643 0.7071067811865476
2.121320343559643 0.7071067811865478 -0.7071067811865468
1.6499158227686113 -1.1785113019775786 -1.1785113019775784
2.121320343559643 -0.7071067811865469 0.7071067811865478
-5.302899962967811 -0.6364762822541514 -0.6364762822541515
-3.574416720067362 -1.26501564330886 0.1491979190642344
-3.5744167200673624 0.14919791906423474 -1.26501564330886
-4.360090921385748 0.30633275932791215 3.1347598840741018
-3.10301219927633 -0.7936111225178284 2.0348160022283612
-2.631607678485299 1.0920069606462983 2.506220523019393
-4.360090921385748 3.1347598840741027 0.30633275932791193
-3.10301219927633 2.0348160022283617 -0.7936111225178283
-2.631607678485299 2.5062205230193935 1.0920069606462979
-6.088574164286198 2.3490856827557156 0.9348721203826208
-6.55997868507723 0.4634675995915893 0.4634675995915891
-6.088574164286198 0.9348721203826211 2.349085682755715
-0.6364762822541505 -5.302899962967811 -0.6364762822541516
-1.2650156433088595 -3.5744167200673633 0.1491979190642343
0.14919791906423485 -3.5744167200673624 -1.26501564330886
0.30633275932791293 -4.360090921385749 3.1347598840741013
-0.7936111225178277 -3.103012199276331 2.034816002228361
1.0920069606462983 -2.631607678485299 2.506220523019392
3.134759884074102 -4.360090921385748 0.3063327593279117
2.0348160022283617 -3.10301219927633 -0.7936111225178284
2.506220523019393 -2.631607678485299 1.0920069606462979
2.349085682755717 -6.088574164286198 0.9348721203826205
0.4634675995915904 -6.55997868507723 0.46346759959158895
0.934872120382622 -6.088574164286198 2.3490856827557147
-3.6499158227686106 -5.0641293851417055 -1.6499158227686106
-3.6499158227686106 -3.6499158227686097 -0.23570226039551637
-5.0641293851417055 -3.6499158227686097 -1.6499158227686106
-4.592724864350674 -6.006938426723767 2.1213203435596424
-4.121320343559642 -4.121320343559642 1.649915822768611
-6.006938426723769 -4.592724864350672 2.1213203435596424
-7.421151989096865 -6.006938426723768 -0.7071067811865474
-6.949747468305833 -4.121320343559642 -1.1785113019775788
-7.421151989096864 -4.592724864350673 0.7071067811865474
-6.00693842672377 -7.421151989096864 -0.7071067811865474
-4.121320343559643 -6.949747468305832 -1.1785113019775784
-4.592724864350674 -7.421151989096863 0.7071067811865479
-0.6364762822541514 -0.6364762822541515 -5.302899962967811
-1.26501564330886 0.14919791906423463 -3.5744167200673633
0.14919791906423485 -1.26501564330886 -3.574416720067363
0.30633275932791204 3.1347598840741013 -4.3600909213857495
-0.7936111225178282 2.0348160022283612 -3.103012199276331
1.0920069606462983 2.506220523019393 -2.6316076784852998
3.1347598840741013 0.3063327593279117 -4.360090921385749
2.0348160022283617 -0.7936111225178285 -3.103012199276331
2.506220523019393 1.0920069606462979 -2.6316076784852993
2.3490856827557156 0.9348721203826205 -6.088574164286198
0.4634675995915891 0.4634675995915888 -6.55997868507723
0.9348721203826208 2.349085682755715 -6.088574164286198
-3.6499158227686115 -1.6499158227686093 -5.064129385141704
-3.6499158227686106 -0.2357022603955155 -3.649915822768609
-5.0641293851417055 -1.64991582276861 -3.6499158227686097
-4.592724864350674 2.1213203435596433 -6.0069384267237655
-4.121320343559642 1.6499158227686115 -4.12132034355964
-6.006938426723769 2.1213203435596433 -4.592724864350671
-7.421151989096865 -0.707106781186546 -6.006938426723767
-6.949747468305832 -1.178511301977578 -4.12132034355964
-7.421151989096864 0.7071067811865479 -4.592724864350671
-6.006938426723771 -0.7071067811865456 -7.421151989096862
-4.121320343559644 -1.1785113019775773 -6.949747468305831
-4.592724864350675 0.7071067811865488 -7.421151989096861
1.861807319565799 1.8618073195657985 4.690234444311989
0.447593757192704 1.8618073195657987 3.276020881938894
1.861807319565799 0.447593757192704 3.2760208819388934
1.8618073195657998 4.69023444431199 1.8618073195658007
0.44759375719270444 3.2760208819388947 1.8618073195657998
1.8618073195657994 3.276020881938895 0.44759375719270533
4.69023444431199 1.861807319565799 1.8618073195658003
3.2760208819388943 0.44759375719270444 1.8618073195657994
3.2760208819388943 1.8618073195657991 0.4475937571927049
4.69023444431199 3.2760208819388934 3.276020881938896
3.2760208819388943 3.2760208819388934 4.69023444431199
3.276020881938895 4.690234444311988 3.2760208819388965
-1.6499158227686104 -3.6499158227686097 -5.0641293851417055
-0.23570226039551603 -3.6499158227686097 -3.64991582276861
-1.6499158227686104 -5.064129385141705 -3.6499158227686106
2.121320343559642 -4.592724864350673 -6.006938426723768
1.6499158227686108 -4.121320343559641 -4.121320343559642
2.1213203435596415 -6.006938426723767 -4.592724864350673
-0.7071067811865475 -7.421151989096863 -6.006938426723769
-1.1785113019775786 -6.949747468305832 -4.121320343559643
0.7071067811865472 -7.421151989096863 -4.592724864350673
-0.7071067811865475 -6.006938426723768 -7.421151989096864
-1.1785113019775788 -4.121320343559642 -6.949747468305833
0.7071067811865469 -4.592724864350673 -7.421151989096863
-0.8103214687570495 1.1896785312429492 6.294248030904537
-1.5959956700754354 1.8182178922976584 4.565764788004088
-2.6959395519211755 0.7182740104519176 5.822843510113506
-1.6483739501633283 5.0656712577469865 5.770465230025614
-2.0150219107785747 3.756214255549678 4.303873387564627
-3.533992033327454 4.594266736955956 5.299060709234582
-3.848261713854809 2.865783494055506 8.28462267424445
-4.214909674470055 1.5563264918581963 6.818030831783462
-4.633935915173194 3.494322855110215 6.5561394313440005
-1.9626436306906825 3.3371880148465376 8.75602719503548
-0.44367350814180306 2.499135533440259 7.760839873365525
-0.8626997488449424 4.437131896692278 7.498948472926063
-3.6499158227686124 -3.6499158227686106 -5.064129385141706
-5.064129385141706 -3.6499158227686097 -3.6499158227686115
-3.6499158227686133 -5.064129385141706 -3.6499158227686124
-7.421151989096867 -4.592724864350671 -6.00693842672377
-6.949747468305834 -4.12132034355964 -4.121320343559643
-7.4211519890968685 -6.006938426723766 -4.592724864350677
-4.59272486435068 -7.421151989096863 -6.006938426723773
-4.121320343559647 -6.949747468305833 -4.1213203435596455
-6.006938426723774 -7.421151989096863 -4.592724864350678
-4.5927248643506795 -6.006938426723767 -7.421151989096867
-4.1213203435596455 -4.121320343559641 -6.949747468305834
-6.006938426723773 -4.5927248643506715 -7.421151989096866
1.1896785312429499 -0.8103214687570508 6.294248030904537
1.8182178922976582 -1.595995670075436 4.565764788004087
0.7182740104519181 -2.6959395519211764 5.822843510113505
5.0656712577469865 -1.64837395016333 5.770465230025612
3.7562142555496774 -2.015021910778576 4.303873387564624
4.594266736955955 -3.533992033327456 5.299060709234579
2.8657834940555054 -3.848261713854812 8.284622674244448
1.556326491858196 -4.214909674470057 6.81803083178346
3.494322855110214 -4.633935915173197 6.556139431343998
3.337188014846538 -1.9626436306906851 8.756027195035479
2.4991355334402603 -0.4436735081418053 7.760839873365525
4.437131896692279 -0.8626997488449446 7.498948472926062
-0.5880992465348274 -0.5880992465348289 7.183136919793424
-2.473717329698954 -1.0595037673258605 6.7117323990023925
-1.0595037673258592 -2.473717329698955 6.7117323990023925
-3.4165263712810177 -0.5880992465348294 10.011564044539615
-3.887930892072049 -1.059503767325861 8.125945961375487
-3.8879308920720494 -2.473717329698956 9.540159523748581
-0.5880992465348278 -3.4165263712810185 10.011564044539613
-1.0595037673258592 -3.8879308920720503 8.125945961375487
-2.4737173296989545 -3.887930892072051 9.540159523748581
-0.11669472574379602 -1.5309082881168923 10.482968565330644
-0.11669472574379602 -0.11669472574379758 9.068755002957552
-1.530908288116891 -0.11669472574379758 10.482968565330646
1.1896785312429488 6.294248030904537 -0.8103214687570504
1.8182178922976577 4.5657647880040875 -1.5959956700754359
0.7182740104519159 5.822843510113505 -2.6959395519211764
5.0656712577469865 5.770465230025615 -1.648373950163331
3.756214255549677 4.303873387564627 -2.0150219107785765
4.594266736955954 5.299060709234583 -3.533992033327457
2.865783494055502 8.28462267424445 -3.8482617138548116
1.556326491858193 6.818030831783461 -4.214909674470057
3.494322855110212 6.556139431344 -4.633935915173197
3.337188014846535 8.75602719503548 -1.9626436306906845
2.499135533440258 7.7608398733655255 -0.4436735081418042
4.437131896692277 7.498948472926065 -0.8626997488449446
-0.5880992465348287 7.183136919793426 -0.5880992465348285
-2.473717329698955 6.711732399002394 -1.05950376732586
-1.0595037673258605 6.711732399002395 -2.473717329698954
-3.4165263712810185 10.011564044539616 -0.588099246534828
-3.8879308920720494 8.12594596137549 -1.05950376732586
-3.88793089207205 9.540159523748585 -2.4737173296989545
-0.5880992465348291 10.011564044539616 -3.4165263712810177
-1.059503767325861 8.12594596137549 -3.8879308920720494
-2.473717329698955 9.540159523748585 -3.887930892072049
-0.11669472574379713 10.482968565330648 -1.5309082881168905
-0.11669472574379713 9.068755002957552 -0.11669472574379602
-1.5309082881168916 10.482968565330648 -0.11669472574379602
7.1831369197934265 -0.588099246534828 -0.5880992465348274
6.711732399002395 -2.473717329698954 -1.0595037673258594
6.711732399002393 -1.0595037673258596 -2.473717329698953
10.011564044539618 -3.4165263712810168 -0.5880992465348311
8.125945961375491 -3.887930892072049 -1.059503767325861
9.540159523748585 -3.887930892072048 -2.4737173296989567
10.011564044539615 -0.5880992465348267 -3.4165263712810194
8.125945961375487 -1.0595037673258587 -3.8879308920720494
9.540159523748583 -2.4737173296989527 -3.887930892072051
10.482968565330648 -0.11669472574379536 -1.530908288116893
9.068755002957554 -0.11669472574379602 -0.11669472574379736
10.482968565330648 -1.5309082881168898 -0.11669472574379869
-10.836121059992626 3.015752349422382 3.0157523494223804
-11.307525580783658 1.1301342662582554 2.5443478286313486
-11.30752558078366 2.544347828631351 1.1301342662582545
-14.293087545793522 1.4444039467856074 4.272831071531801
-13.036008823684107 0.34446006493986836 3.172887189686059
-14.764492066584555 0.972999425994576 2.387212988367675
-14.293087545793526 4.272831071531798 1.4444039467856125
-13.03600882368411 3.172887189686059 0.344460064939871
-14.764492066584557 2.3872129883676716 0.9729994259945809
-13.821683025002493 4.7442355923228305 3.3300220299497383
-12.093199782102044 4.115696231268122 4.115696231268123
-13.821683025002491 3.3300220299497347 4.744235592322832
-5.064129385141705 -1.6499158227686102 -1.6499158227686106
-3.6499158227686097 -1.64991582276861 -0.23570226039551645
-6.099405565551788 -1.6499158227686102 2.2137874823876627
-4.167553912973651 -1.64991582276861 1.6961493921826207
-4.167553912973651 -3.6499158227686097 1.6961493921826207
-6.099405565551788 -3.6499158227686097 2.2137874823876627
-7.513619127924883 -1.6499158227686106 0.7995739200145677
-6.995981037719842 -1.6499158227686106 -1.1322777325635685
-6.995981037719842 -3.6499158227686106 -1.1322777325635687
-7.513619127924883 -3.64991582276861 0.7995739200145676
-1.6499158227686102 -5.0641293851417055 -1.6499158227686113
-1.64991582276861 -3.6499158227686106 -0.23570226039551612
-1.6499158227686106 -6.0994055655517885 2.2137874823876618
-1.6499158227686102 -4.167553912973653 1.6961493921826207
-3.6499158227686097 -4.167553912973652 1.6961493921826203
-3.6499158227686106 -6.0994055655517885 2.2137874823876613
-1.649915822768611 -7.513619127924883 0.7995739200145661
-1.6499158227686106 -6.995981037719842 -1.1322777325635696
-3.6499158227686106 -6.995981037719842 -1.13227773256357
-3.6499158227686106 -7.513619127924883 0.799573920014566
-3.6499158227686106 -0.23570226039551478 -1.6499158227686104
-6.099405565551789 2.213787482387662 -1.6499158227686115
-4.167553912973652 1.6961493921826212 -1.6499158227686108
-4.167553912973652 1.6961493921826207 -3.6499158227686106
-6.099405565551789 2.2137874823876613 -3.6499158227686115
-7.513619127924883 0.7995739200145661 -1.649915822768612
-6.995981037719842 -1.1322777325635691 -1.6499158227686115
-6.995981037719842 -1.1322777325635698 -3.649915822768611
-7.513619127924883 0.7995739200145653 -3.6499158227686115
-1.6499158227686102 -1.6499158227686102 -5.064129385141705
-1.6499158227686102 -0.23570226039551556 -3.6499158227686097
-1.6499158227686093 2.2137874823876627 -6.0994055655517885
-1.6499158227686093 1.6961493921826214 -4.167553912973651
-3.6499158227686093 1.6961493921826218 -4.167553912973652
-3.649915822768609 2.213787482387663 -6.0994055655517885
-1.6499158227686097 0.7995739200145682 -7.513619127924883
-1.64991582276861 -1.1322777325635687 -6.995981037719842
-3.6499158227686097 -1.1322777325635682 -6.995981037719843
-3.6499158227686097 0.799573920014568 -7.513619127924883
-0.2357022603955159 -3.6499158227686106 -1.6499158227686102
2.2137874823876613 -6.0994055655517885 -1.6499158227686113
1.6961493921826207 -4.167553912973652 -1.6499158227686108
1.6961493921826205 -4.167553912973652 -3.64991582276861
2.2137874823876613 -6.0994055655517885 -3.649915822768611
0.7995739200145664 -7.513619127924883 -1.6499158227686115
-1.1322777325635698 -6.995981037719842 -1.6499158227686113
-1.1322777325635702 -6.995981037719842 -3.6499158227686106
0.7995739200145656 -7.513619127924883 -3.6499158227686115
-2.4848845589643247 0.9293290034087698 3.0102092324485312
-3.584828440810065 -0.17061487843697076 4.267287954557949
-2.2707686005441556 3.5929347046121176 3.9372254269493783
-3.1596574894330445 2.7040458157232288 2.3816698713938225
-4.9343743017475035 3.3788187461919468 3.0102092324485312
-4.045485412858615 4.2677076350808365 4.5657647880040875
-4.470656364235637 1.393046940920636 6.451382871168214
-5.359545253124525 0.504158052031747 4.895827315612658
-6.0343181835932445 2.2788748643462053 4.26728795455795
-5.145429294704356 3.1677637532350946 5.822843510113505
-0.23570226039551623 -1.64991582276861 -3.649915822768609
2.213787482387663 -1.6499158227686097 -6.099405565551788
1.696149392182621 -1.6499158227686097 -4.16755391297365
1.696149392182621 -3.6499158227686093 -4.167553912973651
2.2137874823876627 -3.6499158227686093 -6.099405565551788
0.7995739200145677 -1.6499158227686097 -7.5136191279248825
-1.1322777325635691 -1.64991582276861 -6.995981037719841
-1.132277732563569 -3.6499158227686097 -6.995981037719842
0.7995739200145677 -3.6499158227686097 -7.513619127924883
0.967456309020728 0.9674563090207267 5.405359142015648
0.18178210770234188 1.5959956700754356 3.676875899115198
0.9982786886300677 4.861981993786339 4.493372480042924
0.19719329750701176 3.543258512458242 3.2208825681288373
-1.5805844802707658 3.765480734680464 4.109771457017725
-0.7794990891477097 5.084204216008561 5.382261368931814
1.783952889948454 4.23344263273163 6.221855722943374
1.768541700143784 2.2861797903488243 6.677849053929736
-0.009236077633993395 2.5084020125710462 7.566737942818625
0.006175112170676331 4.455664854953852 7.1107446118322635
-7.513619127924883 -6.099405565551787 -1.6499158227686115
-6.99598103771984 -4.16755391297365 -1.6499158227686106
-6.995981037719841 -4.167553912973651 -3.64991582276861
-7.513619127924883 -6.099405565551787 -3.6499158227686106
-6.0994055655517885 -7.5136191279248825 -1.6499158227686115
-4.167553912973652 -6.995981037719841 -1.6499158227686104
-4.167553912973652 -6.995981037719841 -3.64991582276861
-6.0994055655517885 -7.5136191279248825 -3.6499158227686106
0.9293290034087704 -2.4848845589643247 3.0102092324485303
-0.17061487843696987 -3.5848284408100652 4.267287954557948
3.5929347046121185 -2.270768600544155 3.937225426949377
2.7040458157232297 -3.1596574894330436 2.3816698713938216
3.378818746191948 -4.9343743017475035 3.0102092324485303
4.2677076350808365 -4.045485412858615 4.565764788004086
1.3930469409206374 -4.470656364235637 6.451382871168212
0.5041580520317486 -5.359545253124526 4.895827315612657
2.2788748643462076 -6.0343181835932445 4.267287954557948
3.1677637532350964 -5.145429294704356 5.822843510113504
-7.513619127924884 -1.6499158227686088 -6.099405565551788
-6.995981037719843 -1.6499158227686097 -4.167553912973651
-6.995981037719843 -3.6499158227686097 -4.167553912973652
-7.513619127924885 -3.649915822768609 -6.0994055655517885
-6.099405565551789 -1.6499158227686088 -7.513619127924883
-4.167553912973653 -1.6499158227686097 -6.995981037719841
-4.167553912973654 -3.6499158227686097 -6.995981037719842
-6.09940556555179 -3.649915822768609 -7.513619127924883
1.5959956700754363 0.18178210770234143 3.676875899115198
4.8619819937863396 0.9982786886300661 4.4933724800429236
3.5432585124582427 0.19719329750701092 3.2208825681288364
3.765480734680464 -1.5805844802707667 4.109771457017724
5.084204216008561 -0.7794990891477118 5.382261368931812
4.233442632731631 1.783952889948452 6.221855722943374
2.2861797903488252 1.7685417001437824 6.6778490539297355
2.5084020125710476 -0.009236077633995712 7.566737942818625
4.455664854953853 0.006175112170673805 7.110744611832262
-3.3626062185878425 -1.9483926562147484 5.156176843446838
-1.948392656214747 -3.3626062185878434 5.156176843446837
-4.133403455301182 -1.3049763305549942 7.800394506906028
-5.02229234419007 -2.193865219443883 6.244838951350473
-5.2677649074192034 -3.8535513450461107 7.333501059254107
-4.378876018530315 -2.9646624561572223 8.889056614809663
-1.3049763305549913 -4.133403455301183 7.800394506906027
-2.1938652194438797 -5.022292344190072 6.244838951350471
-3.8535513450461085 -5.267764907419206 7.333501059254107
-2.9646624561572197 -4.378876018530317 8.889056614809663
0.9293290034087702 3.010209232448532 -2.4848845589643247
-0.17061487843697165 4.2672879545579505 -3.5848284408100644
3.592934704612118 3.9372254269493796 -2.2707686005441556
2.7040458157232297 2.381669871393824 -3.1596574894330445
3.3788187461919468 3.010209232448534 -4.9343743017475035
4.267707635080836 4.56576478800409 -4.045485412858615
1.3930469409206345 6.4513828711682155 -4.470656364235635
0.5041580520317461 4.89582731561266 -5.359545253124524
2.278874864346205 4.267287954557952 -6.034318183593243
3.1677637532350937 5.822843510113508 -5.145429294704355
-1.6499158227686097 -7.513619127924883 -6.099405565551788
-1.6499158227686102 -6.995981037719842 -4.167553912973651
-3.6499158227686097 -6.995981037719842 -4.167553912973652
-3.6499158227686097 -7.513619127924883 -6.0994055655517885
-1.6499158227686102 -6.0994055655517885 -7.5136191279248825
-1.6499158227686102 -4.167553912973652 -6.995981037719841
-3.64991582276861 -4.167553912973652 -6.995981037719842
-3.6499158227686097 -6.0994055655517885 -7.513619127924883
-3.784601659824812 2.079101645331459 8.816664306848502
-4.183079647455058 1.1629855674961722 7.084051648085488
-3.9608574252328355 -0.6147922102816055 7.972940536974376
-3.5623794376025897 0.3013238675536811 9.70555319573739
-1.8989835766606853 2.550506166122491 9.288068827639533
-0.4118434811268046 2.1057946090782353 8.026860689667553
-0.18962125890458248 0.3280168313004579 8.91574957855644
-1.6767613544384632 0.7727283883447127 10.176957716528422
0.9674563090207271 5.405359142015649 0.9674563090207275
1.5959956700754365 3.676875899115199 0.18178210770234218
4.86198199378634 4.493372480042927 0.9982786886300681
3.5432585124582436 3.220882568128838 0.19719329750701245
3.765480734680466 4.109771457017727 -1.580584480270765
5.084204216008563 5.382261368931816 -0.7794990891477093
2.5084020125710453 7.5667379428186265 -0.009236077633993908
2.286179790348824 6.677849053929738 1.7685417001437838
4.233442632731631 6.221855722943377 1.783952889948454
4.455664854953852 7.110744611832266 0.006175112170676358
-3.362606218587844 5.156176843446838 -1.9483926562147487
-1.9483926562147487 5.156176843446838 -3.362606218587843
-4.133403455301183 7.800394506906029 -1.3049763305549944
-5.022292344190071 6.244838951350474 -2.1938652194438832
-5.2677649074192034 7.333501059254108 -3.853551345046111
-4.378876018530314 8.889056614809665 -2.964662456157222
-1.304976330554992 7.800394506906028 -4.133403455301183
-2.1938652194438806 6.244838951350472 -5.022292344190071
-3.8535513450461076 7.3335010592541074 -5.267764907419206
-2.964662456157219 8.889056614809663 -4.378876018530316
2.079101645331459 -3.784601659824813 8.8166643068485
1.162985567496173 -4.183079647455058 7.084051648085486
-0.6147922102816048 -3.9608574252328363 7.972940536974375
0.3013238675536816 -3.5623794376025915 9.705553195737389
2.550506166122492 -1.8989835766606866 9.288068827639533
2.105794609078237 -0.4118434811268059 8.02686068966755
0.328016831300459 -0.18962125890458403 8.91574957855644
0.7727283883447137 -1.6767613544384645 10.17695771652842
-0.8103214687570506 6.294248030904536 1.1896785312429496
-2.6959395519211773 5.822843510113506 0.7182740104519186
-3.7846016598248093 8.816664306848503 2.07910164533146
-4.183079647455056 7.08405164808549 1.162985567496174
-3.9608574252328346 7.972940536974378 -0.6147922102816041
-3.562379437602587 9.70555319573739 0.3013238675536822
-0.18962125890458004 8.915749578556438 0.32801683130045817
-0.4118434811268028 8.02686068966755 2.1057946090782362
-1.8989835766606817 9.288068827639533 2.5505061661224913
-1.6767613544384594 10.17695771652842 0.772728388344713
5.156176843446839 -3.3626062185878425 -1.9483926562147478
5.156176843446838 -1.948392656214748 -3.362606218587842
7.80039450690603 -4.133403455301182 -1.3049763305549926
6.244838951350474 -5.02229234419007 -2.1938652194438815
7.3335010592541074 -5.2677649074192034 -3.8535513450461094
8.889056614809665 -4.378876018530315 -2.9646624561572206
7.800394506906029 -1.3049763305549922 -4.133403455301182
6.244838951350473 -2.1938652194438806 -5.02229234419007
7.3335010592541074 -3.8535513450461085 -5.267764907419204
8.889056614809663 -2.9646624561572197 -4.378876018530315
2.079101645331461 8.816664306848502 -3.784601659824811
1.1629855674961735 7.084051648085488 -4.183079647455056
-0.6147922102816041 7.972940536974377 -3.9608574252328346
0.3013238675536833 9.70555319573739 -3.5623794376025892
2.550506166122493 9.288068827639533 -1.8989835766606844
2.105794609078237 8.02686068966755 -0.4118434811268039
0.3280168313004591 8.91574957855644 -0.18962125890458226
0.7727283883447148 10.176957716528422 -1.6767613544384625
6.294248030904536 -0.8103214687570499 1.1896785312429494
5.822843510113505 -2.695939551921176 0.7182740104519179
8.8166643068485 -3.7846016598248116 2.079101645331461
7.084051648085487 -4.183079647455057 1.1629855674961733
7.9729405369743755 -3.9608574252328355 -0.6147922102816039
9.705553195737389 -3.5623794376025897 0.30132386755368346
8.91574957855644 -0.18962125890458204 0.32801683130045933
8.02686068966755 -0.41184348112680413 2.105794609078237
9.288068827639531 -1.8989835766606844 2.5505061661224926
10.17695771652842 -1.6767613544384625 0.7727283883447152
-8.57585252747612 -7.161638965103015 -5.747425402729928
-8.575852527476119 -5.747425402729919 -7.161638965103022
-7.161638965103027 -8.575852527476112 -5.747425402729929
-5.747425402729933 -8.575852527476112 -7.161638965103025
-7.161638965103025 -5.74742540272992 -8.575852527476117
-5.747425402729932 -7.161638965103017 -8.575852527476119
6.294248030904537 1.1896785312429494 -0.8103214687570497
5.822843510113506 0.7182740104519179 -2.6959395519211755
8.816664306848502 2.079101645331461 -3.784601659824811
7.084051648085487 1.1629855674961735 -4.183079647455056
7.972940536974376 -0.6147922102816039 -3.9608574252328346
9.705553195737389 0.3013238675536832 -3.562379437602589
9.288068827639533 2.5505061661224926 -1.8989835766606844
8.02686068966755 2.105794609078237 -0.4118434811268039
8.91574957855644 0.32801683130045906 -0.18962125890458204
10.17695771652842 0.772728388344715 -1.6767613544384625
-4.272831071531801 -2.858617509158707 11.464660421047334
-3.8014265507407687 -0.9729994259945804 11.936064941838366
-2.858617509158705 -4.272831071531803 11.464660421047334
-0.9729994259945787 -3.8014265507407705 11.936064941838366
-1.915808467576642 -0.5015949052035487 12.407469462629397
-0.5015949052035469 -1.9158084675766434 12.407469462629397
-4.272831071531801 11.46466042104734 -2.858617509158704
-3.8014265507407687 11.936064941838369 -0.9729994259945776
-2.858617509158706 11.46466042104734 -4.272831071531799
-0.9729994259945791 11.93606494183837 -3.801426550740767
-1.915808467576642 12.4074694626294 -0.5015949052035455
-0.5015949052035475 12.4074694626294 -1.9158084675766403
11.464660421047336 -4.272831071531797 -2.858617509158709
11.936064941838369 -3.801426550740767 -0.9729994259945831
11.464660421047336 -2.858617509158703 -4.272831071531804
11.936064941838367 -0.9729994259945767 -3.8014265507407723
12.4074694626294 -1.9158084675766398 -0.5015949052035511
12.4074694626294 -0.5015949052035451 -1.9158084675766456
-1.922081349744519 -3.5550745115999707 0.30862879355630113
-3.8465822470432722 -3.1701743321402205 0.6935289730160514
-1.4506768289534873 -3.083669990808939 2.194246876720428
-3.37517772625224 -2.6987698113491887 2.5791470561801786
-1.92208134974452 0.3086287935563018 -3.5550745115999707
-3.8465822470432727 0.693528973016052 -3.1701743321402205
-1.450676828953488 2.1942468767204284 -3.083669990808939
-3.3751777262522404 2.5791470561801795 -2.698769811349189
0.30862879355630135 -1.922081349744519 -3.5550745115999707
0.6935289730160518 -3.846582247043272 -3.1701743321402205
2.194246876720428 -1.450676828953487 -3.0836699908089384
2.5791470561801786 -3.375177726252239 -2.6987698113491887
-0.16277572723472944 2.0679344160660906 3.482147978439185
-2.0872766245334815 2.4528345955258413 3.8670481578989357
-0.16277572723472988 3.482147978439186 2.067934416066091
-2.0872766245334815 3.867048157898936 2.4528345955258413
-7.064129385141705 -1.6499158227686102 -3.64991582276861
-7.064129385141705 -1.6499158227686102 -1.6499158227686106
-7.064129385141705 -3.6499158227686097 -1.6499158227686106
-7.0641293851417055 -3.64991582276861 -3.64991582276861
2.067934416066091 -0.162775727234729 3.482147978439185
2.4528345955258417 -2.087276624533481 3.8670481578989353
3.4821479784391864 -0.16277572723472922 2.0679344160660906
3.867048157898936 -2.087276624533481 2.452834595525841
-1.6499158227686102 -7.064129385141705 -3.64991582276861
-1.6499158227686102 -7.064129385141705 -1.6499158227686104
-3.6499158227686097 -7.064129385141705 -1.6499158227686104
-3.64991582276861 -7.0641293851417055 -3.64991582276861
-4.473717329698955 0.940496232674139 6.711732399002394
-5.362606218587843 0.05160734378525045 5.156176843446838
-5.140383996365621 -1.7261704339925275 6.045065732335726
-4.251495107476732 -0.8372815451036388 7.600621287891283
2.0679344160660906 3.482147978439186 -0.16277572723473033
2.452834595525841 3.867048157898936 -2.087276624533482
3.482147978439186 2.0679344160660906 -0.16277572723473033
3.867048157898936 2.452834595525841 -2.087276624533482
-1.6499158227686106 -3.64991582276861 -7.064129385141705
-1.6499158227686106 -1.6499158227686102 -7.064129385141705
-3.6499158227686106 -1.6499158227686102 -7.064129385141705
-3.6499158227686106 -3.64991582276861 -7.0641293851417055
0.9404962326741394 -4.473717329698955 6.711732399002392
0.05160734378525056 -5.362606218587843 5.156176843446836
-1.726170433992527 -5.14038399636562 6.045065732335725
-0.8372815451036382 -4.251495107476732 7.60062128789128
-3.5848284408100657 4.2672879545579505 -0.17061487843697093
-4.473717329698957 6.711732399002395 0.9404962326741385
-5.362606218587844 5.156176843446839 0.05160734378524978
-5.140383996365622 6.045065732335727 -1.7261704339925275
-4.251495107476734 7.6006212878912836 -0.8372815451036388
2.0785674201318396 0.07856742013183837 7.849803586460092
1.8563451979096166 1.856345197909616 6.960914697571203
0.0785674201318386 2.0785674201318374 7.849803586460092
0.3007896423540612 0.3007896423540603 8.73869247534898
0.9404962326741398 6.711732399002395 -4.473717329698953
0.05160734378525067 5.15617684344684 -5.3626062185878425
-1.726170433992527 6.045065732335728 -5.140383996365621
-0.8372815451036382 7.600621287891284 -4.251495107476732
4.2672879545579505 -3.5848284408100652 -0.17061487843697076
6.711732399002395 -4.473717329698954 0.9404962326741393
5.15617684344684 -5.3626062185878425 0.05160734378525078
6.045065732335728 -5.140383996365621 -1.7261704339925268
7.600621287891284 -4.251495107476732 -0.8372815451036382
2.078567420131838 7.8498035864600935 0.07856742013183848
1.856345197909616 6.960914697571204 1.8563451979096162
0.07856742013183826 7.8498035864600935 2.078567420131838
0.30078964235406014 8.738692475348982 0.30078964235406047
4.267287954557952 -0.17061487843697093 -3.5848284408100652
6.711732399002397 0.9404962326741395 -4.473717329698954
5.156176843446842 0.051607343785251 -5.3626062185878425
6.04506573233573 -1.7261704339925266 -5.140383996365621
7.600621287891285 -0.8372815451036381 -4.251495107476732
-8.92783269029798 -7.513619127924882 -1.6499158227686115
-8.92783269029798 -7.513619127924881 -3.649915822768611
-7.513619127924885 -8.927832690297977 -1.6499158227686115
-7.513619127924884 -8.927832690297976 -3.649915822768611
5.40535914201565 0.9674563090207278 0.9674563090207273
7.8498035864600935 2.0785674201318383 0.07856742013183882
6.960914697571205 1.8563451979096168 1.8563451979096162
7.849803586460094 0.07856742013183882 2.0785674201318383
8.738692475348984 0.3007896423540609 0.30078964235406097
-8.92783269029798 -1.6499158227686073 -7.513619127924883
-8.92783269029798 -3.649915822768608 -7.513619127924883
-7.513619127924885 -1.6499158227686077 -8.92783269029798
-7.513619127924885 -3.649915822768608 -8.92783269029798
-4.413141020879521 2.864775846649844 10.54514754974895
-4.190918798657298 1.0869980688720666 11.43403643863784
-2.5275229377153945 3.3361803674408756 11.016552070539984
-2.3053007154931726 1.5584025896630982 11.905440959428871
-1.6499158227686093 -8.92783269029798 -7.513619127924882
-3.649915822768609 -8.92783269029798 -7.5136191279248825
-1.6499158227686093 -7.513619127924883 -8.927832690297977
-3.649915822768609 -7.513619127924883 -8.927832690297977
2.8647758466498456 -4.413141020879523 10.545147549748949
1.086998068872068 -4.190918798657302 11.434036438637836
3.3361803674408783 -2.527522937715397 11.01655207053998
1.5584025896631004 -2.3053007154931753 11.90544095942887
2.8647758466498474 10.545147549748949 -4.41314102087952
1.0869980688720702 11.434036438637838 -4.190918798657298
3.336180367440879 11.01655207053998 -2.5275229377153936
1.5584025896631017 11.90544095942887 -2.3053007154931717
-0.9562890797553562 -2.956289079755356 2.5388047116574994
-2.956289079755356 -0.9562890797553565 2.5388047116575
-2.7340668575331333 -2.734066857533134 3.4276936005463883
-0.9562890797553567 2.5388047116575003 -2.956289079755356
-2.956289079755356 2.5388047116575003 -0.9562890797553567
-2.7340668575331337 3.427693600546389 -2.7340668575331337
0.18178210770234182 3.676875899115199 1.595995670075436
-2.4848845589643247 3.010209232448532 0.9293290034087693
-1.5959956700754359 4.5657647880040875 1.8182178922976584
2.5388047116575008 -0.9562890797553566 -2.9562890797553556
2.5388047116575008 -2.956289079755356 -0.9562890797553565
3.427693600546389 -2.7340668575331337 -2.7340668575331337
3.676875899115199 0.18178210770234182 1.5959956700754363
3.010209232448532 -2.4848845589643243 0.92932900340877
4.5657647880040875 -1.5959956700754356 1.8182178922976586
3.676875899115199 1.5959956700754363 0.18178210770234204
3.010209232448532 0.92932900340877 -2.4848845589643243
4.5657647880040875 1.8182178922976586 -1.5959956700754352
-7.893312018410561 1.1301342662582559 -0.8698657337417439
-7.893312018410562 -0.8698657337417437 1.1301342662582554
-9.226645351743896 -0.20319906707507762 -0.20319906707507784
-6.755240830952865 2.2682054537159546 3.6824190160890486
-7.421907497619531 -0.39846121295071235 3.0157523494223817
-8.088574164286198 0.9348721203826211 4.349085682755715
-6.755240830952864 3.6824190160890495 2.2682054537159537
-7.4219074976195305 3.0157523494223826 -0.39846121295071213
-8.088574164286198 4.349085682755716 0.9348721203826206
-9.974192247450326 0.46346759959158934 3.8776811619646825
-9.307525580783658 -0.8698657337417437 2.5443478286313495
-10.640858914116992 -0.20319906707507762 1.211014495298016
-9.974192247450324 3.8776811619646843 0.46346759959158823
-9.307525580783658 2.5443478286313503 -0.8698657337417444
-10.64085891411699 1.2110144952980173 -0.2031990670750785
-9.502787726659292 4.349085682755716 2.3490856827557147
-8.16945439332596 3.6824190160890495 3.6824190160890478
-9.502787726659294 2.349085682755716 4.349085682755714
1.1301342662582556 -7.893312018410563 -0.8698657337417448
-0.8698657337417439 -7.893312018410562 1.1301342662582545
-0.2031990670750785 -9.226645351743894 -0.20319906707507873
2.2682054537159546 -6.755240830952866 3.6824190160890478
-0.3984612129507117 -7.4219074976195305 3.0157523494223812
0.9348721203826207 -8.088574164286198 4.349085682755715
3.6824190160890495 -6.755240830952866 2.2682054537159537
3.0157523494223826 -7.421907497619531 -0.398461212950713
4.349085682755715 -8.0885741642862 0.9348721203826204
0.4634675995915878 -9.974192247450326 3.8776811619646816
-0.8698657337417448 -9.307525580783658 2.5443478286313486
-0.20319906707507918 -10.64085891411699 1.2110144952980153
1.1301342662582536 -11.307525580783658 2.5443478286313486
3.8776811619646825 -9.974192247450326 0.46346759959158823
2.5443478286313495 -9.307525580783658 -0.8698657337417453
1.2110144952980155 -10.64085891411699 -0.20319906707507918
2.544347828631348 -11.30752558078366 1.130134266258254
4.349085682755714 -9.502787726659296 2.3490856827557147
3.6824190160890486 -8.169454393325962 3.6824190160890478
2.3490856827557147 -9.502787726659296 4.349085682755714
3.01575234942238 -10.836121059992628 3.015752349422381
1.1301342662582554 -0.869865733741745 -7.893312018410562
-0.8698657337417439 1.1301342662582552 -7.893312018410563
-0.20319906707507696 -0.2031990670750785 -9.226645351743896
2.268205453715954 3.6824190160890486 -6.755240830952865
-0.39846121295071213 3.0157523494223817 -7.421907497619532
0.9348721203826214 4.349085682755714 -8.0885741642862
3.682419016089049 2.2682054537159533 -6.755240830952864
3.015752349422382 -0.3984612129507128 -7.4219074976195305
4.349085682755715 0.9348721203826196 -8.088574164286198
0.46346759959159045 3.8776811619646825 -9.974192247450326
-0.869865733741743 2.544347828631349 -9.30752558078366
-0.20319906707507673 1.2110144952980155 -10.640858914116992
1.1301342662582567 2.5443478286313486 -11.307525580783658
3.8776811619646843 0.46346759959158756 -9.974192247450324
2.544347828631351 -0.8698657337417455 -9.307525580783658
1.211014495298018 -0.20319906707507918 -10.64085891411699
2.5443478286313512 1.1301342662582536 -11.307525580783658
4.349085682755716 2.349085682755714 -9.502787726659292
3.6824190160890486 3.6824190160890473 -8.16945439332596
2.349085682755716 4.349085682755714 -9.502787726659294
3.0157523494223826 3.01575234942238 -10.836121059992626
4.609354215272228 2.6093542152722247 6.023567777645324
2.609354215272228 4.6093542152722256 6.023567777645325
3.9426875486055613 3.9426875486055577 7.356901110978658
4.60935421527223 6.023567777645322 2.609354215272232
2.609354215272229 6.023567777645321 4.609354215272232
3.942687548605563 7.356901110978654 3.9426875486055666
6.023567777645324 4.609354215272226 2.6093542152722318
6.023567777645323 2.6093542152722256 4.60935421527223
7.356901110978657 3.9426875486055586 3.942687548605565
4.414092069396594 7.828305631769685 5.828305631769694
3.0807587360632596 6.494972298436352 6.494972298436358
4.414092069396593 5.828305631769683 7.828305631769692
5.7474254027299265 7.161638965103016 7.161638965103027
7.8283056317696875 4.414092069396589 5.828305631769693
6.494972298436354 3.080758736063255 6.494972298436357
5.8283056317696875 4.414092069396588 7.828305631769691
7.1616389651030214 5.747425402729921 7.161638965103027
7.828305631769689 5.828305631769685 4.414092069396599
6.494972298436356 6.494972298436353 3.080758736063266
5.828305631769689 7.828305631769686 4.4140920693966
7.1616389651030214 7.161638965103017 5.747425402729933
3 0 1 2
3 3 4 5
3 6 7 8
3 9 10 11
6 5 4 1 2 7 8
6 10 0 1 4 3 11
6 6 7 2 0 10 9
6 6 8 5 3 11 9
3 12 13 14
3 15 16 17
3 18 19 20
3 21 22 23
6 17 16 13 14 19 20
6 22 12 13 16 15 23
6 22 12 14 19 18 21
6 23 15 17 20 18 21
3 24 25 26
3 27 28 29
3 30 31 32
3 33 34 35
6 31 26 25 28 29 32
6 34 24 25 28 27 35
6 34 24 26 31 30 33
6 35 27 29 32 30 33
3 36 37 38
3 39 40 41
3 42 43 44
3 45 46 47
6 43 38 37 40 41 44
6 46 36 37 40 39 47
6 42 43 38 36 46 45
6 42 44 41 39 47 45
3 48 49 50
3 51 52 53
3 54 55 56
3 57 58 59
6 53 52 49 50 55 56
6 58 48 49 52 51 59
6 58 48 50 55 54 57
6 59 51 53 56 54 57
3 60 61 62
3 63 64 65
3 66 67 68
3 69 70 71
6 67 62 61 64 65 68
6 70 60 61 64 63 71
6 70 60 62 67 66 69
6 66 68 65 63 71 69
3 72 73 74
3 75 76 77
3 78 79 80
3 81 82 83
6 77 76 73 74 79 80
6 82 72 73 76 75 83
6 82 72 74 79 78 81
6 83 75 77 80 78 81
3 84 85 86
3 87 88 89
3 90 91 92
3 93 94 95
6 91 86 85 88 89 92
6 94 84 85 88 87 95
6 90 91 86 84 94 93
6 90 92 89 87 95 93
3 96 97 98
3 99 100 101
3 102 103 104
3 105 106 107
6 103 98 97 100 101 104
6 106 96 97 100 99 107
6 106 96 98 103 102 105
6 107 99 101 104 102 105
3 108 109 110
3 111 112 113
3 114 115 116
3 117 118 119
6 113 112 109 110 115 116
6 118 108 109 112 111 119
6 114 115 110 108 118 117
6 114 116 113 111 119 117
3 120 121 122
3 123 124 125
3 126 127 128
3 129 130 131
6 127 122 121 124 125 128
6 130 120 121 124 123 131
6 126 127 122 120 130 129
6 131 123 125 128 126 129
3 132 133 134
3 135 136 137
3 138 139 140
3 141 142 143
6 137 136 133 134 139 140
6 142 132 133 136 135 143
6 138 139 134 132 142 141
6 143 135 137 140 138 141
3 144 145 146
3 147 148 149
3 150 151 152
3 153 154 155
6 151 146 145 148 149 152
6 154 144 145 148 147 155
6 150 151 146 144 154 153
6 150 152 149 147 155 153
3 156 157 158
3 159 160 161
3 162 163 164
3 165 166 167
6 161 160 157 158 163 164
6 166 156 157 160 159 167
6 162 163 158 156 166 165
6 162 164 161 159 167 165
3 168 169 170
3 171 172 173
3 174 175 176
3 177 178 179
6 173 172 169 170 175 176
6 178 168 169 172 171 179
6 174 175 170 168 178 177
6 174 176 173 171 179 177
3 180 181 182
3 183 184 185
3 186 187 188
3 189 190 191
6 185 184 181 182 187 188
6 190 180 181 184 183 191
6 186 187 182 180 190 189
6 186 188 185 183 191 189
4 2 1 13 14
4 5 4 16 17
4 8 7 19 20
4 4 1 13 16
4 7 2 14 19
4 8 5 17 20
6 5 4 1 2 7 8
6 17 16 13 14 19 20
4 0 1 25 26
4 3 4 28 29
4 11 10 31 32
4 25 1 4 28
4 10 0 26 31
4 11 3 29 32
6 10 0 1 4 3 11
6 31 26 25 28 29 32
4 192 193 37 38
4 194 195 196 197
4 198 199 200 201
4 37 193 195 196
4 199 192 38 200
4 198 194 197 201
6 199 192 193 195 194 198
6 200 38 37 196 197 201
4 49 2 0 50
4 6 7 52 53
4 9 10 55 56
4 49 2 7 52
4 50 0 10 55
4 9 6 53 56
6 6 7 2 0 10 9
6 53 52 49 50 55 56
4 202 203 37 36
4 204 205 206 207
4 208 209 210 211
4 205 203 37 206
4 209 202 36 210
4 208 204 207 211
6 209 202 203 205 204 208
6 210 36 37 206 207 211
4 61 212 192 62
4 213 214 215 216
4 217 218 219 220
4 61 212 214 215
4 62 192 218 219
4 217 213 216 220
6 218 192 212 214 213 217
6 219 62 61 215 216 220
4 73 5 3 74
4 76 8 6 77
4 79 11 9 80
4 73 5 8 76
4 74 3 11 79
4 77 6 9 80
6 6 8 5 3 11 9
6 77 76 73 74 79 80
4 221 222 61 60
4 223 224 225 226
4 227 228 229 230
4 224 222 61 225
4 228 221 60 229
4 227 223 226 230
6 228 221 222 224 223 227
6 229 60 61 225 226 230
4 85 231 202 86
4 232 233 234 235
4 236 237 238 239
4 85 231 233 234
4 86 202 237 238
4 236 232 235 239
6 237 202 231 233 232 236
6 238 86 85 234 235 239
4 97 240 241 98
4 242 243 244 245
4 246 247 248 249
4 97 240 243 242
4 98 241 247 246
4 245 244 248 249
6 247 241 240 243 244 248
6 246 98 97 242 245 249
4 221 250 85 84
4 251 252 253 254
4 255 256 257 258
4 252 250 85 253
4 84 221 256 257
4 255 251 254 258
6 256 221 250 252 251 255
6 257 84 85 253 254 258
4 259 260 97 96
4 261 262 263 264
4 265 266 267 268
4 262 260 97 263
4 266 259 96 267
4 265 261 264 268
6 266 259 260 262 261 265
6 267 96 97 263 264 268
4 109 38 36 110
4 269 270 271 272
4 273 274 275 276
4 109 38 270 271
4 110 36 274 275
4 273 269 272 276
6 269 270 38 36 274 273
6 272 271 109 110 275 276
4 121 277 278 122
4 279 280 281 282
4 283 284 285 286
4 121 277 280 279
4 122 278 284 283
4 282 281 285 286
6 284 278 277 280 281 285
6 283 122 121 279 282 286
4 60 62 109 108
4 287 288 289 290
4 291 292 293 294
4 288 62 109 289
4 108 60 292 293
4 291 287 290 294
6 292 60 62 288 287 291
6 293 108 109 289 290 294
4 259 295 121 120
4 296 297 298 299
4 300 301 302 303
4 297 295 121 298
4 120 259 301 302
4 300 296 299 303
6 301 259 295 297 296 300
6 302 120 121 298 299 303
4 133 304 305 134
4 306 307 308 309
4 310 311 312 313
4 133 304 307 306
4 134 305 311 310
4 309 308 312 313
6 308 307 304 305 311 312
6 309 306 133 134 310 313
4 145 314 315 146
4 316 317 318 319
4 320 321 322 323
4 145 314 317 316
4 146 315 321 320
4 319 318 322 323
6 321 315 314 317 318 322
6 320 146 145 316 319 323
4 84 86 110 108
4 324 325 326 327
4 328 329 330 331
4 325 86 110 326
4 329 84 108 330
4 328 324 327 331
6 324 325 86 84 329 328
6 327 326 110 108 330 331
4 96 98 133 132
4 332 333 334 335
4 336 337 338 339
4 333 98 133 334
4 132 96 337 338
4 336 332 335 339
6 337 96 98 333 332 336
6 338 132 133 334 335 339
4 340 341 145 144
4 342 343 344 345
4 346 347 348 349
4 343 341 145 344
4 144 340 347 346
4 345 342 348 349
6 347 340 341 343 342 348
6 346 144 145 344 345 349
4 157 350 351 158
4 352 353 354 355
4 356 357 358 359
4 157 350 353 352
4 158 351 357 356
4 355 354 358 359
6 354 353 350 351 357 358
6 355 352 157 158 356 359
4 120 122 134 132
4 360 361 362 363
4 364 365 366 367
4 361 122 134 362
4 365 120 132 366
4 364 360 363 367
6 360 361 122 120 365 364
6 363 362 134 132 366 367
4 368 369 157 156
4 370 371 372 373
4 374 375 376 377
4 371 369 157 372
4 156 368 375 374
4 373 370 376 377
6 375 368 369 371 370 376
6 374 156 157 372 373 377
4 169 378 379 170
4 380 381 382 383
4 384 385 386 387
4 169 378 381 380
4 170 379 385 384
4 383 382 386 387
6 382 381 378 379 385 386
6 383 380 169 170 384 387
4 144 146 158 156
4 388 389 390 391
4 392 393 394 395
4 389 146 158 390
4 393 144 156 394
4 392 388 391 395
6 388 389 146 144 393 392
6 391 390 158 156 394 395
4 396 397 169 168
4 398 399 400 401
4 402 403 404 405
4 399 397 169 400
4 168 396 403 402
4 401 398 404 405
6 403 396 397 399 398 404
6 402 168 169 400 401 405
4 406 113 111 407
4 408 116 114 409
4 410 119 117 411
4 406 113 116 408
4 407 111 119 410
4 409 114 117 411
6 114 116 113 111 119 117
6 409 408 406 407 410 411
4 412 413 170 168
4 414 415 416 417
4 418 419 420 421
4 415 413 170 416
4 419 412 168 420
4 417 414 418 421
6 414 415 413 412 419 418
6 417 416 170 168 420 421
4 135 137 422 423
4 138 140 424 425
4 426 143 141 427
4 140 137 422 424
4 423 135 143 426
4 425 138 141 427
6 143 135 137 140 138 141
6 426 423 422 424 425 427
4 159 161 428 429
4 162 164 430 431
4 165 167 432 433
4 164 161 428 430
4 167 159 429 432
4 431 162 165 433
6 162 164 161 159 167 165
6 431 430 428 429 432 433
4 171 173 434 435
4 174 176 436 437
4 177 179 438 439
4 176 173 434 436
4 179 171 435 438
4 177 174 437 439
6 174 176 173 171 179 177
6 437 436 434 435 438 439
4 440 1 13 441
4 442 4 16 443
4 4 1 13 16
4 440 1 4 442
4 441 13 16 443
4 442 440 441 443
4 444 2 14 445
4 446 7 19 447
4 7 2 14 19
4 444 2 7 446
4 445 14 19 447
4 446 444 445 447
4 448 0 26 449
4 450 10 31 451
4 10 0 26 31
4 448 0 10 450
4 449 26 31 451
4 450 448 449 451
4 452 5 17 453
4 454 8 20 455
4 8 5 17 20
4 452 5 8 454
4 453 17 20 455
4 454 452 453 455
4 62 192 38 109
4 456 457 458 459
4 457 192 38 458
4 62 192 457 456
4 109 38 458 459
4 456 62 109 459
4 460 3 29 461
4 462 11 32 463
4 11 3 29 32
4 460 3 11 462
4 461 29 32 463
4 462 460 461 463
4 86 202 36 110
4 464 465 466 467
4 465 202 36 466
4 86 202 465 464
4 110 36 466 467
4 464 86 110 467
4 98 241 304 133
4 468 469 470 471
4 469 241 304 470
4 98 241 469 468
4 133 304 470 471
4 468 98 133 471
4 472 6 53 473
4 474 9 56 475
4 9 6 53 56
4 472 6 9 474
4 473 53 56 475
4 474 472 473 475
4 84 221 60 108
4 476 477 478 479
4 477 221 60 478
4 84 221 477 476
4 108 60 478 479
4 476 84 108 479
4 122 278 305 134
4 480 481 482 483
4 481 278 305 482
4 122 278 481 480
4 134 305 482 483
4 480 122 134 483
4 369 484 350 157
4 485 486 487 488
4 486 484 350 487
4 369 484 486 485
4 157 350 487 488
4 485 369 157 488
4 120 259 96 132
4 489 490 491 492
4 490 259 96 491
4 120 259 490 489
4 132 96 491 492
4 489 120 132 492
4 146 315 351 158
4 493 494 495 496
4 494 315 351 495
4 146 315 494 493
4 158 351 495 496
4 493 146 158 496
4 397 497 378 169
4 498 499 500 501
4 499 497 378 500
4 397 497 499 498
4 169 378 500 501
4 498 397 169 501
4 144 340 368 156
4 502 503 504 505
4 503 340 368 504
4 144 340 503 502
4 156 368 504 505
4 502 144 156 505
4 413 506 379 170
4 507 508 509 510
4 508 506 379 509
4 413 506 508 507
4 170 379 509 510
4 507 413 170 510
4 511 269 272 512
4 513 273 276 514
4 273 269 272 276
4 511 269 273 513
4 512 272 276 514
4 513 511 512 514
4 412 515 396 168
4 516 517 518 519
4 517 515 396 518
4 412 515 517 516
4 168 396 518 519
4 516 412 168 519
4 520 287 290 521
4 522 291 294 523
4 291 287 290 294
4 520 287 291 522
4 521 290 294 523
4 522 520 521 523
4 524 332 335 525
4 526 336 339 527
4 336 332 335 339
4 524 332 336 526
4 525 335 339 527
4 526 524 525 527
4 528 324 327 529
4 530 328 331 531
4 328 324 327 331
4 528 324 328 530
4 529 327 331 531
4 530 528 529 531
4 532 360 363 533
4 534 364 367 535
4 364 360 363 367
4 532 360 364 534
4 533 363 367 535
4 534 532 533 535
4 536 388 391 537
4 538 392 395 539
4 392 388 391 395
4 536 388 392 538
4 537 391 395 539
4 538 536 537 539
4 203 1 193 37
4 222 2 212 61
4 250 0 231 85
4 62 192 38 109
4 86 202 36 110
4 84 221 60 108
4 2 1 193 212
4 0 1 203 231
4 192 193 37 38
4 222 2 0 250
4 202 203 37 36
4 61 212 192 62
4 221 222 61 60
4 85 231 202 86
4 221 250 85 84
4 109 38 36 110
4 60 62 109 108
4 84 86 110 108
3 0 1 2
3 192 193 212
3 202 203 231
3 36 37 38
3 221 222 250
3 60 61 62
3 84 85 86
3 108 109 110
4 540 4 541 542
4 260 5 240 97
4 295 3 277 121
4 98 241 304 133
4 122 278 305 134
4 120 259 96 132
4 5 4 541 240
4 3 4 540 277
4 241 541 542 304
4 260 5 3 295
4 278 540 542 305
4 97 240 241 98
4 259 260 97 96
4 121 277 278 122
4 259 295 121 120
4 133 304 305 134
4 96 98 133 132
4 120 122 134 132
3 3 4 5
3 241 541 240
3 278 540 277
3 305 542 304
3 259 260 295
3 96 97 98
3 120 121 122
3 132 133 134
4 543 7 544 545
4 546 8 547 548
4 341 6 314 145
4 369 484 350 157
4 146 315 351 158
4 144 340 368 156
4 8 7 544 547
4 6 7 543 314
4 484 544 545 350
4 546 8 6 341
4 315 543 545 351
4 548 547 484 369
4 340 546 548 368
4 145 314 315 146
4 340 341 145 144
4 157 350 351 158
4 368 369 157 156
4 144 146 158 156
3 6 7 8
3 484 544 547
3 315 543 314
3 351 545 350
3 340 546 341
3 368 548 369
3 144 145 146
3 156 157 158
4 549 10 550 551
4 552 11 553 554
4 555 9 556 557
4 397 497 378 169
4 413 506 379 170
4 412 515 396 168
4 11 10 550 553
4 9 10 549 556
4 497 550 551 378
4 552 11 9 555
4 506 549 551 379
4 554 553 497 397
4 515 552 554 396
4 557 556 506 413
4 515 555 557 412
4 169 378 379 170
4 396 397 169 168
4 412 413 170 168
3 9 10 11
3 497 550 553
3 506 549 556
3 379 551 378
3 515 552 555
3 396 554 397
3 412 557 413
3 168 169 170
4 558 22 559 560
4 561 23 562 563
4 564 21 565 566
4 567 568 569 181
4 570 571 572 182
4 573 574 575 180
4 23 22 559 562
4 21 22 558 565
4 568 559 560 569
4 561 23 21 564
4 571 558 560 572
4 563 562 568 567
4 574 561 563 575
4 566 565 571 570
4 574 564 566 573
4 181 569 572 182
4 575 567 181 180
4 573 570 182 180
3 21 22 23
3 568 559 562
3 571 558 565
3 572 560 569
3 574 561 564
3 575 563 567
3 573 566 570
3 180 181 182
4 576 34 577 578
4 579 35 580 581
4 582 33 583 584
4 585 586 587 588
4 589 590 591 592
4 593 594 595 596
4 35 34 577 580
4 33 34 576 583
4 586 577 578 587
4 579 35 33 582
4 590 576 578 591
4 581 580 586 585
4 594 579 581 595
4 584 583 590 589
4 594 582 584 593
4 588 587 591 592
4 595 585 588 596
4 593 589 592 596
3 33 34 35
3 586 577 580
3 590 576 583
3 591 578 587
3 594 579 582
3 595 581 585
3 593 584 589
3 596 588 592
4 597 58 598 599
4 600 59 601 602
4 603 57 604 605
4 606 607 608 609
4 610 611 612 613
4 614 615 616 617
4 59 58 598 601
4 57 58 597 604
4 607 598 599 608
4 600 59 57 603
4 611 597 599 612
4 602 601 607 606
4 615 600 602 616
4 605 604 611 610
4 615 603 605 614
4 609 608 612 613
4 616 606 609 617
4 614 610 613 617
3 57 58 59
3 607 598 601
3 611 597 604
3 612 599 608
3 615 600 603
3 616 602 606
3 614 605 610
3 617 609 613
4 618 82 619 620
4 621 83 622 623
4 624 81 625 626
4 627 628 629 630
4 631 632 633 634
4 635 636 637 638
4 83 82 619 622
4 81 82 618 625
4 628 619 620 629
4 621 83 81 624
4 632 618 620 633
4 623 622 628 627
4 636 621 623 637
4 626 625 632 631
4 636 624 626 635
4 630 629 633 634
4 637 627 630 638
4 635 631 634 638
3 81 82 83
3 628 619 622
3 632 618 625
3 633 620 629
3 636 621 624
3 637 623 627
3 635 626 631
3 638 630 634
# cell 1: 0 1 2 3 4 5 6 7
# cell 2: 8 9 10 11 12 13 14 15
# cell 3: 16 17 18 19 20 21 22 23
# cell 4: 24 25 26 27 28 29 30 31
# cell 5: 32 33 34 35 36 37 38 39
# cell 6: 40 41 42 43 44 45 46 47
# cell 7: 48 49 50 51 52 53 54 55
# cell 8: 56 57 58 59 60 61 62 63
# cell 9: 64 65 66 67 68 69 70 71
# cell 10: 72 73 74 75 76 77 78 79
# cell 11: 80 81 82 83 84 85 86 87
# cell 12: 88 89 90 91 92 93 94 95
# cell 13: 96 97 98 99 100 101 102 103
# cell 14: 104 105 106 107 108 109 110 111
# cell 15: 112 113 114 115 116 117 118 119
# cell 16: 120 121 122 123 124 125 126 127
# cell 17: 128 129 130 131 132 133 134 135
# cell 18: 136 137 138 139 140 141 142 143
# cell 19: 144 145 146 147 148 149 150 151
# cell 20: 152 153 154 155 156 157 158 159
# cell 21: 160 161 162 163 164 165 166 167
# cell 22: 168 169 170 171 172 173 174 175
# cell 23: 176 177 178 179 180 181 182 183
# cell 24: 184 185 186 187 188 189 190 191
# cell 25: 192 193 194 195 196 197 198 199
# cell 26: 200 201 202 203 204 205 206 207
# cell 27: 208 209 210 211 212 213 214 215
# cell 28: 216 217 218 219 220 221 222 223
# cell 29: 224 225 226 227 228 229 230 231
# cell 30: 232 233 234 235 236 237 238 239
# cell 31: 240 241 242 243 244 245 246 247
# cell 32: 248 249 250 251 252 253 254 255
# cell 33: 256 257 258 259 260 261 262 263
# cell 34: 264 265 266 267 268 269 270 271
# cell 35: 272 273 274 275 276 277 278 279
# cell 36: 280 281 282 283 284 285 286 287
# cell 37: 288 289 290 291 292 293 294 295
# cell 38: 296 297 298 299 300 301 302 303
# cell 39: 304 305 306 307 308 309 310 311
# cell 40: 312 313 314 315 316 317 318 319
# cell 41: 320 321 322 323 324 325 326 327
# cell 42: 328 329 330 331 332 333 334 335
# cell 43: 336 337 338 339 340 341 342 343
# cell 44: 344 345 346 347 348 349 350 351
# cell 45: 352 353 354 355 356 357 358 359
# cell 46: 360 361 362 363 364 365 366 367
# cell 47: 368 369 370 371 372 373 374 375
# cell 48: 376 377 378 379 380 381 382 383
# cell 49: 384 385 386 387 388 389
# cell 50: 390 391 392 393 394 395
# cell 51: 396 397 398 399 400 401
# cell 52: 402 403 404 405 406 407
# cell 53: 408 409 410 411 412 413
# cell 54: 414 415 416 417 418 419
# cell 55: 420 421 422 423 424 425
# cell 56: 426 427 428 429 430 431
# cell 57: 432 433 434 435 436 437
# cell 58: 438 439 440 441 442 443
# cell 59: 444 445 446 447 448 449
# cell 60: 450 451 452 453 454 455
# cell 61: 456 457 458 459 460 461
# cell 62: 462 463 464 465 466 467
# cell 63: 468 469 470 471 472 473
# cell 64: 474 475 476 477 478 479
# cell 65: 480 481 482 483 484 485
# cell 66: 486 487 488 489 490 491
# cell 67: 492 493 494 495 496 497
# cell 68: 498 499 500 501 502 503
# cell 69: 504 505 506 507 508 509
# cell 70: 510 511 512 513 514 515
# cell 71: 516 517 518 519 520 521
# cell 72: 522 523 524 525 526 527
# cell 73: 528 529 530 531 532 533 534 535 536 537 538 539 540 541 542 543 544 545 546 547 548 549 550 551 552 553
# cell 74: 554 555 556 557 558 559 560 561 562 563 564 565 566 567 568 569 570 571 572 573 574 575 576 577 578 579
# cell 75: 580 581 582 583 584 585 586 587 588 589 590 591 592 593 594 595 596 597 598 599 600 601 602 603 604 605
# cell 76: 606 607 608 609 610 611 612 613 614 615 616 617 618 619 620 621 622 623 624 625 626 627 628 629 630 631
# cell 77: 632 633 634 635 636 637 638 639 640 641 642 643 644 645 646 647 648 649 650 651 652 653 654 655 656 657
# cell 78: 658 659 660 661 662 663 664 665 666 667 668 669 670 671 672 673 674 675 676 677 678 679 680 681 682 683
# cell 79: 684 685 686 687 688 689 690 691 692 693 694 695 696 697 698 699 700 701 702 703 704 705 706 707 708 709
# cell 80: 710 711 712 713 714 715 716 717 718 719 720 721 722 723 724 725 726 727 728 729 730 731 732 733 734 735