OFF
# face-rotation BFS net; polygonal faces are preserved
# the cell decomposition is listed below as comments
511 496 0
-0.7071067811865466 0.7071067811865483 -2.121320343559643
-2.121320343559642 0.7071067811865479 -0.7071067811865477
-2.1213203435596424 -0.7071067811865475 0.7071067811865481
-0.7071067811865475 -2.1213203435596424 0.7071067811865481
0.7071067811865483 -2.121320343559642 -0.7071067811865477
0.7071067811865488 -0.7071067811865468 -2.121320343559643
0.2357022603955165 1.649915822768611 1.649915822768612
-1.6499158227686102 1.1785113019775795 1.1785113019775804
1.17851130197758 -1.6499158227686104 1.1785113019775804
1.6499158227686115 0.2357022603955164 1.649915822768612
1.1785113019775808 1.1785113019775804 -1.649915822768611
1.649915822768612 1.6499158227686115 0.23570226039551612
-7.502787726659294 -0.47934144199047357 0.9348721203826192
-5.774304483758845 -1.1078808030451832 1.7205463217010073
-4.045821240858396 -0.3222066017267975 1.0920069606462992
-4.045821240858394 1.0920069606462979 -0.32220660172679705
-5.774304483758843 1.7205463217010073 -1.1078808030451848
-7.502787726659292 0.9348721203826214 -0.4793414419904767
-4.831495442176781 2.6633553632830704 2.6633553632830713
-3.5744167200673638 1.5634114814373299 1.563411481437331
-7.031383205868264 -0.007936921199441782 2.820490203546747
-6.559978685077232 1.8776811619646843 3.291894724337779
-7.031383205868261 2.8204902035467487 -0.007936921199444447
-6.559978685077231 3.29189472433778 1.877681161964683
-0.47934144199047357 -7.502787726659294 0.9348721203826186
-1.1078808030451834 -5.774304483758844 1.7205463217010064
-0.32220660172679727 -4.045821240858395 1.0920069606462988
1.0920069606462983 -4.045821240858393 -0.3222066017267977
1.720546321701008 -5.774304483758842 -1.1078808030451852
0.9348721203826211 -7.502787726659293 -0.4793414419904767
2.663355363283071 -4.831495442176781 2.6633553632830704
1.56341148143733 -3.574416720067363 1.5634114814373308
-0.007936921199442004 -7.031383205868263 2.8204902035467465
1.8776811619646847 -6.5599786850772315 3.2918947243377787
2.8204902035467487 -7.031383205868261 -0.00793692119944489
3.2918947243377805 -6.55997868507723 1.877681161964683
-6.94974746830583 -5.535533905932738 -2.1213203435596433
-6.949747468305832 -4.121320343559644 -0.7071067811865476
-5.535533905932738 -4.121320343559644 0.7071067811865489
-4.121320343559643 -5.535533905932739 0.7071067811865498
-4.121320343559642 -6.949747468305834 -0.7071067811865462
-5.535533905932734 -6.949747468305833 -2.121320343559643
-7.892556509887897 -6.478342947514804 1.6499158227686097
-7.421151989096865 -4.592724864350677 1.1785113019775793
-4.592724864350675 -7.421151989096867 1.1785113019775801
-6.478342947514801 -7.892556509887899 1.6499158227686104
-7.421151989096862 -7.421151989096865 -1.6499158227686124
-7.892556509887895 -7.892556509887898 0.2357022603955133
-0.479341441990474 0.93487212038262 -7.502787726659296
-1.1078808030451825 1.7205463217010069 -5.774304483758845
-0.3222066017267964 1.092006960646298 -4.045821240858396
1.0920069606462988 -0.3222066017267964 -4.045821240858395
1.7205463217010077 -1.107880803045183 -5.774304483758844
0.9348721203826211 -0.47934144199047446 -7.502787726659296
2.6633553632830713 2.6633553632830704 -4.831495442176783
1.563411481437331 1.5634114814373303 -3.574416720067364
-0.007936921199441782 2.820490203546747 -7.031383205868265
1.8776811619646852 3.2918947243377787 -6.559978685077233
2.820490203546748 -0.00793692119944267 -7.031383205868264
3.2918947243377805 1.8776811619646838 -6.559978685077233
-6.949747468305829 -2.1213203435596424 -5.5355339059327395
-6.94974746830583 -0.7071067811865476 -4.121320343559644
-5.535533905932735 0.7071067811865488 -4.1213203435596455
-4.12132034355964 0.7071067811865496 -5.5355339059327395
-4.121320343559638 -0.7071067811865457 -6.949747468305835
-5.535533905932732 -2.1213203435596415 -6.949747468305835
-7.8925565098878945 1.6499158227686106 -6.478342947514804
-7.421151989096862 1.178511301977579 -4.592724864350678
-4.5927248643506715 1.178511301977581 -7.4211519890968685
-6.478342947514798 1.6499158227686113 -7.8925565098879
-7.42115198909686 -1.6499158227686108 -7.421151989096867
-7.892556509887893 0.23570226039551528 -7.8925565098879
2.804616361147864 4.218829923520959 5.633043485894055
1.390402798774768 4.218829923520959 4.21882992352096
1.3904027987747685 2.8046163611478634 2.804616361147864
2.804616361147864 1.390402798774769 2.804616361147864
4.218829923520959 1.3904027987747685 4.218829923520959
4.218829923520959 2.804616361147864 5.633043485894055
4.21882992352096 4.218829923520959 1.3904027987747685
2.804616361147864 2.804616361147864 1.390402798774768
2.804616361147864 5.633043485894054 4.218829923520959
4.21882992352096 5.633043485894055 2.8046163611478634
5.633043485894055 2.804616361147864 4.218829923520959
5.633043485894055 4.21882992352096 2.8046163611478634
-2.121320343559637 -6.949747468305831 -5.535533905932738
-0.7071067811865426 -6.949747468305831 -4.121320343559643
0.7071067811865522 -5.535533905932735 -4.121320343559644
0.7071067811865529 -4.12132034355964 -5.535533905932739
-0.7071067811865419 -4.12132034355964 -6.9497474683058345
-2.1213203435596366 -5.535533905932735 -6.949747468305834
1.6499158227686175 -7.8925565098878945 -6.4783429475148
1.1785113019775841 -7.421151989096862 -4.592724864350674
1.178511301977585 -4.592724864350672 -7.421151989096865
1.6499158227686175 -6.478342947514799 -7.892556509887896
-1.6499158227686048 -7.421151989096862 -7.421151989096865
0.23570226039552192 -7.8925565098878945 -7.892556509887896
-3.481613753239561 1.3468133715066255 8.337000954332341
-4.267287954557947 1.9753527325613338 6.608517711431893
-3.167344072712207 3.075296614407075 5.3514389893224745
-1.2817259895480801 3.5467011351981075 5.822843510113507
-0.496051788229694 2.9181617741433987 7.551326753013956
-1.5959956700754339 1.8182178922976577 8.808405475123374
-4.31966623464584 5.222806098010664 7.813218153453418
-4.686314195261088 3.9133490958133534 6.346626310992431
-0.9150780289328335 4.856158137395418 7.289435352574494
-2.4340481514817136 5.694210618801696 8.28462267424445
-3.1149657926243144 2.6562703737039364 9.803592796793328
-3.533992033327454 4.594266736955955 9.541701396353867
-4.1213203435596375 -6.949747468305832 -5.535533905932739
-5.535533905932733 -6.949747468305833 -4.121320343559644
-6.949747468305829 -5.535533905932738 -4.121320343559644
-6.949747468305829 -4.121320343559643 -5.535533905932739
-5.5355339059327315 -4.121320343559642 -6.9497474683058345
-4.121320343559637 -5.535533905932736 -6.949747468305834
-7.89255650988789 -7.892556509887897 -6.478342947514804
-7.42115198909686 -7.421151989096865 -4.592724864350676
-7.421151989096859 -4.592724864350674 -7.421151989096867
-7.892556509887889 -6.478342947514801 -7.892556509887899
-4.592724864350667 -7.421151989096863 -7.421151989096867
-6.478342947514793 -7.892556509887896 -7.892556509887899
1.3468133715066295 -3.4816137532395643 8.337000954332336
1.9753527325613385 -4.2672879545579505 6.608517711431887
3.0752966144070792 -3.167344072712209 5.351438989322469
3.546701135198112 -1.2817259895480826 5.822843510113502
2.918161774143403 -0.49605178822969664 7.551326753013952
1.8182178922976628 -1.5959956700754376 8.808405475123369
5.222806098010668 -4.319666234645844 7.813218153453412
3.913349095813358 -4.68631419526109 6.346626310992425
4.856158137395423 -0.9150780289328364 7.28943535257449
5.694210618801701 -2.4340481514817167 8.284622674244444
2.6562703737039413 -3.1149657926243184 9.803592796793325
4.5942667369559596 -3.533992033327458 9.541701396353861
-0.43096440627114774 -3.259391531017343 9.225889843221227
-2.316582489435274 -3.7307960518083743 8.754485322430195
-3.7307960518083694 -2.31658248943528 8.754485322430195
-3.2593915310173385 -0.4309644062711533 9.225889843221228
-1.3737734478532104 0.04044011451987917 9.69729436401226
0.040440114519884496 -1.3737734478532155 9.697294364012258
-3.2593915310173367 -3.259391531017344 12.054316967967418
-3.7307960518083694 -3.730796051808375 10.168698884803291
-2.7879870102263054 0.04044011451987828 11.111507926385356
-2.7879870102263045 -1.373773447853217 12.52572148875845
0.040440114519884496 -2.7879870102263116 11.111507926385354
-1.3737734478532098 -2.7879870102263116 12.52572148875845
1.3468133715066317 8.337000954332341 -3.4816137532395635
1.9753527325613398 6.608517711431892 -4.26728795455795
3.07529661440708 5.351438989322474 -3.167344072712208
3.546701135198112 5.822843510113505 -1.2817259895480815
2.918161774143403 7.551326753013955 -0.49605178822969487
1.818217892297664 8.808405475123372 -1.595995670075436
5.222806098010669 7.813218153453417 -4.319666234645841
3.913349095813359 6.34662631099243 -4.6863141952610885
4.856158137395422 7.289435352574492 -0.9150780289328337
5.694210618801701 8.284622674244448 -2.4340481514817136
2.6562703737039426 9.803592796793328 -3.114965792624316
4.594266736955961 9.541701396353867 -3.5339920333274546
-0.43096440627114685 9.22588984322123 -3.259391531017341
-2.3165824894352736 8.754485322430199 -3.7307960518083734
-3.73079605180837 8.754485322430199 -2.316582489435278
-3.2593915310173385 9.225889843221232 -0.43096440627115107
-1.3737734478532109 9.697294364012263 0.04044011451988139
0.040440114519884496 9.697294364012262 -1.3737734478532135
-3.2593915310173367 12.054316967967422 -3.259391531017342
-3.730796051808369 10.168698884803295 -3.7307960518083743
-2.7879870102263062 11.11150792638536 0.04044011451988094
-2.7879870102263054 12.525721488758455 -1.3737734478532144
0.040440114519885384 11.111507926385357 -2.78798701022631
-1.373773447853209 12.525721488758453 -2.7879870102263107
9.225889843221228 -0.43096440627114685 -3.259391531017341
8.754485322430197 -2.316582489435273 -3.7307960518083734
8.754485322430197 -3.730796051808369 -2.3165824894352776
9.22588984322123 -3.2593915310173376 -0.43096440627115085
9.697294364012262 -1.3737734478532104 0.04044011451988139
9.697294364012262 0.040440114519884496 -1.373773447853214
12.054316967967418 -3.2593915310173376 -3.259391531017341
10.168698884803293 -3.730796051808369 -3.7307960518083734
11.111507926385356 -2.7879870102263062 0.04044011451988139
12.525721488758451 -2.7879870102263062 -1.373773447853214
11.111507926385356 0.040440114519884496 -2.78798701022631
12.525721488758451 -1.37377344785321 -2.7879870102263093
-13.19238815542511 -4.121320343559647 -6.949747468305843
-11.778174593052015 -5.535533905932741 -6.949747468305841
-11.778174593052015 -6.949747468305836 -5.535533905932745
-13.192388155425112 -6.949747468305838 -4.121320343559652
-14.606601717798208 -5.535533905932744 -4.121320343559654
-14.606601717798208 -4.121320343559649 -5.535533905932749
-14.13519719700717 -7.892556509887902 -7.892556509887909
-12.249579113843044 -7.4211519890968685 -7.421151989096874
-15.078006238589237 -7.421151989096872 -4.5927248643506875
-15.549410759380267 -7.892556509887903 -6.4783429475148155
-15.078006238589236 -4.592724864350681 -7.421151989096878
-15.549410759380265 -6.478342947514808 -7.892556509887911
-6.949747468305832 -2.1213203435596437 -0.7071067811865488
-5.535533905932738 -2.1213203435596433 0.7071067811865472
-7.467385558510874 -2.1213203435596437 1.224744871391588
-7.467385558510874 -4.121320343559644 1.2247448713915887
-2.1213203435596406 -6.949747468305833 -0.7071067811865477
-2.121320343559642 -5.535533905932738 0.7071067811865479
-2.121320343559641 -7.467385558510874 1.2247448713915894
-4.121320343559641 -7.467385558510875 1.2247448713915894
-6.94974746830583 -0.7071067811865495 -2.1213203435596437
-5.535533905932736 0.7071067811865465 -2.1213203435596437
-7.467385558510872 1.2247448713915876 -2.1213203435596437
-7.4673855585108715 1.2247448713915876 -4.121320343559644
-2.1213203435596384 -0.7071067811865461 -6.9497474683058345
-2.1213203435596393 0.7071067811865486 -5.535533905932738
-2.1213203435596375 1.2247448713915912 -7.467385558510875
-4.1213203435596375 1.2247448713915914 -7.467385558510877
-0.7071067811865444 -6.949747468305831 -2.121320343559642
0.7071067811865509 -5.535533905932734 -2.121320343559642
1.2247448713915934 -7.467385558510871 -2.1213203435596424
1.2247448713915936 -7.467385558510871 -4.121320343559643
-5.156176843446838 1.0864638436724459 5.052962155876337
-4.056232961601098 2.1864077255181873 3.7958834337669187
-5.830949773915558 2.8611806559869066 4.424422794821629
-4.942060885026667 3.7500695448757946 5.979978350377184
-0.7071067811865426 -2.121320343559641 -6.949747468305834
0.7071067811865517 -2.1213203435596406 -5.535533905932737
1.2247448713915952 -2.12132034355964 -7.467385558510874
1.2247448713915956 -4.12132034355964 -7.467385558510874
1.2817259895480841 2.695939551921177 6.662437864125066
0.49605178822969753 3.324478912975887 4.933954621224618
1.2971371793527555 4.643202394303985 6.206444533138706
-0.4806405984250218 4.865424616526207 7.095333422027595
-7.4673855585108715 -7.467385558510875 -2.121320343559643
-7.467385558510871 -7.467385558510875 -4.121320343559643
1.0864638436724483 -5.156176843446839 5.052962155876333
2.1864077255181886 -4.056232961601098 3.7958834337669156
2.861180655986908 -5.830949773915558 4.4244227948216235
3.7500695448757977 -4.942060885026669 5.979978350377179
-7.46738555851087 -2.121320343559645 -7.467385558510876
-7.467385558510868 -4.121320343559645 -7.467385558510875
2.695939551921179 1.2817259895480813 6.662437864125065
3.3244789129758883 0.4960517882296958 4.933954621224615
4.643202394303986 1.2971371793527515 6.206444533138702
4.865424616526209 -0.4806405984250265 7.095333422027591
-3.2054713783241646 -4.619684940697264 7.198929766874641
-4.61968494069726 -3.205471378324169 7.198929766874642
-4.865157503926393 -4.865157503926398 8.287591874778276
-3.976268615037504 -3.97626861503751 9.843147430333833
1.0864638436724494 5.052962155876337 -5.156176843446839
2.1864077255181895 3.7958834337669187 -4.056232961601097
2.8611806559869084 4.424422794821627 -5.830949773915557
3.750069544875798 5.979978350377182 -4.9420608850266685
-2.121320343559636 -7.4673855585108715 -7.467385558510874
-4.121320343559637 -7.467385558510872 -7.467385558510875
-3.0831357656093146 2.262929449341913 10.069613613095356
-2.8609135433870923 0.4851516715641353 10.958502501984244
2.6959395519211804 6.662437864125065 1.281725989548083
3.324478912975889 4.933954621224615 0.49605178822969653
4.643202394303987 6.206444533138703 1.2971371793527524
4.865424616526209 7.095333422027592 -0.4806405984250258
-3.2054713783241624 7.1989297668746435 -4.619684940697262
-4.619684940697258 7.198929766874644 -3.205471378324166
-4.865157503926391 8.287591874778279 -4.865157503926395
-3.976268615037503 9.843147430333834 -3.9762686150375064
2.2629294493419176 -3.0831357656093177 10.06961361309535
0.4851516715641398 -2.8609135433870962 10.95850250198424
-1.5959956700754332 8.808405475123372 1.818217892297659
-3.48161375323956 8.337000954332343 1.3468133715066273
-3.0831357656093146 10.069613613095356 2.262929449341915
-2.8609135433870927 10.958502501984245 0.4851516715641371
7.198929766874641 -3.2054713783241624 -4.6196849406972635
7.198929766874641 -4.619684940697258 -3.205471378324167
8.287591874778277 -4.86515750392639 -4.865157503926396
9.84314743033383 -3.976268615037501 -3.976268615037507
2.262929449341918 10.069613613095354 -3.083135765609317
0.48515167156414035 10.958502501984242 -2.860913543387094
8.80840547512337 -1.5959956700754327 1.8182178922976597
8.33700095433234 -3.4816137532395603 1.3468133715066277
10.069613613095353 -3.0831357656093146 2.2629294493419163
10.958502501984242 -2.8609135433870927 0.48515167156413874
-9.04725704826714 -9.047257048267149 -7.6330434858940555
-9.04725704826714 -7.633043485894052 -9.04725704826715
-7.633043485894044 -9.047257048267147 -9.04725704826715
8.80840547512337 1.8182178922976626 -1.5959956700754352
8.33700095433234 1.3468133715066308 -3.4816137532395635
10.069613613095353 2.2629294493419194 -3.083135765609317
10.958502501984242 0.48515167156414224 -2.8609135433870954
-14.606601717798213 -5.535533905932743 -2.121320343559655
-13.192388155425117 -6.949747468305837 -2.121320343559652
-15.124239808003253 -7.46738555851088 -2.121320343559654
-15.124239808003251 -7.467385558510881 -4.121320343559654
-14.60660171779821 -2.121320343559649 -5.535533905932749
-13.192388155425112 -2.1213203435596473 -6.9497474683058424
-15.124239808003248 -2.121320343559649 -7.4673855585108875
-15.124239808003248 -4.121320343559648 -7.4673855585108875
-2.1213203435596384 -14.606601717798208 -5.535533905932746
-2.1213203435596375 -13.192388155425112 -6.949747468305839
-4.121320343559638 -13.192388155425112 -6.949747468305841
-4.121320343559639 -14.60660171779821 -5.535533905932747
-2.1213203435596366 -15.124239808003248 -7.467385558510884
-4.121320343559637 -15.124239808003248 -7.467385558510885
-0.7071067811865466 -4.121320343559641 0.7071067811865483
-4.121320343559643 -0.7071067811865483 0.7071067811865475
-0.7071067811865457 0.7071067811865483 -4.121320343559643
-4.121320343559642 0.707106781186547 -0.7071067811865479
0.7071067811865497 -0.7071067811865457 -4.121320343559642
0.7071067811865497 -4.121320343559641 -0.707106781186547
-1.5848284408100652 -4.9990420031831615 2.8530743921848525
-0.4848845589643248 -3.8990981213374205 1.5959956700754354
-3.8990981213374205 -0.48488455896432614 1.5959956700754376
-4.999042003183161 -1.584828440810067 2.853074392184855
-4.776819780960938 -3.362606218587845 3.741963281073743
-3.3626062185878425 -4.776819780960939 3.741963281073742
1.1245911492844056 2.5388047116575 3.205471378324167
-3.4276936005463883 1.400733524199801 2.0674001908664703
2.5388047116575017 1.1245911492844052 3.205471378324166
1.4007335241998027 -3.4276936005463883 2.067400190866467
-5.6275813642378685 -0.7991542394916813 4.5815576350853044
-5.405359142015647 -2.5769320172694594 5.470446523974193
-0.7991542394916781 -5.627581364237871 4.581557635085302
-2.576932017269456 -5.405359142015649 5.470446523974191
-1.584828440810064 2.8530743921848556 -4.9990420031831615
-0.4848845589643237 1.5959956700754376 -3.8990981213374205
-3.8990981213374196 1.5959956700754376 -0.48488455896432536
-4.99904200318316 2.853074392184856 -1.5848284408100661
-4.776819780960936 3.7419632810737444 -3.3626062185878443
-3.362606218587842 3.741963281073745 -4.776819780960939
0.49605178822969753 4.933954621224616 3.324478912975888
1.1245911492844063 3.205471378324166 2.5388047116575008
-3.427693600546388 2.06740019086647 1.4007335241998018
-4.056232961601097 3.7958834337669183 2.1864077255181886
-3.1673440727122073 5.351438989322474 3.075296614407078
-1.2817259895480801 5.822843510113505 3.54670113519811
2.538804711657502 3.205471378324166 1.1245911492844056
1.4007335241998033 2.0674001908664685 -3.427693600546389
-4.267287954557949 6.608517711431892 1.9753527325613367
-5.156176843446838 5.052962155876337 1.0864638436724474
-5.627581364237868 4.581557635085305 -0.7991542394916796
-5.405359142015646 5.470446523974194 -2.576932017269458
-0.7991542394916766 4.581557635085305 -5.62758136423787
-2.5769320172694545 5.470446523974195 -5.405359142015649
1.2817259895480846 6.6624378641250654 2.695939551921178
-0.4960517882296932 7.551326753013955 2.9181617741434005
2.8530743921848547 -1.584828440810064 -4.9990420031831615
1.5959956700754372 -0.48488455896432403 -3.8990981213374205
1.5959956700754372 -3.8990981213374196 -0.4848845589643257
2.853074392184855 -4.99904200318316 -1.5848284408100666
3.741963281073744 -4.7768197809609365 -3.3626062185878443
3.741963281073744 -3.362606218587842 -4.77681978096094
4.933954621224616 0.49605178822969753 3.324478912975888
3.205471378324166 1.1245911492844058 2.5388047116575008
2.0674001908664694 -3.427693600546388 1.4007335241998018
3.7958834337669183 -4.056232961601097 2.1864077255181886
5.351438989322473 -3.167344072712207 3.075296614407077
5.822843510113505 -1.2817259895480801 3.5467011351981093
4.933954621224616 3.3244789129758883 0.4960517882296964
3.205471378324166 2.5388047116575017 1.1245911492844052
2.067400190866468 1.400733524199803 -3.427693600546389
3.795883433766918 2.1864077255181895 -4.056232961601098
5.351438989322473 3.0752966144070792 -3.1673440727122086
5.822843510113504 3.5467011351981106 -1.281725989548082
6.608517711431892 -4.267287954557947 1.9753527325613363
5.052962155876336 -5.156176843446836 1.0864638436724474
4.581557635085305 -5.627581364237868 -0.79915423949168
5.470446523974193 -5.405359142015646 -2.576932017269458
6.60851771143189 1.9753527325613396 -4.2672879545579505
5.052962155876336 1.0864638436724503 -5.156176843446839
4.5815576350853044 -0.7991542394916771 -5.62758136423787
5.470446523974193 -2.576932017269455 -5.405359142015649
7.551326753013953 2.9181617741434027 -0.4960517882296952
6.6624378641250654 2.69593955192118 1.2817259895480826
6.662437864125065 1.2817259895480846 2.695939551921178
7.551326753013954 -0.4960517882296932 2.9181617741434005
-13.192388155425123 -2.121320343559648 0.707106781186539
-11.778174593052029 -0.7071067811865532 0.7071067811865404
-9.778174593052029 -0.707106781186551 0.707106781186543
-8.363961030678933 -2.1213203435596446 0.7071067811865448
-8.363961030678933 -4.121320343559645 0.7071067811865452
-9.778174593052025 -5.53553390593274 0.7071067811865444
-11.778174593052025 -5.535533905932742 0.7071067811865417
-13.192388155425121 -4.121320343559648 0.707106781186539
-13.192388155425121 0.7071067811865417 -2.1213203435596526
-11.778174593052029 0.707106781186543 -0.7071067811865555
-9.778174593052029 0.7071067811865448 -0.7071067811865523
-8.363961030678933 0.7071067811865457 -2.121320343559646
-8.36396103067893 0.7071067811865457 -4.121320343559646
-9.778174593052022 0.7071067811865452 -5.535533905932743
-11.778174593052022 0.7071067811865439 -5.535533905932747
-13.19238815542512 0.7071067811865421 -4.121320343559653
-11.778174593052022 -6.949747468305837 -0.7071067811865546
-9.778174593052023 -6.949747468305835 -0.7071067811865519
-8.363961030678926 -6.949747468305834 -2.121320343559645
-8.363961030678924 -6.949747468305834 -4.1213203435596455
-9.778174593052016 -6.9497474683058345 -5.535533905932743
-11.77817459305202 -0.707106781186551 -6.949747468305842
-9.77817459305202 -0.7071067811865501 -6.949747468305839
-8.363961030678922 -2.121320343559643 -6.949747468305837
-8.363961030678922 -4.121320343559643 -6.949747468305837
-9.778174593052016 -5.5355339059327395 -6.949747468305839
-14.606601717798213 -0.7071067811865546 -4.121320343559654
-14.606601717798215 -0.7071067811865541 -2.121320343559654
-14.606601717798217 -2.1213203435596495 -0.7071067811865586
-14.606601717798215 -4.121320343559649 -0.707106781186559
-2.121320343559642 -13.192388155425117 0.7071067811865426
-0.7071067811865466 -11.778174593052023 0.7071067811865439
-0.7071067811865466 -9.778174593052025 0.7071067811865457
-2.121320343559641 -8.36396103067893 0.707106781186547
-4.121320343559642 -8.36396103067893 0.7071067811865466
-5.535533905932737 -9.778174593052023 0.7071067811865452
-5.535533905932737 -11.778174593052023 0.707106781186543
-4.121320343559642 -13.192388155425117 0.7071067811865421
0.7071067811865501 -13.192388155425117 -2.121320343559648
0.7071067811865497 -11.778174593052023 -0.707106781186551
0.7071067811865501 -9.778174593052023 -0.7071067811865492
0.707106781186551 -8.363961030678928 -2.1213203435596433
0.7071067811865519 -8.363961030678926 -4.121320343559644
0.7071067811865528 -9.778174593052018 -5.53553390593274
0.7071067811865528 -11.778174593052018 -5.535533905932743
0.707106781186551 -13.192388155425114 -4.121320343559648
-6.949747468305831 -13.192388155425116 -2.1213203435596495
-6.949747468305832 -11.778174593052022 -0.7071067811865532
-6.949747468305832 -9.778174593052022 -0.707106781186551
-6.94974746830583 -8.363961030678926 -2.1213203435596446
-6.94974746830583 -8.363961030678924 -4.121320343559645
-6.949747468305829 -9.778174593052018 -5.535533905932741
-6.949747468305829 -11.778174593052018 -5.535533905932744
-6.94974746830583 -13.192388155425114 -4.12132034355965
-0.7071067811865421 -11.778174593052016 -6.949747468305839
-0.7071067811865421 -9.778174593052018 -6.949747468305836
-2.1213203435596366 -8.363961030678922 -6.949747468305835
-4.1213203435596375 -8.363961030678922 -6.949747468305835
-5.535533905932732 -9.778174593052016 -6.949747468305837
-5.535533905932732 -11.778174593052016 -6.949747468305839
-0.7071067811865435 -14.60660171779821 -4.12132034355965
-0.7071067811865457 -14.606601717798211 -2.1213203435596495
-2.121320343559641 -14.606601717798213 -0.707106781186555
-4.121320343559641 -14.606601717798211 -0.7071067811865555
-5.535533905932736 -14.60660171779821 -2.1213203435596513
-5.535533905932734 -14.606601717798208 -4.121320343559651
-2.121320343559643 0.7071067811865417 -13.192388155425125
-0.707106781186547 0.7071067811865435 -11.778174593052029
-0.7071067811865457 0.7071067811865461 -9.77817459305203
-2.12132034355964 0.707106781186547 -8.363961030678935
-4.12132034355964 0.7071067811865466 -8.363961030678933
-5.535533905932736 0.7071067811865448 -9.778174593052027
-5.535533905932738 0.7071067811865417 -11.778174593052027
-4.121320343559643 0.7071067811865417 -13.192388155425123
0.7071067811865488 -2.1213203435596473 -13.192388155425123
0.7071067811865492 -0.707106781186551 -11.778174593052029
0.7071067811865506 -0.7071067811865483 -9.778174593052029
0.7071067811865519 -2.121320343559642 -8.363961030678933
0.7071067811865519 -4.121320343559642 -8.363961030678931
0.7071067811865519 -5.535533905932738 -9.778174593052025
0.7071067811865501 -5.5355339059327395 -11.778174593052025
0.7071067811865492 -4.121320343559647 -13.192388155425121
-6.949747468305833 -2.1213203435596495 -13.192388155425117
-6.949747468305832 -0.7071067811865537 -11.778174593052025
-6.949747468305832 -0.707106781186551 -9.778174593052025
-6.94974746830583 -2.121320343559644 -8.36396103067893
-6.949747468305829 -4.121320343559645 -8.363961030678928
-6.94974746830583 -5.535533905932741 -9.77817459305202
-6.94974746830583 -5.535533905932743 -11.77817459305202
-6.949747468305832 -4.12132034355965 -13.192388155425117
-2.12132034355964 -6.949747468305838 -13.192388155425117
-0.7071067811865448 -6.949747468305836 -11.778174593052023
-0.7071067811865435 -6.949747468305834 -9.778174593052023
-2.1213203435596375 -6.949747468305833 -8.363961030678926
-4.121320343559638 -6.949747468305834 -8.363961030678926
-5.535533905932734 -6.949747468305835 -9.77817459305202
-5.535533905932735 -6.949747468305837 -11.77817459305202
-4.121320343559641 -6.949747468305839 -13.192388155425116
-2.1213203435596415 -5.535533905932745 -14.606601717798213
-0.7071067811865461 -4.121320343559649 -14.606601717798215
-0.707106781186547 -2.1213203435596495 -14.606601717798217
-2.1213203435596433 -0.7071067811865555 -14.606601717798217
-4.121320343559643 -0.7071067811865559 -14.606601717798217
-5.535533905932738 -2.121320343559651 -14.606601717798215
-5.535533905932738 -4.121320343559651 -14.606601717798213
-4.121320343559642 -5.535533905932745 -14.606601717798213
3.899098121337426 6.727525246083605 10.889285704163143
4.527637482392134 5.9418510447652215 9.160802461262692
3.6387485935032453 5.052962155876335 7.605246905707136
1.7531305103391188 4.581557635085304 7.133842384916103
-0.024647267438659082 4.803779857307525 8.022731273804993
-0.6531866284933683 5.58945405862591 9.751214516705442
0.235702260395521 6.478342947514797 11.306770072261
2.1213203435596473 6.9497474683058265 11.778174593052032
6.727525246083614 3.8990981213374143 10.88928570416314
5.9418510447652295 4.527637482392127 9.16080246126269
5.05296215587634 3.6387485935032395 7.605246905707134
4.581557635085309 1.7531305103391137 7.1338423849160995
4.80377985730753 -0.0246472674386653 8.022731273804986
5.589454058625916 -0.6531866284933767 9.751214516705435
6.478342947514804 0.2357022603955099 11.306770072260992
6.949747468305837 2.1213203435596353 11.778174593052027
-0.07856742013183471 4.749859704614343 14.292332037270866
-0.8642416214502204 5.378399065669053 12.563848794370417
-1.7531305103391088 4.4895101767801675 11.00829323881486
-2.224535031130141 2.603892093616042 10.536888718023825
-2.0023128089079196 0.8261143158382627 11.425777606912712
-1.216638607589534 0.19757495478355125 13.15426084981316
-0.32774971870064507 1.0864638436724379 14.709816405368716
0.14365480209038672 2.9720819268365632 15.181220926159751
4.749859704614354 -0.07856742013184848 14.292332037270858
5.378399065669063 -0.8642416214502329 12.563848794370408
4.489510176780174 -1.7531305103391186 11.00829323881485
2.6038920936160475 -2.224535031130149 10.53688871802382
0.8261143158382693 -2.0023128089079276 11.425777606912709
0.19757495478356057 -1.2166386075895437 13.15426084981316
1.0864638436724496 -0.3277497187006575 14.709816405368715
2.972081926836576 0.1436548020903725 15.181220926159748
5.2212642254053865 1.8070506630322778 14.763736558061893
6.3212081072511275 2.9069945448780192 13.506657835952478
6.098985885028906 4.684772322655798 12.61776894706359
4.684772322655811 6.098985885028894 12.617768947063592
2.9069945448780334 6.321208107251115 13.506657835952481
1.8070506630322924 5.221264225405373 14.763736558061897
2.029272885254514 3.443486447627594 15.652625446950784
3.4434864476276084 2.029272885254499 15.652625446950783
6 0 1 2 3 4 5
6 6 7 2 3 8 9
6 6 7 1 0 10 11
6 9 8 4 5 10 11
3 7 2 1
3 8 3 4
3 10 0 5
3 11 6 9
6 12 13 14 15 16 17
6 18 19 14 13 20 21
6 22 16 15 19 18 23
6 21 20 12 17 22 23
3 19 14 15
3 20 13 12
3 22 16 17
3 23 18 21
6 24 25 26 27 28 29
6 30 31 26 25 32 33
6 34 28 27 31 30 35
6 33 32 24 29 34 35
3 31 26 27
3 32 25 24
3 34 28 29
3 35 30 33
6 36 37 38 39 40 41
6 42 43 38 39 44 45
6 46 36 37 43 42 47
6 46 41 40 44 45 47
3 43 38 37
3 44 39 40
3 46 36 41
3 47 42 45
6 48 49 50 51 52 53
6 54 55 50 49 56 57
6 58 52 51 55 54 59
6 57 56 48 53 58 59
3 55 50 51
3 56 49 48
3 58 52 53
3 59 54 57
6 60 61 62 63 64 65
6 66 67 62 63 68 69
6 70 60 61 67 66 71
6 70 65 64 68 69 71
3 67 62 61
3 68 63 64
3 70 60 65
3 71 66 69
6 72 73 74 75 76 77
6 78 79 74 73 80 81
6 82 76 75 79 78 83
6 81 80 72 77 82 83
3 79 74 75
3 80 73 72
3 82 76 77
3 83 78 81
6 84 85 86 87 88 89
6 90 91 86 87 92 93
6 94 84 85 91 90 95
6 94 89 88 92 93 95
3 91 86 85
3 92 87 88
3 94 84 89
3 95 90 93
6 96 97 98 99 100 101
6 102 103 98 99 104 105
6 106 96 97 103 102 107
6 106 101 100 104 105 107
3 103 98 97
3 104 99 100
3 106 96 101
3 107 102 105
6 108 109 110 111 112 113
6 114 115 110 111 116 117
6 114 115 109 108 118 119
6 117 116 112 113 118 119
3 115 110 109
3 116 111 112
3 118 108 113
3 119 114 117
6 120 121 122 123 124 125
6 126 127 122 123 128 129
6 130 120 121 127 126 131
6 130 125 124 128 129 131
3 127 122 121
3 128 123 124
3 130 120 125
3 131 126 129
6 132 133 134 135 136 137
6 138 139 134 135 140 141
6 138 139 133 132 142 143
6 141 140 136 137 142 143
3 139 134 133
3 140 135 136
3 142 132 137
3 143 138 141
6 144 145 146 147 148 149
6 150 151 146 147 152 153
6 154 144 145 151 150 155
6 154 149 148 152 153 155
3 151 146 145
3 152 147 148
3 154 144 149
3 155 150 153
6 156 157 158 159 160 161
6 162 163 158 159 164 165
6 162 163 157 156 166 167
6 165 164 160 161 166 167
3 163 158 157
3 164 159 160
3 166 156 161
3 167 162 165
6 168 169 170 171 172 173
6 174 175 170 171 176 177
6 174 175 169 168 178 179
6 177 176 172 173 178 179
3 175 170 169
3 176 171 172
3 178 168 173
3 179 174 177
6 180 181 182 183 184 185
6 186 187 182 183 188 189
6 186 187 181 180 190 191
6 189 188 184 185 190 191
3 187 182 181
3 188 183 184
3 190 180 185
3 191 186 189
4 1 2 14 15
4 7 2 14 19
4 7 1 15 19
3 7 2 1
3 19 14 15
4 4 3 26 27
4 8 3 26 31
4 8 4 27 31
3 8 3 4
3 31 26 27
4 192 193 38 37
4 194 193 38 195
4 194 192 37 195
3 194 193 192
3 195 38 37
4 5 0 50 51
4 10 0 50 55
4 10 5 51 55
3 10 0 5
3 55 50 51
4 196 197 39 40
4 198 197 39 199
4 198 196 40 199
3 198 197 196
3 199 39 40
4 200 201 62 61
4 202 201 62 203
4 202 200 61 203
3 202 201 200
3 203 62 61
4 9 6 74 75
4 11 6 74 79
4 11 9 75 79
3 11 6 9
3 79 74 75
4 204 205 63 64
4 206 205 63 207
4 206 204 64 207
3 206 205 204
3 207 63 64
4 208 209 86 85
4 210 209 86 211
4 210 208 85 211
3 210 209 208
3 211 86 85
4 212 213 98 97
4 214 213 98 215
4 214 212 97 215
3 214 213 212
3 215 98 97
4 216 217 87 88
4 218 217 87 219
4 218 216 88 219
3 218 217 216
3 219 87 88
4 220 221 99 100
4 222 221 99 223
4 222 220 100 223
3 222 221 220
3 223 99 100
4 41 36 110 109
4 224 36 110 225
4 224 41 109 225
3 224 36 41
3 225 110 109
4 226 227 122 121
4 228 227 122 229
4 228 226 121 229
3 228 227 226
3 229 122 121
4 65 60 111 112
4 230 60 111 231
4 230 65 112 231
3 230 60 65
3 231 111 112
4 232 233 123 124
4 234 233 123 235
4 234 232 124 235
3 234 233 232
3 235 123 124
4 236 237 134 133
4 238 237 134 239
4 238 236 133 239
3 238 237 236
3 239 134 133
4 240 241 146 145
4 242 241 146 243
4 242 240 145 243
3 242 241 240
3 243 146 145
4 89 84 108 113
4 244 84 108 245
4 244 89 113 245
3 244 84 89
3 245 108 113
4 101 96 135 136
4 246 96 135 247
4 246 101 136 247
3 246 96 101
3 247 135 136
4 248 249 147 148
4 250 249 147 251
4 250 248 148 251
3 250 249 248
3 251 147 148
4 252 253 158 157
4 254 253 158 255
4 254 252 157 255
3 254 253 252
3 255 158 157
4 125 120 132 137
4 256 120 132 257
4 256 125 137 257
3 256 120 125
3 257 132 137
4 258 259 159 160
4 260 259 159 261
4 260 258 160 261
3 260 259 258
3 261 159 160
4 262 263 170 169
4 264 263 170 265
4 264 262 169 265
3 264 263 262
3 265 170 169
4 149 144 156 161
4 266 144 156 267
4 266 149 161 267
3 266 144 149
3 267 156 161
4 268 269 171 172
4 270 269 171 271
4 270 268 172 271
3 270 269 268
3 271 171 172
4 117 114 272 273
4 119 114 272 274
4 119 117 273 274
3 119 114 117
3 274 272 273
4 275 276 168 173
4 277 276 168 278
4 277 275 173 278
3 277 276 275
3 278 168 173
4 279 280 183 184
4 281 280 183 282
4 281 279 184 282
3 281 280 279
3 282 183 184
4 283 284 180 185
4 285 284 180 286
4 285 283 185 286
3 285 284 283
3 286 180 185
4 287 288 289 290
4 291 288 289 292
4 291 287 290 292
3 291 288 287
3 292 289 290
8 197 293 3 2 294 193 38 39
8 205 295 0 1 296 201 62 63
8 217 297 5 4 298 209 86 87
8 60 61 200 192 37 36 110 111
8 84 85 208 196 40 41 109 108
8 89 88 216 204 64 65 112 113
4 1 2 294 296
4 4 3 293 298
4 192 193 38 37
4 5 0 295 297
4 196 197 39 40
4 200 201 62 61
4 204 205 63 64
4 208 209 86 85
4 216 217 87 88
4 41 36 110 109
4 65 60 111 112
4 89 84 108 113
6 0 1 2 3 4 5
6 192 193 294 296 201 200
6 196 197 293 298 209 208
6 36 37 38 39 40 41
6 204 205 295 297 217 216
6 60 61 62 63 64 65
6 84 85 86 87 88 89
6 108 109 110 111 112 113
8 299 300 3 2 301 302 303 304
8 221 305 6 7 306 213 98 99
8 233 307 9 8 308 227 122 123
8 96 97 212 309 310 237 134 135
8 120 121 226 311 312 236 133 132
8 125 124 232 220 100 101 136 137
4 7 2 301 306
4 8 3 300 308
4 309 302 303 310
4 9 6 305 307
4 311 299 304 312
4 212 213 98 97
4 220 221 99 100
4 226 227 122 121
4 232 233 123 124
4 236 237 134 133
4 101 96 135 136
4 125 120 132 137
6 6 7 2 3 8 9
6 213 306 301 302 309 212
6 227 308 300 299 311 226
6 237 310 303 304 312 236
6 220 221 305 307 233 232
6 96 97 98 99 100 101
6 120 121 122 123 124 125
6 132 133 134 135 136 137
8 313 314 0 1 315 316 317 318
8 319 320 6 7 321 322 323 324
8 249 325 11 10 326 241 146 147
8 259 327 328 329 330 253 158 159
8 144 145 240 331 332 252 157 156
8 149 148 248 333 334 258 160 161
4 7 1 315 321
4 10 0 314 326
4 329 316 317 330
4 11 6 320 325
4 331 313 318 332
4 328 322 323 327
4 333 319 324 334
4 240 241 146 145
4 248 249 147 148
4 252 253 158 157
4 258 259 159 160
4 149 144 156 161
6 6 7 1 0 10 11
6 329 316 315 321 322 328
6 241 326 314 313 331 240
6 253 330 317 318 332 252
6 249 325 320 319 333 248
6 259 327 323 324 334 258
6 144 145 146 147 148 149
6 156 157 158 159 160 161
8 335 336 5 4 337 338 339 340
8 341 342 9 8 343 344 345 346
8 347 348 11 10 349 350 351 352
8 269 353 354 355 356 263 170 171
8 276 357 358 359 360 262 169 168
8 275 361 362 363 364 268 172 173
4 8 4 337 343
4 10 5 336 349
4 355 338 339 356
4 11 9 342 348
4 359 335 340 360
4 354 344 345 353
4 363 341 346 364
4 358 350 351 357
4 362 347 352 361
4 262 263 170 169
4 268 269 171 172
4 275 276 168 173
6 9 8 4 5 10 11
6 355 338 337 343 344 354
6 359 335 336 349 350 358
6 263 356 339 340 360 262
6 363 341 342 348 347 362
6 269 353 345 346 364 268
6 276 357 351 352 361 275
6 168 169 170 171 172 173
8 60 61 200 192 37 36 110 111
8 365 366 367 368 369 370 371 372
8 373 374 375 376 377 378 379 380
8 280 381 382 383 384 385 182 183
8 284 386 387 388 389 390 181 180
8 283 391 392 393 394 279 184 185
4 368 192 37 369
4 376 200 61 377
4 383 36 110 384
4 375 367 366 374
4 388 60 111 389
4 382 370 371 381
4 393 365 372 394
4 387 378 379 386
4 392 373 380 391
4 390 385 182 181
4 279 280 183 184
4 283 284 180 185
6 367 368 192 200 376 375
6 383 36 37 369 370 382
6 388 60 61 377 378 387
6 385 384 110 111 389 390
6 393 365 366 374 373 392
6 280 381 371 372 394 279
6 284 386 379 380 391 283
6 180 181 182 183 184 185
8 84 85 208 196 40 41 109 108
8 395 396 397 398 399 400 401 402
8 403 404 405 406 407 408 409 410
8 411 412 413 414 415 416 417 418
8 288 419 420 421 422 423 424 289
8 287 425 426 427 428 429 430 290
4 398 196 40 399
4 406 208 85 407
4 414 41 109 415
4 405 397 396 404
4 421 84 108 422
4 413 400 401 412
4 427 395 402 428
4 420 408 409 419
4 426 403 410 425
4 423 416 417 424
4 429 411 418 430
4 287 288 289 290
6 397 398 196 208 406 405
6 414 41 40 399 400 413
6 421 84 85 407 408 420
6 416 415 109 108 422 423
6 427 395 396 404 403 426
6 411 412 401 402 428 429
6 288 419 409 410 425 287
6 289 424 417 418 430 290
8 89 88 216 204 64 65 112 113
8 431 432 433 434 435 436 437 438
8 439 440 441 442 443 444 445 446
8 447 448 449 450 451 452 453 454
8 455 456 457 458 459 460 461 462
8 463 464 465 466 467 468 469 470
4 434 204 64 435
4 442 216 88 443
4 450 65 112 451
4 441 433 432 440
4 458 89 113 459
4 449 436 437 448
4 466 431 438 467
4 457 444 445 456
4 465 439 446 464
4 460 452 453 461
4 468 447 454 469
4 463 455 462 470
6 433 434 204 216 442 441
6 450 65 64 435 436 449
6 458 89 88 443 444 457
6 452 451 112 113 459 460
6 466 431 432 440 439 465
6 447 448 437 438 467 468
6 455 456 445 446 464 463
6 462 461 453 454 469 470
8 125 124 232 220 100 101 136 137
8 471 472 473 474 475 476 477 478
8 479 480 481 482 483 484 485 486
8 487 488 489 490 491 492 493 494
8 495 496 497 498 499 500 501 502
8 503 504 505 506 507 508 509 510
4 474 220 100 475
4 482 232 124 483
4 490 101 136 491
4 481 473 472 480
4 498 125 137 499
4 489 476 477 488
4 506 471 478 507
4 497 484 485 496
4 505 479 486 504
4 500 492 493 501
4 508 487 494 509
4 503 495 502 510
6 473 474 220 232 482 481
6 490 101 100 475 476 489
6 498 125 124 483 484 497
6 492 491 136 137 499 500
6 506 471 472 480 479 505
6 487 488 477 478 507 508
6 495 496 485 486 504 503
6 502 501 493 494 509 510
# cell 1: 0 1 2 3 4 5 6 7
# cell 2: 8 9 10 11 12 13 14 15
# cell 3: 16 17 18 19 20 21 22 23
# cell 4: 24 25 26 27 28 29 30 31
# cell 5: 32 33 34 35 36 37 38 39
# cell 6: 40 41 42 43 44 45 46 47
# cell 7: 48 49 50 51 52 53 54 55
# cell 8: 56 57 58 59 60 61 62 63
# cell 9: 64 65 66 67 68 69 70 71
# cell 10: 72 73 74 75 76 77 78 79
# cell 11: 80 81 82 83 84 85 86 87
# cell 12: 88 89 90 91 92 93 94 95
# cell 13: 96 97 98 99 100 101 102 103
# cell 14: 104 105 106 107 108 109 110 111
# cell 15: 112 113 114 115 116 117 118 119
# cell 16: 120 121 122 123 124 125 126 127
# cell 17: 128 129 130 131 132
# cell 18: 133 134 135 136 137
# cell 19: 138 139 140 141 142
# cell 20: 143 144 145 146 147
# cell 21: 148 149 150 151 152
# cell 22: 153 154 155 156 157
# cell 23: 158 159 160 161 162
# cell 24: 163 164 165 166 167
# cell 25: 168 169 170 171 172
# cell 26: 173 174 175 176 177
# cell 27: 178 179 180 181 182
# cell 28: 183 184 185 186 187
# cell 29: 188 189 190 191 192
# cell 30: 193 194 195 196 197
# cell 31: 198 199 200 201 202
# cell 32: 203 204 205 206 207
# cell 33: 208 209 210 211 212
# cell 34: 213 214 215 216 217
# cell 35: 218 219 220 221 222
# cell 36: 223 224 225 226 227
# cell 37: 228 229 230 231 232
# cell 38: 233 234 235 236 237
# cell 39: 238 239 240 241 242
# cell 40: 243 244 245 246 247
# cell 41: 248 249 250 251 252
# cell 42: 253 254 255 256 257
# cell 43: 258 259 260 261 262
# cell 44: 263 264 265 266 267
# cell 45: 268 269 270 271 272
# cell 46: 273 274 275 276 277
# cell 47: 278 279 280 281 282
# cell 48: 283 284 285 286 287
# cell 49: 288 289 290 291 292 293 294 295 296 297 298 299 300 301 302 303 304 305 306 307 308 309 310 311 312 313
# cell 50: 314 315 316 317 318 319 320 321 322 323 324 325 326 327 328 329 330 331 332 333 334 335 336 337 338 339
# cell 51: 340 341 342 343 344 345 346 347 348 349 350 351 352 353 354 355 356 357 358 359 360 361 362 363 364 365
# cell 52: 366 367 368 369 370 371 372 373 374 375 376 377 378 379 380 381 382 383 384 385 386 387 388 389 390 391
# cell 53: 392 393 394 395 396 397 398 399 400 401 402 403 404 405 406 407 408 409 410 411 412 413 414 415 416 417
# cell 54: 418 419 420 421 422 423 424 425 426 427 428 429 430 431 432 433 434 435 436 437 438 439 440 441 442 443
# cell 55: 444 445 446 447 448 449 450 451 452 453 454 455 456 457 458 459 460 461 462 463 464 465 466 467 468 469
# cell 56: 470 471 472 473 474 475 476 477 478 479 480 481 482 483 484 485 486 487 488 489 490 491 492 493 494 495