OFF
# face-rotation BFS net; polygonal faces are preserved
# the cell decomposition is listed below as comments
1122 928 0
-1.4142135623730963 1.1792034397339492e-15 -2.8284271247461894
-2.828427124746191 1.6232926495840119e-15 -1.4142135623730945
-2.828427124746191 -1.4142135623730943 7.351142298838866e-16
-1.4142135623730958 -2.82842712474619 7.351142298838866e-16
-5.820500400676481e-16 -2.8284271247461903 -1.4142135623730947
-5.820500400676481e-16 -1.414213562373095 -2.8284271247461894
-7.216449660063518e-16 1.4142135623730958 2.8284271247461903
-1.8856180831641278 0.9428090415820646 2.3570226039551585
-2.3570226039551594 -0.9428090415820627 1.8856180831641267
-0.942809041582064 -2.3570226039551585 1.8856180831641267
0.9428090415820629 -1.885618083164127 2.3570226039551585
1.4142135623730947 -5.551115123125783e-17 2.8284271247461903
-1.1102230246251565e-15 2.8284271247461907 1.4142135623730956
-1.885618083164128 2.357022603955159 0.9428090415820641
-2.35702260395516 1.8856180831641276 -0.9428090415820631
-0.9428090415820648 1.8856180831641276 -2.357022603955158
0.9428090415820625 2.357022603955159 -1.8856180831641263
1.414213562373094 2.8284271247461907 3.3306690738754696e-16
2.8284271247461894 -2.7755575615628914e-16 1.4142135623730954
2.3570226039551576 -1.8856180831641272 0.9428090415820641
1.8856180831641256 -2.357022603955159 -0.9428090415820631
1.8856180831641256 -0.9428090415820637 -2.3570226039551585
2.357022603955157 0.9428090415820637 -1.8856180831641265
2.828427124746189 1.4142135623730951 1.1102230246251565e-16
-8.209894507845842 -1.186448223177021 0.22776533919607456
-6.481411264945392 -1.8149875842317298 1.0134395405144607
-4.752928022044944 -1.0293133829133432 0.38490017945975175
-4.752928022044944 0.38490017945975286 -1.0293133829133436
-6.481411264945393 1.0134395405144618 -1.8149875842317298
-8.209894507845842 0.227765339196075 -1.1864482231770201
-7.2670854662637785 -0.24363918159495768 3.999001505524328
-6.010006744154361 -1.3435830634406984 2.899057623678586
-4.281523501253911 -0.5579088621223118 2.2705182626238773
-3.8101189804628803 1.3277092210418158 2.7419227834149096
-5.067197702572297 2.427653102887556 3.8418666652606497
-6.795680945472747 1.64197890156917 4.470406026315359
-7.26708546626378 3.999001505524328 -0.24363918159495723
-6.010006744154362 2.899057623678588 -1.343583063440698
-4.281523501253913 2.2705182626238787 -0.557908862122312
-3.8101189804628817 2.7419227834149105 1.327709221041815
-5.067197702572297 3.8418666652606515 2.4276531028875556
-6.795680945472748 4.47040602631536 1.6419789015691695
-8.524164188373195 2.2705182626238782 3.684731824996974
-8.995568709164228 0.3849001794597513 3.213327304205942
-9.46697322995526 -0.08650434133128027 1.3277092210418149
-9.46697322995526 1.3277092210418149 -0.08650434133128027
-8.995568709164228 3.2133273042059427 0.38490017945975163
-8.524164188373197 3.684731824996975 2.2705182626238782
-1.1864482231770257 -8.209894507845842 0.2277653391960741
-1.814987584231734 -6.4814112649453905 1.0134395405144603
-1.029313382913346 -4.752928022044942 0.3849001794597515
0.3849001794597495 -4.752928022044942 -1.0293133829133443
1.0134395405144576 -6.481411264945393 -1.81498758423173
0.22776533919607034 -8.209894507845842 -1.1864482231770208
-0.24363918159496167 -7.267085466263778 3.999001505524327
-1.3435830634407022 -6.010006744154359 2.899057623678586
-0.5579088621223143 -4.2815235012539095 2.270518262623878
1.327709221041813 -3.8101189804628794 2.7419227834149087
2.427653102887553 -5.067197702572298 3.84186666526065
1.6419789015691657 -6.795680945472748 4.470406026315359
3.999001505524324 -7.267085466263782 -0.24363918159495723
2.8990576236785834 -6.010006744154363 -1.3435830634406982
2.2705182626238765 -4.281523501253913 -0.5579088621223123
2.7419227834149087 -3.810118980462881 1.3277092210418149
3.841866665260648 -5.067197702572299 2.427653102887555
4.470406026315356 -6.79568094547275 1.6419789015691693
2.270518262623874 -8.524164188373199 3.684731824996973
0.38490017945974586 -8.995568709164226 3.213327304205942
-0.08650434133128626 -9.46697322995526 1.3277092210418144
1.3277092210418096 -9.466973229955261 -0.08650434133128049
3.213327304205937 -8.99556870916423 0.3849001794597515
3.6847318249969687 -8.524164188373199 2.2705182626238782
-8.404401145198811 -6.990187582825711 0.6666666666666652
-7.932996624407778 -5.104569499661585 1.1380711874576979
-6.047378541243651 -4.633164978870553 1.6094757082487314
-4.633164978870555 -6.047378541243649 1.6094757082487314
-5.104569499661587 -7.932996624407776 1.1380711874576983
-6.990187582825714 -8.404401145198808 0.6666666666666652
-6.990187582825718 -5.57597402045262 6.323520916159046
-6.990187582825717 -4.161760458079524 4.909307353785952
-5.5759740204526205 -4.161760458079522 3.495093791412858
-4.1617604580795255 -5.575974020452619 3.4950937914128573
-4.1617604580795255 -6.990187582825715 4.909307353785952
-5.575974020452621 -6.990187582825715 6.323520916159046
-9.818614707571905 -8.404401145198808 3.4950937914128533
-9.818614707571905 -6.990187582825712 2.0808802290397583
-9.347210186780874 -5.104569499661585 2.552284749830792
-8.875805665989843 -4.633164978870555 4.4379028329949195
-8.875805665989844 -6.047378541243651 5.8521163953680135
-9.347210186780876 -7.932996624407777 5.3807118745769795
-8.404401145198811 -9.818614707571903 3.4950937914128533
-6.9901875828257145 -9.818614707571903 2.0808802290397583
-5.104569499661588 -9.347210186780872 2.5522847498307915
-4.633164978870558 -8.87580566598984 4.4379028329949195
-6.047378541243653 -8.87580566598984 5.852116395368013
-7.93299662440778 -9.347210186780872 5.38071187457698
-1.1864482231770246 0.22776533919607367 -8.20989450784584
-1.8149875842317333 1.01343954051446 -6.4814112649453905
-1.0293133829133463 0.3849001794597512 -4.752928022044941
0.3849001794597491 -1.0293133829133445 -4.752928022044941
1.013439540514458 -1.8149875842317316 -6.481411264945391
0.227765339196071 -1.186448223177022 -8.209894507845842
-0.24363918159496145 3.999001505524326 -7.267085466263778
-1.343583063440702 2.899057623678586 -6.010006744154359
-0.5579088621223149 2.270518262623878 -4.28152350125391
1.3277092210418122 2.7419227834149087 -3.8101189804628786
2.4276531028875525 3.841866665260649 -5.0671977025722965
1.641978901569166 4.470406026315358 -6.795680945472746
3.9990015055243244 -0.24363918159495923 -7.2670854662637785
2.8990576236785843 -1.3435830634407002 -6.01000674415436
2.2705182626238756 -0.5579088621223136 -4.281523501253911
2.7419227834149074 1.3277092210418138 -3.810118980462879
3.841866665260648 2.427653102887554 -5.0671977025722965
4.470406026315357 1.6419789015691673 -6.795680945472747
2.2705182626238747 3.6847318249969723 -8.524164188373197
0.3849001794597473 3.2133273042059405 -8.995568709164226
-0.08650434133128448 1.3277092210418135 -9.466973229955258
1.327709221041811 -0.08650434133128226 -9.46697322995526
3.2133273042059383 0.3849001794597494 -8.995568709164228
3.6847318249969696 2.2705182626238756 -8.524164188373195
-8.40440114519881 0.6666666666666656 -6.990187582825714
-7.932996624407778 1.1380711874576983 -5.1045694996615865
-6.047378541243651 1.6094757082487308 -4.633164978870554
-4.633164978870555 1.6094757082487303 -6.04737854124365
-5.104569499661587 1.1380711874576983 -7.932996624407777
-6.990187582825714 0.6666666666666652 -8.40440114519881
-6.990187582825716 6.323520916159046 -5.57597402045262
-6.990187582825715 4.909307353785952 -4.161760458079524
-5.57597402045262 3.4950937914128577 -4.161760458079524
-4.161760458079524 3.495093791412857 -5.57597402045262
-4.1617604580795255 4.909307353785952 -6.990187582825715
-5.575974020452621 6.323520916159047 -6.9901875828257145
-9.818614707571905 3.4950937914128546 -8.40440114519881
-9.818614707571905 2.0808802290397597 -6.9901875828257145
-9.347210186780872 2.5522847498307923 -5.104569499661588
-8.87580566598984 4.43790283299492 -4.633164978870555
-8.875805665989843 5.852116395368014 -6.047378541243651
-9.347210186780874 5.380711874576981 -7.932996624407779
-8.404401145198811 3.4950937914128546 -9.818614707571905
-6.9901875828257145 2.080880229039759 -9.818614707571903
-5.104569499661588 2.552284749830792 -9.347210186780872
-4.633164978870557 4.437902832994919 -8.87580566598984
-6.047378541243653 5.8521163953680135 -8.87580566598984
-7.932996624407779 5.380711874576981 -9.347210186780874
2.568914100752347 3.9831276631254453 6.811554787871632
1.1547005383792506 3.983127663125445 5.397341225498536
1.154700538379251 2.5689141007523486 3.983127663125442
2.5689141007523473 1.1547005383792528 3.983127663125443
3.9831276631254426 1.1547005383792537 5.397341225498538
3.9831276631254426 2.56891410075235 6.811554787871632
2.5689141007523455 6.811554787871636 3.983127663125441
1.1547005383792497 5.397341225498538 3.983127663125442
1.1547005383792501 3.9831276631254435 2.5689141007523473
2.5689141007523455 3.983127663125443 1.154700538379252
3.98312766312544 5.397341225498538 1.1547005383792506
3.98312766312544 6.811554787871636 2.568914100752346
6.811554787871632 2.568914100752348 3.9831276631254413
5.397341225498537 1.1547005383792524 3.9831276631254426
3.9831276631254413 1.1547005383792524 2.5689141007523473
3.983127663125441 2.5689141007523477 1.1547005383792524
5.3973412254985345 3.983127663125443 1.154700538379251
6.811554787871632 3.983127663125444 2.5689141007523464
5.397341225498535 6.811554787871635 3.9831276631254395
3.9831276631254404 6.811554787871636 5.397341225498535
3.9831276631254413 5.39734122549854 6.81155478787163
5.397341225498537 3.9831276631254444 6.811554787871631
6.811554787871632 3.983127663125444 5.397341225498535
6.811554787871632 5.397341225498539 3.9831276631254395
0.666666666666659 -8.40440114519881 -6.990187582825712
1.1380711874576925 -7.932996624407777 -5.104569499661586
1.6094757082487259 -6.047378541243651 -4.633164978870555
1.6094757082487265 -4.633164978870556 -6.047378541243652
1.138071187457693 -5.104569499661588 -7.932996624407778
0.6666666666666594 -6.9901875828257145 -8.40440114519881
6.32352091615904 -6.990187582825719 -5.5759740204526205
4.909307353785946 -6.990187582825717 -4.161760458079525
3.495093791412853 -5.57597402045262 -4.161760458079525
3.4950937914128533 -4.1617604580795255 -5.575974020452621
4.909307353785946 -4.161760458079528 -6.990187582825717
6.32352091615904 -5.575974020452625 -6.990187582825717
3.495093791412846 -9.818614707571907 -8.404401145198808
2.080880229039752 -9.818614707571905 -6.990187582825712
2.5522847498307852 -9.347210186780874 -5.104569499661586
4.437902832994913 -8.875805665989843 -4.633164978870555
5.852116395368007 -8.875805665989844 -6.047378541243651
5.380711874576973 -9.347210186780877 -7.932996624407778
3.495093791412847 -8.404401145198815 -9.818614707571903
2.080880229039753 -6.990187582825717 -9.818614707571903
2.552284749830787 -5.104569499661591 -9.347210186780874
4.437902832994914 -4.6331649788705604 -8.875805665989843
5.852116395368007 -6.047378541243657 -8.875805665989843
5.380711874576974 -7.932996624407783 -9.347210186780874
-4.437902832994926 4.633164978870557 8.87580566598984
-4.909307353785957 4.1617604580795255 6.990187582825713
-3.4950937914128613 4.1617604580795255 5.575974020452618
-1.6094757082487345 4.633164978870557 6.047378541243649
-1.1380711874577023 5.104569499661588 7.932996624407777
-2.5522847498307986 5.104569499661588 9.34721018678087
-4.437902832994926 8.87580566598984 4.633164978870555
-4.909307353785957 6.990187582825715 4.161760458079524
-3.4950937914128613 5.57597402045262 4.161760458079524
-1.6094757082487348 6.047378541243651 4.633164978870556
-1.1380711874577027 7.932996624407778 5.104569499661587
-2.5522847498307986 9.347210186780874 5.1045694996615865
-5.380711874576988 7.932996624407779 9.347210186780872
-5.85211639536802 6.047378541243653 8.875805665989839
-6.323520916159051 5.5759740204526205 6.990187582825714
-6.323520916159053 6.990187582825715 5.575974020452618
-5.85211639536802 8.875805665989843 6.047378541243649
-5.380711874576988 9.347210186780874 7.932996624407776
-3.495093791412862 8.40440114519881 9.818614707571903
-2.0808802290397663 6.9901875828257145 9.818614707571903
-0.6666666666666714 6.9901875828257145 8.404401145198808
-0.6666666666666718 8.404401145198811 6.990187582825713
-2.0808802290397663 9.818614707571905 6.990187582825712
-3.495093791412862 9.818614707571905 8.404401145198808
-4.828427124746188 -7.656854249492379 -6.2426406871192865
-6.242640687119284 -7.656854249492378 -4.828427124746192
-7.656854249492381 -6.242640687119283 -4.828427124746193
-7.6568542494923815 -4.828427124746188 -6.242640687119287
-6.242640687119286 -4.828427124746188 -7.656854249492382
-4.82842712474619 -6.242640687119284 -7.656854249492382
-10.485281374238568 -9.071067811865476 -7.6568542494923815
-10.013876853447536 -8.599663291074444 -5.771236166328256
-9.542472332656507 -6.714045207910316 -5.299831645537225
-9.542472332656507 -5.299831645537221 -6.71404520791032
-10.013876853447538 -5.7712361663282525 -8.599663291074446
-10.485281374238568 -7.656854249492381 -9.071067811865477
-9.071067811865472 -10.48528137423857 -7.6568542494923815
-8.59966329107444 -10.013876853447538 -5.771236166328256
-6.7140452079103135 -9.542472332656505 -5.299831645537223
-5.2998316455372185 -9.542472332656505 -6.714045207910317
-5.771236166328251 -10.013876853447538 -8.599663291074446
-7.656854249492377 -10.48528137423857 -9.071067811865476
-9.071067811865474 -7.65685424949238 -10.485281374238571
-8.599663291074442 -5.7712361663282525 -10.01387685344754
-6.714045207910316 -5.299831645537219 -9.542472332656509
-5.299831645537219 -6.714045207910315 -9.542472332656509
-5.771236166328251 -8.599663291074442 -10.01387685344754
-7.656854249492377 -9.071067811865476 -10.485281374238571
4.633164978870555 -4.437902832994929 8.875805665989839
4.161760458079522 -4.909307353785959 6.990187582825712
4.161760458079523 -3.4950937914128626 5.575974020452619
4.633164978870556 -1.6094757082487359 6.047378541243651
5.104569499661588 -1.1380711874577059 7.932996624407779
5.104569499661587 -2.5522847498308026 9.347210186780872
8.875805665989837 -4.43790283299493 4.633164978870553
6.990187582825711 -4.90930735378596 4.161760458079522
5.575974020452617 -3.4950937914128626 4.161760458079524
6.04737854124365 -1.6094757082487365 4.633164978870557
7.932996624407778 -1.1380711874577063 5.104569499661588
9.34721018678087 -2.5522847498308026 5.104569499661587
7.9329966244077745 -5.3807118745769955 9.34721018678087
6.047378541243647 -5.852116395368025 8.875805665989837
5.575974020452616 -6.323520916159055 6.99018758282571
6.99018758282571 -6.323520916159055 5.575974020452615
8.875805665989837 -5.852116395368025 6.047378541243647
9.34721018678087 -5.380711874576996 7.9329966244077745
8.404401145198808 -3.4950937914128692 9.818614707571903
6.990187582825714 -2.080880229039773 9.818614707571903
6.9901875828257145 -0.6666666666666767 8.404401145198811
8.40440114519881 -0.6666666666666767 6.9901875828257145
9.818614707571903 -2.080880229039773 6.990187582825713
9.818614707571903 -3.4950937914128697 8.404401145198808
-0.6666666666666681 -3.49509379141286 10.404401145198808
-2.552284749830795 -3.9664983122038913 9.932996624407775
-3.966498312203891 -2.552284749830795 9.932996624407776
-3.4950937914128586 -0.6666666666666683 10.404401145198808
-1.6094757082487317 -0.19526214587563695 10.875805665989839
-0.19526214587563606 -1.6094757082487328 10.875805665989839
-4.909307353785952 -3.495093791412859 14.647041832318093
-5.380711874576985 -3.966498312203891 12.761423749153966
-5.380711874576985 -2.552284749830795 11.34721018678087
-4.9093073537859535 -0.6666666666666683 11.818614707571902
-4.437902832994921 -0.1952621458756365 13.70423279073603
-4.437902832994921 -1.6094757082487317 15.118446353109125
-3.4950937914128577 -4.909307353785955 14.647041832318093
-3.96649831220389 -5.380711874576987 12.761423749153966
-2.5522847498307946 -5.380711874576987 11.34721018678087
-0.6666666666666679 -4.909307353785955 11.818614707571902
-0.19526214587563517 -4.437902832994923 13.704232790736029
-1.6094757082487305 -4.437902832994923 15.118446353109125
-2.5522847498307946 -1.1380711874577008 15.589850873900158
-2.552284749830795 0.27614237491539484 14.175637311527062
-1.1380711874576996 0.2761423749153944 12.761423749153964
0.2761423749153957 -1.1380711874577012 12.761423749153964
0.27614237491539617 -2.552284749830797 14.17563731152706
-1.138071187457699 -2.552284749830797 15.589850873900156
4.633164978870555 8.875805665989839 -4.43790283299492
4.161760458079524 6.990187582825713 -4.909307353785952
4.161760458079523 5.575974020452617 -3.4950937914128564
4.633164978870554 6.047378541243647 -1.6094757082487297
5.1045694996615865 7.932996624407775 -1.1380711874576974
5.1045694996615865 9.34721018678087 -2.552284749830793
8.87580566598984 4.633164978870552 -4.4379028329949195
6.990187582825714 4.16176045807952 -4.909307353785952
5.575974020452618 4.161760458079522 -3.4950937914128564
6.047378541243649 4.633164978870553 -1.6094757082487297
7.932996624407776 5.104569499661584 -1.1380711874576979
9.347210186780872 5.104569499661583 -2.5522847498307923
7.932996624407778 9.34721018678087 -5.380711874576983
6.04737854124365 8.875805665989839 -5.852116395368014
5.575974020452619 6.990187582825712 -6.323520916159047
6.990187582825714 5.575974020452615 -6.323520916159046
8.87580566598984 6.0473785412436465 -5.852116395368014
9.347210186780874 7.932996624407774 -5.380711874576983
8.40440114519881 9.818614707571902 -3.495093791412857
6.990187582825713 9.818614707571902 -2.0808802290397614
6.990187582825713 8.404401145198808 -0.6666666666666661
8.404401145198808 6.99018758282571 -0.6666666666666661
9.818614707571903 6.990187582825709 -2.080880229039761
9.818614707571905 8.404401145198804 -3.495093791412857
-0.6666666666666705 10.40440114519881 -3.4950937914128604
-2.5522847498307972 9.932996624407778 -3.9664983122038917
-3.9664983122038926 9.932996624407782 -2.552284749830797
-3.4950937914128617 10.404401145198815 -0.6666666666666703
-1.609475708248734 10.875805665989844 -0.19526214587563828
-0.19526214587563873 10.875805665989843 -1.6094757082487332
-4.909307353785952 14.647041832318099 -3.495093791412866
-5.380711874576985 12.761423749153971 -3.9664983122038957
-5.380711874576986 11.347210186780877 -2.5522847498307986
-4.9093073537859535 11.81861470757191 -0.6666666666666723
-4.437902832994921 13.70423279073604 -0.19526214587564228
-4.43790283299492 15.118446353109132 -1.609475708248739
-3.495093791412857 14.647041832318097 -4.909307353785961
-3.9664983122038895 12.76142374915397 -5.38071187457699
-2.552284749830796 11.347210186780872 -5.380711874576988
-0.6666666666666692 11.818614707571903 -4.909307353785955
-0.19526214587563517 13.70423279073603 -4.437902832994927
-1.6094757082487299 15.118446353109128 -4.437902832994928
-2.552284749830794 15.589850873900165 -1.1380711874577079
-2.5522847498307955 14.175637311527069 0.27614237491538907
-1.1380711874577014 12.761423749153971 0.2761423749153913
0.27614237491539395 12.76142374915397 -1.1380711874577039
0.2761423749153957 14.175637311527064 -2.552284749830801
-1.1380711874576985 15.589850873900161 -2.552284749830803
10.404401145198804 -0.6666666666666694 -3.495093791412864
9.932996624407771 -2.552284749830796 -3.9664983122038953
9.932996624407771 -3.9664983122038926 -2.5522847498308
10.404401145198808 -3.4950937914128613 -0.6666666666666738
10.87580566598984 -1.6094757082487336 -0.19526214587564317
10.875805665989839 -0.19526214587563828 -1.6094757082487376
14.647041832318086 -4.909307353785955 -3.4950937914128724
12.76142374915396 -5.3807118745769875 -3.9664983122039006
11.347210186780867 -5.380711874576987 -2.552284749830803
11.818614707571902 -4.909307353785955 -0.6666666666666767
13.70423279073603 -4.437902832994925 -0.19526214587564805
15.118446353109123 -4.437902832994925 -1.6094757082487459
14.647041832318086 -3.4950937914128613 -4.909307353785966
12.761423749153959 -3.9664983122038917 -5.3807118745769955
11.347210186780863 -2.5522847498307963 -5.380711874576992
11.818614707571896 -0.6666666666666694 -4.909307353785961
13.704232790736025 -0.19526214587563828 -4.437902832994932
15.11844635310912 -1.609475708248734 -4.437902832994935
15.589850873900156 -2.552284749830799 -1.1380711874577145
14.175637311527064 -2.5522847498307994 0.2761423749153833
12.761423749153968 -1.1380711874577032 0.2761423749153855
12.761423749153966 0.27614237491539306 -1.1380711874577087
14.17563731152706 0.2761423749153926 -2.552284749830807
15.589850873900154 -1.1380711874577032 -2.552284749830809
-17.04294725040788 4.822803012454672 1.994375887708489
-17.514351771198914 2.937184929290545 1.5229713669174578
-17.514351771198914 1.5229713669174498 2.937184929290553
-17.04294725040788 1.9943758877084814 4.8228030124546795
-16.571542729616848 3.8799939708726088 5.294207533245711
-16.571542729616848 5.294207533245704 3.879993970872616
-22.22839697910923 2.465780408499517 3.8799939708726185
-20.971318256999815 1.365836526653775 2.7800500890268776
-19.242835014099363 0.7372971655990646 3.565724290345263
-18.77143049330833 1.2087016863900963 5.451342373509389
-20.02850921541775 2.3086455682358378 6.551286255355131
-21.756992458318198 2.937184929290548 5.765612054036746
-22.22839697910923 3.8799939708726114 2.465780408499524
-20.971318256999812 2.7800500890268696 1.3658365266537826
-19.242835014099363 3.5657242903452557 0.7372971655990725
-18.77143049330833 5.451342373509382 1.208701686390104
-20.028509215417746 6.551286255355123 2.3086455682358453
-21.756992458318198 5.765612054036739 2.9371849292905554
-21.285587937527165 4.822803012454674 6.237016574827777
-19.557104694626716 4.194263651399964 7.022690776146161
-17.828621451726264 4.97993785271835 6.394151415091452
-17.828621451726264 6.394151415091445 4.979937852718356
-19.557104694626712 7.022690776146154 4.194263651399972
-21.285587937527165 6.23701657482777 4.822803012454681
-8.02279374476927 -2.876529374827295 0.6035104363394987
-6.10456949966159 -2.6903559372884907 1.1380711874576994
-7.965602786351333 -4.819338416409359 1.0749149571305303
-7.079984703187208 -1.933720333245231 4.374746602667751
-5.633164978870559 -2.2189514164974593 3.0236892706218246
-7.022793744769269 -3.876529374827295 4.8461511234587835
-8.998208948294888 -2.1198937707840346 3.840185851549551
-9.46961346908592 -2.5912982915750664 1.9545677683854246
-9.412422510667982 -4.534107333157131 2.4259722891764564
-8.94101798987695 -4.062702812366099 4.311590372340583
-2.876529374827295 -8.022793744769269 0.6035104363394992
-2.6903559372884915 -6.1045694996615865 1.1380711874576992
-4.81933841640936 -7.96560278635133 1.0749149571305312
-1.933720333245231 -7.079984703187204 4.374746602667752
-2.21895141649746 -5.633164978870555 3.023689270621825
-3.876529374827295 -7.022793744769267 4.8461511234587835
-2.119893770784034 -8.998208948294884 3.8401858515495517
-2.5912982915750664 -9.469613469085916 1.9545677683854248
-4.53410733315713 -9.41242251066798 2.4259722891764572
-4.062702812366098 -8.941017989876947 4.311590372340584
-8.022793744769269 0.6035104363395001 -2.876529374827296
-6.1045694996615865 1.1380711874577003 -2.690355937288492
-7.965602786351331 1.074914957130531 -4.81933841640936
-7.079984703187205 4.374746602667752 -1.933720333245233
-5.633164978870555 3.0236892706218264 -2.2189514164974606
-7.022793744769268 4.846151123458784 -3.8765293748272964
-8.998208948294884 3.8401858515495535 -2.119893770784037
-9.469613469085916 1.954567768385426 -2.5912982915750686
-9.41242251066798 2.4259722891764572 -4.534107333157133
-8.941017989876947 4.311590372340585 -4.0627028123661
-2.8765293748272955 0.6035104363394979 -8.022793744769267
-2.6903559372884924 1.1380711874576988 -6.1045694996615865
-4.819338416409359 1.07491495713053 -7.965602786351331
-1.9337203332452322 4.374746602667751 -7.079984703187204
-2.2189514164974606 3.023689270621825 -5.633164978870555
-3.876529374827296 4.8461511234587835 -7.0227937447692685
-2.119893770784035 3.840185851549551 -8.998208948294884
-2.591298291575067 1.9545677683854237 -9.469613469085916
-4.53410733315713 2.425972289176456 -9.41242251066798
-4.0627028123660995 4.311590372340582 -8.941017989876949
0.6035104363394947 -8.022793744769269 -2.876529374827295
1.138071187457696 -6.104569499661588 -2.690355937288492
1.074914957130525 -7.965602786351333 -4.819338416409359
4.374746602667748 -7.079984703187208 -1.9337203332452328
3.023689270621822 -5.633164978870558 -2.218951416497461
4.846151123458779 -7.022793744769272 -3.8765293748272964
3.840185851549547 -8.998208948294888 -2.119893770784036
1.9545677683854197 -9.469613469085918 -2.5912982915750673
2.42597228917645 -9.412422510667982 -4.534107333157131
4.311590372340578 -8.94101798987695 -4.0627028123660995
-5.919971432798277 2.7063327483104924 5.534759873056682
-4.357022603955162 2.8856180831641263 4.299831645537221
-5.058042620255975 3.9824751232258895 6.810902247972079
-5.9199714327982775 5.534759873056682 2.7063327483104924
-4.357022603955162 4.299831645537221 2.8856180831641263
-5.058042620255976 6.810902247972079 3.982475123225889
-7.482920261641391 5.355474538203048 3.9412609758299526
-7.482920261641391 3.9412609758299526 5.355474538203048
-6.6209914490990895 5.217403350745349 6.631616913118446
-6.62099144909909 6.631616913118445 5.217403350745349
0.603510436339493 -2.876529374827294 -8.022793744769269
1.1380711874576948 -2.690355937288492 -6.1045694996615865
1.074914957130524 -4.819338416409359 -7.965602786351332
4.374746602667747 -1.9337203332452326 -7.079984703187206
3.0236892706218206 -2.218951416497461 -5.633164978870556
4.846151123458778 -3.8765293748272964 -7.022793744769269
3.840185851549545 -2.1198937707840346 -8.998208948294886
1.954567768385418 -2.5912982915750655 -9.469613469085918
2.4259722891764492 -4.534107333157129 -9.41242251066798
4.311590372340576 -4.062702812366099 -8.94101798987695
0.9417143937910196 4.42175420495782 7.250181329704009
0.19526214587563204 4.023689270621827 5.437902832994921
-0.8630234603333464 5.031229913206548 7.859657037952737
0.9417143937910187 7.250181329704009 4.421754204957819
0.19526214587563165 5.43790283299492 4.023689270621827
-0.8630234603333469 7.859657037952738 5.031229913206547
1.688166641706406 7.64824626404 6.234032701666904
1.6881666417064065 6.234032701666905 7.64824626404
-0.11657121241795962 6.843508409915635 8.25772197228873
-0.11657121241796015 8.25772197228873 6.843508409915633
-6.242640687119285 -7.656854249492381 -2.828427124746191
-7.656854249492382 -6.242640687119285 -2.828427124746192
-10.106343992275558 -8.692130429902463 -2.8284271247461934
-9.588705902070517 -6.760278777324326 -2.8284271247461925
-9.588705902070517 -6.760278777324325 -4.828427124746193
-10.106343992275557 -8.692130429902463 -4.828427124746193
-8.692130429902463 -10.106343992275558 -2.8284271247461934
-6.760278777324325 -9.588705902070517 -2.8284271247461925
-6.760278777324324 -9.588705902070515 -4.828427124746192
-8.692130429902463 -10.106343992275558 -4.828427124746193
2.7063327483104906 -5.9199714327982775 5.53475987305668
2.8856180831641254 -4.357022603955162 4.29983164553722
3.9824751232258877 -5.058042620255978 6.810902247972077
5.5347598730566805 -5.919971432798278 2.7063327483104898
4.29983164553722 -4.357022603955162 2.885618083164125
6.810902247972077 -5.058042620255978 3.9824751232258873
5.355474538203045 -7.482920261641393 3.941260975829949
3.94126097582995 -7.482920261641393 5.355474538203044
5.217403350745347 -6.620991449099093 6.631616913118441
6.6316169131184415 -6.620991449099093 5.217403350745347
-6.242640687119285 -2.828427124746188 -7.6568542494923815
-7.656854249492381 -2.828427124746188 -6.2426406871192865
-10.106343992275557 -2.8284271247461867 -8.692130429902464
-9.588705902070515 -2.8284271247461876 -6.760278777324328
-9.588705902070517 -4.828427124746188 -6.760278777324329
-10.106343992275558 -4.828427124746187 -8.692130429902464
-8.692130429902463 -2.8284271247461867 -10.106343992275558
-6.760278777324325 -2.828427124746187 -9.588705902070517
-6.760278777324325 -4.828427124746187 -9.588705902070517
-8.692130429902463 -4.828427124746186 -10.106343992275558
4.421754204957818 0.9417143937910183 7.2501813297040085
4.0236892706218255 0.1952621458756303 5.437902832994921
5.0312299132065466 -0.863023460333348 7.859657037952737
7.250181329704008 0.9417143937910177 4.421754204957819
5.43790283299492 0.19526214587563015 4.023689270621826
7.859657037952736 -0.8630234603333483 5.031229913206548
7.648246264039999 1.6881666417064054 6.234032701666905
6.234032701666903 1.6881666417064054 7.64824626404
6.843508409915632 -0.11657121241796084 8.25772197228873
8.257721972288728 -0.11657121241796095 6.843508409915634
-3.4411736387196843 -4.855387201092779 8.377441068852221
-4.85538720109278 -3.4411736387196834 8.377441068852221
-6.760545889924141 -5.3463323275510435 10.55476528465949
-6.515073326695008 -3.6866462019488155 9.466103176755857
-5.626184437806119 -2.797757313059927 11.021658732311412
-5.871657001035253 -4.457443438662155 12.110320840215046
-5.346332327551046 -6.760545889924138 10.55476528465949
-3.686646201948818 -6.515073326695006 9.466103176755855
-2.797757313059929 -5.626184437806119 11.021658732311412
-4.457443438662158 -5.871657001035251 12.110320840215048
2.7063327483104933 5.534759873056683 -5.919971432798273
2.8856180831641263 4.299831645537221 -4.357022603955158
3.9824751232258895 6.810902247972079 -5.0580426202559705
5.534759873056683 2.706332748310491 -5.919971432798272
4.299831645537221 2.8856180831641254 -4.357022603955158
6.810902247972079 3.9824751232258873 -5.0580426202559705
5.355474538203049 3.9412609758299517 -7.482920261641387
3.9412609758299544 5.355474538203048 -7.482920261641388
5.217403350745351 6.631616913118445 -6.620991449099085
6.631616913118446 5.2174033507453474 -6.620991449099084
-2.828427124746189 -6.242640687119285 -7.6568542494923815
-2.828427124746189 -7.656854249492381 -6.242640687119286
-2.8284271247461876 -10.106343992275557 -8.692130429902464
-2.828427124746188 -9.588705902070515 -6.760278777324327
-4.828427124746188 -9.588705902070517 -6.760278777324327
-4.828427124746188 -10.106343992275557 -8.692130429902464
-2.8284271247461876 -8.692130429902464 -10.106343992275558
-2.8284271247461885 -6.760278777324327 -9.588705902070517
-4.828427124746188 -6.760278777324325 -9.588705902070517
-4.828427124746188 -8.692130429902463 -10.106343992275558
-1.8316979304709555 1.5825156319021412 9.986916777100953
-3.7173160136350827 1.1111111111111098 9.515512256309922
-4.8059781215387165 2.471938745990652 12.50933305304492
-5.204456109168963 1.5558226681553655 10.776720394281904
-4.98223388694674 -0.22195510962241372 11.665609283170792
-4.583755899316494 0.6941609682128727 13.398221941933805
-2.9203600383745902 2.943343266781683 12.980737573835949
-1.433219942840709 2.4986317097374275 11.719529435863967
-1.2109977206184868 0.7208539319596485 12.608418324752854
-2.698137816152368 1.165565489003904 13.869626462724838
4.421754204957817 7.2501813297040085 0.9417143937910232
4.023689270621825 5.43790283299492 0.1952621458756353
5.0312299132065466 7.859657037952738 -0.8630234603333419
7.250181329704006 4.421754204957816 0.9417143937910232
5.437902832994919 4.023689270621825 0.1952621458756351
7.8596570379527355 5.031229913206545 -0.8630234603333422
7.648246264039997 6.2340327016669015 1.688166641706411
6.234032701666903 7.648246264039999 1.6881666417064107
6.843508409915632 8.257721972288728 -0.11657121241795426
8.257721972288728 6.843508409915632 -0.11657121241795407
-3.441173638719685 8.377441068852217 -4.855387201092778
-4.85538720109278 8.377441068852217 -3.4411736387196825
-6.760545889924142 10.554765284659487 -5.346332327551045
-6.515073326695008 9.466103176755851 -3.6866462019488155
-5.62618443780612 11.021658732311408 -2.797757313059927
-5.871657001035254 12.110320840215044 -4.457443438662157
-5.346332327551048 10.554765284659485 -6.76054588992414
-3.686646201948819 9.466103176755851 -6.515073326695006
-2.7977573130599307 11.021658732311408 -5.626184437806118
-4.4574434386621595 12.110320840215042 -5.871657001035252
1.5825156319021416 -1.831697930470955 9.986916777100951
1.1111111111111103 -3.717316013635082 9.515512256309918
2.471938745990651 -4.805978121538718 12.509333053044916
1.5558226681553646 -5.204456109168962 10.7767203942819
-0.22195510962241438 -4.98223388694674 11.665609283170788
0.694160968212872 -4.583755899316495 13.398221941933803
2.943343266781682 -2.9203600383745916 12.980737573835947
2.4986317097374275 -1.4332199428407102 11.719529435863965
0.720853931959649 -1.2109977206184872 12.608418324752854
1.1655654890039038 -2.698137816152369 13.869626462724835
-1.8316979304709557 9.986916777100953 1.5825156319021403
-3.7173160136350836 9.515512256309922 1.1111111111111087
-4.805978121538718 12.509333053044916 2.4719387459906557
-5.204456109168963 10.776720394281902 1.555822668155366
-4.982233886946742 11.665609283170793 -0.22195510962241105
-4.583755899316497 13.398221941933807 0.6941609682128782
-2.920360038374591 12.980737573835947 2.9433432667816866
-1.4332199428407097 11.719529435863965 2.498631709737429
-1.2109977206184892 12.608418324752858 0.7208539319596519
-2.6981378161523706 13.869626462724838 1.1655654890039093
8.377441068852217 -3.4411736387196847 -4.855387201092784
8.377441068852217 -4.85538720109278 -3.441173638719688
10.554765284659487 -6.760545889924141 -5.346332327551051
9.466103176755853 -6.515073326695007 -3.6866462019488213
11.021658732311408 -5.626184437806119 -2.797757313059934
12.110320840215044 -5.871657001035253 -4.457443438662163
10.554765284659487 -5.346332327551046 -6.7605458899241455
9.466103176755851 -3.6866462019488178 -6.515073326695012
11.021658732311408 -2.7977573130599294 -5.626184437806124
12.110320840215042 -4.457443438662158 -5.871657001035258
1.58251563190214 9.986916777100951 -1.8316979304709544
1.1111111111111085 9.515512256309918 -3.7173160136350814
2.471938745990653 12.509333053044914 -4.805978121538718
1.5558226681553642 10.776720394281899 -5.204456109168963
-0.2219551096224135 11.66560928317079 -4.982233886946741
0.6941609682128748 13.398221941933805 -4.583755899316497
2.9433432667816843 12.980737573835947 -2.9203600383745925
2.498631709737428 11.719529435863967 -1.4332199428407102
0.7208539319596502 12.608418324752856 -1.2109977206184885
1.1655654890039064 13.869626462724836 -2.6981378161523706
9.986916777100951 -1.8316979304709555 1.5825156319021358
9.515512256309918 -3.7173160136350827 1.111111111111104
12.509333053044914 -4.805978121538718 2.4719387459906454
10.7767203942819 -5.204456109168963 1.5558226681553586
11.665609283170788 -4.982233886946741 -0.2219551096224195
13.398221941933803 -4.583755899316495 0.6941609682128671
12.980737573835947 -2.9203600383745916 2.9433432667816763
11.719529435863965 -1.43321994284071 2.4986317097374213
12.608418324752853 -1.2109977206184885 0.7208539319596435
13.869626462724835 -2.6981378161523697 1.165565489003899
-11.639981912617818 -10.225768350244728 -8.811554787871634
-11.639981912617818 -8.811554787871632 -10.22576835024473
-10.22576835024472 -11.639981912617822 -8.811554787871632
-8.811554787871627 -11.639981912617822 -10.225768350244728
-10.225768350244724 -8.811554787871632 -11.639981912617824
-8.811554787871627 -10.225768350244728 -11.639981912617824
9.986916777100948 1.5825156319021403 -1.8316979304709586
9.515512256309915 1.111111111111109 -3.717316013635085
12.509333053044909 2.471938745990653 -4.805978121538723
10.776720394281895 1.5558226681553653 -5.204456109168967
11.665609283170784 -0.2219551096224135 -4.982233886946746
13.398221941933798 0.6941609682128747 -4.5837558993165
12.980737573835942 2.9433432667816843 -2.9203600383745965
11.719529435863961 2.4986317097374275 -1.433219942840714
12.60841832475285 0.7208539319596494 -1.2109977206184934
13.869626462724831 1.1655654890039058 -2.6981378161523755
-5.294207533245702 -3.8799939708726106 16.571542729616844
-4.822803012454671 -1.9943758877084834 17.042947250407877
-3.8799939708726074 -5.2942075332457055 16.571542729616844
-1.9943758877084798 -4.822803012454674 17.042947250407874
-2.9371849292905448 -1.5229713669174518 17.514351771198907
-1.5229713669174485 -2.937184929290548 17.514351771198907
-5.2942075332457 16.571542729616855 -3.8799939708726194
-4.822803012454669 17.04294725040789 -1.9943758877084923
-3.8799939708726052 16.57154272961685 -5.2942075332457135
-1.9943758877084783 17.042947250407884 -4.822803012454681
-2.9371849292905425 17.514351771198918 -1.5229713669174607
-1.5229713669174472 17.514351771198918 -2.937184929290556
16.57154272961684 -5.294207533245706 -3.879993970872625
17.042947250407874 -4.822803012454676 -1.9943758877084987
16.571542729616837 -3.8799939708726114 -5.29420753324572
17.04294725040787 -1.9943758877084847 -4.822803012454688
17.514351771198907 -2.9371849292905496 -1.5229713669174676
17.514351771198907 -1.5229713669174538 -2.9371849292905625
-1.357022603955159 -4.771236166328254 0.4714045207910327
-4.771236166328255 -1.3570226039551576 0.4714045207910329
-0.8856180831641267 -4.299831645537222 2.3570226039551585
-4.299831645537223 -0.8856180831641254 2.3570226039551585
-1.357022603955159 0.47140452079103223 -4.7712361663282525
-4.771236166328255 0.4714045207910338 -1.357022603955158
-0.885618083164128 2.3570226039551594 -4.299831645537221
-4.299831645537224 2.3570226039551594 -0.8856180831641272
0.47140452079102935 -1.357022603955158 -4.7712361663282525
0.47140452079103046 -4.771236166328253 -1.357022603955158
2.3570226039551563 -0.8856180831641276 -4.299831645537223
2.357022603955157 -4.299831645537223 -0.8856180831641276
0.8619288125422997 2.6903559372884933 4.104569499661588
-3.6903559372884938 1.5522847498307943 2.9664983122038877
0.8619288125422992 4.104569499661588 2.690355937288493
-3.690355937288494 2.966498312203889 1.552284749830794
-7.6568542494923815 -1.4142135623730936 -4.828427124746191
-7.6568542494923815 -1.4142135623730936 -2.828427124746191
-7.656854249492382 -2.828427124746189 -1.4142135623730963
-7.6568542494923815 -4.828427124746189 -1.4142135623730967
-9.65685424949238 -2.828427124746188 -6.242640687119287
-9.65685424949238 -1.4142135623730936 -4.828427124746192
-9.656854249492381 -1.4142135623730936 -2.8284271247461916
-9.656854249492381 -2.8284271247461885 -1.4142135623730971
-9.656854249492381 -4.828427124746189 -1.4142135623730971
-9.656854249492381 -6.242640687119284 -2.828427124746192
-9.656854249492381 -6.242640687119284 -4.8284271247461925
-9.65685424949238 -4.828427124746189 -6.242640687119287
2.690355937288493 0.8619288125422995 4.104569499661588
1.5522847498307917 -3.6903559372884933 2.9664983122038873
4.104569499661587 0.8619288125422995 2.6903559372884938
2.9664983122038864 -3.6903559372884933 1.552284749830793
-1.414213562373094 -7.656854249492381 -4.828427124746191
-1.414213562373094 -7.6568542494923815 -2.8284271247461907
-2.8284271247461894 -7.656854249492382 -1.4142135623730958
-4.82842712474619 -7.6568542494923815 -1.4142135623730963
-2.8284271247461885 -9.656854249492378 -6.2426406871192865
-1.4142135623730936 -9.65685424949238 -4.828427124746192
-1.4142135623730936 -9.656854249492381 -2.8284271247461916
-2.8284271247461894 -9.656854249492381 -1.4142135623730967
-4.82842712474619 -9.656854249492381 -1.4142135623730976
-6.242640687119284 -9.65685424949238 -2.8284271247461925
-6.242640687119284 -9.65685424949238 -4.828427124746192
-4.828427124746188 -9.656854249492378 -6.242640687119287
-4.502990214953467 1.73965047216582 7.787029013409471
-5.3918791038423555 0.8507615832769314 6.231473457853916
-5.863283624633387 -1.0348564998871956 5.760068937062883
-5.6410614024111645 -2.8126342776649738 6.648957825951772
-5.4950937914128595 1.3333333333333321 10.40440114519881
-6.280767992731244 1.9618726943880418 8.67591790229836
-7.169656881620133 1.072983805499153 7.120362346742803
-7.6410614024111645 -0.8126342776649732 6.648957825951771
-7.418839180188942 -2.590412055442752 7.5378467148406605
-6.633164978870557 -3.2189514164974615 9.26632995774111
-5.7442760899816685 -2.330062527608573 10.821885513296667
-5.272871569190637 -0.4444444444444462 11.293290034087699
2.6903559372884907 4.1045694996615865 0.8619288125423021
1.5522847498307926 2.966498312203888 -3.6903559372884915
4.104569499661586 2.690355937288491 0.8619288125423017
2.9664983122038873 1.5522847498307932 -3.6903559372884915
-1.414213562373094 -4.82842712474619 -7.6568542494923815
-1.4142135623730945 -2.828427124746189 -7.656854249492381
-2.82842712474619 -1.4142135623730936 -7.656854249492381
-4.828427124746191 -1.4142135623730927 -7.6568542494923815
-2.8284271247461885 -6.242640687119284 -9.656854249492381
-1.4142135623730931 -4.828427124746189 -9.65685424949238
-1.4142135623730936 -2.8284271247461885 -9.65685424949238
-2.828427124746189 -1.4142135623730931 -9.65685424949238
-4.82842712474619 -1.4142135623730923 -9.656854249492381
-6.242640687119285 -2.828427124746187 -9.656854249492381
-6.242640687119284 -4.828427124746187 -9.656854249492381
-4.828427124746188 -6.242640687119283 -9.656854249492381
1.7396504721658195 -4.502990214953468 7.78702901340947
0.8507615832769307 -5.391879103842356 6.231473457853914
-1.0348564998871959 -5.863283624633388 5.760068937062883
-2.8126342776649746 -5.6410614024111645 6.64895782595177
1.3333333333333313 -5.4950937914128595 10.40440114519881
1.9618726943880405 -6.2807679927312465 8.675917902298359
1.0729838054991525 -7.169656881620135 7.120362346742803
-0.8126342776649745 -7.6410614024111645 6.648957825951771
-2.5904120554427528 -7.418839180188942 7.5378467148406605
-3.218951416497463 -6.633164978870557 9.266329957741108
-2.3300625276085736 -5.744276089981668 10.821885513296666
-0.44444444444444703 -5.272871569190636 11.293290034087697
-4.502990214953469 7.787029013409471 1.7396504721658181
-5.391879103842358 6.231473457853915 0.8507615832769299
-5.86328362463339 5.760068937062883 -1.034856499887196
-5.641061402411167 6.648957825951771 -2.812634277664974
-5.495093791412859 10.40440114519881 1.3333333333333304
-6.280767992731246 8.67591790229836 1.96187269438804
-7.169656881620135 7.120362346742805 1.0729838054991516
-7.641061402411166 6.648957825951772 -0.8126342776649743
-7.418839180188945 7.537846714840661 -2.590412055442752
-6.633164978870558 9.26632995774111 -3.218951416497462
-5.7442760899816685 10.821885513296666 -2.3300625276085736
-5.272871569190636 11.293290034087699 -0.4444444444444475
2.682459513747882 -0.7317540486252134 8.729838054991534
2.4602372915256594 1.046023729152565 7.8409491661026465
1.0460237291525643 2.4602372915256607 7.8409491661026465
-0.7317540486252141 2.682459513747883 8.729838054991536
2.4714045207910287 -0.9428090415820676 11.542472332656507
3.571348402636769 0.15713484026367375 10.285393610547091
3.3491261804145473 1.9349126180414526 9.396504721658202
1.9349126180414522 3.3491261804145473 9.396504721658202
0.15713484026367353 3.57134840263677 10.285393610547091
-0.9428090415820676 2.471404520791029 11.542472332656509
-0.720586819359845 0.6936267430132506 12.431361221545396
0.6936267430132503 -0.7205868193598453 12.431361221545396
1.7396504721658175 7.787029013409471 -4.502990214953467
0.8507615832769289 6.231473457853916 -5.391879103842356
-1.0348564998871976 5.760068937062884 -5.863283624633389
-2.8126342776649764 6.648957825951773 -5.641061402411166
1.3333333333333302 10.40440114519881 -5.495093791412859
1.9618726943880394 8.67591790229836 -6.280767992731246
1.0729838054991516 7.120362346742805 -7.169656881620135
-0.8126342776649752 6.648957825951773 -7.641061402411166
-2.590412055442753 7.537846714840661 -7.418839180188943
-3.2189514164974637 9.26632995774111 -6.633164978870557
-2.3300625276085745 10.821885513296667 -5.7442760899816685
-0.444444444444448 11.293290034087697 -5.272871569190637
7.787029013409471 -4.502990214953469 1.739650472165815
6.231473457853915 -5.391879103842358 0.8507615832769274
5.760068937062881 -5.8632836246333895 -1.0348564998871992
6.648957825951769 -5.641061402411167 -2.8126342776649778
10.40440114519881 -5.49509379141286 1.333333333333326
8.67591790229836 -6.2807679927312465 1.961872694388036
7.120362346742803 -7.169656881620135 1.0729838054991485
6.64895782595177 -7.641061402411166 -0.8126342776649779
7.537846714840659 -7.418839180188944 -2.5904120554427563
9.266329957741107 -6.633164978870559 -3.2189514164974673
10.821885513296664 -5.744276089981669 -2.3300625276085793
11.293290034087697 -5.272871569190638 -0.44444444444445297
2.682459513747881 8.729838054991536 -0.7317540486252134
2.460237291525659 7.840949166102648 1.0460237291525645
1.0460237291525643 7.840949166102648 2.46023729152566
-0.7317540486252139 8.729838054991538 2.6824595137478813
2.4714045207910282 11.542472332656509 -0.9428090415820676
3.5713484026367692 10.285393610547091 0.15713484026367397
3.349126180414548 9.396504721658204 1.934912618041452
1.9349126180414526 9.396504721658204 3.349126180414548
0.15713484026367408 10.285393610547093 3.571348402636769
-0.9428090415820671 11.542472332656509 2.471404520791028
-0.7205868193598457 12.431361221545398 0.6936267430132492
0.6936267430132499 12.431361221545398 -0.7205868193598455
7.787029013409466 1.7396504721658186 -4.50299021495347
6.231473457853909 0.8507615832769306 -5.391879103842357
5.7600689370628775 -1.0348564998871959 -5.863283624633389
6.648957825951766 -2.812634277664974 -5.641061402411167
10.404401145198804 1.3333333333333308 -5.495093791412862
8.675917902298353 1.961872694388041 -6.2807679927312465
7.120362346742797 1.0729838054991527 -7.169656881620135
6.648957825951765 -0.8126342776649736 -7.641061402411166
7.537846714840654 -2.5904120554427514 -7.418839180188945
9.266329957741103 -3.218951416497462 -6.63316497887056
10.82188551329666 -2.3300625276085736 -5.744276089981671
11.293290034087692 -0.44444444444444703 -5.272871569190641
-11.290019228362938 -9.87580566598984 7.85211639536801
-9.956685895029606 -8.542472332656509 7.185449728701344
-11.094757082487304 -9.680543520114206 2.6331649788705507
-12.428090415820636 -11.013876853447538 3.299831645537216
-13.037566124069366 -11.623352561696269 5.10456949966158
-12.566161603278335 -11.151948040905237 6.990187582825707
-9.875805665989843 -11.290019228362937 7.85211639536801
-8.54247233265651 -9.956685895029604 7.185449728701344
-9.680543520114208 -11.0947570824873 2.63316497887055
-11.013876853447542 -12.428090415820634 3.299831645537216
-11.62335256169627 -13.037566124069365 5.10456949966158
-11.15194804090524 -12.566161603278331 6.990187582825707
8.72983805499153 2.6824595137478813 -0.731754048625217
7.840949166102643 2.460237291525659 1.0460237291525616
7.840949166102644 1.0460237291525638 2.460237291525657
8.729838054991532 -0.7317540486252143 2.6824595137478786
11.542472332656503 2.4714045207910287 -0.9428090415820718
10.285393610547086 3.57134840263677 0.1571348402636702
9.396504721658198 3.3491261804145473 1.9349126180414487
9.3965047216582 1.9349126180414524 3.3491261804145434
10.28539361054709 0.1571348402636742 3.571348402636765
11.542472332656505 -0.9428090415820667 2.4714045207910234
12.431361221545394 -0.7205868193598448 0.6936267430132449
12.431361221545393 0.6936267430132508 -0.7205868193598506
-11.290019228362937 7.852116395368011 -9.87580566598984
-9.956685895029604 7.185449728701346 -8.542472332656509
-11.094757082487302 2.6331649788705516 -9.680543520114206
-12.428090415820636 3.299831645537217 -11.01387685344754
-13.037566124069366 5.104569499661582 -11.62335256169627
-12.566161603278335 6.990187582825709 -11.151948040905237
-9.875805665989843 7.852116395368011 -11.290019228362937
-8.542472332656509 7.185449728701345 -9.956685895029603
-9.680543520114208 2.633164978870551 -11.094757082487302
-11.01387685344754 3.2998316455372168 -12.428090415820634
-11.62335256169627 5.104569499661582 -13.037566124069365
-11.15194804090524 6.990187582825709 -12.566161603278333
-6.518783062034688 12.623352561696272 9.209138999323176
-5.852116395368021 11.29001922836294 7.875805665989844
-5.852116395368019 7.875805665989842 11.290019228362935
-6.518783062034685 9.209138999323173 12.62335256169627
-6.990187582825717 11.151948040905237 12.566161603278335
-6.990187582825717 12.566161603278335 11.151948040905243
-4.6331649788705604 13.094757082487304 9.68054352011421
-3.9664983122038953 11.761423749153971 8.347210186780874
-3.9664983122038926 8.347210186780874 11.761423749153966
-4.633164978870559 9.680543520114206 13.094757082487302
-5.10456949966159 11.623352561696269 13.037566124069366
-5.104569499661591 13.037566124069365 11.623352561696272
7.852116395368 -11.290019228362944 -9.875805665989843
7.185449728701338 -9.956685895029612 -8.54247233265651
2.6331649788705414 -11.094757082487304 -9.680543520114204
3.2998316455372048 -12.42809041582064 -11.013876853447536
5.104569499661569 -13.037566124069372 -11.623352561696267
6.990187582825696 -12.566161603278342 -11.151948040905237
7.852116395368002 -9.875805665989851 -11.290019228362938
7.185449728701338 -8.542472332656518 -9.956685895029604
2.633164978870542 -9.68054352011421 -11.0947570824873
3.299831645537205 -11.013876853447545 -12.428090415820632
5.104569499661569 -11.623352561696278 -13.037566124069365
6.990187582825697 -11.151948040905248 -12.566161603278333
12.623352561696267 -6.518783062034695 9.209138999323171
11.290019228362933 -5.852116395368028 7.875805665989838
7.875805665989839 -5.852116395368028 11.290019228362935
9.209138999323173 -6.518783062034696 12.623352561696267
11.151948040905236 -6.990187582825728 12.56616160327833
12.566161603278331 -6.990187582825728 11.151948040905234
13.094757082487298 -4.633164978870569 9.680543520114202
11.761423749153966 -3.9664983122039015 8.34721018678087
8.347210186780872 -3.9664983122039015 11.761423749153966
9.680543520114204 -4.633164978870569 13.094757082487298
11.623352561696269 -5.104569499661602 13.037566124069361
13.037566124069363 -5.104569499661602 11.623352561696267
12.62335256169627 9.20913899932317 -6.518783062034681
11.290019228362937 7.875805665989837 -5.852116395368014
7.875805665989841 11.290019228362935 -5.852116395368014
9.209138999323175 12.623352561696267 -6.518783062034682
11.151948040905237 12.56616160327833 -6.990187582825714
12.566161603278333 11.151948040905234 -6.990187582825714
13.094757082487302 9.6805435201142 -4.633164978870555
11.761423749153968 8.347210186780869 -3.966498312203888
8.347210186780872 11.761423749153966 -3.966498312203889
9.680543520114206 13.094757082487298 -4.633164978870556
11.62335256169627 13.037566124069361 -5.104569499661587
13.037566124069365 11.623352561696265 -5.104569499661587
-2.82842712474619 -6.242640687119286 0.
-1.4142135623730954 -4.828427124746191 0.
-4.828427124746192 -1.4142135623730945 -4.440892098500626e-16
-6.2426406871192865 -2.8284271247461894 -4.440892098500626e-16
-6.242640687119286 -4.828427124746189 -8.881784197001252e-16
-4.82842712474619 -6.242640687119286 -8.881784197001252e-16
-2.8284271247461907 1.7763568394002505e-15 -6.242640687119285
-1.4142135623730958 8.881784197001252e-16 -4.828427124746189
-4.8284271247461925 1.3322676295501878e-15 -1.4142135623730954
-6.2426406871192865 1.7763568394002505e-15 -2.8284271247461907
-6.242640687119286 1.7763568394002505e-15 -4.82842712474619
-4.82842712474619 2.220446049250313e-15 -6.242640687119286
4.440892098500626e-16 -2.82842712474619 -6.242640687119284
0. -1.4142135623730945 -4.828427124746189
4.440892098500626e-16 -4.82842712474619 -1.414213562373095
8.881784197001252e-16 -6.242640687119286 -2.8284271247461903
8.881784197001252e-16 -6.242640687119286 -4.82842712474619
8.881784197001252e-16 -4.82842712474619 -6.242640687119285
-1.8205307012055822 -5.234744263578677 4.031585694162432
-0.7205868193598414 -4.134800381732937 2.774506972053015
-4.134800381732937 -0.7205868193598399 2.7745069720530147
-5.234744263578678 -1.8205307012055814 4.031585694162432
-5.012522041356457 -3.59830847898336 4.920474583051321
-3.5983084789833604 -5.012522041356455 4.920474583051321
0.2603495278341783 3.08877665258037 6.112465923202196
0.888888888888888 2.3031024512619847 4.383982680301747
-3.6633958609419066 1.1650312638042877 3.2459114928440473
-4.291935221996615 1.950705465122673 4.974394735744497
-3.403046333107727 2.839594354011562 6.529950291300053
-1.5174282499436003 3.310998874802593 7.001354812091085
3.0887766525803695 0.26034952783417853 6.112465923202196
2.3031024512619833 0.8888888888888884 4.383982680301747
1.165031263804286 -3.6633958609419053 3.2459114928440465
1.950705465122672 -4.291935221996615 4.974394735744497
2.8395943540115605 -3.4030463331077265 6.529950291300052
3.310998874802592 -1.5174282499436 7.001354812091084
-1.8205307012055838 4.031585694162431 -5.234744263578677
-0.7205868193598427 2.7745069720530147 -4.134800381732935
-4.134800381732938 2.7745069720530156 -0.7205868193598411
-5.234744263578678 4.031585694162432 -1.8205307012055818
-5.012522041356457 4.9204745830513215 -3.59830847898336
-3.598308478983362 4.9204745830513215 -5.012522041356456
0.26034952783417786 6.112465923202196 3.088776652580369
0.8888888888888875 4.383982680301747 2.3031024512619838
-3.6633958609419066 3.2459114928440487 1.1650312638042863
-4.291935221996615 4.9743947357444975 1.9507054651226716
-3.403046333107727 6.529950291300054 2.83959435401156
-1.5174282499436005 7.001354812091086 3.3109988748025914
3.088776652580369 6.112465923202196 0.260349527834179
2.303102451261982 4.383982680301747 0.8888888888888884
1.1650312638042841 3.2459114928440465 -3.6633958609419044
1.9507054651226703 4.974394735744496 -4.291935221996614
2.8395943540115582 6.529950291300052 -3.4030463331077256
3.3109988748025905 7.001354812091084 -1.5174282499435994
4.031585694162427 -1.8205307012055818 -5.234744263578678
2.77450697205301 -0.720586819359841 -4.134800381732937
2.7745069720530124 -4.134800381732937 -0.7205868193598418
4.031585694162429 -5.234744263578678 -1.8205307012055836
4.920474583051316 -5.012522041356457 -3.598308478983362
4.920474583051316 -3.598308478983361 -5.012522041356457
6.112465923202196 0.2603495278341781 3.088776652580368
4.383982680301745 0.888888888888888 2.303102451261983
3.245911492844046 -3.663395860941906 1.165031263804285
4.974394735744496 -4.291935221996615 1.9507054651226694
6.529950291300053 -3.403046333107727 2.8395943540115574
7.001354812091085 -1.5174282499436005 3.3109988748025887
6.112465923202194 3.0887766525803695 0.2603495278341772
4.383982680301745 2.3031024512619833 0.8888888888888875
3.2459114928440425 1.165031263804286 -3.6633958609419053
4.974394735744491 1.9507054651226716 -4.291935221996615
6.5299502913000484 2.8395943540115605 -3.4030463331077274
7.001354812091082 3.310998874802592 -1.5174282499436014
-12.685924646452724 1.5229713669174507 -1.8912421954556424
-10.800306563288597 1.9943758877084825 -1.419837674664612
-10.800306563288595 -1.4198376746646137 1.9943758877084834
-12.685924646452722 -1.891242195455645 1.5229713669174527
-14.019257979786058 -1.2245755287889781 0.18963803358412035
-14.019257979786058 0.18963803358411768 -1.2245755287889741
-10.605044417412955 3.6038515959572117 6.432278720703403
-9.190830855039861 3.6038515959572117 5.018065158330307
-10.328902042497562 -0.9484331538735815 3.8799939708726106
-11.743115604870656 -0.948433153873582 5.294207533245706
-12.409782271537322 0.3849001794597511 6.627540866579039
-11.93837775074629 2.270518262623878 7.098945387370071
-10.605044417412957 6.432278720703403 3.6038515959572135
-9.190830855039863 5.018065158330307 3.603851595957212
-10.328902042497564 3.87999397087261 -0.9484331538735802
-11.74311560487066 5.2942075332457055 -0.9484331538735793
-12.409782271537324 6.627540866579038 0.38490017945975463
-11.938377750746293 7.098945387370069 2.2705182626238813
-15.709613917074545 1.3277092210418142 6.156136345788011
-14.29540035470145 -0.08650434133128071 6.15613634578801
-13.628733688034783 -1.4198376746646146 4.822803012454676
-14.100138208825818 -1.891242195455645 2.9371849292905496
-15.433471542159152 -1.2245755287889781 1.6038515959572173
-16.847685104532246 0.1896380335841168 1.6038515959572182
-15.709613917074547 6.156136345788006 1.3277092210418202
-14.295400354701453 6.156136345788006 -0.08650434133127538
-13.628733688034789 4.822803012454673 -1.4198376746646093
-14.10013820882582 2.937184929290547 -1.8912421954556415
-15.433471542159154 1.603851595957213 -1.2245755287889732
-16.847685104532246 1.6038515959572126 0.189638033584123
-15.238209396283514 6.627540866579038 3.213327304205947
-13.352591313119387 7.098945387370069 3.6847318249969776
-12.019257979786051 6.432278720703403 5.01806515833031
-12.019257979786051 5.018065158330307 6.432278720703405
-13.352591313119385 3.684731824996973 7.0989453873700725
-15.238209396283512 3.213327304205942 6.627540866579043
1.5229713669174394 -12.68592464645272 -1.891242195455645
1.9943758877084743 -10.800306563288595 -1.4198376746646137
-1.4198376746646222 -10.80030656328859 1.9943758877084812
-1.891242195455657 -12.685924646452715 1.5229713669174492
-1.2245755287889928 -14.01925797978605 0.1896380335841159
0.18963803358410303 -14.019257979786053 -1.2245755287889786
3.6038515959572024 -10.605044417412962 6.432278720703403
3.603851595957205 -9.190830855039867 5.018065158330307
-0.94843315387359 -10.32890204249756 3.879993970872608
-0.9484331538735935 -11.743115604870654 5.294207533245703
0.3849001794597391 -12.409782271537322 6.627540866579038
2.2705182626238667 -11.938377750746294 7.098945387370069
6.432278720703394 -10.605044417412966 3.603851595957213
5.018065158330302 -9.190830855039868 3.603851595957212
3.8799939708726026 -10.328902042497566 -0.9484331538735811
5.294207533245695 -11.743115604870663 -0.9484331538735811
6.627540866579027 -12.409782271537331 0.38490017945975286
7.09894538737006 -11.938377750746302 2.2705182626238796
1.3277092210417971 -15.709613917074547 6.156136345788006
-0.08650434133129536 -14.29540035470145 6.156136345788005
-1.4198376746646275 -13.628733688034782 4.822803012454672
-1.8912421954556597 -14.100138208825813 2.937184929290545
-1.2245755287889946 -15.433471542159147 1.6038515959572117
0.18963803358409814 -16.847685104532243 1.6038515959572117
1.52297136691743 -17.51435177119891 2.9371849292905456
1.9943758877084619 -17.04294725040788 4.822803012454672
6.15613634578799 -15.709613917074552 1.3277092210418158
6.156136345787992 -14.295400354701458 -0.08650434133127893
4.82280301245466 -13.62873368803479 -1.4198376746646129
2.9371849292905328 -14.100138208825818 -1.891242195455645
1.603851595957197 -15.43347154215915 -1.2245755287889786
1.6038515959571942 -16.847685104532246 0.1896380335841168
2.937184929290526 -17.514351771198914 1.5229713669174505
4.822803012454654 -17.042947250407884 1.9943758877084825
6.627540866579021 -15.238209396283523 3.2133273042059436
7.098945387370056 -13.352591313119396 3.684731824996975
6.432278720703391 -12.019257979786062 5.018065158330308
5.0180651583302955 -12.01925797978606 6.432278720703403
3.68473182499696 -13.352591313119392 7.098945387370069
3.213327304205925 -15.238209396283516 6.627540866579038
3.87999397087259 -16.57154272961685 5.294207533245705
5.294207533245686 -16.571542729616855 3.87999397087261
1.5229713669174445 -1.8912421954556495 -12.685924646452717
1.9943758877084776 -1.4198376746646164 -10.80030656328859
-1.4198376746646186 1.9943758877084798 -10.80030656328859
-1.8912421954556518 1.5229713669174467 -12.685924646452717
-1.2245755287889852 0.1896380335841119 -14.01925797978605
0.1896380335841097 -1.2245755287889835 -14.01925797978605
3.603851595957207 6.4322787207033985 -10.605044417412962
3.6038515959572077 5.018065158330305 -9.190830855039865
-0.9484331538735868 3.879993970872606 -10.32890204249756
-0.9484331538735877 5.294207533245701 -11.743115604870656
0.3849001794597453 6.627540866579034 -12.409782271537326
2.2705182626238725 7.098945387370064 -11.938377750746294
6.432278720703398 3.6038515959572077 -10.605044417412962
5.0180651583303035 3.6038515959572086 -9.190830855039865
3.8799939708726043 -0.9484331538735846 -10.32890204249756
5.294207533245698 -0.9484331538735864 -11.743115604870656
6.627540866579031 0.3849001794597462 -12.409782271537324
7.098945387370064 2.270518262623873 -11.938377750746294
1.3277092210418073 6.156136345787999 -15.709613917074549
-0.08650434133128737 6.156136345788001 -14.295400354701451
-1.4198376746646195 4.822803012454668 -13.628733688034783
-1.8912421954556526 2.937184929290541 -14.100138208825815
-1.2245755287889857 1.6038515959572064 -15.433471542159147
0.18963803358410836 1.6038515959572055 -16.847685104532243
1.5229713669174414 2.937184929290538 -17.51435177119891
1.9943758877084734 4.822803012454665 -17.04294725040788
6.156136345787999 1.327709221041807 -15.709613917074549
6.156136345787999 -0.08650434133128648 -14.295400354701451
4.822803012454667 -1.41983767466462 -13.628733688034783
2.93718492929054 -1.8912421954556504 -14.100138208825815
1.6038515959572048 -1.2245755287889843 -15.433471542159147
1.6038515959572037 0.1896380335841097 -16.847685104532243
2.9371849292905368 1.5229713669174423 -17.51435177119891
4.8228030124546635 1.9943758877084736 -17.04294725040788
6.6275408665790305 3.2133273042059347 -15.238209396283517
7.098945387370064 3.684731824996968 -13.35259131311939
6.432278720703397 5.018065158330302 -12.019257979786058
5.018065158330302 6.432278720703398 -12.019257979786058
3.684731824996967 7.098945387370064 -13.35259131311939
3.2133273042059343 6.6275408665790305 -15.238209396283517
3.879993970872601 5.294207533245697 -16.57154272961685
5.294207533245697 3.879993970872601 -16.57154272961685
7.202079079622903 3.7878655172498084 10.03050620436909
6.730674558831871 3.316460996458776 8.144888121204964
3.3164609964587743 6.730674558831874 8.144888121204964
3.7878655172498066 7.202079079622906 10.03050620436909
5.121198850583141 6.535412412956239 11.363839537702422
6.535412412956236 5.121198850583143 11.363839537702422
7.2020790796229 10.030506204369095 3.787865517249804
6.730674558831868 8.144888121204968 3.3164609964587717
3.3164609964587735 8.14488812120497 6.7306745588318675
3.787865517249805 10.030506204369097 7.202079079622898
5.121198850583138 11.36383953770243 6.535412412956231
6.535412412956233 11.363839537702429 5.121198850583136
10.030506204369091 7.202079079622902 3.787865517249803
8.144888121204964 6.730674558831871 3.3164609964587717
8.144888121204966 3.3164609964587752 6.730674558831867
10.030506204369093 3.7878655172498066 7.202079079622898
11.363839537702427 5.1211988505831405 6.535412412956231
11.363839537702425 6.535412412956235 5.121198850583135
7.478221454538298 12.306648579284493 8.892435016911389
5.59260337137417 11.835244058493462 8.421030496120357
4.259270038040837 10.50191072516013 9.087697162787025
4.259270038040838 9.087697162787034 10.501910725160121
5.592603371374173 8.421030496120366 11.835244058493453
7.4782214545383 8.8924350169114 12.306648579284484
8.811554787871632 10.225768350244731 11.639981912617817
8.811554787871632 11.639981912617825 10.22576835024472
12.30664857928449 7.478221454538299 8.892435016911389
11.835244058493458 5.592603371374173 8.421030496120357
10.501910725160126 4.259270038040839 9.087697162787025
9.08769716278703 4.259270038040841 10.501910725160121
8.421030496120364 5.5926033713741745 11.835244058493453
8.892435016911396 7.478221454538302 12.306648579284484
10.225768350244728 8.811554787871634 11.639981912617817
11.639981912617824 8.811554787871634 10.225768350244723
12.306648579284488 8.892435016911396 7.478221454538294
11.835244058493458 8.421030496120363 5.5926033713741665
10.501910725160123 9.08769716278703 4.2592700380408335
9.087697162787027 10.501910725160126 4.2592700380408335
8.42103049612036 11.83524405849346 5.592603371374167
8.892435016911392 12.306648579284492 7.478221454538294
10.225768350244728 11.639981912617825 8.811554787871627
11.639981912617824 10.22576835024473 8.811554787871627
6 0 1 2 3 4 5
6 6 7 8 9 10 11
6 12 13 14 15 16 17
6 18 19 20 21 22 23
4 8 2 3 9
4 14 1 0 15
4 20 4 5 21
4 13 7 6 12
4 19 10 11 18
4 22 16 17 23
6 7 8 2 1 14 13
6 20 4 3 9 10 19
6 16 15 0 5 21 22
6 17 12 6 11 18 23
6 24 25 26 27 28 29
6 30 31 32 33 34 35
6 36 37 38 39 40 41
6 42 43 44 45 46 47
4 25 26 32 31
4 28 27 38 37
4 34 33 39 40
4 44 24 29 45
4 43 30 35 42
4 46 36 41 47
6 33 32 26 27 38 39
6 44 24 25 31 30 43
6 45 29 28 37 36 46
6 42 35 34 40 41 47
6 48 49 50 51 52 53
6 54 55 56 57 58 59
6 60 61 62 63 64 65
6 66 67 68 69 70 71
4 49 50 56 55
4 52 51 62 61
4 58 57 63 64
4 68 48 53 69
4 67 54 59 66
4 70 60 65 71
6 62 51 50 56 57 63
6 68 48 49 55 54 67
6 69 53 52 61 60 70
6 66 59 58 64 65 71
6 72 73 74 75 76 77
6 78 79 80 81 82 83
6 84 85 86 87 88 89
6 90 91 92 93 94 95
4 80 74 75 81
4 72 73 86 85
4 77 76 92 91
4 78 79 87 88
4 83 82 93 94
4 90 84 89 95
6 86 73 74 80 79 87
6 92 76 75 81 82 93
6 84 85 72 77 91 90
6 89 88 78 83 94 95
6 96 97 98 99 100 101
6 102 103 104 105 106 107
6 108 109 110 111 112 113
6 114 115 116 117 118 119
4 97 98 104 103
4 100 99 110 109
4 106 105 111 112
4 116 96 101 117
4 115 102 107 114
4 118 108 113 119
6 105 104 98 99 110 111
6 116 96 97 103 102 115
6 117 101 100 109 108 118
6 114 107 106 112 113 119
6 120 121 122 123 124 125
6 126 127 128 129 130 131
6 132 133 134 135 136 137
6 138 139 140 141 142 143
4 128 122 123 129
4 120 121 134 133
4 125 124 140 139
4 126 127 135 136
4 131 130 141 142
4 138 132 137 143
6 134 121 122 128 127 135
6 140 124 123 129 130 141
6 139 125 120 133 132 138
6 137 136 126 131 142 143
6 144 145 146 147 148 149
6 150 151 152 153 154 155
6 156 157 158 159 160 161
6 162 163 164 165 166 167
4 145 146 152 151
4 148 147 158 157
4 154 153 159 160
4 164 144 149 165
4 163 150 155 162
4 166 156 161 167
6 153 152 146 147 158 159
6 164 144 145 151 150 163
6 165 149 148 157 156 166
6 162 155 154 160 161 167
6 168 169 170 171 172 173
6 174 175 176 177 178 179
6 180 181 182 183 184 185
6 186 187 188 189 190 191
4 176 170 171 177
4 168 169 182 181
4 173 172 188 187
4 174 175 183 184
4 179 178 189 190
4 186 180 185 191
6 182 169 170 176 175 183
6 188 172 171 177 178 189
6 180 181 168 173 187 186
6 185 184 174 179 190 191
6 192 193 194 195 196 197
6 198 199 200 201 202 203
6 204 205 206 207 208 209
6 210 211 212 213 214 215
4 200 194 195 201
4 192 193 206 205
4 198 199 207 208
4 197 196 212 211
4 203 202 213 214
4 210 204 209 215
6 206 193 194 200 199 207
6 212 196 195 201 202 213
6 211 197 192 205 204 210
6 214 203 198 208 209 215
6 216 217 218 219 220 221
6 222 223 224 225 226 227
6 228 229 230 231 232 233
6 234 235 236 237 238 239
4 224 218 219 225
4 230 217 216 231
4 236 220 221 237
4 222 223 229 228
4 227 226 235 234
4 233 232 238 239
6 223 224 218 217 230 229
6 236 220 219 225 226 235
6 232 231 216 221 237 238
6 233 228 222 227 234 239
6 240 241 242 243 244 245
6 246 247 248 249 250 251
6 252 253 254 255 256 257
6 258 259 260 261 262 263
4 248 242 243 249
4 240 241 254 253
4 245 244 260 259
4 246 247 255 256
4 251 250 261 262
4 258 252 257 263
6 254 241 242 248 247 255
6 260 244 243 249 250 261
6 252 253 240 245 259 258
6 262 251 246 256 257 263
6 264 265 266 267 268 269
6 270 271 272 273 274 275
6 276 277 278 279 280 281
6 282 283 284 285 286 287
4 272 266 267 273
4 278 265 264 279
4 284 268 269 285
4 270 271 277 276
4 275 274 283 282
4 281 280 286 287
6 271 272 266 265 278 277
6 284 268 267 273 274 283
6 280 279 264 269 285 286
6 282 275 270 276 281 287
6 288 289 290 291 292 293
6 294 295 296 297 298 299
6 300 301 302 303 304 305
6 306 307 308 309 310 311
4 296 290 291 297
4 288 289 302 301
4 293 292 308 307
4 294 295 303 304
4 299 298 309 310
4 306 300 305 311
6 302 289 290 296 295 303
6 308 292 291 297 298 309
6 300 301 288 293 307 306
6 305 304 294 299 310 311
6 312 313 314 315 316 317
6 318 319 320 321 322 323
6 324 325 326 327 328 329
6 330 331 332 333 334 335
4 320 314 315 321
4 326 313 312 327
4 332 316 317 333
4 318 319 325 324
4 323 322 331 330
4 329 328 334 335
6 319 320 314 313 326 325
6 332 316 315 321 322 331
6 328 327 312 317 333 334
6 329 324 318 323 330 335
6 336 337 338 339 340 341
6 342 343 344 345 346 347
6 348 349 350 351 352 353
6 354 355 356 357 358 359
4 344 338 339 345
4 350 337 336 351
4 356 340 341 357
4 342 343 349 348
4 347 346 355 354
4 353 352 358 359
6 343 344 338 337 350 349
6 356 340 339 345 346 355
6 352 351 336 341 357 358
6 353 348 342 347 354 359
6 360 361 362 363 364 365
6 366 367 368 369 370 371
6 372 373 374 375 376 377
6 378 379 380 381 382 383
4 368 362 363 369
4 374 361 360 375
4 380 364 365 381
4 373 367 366 372
4 379 370 371 378
4 382 376 377 383
6 367 368 362 361 374 373
6 380 364 363 369 370 379
6 376 375 360 365 381 382
6 377 372 366 371 378 383
4 1 2 26 27
4 7 8 32 33
4 13 14 38 39
4 8 2 26 32
4 14 1 27 38
4 13 7 33 39
6 7 8 2 1 14 13
6 33 32 26 27 38 39
4 4 3 50 51
4 10 9 56 57
4 19 20 62 63
4 9 3 50 56
4 20 4 51 62
4 19 10 57 63
6 20 4 3 9 10 19
6 62 51 50 56 57 63
4 384 385 74 386
4 387 388 80 389
4 390 391 392 393
4 388 385 74 80
4 391 384 386 392
4 390 387 389 393
6 391 384 385 388 387 390
6 392 386 74 80 389 393
4 5 0 98 99
4 16 15 104 105
4 22 21 110 111
4 15 0 98 104
4 21 5 99 110
4 22 16 105 111
6 16 15 0 5 21 22
6 105 104 98 99 110 111
4 394 395 75 396
4 397 398 81 399
4 400 401 402 403
4 398 395 75 81
4 401 394 396 402
4 400 397 399 403
6 401 394 395 398 397 400
6 402 396 75 81 399 403
4 404 405 122 406
4 407 408 128 409
4 410 411 412 413
4 408 405 122 128
4 411 404 406 412
4 410 407 409 413
6 411 404 405 408 407 410
6 412 406 122 128 409 413
4 11 6 146 147
4 17 12 152 153
4 23 18 158 159
4 12 6 146 152
4 18 11 147 158
4 23 17 153 159
6 17 12 6 11 18 23
6 153 152 146 147 158 159
4 414 415 123 416
4 417 418 129 419
4 420 421 422 423
4 418 415 123 129
4 421 414 416 422
4 420 417 419 423
6 421 414 415 418 417 420
6 422 416 123 129 419 423
4 424 425 170 426
4 427 428 176 429
4 430 431 432 433
4 428 425 170 176
4 431 424 426 432
4 430 427 429 433
6 431 424 425 428 427 430
6 432 426 170 176 429 433
4 434 435 194 436
4 437 438 200 439
4 440 441 442 443
4 438 435 194 200
4 441 434 436 442
4 440 437 439 443
6 441 434 435 438 437 440
6 442 436 194 200 439 443
4 444 445 171 446
4 447 448 177 449
4 450 451 452 453
4 448 445 171 177
4 451 444 446 452
4 450 447 449 453
6 451 444 445 448 447 450
6 452 446 171 177 449 453
4 454 455 195 456
4 457 458 201 459
4 460 461 462 463
4 458 455 195 201
4 461 454 456 462
4 460 457 459 463
6 461 454 455 458 457 460
6 462 456 195 201 459 463
4 464 465 218 217
4 466 467 468 469
4 470 471 472 473
4 467 465 218 468
4 471 464 217 472
4 470 466 469 473
6 466 467 465 464 471 470
6 469 468 218 217 472 473
4 474 475 242 476
4 477 478 248 479
4 480 481 482 483
4 478 475 242 248
4 481 474 476 482
4 480 477 479 483
6 481 474 475 478 477 480
6 482 476 242 248 479 483
4 484 485 219 220
4 486 487 488 489
4 490 491 492 493
4 487 485 219 488
4 491 484 220 492
4 490 486 489 493
6 491 484 485 487 486 490
6 492 220 219 488 489 493
4 494 495 243 496
4 497 498 249 499
4 500 501 502 503
4 498 495 243 249
4 501 494 496 502
4 500 497 499 503
6 501 494 495 498 497 500
6 502 496 243 249 499 503
4 504 505 266 265
4 506 507 508 509
4 510 511 512 513
4 507 505 266 508
4 511 504 265 512
4 510 506 509 513
6 506 507 505 504 511 510
6 509 508 266 265 512 513
4 514 515 290 516
4 517 518 296 519
4 520 521 522 523
4 518 515 290 296
4 521 514 516 522
4 520 517 519 523
6 521 514 515 518 517 520
6 522 516 290 296 519 523
4 524 525 216 221
4 526 527 528 529
4 530 531 532 533
4 527 525 216 528
4 531 524 221 532
4 530 526 529 533
6 526 527 525 524 531 530
6 529 528 216 221 532 533
4 534 535 267 268
4 536 537 538 539
4 540 541 542 543
4 537 535 267 538
4 541 534 268 542
4 540 536 539 543
6 541 534 535 537 536 540
6 542 268 267 538 539 543
4 544 545 291 546
4 547 548 297 549
4 550 551 552 553
4 548 545 291 297
4 551 544 546 552
4 550 547 549 553
6 551 544 545 548 547 550
6 552 546 291 297 549 553
4 554 555 314 313
4 556 557 558 559
4 560 561 562 563
4 557 555 314 558
4 561 554 313 562
4 560 556 559 563
6 556 557 555 554 561 560
6 559 558 314 313 562 563
4 564 565 264 269
4 566 567 568 569
4 570 571 572 573
4 567 565 264 568
4 571 564 269 572
4 570 566 569 573
6 566 567 565 564 571 570
6 569 568 264 269 572 573
4 574 575 315 316
4 576 577 578 579
4 580 581 582 583
4 577 575 315 578
4 581 574 316 582
4 580 576 579 583
6 581 574 575 577 576 580
6 582 316 315 578 579 583
4 584 585 338 337
4 586 587 588 589
4 590 591 592 593
4 587 585 338 588
4 591 584 337 592
4 590 586 589 593
6 586 587 585 584 591 590
6 589 588 338 337 592 593
4 594 595 312 317
4 596 597 598 599
4 600 601 602 603
4 597 595 312 598
4 601 594 317 602
4 600 596 599 603
6 596 597 595 594 601 600
6 599 598 312 317 602 603
4 604 605 339 340
4 606 607 608 609
4 610 611 612 613
4 607 605 339 608
4 611 604 340 612
4 610 606 609 613
6 611 604 605 607 606 610
6 612 340 339 608 609 613
4 227 222 614 615
4 233 228 616 617
4 239 234 618 619
4 228 222 614 616
4 234 227 615 618
4 239 233 617 619
6 233 228 222 227 234 239
6 617 616 614 615 618 619
4 620 621 336 341
4 622 623 624 625
4 626 627 628 629
4 623 621 336 624
4 627 620 341 628
4 626 622 625 629
6 622 623 621 620 627 626
6 625 624 336 341 628 629
4 275 270 630 631
4 281 276 632 633
4 287 282 634 635
4 276 270 630 632
4 282 275 631 634
4 287 281 633 635
6 282 275 270 276 281 287
6 634 631 630 632 633 635
4 323 318 636 637
4 329 324 638 639
4 335 330 640 641
4 324 318 636 638
4 330 323 637 640
4 335 329 639 641
6 329 324 318 323 330 335
6 639 638 636 637 640 641
4 347 342 642 643
4 353 348 644 645
4 359 354 646 647
4 348 342 642 644
4 354 347 643 646
4 359 353 645 647
6 353 348 342 347 354 359
6 645 644 642 643 646 647
8 395 648 3 2 649 385 74 75
8 398 650 9 8 651 388 80 81
4 8 2 649 651
4 9 3 648 650
4 388 385 74 80
4 398 395 75 81
4 8 2 3 9
4 385 649 651 388
4 395 648 650 398
4 80 74 75 81
8 415 652 0 1 653 405 122 123
8 418 654 15 14 655 408 128 129
4 14 1 653 655
4 15 0 652 654
4 408 405 122 128
4 418 415 123 129
4 14 1 0 15
4 405 653 655 408
4 415 652 654 418
4 128 122 123 129
8 445 656 5 4 657 425 170 171
8 448 658 21 20 659 428 176 177
4 20 4 657 659
4 21 5 656 658
4 428 425 170 176
4 448 445 171 177
4 20 4 5 21
4 425 657 659 428
4 445 656 658 448
4 176 170 171 177
8 455 660 6 7 661 435 194 195
8 458 662 12 13 663 438 200 201
4 13 7 661 663
4 12 6 660 662
4 438 435 194 200
4 458 455 195 201
4 13 7 6 12
4 435 661 663 438
4 455 660 662 458
4 200 194 195 201
8 485 664 665 666 667 465 218 219
8 668 669 670 671 672 673 674 675
4 671 666 667 672
4 670 665 664 669
4 673 465 218 674
4 668 485 219 675
4 671 666 665 670
4 465 667 672 673
4 485 664 669 668
4 674 218 219 675
8 495 676 11 10 677 475 242 243
8 498 678 18 19 679 478 248 249
4 19 10 677 679
4 18 11 676 678
4 478 475 242 248
4 498 495 243 249
4 19 10 11 18
4 475 677 679 478
4 495 676 678 498
4 248 242 243 249
8 525 680 681 682 683 464 217 216
8 684 685 686 687 688 689 690 691
4 687 682 683 688
4 686 681 680 685
4 689 464 217 690
4 684 525 216 691
4 687 682 681 686
4 464 683 688 689
4 525 680 685 684
4 690 217 216 691
8 535 692 693 694 695 505 266 267
8 696 697 698 699 700 701 702 703
4 699 694 695 700
4 698 693 692 697
4 701 505 266 702
4 696 535 267 703
4 699 694 693 698
4 505 695 700 701
4 535 692 697 696
4 702 266 267 703
8 545 704 17 16 705 515 290 291
8 548 706 23 22 707 518 296 297
4 22 16 705 707
4 23 17 704 706
4 518 515 290 296
4 548 545 291 297
4 22 16 17 23
4 515 705 707 518
4 545 704 706 548
4 296 290 291 297
8 524 708 709 710 711 484 220 221
8 712 713 714 715 716 717 718 719
4 715 710 711 716
4 714 709 708 713
4 717 484 220 718
4 712 524 221 719
4 715 710 709 714
4 484 711 716 717
4 524 708 713 712
4 718 220 221 719
8 565 720 721 722 723 504 265 264
8 724 725 726 727 728 729 730 731
4 727 722 723 728
4 726 721 720 725
4 729 504 265 730
4 724 565 264 731
4 727 722 721 726
4 504 723 728 729
4 565 720 725 724
4 730 265 264 731
8 575 732 733 734 735 555 314 315
8 736 737 738 739 740 741 742 743
4 739 734 735 740
4 738 733 732 737
4 741 555 314 742
4 736 575 315 743
4 739 734 733 738
4 555 735 740 741
4 575 732 737 736
4 742 314 315 743
8 564 744 745 746 747 534 268 269
8 748 749 750 751 752 753 754 755
4 751 746 747 752
4 750 745 744 749
4 753 534 268 754
4 748 564 269 755
4 751 746 745 750
4 534 747 752 753
4 564 744 749 748
4 754 268 269 755
8 595 756 757 758 759 554 313 312
8 760 761 762 763 764 765 766 767
4 763 758 759 764
4 762 757 756 761
4 765 554 313 766
4 760 595 312 767
4 763 758 757 762
4 554 759 764 765
4 595 756 761 760
4 766 313 312 767
8 605 768 769 770 771 585 338 339
8 772 773 774 775 776 777 778 779
4 775 770 771 776
4 774 769 768 773
4 777 585 338 778
4 772 605 339 779
4 775 770 769 774
4 585 771 776 777
4 605 768 773 772
4 778 338 339 779
8 594 780 781 782 783 574 316 317
8 784 785 786 787 788 789 790 791
4 787 782 783 788
4 786 781 780 785
4 789 574 316 790
4 784 594 317 791
4 787 782 781 786
4 574 783 788 789
4 594 780 785 784
4 790 316 317 791
8 621 792 793 794 795 584 337 336
8 796 797 798 799 800 801 802 803
4 799 794 795 800
4 798 793 792 797
4 801 584 337 802
4 796 621 336 803
4 799 794 793 798
4 584 795 800 801
4 621 792 797 796
4 802 337 336 803
8 804 805 89 84 806 807 808 809
8 810 811 95 90 812 813 814 815
4 90 84 806 812
4 95 89 805 811
4 813 807 808 814
4 810 804 809 815
4 90 84 89 95
4 807 806 812 813
4 804 805 811 810
4 814 808 809 815
8 620 816 817 818 819 604 340 341
8 820 821 822 823 824 825 826 827
4 823 818 819 824
4 822 817 816 821
4 825 604 340 826
4 820 620 341 827
4 823 818 817 822
4 604 819 824 825
4 620 816 821 820
4 826 340 341 827
8 828 829 137 132 830 831 832 833
8 834 835 143 138 836 837 838 839
4 138 132 830 836
4 143 137 829 835
4 837 831 832 838
4 834 828 833 839
4 138 132 137 143
4 831 830 836 837
4 828 829 835 834
4 838 832 833 839
8 840 841 209 204 842 843 844 845
8 846 847 215 210 848 849 850 851
4 210 204 842 848
4 215 209 841 847
4 849 843 844 850
4 846 840 845 851
4 210 204 209 215
4 843 842 848 849
4 840 841 847 846
4 850 844 845 851
8 852 853 185 180 854 855 856 857
8 858 859 191 186 860 861 862 863
4 186 180 854 860
4 191 185 853 859
4 861 855 856 862
4 858 852 857 863
4 186 180 185 191
4 855 854 860 861
4 852 853 859 858
4 862 856 857 863
8 864 865 257 252 866 867 868 869
8 870 871 263 258 872 873 874 875
4 258 252 866 872
4 263 257 865 871
4 873 867 868 874
4 870 864 869 875
4 258 252 257 263
4 867 866 872 873
4 864 865 871 870
4 874 868 869 875
8 876 877 305 300 878 879 880 881
8 882 883 311 306 884 885 886 887
4 306 300 878 884
4 311 305 877 883
4 885 879 880 886
4 882 876 881 887
4 306 300 305 311
4 879 878 884 885
4 876 877 883 882
4 886 880 881 887
8 888 889 3 2 890 891 892 893
8 894 895 0 1 896 897 898 899
8 900 901 5 4 902 903 904 905
8 485 664 665 666 667 465 218 219
8 525 680 681 682 683 464 217 216
8 524 708 709 710 711 484 220 221
4 1 2 890 896
4 4 3 889 902
4 666 891 892 667
4 5 0 895 901
4 682 888 893 683
4 665 897 898 664
4 710 894 899 711
4 681 903 904 680
4 709 900 905 708
4 464 465 218 217
4 484 485 219 220
4 524 525 216 221
6 0 1 2 3 4 5
6 666 891 890 896 897 665
6 682 888 889 902 903 681
6 465 667 892 893 683 464
6 710 894 895 901 900 709
6 485 664 898 899 711 484
6 525 680 904 905 708 524
6 216 217 218 219 220 221
8 906 907 9 8 908 909 910 911
8 912 913 6 7 914 915 916 917
8 918 919 11 10 920 921 922 923
8 535 692 693 694 695 505 266 267
8 565 720 721 722 723 504 265 264
8 564 744 745 746 747 534 268 269
4 7 8 908 914
4 10 9 907 920
4 694 909 910 695
4 11 6 913 919
4 722 906 911 723
4 693 915 916 692
4 746 912 917 747
4 721 921 922 720
4 745 918 923 744
4 504 505 266 265
4 534 535 267 268
4 564 565 264 269
6 6 7 8 9 10 11
6 694 909 908 914 915 693
6 722 906 907 920 921 721
6 505 695 910 911 723 504
6 746 912 913 919 918 745
6 535 692 916 917 747 534
6 565 720 922 923 744 564
6 264 265 266 267 268 269
8 924 925 15 14 926 927 928 929
8 930 931 12 13 932 933 934 935
8 936 937 17 16 938 939 940 941
8 575 732 733 734 735 555 314 315
8 595 756 757 758 759 554 313 312
8 594 780 781 782 783 574 316 317
4 13 14 926 932
4 16 15 925 938
4 734 927 928 735
4 17 12 931 937
4 758 924 929 759
4 733 933 934 732
4 782 930 935 783
4 757 939 940 756
4 781 936 941 780
4 554 555 314 313
4 574 575 315 316
4 594 595 312 317
6 12 13 14 15 16 17
6 734 927 926 932 933 733
6 758 924 925 938 939 757
6 555 735 928 929 759 554
6 782 930 931 937 936 781
6 575 732 934 935 783 574
6 595 756 940 941 780 594
6 312 313 314 315 316 317
8 942 943 21 20 944 945 946 947
8 948 949 18 19 950 951 952 953
8 954 955 23 22 956 957 958 959
8 605 768 769 770 771 585 338 339
8 621 792 793 794 795 584 337 336
8 620 816 817 818 819 604 340 341
4 19 20 944 950
4 22 21 943 956
4 770 945 946 771
4 23 18 949 955
4 794 942 947 795
4 769 951 952 768
4 818 948 953 819
4 793 957 958 792
4 817 954 959 816
4 584 585 338 337
4 604 605 339 340
4 620 621 336 341
6 18 19 20 21 22 23
6 770 945 944 950 951 769
6 794 942 943 956 957 793
6 585 771 946 947 795 584
6 818 948 949 955 954 817
6 605 768 952 953 819 604
6 621 792 958 959 816 620
6 336 337 338 339 340 341
8 960 961 45 44 962 963 964 965
8 966 967 42 43 968 969 970 971
8 972 973 47 46 974 975 976 977
8 978 979 980 981 982 983 362 363
8 984 985 986 987 988 989 361 360
8 990 991 992 993 994 995 364 365
4 43 44 962 968
4 46 45 961 974
4 981 963 964 982
4 47 42 967 973
4 987 960 965 988
4 980 969 970 979
4 993 966 971 994
4 986 975 976 985
4 992 972 977 991
4 989 983 362 361
4 995 978 363 364
4 990 984 360 365
6 42 43 44 45 46 47
6 981 963 962 968 969 980
6 987 960 961 974 975 986
6 983 982 964 965 988 989
6 993 966 967 973 972 992
6 978 979 970 971 994 995
6 984 985 976 977 991 990
6 360 361 362 363 364 365
8 996 997 69 68 998 999 1000 1001
8 1002 1003 66 67 1004 1005 1006 1007
8 1008 1009 71 70 1010 1011 1012 1013
8 1014 1015 1016 1017 1018 1019 1020 1021
8 1022 1023 1024 1025 1026 1027 1028 1029
8 1030 1031 1032 1033 1034 1035 1036 1037
4 67 68 998 1004
4 70 69 997 1010
4 1017 999 1000 1018
4 71 66 1003 1009
4 1025 996 1001 1026
4 1016 1005 1006 1015
4 1033 1002 1007 1034
4 1024 1011 1012 1023
4 1032 1008 1013 1031
4 1027 1019 1020 1028
4 1035 1014 1021 1036
4 1030 1022 1029 1037
6 66 67 68 69 70 71
6 1017 999 998 1004 1005 1016
6 1025 996 997 1010 1011 1024
6 1019 1018 1000 1001 1026 1027
6 1033 1002 1003 1009 1008 1032
6 1014 1015 1006 1007 1034 1035
6 1022 1023 1012 1013 1031 1030
6 1029 1028 1020 1021 1036 1037
8 1038 1039 117 116 1040 1041 1042 1043
8 1044 1045 114 115 1046 1047 1048 1049
8 1050 1051 119 118 1052 1053 1054 1055
8 1056 1057 1058 1059 1060 1061 1062 1063
8 1064 1065 1066 1067 1068 1069 1070 1071
8 1072 1073 1074 1075 1076 1077 1078 1079
4 115 116 1040 1046
4 118 117 1039 1052
4 1059 1041 1042 1060
4 119 114 1045 1051
4 1067 1038 1043 1068
4 1058 1047 1048 1057
4 1075 1044 1049 1076
4 1066 1053 1054 1065
4 1074 1050 1055 1073
4 1069 1061 1062 1070
4 1077 1056 1063 1078
4 1072 1064 1071 1079
6 114 115 116 117 118 119
6 1059 1041 1040 1046 1047 1058
6 1067 1038 1039 1052 1053 1066
6 1061 1060 1042 1043 1068 1069
6 1075 1044 1045 1051 1050 1074
6 1056 1057 1048 1049 1076 1077
6 1064 1065 1054 1055 1073 1072
6 1071 1070 1062 1063 1078 1079
8 1080 1081 165 164 1082 1083 1084 1085
8 1086 1087 162 163 1088 1089 1090 1091
8 1092 1093 167 166 1094 1095 1096 1097
8 1098 1099 1100 1101 1102 1103 1104 1105
8 1106 1107 1108 1109 1110 1111 1112 1113
8 1114 1115 1116 1117 1118 1119 1120 1121
4 163 164 1082 1088
4 166 165 1081 1094
4 1101 1083 1084 1102
4 167 162 1087 1093
4 1109 1080 1085 1110
4 1100 1089 1090 1099
4 1117 1086 1091 1118
4 1108 1095 1096 1107
4 1116 1092 1097 1115
4 1111 1103 1104 1112
4 1119 1098 1105 1120
4 1114 1106 1113 1121
6 162 163 164 165 166 167
6 1101 1083 1082 1088 1089 1100
6 1109 1080 1081 1094 1095 1108
6 1103 1102 1084 1085 1110 1111
6 1117 1086 1087 1093 1092 1116
6 1098 1099 1090 1091 1118 1119
6 1106 1107 1096 1097 1115 1114
6 1113 1112 1104 1105 1120 1121
# cell 1: 0 1 2 3 4 5 6 7 8 9 10 11 12 13
# cell 2: 14 15 16 17 18 19 20 21 22 23 24 25 26 27
# cell 3: 28 29 30 31 32 33 34 35 36 37 38 39 40 41
# cell 4: 42 43 44 45 46 47 48 49 50 51 52 53 54 55
# cell 5: 56 57 58 59 60 61 62 63 64 65 66 67 68 69
# cell 6: 70 71 72 73 74 75 76 77 78 79 80 81 82 83
# cell 7: 84 85 86 87 88 89 90 91 92 93 94 95 96 97
# cell 8: 98 99 100 101 102 103 104 105 106 107 108 109 110 111
# cell 9: 112 113 114 115 116 117 118 119 120 121 122 123 124 125
# cell 10: 126 127 128 129 130 131 132 133 134 135 136 137 138 139
# cell 11: 140 141 142 143 144 145 146 147 148 149 150 151 152 153
# cell 12: 154 155 156 157 158 159 160 161 162 163 164 165 166 167
# cell 13: 168 169 170 171 172 173 174 175 176 177 178 179 180 181
# cell 14: 182 183 184 185 186 187 188 189 190 191 192 193 194 195
# cell 15: 196 197 198 199 200 201 202 203 204 205 206 207 208 209
# cell 16: 210 211 212 213 214 215 216 217 218 219 220 221 222 223
# cell 17: 224 225 226 227 228 229 230 231
# cell 18: 232 233 234 235 236 237 238 239
# cell 19: 240 241 242 243 244 245 246 247
# cell 20: 248 249 250 251 252 253 254 255
# cell 21: 256 257 258 259 260 261 262 263
# cell 22: 264 265 266 267 268 269 270 271
# cell 23: 272 273 274 275 276 277 278 279
# cell 24: 280 281 282 283 284 285 286 287
# cell 25: 288 289 290 291 292 293 294 295
# cell 26: 296 297 298 299 300 301 302 303
# cell 27: 304 305 306 307 308 309 310 311
# cell 28: 312 313 314 315 316 317 318 319
# cell 29: 320 321 322 323 324 325 326 327
# cell 30: 328 329 330 331 332 333 334 335
# cell 31: 336 337 338 339 340 341 342 343
# cell 32: 344 345 346 347 348 349 350 351
# cell 33: 352 353 354 355 356 357 358 359
# cell 34: 360 361 362 363 364 365 366 367
# cell 35: 368 369 370 371 372 373 374 375
# cell 36: 376 377 378 379 380 381 382 383
# cell 37: 384 385 386 387 388 389 390 391
# cell 38: 392 393 394 395 396 397 398 399
# cell 39: 400 401 402 403 404 405 406 407
# cell 40: 408 409 410 411 412 413 414 415
# cell 41: 416 417 418 419 420 421 422 423
# cell 42: 424 425 426 427 428 429 430 431
# cell 43: 432 433 434 435 436 437 438 439
# cell 44: 440 441 442 443 444 445 446 447
# cell 45: 448 449 450 451 452 453 454 455
# cell 46: 456 457 458 459 460 461 462 463
# cell 47: 464 465 466 467 468 469 470 471
# cell 48: 472 473 474 475 476 477 478 479
# cell 49: 480 481 482 483 484 485 486 487 488 489
# cell 50: 490 491 492 493 494 495 496 497 498 499
# cell 51: 500 501 502 503 504 505 506 507 508 509
# cell 52: 510 511 512 513 514 515 516 517 518 519
# cell 53: 520 521 522 523 524 525 526 527 528 529
# cell 54: 530 531 532 533 534 535 536 537 538 539
# cell 55: 540 541 542 543 544 545 546 547 548 549
# cell 56: 550 551 552 553 554 555 556 557 558 559
# cell 57: 560 561 562 563 564 565 566 567 568 569
# cell 58: 570 571 572 573 574 575 576 577 578 579
# cell 59: 580 581 582 583 584 585 586 587 588 589
# cell 60: 590 591 592 593 594 595 596 597 598 599
# cell 61: 600 601 602 603 604 605 606 607 608 609
# cell 62: 610 611 612 613 614 615 616 617 618 619
# cell 63: 620 621 622 623 624 625 626 627 628 629
# cell 64: 630 631 632 633 634 635 636 637 638 639
# cell 65: 640 641 642 643 644 645 646 647 648 649
# cell 66: 650 651 652 653 654 655 656 657 658 659
# cell 67: 660 661 662 663 664 665 666 667 668 669
# cell 68: 670 671 672 673 674 675 676 677 678 679
# cell 69: 680 681 682 683 684 685 686 687 688 689
# cell 70: 690 691 692 693 694 695 696 697 698 699
# cell 71: 700 701 702 703 704 705 706 707 708 709
# cell 72: 710 711 712 713 714 715 716 717 718 719
# cell 73: 720 721 722 723 724 725 726 727 728 729 730 731 732 733 734 735 736 737 738 739 740 741 742 743 744 745
# cell 74: 746 747 748 749 750 751 752 753 754 755 756 757 758 759 760 761 762 763 764 765 766 767 768 769 770 771
# cell 75: 772 773 774 775 776 777 778 779 780 781 782 783 784 785 786 787 788 789 790 791 792 793 794 795 796 797
# cell 76: 798 799 800 801 802 803 804 805 806 807 808 809 810 811 812 813 814 815 816 817 818 819 820 821 822 823
# cell 77: 824 825 826 827 828 829 830 831 832 833 834 835 836 837 838 839 840 841 842 843 844 845 846 847 848 849
# cell 78: 850 851 852 853 854 855 856 857 858 859 860 861 862 863 864 865 866 867 868 869 870 871 872 873 874 875
# cell 79: 876 877 878 879 880 881 882 883 884 885 886 887 888 889 890 891 892 893 894 895 896 897 898 899 900 901
# cell 80: 902 903 904 905 906 907 908 909 910 911 912 913 914 915 916 917 918 919 920 921 922 923 924 925 926 927