OFF
# face-rotation BFS net; polygonal faces are preserved
# the cell decomposition is listed below as comments
633 736 0
-0.47140452079103135 -0.47140452079103135 -1.8856180831641258
-1.885618083164126 -0.47140452079103135 -0.47140452079103135
-0.4714045207910311 -1.885618083164126 -0.47140452079103135
0.4714045207910321 0.471404520791032 1.8856180831641267
-1.414213562373094 4.900761532559245e-16 1.4142135623730951
7.121207581809558e-16 -1.4142135623730943 1.4142135623730951
0.47140452079103223 1.8856180831641272 0.471404520791032
-1.4142135623730943 1.4142135623730956 2.6803154833089315e-16
4.900761532559245e-16 1.4142135623730956 -1.4142135623730938
1.8856180831641272 0.4714045207910321 0.471404520791032
1.4142135623730956 -1.4142135623730943 4.900761532559245e-16
1.4142135623730956 4.900761532559245e-16 -1.4142135623730938
-5.538602223363328 0.5420350197234288 -0.8721785426496678
-3.81011898046288 -0.08650434133128027 -0.0865043413312816
-5.538602223363329 -0.8721785426496655 0.5420350197234268
-4.595793181781265 1.484844061305492 2.899057623678585
-3.338714459671847 0.38490017945975163 1.7991137418328451
-5.0671977025722965 -0.40077402185863376 2.427653102887554
-4.595793181781265 2.899057623678587 1.4848440613054898
-3.3387144596718468 1.7991137418328462 0.38490017945974997
-5.067197702572296 2.427653102887556 -0.400774021858636
-6.324276424681715 2.1133834223602017 2.113383422360199
-6.795680945472746 0.22776533919607556 1.6419789015691673
-6.795680945472746 1.64197890156917 0.2277653391960729
0.5420350197234285 -5.538602223363328 -0.872178542649668
-0.08650434133128027 -3.810118980462879 -0.0865043413312816
-0.8721785426496658 -5.538602223363329 0.5420350197234265
1.484844061305492 -4.595793181781265 2.8990576236785843
0.38490017945975163 -3.3387144596718468 1.799113741832845
-0.400774021858634 -5.0671977025722965 2.4276531028875534
2.899057623678587 -4.595793181781264 1.4848440613054903
1.799113741832846 -3.3387144596718468 0.3849001794597501
2.4276531028875556 -5.067197702572296 -0.400774021858636
2.1133834223602017 -6.324276424681715 2.1133834223601986
0.2277653391960751 -6.795680945472746 1.6419789015691668
1.64197890156917 -6.795680945472746 0.22776533919607245
-5.575974020452618 -5.575974020452619 0.6666666666666679
-5.104569499661587 -3.6903559372884915 1.1380711874576983
-3.6903559372884915 -5.104569499661586 1.1380711874576979
-4.6331649788705525 -4.633164978870554 4.43790283299492
-4.633164978870555 -3.2189514164974593 3.0236892706218255
-3.218951416497459 -4.633164978870553 3.0236892706218246
-6.5187830620346805 -5.104569499661587 3.966498312203889
-6.518783062034681 -3.6903559372884924 2.552284749830794
-6.990187582825712 -5.57597402045262 2.0808802290397637
-5.104569499661584 -6.518783062034682 3.966498312203889
-3.6903559372884898 -6.5187830620346805 2.5522847498307937
-5.575974020452617 -6.990187582825714 2.080880229039763
0.5420350197234278 -0.8721785426496669 -5.538602223363328
-0.08650434133128115 -0.08650434133128115 -3.810118980462879
-0.8721785426496671 0.5420350197234278 -5.538602223363328
1.484844061305491 2.8990576236785857 -4.595793181781264
0.38490017945975064 1.7991137418328456 -3.3387144596718463
-0.40077402185863553 2.4276531028875548 -5.0671977025722965
2.899057623678586 1.484844061305491 -4.595793181781264
1.7991137418328458 0.38490017945975075 -3.3387144596718463
2.4276531028875543 -0.4007740218586353 -5.0671977025722965
2.1133834223602 2.1133834223602 -6.324276424681714
0.22776533919607345 1.6419789015691681 -6.795680945472746
1.6419789015691681 0.22776533919607367 -6.795680945472746
-5.575974020452618 0.6666666666666685 -5.575974020452617
-5.1045694996615865 1.1380711874576992 -3.6903559372884907
-3.690355937288492 1.1380711874576992 -5.104569499661585
-4.633164978870554 4.43790283299492 -4.6331649788705525
-4.633164978870554 3.0236892706218264 -3.2189514164974584
-3.2189514164974593 3.023689270621826 -4.6331649788705525
-6.5187830620346805 3.966498312203889 -5.104569499661585
-6.5187830620346805 2.5522847498307946 -3.690355937288491
-6.990187582825713 2.0808802290397637 -5.575974020452618
-5.1045694996615865 3.966498312203889 -6.51878306203468
-3.6903559372884915 2.5522847498307946 -6.5187830620346805
-5.575974020452618 2.0808802290397637 -6.990187582825712
3.0403186215433777 1.6261050591702833 4.454532183916473
1.6261050591702833 1.6261050591702833 3.0403186215433786
1.6261050591702835 3.040318621543378 4.454532183916473
3.0403186215433777 4.454532183916473 1.6261050591702837
1.6261050591702835 3.0403186215433786 1.6261050591702835
1.6261050591702837 4.4545321839164735 3.040318621543378
4.454532183916473 3.040318621543378 1.6261050591702837
3.0403186215433786 1.6261050591702833 1.6261050591702835
4.454532183916473 1.6261050591702835 3.0403186215433786
4.4545321839164735 4.4545321839164735 3.040318621543379
3.0403186215433786 4.4545321839164735 4.4545321839164735
4.4545321839164735 3.040318621543378 4.4545321839164735
0.6666666666666685 -5.5759740204526205 -5.575974020452616
1.1380711874576992 -5.104569499661587 -3.6903559372884898
1.1380711874576996 -3.6903559372884933 -5.104569499661585
4.437902832994921 -4.633164978870555 -4.633164978870552
3.023689270621826 -4.633164978870555 -3.2189514164974575
3.0236892706218264 -3.218951416497461 -4.6331649788705525
3.966498312203891 -6.518783062034682 -5.104569499661583
2.552284749830795 -6.518783062034682 -3.690355937288489
2.0808802290397646 -6.990187582825715 -5.575974020452615
3.9664983122038904 -5.104569499661588 -6.518783062034679
2.5522847498307955 -3.6903559372884933 -6.5187830620346805
2.0808802290397646 -5.5759740204526205 -6.990187582825712
-2.5522847498307906 3.6903559372884933 6.5187830620346805
-3.023689270621823 3.218951416497462 4.633164978870554
-1.1380711874576963 3.6903559372884924 5.104569499661585
-2.552284749830791 6.518783062034684 3.6903559372884907
-3.023689270621823 4.633164978870558 3.218951416497459
-1.1380711874576965 5.104569499661588 3.6903559372884898
-3.9664983122038855 6.518783062034683 5.104569499661587
-4.437902832994917 4.633164978870558 4.633164978870555
-3.9664983122038855 5.104569499661589 6.518783062034681
-2.0808802290397583 6.9901875828257145 5.575974020452618
-0.6666666666666641 5.57597402045262 5.575974020452617
-2.0808802290397583 5.5759740204526205 6.990187582825712
-3.885618083164128 -5.299831645537219 -5.299831645537222
-5.299831645537223 -5.29983164553722 -3.885618083164127
-5.299831645537223 -3.885618083164125 -5.299831645537222
-7.6568542494923815 -6.242640687119284 -6.242640687119286
-7.185449728701349 -5.7712361663282525 -4.357022603955159
-7.18544972870135 -4.357022603955157 -5.771236166328254
-6.242640687119286 -7.656854249492379 -6.242640687119285
-5.771236166328254 -7.185449728701347 -4.3570226039551585
-4.357022603955159 -7.185449728701347 -5.771236166328253
-6.242640687119286 -6.242640687119284 -7.6568542494923815
-5.771236166328255 -4.357022603955158 -7.185449728701349
-4.35702260395516 -5.7712361663282525 -7.185449728701348
3.690355937288494 -2.5522847498307915 6.5187830620346805
3.218951416497462 -3.0236892706218224 4.633164978870554
3.6903559372884933 -1.1380711874576963 5.104569499661586
6.518783062034683 -2.552284749830791 3.6903559372884907
4.633164978870557 -3.0236892706218224 3.218951416497459
5.104569499661588 -1.1380711874576965 3.6903559372884907
6.518783062034684 -3.9664983122038873 5.104569499661586
4.633164978870558 -4.437902832994918 4.633164978870554
5.10456949966159 -3.9664983122038873 6.5187830620346805
6.990187582825716 -2.0808802290397597 5.575974020452618
5.575974020452621 -0.666666666666665 5.575974020452618
5.575974020452622 -2.08088022903976 6.990187582825712
-0.5095318264029889 -1.9237453887760794 8.20451338150733
-2.3951499095671154 -2.3951499095671114 7.733108860716296
-1.9237453887760836 -0.5095318264029844 8.204513381507327
-3.3379589511491807 -1.9237453887760794 11.032940506253517
-3.8093634719402107 -2.395149909567111 9.147322423089392
-3.3379589511491794 -0.5095318264029842 9.618726943880423
-1.9237453887760856 -3.3379589511491745 11.032940506253519
-2.3951499095671163 -3.8093634719402063 9.147322423089392
-0.5095318264029898 -3.337958951149175 9.618726943880425
-1.4523408679850536 -1.4523408679850474 11.50434502704455
-1.4523408679850531 -0.03812730561195288 10.090131464671455
-0.03812730561195821 -1.452340867985048 10.090131464671456
3.6903559372884924 6.518783062034683 -2.5522847498307892
3.21895141649746 4.633164978870557 -3.023689270621821
3.690355937288491 5.104569499661587 -1.1380711874576945
6.518783062034682 3.6903559372884933 -2.552284749830789
4.633164978870555 3.2189514164974615 -3.023689270621821
5.104569499661586 3.6903559372884924 -1.1380711874576945
6.518783062034682 5.104569499661589 -3.9664983122038837
4.633164978870556 4.633164978870558 -4.437902832994916
5.104569499661588 6.518783062034684 -3.9664983122038837
6.990187582825714 5.57597402045262 -2.0808802290397557
5.575974020452618 5.575974020452619 -0.6666666666666621
5.575974020452619 6.9901875828257145 -2.0808802290397557
-0.5095318264029924 8.20451338150733 -1.9237453887760743
-2.395149909567119 7.733108860716298 -2.3951499095671065
-1.9237453887760867 8.204513381507326 -0.5095318264029796
-3.337958951149183 11.032940506253519 -1.9237453887760705
-3.8093634719402143 9.147322423089392 -2.3951499095671043
-3.337958951149182 9.618726943880421 -0.5095318264029776
-1.923745388776089 11.03294050625352 -3.3379589511491656
-2.39514990956712 9.147322423089395 -3.809363471940199
-0.509531826402994 9.618726943880427 -3.337958951149168
-1.4523408679850562 11.50434502704455 -1.4523408679850385
-1.4523408679850551 10.090131464671453 -0.03812730561194533
-0.03812730561196087 10.090131464671456 -1.4523408679850403
8.204513381507331 -0.509531826402994 -1.9237453887760747
7.733108860716297 -2.3951499095671194 -2.395149909567106
8.204513381507327 -1.9237453887760876 -0.5095318264029796
11.032940506253517 -3.3379589511491874 -1.9237453887760716
9.14732242308939 -3.8093634719402165 -2.3951499095671043
9.618726943880421 -3.3379589511491847 -0.5095318264029776
11.03294050625352 -1.923745388776093 -3.337958951149167
9.147322423089394 -2.395149909567122 -3.8093634719402
9.618726943880427 -0.5095318264029964 -3.3379589511491687
11.50434502704455 -1.4523408679850605 -1.45234086798504
10.090131464671455 -1.452340867985058 -0.038127305611946216
10.090131464671458 -0.03812730561196398 -1.4523408679850414
-12.95744140355227 3.7228591306089305 2.3086455682358307
-13.428845924343301 1.8372410474448038 1.8372410474447987
-12.957441403552274 2.3086455682358364 3.722859130608926
-16.41440788935317 2.15151072797216 3.565724290345241
-15.157329167243752 1.0515668461264183 2.465780408499504
-14.685924646452724 1.522971366917451 4.351398491663631
-16.414407889353168 3.5657242903452544 2.1515107279721453
-15.157329167243748 2.465780408499513 1.0515668461264083
-14.685924646452717 4.351398491663639 1.52297136691744
-15.94300336856214 4.037128811136287 4.037128811136273
-14.214520125661693 3.4085894500815783 4.8228030124546635
-14.21452012566169 4.822803012454672 3.4085894500815677
-4.6903559372884915 -1.276142374915396 2.5522847498307932
-5.161760458079525 -1.747546895706428 0.6666666666666661
-6.608580182396173 -1.4623158124542 2.0177239987125932
-6.551389223978235 -3.405124854036263 2.4891285195036246
-1.2761423749153962 -4.69035593728849 2.5522847498307932
-1.7475468957064282 -5.161760458079522 0.6666666666666663
-1.4623158124541997 -6.608580182396171 2.017723998712593
-3.405124854036263 -6.551389223978234 2.4891285195036246
-4.690355937288491 2.5522847498307946 -1.2761423749153948
-5.161760458079523 0.6666666666666674 -1.747546895706427
-6.608580182396172 2.0177239987125937 -1.4623158124541988
-6.551389223978235 2.4891285195036255 -3.405124854036262
-1.2761423749153973 2.5522847498307946 -4.69035593728849
-1.7475468957064293 0.6666666666666676 -5.161760458079522
-1.462315812454202 2.0177239987125946 -6.608580182396171
-3.405124854036265 2.489128519503626 -6.551389223978234
2.552284749830794 -4.690355937288491 -1.2761423749153937
0.6666666666666676 -5.161760458079523 -1.7475468957064262
2.017723998712594 -6.608580182396173 -1.4623158124541975
2.489128519503626 -6.551389223978236 -3.4051248540362606
-3.885618083164126 3.3570226039551594 1.9428090415820631
-3.885618083164126 1.9428090415820651 3.3570226039551585
-5.448566912007241 3.1777372691015255 3.177737269101524
-4.586638099464938 4.453879644016922 4.45387964401692
2.5522847498307946 -1.2761423749153973 -4.690355937288489
0.6666666666666681 -1.7475468957064293 -5.161760458079521
2.0177239987125946 -1.4623158124542006 -6.60858018239617
2.4891285195036263 -3.4051248540362637 -6.551389223978234
0.6666666666666677 4.495093791412857 3.0808802290397606
0.6666666666666677 3.0808802290397628 4.495093791412856
1.4131189145820562 4.893158725748849 4.8931587257488465
-0.391618939542309 5.50263443399758 5.502634433997576
-6.730674558831868 -6.730674558831872 -0.48803387171258183
-8.144888121204962 -6.730674558831874 0.926179690660514
-6.7306745588318675 -8.144888121204968 0.9261796906605135
3.3570226039551594 -3.8856180831641245 1.9428090415820631
1.9428090415820656 -3.885618083164125 3.3570226039551585
3.1777372691015273 -5.448566912007239 3.1777372691015238
4.453879644016924 -4.586638099464937 4.45387964401692
-6.730674558831871 -0.48803387171258183 -6.7306745588318675
-8.144888121204964 0.9261796906605135 -6.7306745588318675
-6.730674558831871 0.9261796906605135 -8.144888121204962
4.495093791412859 0.6666666666666679 3.08088022903976
3.0808802290397628 0.6666666666666676 4.495093791412855
4.89315872574885 1.4131189145820566 4.8931587257488465
5.502634433997581 -0.39161893954230753 5.502634433997577
-5.018065158330302 -5.018065158330305 6.362403730293672
-6.903683241494428 -5.489469679121338 5.890999209502643
-5.489469679121333 -6.9036832414944325 5.890999209502642
3.35702260395516 1.9428090415820651 -3.8856180831641236
1.9428090415820647 3.35702260395516 -3.8856180831641236
3.177737269101526 3.177737269101527 -5.448566912007238
4.453879644016922 4.453879644016923 -4.586638099464936
-0.4880338717125823 -6.73067455883187 -6.730674558831868
0.9261796906605128 -8.144888121204966 -6.7306745588318675
0.9261796906605135 -6.730674558831871 -8.144888121204962
-2.9371849292905403 3.3054557578287422 8.443283959333431
-4.351398491663636 4.719669320201838 8.443283959333433
-2.4657804084995085 5.191073840992869 8.914688480124463
4.495093791412856 3.080880229039761 0.6666666666666694
3.0808802290397606 4.495093791412856 0.6666666666666695
4.8931587257488465 4.893158725748847 1.4131189145820584
5.502634433997577 5.502634433997578 -0.3916189395423058
-5.018065158330304 6.362403730293672 -5.0180651583303035
-6.903683241494432 5.890999209502641 -5.489469679121336
-5.489469679121337 5.890999209502642 -6.903683241494431
3.305455757828745 -2.9371849292905416 8.443283959333433
4.71966932020184 -4.3513984916636375 8.443283959333433
5.191073840992872 -2.4657804084995103 8.914688480124465
-2.9371849292905425 8.443283959333437 3.305455757828743
-4.3513984916636375 8.443283959333435 4.719669320201839
-2.46578040849951 8.914688480124468 5.191073840992869
6.362403730293674 -5.018065158330305 -5.018065158330302
5.890999209502643 -6.9036832414944325 -5.489469679121332
5.8909992095026436 -5.489469679121338 -6.903683241494428
3.305455757828743 8.443283959333437 -2.9371849292905376
4.719669320201839 8.443283959333439 -4.351398491663632
5.191073840992869 8.914688480124468 -2.465780408499505
8.443283959333435 -2.9371849292905416 3.3054557578287396
8.443283959333435 -4.3513984916636375 4.719669320201835
8.914688480124466 -2.46578040849951 5.191073840992867
-8.811554787871632 -7.3973412254985345 -7.397341225498537
-7.397341225498537 -8.81155478787163 -7.397341225498537
-7.397341225498537 -7.397341225498535 -8.811554787871632
8.443283959333435 3.3054557578287413 -2.9371849292905403
8.443283959333435 4.719669320201837 -4.351398491663635
8.914688480124468 5.191073840992868 -2.4657804084995076
-3.7228591306089323 -2.30864556823583 12.957441403552272
-2.308645568235837 -3.722859130608925 12.957441403552272
-1.837241047444805 -1.837241047444798 13.428845924343305
-3.722859130608934 12.957441403552272 -2.3086455682358187
-2.30864556823584 12.957441403552275 -3.7228591306089136
-1.8372410474448078 13.428845924343305 -1.837241047444787
12.95744140355227 -3.7228591306089407 -2.30864556823582
12.957441403552274 -2.308645568235846 -3.722859130608916
13.428845924343303 -1.837241047444814 -1.8372410474447889
-0.41421356237309537 -3.828427124746189 0.
-3.82842712474619 -0.4142135623730949 2.220446049250313e-16
0.057190958417936866 -3.3570226039551567 1.8856180831641263
-3.3570226039551576 0.05719095841793731 1.8856180831641267
-0.4142135623730958 6.661338147750939e-16 -3.82842712474619
-3.82842712474619 4.440892098500626e-16 -0.4142135623730949
0.05719095841793642 1.8856180831641276 -3.357022603955157
-3.3570226039551567 1.8856180831641272 0.05719095841793731
8.881784197001252e-16 -0.41421356237309626 -3.828427124746189
6.661338147750939e-16 -3.828427124746189 -0.4142135623730945
1.8856180831641276 0.05719095841793642 -3.3570226039551563
1.8856180831641272 -3.3570226039551567 0.0571909584179382
1.333333333333334 1.7475468957064286 3.1617604580795224
-3.218951416497459 0.6094757082487314 2.023689270621825
1.3333333333333348 3.1617604580795238 1.7475468957064275
-3.2189514164974584 2.023689270621826 0.6094757082487299
-5.299831645537222 -1.8856180831641258 -5.299831645537221
-5.299831645537221 -0.4714045207910309 -3.8856180831641263
-5.299831645537221 -0.47140452079103135 -1.8856180831641265
-5.299831645537222 -1.8856180831641258 -0.4714045207910327
-5.299831645537222 -3.8856180831641254 -0.4714045207910327
-5.299831645537223 -5.299831645537219 -1.8856180831641276
-7.299831645537222 -1.8856180831641254 -5.299831645537222
-7.299831645537221 -0.47140452079103135 -3.8856180831641267
-7.299831645537221 -0.4714045207910309 -1.8856180831641272
-7.299831645537221 -1.8856180831641256 -0.4714045207910331
-7.299831645537222 -3.8856180831641254 -0.47140452079103357
-7.299831645537223 -5.29983164553722 -1.8856180831641285
-7.299831645537223 -5.299831645537219 -3.885618083164128
-7.299831645537222 -3.885618083164125 -5.299831645537222
1.7475468957064288 1.3333333333333344 3.161760458079523
0.6094757082487314 -3.2189514164974593 2.0236892706218255
3.1617604580795233 1.3333333333333344 1.7475468957064275
2.023689270621826 -3.2189514164974584 0.6094757082487301
-1.8856180831641274 -5.299831645537221 -5.299831645537221
-0.47140452079103223 -5.299831645537221 -3.885618083164127
-0.47140452079103223 -5.299831645537221 -1.8856180831641272
-1.8856180831641267 -5.299831645537222 -0.4714045207910331
-3.8856180831641267 -5.299831645537221 -0.4714045207910331
-1.885618083164128 -7.299831645537221 -5.299831645537223
-0.47140452079103223 -7.299831645537221 -3.8856180831641276
-0.47140452079103223 -7.299831645537222 -1.8856180831641276
-1.8856180831641272 -7.299831645537222 -0.471404520791034
-3.8856180831641267 -7.299831645537221 -0.471404520791034
-5.299831645537222 -7.299831645537221 -1.8856180831641292
-5.299831645537223 -7.299831645537221 -3.8856180831641285
-3.8856180831641276 -7.29983164553722 -5.299831645537223
-2.1459676109983046 1.2682459513747928 7.31562449261844
-2.931641812316691 1.8967853124295007 5.58714124971799
-3.8205307012055805 1.0078964235406105 4.031585694162436
-4.291935221996612 -0.8777216596235162 3.560181173371405
-4.0697129997743895 -2.6554994374012937 4.4490700622602946
-3.2840387984560024 -3.2840387984560016 6.177553305160743
-3.923745388776083 1.4904681735970147 8.20451338150733
-4.70941959009447 2.1190075346517228 6.4760301386068795
-5.598308478983359 1.2301186457628326 4.920474583051325
-6.06971299977439 -0.655499437401294 4.4490700622602946
-5.847490777552168 -2.4332772151790714 5.337958951149184
-5.061816576233781 -3.0618165762337792 7.066442194049634
-4.172927687344892 -2.17292768734489 8.621997749605189
-3.70152316655386 -0.2873096041807624 9.093402270396219
1.7475468957064275 3.161760458079523 1.3333333333333346
0.6094757082487308 2.0236892706218264 -3.2189514164974575
3.161760458079522 1.747546895706428 1.3333333333333346
2.0236892706218255 0.6094757082487314 -3.2189514164974575
-0.4714045207910327 -3.8856180831641263 -5.29983164553722
-0.47140452079103223 -1.8856180831641267 -5.29983164553722
-1.885618083164127 -0.4714045207910318 -5.29983164553722
-3.8856180831641267 -0.47140452079103135 -5.29983164553722
-1.8856180831641276 -5.299831645537221 -7.299831645537221
-0.4714045207910327 -3.8856180831641263 -7.29983164553722
-0.47140452079103223 -1.8856180831641265 -7.29983164553722
-1.885618083164127 -0.47140452079103135 -7.29983164553722
-3.8856180831641263 -0.47140452079103135 -7.29983164553722
-5.299831645537221 -1.8856180831641265 -7.299831645537221
-5.299831645537221 -3.8856180831641263 -7.299831645537221
-3.885618083164127 -5.299831645537221 -7.299831645537221
1.268245951374789 -2.145967610998303 7.315624492618441
1.8967853124294978 -2.9316418123166894 5.587141249717991
1.007896423540608 -3.820530701205579 4.031585694162436
-0.8777216596235182 -4.291935221996611 3.5601811733714053
-2.655499437401296 -4.069712999774388 4.4490700622602946
1.490468173597011 -3.923745388776081 8.204513381507331
2.119007534651719 -4.709419590094468 6.476030138606881
1.2301186457628304 -5.598308478983357 4.920474583051327
-0.6554994374012966 -6.069712999774389 4.449070062260295
-2.433277215179074 -5.8474907775521645 5.337958951149185
-3.061816576233783 -5.061816576233778 7.066442194049634
-2.1729276873448935 -4.172927687344889 8.621997749605189
-0.28730960418076684 -3.7015231665538573 9.093402270396219
-2.1459676109983086 7.315624492618436 1.2682459513747968
-2.931641812316693 5.587141249717985 1.8967853124295033
-3.8205307012055805 4.03158569416243 1.0078964235406123
-4.291935221996613 3.5601811733714004 -0.877721659623514
-4.069712999774391 4.449070062260292 -2.65549943740129
-3.2840387984560078 6.1775533051607425 -3.284038798455997
-3.923745388776088 8.204513381507324 1.49046817359702
-4.7094195900944715 6.476030138606872 2.1190075346517263
-5.598308478983359 4.920474583051318 1.2301186457628357
-6.06971299977439 4.449070062260288 -0.6554994374012904
-5.847490777552171 5.337958951149179 -2.4332772151790665
-5.061816576233786 7.06644219404963 -3.061816576233773
-4.172927687344899 8.621997749605185 -2.172927687344883
-3.701523166553867 9.093402270396215 -0.28730960418075563
2.368189833220529 -1.0460237291525627 6.058545770509021
2.145967610998307 0.7317540486252142 5.169656881620131
0.7317540486252125 2.1459676109983095 5.1696568816201305
-1.0460237291525647 2.368189833220532 6.058545770509019
2.1571348402636783 -1.2570787221094126 8.871180048173995
3.257078722109419 -0.1571348402636732 7.614101326064577
3.0348564998871965 1.6206429375141036 6.725212437175687
1.6206429375141018 3.0348564998871987 6.725212437175686
-0.15713484026367563 3.257078722109422 7.614101326064575
-1.2570787221094157 2.1571348402636827 8.871180048173994
-1.034856499887194 0.3793570624859054 9.760068937062883
0.37935706248590073 -1.0348564998871899 9.760068937062885
1.268245951374785 7.315624492618442 -2.1459676109982984
1.8967853124294942 5.587141249717993 -2.931641812316686
1.0078964235406058 4.031585694162439 -3.8205307012055765
-0.8777216596235207 3.560181173371407 -4.291935221996608
-2.655499437401298 4.449070062260295 -4.069712999774384
1.4904681735970056 8.204513381507333 -3.923745388776075
2.1190075346517148 6.476030138606885 -4.709419590094463
1.2301186457628264 4.92047458305133 -5.598308478983354
-0.6554994374012995 4.449070062260298 -6.069712999774385
-2.433277215179077 5.3379589511491865 -5.847490777552162
-3.061816576233787 7.066442194049634 -5.061816576233773
-2.172927687344898 8.621997749605189 -4.172927687344883
-0.28730960418077167 9.09340227039622 -3.7015231665538515
7.315624492618436 -2.1459676109983086 1.2682459513747966
5.587141249717986 -2.931641812316693 1.8967853124295029
4.03158569416243 -3.8205307012055814 1.007896423540613
3.5601811733714013 -4.291935221996614 -0.8777216596235138
4.449070062260293 -4.069712999774392 -2.65549943740129
6.177553305160743 -3.2840387984560078 -3.284038798455997
8.204513381507324 -3.923745388776087 1.49046817359702
6.476030138606874 -4.7094195900944715 2.119007534651727
4.920474583051319 -5.59830847898336 1.2301186457628366
4.449070062260289 -6.069712999774392 -0.6554994374012899
5.337958951149181 -5.847490777552172 -2.433277215179066
7.066442194049632 -5.061816576233786 -3.061816576233773
8.621997749605187 -4.172927687344898 -2.172927687344883
9.093402270396215 -3.7015231665538657 -0.2873096041807561
2.3681898332205265 6.058545770509023 -1.0460237291525596
2.145967610998306 5.169656881620132 0.7317540486252168
0.7317540486252113 5.16965688162013 2.1459676109983112
-1.0460237291525665 6.058545770509017 2.368189833220535
2.157134840263673 8.871180048173997 -1.2570787221094077
3.257078722109415 7.614101326064579 -0.15713484026366908
3.0348564998871934 6.725212437175688 1.6206429375141072
1.6206429375140994 6.725212437175685 3.0348564998872023
-0.15713484026367885 7.6141013260645725 3.2570787221094255
-1.2570787221094202 8.87118004817399 2.157134840263687
-1.034856499887199 9.760068937062881 0.37935706248591095
0.37935706248589474 9.760068937062885 -1.0348564998871839
7.315624492618442 1.2682459513747841 -2.1459676109982984
5.587141249717993 1.8967853124294938 -2.931641812316686
4.0315856941624375 1.0078964235406054 -3.8205307012055765
3.5601811733714057 -0.8777216596235209 -4.291935221996608
4.449070062260294 -2.6554994374012986 -4.069712999774384
8.204513381507333 1.4904681735970056 -3.923745388776075
6.476030138606884 2.1190075346517148 -4.7094195900944635
4.9204745830513295 1.2301186457628261 -5.598308478983354
4.449070062260297 -0.6554994374012998 -6.069712999774385
5.337958951149186 -2.4332772151790776 -5.847490777552162
7.066442194049634 -3.0618165762337872 -5.061816576233773
8.621997749605189 -2.172927687344899 -4.172927687344883
9.09340227039622 -0.2873096041807724 -3.7015231665538515
-8.46159210361674 -7.04737854124365 6.437902832994923
-7.128258770283408 -5.714045207910317 5.771236166328255
-8.266329957741108 -6.852116395368017 1.2189514164974637
-9.59966329107444 -8.18544972870135 1.8856180831641314
-10.20913899932317 -8.794925436950079 3.690355937288497
-9.737734478532136 -8.323520916159048 5.575974020452623
-7.047378541243644 -8.461592103616745 6.437902832994922
-5.714045207910313 -7.128258770283411 5.771236166328254
-6.852116395368013 -8.26632995774111 1.2189514164974633
-8.185449728701345 -9.599663291074444 1.885618083164131
-8.794925436950074 -10.209138999323173 3.6903559372884964
-8.32352091615904 -9.737734478532142 5.575974020452622
6.058545770509023 2.3681898332205256 -1.04602372915256
5.169656881620132 2.1459676109983046 0.7317540486252161
5.16965688162013 0.7317540486252105 2.1459676109983112
6.058545770509017 -1.046023729152567 2.3681898332205353
8.871180048173997 2.1571348402636725 -1.2570787221094077
7.614101326064579 3.257078722109414 -0.15713484026366942
6.725212437175688 3.034856499887193 1.620642937514107
6.725212437175685 1.6206429375140987 3.034856499887202
7.6141013260645725 -0.15713484026367874 3.2570787221094255
8.871180048173992 -1.25707872210942 2.157134840263687
9.760068937062883 -1.0348564998871992 0.3793570624859111
9.760068937062886 0.3793570624858948 -1.0348564998871836
-8.461592103616745 6.43790283299492 -7.04737854124365
-7.128258770283411 5.771236166328254 -5.714045207910316
-8.266329957741108 1.2189514164974624 -6.852116395368014
-9.599663291074442 1.8856180831641294 -8.185449728701347
-10.209138999323173 3.6903559372884938 -8.794925436950077
-9.73773447853214 5.57597402045262 -8.323520916159046
-7.047378541243649 6.43790283299492 -8.461592103616745
-5.714045207910316 5.771236166328254 -7.128258770283411
-6.852116395368014 1.2189514164974629 -8.266329957741108
-8.185449728701347 1.8856180831641294 -9.599663291074442
-8.794925436950077 3.6903559372884938 -10.209138999323173
-8.323520916159046 5.57597402045262 -9.73773447853214
-5.104569499661583 9.794925436950079 6.380711874576985
-4.437902832994917 8.461592103616747 5.047378541243651
-4.437902832994917 5.047378541243651 8.461592103616745
-5.104569499661582 6.380711874576985 9.794925436950079
-5.575974020452613 8.323520916159048 9.737734478532143
-5.575974020452613 9.737734478532142 8.323520916159048
-3.218951416497455 10.26632995774111 6.852116395368015
-2.5522847498307892 8.932996624407778 5.518783062034682
-2.5522847498307892 5.518783062034682 8.932996624407775
-3.218951416497455 6.852116395368015 10.26632995774111
-3.690355937288486 8.794925436950079 10.209138999323173
-3.690355937288486 10.209138999323173 8.794925436950079
6.437902832994922 -8.461592103616745 -7.047378541243646
5.771236166328255 -7.128258770283411 -5.714045207910313
1.2189514164974633 -8.26632995774111 -6.852116395368012
1.8856180831641305 -9.599663291074444 -8.185449728701345
3.6903559372884955 -10.209138999323173 -8.794925436950074
5.575974020452621 -9.73773447853214 -8.323520916159042
6.437902832994922 -7.047378541243649 -8.461592103616741
5.771236166328255 -5.714045207910316 -7.1282587702834075
1.2189514164974633 -6.852116395368016 -8.266329957741107
1.885618083164131 -8.185449728701348 -9.59966329107444
3.690355937288496 -8.794925436950077 -10.20913899932317
5.575974020452621 -8.323520916159046 -9.737734478532138
9.79492543695008 -5.1045694996615865 6.380711874576981
8.461592103616747 -4.4379028329949195 5.047378541243647
5.047378541243653 -4.437902832994919 8.461592103616743
6.380711874576985 -5.1045694996615865 9.794925436950075
8.323520916159048 -5.575974020452619 9.73773447853214
9.737734478532143 -5.575974020452618 8.323520916159044
10.266329957741112 -3.2189514164974593 6.852116395368013
8.932996624407778 -2.5522847498307923 5.51878306203468
5.518783062034684 -2.5522847498307923 8.932996624407775
6.852116395368017 -3.2189514164974593 10.266329957741107
8.79492543695008 -3.6903559372884915 10.209138999323171
10.209138999323175 -3.6903559372884915 8.794925436950077
9.79492543695008 6.380711874576989 -5.104569499661579
8.461592103616747 5.0473785412436545 -4.437902832994914
5.047378541243651 8.461592103616747 -4.437902832994914
6.380711874576985 9.79492543695008 -5.1045694996615785
8.323520916159048 9.737734478532147 -5.57597402045261
9.737734478532143 8.323520916159053 -5.57597402045261
10.26632995774111 6.852116395368019 -3.218951416497452
8.932996624407778 5.518783062034686 -2.552284749830787
5.518783062034681 8.932996624407778 -2.552284749830786
6.852116395368014 10.266329957741112 -3.2189514164974513
8.794925436950077 10.209138999323176 -3.6903559372884827
10.209138999323173 8.794925436950082 -3.690355937288483
-0.47140452079103223 -3.8856180831641263 -0.47140452079103223
-3.8856180831641263 -0.47140452079103135 -0.47140452079103223
-0.47140452079103223 -0.4714045207910318 -3.8856180831641263
0.22222222222222254 -3.1919913401508717 2.3031024512619864
-3.191991340150872 0.22222222222222343 2.3031024512619847
1.360293409679921 1.360293409679922 3.4411736387196825
0.222222222222221 2.3031024512619886 -3.191991340150871
-3.1919913401508717 2.3031024512619824 0.2222222222222241
1.3602934096799204 3.4411736387196816 1.3602934096799226
2.303102451261988 0.222222222222221 -3.1919913401508704
2.3031024512619824 -3.1919913401508717 0.22222222222222454
3.4411736387196816 1.36029340967992 1.3602934096799224
-10.014632361970206 1.8372410474448042 -1.5769725149282934
-8.129014278806078 2.308645568235836 -1.1055679941372611
-8.12901427880608 -1.1055679941372576 2.3086455682358333
-10.014632361970207 -1.5769725149282894 1.837241047444801
-11.34796569530354 -0.9103058482616238 0.5039077141114672
-11.347965695303538 0.503907714111471 -0.9103058482616277
-8.405156653721479 3.4467167556935348 4.860930318066625
-6.990943091348383 3.4467167556935348 3.446716755693532
-9.543227841179176 -1.1055679941372571 3.7228591306089274
-10.209894507845844 0.22776533919607522 5.05619246394226
-9.738489987054813 2.1133834223602017 5.527596984733292
-8.405156653721479 4.860930318066629 3.4467167556935316
-9.543227841179174 3.72285913060893 -1.1055679941372616
-10.209894507845842 5.0561924639422635 0.227765339196071
-9.73848998705481 5.527596984733295 2.1133834223601977
-11.62410807021894 1.64197890156917 5.05619246394226
-12.762179257676634 0.5039077141114712 0.5039077141114663
-11.624108070218938 5.0561924639422635 1.641978901569165
1.8372410474448033 -10.014632361970206 -1.5769725149282945
2.3086455682358356 -8.129014278806078 -1.1055679941372618
-1.1055679941372583 -8.12901427880608 2.308645568235833
-1.576972514928291 -10.014632361970207 1.8372410474448
-0.9103058482616244 -11.34796569530354 0.5039077141114658
0.5039077141114701 -11.347965695303538 -0.9103058482616284
3.446716755693534 -8.40515665372148 4.860930318066624
3.4467167556935348 -6.990943091348383 3.446716755693531
-1.1055679941372583 -9.543227841179176 3.722859130608926
0.22776533919607478 -10.209894507845844 5.056192463942259
2.1133834223602013 -9.738489987054813 5.527596984733291
4.86093031806663 -8.405156653721479 3.4467167556935303
3.7228591306089296 -9.543227841179174 -1.1055679941372631
5.0561924639422635 -10.209894507845842 0.2277653391960699
5.527596984733295 -9.73848998705481 2.1133834223601964
1.641978901569169 -11.62410807021894 5.056192463942258
0.5039077141114696 -12.762179257676634 0.5039077141114647
1.8372410474448029 -13.428845924343301 1.8372410474447975
2.308645568235835 -12.957441403552272 3.7228591306089243
5.056192463942263 -11.624108070218938 1.641978901569164
3.7228591306089296 -12.95744140355227 2.3086455682358293
1.8372410474448047 -1.5769725149282892 -10.014632361970207
2.3086455682358356 -1.1055679941372583 -8.12901427880608
-1.105567994137259 2.308645568235835 -8.12901427880608
-1.5769725149282898 1.8372410474448047 -10.014632361970207
-0.9103058482616229 0.5039077141114725 -11.347965695303541
0.5039077141114718 -0.9103058482616222 -11.347965695303541
3.4467167556935334 4.860930318066628 -8.405156653721475
3.446716755693533 3.4467167556935334 -6.990943091348381
-1.1055679941372585 3.7228591306089305 -9.543227841179174
0.22776533919607478 5.056192463942264 -10.20989450784584
2.113383422360201 5.527596984733295 -9.738489987054809
4.860930318066629 3.446716755693534 -8.405156653721475
3.7228591306089305 -1.1055679941372578 -9.543227841179176
5.0561924639422635 0.22776533919607567 -10.209894507845842
5.527596984733295 2.1133834223602017 -9.738489987054809
1.64197890156917 5.056192463942264 -11.624108070218936
0.5039077141114721 0.503907714111473 -12.762179257676635
1.837241047444805 1.8372410474448062 -13.428845924343301
2.3086455682358364 3.7228591306089323 -12.95744140355227
5.0561924639422635 1.6419789015691708 -11.624108070218936
3.7228591306089314 2.3086455682358378 -12.95744140355227
6.259270038040839 2.8450564756677434 7.673483600413933
5.787865517249807 2.373651954876712 5.787865517249807
2.373651954876712 5.7878655172498075 5.787865517249807
2.845056475667744 6.259270038040839 7.673483600413933
4.178389809001077 5.592603371374172 9.006816933747267
5.592603371374171 4.178389809001076 9.006816933747267
6.259270038040838 7.673483600413934 2.8450564756677457
5.7878655172498075 5.7878655172498075 2.373651954876714
2.845056475667744 7.673483600413934 6.25927003804084
4.178389809001077 9.006816933747267 5.592603371374174
5.592603371374171 9.006816933747267 4.178389809001079
7.673483600413933 6.259270038040839 2.845056475667745
7.673483600413933 2.845056475667743 6.259270038040839
9.006816933747267 4.178389809001076 5.592603371374174
9.006816933747267 5.592603371374171 4.178389809001079
6.064007892165202 9.478221454538298 6.064007892165206
6.064007892165202 6.064007892165202 9.4782214545383
7.397341225498536 7.397341225498536 8.811554787871634
7.397341225498536 8.811554787871632 7.397341225498539
9.478221454538298 6.064007892165202 6.064007892165205
8.811554787871632 7.397341225498536 7.397341225498539
3 0 1 2
3 3 4 5
3 6 7 8
3 9 10 11
4 4 1 2 5
4 7 1 0 8
4 10 2 0 11
4 3 4 7 6
4 10 5 3 9
4 11 8 6 9
3 7 1 4
3 10 2 5
3 11 0 8
3 9 3 6
3 12 13 14
3 15 16 17
3 18 19 20
3 21 22 23
4 14 13 16 17
4 12 13 19 20
4 15 16 19 18
4 22 14 12 23
4 22 17 15 21
4 23 20 18 21
3 19 13 16
3 22 14 17
3 23 12 20
3 21 15 18
3 24 25 26
3 27 28 29
3 30 31 32
3 33 34 35
4 26 25 28 29
4 24 25 31 32
4 27 28 31 30
4 34 26 24 35
4 34 29 27 33
4 35 32 30 33
3 31 25 28
3 34 26 29
3 35 24 32
3 33 27 30
3 36 37 38
3 39 40 41
3 42 43 44
3 45 46 47
4 40 37 38 41
4 36 37 43 44
4 46 38 36 47
4 39 40 43 42
4 39 41 46 45
4 47 44 42 45
3 43 37 40
3 46 38 41
3 47 36 44
3 45 39 42
3 48 49 50
3 51 52 53
3 54 55 56
3 57 58 59
4 50 49 52 53
4 48 49 55 56
4 51 52 55 54
4 58 50 48 59
4 58 53 51 57
4 59 56 54 57
3 55 49 52
3 58 50 53
3 59 48 56
3 57 51 54
3 60 61 62
3 63 64 65
3 66 67 68
3 69 70 71
4 64 61 62 65
4 60 61 67 68
4 70 62 60 71
4 63 64 67 66
4 63 65 70 69
4 71 68 66 69
3 67 61 64
3 70 62 65
3 71 60 68
3 69 63 66
3 72 73 74
3 75 76 77
3 78 79 80
3 81 82 83
4 74 73 76 77
4 72 73 79 80
4 75 76 79 78
4 82 74 72 83
4 82 77 75 81
4 83 80 78 81
3 79 73 76
3 82 74 77
3 83 72 80
3 81 75 78
3 84 85 86
3 87 88 89
3 90 91 92
3 93 94 95
4 88 85 86 89
4 84 85 91 92
4 94 86 84 95
4 87 88 91 90
4 87 89 94 93
4 90 92 95 93
3 91 85 88
3 94 86 89
3 95 84 92
3 93 87 90
3 96 97 98
3 99 100 101
3 102 103 104
3 105 106 107
4 100 97 98 101
4 96 97 103 104
4 99 100 103 102
4 106 98 96 107
4 99 101 106 105
4 107 104 102 105
3 103 97 100
3 106 98 101
3 107 96 104
3 105 99 102
3 108 109 110
3 111 112 113
3 114 115 116
3 117 118 119
4 112 109 110 113
4 115 109 108 116
4 118 110 108 119
4 111 112 115 114
4 111 113 118 117
4 114 116 119 117
3 115 109 112
3 118 110 113
3 119 108 116
3 117 111 114
3 120 121 122
3 123 124 125
3 126 127 128
3 129 130 131
4 124 121 122 125
4 120 121 127 128
4 130 122 120 131
4 123 124 127 126
4 123 125 130 129
4 131 128 126 129
3 127 121 124
3 130 122 125
3 131 120 128
3 129 123 126
3 132 133 134
3 135 136 137
3 138 139 140
3 141 142 143
4 136 133 134 137
4 139 133 132 140
4 142 134 132 143
4 135 136 139 138
4 135 137 142 141
4 138 140 143 141
3 139 133 136
3 142 134 137
3 143 132 140
3 141 135 138
3 144 145 146
3 147 148 149
3 150 151 152
3 153 154 155
4 148 145 146 149
4 144 145 151 152
4 154 146 144 155
4 147 148 151 150
4 147 149 154 153
4 155 152 150 153
3 151 145 148
3 154 146 149
3 155 144 152
3 153 147 150
3 156 157 158
3 159 160 161
3 162 163 164
3 165 166 167
4 160 157 158 161
4 163 157 156 164
4 166 158 156 167
4 159 160 163 162
4 159 161 166 165
4 162 164 167 165
3 163 157 160
3 166 158 161
3 167 156 164
3 165 159 162
3 168 169 170
3 171 172 173
3 174 175 176
3 177 178 179
4 172 169 170 173
4 175 169 168 176
4 178 170 168 179
4 171 172 175 174
4 171 173 178 177
4 174 176 179 177
3 175 169 172
3 178 170 173
3 179 168 176
3 177 171 174
3 180 181 182
3 183 184 185
3 186 187 188
3 189 190 191
4 184 181 182 185
4 187 181 180 188
4 190 182 180 191
4 183 184 187 186
4 190 185 183 189
4 191 188 186 189
3 187 181 184
3 190 182 185
3 191 180 188
3 189 183 186
4 4 1 13 16
4 7 1 13 19
4 7 4 16 19
3 7 1 4
3 19 13 16
4 5 2 25 28
4 10 2 25 31
4 10 5 28 31
3 10 2 5
3 31 25 28
4 192 193 37 40
4 194 193 37 195
4 194 192 40 195
3 194 193 192
3 195 37 40
4 8 0 49 52
4 11 0 49 55
4 11 8 52 55
3 11 0 8
3 55 49 52
4 196 197 38 41
4 198 197 38 199
4 198 196 41 199
3 198 197 196
3 199 38 41
4 200 201 61 64
4 202 201 61 203
4 202 200 64 203
3 202 201 200
3 203 61 64
4 6 3 73 76
4 9 3 73 79
4 9 6 76 79
3 9 3 6
3 79 73 76
4 204 205 62 65
4 206 205 62 207
4 206 204 65 207
3 206 205 204
3 207 62 65
4 208 209 85 88
4 210 209 85 211
4 210 208 88 211
3 210 209 208
3 211 85 88
4 212 213 97 100
4 214 213 97 215
4 214 212 100 215
3 214 213 212
3 215 97 100
4 216 217 86 89
4 218 217 86 219
4 218 216 89 219
3 218 217 216
3 219 86 89
4 220 221 98 101
4 222 221 98 223
4 222 220 101 223
3 222 221 220
3 223 98 101
4 44 36 224 225
4 47 36 224 226
4 47 44 225 226
3 47 36 44
3 226 224 225
4 227 228 121 124
4 229 228 121 230
4 229 227 124 230
3 229 228 227
3 230 121 124
4 68 60 231 232
4 71 60 231 233
4 71 68 232 233
3 71 60 68
3 233 231 232
4 234 235 122 125
4 236 235 122 237
4 236 234 125 237
3 236 235 234
3 237 122 125
4 42 39 238 239
4 45 39 238 240
4 45 42 239 240
3 45 39 42
3 240 238 239
4 241 242 145 148
4 243 242 145 244
4 243 241 148 244
3 243 242 241
3 244 145 148
4 92 84 245 246
4 95 84 245 247
4 95 92 246 247
3 95 84 92
3 247 245 246
4 104 96 248 249
4 107 96 248 250
4 107 104 249 250
3 107 96 104
3 250 248 249
4 251 252 146 149
4 253 252 146 254
4 253 251 149 254
3 253 252 251
3 254 146 149
4 66 63 255 256
4 69 63 255 257
4 69 66 256 257
3 69 63 66
3 257 255 256
4 128 120 258 259
4 131 120 258 260
4 131 128 259 260
3 131 120 128
3 260 258 259
4 102 99 261 262
4 105 99 261 263
4 105 102 262 263
3 105 99 102
3 263 261 262
4 90 87 264 265
4 93 87 264 266
4 93 90 265 266
3 93 87 90
3 266 264 265
4 152 144 267 268
4 155 144 267 269
4 155 152 268 269
3 155 144 152
3 269 267 268
4 126 123 270 271
4 129 123 270 272
4 129 126 271 272
3 129 123 126
3 272 270 271
4 114 111 273 274
4 117 111 273 275
4 117 114 274 275
3 117 111 114
3 275 273 274
4 150 147 276 277
4 153 147 276 278
4 153 150 277 278
3 153 147 150
3 278 276 277
4 138 135 279 280
4 141 135 279 281
4 141 138 280 281
3 141 135 138
3 281 279 280
4 162 159 282 283
4 165 159 282 284
4 165 162 283 284
3 165 159 162
3 284 282 283
4 174 171 285 286
4 177 171 285 287
4 177 174 286 287
3 177 171 174
3 287 285 286
8 197 288 2 1 289 193 37 38
8 196 290 5 4 291 192 40 41
4 4 1 289 291
4 5 2 288 290
4 192 193 37 40
4 196 197 38 41
4 4 1 2 5
4 193 289 291 192
4 197 288 290 196
4 40 37 38 41
8 205 292 0 1 293 201 61 62
8 204 294 8 7 295 200 64 65
4 7 1 293 295
4 8 0 292 294
4 200 201 61 64
4 204 205 62 65
4 7 1 0 8
4 201 293 295 200
4 205 292 294 204
4 64 61 62 65
8 217 296 0 2 297 209 85 86
8 216 298 11 10 299 208 88 89
4 10 2 297 299
4 11 0 296 298
4 208 209 85 88
4 216 217 86 89
4 10 2 0 11
4 209 297 299 208
4 217 296 298 216
4 88 85 86 89
8 221 300 3 4 301 213 97 98
8 220 302 6 7 303 212 100 101
4 7 4 301 303
4 6 3 300 302
4 212 213 97 100
4 220 221 98 101
4 3 4 7 6
4 213 301 303 212
4 221 300 302 220
4 100 97 98 101
8 304 305 306 307 308 309 109 110
8 310 311 312 313 314 315 316 317
4 313 307 308 314
4 312 306 305 311
4 315 309 109 316
4 310 304 110 317
4 313 307 306 312
4 309 308 314 315
4 304 305 311 310
4 316 109 110 317
8 235 318 3 5 319 228 121 122
8 234 320 9 10 321 227 124 125
4 10 5 319 321
4 9 3 318 320
4 227 228 121 124
4 234 235 122 125
4 10 5 3 9
4 228 319 321 227
4 235 318 320 234
4 124 121 122 125
8 322 323 324 325 326 309 109 108
8 327 328 329 330 331 332 333 334
4 330 325 326 331
4 329 324 323 328
4 332 309 109 333
4 327 322 108 334
4 330 325 324 329
4 331 326 309 332
4 322 323 328 327
4 333 109 108 334
8 335 336 337 338 339 340 133 134
8 341 342 343 344 345 346 347 348
4 344 338 339 345
4 343 337 336 342
4 346 340 133 347
4 341 335 134 348
4 344 338 337 343
4 340 339 345 346
4 335 336 342 341
4 347 133 134 348
8 252 349 6 8 350 242 145 146
8 251 351 9 11 352 241 148 149
4 11 8 350 352
4 9 6 349 351
4 241 242 145 148
4 251 252 146 149
4 11 8 6 9
4 242 350 352 241
4 252 349 351 251
4 148 145 146 149
8 322 353 354 355 356 304 110 108
8 357 358 359 360 361 362 363 364
4 360 355 356 361
4 359 354 353 358
4 362 304 110 363
4 357 322 108 364
4 360 355 354 359
4 361 356 304 362
4 358 353 322 357
4 363 110 108 364
8 365 366 367 368 369 340 133 132
8 370 371 372 373 374 375 376 377
4 373 368 369 374
4 372 367 366 371
4 375 340 133 376
4 370 365 132 377
4 373 368 367 372
4 340 369 374 375
4 365 366 371 370
4 376 133 132 377
8 378 379 380 381 382 383 157 158
8 384 385 386 387 388 389 390 391
4 387 381 382 388
4 386 380 379 385
4 389 383 157 390
4 384 378 158 391
4 387 381 380 386
4 383 382 388 389
4 378 379 385 384
4 390 157 158 391
8 365 392 393 394 395 335 134 132
8 396 397 398 399 400 401 402 403
4 399 394 395 400
4 398 393 392 397
4 401 335 134 402
4 396 365 132 403
4 399 394 393 398
4 400 395 335 401
4 397 392 365 396
4 402 134 132 403
8 404 405 406 407 408 383 157 156
8 409 410 411 412 413 414 415 416
4 412 407 408 413
4 411 406 405 410
4 414 383 157 415
4 409 404 156 416
4 412 407 406 411
4 383 408 413 414
4 404 405 410 409
4 415 157 156 416
8 417 418 419 420 421 422 169 170
8 423 424 425 426 427 428 429 430
4 426 420 421 427
4 425 419 418 424
4 428 422 169 429
4 423 417 170 430
4 426 420 419 425
4 422 421 427 428
4 417 418 424 423
4 429 169 170 430
8 404 431 432 433 434 378 158 156
8 435 436 437 438 439 440 441 442
4 438 433 434 439
4 437 432 431 436
4 440 378 158 441
4 435 404 156 442
4 438 433 432 437
4 378 434 439 440
4 436 431 404 435
4 441 158 156 442
8 443 444 445 446 447 422 169 168
8 448 449 450 451 452 453 454 455
4 451 446 447 452
4 450 445 444 449
4 453 422 169 454
4 448 443 168 455
4 451 446 445 450
4 422 447 452 453
4 443 444 449 448
4 454 169 168 455
8 456 457 42 44 458 459 460 461
8 462 463 45 47 464 465 466 467
4 47 44 458 464
4 45 42 457 463
4 465 459 460 466
4 462 456 461 467
4 47 44 42 45
4 459 458 464 465
4 456 457 463 462
4 466 460 461 467
8 443 468 469 470 471 417 170 168
8 472 473 474 475 476 477 478 479
4 475 470 471 476
4 474 469 468 473
4 477 417 170 478
4 472 443 168 479
4 475 470 469 474
4 417 471 476 477
4 443 468 473 472
4 478 170 168 479
8 480 481 66 68 482 483 484 485
8 486 487 69 71 488 489 490 491
4 71 68 482 488
4 69 66 481 487
4 489 483 484 490
4 486 480 485 491
4 71 68 66 69
4 483 482 488 489
4 480 481 487 486
4 490 484 485 491
8 492 493 102 104 494 495 496 497
8 498 499 105 107 500 501 502 503
4 107 104 494 500
4 105 102 493 499
4 501 495 496 502
4 498 492 497 503
4 107 104 102 105
4 495 494 500 501
4 492 493 499 498
4 502 496 497 503
8 504 505 90 92 506 507 508 509
8 510 511 93 95 512 513 514 515
4 95 92 506 512
4 93 90 505 511
4 513 507 508 514
4 510 504 509 515
4 90 92 95 93
4 507 506 512 513
4 504 505 511 510
4 509 508 514 515
8 516 517 126 128 518 519 520 521
8 522 523 129 131 524 525 526 527
4 131 128 518 524
4 129 126 517 523
4 525 519 520 526
4 522 516 521 527
4 131 128 126 129
4 519 518 524 525
4 516 517 523 522
4 526 520 521 527
8 528 529 150 152 530 531 532 533
8 534 535 153 155 536 537 538 539
4 155 152 530 536
4 153 150 529 535
4 537 531 532 538
4 534 528 533 539
4 155 152 150 153
4 531 530 536 537
4 528 529 535 534
4 538 532 533 539
8 325 540 2 1 541 307 308 326
8 355 542 0 1 541 306 305 356
8 354 542 0 2 540 324 323 353
8 304 305 306 307 308 309 109 110
8 322 323 324 325 326 309 109 108
8 322 353 354 355 356 304 110 108
3 0 1 2
3 306 541 307
3 324 540 325
3 309 308 326
3 354 542 355
3 304 305 356
3 322 323 353
3 108 109 110
8 368 543 5 4 544 338 339 369
8 394 545 3 4 544 337 336 395
8 393 545 3 5 543 367 366 392
8 335 336 337 338 339 340 133 134
8 365 366 367 368 369 340 133 132
8 365 392 393 394 395 335 134 132
3 3 4 5
3 337 544 338
3 367 543 368
3 340 339 369
3 393 545 394
3 335 336 395
3 365 366 392
3 132 133 134
8 407 546 8 7 547 381 382 408
8 433 548 6 7 547 380 379 434
8 432 548 6 8 546 406 405 431
8 378 379 380 381 382 383 157 158
8 404 405 406 407 408 383 157 156
8 404 431 432 433 434 378 158 156
3 6 7 8
3 380 547 381
3 406 546 407
3 383 382 408
3 432 548 433
3 378 379 434
3 404 405 431
3 156 157 158
8 446 549 11 10 550 420 421 447
8 470 551 9 10 550 419 418 471
8 469 551 9 11 549 445 444 468
8 417 418 419 420 421 422 169 170
8 443 444 445 446 447 422 169 168
8 443 468 469 470 471 417 170 168
3 9 10 11
3 419 550 420
3 445 549 446
3 422 421 447
3 469 551 470
3 417 418 471
3 443 444 468
3 168 169 170
8 552 553 23 22 554 555 556 557
8 558 559 21 22 554 560 561 562
8 563 559 21 23 553 564 565 566
8 567 561 560 555 556 568 181 182
8 569 565 564 552 557 568 181 180
8 569 566 563 558 562 567 182 180
3 21 22 23
3 560 554 555
3 564 553 552
3 568 556 557
3 563 559 558
3 567 561 562
3 569 565 566
3 180 181 182
8 570 571 35 34 572 573 574 575
8 576 577 33 34 572 578 579 580
8 581 577 33 35 571 582 583 584
8 585 579 578 573 574 586 587 588
8 589 583 582 570 575 586 587 590
8 589 584 581 576 580 585 588 590
3 33 34 35
3 578 572 573
3 582 571 570
3 586 574 575
3 581 577 576
3 585 579 580
3 589 583 584
3 590 587 588
8 591 592 59 58 593 594 595 596
8 597 598 57 58 593 599 600 601
8 602 598 57 59 592 603 604 605
8 606 600 599 594 595 607 608 609
8 610 604 603 591 596 607 608 611
8 610 605 602 597 601 606 609 611
3 57 58 59
3 599 593 594
3 603 592 591
3 607 595 596
3 602 598 597
3 606 600 601
3 610 604 605
3 611 608 609
8 612 613 83 82 614 615 616 617
8 618 619 81 82 614 620 621 622
8 623 619 81 83 613 624 625 626
8 627 621 620 615 616 628 629 630
8 631 625 624 612 617 628 629 632
8 631 626 623 618 622 627 630 632
3 81 82 83
3 620 614 615
3 624 613 612
3 628 616 617
3 623 619 618
3 627 621 622
3 631 625 626
3 632 629 630
# cell 1: 0 1 2 3 4 5 6 7 8 9 10 11 12 13
# cell 2: 14 15 16 17 18 19 20 21 22 23 24 25 26 27
# cell 3: 28 29 30 31 32 33 34 35 36 37 38 39 40 41
# cell 4: 42 43 44 45 46 47 48 49 50 51 52 53 54 55
# cell 5: 56 57 58 59 60 61 62 63 64 65 66 67 68 69
# cell 6: 70 71 72 73 74 75 76 77 78 79 80 81 82 83
# cell 7: 84 85 86 87 88 89 90 91 92 93 94 95 96 97
# cell 8: 98 99 100 101 102 103 104 105 106 107 108 109 110 111
# cell 9: 112 113 114 115 116 117 118 119 120 121 122 123 124 125
# cell 10: 126 127 128 129 130 131 132 133 134 135 136 137 138 139
# cell 11: 140 141 142 143 144 145 146 147 148 149 150 151 152 153
# cell 12: 154 155 156 157 158 159 160 161 162 163 164 165 166 167
# cell 13: 168 169 170 171 172 173 174 175 176 177 178 179 180 181
# cell 14: 182 183 184 185 186 187 188 189 190 191 192 193 194 195
# cell 15: 196 197 198 199 200 201 202 203 204 205 206 207 208 209
# cell 16: 210 211 212 213 214 215 216 217 218 219 220 221 222 223
# cell 17: 224 225 226 227 228
# cell 18: 229 230 231 232 233
# cell 19: 234 235 236 237 238
# cell 20: 239 240 241 242 243
# cell 21: 244 245 246 247 248
# cell 22: 249 250 251 252 253
# cell 23: 254 255 256 257 258
# cell 24: 259 260 261 262 263
# cell 25: 264 265 266 267 268
# cell 26: 269 270 271 272 273
# cell 27: 274 275 276 277 278
# cell 28: 279 280 281 282 283
# cell 29: 284 285 286 287 288
# cell 30: 289 290 291 292 293
# cell 31: 294 295 296 297 298
# cell 32: 299 300 301 302 303
# cell 33: 304 305 306 307 308
# cell 34: 309 310 311 312 313
# cell 35: 314 315 316 317 318
# cell 36: 319 320 321 322 323
# cell 37: 324 325 326 327 328
# cell 38: 329 330 331 332 333
# cell 39: 334 335 336 337 338
# cell 40: 339 340 341 342 343
# cell 41: 344 345 346 347 348
# cell 42: 349 350 351 352 353
# cell 43: 354 355 356 357 358
# cell 44: 359 360 361 362 363
# cell 45: 364 365 366 367 368
# cell 46: 369 370 371 372 373
# cell 47: 374 375 376 377 378
# cell 48: 379 380 381 382 383
# cell 49: 384 385 386 387 388 389 390 391 392 393
# cell 50: 394 395 396 397 398 399 400 401 402 403
# cell 51: 404 405 406 407 408 409 410 411 412 413
# cell 52: 414 415 416 417 418 419 420 421 422 423
# cell 53: 424 425 426 427 428 429 430 431 432 433
# cell 54: 434 435 436 437 438 439 440 441 442 443
# cell 55: 444 445 446 447 448 449 450 451 452 453
# cell 56: 454 455 456 457 458 459 460 461 462 463
# cell 57: 464 465 466 467 468 469 470 471 472 473
# cell 58: 474 475 476 477 478 479 480 481 482 483
# cell 59: 484 485 486 487 488 489 490 491 492 493
# cell 60: 494 495 496 497 498 499 500 501 502 503
# cell 61: 504 505 506 507 508 509 510 511 512 513
# cell 62: 514 515 516 517 518 519 520 521 522 523
# cell 63: 524 525 526 527 528 529 530 531 532 533
# cell 64: 534 535 536 537 538 539 540 541 542 543
# cell 65: 544 545 546 547 548 549 550 551 552 553
# cell 66: 554 555 556 557 558 559 560 561 562 563
# cell 67: 564 565 566 567 568 569 570 571 572 573
# cell 68: 574 575 576 577 578 579 580 581 582 583
# cell 69: 584 585 586 587 588 589 590 591 592 593
# cell 70: 594 595 596 597 598 599 600 601 602 603
# cell 71: 604 605 606 607 608 609 610 611 612 613
# cell 72: 614 615 616 617 618 619 620 621 622 623
# cell 73: 624 625 626 627 628 629 630 631 632 633 634 635 636 637
# cell 74: 638 639 640 641 642 643 644 645 646 647 648 649 650 651
# cell 75: 652 653 654 655 656 657 658 659 660 661 662 663 664 665
# cell 76: 666 667 668 669 670 671 672 673 674 675 676 677 678 679
# cell 77: 680 681 682 683 684 685 686 687 688 689 690 691 692 693
# cell 78: 694 695 696 697 698 699 700 701 702 703 704 705 706 707
# cell 79: 708 709 710 711 712 713 714 715 716 717 718 719 720 721
# cell 80: 722 723 724 725 726 727 728 729 730 731 732 733 734 735