OFF
# face-rotation BFS net; polygonal faces are preserved
# the cell decomposition is listed below as comments
167 176 0
0.23570226039551617 0.23570226039551617 -1.1785113019775784
-1.1785113019775784 0.23570226039551617 0.23570226039551617
0.2357022603955164 -1.1785113019775786 0.23570226039551617
0.7071067811865478 0.7071067811865478 0.7071067811865478
-4.592724864350674 0.2357022603955152 -1.1785113019775788
-3.178511301977579 0.23570226039551592 0.23570226039551587
-4.592724864350674 -1.1785113019775793 0.23570226039551528
-5.064129385141706 0.7071067811865471 0.7071067811865468
0.23570226039551592 -4.592724864350673 -1.1785113019775793
0.23570226039551645 -3.1785113019775784 0.23570226039551556
-1.1785113019775781 -4.592724864350673 0.2357022603955151
0.7071067811865475 -5.0641293851417055 0.7071067811865465
-4.592724864350674 -4.592724864350674 -1.178511301977579
-4.592724864350673 -3.1785113019775793 0.2357022603955154
-3.178511301977579 -4.592724864350674 0.23570226039551584
-5.0641293851417055 -5.064129385141706 0.7071067811865469
0.23570226039551484 -1.1785113019775801 -4.592724864350672
0.2357022603955155 0.23570226039551542 -3.178511301977578
-1.1785113019775804 0.23570226039551395 -4.5927248643506715
0.7071067811865447 0.7071067811865459 -5.0641293851417055
-4.592724864350674 -1.1785113019775801 -4.592724864350673
-4.592724864350673 0.23570226039551467 -3.1785113019775784
-3.1785113019775797 0.23570226039551473 -4.592724864350672
-5.064129385141706 0.7071067811865457 -5.064129385141705
2.3816698713938225 0.9674563090207273 3.9911455796425535
1.5959956700754363 1.595995670075436 2.262662336742104
0.9674563090207285 2.381669871393823 3.991145579642553
2.8006961120969622 2.800696112096961 3.3102279384999513
-1.1785113019775793 -4.592724864350675 -4.592724864350673
0.23570226039551545 -4.592724864350674 -3.1785113019775784
0.23570226039551537 -3.17851130197758 -4.592724864350673
0.7071067811865474 -5.064129385141706 -5.064129385141705
-1.9102653506027902 1.5039482117703038 6.137113190640859
-2.695939551921176 2.132487572825013 4.40862994774041
-0.8103214687570501 2.603892093616044 4.880034468531441
-2.3292915913059296 3.4419445750223217 5.8752217902013975
-3.1785113019775793 -4.592724864350675 -4.592724864350673
-4.592724864350674 -4.592724864350675 -3.1785113019775793
-4.592724864350673 -3.17851130197758 -4.592724864350673
-5.0641293851417055 -5.064129385141707 -5.0641293851417055
1.5039482117703042 -1.9102653506027902 6.137113190640861
2.1324875728250126 -2.695939551921176 4.408629947740411
2.603892093616044 -0.8103214687570499 4.880034468531443
3.4419445750223217 -2.329291591305929 5.875221790201398
-0.2738295660074741 -1.6880431283805686 7.026002079529748
-2.1594476491716 -2.1594476491716 6.554597558738716
-1.6880431283805688 -0.2738295660074739 7.026002079529747
-1.6880431283805692 -1.6880431283805684 8.440215641902842
1.5039482117703025 6.137113190640861 -1.9102653506027905
2.1324875728250117 4.408629947740412 -2.6959395519211764
2.603892093616044 4.880034468531443 -0.8103214687570504
3.4419445750223217 5.875221790201399 -2.32929159130593
-0.273829566007475 7.026002079529749 -1.6880431283805684
-2.1594476491716006 6.554597558738718 -2.1594476491716
-1.6880431283805695 7.026002079529751 -0.2738295660074743
-1.6880431283805695 8.440215641902844 -1.6880431283805704
7.026002079529746 -0.27382956600747344 -1.6880431283805684
6.554597558738715 -2.1594476491715997 -2.1594476491716
7.026002079529746 -1.688043128380568 -0.27382956600747366
8.440215641902842 -1.688043128380568 -1.6880431283805677
-9.421151989096867 -3.1785113019775797 -4.592724864350673
-8.006938426723773 -4.592724864350676 -4.592724864350673
-9.421151989096867 -4.592724864350674 -3.1785113019775784
-9.8925565098879 -5.064129385141706 -5.064129385141704
-0.6420193992280021 -4.056232961601097 2.3816698713938234
0.4579244826177382 -2.956289079755356 1.1245911492844054
-2.956289079755356 0.4579244826177383 1.1245911492844054
-4.056232961601096 -0.6420193992280022 2.3816698713938234
-3.8340107393788747 -2.41979717700578 3.270558760282712
-2.41979717700578 -3.8340107393788747 3.270558760282712
-3.5848284408100657 1.2435986839361237 2.8530743921848547
1.243598683936124 -3.5848284408100652 2.8530743921848547
-3.0483365380604885 -3.048336538060489 4.9990420031831615
-0.6420193992280027 2.3816698713938234 -4.056232961601096
0.457924482617738 1.1245911492844054 -2.9562890797553556
-2.956289079755356 1.1245911492844054 0.4579244826177381
-4.056232961601096 2.3816698713938234 -0.6420193992280026
-3.8340107393788747 3.270558760282712 -2.4197971770057802
-2.4197971770057807 3.2705587602827126 -3.8340107393788743
0.9674563090207273 3.9911455796425535 2.3816698713938225
1.595995670075436 2.262662336742104 1.5959956700754363
-3.5848284408100657 2.853074392184855 1.2435986839361233
-2.6959395519211773 4.408629947740411 2.1324875728250126
-0.8103214687570506 4.880034468531442 2.6038920936160443
2.3816698713938225 3.9911455796425535 0.9674563090207274
1.2435986839361235 2.853074392184855 -3.5848284408100644
-1.910265350602791 6.137113190640861 1.5039482117703034
-3.0483365380604894 4.9990420031831615 -3.0483365380604885
2.3816698713938225 -0.6420193992280021 -4.056232961601096
1.124591149284405 0.4579244826177382 -2.9562890797553556
1.1245911492844054 -2.956289079755356 0.457924482617738
2.381669871393823 -4.056232961601096 -0.6420193992280023
3.2705587602827113 -3.834010739378874 -2.41979717700578
3.2705587602827113 -2.41979717700578 -3.8340107393788743
3.9911455796425526 0.9674563090207278 2.381669871393822
2.2626623367421033 1.595995670075436 1.5959956700754363
2.8530743921848543 -3.584828440810065 1.2435986839361235
4.40862994774041 -2.6959395519211755 2.1324875728250126
4.880034468531441 -0.8103214687570498 2.6038920936160443
3.9911455796425526 2.3816698713938225 0.9674563090207275
2.853074392184854 1.2435986839361242 -3.584828440810065
4.408629947740409 2.1324875728250134 -2.695939551921176
4.8800344685314405 2.603892093616045 -0.8103214687570497
6.137113190640859 -1.91026535060279 1.5039482117703038
4.99904200318316 -3.0483365380604885 -3.0483365380604885
6.137113190640859 1.503948211770304 -1.9102653506027902
-9.421151989096863 -1.1785113019775788 0.23570226039551523
-8.006938426723767 0.23570226039551567 0.23570226039551567
-6.006938426723768 0.23570226039551523 0.23570226039551523
-6.00693842672377 -4.592724864350674 0.23570226039551523
-8.00693842672377 -4.592724864350674 0.23570226039551567
-9.421151989096863 -3.178511301977579 0.23570226039551523
-9.421151989096863 0.23570226039551523 -1.1785113019775793
-6.006938426723769 0.2357022603955139 -4.592724864350673
-8.006938426723769 0.23570226039551434 -4.592724864350673
-9.421151989096863 0.23570226039551478 -3.1785113019775784
-9.421151989096865 -4.592724864350674 -1.1785113019775795
-6.006938426723771 -4.592724864350675 -4.592724864350673
-9.421151989096865 -1.1785113019775801 -4.592724864350673
-1.1785113019775755 -9.421151989096861 0.23570226039551656
0.2357022603955179 -8.006938426723766 0.23570226039551656
0.23570226039551656 -6.0069384267237655 0.23570226039551567
-4.592724864350672 -6.006938426723769 0.23570226039551567
-4.592724864350671 -8.006938426723769 0.23570226039551612
-3.1785113019775753 -9.421151989096863 0.23570226039551656
0.23570226039551834 -9.421151989096861 -1.1785113019775777
0.23570226039551567 -6.006938426723767 -4.592724864350672
0.23570226039551745 -8.006938426723767 -4.5927248643506715
0.23570226039551834 -9.421151989096861 -3.1785113019775775
-4.592724864350671 -9.421151989096865 -1.1785113019775784
-4.592724864350673 -6.006938426723772 -4.592724864350673
-4.5927248643506715 -8.00693842672377 -4.592724864350673
-4.5927248643506715 -9.421151989096865 -3.1785113019775775
-1.1785113019775766 -9.421151989096863 -4.5927248643506715
-3.1785113019775766 -9.421151989096865 -4.592724864350672
-1.1785113019775793 0.23570226039551478 -9.421151989096861
0.23570226039551478 0.23570226039551523 -8.006938426723766
0.23570226039551478 0.23570226039551523 -6.0069384267237655
-4.592724864350674 0.23570226039551434 -6.006938426723767
-4.592724864350674 0.23570226039551434 -8.006938426723767
-3.1785113019775793 0.23570226039551434 -9.421151989096861
0.23570226039551523 -1.17851130197758 -9.421151989096861
0.23570226039551478 -4.592724864350675 -6.006938426723766
0.23570226039551523 -4.592724864350675 -8.006938426723767
0.23570226039551567 -3.17851130197758 -9.421151989096861
-4.592724864350673 -1.1785113019775806 -9.421151989096861
-4.592724864350675 -4.592724864350675 -6.006938426723767
-4.592724864350675 -4.592724864350675 -8.006938426723767
-4.592724864350674 -3.1785113019775806 -9.421151989096863
-1.1785113019775793 -4.592724864350675 -9.421151989096861
-3.1785113019775793 -4.592724864350675 -9.421151989096863
3.1134239200190343 4.5276374823921275 7.7465888988895895
3.741963281073742 3.7419632810737418 6.01810565598914
2.853074392184854 2.853074392184854 4.462550100433584
-1.438860829811758 3.38956629493443 6.608517711431893
-0.5499719409228692 4.2784551838233185 8.164073266987447
1.3356461422412569 4.74985970461435 8.635477787778479
4.527637482392128 3.1134239200190326 7.746588898889589
3.3895662949344296 -1.4388608298117598 6.608517711431891
4.2784551838233185 -0.5499719409228712 8.164073266987446
4.74985970461435 1.3356461422412549 8.635477787778477
0.23570226039551678 3.6499158227686097 9.892556509887896
-0.9023689270621822 -0.9023689270621826 8.754485322430199
-0.01348003817329313 -0.01348003817329424 10.310040877985754
0.45792448261773866 1.872138044990832 10.781445398776786
3.64991582276861 0.23570226039551456 9.892556509887896
1.872138044990833 0.457924482617737 10.781445398776786
3 0 1 2
3 3 1 2
3 3 1 0
3 3 2 0
3 4 5 6
3 7 5 6
3 7 5 4
3 7 6 4
3 8 9 10
3 11 9 10
3 11 9 8
3 11 10 8
3 12 13 14
3 15 13 14
3 15 13 12
3 15 14 12
3 16 17 18
3 19 17 18
3 19 17 16
3 19 18 16
3 20 21 22
3 23 21 22
3 23 21 20
3 23 22 20
3 24 25 26
3 27 25 26
3 27 25 24
3 27 26 24
3 28 29 30
3 31 29 30
3 31 29 28
3 31 30 28
3 32 33 34
3 35 33 34
3 35 33 32
3 35 34 32
3 36 37 38
3 39 37 38
3 39 37 36
3 39 38 36
3 40 41 42
3 43 41 42
3 43 41 40
3 43 42 40
3 44 45 46
3 47 45 46
3 47 45 44
3 47 46 44
3 48 49 50
3 51 49 50
3 51 49 48
3 51 50 48
3 52 53 54
3 55 53 54
3 55 53 52
3 55 54 52
3 56 57 58
3 59 57 58
3 59 57 56
3 59 58 56
3 60 61 62
3 63 61 62
3 63 61 60
3 63 62 60
8 10 9 2 1 5 6 13 14
8 18 17 0 1 5 4 21 22
8 16 17 0 2 9 8 29 30
8 20 21 4 6 13 12 37 38
8 28 29 8 10 14 12 37 36
8 28 30 16 18 22 20 38 36
3 0 1 2
3 4 5 6
3 8 9 10
3 12 13 14
3 16 17 18
3 20 21 22
3 28 29 30
3 36 37 38
8 64 65 2 1 66 67 68 69
8 26 25 3 1 66 70 33 34
8 24 25 3 2 65 71 41 42
8 32 33 70 67 68 72 45 46
8 40 41 71 64 69 72 45 44
8 40 42 24 26 34 32 46 44
3 3 1 2
3 70 66 67
3 71 65 64
3 72 68 69
3 24 25 26
3 32 33 34
3 40 41 42
3 44 45 46
8 73 74 0 1 75 76 77 78
8 79 80 3 1 75 81 82 83
8 84 80 3 0 74 85 49 50
8 86 82 81 76 77 87 53 54
8 48 49 85 73 78 87 53 52
8 48 50 84 79 83 86 54 52
3 3 1 0
3 81 75 76
3 85 74 73
3 87 77 78
3 84 80 79
3 86 82 83
3 48 49 50
3 52 53 54
8 88 89 0 2 90 91 92 93
8 94 95 3 2 90 96 97 98
8 99 95 3 0 89 100 101 102
8 103 97 96 91 92 104 57 58
8 105 101 100 88 93 104 57 56
8 105 102 99 94 98 103 58 56
3 3 2 0
3 96 90 91
3 100 89 88
3 104 92 93
3 99 95 94
3 103 97 98
3 105 101 102
3 56 57 58
8 20 21 4 6 13 12 37 38
8 106 107 108 6 13 109 110 111
8 112 107 108 4 21 113 114 115
8 116 110 109 12 37 117 61 62
8 118 114 113 20 38 117 61 60
8 118 115 112 106 111 116 62 60
3 108 6 4
3 109 13 12
3 113 21 20
3 117 37 38
3 112 107 106
3 116 110 111
3 118 114 115
3 60 61 62
8 28 29 8 10 14 12 37 36
8 119 120 121 10 14 122 123 124
8 125 120 121 8 29 126 127 128
8 129 123 122 12 37 130 131 132
8 133 127 126 28 36 130 131 134
8 133 128 125 119 124 129 132 134
3 121 10 8
3 122 14 12
3 126 29 28
3 130 37 36
3 125 120 119
3 129 123 124
3 133 127 128
3 134 131 132
8 28 30 16 18 22 20 38 36
8 135 136 137 18 22 138 139 140
8 141 136 137 16 30 142 143 144
8 145 139 138 20 38 146 147 148
8 149 143 142 28 36 146 147 150
8 149 144 141 135 140 145 148 150
3 137 18 16
3 138 22 20
3 142 30 28
3 146 38 36
3 141 136 135
3 145 139 140
3 149 143 144
3 150 147 148
8 40 42 24 26 34 32 46 44
8 151 152 153 26 34 154 155 156
8 157 152 153 24 42 158 159 160
8 161 155 154 32 46 162 163 164
8 165 159 158 40 44 162 163 166
8 165 160 157 151 156 161 164 166
3 153 26 24
3 154 34 32
3 158 42 40
3 162 46 44
3 157 152 151
3 161 155 156
3 165 159 160
3 166 163 164
# cell 1: 0 1 2 3
# cell 2: 4 5 6 7
# cell 3: 8 9 10 11
# cell 4: 12 13 14 15
# cell 5: 16 17 18 19
# cell 6: 20 21 22 23
# cell 7: 24 25 26 27
# cell 8: 28 29 30 31
# cell 9: 32 33 34 35
# cell 10: 36 37 38 39
# cell 11: 40 41 42 43
# cell 12: 44 45 46 47
# cell 13: 48 49 50 51
# cell 14: 52 53 54 55
# cell 15: 56 57 58 59
# cell 16: 60 61 62 63
# cell 17: 64 65 66 67 68 69 70 71 72 73 74 75 76 77
# cell 18: 78 79 80 81 82 83 84 85 86 87 88 89 90 91
# cell 19: 92 93 94 95 96 97 98 99 100 101 102 103 104 105
# cell 20: 106 107 108 109 110 111 112 113 114 115 116 117 118 119
# cell 21: 120 121 122 123 124 125 126 127 128 129 130 131 132 133
# cell 22: 134 135 136 137 138 139 140 141 142 143 144 145 146 147
# cell 23: 148 149 150 151 152 153 154 155 156 157 158 159 160 161
# cell 24: 162 163 164 165 166 167 168 169 170 171 172 173 174 175